%TF.GenerationSoftware,KiCad,Pcbnew,10.0.4*%
%TF.CreationDate,2026-06-29T14:17:38+02:00*%
%TF.ProjectId,CW308T_to_cardedge,43573330-3854-45f7-946f-5f6361726465,rev?*%
%TF.SameCoordinates,Original*%
%TF.FileFunction,Drillmap*%
%TF.FilePolarity,Positive*%
%FSLAX45Y45*%
G04 Gerber Fmt 4.5, Leading zero omitted, Abs format (unit mm)*
G04 Created by KiCad (PCBNEW 10.0.4) date 2026-06-29 14:17:38*
%MOMM*%
%LPD*%
G01*
G04 APERTURE LIST*
%ADD10C,0.050000*%
%ADD11C,0.200000*%
%ADD12C,0.235000*%
G04 APERTURE END LIST*
D10*
X12146860Y-7673210D02*
X17546860Y-7673210D01*
X17546860Y-14373210D01*
X12146860Y-14373210D01*
X12146860Y-7673210D01*
D11*
D12*
X12949360Y-9330710D02*
X13184360Y-9565710D01*
X13184360Y-9330710D02*
X12949360Y-9565710D01*
X15264360Y-9330710D02*
X15499360Y-9565710D01*
X15499360Y-9330710D02*
X15264360Y-9565710D01*
D11*
X12405137Y-14687194D02*
X12405137Y-14487194D01*
X12405137Y-14487194D02*
X12452756Y-14487194D01*
X12452756Y-14487194D02*
X12481327Y-14496718D01*
X12481327Y-14496718D02*
X12500375Y-14515765D01*
X12500375Y-14515765D02*
X12509899Y-14534813D01*
X12509899Y-14534813D02*
X12519422Y-14572908D01*
X12519422Y-14572908D02*
X12519422Y-14601479D01*
X12519422Y-14601479D02*
X12509899Y-14639575D01*
X12509899Y-14639575D02*
X12500375Y-14658622D01*
X12500375Y-14658622D02*
X12481327Y-14677670D01*
X12481327Y-14677670D02*
X12452756Y-14687194D01*
X12452756Y-14687194D02*
X12405137Y-14687194D01*
X12605137Y-14687194D02*
X12605137Y-14553860D01*
X12605137Y-14591956D02*
X12614661Y-14572908D01*
X12614661Y-14572908D02*
X12624184Y-14563384D01*
X12624184Y-14563384D02*
X12643232Y-14553860D01*
X12643232Y-14553860D02*
X12662280Y-14553860D01*
X12728946Y-14687194D02*
X12728946Y-14553860D01*
X12728946Y-14487194D02*
X12719422Y-14496718D01*
X12719422Y-14496718D02*
X12728946Y-14506241D01*
X12728946Y-14506241D02*
X12738470Y-14496718D01*
X12738470Y-14496718D02*
X12728946Y-14487194D01*
X12728946Y-14487194D02*
X12728946Y-14506241D01*
X12852756Y-14687194D02*
X12833708Y-14677670D01*
X12833708Y-14677670D02*
X12824184Y-14658622D01*
X12824184Y-14658622D02*
X12824184Y-14487194D01*
X12957518Y-14687194D02*
X12938470Y-14677670D01*
X12938470Y-14677670D02*
X12928946Y-14658622D01*
X12928946Y-14658622D02*
X12928946Y-14487194D01*
X13186089Y-14687194D02*
X13186089Y-14487194D01*
X13186089Y-14487194D02*
X13252756Y-14630051D01*
X13252756Y-14630051D02*
X13319422Y-14487194D01*
X13319422Y-14487194D02*
X13319422Y-14687194D01*
X13500375Y-14687194D02*
X13500375Y-14582432D01*
X13500375Y-14582432D02*
X13490851Y-14563384D01*
X13490851Y-14563384D02*
X13471803Y-14553860D01*
X13471803Y-14553860D02*
X13433708Y-14553860D01*
X13433708Y-14553860D02*
X13414661Y-14563384D01*
X13500375Y-14677670D02*
X13481327Y-14687194D01*
X13481327Y-14687194D02*
X13433708Y-14687194D01*
X13433708Y-14687194D02*
X13414661Y-14677670D01*
X13414661Y-14677670D02*
X13405137Y-14658622D01*
X13405137Y-14658622D02*
X13405137Y-14639575D01*
X13405137Y-14639575D02*
X13414661Y-14620527D01*
X13414661Y-14620527D02*
X13433708Y-14611003D01*
X13433708Y-14611003D02*
X13481327Y-14611003D01*
X13481327Y-14611003D02*
X13500375Y-14601479D01*
X13595613Y-14553860D02*
X13595613Y-14753860D01*
X13595613Y-14563384D02*
X13614661Y-14553860D01*
X13614661Y-14553860D02*
X13652756Y-14553860D01*
X13652756Y-14553860D02*
X13671803Y-14563384D01*
X13671803Y-14563384D02*
X13681327Y-14572908D01*
X13681327Y-14572908D02*
X13690851Y-14591956D01*
X13690851Y-14591956D02*
X13690851Y-14649098D01*
X13690851Y-14649098D02*
X13681327Y-14668146D01*
X13681327Y-14668146D02*
X13671803Y-14677670D01*
X13671803Y-14677670D02*
X13652756Y-14687194D01*
X13652756Y-14687194D02*
X13614661Y-14687194D01*
X13614661Y-14687194D02*
X13595613Y-14677670D01*
X13776565Y-14668146D02*
X13786089Y-14677670D01*
X13786089Y-14677670D02*
X13776565Y-14687194D01*
X13776565Y-14687194D02*
X13767042Y-14677670D01*
X13767042Y-14677670D02*
X13776565Y-14668146D01*
X13776565Y-14668146D02*
X13776565Y-14687194D01*
X13776565Y-14563384D02*
X13786089Y-14572908D01*
X13786089Y-14572908D02*
X13776565Y-14582432D01*
X13776565Y-14582432D02*
X13767042Y-14572908D01*
X13767042Y-14572908D02*
X13776565Y-14563384D01*
X13776565Y-14563384D02*
X13776565Y-14582432D01*
X11944360Y-14915710D02*
X12144360Y-15115710D01*
X12144360Y-14915710D02*
X11944360Y-15115710D01*
X12395613Y-14926241D02*
X12405137Y-14916718D01*
X12405137Y-14916718D02*
X12424184Y-14907194D01*
X12424184Y-14907194D02*
X12471803Y-14907194D01*
X12471803Y-14907194D02*
X12490851Y-14916718D01*
X12490851Y-14916718D02*
X12500375Y-14926241D01*
X12500375Y-14926241D02*
X12509899Y-14945289D01*
X12509899Y-14945289D02*
X12509899Y-14964337D01*
X12509899Y-14964337D02*
X12500375Y-14992908D01*
X12500375Y-14992908D02*
X12386089Y-15107194D01*
X12386089Y-15107194D02*
X12509899Y-15107194D01*
X12595613Y-15088146D02*
X12605137Y-15097670D01*
X12605137Y-15097670D02*
X12595613Y-15107194D01*
X12595613Y-15107194D02*
X12586089Y-15097670D01*
X12586089Y-15097670D02*
X12595613Y-15088146D01*
X12595613Y-15088146D02*
X12595613Y-15107194D01*
X12671803Y-14907194D02*
X12795613Y-14907194D01*
X12795613Y-14907194D02*
X12728946Y-14983384D01*
X12728946Y-14983384D02*
X12757518Y-14983384D01*
X12757518Y-14983384D02*
X12776565Y-14992908D01*
X12776565Y-14992908D02*
X12786089Y-15002432D01*
X12786089Y-15002432D02*
X12795613Y-15021479D01*
X12795613Y-15021479D02*
X12795613Y-15069098D01*
X12795613Y-15069098D02*
X12786089Y-15088146D01*
X12786089Y-15088146D02*
X12776565Y-15097670D01*
X12776565Y-15097670D02*
X12757518Y-15107194D01*
X12757518Y-15107194D02*
X12700375Y-15107194D01*
X12700375Y-15107194D02*
X12681327Y-15097670D01*
X12681327Y-15097670D02*
X12671803Y-15088146D01*
X12976565Y-14907194D02*
X12881327Y-14907194D01*
X12881327Y-14907194D02*
X12871803Y-15002432D01*
X12871803Y-15002432D02*
X12881327Y-14992908D01*
X12881327Y-14992908D02*
X12900375Y-14983384D01*
X12900375Y-14983384D02*
X12947994Y-14983384D01*
X12947994Y-14983384D02*
X12967042Y-14992908D01*
X12967042Y-14992908D02*
X12976565Y-15002432D01*
X12976565Y-15002432D02*
X12986089Y-15021479D01*
X12986089Y-15021479D02*
X12986089Y-15069098D01*
X12986089Y-15069098D02*
X12976565Y-15088146D01*
X12976565Y-15088146D02*
X12967042Y-15097670D01*
X12967042Y-15097670D02*
X12947994Y-15107194D01*
X12947994Y-15107194D02*
X12900375Y-15107194D01*
X12900375Y-15107194D02*
X12881327Y-15097670D01*
X12881327Y-15097670D02*
X12871803Y-15088146D01*
X13109899Y-14907194D02*
X13128946Y-14907194D01*
X13128946Y-14907194D02*
X13147994Y-14916718D01*
X13147994Y-14916718D02*
X13157518Y-14926241D01*
X13157518Y-14926241D02*
X13167042Y-14945289D01*
X13167042Y-14945289D02*
X13176565Y-14983384D01*
X13176565Y-14983384D02*
X13176565Y-15031003D01*
X13176565Y-15031003D02*
X13167042Y-15069098D01*
X13167042Y-15069098D02*
X13157518Y-15088146D01*
X13157518Y-15088146D02*
X13147994Y-15097670D01*
X13147994Y-15097670D02*
X13128946Y-15107194D01*
X13128946Y-15107194D02*
X13109899Y-15107194D01*
X13109899Y-15107194D02*
X13090851Y-15097670D01*
X13090851Y-15097670D02*
X13081327Y-15088146D01*
X13081327Y-15088146D02*
X13071803Y-15069098D01*
X13071803Y-15069098D02*
X13062280Y-15031003D01*
X13062280Y-15031003D02*
X13062280Y-14983384D01*
X13062280Y-14983384D02*
X13071803Y-14945289D01*
X13071803Y-14945289D02*
X13081327Y-14926241D01*
X13081327Y-14926241D02*
X13090851Y-14916718D01*
X13090851Y-14916718D02*
X13109899Y-14907194D01*
X13262280Y-15107194D02*
X13262280Y-14973860D01*
X13262280Y-14992908D02*
X13271803Y-14983384D01*
X13271803Y-14983384D02*
X13290851Y-14973860D01*
X13290851Y-14973860D02*
X13319423Y-14973860D01*
X13319423Y-14973860D02*
X13338470Y-14983384D01*
X13338470Y-14983384D02*
X13347994Y-15002432D01*
X13347994Y-15002432D02*
X13347994Y-15107194D01*
X13347994Y-15002432D02*
X13357518Y-14983384D01*
X13357518Y-14983384D02*
X13376565Y-14973860D01*
X13376565Y-14973860D02*
X13405137Y-14973860D01*
X13405137Y-14973860D02*
X13424184Y-14983384D01*
X13424184Y-14983384D02*
X13433708Y-15002432D01*
X13433708Y-15002432D02*
X13433708Y-15107194D01*
X13528946Y-15107194D02*
X13528946Y-14973860D01*
X13528946Y-14992908D02*
X13538470Y-14983384D01*
X13538470Y-14983384D02*
X13557518Y-14973860D01*
X13557518Y-14973860D02*
X13586089Y-14973860D01*
X13586089Y-14973860D02*
X13605137Y-14983384D01*
X13605137Y-14983384D02*
X13614661Y-15002432D01*
X13614661Y-15002432D02*
X13614661Y-15107194D01*
X13614661Y-15002432D02*
X13624184Y-14983384D01*
X13624184Y-14983384D02*
X13643232Y-14973860D01*
X13643232Y-14973860D02*
X13671803Y-14973860D01*
X13671803Y-14973860D02*
X13690851Y-14983384D01*
X13690851Y-14983384D02*
X13700375Y-15002432D01*
X13700375Y-15002432D02*
X13700375Y-15107194D01*
X14090851Y-14897670D02*
X13919423Y-15154813D01*
X14347994Y-14907194D02*
X14367042Y-14907194D01*
X14367042Y-14907194D02*
X14386089Y-14916718D01*
X14386089Y-14916718D02*
X14395613Y-14926241D01*
X14395613Y-14926241D02*
X14405137Y-14945289D01*
X14405137Y-14945289D02*
X14414661Y-14983384D01*
X14414661Y-14983384D02*
X14414661Y-15031003D01*
X14414661Y-15031003D02*
X14405137Y-15069098D01*
X14405137Y-15069098D02*
X14395613Y-15088146D01*
X14395613Y-15088146D02*
X14386089Y-15097670D01*
X14386089Y-15097670D02*
X14367042Y-15107194D01*
X14367042Y-15107194D02*
X14347994Y-15107194D01*
X14347994Y-15107194D02*
X14328946Y-15097670D01*
X14328946Y-15097670D02*
X14319423Y-15088146D01*
X14319423Y-15088146D02*
X14309899Y-15069098D01*
X14309899Y-15069098D02*
X14300375Y-15031003D01*
X14300375Y-15031003D02*
X14300375Y-14983384D01*
X14300375Y-14983384D02*
X14309899Y-14945289D01*
X14309899Y-14945289D02*
X14319423Y-14926241D01*
X14319423Y-14926241D02*
X14328946Y-14916718D01*
X14328946Y-14916718D02*
X14347994Y-14907194D01*
X14500375Y-15088146D02*
X14509899Y-15097670D01*
X14509899Y-15097670D02*
X14500375Y-15107194D01*
X14500375Y-15107194D02*
X14490851Y-15097670D01*
X14490851Y-15097670D02*
X14500375Y-15088146D01*
X14500375Y-15088146D02*
X14500375Y-15107194D01*
X14633708Y-14907194D02*
X14652756Y-14907194D01*
X14652756Y-14907194D02*
X14671804Y-14916718D01*
X14671804Y-14916718D02*
X14681327Y-14926241D01*
X14681327Y-14926241D02*
X14690851Y-14945289D01*
X14690851Y-14945289D02*
X14700375Y-14983384D01*
X14700375Y-14983384D02*
X14700375Y-15031003D01*
X14700375Y-15031003D02*
X14690851Y-15069098D01*
X14690851Y-15069098D02*
X14681327Y-15088146D01*
X14681327Y-15088146D02*
X14671804Y-15097670D01*
X14671804Y-15097670D02*
X14652756Y-15107194D01*
X14652756Y-15107194D02*
X14633708Y-15107194D01*
X14633708Y-15107194D02*
X14614661Y-15097670D01*
X14614661Y-15097670D02*
X14605137Y-15088146D01*
X14605137Y-15088146D02*
X14595613Y-15069098D01*
X14595613Y-15069098D02*
X14586089Y-15031003D01*
X14586089Y-15031003D02*
X14586089Y-14983384D01*
X14586089Y-14983384D02*
X14595613Y-14945289D01*
X14595613Y-14945289D02*
X14605137Y-14926241D01*
X14605137Y-14926241D02*
X14614661Y-14916718D01*
X14614661Y-14916718D02*
X14633708Y-14907194D01*
X14795613Y-15107194D02*
X14833708Y-15107194D01*
X14833708Y-15107194D02*
X14852756Y-15097670D01*
X14852756Y-15097670D02*
X14862280Y-15088146D01*
X14862280Y-15088146D02*
X14881327Y-15059575D01*
X14881327Y-15059575D02*
X14890851Y-15021479D01*
X14890851Y-15021479D02*
X14890851Y-14945289D01*
X14890851Y-14945289D02*
X14881327Y-14926241D01*
X14881327Y-14926241D02*
X14871804Y-14916718D01*
X14871804Y-14916718D02*
X14852756Y-14907194D01*
X14852756Y-14907194D02*
X14814661Y-14907194D01*
X14814661Y-14907194D02*
X14795613Y-14916718D01*
X14795613Y-14916718D02*
X14786089Y-14926241D01*
X14786089Y-14926241D02*
X14776566Y-14945289D01*
X14776566Y-14945289D02*
X14776566Y-14992908D01*
X14776566Y-14992908D02*
X14786089Y-15011956D01*
X14786089Y-15011956D02*
X14795613Y-15021479D01*
X14795613Y-15021479D02*
X14814661Y-15031003D01*
X14814661Y-15031003D02*
X14852756Y-15031003D01*
X14852756Y-15031003D02*
X14871804Y-15021479D01*
X14871804Y-15021479D02*
X14881327Y-15011956D01*
X14881327Y-15011956D02*
X14890851Y-14992908D01*
X14967042Y-14926241D02*
X14976566Y-14916718D01*
X14976566Y-14916718D02*
X14995613Y-14907194D01*
X14995613Y-14907194D02*
X15043232Y-14907194D01*
X15043232Y-14907194D02*
X15062280Y-14916718D01*
X15062280Y-14916718D02*
X15071804Y-14926241D01*
X15071804Y-14926241D02*
X15081327Y-14945289D01*
X15081327Y-14945289D02*
X15081327Y-14964337D01*
X15081327Y-14964337D02*
X15071804Y-14992908D01*
X15071804Y-14992908D02*
X14957518Y-15107194D01*
X14957518Y-15107194D02*
X15081327Y-15107194D01*
X15262280Y-14907194D02*
X15167042Y-14907194D01*
X15167042Y-14907194D02*
X15157518Y-15002432D01*
X15157518Y-15002432D02*
X15167042Y-14992908D01*
X15167042Y-14992908D02*
X15186089Y-14983384D01*
X15186089Y-14983384D02*
X15233708Y-14983384D01*
X15233708Y-14983384D02*
X15252756Y-14992908D01*
X15252756Y-14992908D02*
X15262280Y-15002432D01*
X15262280Y-15002432D02*
X15271804Y-15021479D01*
X15271804Y-15021479D02*
X15271804Y-15069098D01*
X15271804Y-15069098D02*
X15262280Y-15088146D01*
X15262280Y-15088146D02*
X15252756Y-15097670D01*
X15252756Y-15097670D02*
X15233708Y-15107194D01*
X15233708Y-15107194D02*
X15186089Y-15107194D01*
X15186089Y-15107194D02*
X15167042Y-15097670D01*
X15167042Y-15097670D02*
X15157518Y-15088146D01*
X15347994Y-14907194D02*
X15347994Y-14945289D01*
X15424185Y-14907194D02*
X15424185Y-14945289D01*
X15719423Y-15183384D02*
X15709899Y-15173860D01*
X15709899Y-15173860D02*
X15690851Y-15145289D01*
X15690851Y-15145289D02*
X15681328Y-15126241D01*
X15681328Y-15126241D02*
X15671804Y-15097670D01*
X15671804Y-15097670D02*
X15662280Y-15050051D01*
X15662280Y-15050051D02*
X15662280Y-15011956D01*
X15662280Y-15011956D02*
X15671804Y-14964337D01*
X15671804Y-14964337D02*
X15681328Y-14935765D01*
X15681328Y-14935765D02*
X15690851Y-14916718D01*
X15690851Y-14916718D02*
X15709899Y-14888146D01*
X15709899Y-14888146D02*
X15719423Y-14878622D01*
X15786089Y-14926241D02*
X15795613Y-14916718D01*
X15795613Y-14916718D02*
X15814661Y-14907194D01*
X15814661Y-14907194D02*
X15862280Y-14907194D01*
X15862280Y-14907194D02*
X15881328Y-14916718D01*
X15881328Y-14916718D02*
X15890851Y-14926241D01*
X15890851Y-14926241D02*
X15900375Y-14945289D01*
X15900375Y-14945289D02*
X15900375Y-14964337D01*
X15900375Y-14964337D02*
X15890851Y-14992908D01*
X15890851Y-14992908D02*
X15776566Y-15107194D01*
X15776566Y-15107194D02*
X15900375Y-15107194D01*
X16138470Y-15107194D02*
X16138470Y-14907194D01*
X16224185Y-15107194D02*
X16224185Y-15002432D01*
X16224185Y-15002432D02*
X16214661Y-14983384D01*
X16214661Y-14983384D02*
X16195613Y-14973860D01*
X16195613Y-14973860D02*
X16167042Y-14973860D01*
X16167042Y-14973860D02*
X16147994Y-14983384D01*
X16147994Y-14983384D02*
X16138470Y-14992908D01*
X16347994Y-15107194D02*
X16328947Y-15097670D01*
X16328947Y-15097670D02*
X16319423Y-15088146D01*
X16319423Y-15088146D02*
X16309899Y-15069098D01*
X16309899Y-15069098D02*
X16309899Y-15011956D01*
X16309899Y-15011956D02*
X16319423Y-14992908D01*
X16319423Y-14992908D02*
X16328947Y-14983384D01*
X16328947Y-14983384D02*
X16347994Y-14973860D01*
X16347994Y-14973860D02*
X16376566Y-14973860D01*
X16376566Y-14973860D02*
X16395613Y-14983384D01*
X16395613Y-14983384D02*
X16405137Y-14992908D01*
X16405137Y-14992908D02*
X16414661Y-15011956D01*
X16414661Y-15011956D02*
X16414661Y-15069098D01*
X16414661Y-15069098D02*
X16405137Y-15088146D01*
X16405137Y-15088146D02*
X16395613Y-15097670D01*
X16395613Y-15097670D02*
X16376566Y-15107194D01*
X16376566Y-15107194D02*
X16347994Y-15107194D01*
X16528947Y-15107194D02*
X16509899Y-15097670D01*
X16509899Y-15097670D02*
X16500375Y-15078622D01*
X16500375Y-15078622D02*
X16500375Y-14907194D01*
X16681328Y-15097670D02*
X16662280Y-15107194D01*
X16662280Y-15107194D02*
X16624185Y-15107194D01*
X16624185Y-15107194D02*
X16605137Y-15097670D01*
X16605137Y-15097670D02*
X16595613Y-15078622D01*
X16595613Y-15078622D02*
X16595613Y-15002432D01*
X16595613Y-15002432D02*
X16605137Y-14983384D01*
X16605137Y-14983384D02*
X16624185Y-14973860D01*
X16624185Y-14973860D02*
X16662280Y-14973860D01*
X16662280Y-14973860D02*
X16681328Y-14983384D01*
X16681328Y-14983384D02*
X16690851Y-15002432D01*
X16690851Y-15002432D02*
X16690851Y-15021479D01*
X16690851Y-15021479D02*
X16595613Y-15040527D01*
X16767042Y-15097670D02*
X16786090Y-15107194D01*
X16786090Y-15107194D02*
X16824185Y-15107194D01*
X16824185Y-15107194D02*
X16843233Y-15097670D01*
X16843233Y-15097670D02*
X16852756Y-15078622D01*
X16852756Y-15078622D02*
X16852756Y-15069098D01*
X16852756Y-15069098D02*
X16843233Y-15050051D01*
X16843233Y-15050051D02*
X16824185Y-15040527D01*
X16824185Y-15040527D02*
X16795613Y-15040527D01*
X16795613Y-15040527D02*
X16776566Y-15031003D01*
X16776566Y-15031003D02*
X16767042Y-15011956D01*
X16767042Y-15011956D02*
X16767042Y-15002432D01*
X16767042Y-15002432D02*
X16776566Y-14983384D01*
X16776566Y-14983384D02*
X16795613Y-14973860D01*
X16795613Y-14973860D02*
X16824185Y-14973860D01*
X16824185Y-14973860D02*
X16843233Y-14983384D01*
X16919423Y-15183384D02*
X16928947Y-15173860D01*
X16928947Y-15173860D02*
X16947994Y-15145289D01*
X16947994Y-15145289D02*
X16957518Y-15126241D01*
X16957518Y-15126241D02*
X16967042Y-15097670D01*
X16967042Y-15097670D02*
X16976566Y-15050051D01*
X16976566Y-15050051D02*
X16976566Y-15011956D01*
X16976566Y-15011956D02*
X16967042Y-14964337D01*
X16967042Y-14964337D02*
X16957518Y-14935765D01*
X16957518Y-14935765D02*
X16947994Y-14916718D01*
X16947994Y-14916718D02*
X16928947Y-14888146D01*
X16928947Y-14888146D02*
X16919423Y-14878622D01*
X17281328Y-15183384D02*
X17271804Y-15173860D01*
X17271804Y-15173860D02*
X17252756Y-15145289D01*
X17252756Y-15145289D02*
X17243233Y-15126241D01*
X17243233Y-15126241D02*
X17233709Y-15097670D01*
X17233709Y-15097670D02*
X17224185Y-15050051D01*
X17224185Y-15050051D02*
X17224185Y-15011956D01*
X17224185Y-15011956D02*
X17233709Y-14964337D01*
X17233709Y-14964337D02*
X17243233Y-14935765D01*
X17243233Y-14935765D02*
X17252756Y-14916718D01*
X17252756Y-14916718D02*
X17271804Y-14888146D01*
X17271804Y-14888146D02*
X17281328Y-14878622D01*
X17357518Y-14973860D02*
X17357518Y-15107194D01*
X17357518Y-14992908D02*
X17367042Y-14983384D01*
X17367042Y-14983384D02*
X17386090Y-14973860D01*
X17386090Y-14973860D02*
X17414661Y-14973860D01*
X17414661Y-14973860D02*
X17433709Y-14983384D01*
X17433709Y-14983384D02*
X17443233Y-15002432D01*
X17443233Y-15002432D02*
X17443233Y-15107194D01*
X17567042Y-15107194D02*
X17547994Y-15097670D01*
X17547994Y-15097670D02*
X17538471Y-15088146D01*
X17538471Y-15088146D02*
X17528947Y-15069098D01*
X17528947Y-15069098D02*
X17528947Y-15011956D01*
X17528947Y-15011956D02*
X17538471Y-14992908D01*
X17538471Y-14992908D02*
X17547994Y-14983384D01*
X17547994Y-14983384D02*
X17567042Y-14973860D01*
X17567042Y-14973860D02*
X17595614Y-14973860D01*
X17595614Y-14973860D02*
X17614661Y-14983384D01*
X17614661Y-14983384D02*
X17624185Y-14992908D01*
X17624185Y-14992908D02*
X17633709Y-15011956D01*
X17633709Y-15011956D02*
X17633709Y-15069098D01*
X17633709Y-15069098D02*
X17624185Y-15088146D01*
X17624185Y-15088146D02*
X17614661Y-15097670D01*
X17614661Y-15097670D02*
X17595614Y-15107194D01*
X17595614Y-15107194D02*
X17567042Y-15107194D01*
X17690852Y-14973860D02*
X17767042Y-14973860D01*
X17719423Y-14907194D02*
X17719423Y-15078622D01*
X17719423Y-15078622D02*
X17728947Y-15097670D01*
X17728947Y-15097670D02*
X17747994Y-15107194D01*
X17747994Y-15107194D02*
X17767042Y-15107194D01*
X17986090Y-14973860D02*
X17986090Y-15173860D01*
X17986090Y-14983384D02*
X18005137Y-14973860D01*
X18005137Y-14973860D02*
X18043233Y-14973860D01*
X18043233Y-14973860D02*
X18062280Y-14983384D01*
X18062280Y-14983384D02*
X18071804Y-14992908D01*
X18071804Y-14992908D02*
X18081328Y-15011956D01*
X18081328Y-15011956D02*
X18081328Y-15069098D01*
X18081328Y-15069098D02*
X18071804Y-15088146D01*
X18071804Y-15088146D02*
X18062280Y-15097670D01*
X18062280Y-15097670D02*
X18043233Y-15107194D01*
X18043233Y-15107194D02*
X18005137Y-15107194D01*
X18005137Y-15107194D02*
X17986090Y-15097670D01*
X18195614Y-15107194D02*
X18176566Y-15097670D01*
X18176566Y-15097670D02*
X18167042Y-15078622D01*
X18167042Y-15078622D02*
X18167042Y-14907194D01*
X18357518Y-15107194D02*
X18357518Y-15002432D01*
X18357518Y-15002432D02*
X18347995Y-14983384D01*
X18347995Y-14983384D02*
X18328947Y-14973860D01*
X18328947Y-14973860D02*
X18290852Y-14973860D01*
X18290852Y-14973860D02*
X18271804Y-14983384D01*
X18357518Y-15097670D02*
X18338471Y-15107194D01*
X18338471Y-15107194D02*
X18290852Y-15107194D01*
X18290852Y-15107194D02*
X18271804Y-15097670D01*
X18271804Y-15097670D02*
X18262280Y-15078622D01*
X18262280Y-15078622D02*
X18262280Y-15059575D01*
X18262280Y-15059575D02*
X18271804Y-15040527D01*
X18271804Y-15040527D02*
X18290852Y-15031003D01*
X18290852Y-15031003D02*
X18338471Y-15031003D01*
X18338471Y-15031003D02*
X18357518Y-15021479D01*
X18424185Y-14973860D02*
X18500375Y-14973860D01*
X18452756Y-14907194D02*
X18452756Y-15078622D01*
X18452756Y-15078622D02*
X18462280Y-15097670D01*
X18462280Y-15097670D02*
X18481328Y-15107194D01*
X18481328Y-15107194D02*
X18500375Y-15107194D01*
X18643233Y-15097670D02*
X18624185Y-15107194D01*
X18624185Y-15107194D02*
X18586090Y-15107194D01*
X18586090Y-15107194D02*
X18567042Y-15097670D01*
X18567042Y-15097670D02*
X18557518Y-15078622D01*
X18557518Y-15078622D02*
X18557518Y-15002432D01*
X18557518Y-15002432D02*
X18567042Y-14983384D01*
X18567042Y-14983384D02*
X18586090Y-14973860D01*
X18586090Y-14973860D02*
X18624185Y-14973860D01*
X18624185Y-14973860D02*
X18643233Y-14983384D01*
X18643233Y-14983384D02*
X18652756Y-15002432D01*
X18652756Y-15002432D02*
X18652756Y-15021479D01*
X18652756Y-15021479D02*
X18557518Y-15040527D01*
X18824185Y-15107194D02*
X18824185Y-14907194D01*
X18824185Y-15097670D02*
X18805137Y-15107194D01*
X18805137Y-15107194D02*
X18767042Y-15107194D01*
X18767042Y-15107194D02*
X18747995Y-15097670D01*
X18747995Y-15097670D02*
X18738471Y-15088146D01*
X18738471Y-15088146D02*
X18728947Y-15069098D01*
X18728947Y-15069098D02*
X18728947Y-15011956D01*
X18728947Y-15011956D02*
X18738471Y-14992908D01*
X18738471Y-14992908D02*
X18747995Y-14983384D01*
X18747995Y-14983384D02*
X18767042Y-14973860D01*
X18767042Y-14973860D02*
X18805137Y-14973860D01*
X18805137Y-14973860D02*
X18824185Y-14983384D01*
X18900376Y-15183384D02*
X18909899Y-15173860D01*
X18909899Y-15173860D02*
X18928947Y-15145289D01*
X18928947Y-15145289D02*
X18938471Y-15126241D01*
X18938471Y-15126241D02*
X18947995Y-15097670D01*
X18947995Y-15097670D02*
X18957518Y-15050051D01*
X18957518Y-15050051D02*
X18957518Y-15011956D01*
X18957518Y-15011956D02*
X18947995Y-14964337D01*
X18947995Y-14964337D02*
X18938471Y-14935765D01*
X18938471Y-14935765D02*
X18928947Y-14916718D01*
X18928947Y-14916718D02*
X18909899Y-14888146D01*
X18909899Y-14888146D02*
X18900376Y-14878622D01*
M02*
