%TF.GenerationSoftware,KiCad,Pcbnew,10.0.4*%
%TF.CreationDate,2026-06-29T14:17:30+02:00*%
%TF.ProjectId,CW308T_to_cardedge,43573330-3854-45f7-946f-5f6361726465,rev?*%
%TF.SameCoordinates,Original*%
%TF.FileFunction,Copper,L6,Bot*%
%TF.FilePolarity,Positive*%
%FSLAX46Y46*%
G04 Gerber Fmt 4.6, Leading zero omitted, Abs format (unit mm)*
G04 Created by KiCad (PCBNEW 10.0.4) date 2026-06-29 14:17:30*
%MOMM*%
%LPD*%
G01*
G04 APERTURE LIST*
%TA.AperFunction,ComponentPad*%
%ADD10R,2.794000X1.524000*%
%TD*%
%TA.AperFunction,ComponentPad*%
%ADD11O,2.794000X1.524000*%
%TD*%
%TA.AperFunction,ComponentPad*%
%ADD12R,1.524000X2.794000*%
%TD*%
%TA.AperFunction,ComponentPad*%
%ADD13O,1.524000X2.794000*%
%TD*%
%TA.AperFunction,ComponentPad*%
%ADD14C,6.350000*%
%TD*%
%TA.AperFunction,ComponentPad*%
%ADD15R,1.208000X1.208000*%
%TD*%
%TA.AperFunction,ComponentPad*%
%ADD16C,1.208000*%
%TD*%
%TA.AperFunction,ViaPad*%
%ADD17C,0.600000*%
%TD*%
G04 APERTURE END LIST*
D10*
%TO.P,J1,A1,SPARE1_A1*%
%TO.N,unconnected-(J1-SPARE1-PadA1)*%
X124497600Y-87913100D03*
D11*
%TO.P,J1,A2,GND_A2*%
%TO.N,GND*%
X124497600Y-90453100D03*
%TO.P,J1,A3,CLKOUT(TO_TARGET)_A3*%
%TO.N,/CLKOUT*%
X124497600Y-92993100D03*
%TO.P,J1,A4,GND_A4*%
%TO.N,GND*%
X124497600Y-95533100D03*
%TO.P,J1,A5,CLKIN(FROM_TARGET)_A5*%
%TO.N,/CLKIN*%
X124497600Y-98073100D03*
%TO.P,J1,A6,GND_A6*%
%TO.N,GND*%
X124497600Y-100613100D03*
%TO.P,J1,A7,GPIO1_A7*%
%TO.N,/GPIO1{slash}TX*%
X124497600Y-103153100D03*
%TO.P,J1,A8,GPIO2_A8*%
%TO.N,/GPIO2{slash}RX*%
X124497600Y-105693100D03*
%TO.P,J1,A9,GPIO3_A9*%
%TO.N,/GPIO3*%
X124497600Y-108233100D03*
%TO.P,J1,A10,GPIO4_A10*%
%TO.N,/GPIO4{slash}TRIG*%
X124497600Y-110773100D03*
%TO.P,J1,A11,nRST_A11*%
%TO.N,/nRST*%
X124497600Y-113313100D03*
%TO.P,J1,A12,SCK_A12*%
%TO.N,/SCK*%
X124497600Y-115853100D03*
%TO.P,J1,A13,MISO_A13*%
%TO.N,/MISO*%
X124497600Y-118393100D03*
%TO.P,J1,A14,MOSI_A14*%
%TO.N,/MOSI*%
X124497600Y-120933100D03*
%TO.P,J1,A15,GND_A15*%
%TO.N,GND*%
X124497600Y-123473100D03*
%TO.P,J1,A16,GND_A16*%
X124497600Y-126013100D03*
%TO.P,J1,A17,PDIC_A17*%
%TO.N,/PDIC*%
X124497600Y-128553100D03*
%TO.P,J1,A18,PDID_A18*%
%TO.N,/PDID*%
X124497600Y-131093100D03*
%TO.P,J1,A19,SPARE2_A19*%
%TO.N,unconnected-(J1-SPARE2-PadA19)*%
X124497600Y-133633100D03*
%TO.P,J1,A20,VREF_A20*%
%TO.N,/IOVREF*%
X124497600Y-136173100D03*
D12*
%TO.P,J1,B1,GND_B1*%
%TO.N,GND*%
X124497600Y-141253100D03*
D13*
%TO.P,J1,B2,JTAG_TRST_B2*%
%TO.N,/JTAG_TRST*%
X127037600Y-141253100D03*
%TO.P,J1,B3,JTAG_TDI_B3*%
%TO.N,/JTAG_TDI*%
X129577600Y-141253100D03*
%TO.P,J1,B4,JTAG_TDO_B4*%
%TO.N,/JTAG_TDO*%
X132117600Y-141253100D03*
%TO.P,J1,B5,JTAG_TMS_B5*%
%TO.N,/JTAG_TMS*%
X134657600Y-141253100D03*
%TO.P,J1,B6,JTAG_TCK_B6*%
%TO.N,/JTAG_TCK*%
X137197600Y-141253100D03*
%TO.P,J1,B7,JTAG_VREF_B7*%
%TO.N,/JTAG_VREF*%
X139737600Y-141253100D03*
%TO.P,J1,B8,JTAG_nRST_B8*%
%TO.N,/JTAG_nRST*%
X142277600Y-141253100D03*
%TO.P,J1,B9,GND_B9*%
%TO.N,GND*%
X144817600Y-141253100D03*
%TO.P,J1,B10,GND_B10*%
X147357600Y-141253100D03*
%TO.P,J1,B11,HDR1_B11*%
%TO.N,/HDR1*%
X149897600Y-141253100D03*
%TO.P,J1,B12,HDR2_B12*%
%TO.N,/HDR2*%
X152437600Y-141253100D03*
%TO.P,J1,B13,HDR3_B13*%
%TO.N,/HDR3*%
X154977600Y-141253100D03*
%TO.P,J1,B14,HDR4_B14*%
%TO.N,/HDR4*%
X157517600Y-141253100D03*
%TO.P,J1,B15,HDR5_B15*%
%TO.N,/HDR5*%
X160057600Y-141253100D03*
%TO.P,J1,B16,HDR6_B16*%
%TO.N,/HDR6*%
X162597600Y-141253100D03*
%TO.P,J1,B17,HDR7_B17*%
%TO.N,/HDR7*%
X165137600Y-141253100D03*
%TO.P,J1,B18,HDR8_B18*%
%TO.N,/HDR8*%
X167677600Y-141253100D03*
%TO.P,J1,B19,HDR9_B19*%
%TO.N,/HDR9*%
X170217600Y-141253100D03*
%TO.P,J1,B20,HDR10_B20*%
%TO.N,/HDR10*%
X172757600Y-141253100D03*
D10*
%TO.P,J1,C1,GND_C1*%
%TO.N,GND*%
X172757600Y-87913100D03*
D11*
%TO.P,J1,C2,SHUNTL_C2*%
%TO.N,/SHUNTL*%
X172757600Y-90453100D03*
%TO.P,J1,C3,SHUNTH_C3*%
%TO.N,/SHUNTH*%
X172757600Y-92993100D03*
%TO.P,J1,C4,GND_C4*%
%TO.N,GND*%
X172757600Y-95533100D03*
%TO.P,J1,C5,FILT_LP_C5*%
%TO.N,/FILT_LP*%
X172757600Y-98073100D03*
%TO.P,J1,C6,FILT_HP_C6*%
%TO.N,/FILT_HP*%
X172757600Y-100613100D03*
%TO.P,J1,C7,GND_C7*%
%TO.N,GND*%
X172757600Y-103153100D03*
%TO.P,J1,C8,FILTIN_C8*%
%TO.N,/FILTIN*%
X172757600Y-105693100D03*
%TO.P,J1,C9,GND_C9*%
%TO.N,GND*%
X172757600Y-108233100D03*
%TO.P,J1,C10,GND_C10*%
X172757600Y-110773100D03*
%TO.P,J1,C11,VCC1.2V_C11*%
%TO.N,/VCC1.2*%
X172757600Y-113313100D03*
%TO.P,J1,C12,VCC1.8V_C12*%
%TO.N,/VCC1.8*%
X172757600Y-115853100D03*
%TO.P,J1,C13,VCC2.5V_C13*%
%TO.N,/VCC2.5*%
X172757600Y-118393100D03*
%TO.P,J1,C14,VCC3.3V_C14*%
%TO.N,/VCC3.3*%
X172757600Y-120933100D03*
%TO.P,J1,C15,VCC5.0V_C15*%
%TO.N,/VCC5.0*%
X172757600Y-123473100D03*
%TO.P,J1,C16,GND_C16*%
%TO.N,GND*%
X172757600Y-126013100D03*
%TO.P,J1,C17,GND_C17*%
X172757600Y-128553100D03*
%TO.P,J1,C18,LED1_C18*%
%TO.N,/LED1*%
X172757600Y-131093100D03*
%TO.P,J1,C19,LED2_C19*%
%TO.N,/LED2*%
X172757600Y-133633100D03*
%TO.P,J1,C20,LED3_C20*%
%TO.N,/LED3*%
X172757600Y-136173100D03*
D14*
%TO.P,J1,MH1*%
%TO.N,N/C*%
X129577600Y-82833100D03*
%TO.P,J1,MH2*%
X147357600Y-133633100D03*
X167677600Y-82833100D03*
%TD*%
D15*
%TO.P,U1,A1,A1_A1*%
%TO.N,GND*%
X165468600Y-95732100D03*
D16*
%TO.P,U1,A2,A2_A2*%
X164468600Y-97732100D03*
%TO.P,U1,A3,A3_A3*%
%TO.N,/FILT_LP*%
X163468600Y-95732100D03*
%TO.P,U1,A4,A4_A4*%
%TO.N,/VCC2.5*%
X162468600Y-97732100D03*
%TO.P,U1,A5,A5_A5*%
%TO.N,/VCC3.3*%
X161468600Y-95732100D03*
%TO.P,U1,A6,A6_A6*%
%TO.N,/VCC5.0*%
X160468600Y-97732100D03*
%TO.P,U1,A7,A7_A7*%
%TO.N,/VCCADJ*%
X159468600Y-95732100D03*
%TO.P,U1,A8,A8_A8*%
%TO.N,GND*%
X158468600Y-97732100D03*
%TO.P,U1,A9,A9_A9*%
%TO.N,/HDR1*%
X157468600Y-95732100D03*
%TO.P,U1,A10,A10_A10*%
%TO.N,/HDR2*%
X156468600Y-97732100D03*
%TO.P,U1,A11,A11_A11*%
%TO.N,/HDR3*%
X155468600Y-95732100D03*
%TO.P,U1,A12,A12_A12*%
%TO.N,/HDR4*%
X152468600Y-97732100D03*
%TO.P,U1,A13,A13_A13*%
%TO.N,/HDR5*%
X151468600Y-95732100D03*
%TO.P,U1,A14,A14_A14*%
%TO.N,/HDR6*%
X150468600Y-97732100D03*
%TO.P,U1,A15,A15_A15*%
%TO.N,/HDR7*%
X149468600Y-95732100D03*
%TO.P,U1,A16,A16_A16*%
%TO.N,/HDR8*%
X148468600Y-97732100D03*
%TO.P,U1,A17,A17_A17*%
%TO.N,/HDR9*%
X147468600Y-95732100D03*
%TO.P,U1,A18,A18_A18*%
%TO.N,/HDR10*%
X146468600Y-97732100D03*
%TO.P,U1,A19,A19_A19*%
%TO.N,/nRST_OUT*%
X145468600Y-95732100D03*
%TO.P,U1,A20,A20_A20*%
%TO.N,GND*%
X144468600Y-97732100D03*
%TO.P,U1,A21,A21_A21*%
%TO.N,/TRACECLK*%
X143468600Y-95732100D03*
%TO.P,U1,A22,A22_A22*%
%TO.N,/TRACED0*%
X142468600Y-97732100D03*
%TO.P,U1,A23,A23_A23*%
%TO.N,/TRACED1*%
X141468600Y-95732100D03*
%TO.P,U1,A24,A24_A24*%
%TO.N,/TRACED2*%
X140468600Y-97732100D03*
%TO.P,U1,A25,A25_A25*%
%TO.N,/TRACED3*%
X139468600Y-95732100D03*
%TO.P,U1,A26,A26_A26*%
%TO.N,/JTAG_VREF*%
X138468600Y-97732100D03*
%TO.P,U1,A27,A27_A27*%
%TO.N,GND*%
X137468600Y-95732100D03*
%TO.P,U1,A28,A28_A28*%
X136468600Y-97732100D03*
%TO.P,U1,A29,A29_A29*%
%TO.N,/CLKIN*%
X135468600Y-95732100D03*
%TO.P,U1,A30,A30_A30*%
%TO.N,/CLKIN_n*%
X134468600Y-97732100D03*
%TO.P,U1,A31,A31_A31*%
%TO.N,/JTAG_nRST*%
X133468600Y-95732100D03*
%TO.P,U1,A32,A32_A32*%
%TO.N,/JTAG_TRST*%
X132468600Y-97732100D03*
%TO.P,U1,B1,B1_B1*%
%TO.N,/SHUNTL*%
X165468600Y-93232100D03*
%TO.P,U1,B2,B2_B2*%
%TO.N,/SHUNTH*%
X164468600Y-91232100D03*
%TO.P,U1,B3,B3_B3*%
%TO.N,GND*%
X163468600Y-93232100D03*
%TO.P,U1,B4,B4_B4*%
%TO.N,/FILT_HP*%
X162468600Y-91232100D03*
%TO.P,U1,B5,B5_B5*%
%TO.N,/FILTIN*%
X161468600Y-93232100D03*
%TO.P,U1,B6,B6_B6*%
%TO.N,/VCC1.0*%
X160468600Y-91232100D03*
%TO.P,U1,B7,B7_B7*%
%TO.N,/VCC1.2*%
X159468600Y-93232100D03*
%TO.P,U1,B8,B8_B8*%
%TO.N,/VCC1.8*%
X158468600Y-91232100D03*
%TO.P,U1,B9,B9_B9*%
%TO.N,GND*%
X157468600Y-93232100D03*
%TO.P,U1,B10,B10_B10*%
%TO.N,/IOVREF*%
X156468600Y-91232100D03*
%TO.P,U1,B11,B11_B11*%
%TO.N,/LED1*%
X155468600Y-93232100D03*
%TO.P,U1,B12,B12_B12*%
%TO.N,/LED2*%
X152468600Y-91232100D03*
%TO.P,U1,B13,B13_B13*%
%TO.N,/LED3*%
X151468600Y-93232100D03*
%TO.P,U1,B14,B14_B14*%
%TO.N,/nRST*%
X150468600Y-91232100D03*
%TO.P,U1,B15,B15_B15*%
%TO.N,GND*%
X149468600Y-93232100D03*
%TO.P,U1,B16,B16_B16*%
%TO.N,/GPIO1{slash}TX*%
X148468600Y-91232100D03*
%TO.P,U1,B17,B17_B17*%
%TO.N,/GPIO2{slash}RX*%
X147468600Y-93232100D03*
%TO.P,U1,B18,B18_B18*%
%TO.N,/GPIO3*%
X146468600Y-91232100D03*
%TO.P,U1,B19,B19_B19*%
%TO.N,/GPIO4{slash}TRIG*%
X145468600Y-93232100D03*
%TO.P,U1,B20,B20_B20*%
%TO.N,/SCK*%
X144468600Y-91232100D03*
%TO.P,U1,B21,B21_B21*%
%TO.N,GND*%
X143468600Y-93232100D03*
%TO.P,U1,B22,B22_B22*%
X142468600Y-91232100D03*
%TO.P,U1,B23,B23_B23*%
%TO.N,/MISO*%
X141468600Y-93232100D03*
%TO.P,U1,B24,B24_B24*%
%TO.N,/MOSI*%
X140468600Y-91232100D03*
%TO.P,U1,B25,B25_B25*%
%TO.N,/PDIC*%
X139468600Y-93232100D03*
%TO.P,U1,B26,B26_B26*%
%TO.N,/PDID*%
X138468600Y-91232100D03*
%TO.P,U1,B27,B27_B27*%
%TO.N,/CLKOUT*%
X137468600Y-93232100D03*
%TO.P,U1,B28,B28_B28*%
%TO.N,/CLKOUT_n*%
X136468600Y-91232100D03*
%TO.P,U1,B29,B29_B29*%
%TO.N,/JTAG_TDI*%
X135468600Y-93232100D03*
%TO.P,U1,B30,B30_B30*%
%TO.N,/JTAG_TDO*%
X134468600Y-91232100D03*
%TO.P,U1,B31,B31_B31*%
%TO.N,/JTAG_TMS*%
X133468600Y-93232100D03*
%TO.P,U1,B32,B32_B32*%
%TO.N,/JTAG_TCK*%
X132468600Y-91232100D03*
%TD*%
D17*
%TO.N,GND*%
X169468600Y-131232100D03*
X170968600Y-128232100D03*
X170968600Y-125232100D03*
X169468600Y-137232100D03*
X160468600Y-131232100D03*
X157468600Y-105732100D03*
X157468600Y-125232100D03*
X146968600Y-123732100D03*
X143968600Y-104232100D03*
X146968600Y-126732100D03*
X143968600Y-110232100D03*
X151468600Y-84732100D03*
X130468600Y-78732100D03*
X133468600Y-128232100D03*
X154468600Y-117732100D03*
X154468600Y-111732100D03*
X164968600Y-102732100D03*
X149968600Y-126732100D03*
X172468600Y-84732100D03*
X133468600Y-84732100D03*
X169468600Y-78732100D03*
X154468600Y-114732100D03*
X136468600Y-135732100D03*
X143968600Y-119232100D03*
X160468600Y-117732100D03*
X151468600Y-78732100D03*
X154468600Y-122232100D03*
X157468600Y-135732100D03*
X124468600Y-84732100D03*
X157468600Y-87732100D03*
X154468600Y-84732100D03*
X143968600Y-116232100D03*
X157468600Y-78732100D03*
X163468600Y-87732100D03*
X154468600Y-107232100D03*
X167968600Y-107232100D03*
X127468600Y-95232100D03*
X163468600Y-81732100D03*
X166468600Y-120732100D03*
X146968600Y-117732100D03*
X145468600Y-81732100D03*
X140968600Y-119232100D03*
X166468600Y-137232100D03*
X172468600Y-104232100D03*
X157468600Y-120732100D03*
X160468600Y-122232100D03*
X163468600Y-114732100D03*
X157468600Y-108732100D03*
X151468600Y-81732100D03*
X136468600Y-132732100D03*
X133468600Y-137232100D03*
X136468600Y-87732100D03*
X173968600Y-138732100D03*
X128968600Y-129732100D03*
X164968600Y-108732100D03*
X157468600Y-84732100D03*
X161968600Y-125232100D03*
X136468600Y-129732100D03*
X164968600Y-99732100D03*
X124468600Y-89232100D03*
X146968600Y-129732100D03*
X127468600Y-98232100D03*
X167968600Y-92232100D03*
X157468600Y-102732100D03*
X143968600Y-113232100D03*
X136468600Y-120732100D03*
X154468600Y-87732100D03*
X170968600Y-110232100D03*
X163468600Y-84732100D03*
X163468600Y-111732100D03*
X140968600Y-110232100D03*
X166468600Y-117732100D03*
X148468600Y-81732100D03*
X124468600Y-96732100D03*
X136468600Y-84732100D03*
X145468600Y-87732100D03*
X167968600Y-104232100D03*
X136468600Y-81732100D03*
X128968600Y-114732100D03*
X128968600Y-120732100D03*
X154468600Y-78732100D03*
X142468600Y-81732100D03*
X140968600Y-134232100D03*
X139468600Y-84732100D03*
X133468600Y-87732100D03*
X128968600Y-132732100D03*
X160468600Y-114732100D03*
X163468600Y-117732100D03*
X127468600Y-78732100D03*
X124468600Y-78732100D03*
X151468600Y-87732100D03*
X143968600Y-128232100D03*
X160468600Y-128232100D03*
X154468600Y-125232100D03*
X163468600Y-131232100D03*
X167968600Y-123732100D03*
X148468600Y-78732100D03*
X140968600Y-107232100D03*
X136468600Y-111732100D03*
X157468600Y-128232100D03*
X166468600Y-134232100D03*
X124468600Y-81732100D03*
X140968600Y-113232100D03*
X166468600Y-87732100D03*
X173968600Y-96732100D03*
X167968600Y-95232100D03*
X140968600Y-131232100D03*
X136468600Y-114732100D03*
X140968600Y-122232100D03*
X166468600Y-129732100D03*
X154468600Y-101232100D03*
X169468600Y-87732100D03*
X143968600Y-125232100D03*
X133468600Y-131232100D03*
X137968600Y-138732100D03*
X142468600Y-87732100D03*
X128968600Y-135732100D03*
X154468600Y-128232100D03*
X133468600Y-134232100D03*
X140968600Y-125232100D03*
X164968600Y-126732100D03*
X139468600Y-78732100D03*
X127468600Y-90732100D03*
X140968600Y-137232100D03*
X139468600Y-81732100D03*
X136468600Y-108732100D03*
X146968600Y-114732100D03*
X136468600Y-117732100D03*
X160468600Y-138732100D03*
X154468600Y-81732100D03*
X143968600Y-122232100D03*
X143968600Y-138732100D03*
X128968600Y-126732100D03*
X166468600Y-114732100D03*
X145468600Y-78732100D03*
X140968600Y-128232100D03*
X140968600Y-104232100D03*
X152968600Y-138732100D03*
X136468600Y-123732100D03*
X143968600Y-107232100D03*
X160468600Y-134232100D03*
X133468600Y-125232100D03*
X128968600Y-117732100D03*
X172468600Y-78732100D03*
X133468600Y-81732100D03*
X142468600Y-78732100D03*
X167968600Y-126732100D03*
X130468600Y-111732100D03*
X143968600Y-101232100D03*
X145468600Y-84732100D03*
X146968600Y-138732100D03*
X142468600Y-84732100D03*
X169468600Y-120732100D03*
X154468600Y-104232100D03*
X128968600Y-138732100D03*
X157468600Y-99732100D03*
X127468600Y-87732100D03*
X146968600Y-120732100D03*
X157468600Y-81732100D03*
X136468600Y-99732100D03*
X133468600Y-78732100D03*
X157468600Y-111732100D03*
X136468600Y-126732100D03*
X166468600Y-78732100D03*
X167968600Y-101232100D03*
X154468600Y-132732100D03*
X128968600Y-107232100D03*
X157468600Y-114732100D03*
X163468600Y-78732100D03*
X148468600Y-141732100D03*
X170968600Y-107232100D03*
X157468600Y-117732100D03*
X160468600Y-78732100D03*
X127468600Y-101232100D03*
X164968600Y-105732100D03*
X140968600Y-116232100D03*
X148468600Y-87732100D03*
X133468600Y-122232100D03*
X148468600Y-84732100D03*
X139468600Y-87732100D03*
X167968600Y-98232100D03*
X163468600Y-120732100D03*
X157468600Y-131232100D03*
X160468600Y-81732100D03*
X160468600Y-87732100D03*
X160468600Y-84732100D03*
X136468600Y-78732100D03*
X169468600Y-117732100D03*
X170968600Y-95232100D03*
X163468600Y-134232100D03*
X172468600Y-81732100D03*
X130468600Y-96732100D03*
X149968600Y-123732100D03*
X124468600Y-138732100D03*
X164968600Y-123732100D03*
X167968600Y-111732100D03*
X124468600Y-122232100D03*
X130468600Y-87732100D03*
X163468600Y-137232100D03*
X128968600Y-104232100D03*
%TO.N,/JTAG_TDO*%
X131470600Y-111266400D03*
%TO.N,/JTAG_TMS*%
X134657600Y-99021600D03*
%TO.N,/HDR3*%
X155695500Y-99089300D03*
%TO.N,/HDR4*%
X153439500Y-107013600D03*
%TO.N,/HDR5*%
X149344100Y-122157500D03*
%TO.N,/HDR6*%
X153791300Y-109981700D03*
%TO.N,/HDR7*%
X148759700Y-121268400D03*
%TD*%
%TA.AperFunction,Conductor*%
%TO.N,GND*%
G36*
X174911139Y-77252285D02*
G01*
X174956894Y-77305089D01*
X174968100Y-77356600D01*
X174968100Y-143107600D01*
X174948415Y-143174639D01*
X174895611Y-143220394D01*
X174844100Y-143231600D01*
X173418226Y-143231600D01*
X173351187Y-143211915D01*
X173305432Y-143159111D01*
X173295488Y-143089953D01*
X173324513Y-143026397D01*
X173361931Y-142997115D01*
X173419294Y-142967887D01*
X173580064Y-142851081D01*
X173720581Y-142710564D01*
X173837387Y-142549794D01*
X173927605Y-142372732D01*
X173989013Y-142183736D01*
X174020100Y-141987461D01*
X174020100Y-140518739D01*
X173989013Y-140322464D01*
X173927605Y-140133468D01*
X173927605Y-140133467D01*
X173837386Y-139956405D01*
X173720581Y-139795636D01*
X173580064Y-139655119D01*
X173419294Y-139538313D01*
X173242232Y-139448094D01*
X173242229Y-139448093D01*
X173053237Y-139386687D01*
X172955098Y-139371143D01*
X172856961Y-139355600D01*
X172658239Y-139355600D01*
X172592814Y-139365962D01*
X172461962Y-139386687D01*
X172272970Y-139448093D01*
X172272967Y-139448094D01*
X172095905Y-139538313D01*
X171935133Y-139655121D01*
X171794621Y-139795633D01*
X171677813Y-139956405D01*
X171598085Y-140112880D01*
X171550110Y-140163676D01*
X171482289Y-140180471D01*
X171416154Y-140157933D01*
X171377115Y-140112880D01*
X171297386Y-139956405D01*
X171180581Y-139795636D01*
X171040064Y-139655119D01*
X170879294Y-139538313D01*
X170702232Y-139448094D01*
X170702229Y-139448093D01*
X170513237Y-139386687D01*
X170415098Y-139371143D01*
X170316961Y-139355600D01*
X170118239Y-139355600D01*
X170052814Y-139365962D01*
X169921962Y-139386687D01*
X169732970Y-139448093D01*
X169732967Y-139448094D01*
X169555905Y-139538313D01*
X169395133Y-139655121D01*
X169254621Y-139795633D01*
X169137813Y-139956405D01*
X169058085Y-140112880D01*
X169010110Y-140163676D01*
X168942289Y-140180471D01*
X168876154Y-140157933D01*
X168837115Y-140112880D01*
X168757386Y-139956405D01*
X168640581Y-139795636D01*
X168500064Y-139655119D01*
X168339294Y-139538313D01*
X168162232Y-139448094D01*
X168162229Y-139448093D01*
X167973237Y-139386687D01*
X167875098Y-139371143D01*
X167776961Y-139355600D01*
X167578239Y-139355600D01*
X167512814Y-139365962D01*
X167381962Y-139386687D01*
X167192970Y-139448093D01*
X167192967Y-139448094D01*
X167015905Y-139538313D01*
X166855133Y-139655121D01*
X166714621Y-139795633D01*
X166597813Y-139956405D01*
X166518085Y-140112880D01*
X166470110Y-140163676D01*
X166402289Y-140180471D01*
X166336154Y-140157933D01*
X166297115Y-140112880D01*
X166217386Y-139956405D01*
X166100581Y-139795636D01*
X165960064Y-139655119D01*
X165799294Y-139538313D01*
X165622232Y-139448094D01*
X165622229Y-139448093D01*
X165433237Y-139386687D01*
X165335098Y-139371143D01*
X165236961Y-139355600D01*
X165038239Y-139355600D01*
X164972814Y-139365962D01*
X164841962Y-139386687D01*
X164652970Y-139448093D01*
X164652967Y-139448094D01*
X164475905Y-139538313D01*
X164315133Y-139655121D01*
X164174621Y-139795633D01*
X164057813Y-139956405D01*
X163978085Y-140112880D01*
X163930110Y-140163676D01*
X163862289Y-140180471D01*
X163796154Y-140157933D01*
X163757115Y-140112880D01*
X163677386Y-139956405D01*
X163560581Y-139795636D01*
X163420064Y-139655119D01*
X163259294Y-139538313D01*
X163082232Y-139448094D01*
X163082229Y-139448093D01*
X162893237Y-139386687D01*
X162795098Y-139371143D01*
X162696961Y-139355600D01*
X162498239Y-139355600D01*
X162432814Y-139365962D01*
X162301962Y-139386687D01*
X162112970Y-139448093D01*
X162112967Y-139448094D01*
X161935905Y-139538313D01*
X161775133Y-139655121D01*
X161634621Y-139795633D01*
X161517813Y-139956405D01*
X161438085Y-140112880D01*
X161390110Y-140163676D01*
X161322289Y-140180471D01*
X161256154Y-140157933D01*
X161217115Y-140112880D01*
X161137386Y-139956405D01*
X161020581Y-139795636D01*
X160880064Y-139655119D01*
X160719294Y-139538313D01*
X160542232Y-139448094D01*
X160542229Y-139448093D01*
X160353237Y-139386687D01*
X160255098Y-139371143D01*
X160156961Y-139355600D01*
X159958239Y-139355600D01*
X159892814Y-139365962D01*
X159761962Y-139386687D01*
X159572970Y-139448093D01*
X159572967Y-139448094D01*
X159395905Y-139538313D01*
X159235133Y-139655121D01*
X159094621Y-139795633D01*
X158977813Y-139956405D01*
X158898085Y-140112880D01*
X158850110Y-140163676D01*
X158782289Y-140180471D01*
X158716154Y-140157933D01*
X158677115Y-140112880D01*
X158597386Y-139956405D01*
X158480581Y-139795636D01*
X158340064Y-139655119D01*
X158179294Y-139538313D01*
X158002232Y-139448094D01*
X158002229Y-139448093D01*
X157813237Y-139386687D01*
X157715098Y-139371143D01*
X157616961Y-139355600D01*
X157418239Y-139355600D01*
X157352814Y-139365962D01*
X157221962Y-139386687D01*
X157032970Y-139448093D01*
X157032967Y-139448094D01*
X156855905Y-139538313D01*
X156695133Y-139655121D01*
X156554621Y-139795633D01*
X156437813Y-139956405D01*
X156358085Y-140112880D01*
X156310110Y-140163676D01*
X156242289Y-140180471D01*
X156176154Y-140157933D01*
X156137115Y-140112880D01*
X156057386Y-139956405D01*
X155940581Y-139795636D01*
X155800064Y-139655119D01*
X155639294Y-139538313D01*
X155462232Y-139448094D01*
X155462229Y-139448093D01*
X155273237Y-139386687D01*
X155175098Y-139371143D01*
X155076961Y-139355600D01*
X154878239Y-139355600D01*
X154812814Y-139365962D01*
X154681962Y-139386687D01*
X154492970Y-139448093D01*
X154492967Y-139448094D01*
X154315905Y-139538313D01*
X154155133Y-139655121D01*
X154014621Y-139795633D01*
X153897813Y-139956405D01*
X153818085Y-140112880D01*
X153770110Y-140163676D01*
X153702289Y-140180471D01*
X153636154Y-140157933D01*
X153597115Y-140112880D01*
X153517386Y-139956405D01*
X153400581Y-139795636D01*
X153260064Y-139655119D01*
X153099294Y-139538313D01*
X152922232Y-139448094D01*
X152922229Y-139448093D01*
X152733237Y-139386687D01*
X152635098Y-139371143D01*
X152536961Y-139355600D01*
X152338239Y-139355600D01*
X152272814Y-139365962D01*
X152141962Y-139386687D01*
X151952970Y-139448093D01*
X151952967Y-139448094D01*
X151775905Y-139538313D01*
X151615133Y-139655121D01*
X151474621Y-139795633D01*
X151357813Y-139956405D01*
X151278085Y-140112880D01*
X151230110Y-140163676D01*
X151162289Y-140180471D01*
X151096154Y-140157933D01*
X151057115Y-140112880D01*
X150977386Y-139956405D01*
X150860581Y-139795636D01*
X150720064Y-139655119D01*
X150559294Y-139538313D01*
X150382232Y-139448094D01*
X150382229Y-139448093D01*
X150193237Y-139386687D01*
X150095098Y-139371143D01*
X149996961Y-139355600D01*
X149798239Y-139355600D01*
X149732814Y-139365962D01*
X149601962Y-139386687D01*
X149412970Y-139448093D01*
X149412967Y-139448094D01*
X149235905Y-139538313D01*
X149075133Y-139655121D01*
X148934621Y-139795633D01*
X148817813Y-139956405D01*
X148727594Y-140133467D01*
X148727593Y-140133470D01*
X148666187Y-140322462D01*
X148635100Y-140518739D01*
X148635100Y-141987460D01*
X148666187Y-142183737D01*
X148727593Y-142372729D01*
X148727594Y-142372732D01*
X148817813Y-142549794D01*
X148934619Y-142710564D01*
X149075136Y-142851081D01*
X149235906Y-142967887D01*
X149293269Y-142997115D01*
X149344065Y-143045090D01*
X149360860Y-143112911D01*
X149338322Y-143179046D01*
X149283607Y-143222497D01*
X149236974Y-143231600D01*
X142938226Y-143231600D01*
X142871187Y-143211915D01*
X142825432Y-143159111D01*
X142815488Y-143089953D01*
X142844513Y-143026397D01*
X142881931Y-142997115D01*
X142939294Y-142967887D01*
X143100064Y-142851081D01*
X143240581Y-142710564D01*
X143357387Y-142549794D01*
X143447605Y-142372732D01*
X143509013Y-142183736D01*
X143540100Y-141987461D01*
X143540100Y-140518739D01*
X143509013Y-140322464D01*
X143447605Y-140133468D01*
X143447605Y-140133467D01*
X143357386Y-139956405D01*
X143240581Y-139795636D01*
X143100064Y-139655119D01*
X142939294Y-139538313D01*
X142762232Y-139448094D01*
X142762229Y-139448093D01*
X142573237Y-139386687D01*
X142475098Y-139371143D01*
X142376961Y-139355600D01*
X142178239Y-139355600D01*
X142112814Y-139365962D01*
X141981962Y-139386687D01*
X141792970Y-139448093D01*
X141792967Y-139448094D01*
X141615905Y-139538313D01*
X141455133Y-139655121D01*
X141314621Y-139795633D01*
X141197813Y-139956405D01*
X141118085Y-140112880D01*
X141070110Y-140163676D01*
X141002289Y-140180471D01*
X140936154Y-140157933D01*
X140897115Y-140112880D01*
X140817386Y-139956405D01*
X140700581Y-139795636D01*
X140560064Y-139655119D01*
X140399294Y-139538313D01*
X140222232Y-139448094D01*
X140222229Y-139448093D01*
X140033237Y-139386687D01*
X139935098Y-139371143D01*
X139836961Y-139355600D01*
X139638239Y-139355600D01*
X139572814Y-139365962D01*
X139441962Y-139386687D01*
X139252970Y-139448093D01*
X139252967Y-139448094D01*
X139075905Y-139538313D01*
X138915133Y-139655121D01*
X138774621Y-139795633D01*
X138657813Y-139956405D01*
X138578085Y-140112880D01*
X138530110Y-140163676D01*
X138462289Y-140180471D01*
X138396154Y-140157933D01*
X138357115Y-140112880D01*
X138277386Y-139956405D01*
X138160581Y-139795636D01*
X138020064Y-139655119D01*
X137859294Y-139538313D01*
X137682232Y-139448094D01*
X137682229Y-139448093D01*
X137493237Y-139386687D01*
X137395098Y-139371143D01*
X137296961Y-139355600D01*
X137098239Y-139355600D01*
X137032814Y-139365962D01*
X136901962Y-139386687D01*
X136712970Y-139448093D01*
X136712967Y-139448094D01*
X136535905Y-139538313D01*
X136375133Y-139655121D01*
X136234621Y-139795633D01*
X136117813Y-139956405D01*
X136038085Y-140112880D01*
X135990110Y-140163676D01*
X135922289Y-140180471D01*
X135856154Y-140157933D01*
X135817115Y-140112880D01*
X135737386Y-139956405D01*
X135620581Y-139795636D01*
X135480064Y-139655119D01*
X135319294Y-139538313D01*
X135142232Y-139448094D01*
X135142229Y-139448093D01*
X134953237Y-139386687D01*
X134855098Y-139371143D01*
X134756961Y-139355600D01*
X134558239Y-139355600D01*
X134492814Y-139365962D01*
X134361962Y-139386687D01*
X134172970Y-139448093D01*
X134172967Y-139448094D01*
X133995905Y-139538313D01*
X133835133Y-139655121D01*
X133694621Y-139795633D01*
X133577813Y-139956405D01*
X133498085Y-140112880D01*
X133450110Y-140163676D01*
X133382289Y-140180471D01*
X133316154Y-140157933D01*
X133277115Y-140112880D01*
X133197386Y-139956405D01*
X133080581Y-139795636D01*
X132940064Y-139655119D01*
X132779294Y-139538313D01*
X132602232Y-139448094D01*
X132602229Y-139448093D01*
X132413237Y-139386687D01*
X132315098Y-139371143D01*
X132216961Y-139355600D01*
X132018239Y-139355600D01*
X131952814Y-139365962D01*
X131821962Y-139386687D01*
X131632970Y-139448093D01*
X131632967Y-139448094D01*
X131455905Y-139538313D01*
X131295133Y-139655121D01*
X131154621Y-139795633D01*
X131037813Y-139956405D01*
X130958085Y-140112880D01*
X130910110Y-140163676D01*
X130842289Y-140180471D01*
X130776154Y-140157933D01*
X130737115Y-140112880D01*
X130657386Y-139956405D01*
X130540581Y-139795636D01*
X130400064Y-139655119D01*
X130239294Y-139538313D01*
X130062232Y-139448094D01*
X130062229Y-139448093D01*
X129873237Y-139386687D01*
X129775098Y-139371143D01*
X129676961Y-139355600D01*
X129478239Y-139355600D01*
X129412814Y-139365962D01*
X129281962Y-139386687D01*
X129092970Y-139448093D01*
X129092967Y-139448094D01*
X128915905Y-139538313D01*
X128755133Y-139655121D01*
X128614621Y-139795633D01*
X128497813Y-139956405D01*
X128418085Y-140112880D01*
X128370110Y-140163676D01*
X128302289Y-140180471D01*
X128236154Y-140157933D01*
X128197115Y-140112880D01*
X128117386Y-139956405D01*
X128000581Y-139795636D01*
X127860064Y-139655119D01*
X127699294Y-139538313D01*
X127522232Y-139448094D01*
X127522229Y-139448093D01*
X127333237Y-139386687D01*
X127235098Y-139371143D01*
X127136961Y-139355600D01*
X126938239Y-139355600D01*
X126872814Y-139365962D01*
X126741962Y-139386687D01*
X126552970Y-139448093D01*
X126552967Y-139448094D01*
X126375905Y-139538313D01*
X126215133Y-139655121D01*
X126074621Y-139795633D01*
X125957813Y-139956405D01*
X125867594Y-140133467D01*
X125867593Y-140133470D01*
X125806187Y-140322462D01*
X125775100Y-140518739D01*
X125775100Y-141987460D01*
X125806187Y-142183737D01*
X125867593Y-142372729D01*
X125867594Y-142372732D01*
X125957813Y-142549794D01*
X126074619Y-142710564D01*
X126215136Y-142851081D01*
X126375906Y-142967887D01*
X126433269Y-142997115D01*
X126484065Y-143045090D01*
X126500860Y-143112911D01*
X126478322Y-143179046D01*
X126423607Y-143222497D01*
X126376974Y-143231600D01*
X122093100Y-143231600D01*
X122026061Y-143211915D01*
X121980306Y-143159111D01*
X121969100Y-143107600D01*
X121969100Y-128453739D01*
X122600100Y-128453739D01*
X122600100Y-128652460D01*
X122631187Y-128848737D01*
X122692593Y-129037729D01*
X122692594Y-129037732D01*
X122782813Y-129214794D01*
X122899619Y-129375564D01*
X123040136Y-129516081D01*
X123200906Y-129632887D01*
X123319432Y-129693279D01*
X123357380Y-129712615D01*
X123408176Y-129760590D01*
X123424971Y-129828411D01*
X123402433Y-129894546D01*
X123357380Y-129933585D01*
X123200905Y-130013313D01*
X123040133Y-130130121D01*
X122899621Y-130270633D01*
X122782813Y-130431405D01*
X122692594Y-130608467D01*
X122692593Y-130608470D01*
X122631187Y-130797462D01*
X122600100Y-130993739D01*
X122600100Y-131192460D01*
X122631187Y-131388737D01*
X122692593Y-131577729D01*
X122692594Y-131577732D01*
X122775901Y-131741229D01*
X122782813Y-131754794D01*
X122899619Y-131915564D01*
X123040136Y-132056081D01*
X123200906Y-132172887D01*
X123319432Y-132233279D01*
X123357380Y-132252615D01*
X123408176Y-132300590D01*
X123424971Y-132368411D01*
X123402433Y-132434546D01*
X123357380Y-132473585D01*
X123200905Y-132553313D01*
X123040133Y-132670121D01*
X122899621Y-132810633D01*
X122782813Y-132971405D01*
X122692594Y-133148467D01*
X122692593Y-133148470D01*
X122631187Y-133337462D01*
X122600100Y-133533739D01*
X122600100Y-133732460D01*
X122631187Y-133928737D01*
X122692593Y-134117729D01*
X122692594Y-134117732D01*
X122782813Y-134294794D01*
X122899619Y-134455564D01*
X123040136Y-134596081D01*
X123200906Y-134712887D01*
X123319432Y-134773279D01*
X123357380Y-134792615D01*
X123408176Y-134840590D01*
X123424971Y-134908411D01*
X123402433Y-134974546D01*
X123357380Y-135013585D01*
X123200905Y-135093313D01*
X123040133Y-135210121D01*
X122899621Y-135350633D01*
X122782813Y-135511405D01*
X122692594Y-135688467D01*
X122692593Y-135688470D01*
X122631187Y-135877462D01*
X122600100Y-136073739D01*
X122600100Y-136272460D01*
X122631187Y-136468737D01*
X122692593Y-136657729D01*
X122692594Y-136657732D01*
X122759726Y-136789484D01*
X122782813Y-136834794D01*
X122899619Y-136995564D01*
X123040136Y-137136081D01*
X123200906Y-137252887D01*
X123287749Y-137297135D01*
X123377967Y-137343105D01*
X123377970Y-137343106D01*
X123472466Y-137373809D01*
X123566964Y-137404513D01*
X123763239Y-137435600D01*
X123763240Y-137435600D01*
X125231960Y-137435600D01*
X125231961Y-137435600D01*
X125428236Y-137404513D01*
X125617232Y-137343105D01*
X125794294Y-137252887D01*
X125955064Y-137136081D01*
X126095581Y-136995564D01*
X126212387Y-136834794D01*
X126302605Y-136657732D01*
X126364013Y-136468736D01*
X126395100Y-136272461D01*
X126395100Y-136073739D01*
X126364013Y-135877464D01*
X126302605Y-135688468D01*
X126302605Y-135688467D01*
X126212386Y-135511405D01*
X126095581Y-135350636D01*
X125955064Y-135210119D01*
X125794294Y-135093313D01*
X125637818Y-135013584D01*
X125587023Y-134965610D01*
X125570228Y-134897789D01*
X125592765Y-134831654D01*
X125637818Y-134792615D01*
X125794294Y-134712887D01*
X125955064Y-134596081D01*
X126095581Y-134455564D01*
X126212387Y-134294794D01*
X126302605Y-134117732D01*
X126364013Y-133928736D01*
X126395100Y-133732461D01*
X126395100Y-133533739D01*
X126395100Y-133533738D01*
X126384829Y-133468887D01*
X126382239Y-133452537D01*
X143682100Y-133452537D01*
X143682100Y-133813662D01*
X143717496Y-134173057D01*
X143787944Y-134527230D01*
X143787947Y-134527241D01*
X143892781Y-134872833D01*
X144030981Y-135206476D01*
X144030983Y-135206481D01*
X144201209Y-135524952D01*
X144201220Y-135524970D01*
X144401844Y-135825225D01*
X144401854Y-135825239D01*
X144630954Y-136104397D01*
X144886302Y-136359745D01*
X144886307Y-136359749D01*
X144886308Y-136359750D01*
X145165466Y-136588850D01*
X145465736Y-136789484D01*
X145465745Y-136789489D01*
X145465747Y-136789490D01*
X145784218Y-136959716D01*
X145784220Y-136959716D01*
X145784226Y-136959720D01*
X146117868Y-137097919D01*
X146463449Y-137202750D01*
X146463455Y-137202751D01*
X146463458Y-137202752D01*
X146463469Y-137202755D01*
X146817642Y-137273203D01*
X147177034Y-137308600D01*
X147177037Y-137308600D01*
X147538163Y-137308600D01*
X147538166Y-137308600D01*
X147897558Y-137273203D01*
X147999699Y-137252886D01*
X148251730Y-137202755D01*
X148251741Y-137202752D01*
X148251741Y-137202751D01*
X148251751Y-137202750D01*
X148597332Y-137097919D01*
X148930974Y-136959720D01*
X149249464Y-136789484D01*
X149549734Y-136588850D01*
X149828892Y-136359750D01*
X150084250Y-136104392D01*
X150313350Y-135825234D01*
X150513984Y-135524964D01*
X150684220Y-135206474D01*
X150822419Y-134872832D01*
X150927250Y-134527251D01*
X150927252Y-134527241D01*
X150927255Y-134527230D01*
X150997703Y-134173057D01*
X151003152Y-134117729D01*
X151033100Y-133813666D01*
X151033100Y-133452534D01*
X150997703Y-133093142D01*
X150927255Y-132738969D01*
X150927252Y-132738958D01*
X150927251Y-132738955D01*
X150927250Y-132738949D01*
X150822419Y-132393368D01*
X150684220Y-132059726D01*
X150513984Y-131741236D01*
X150313350Y-131440966D01*
X150084250Y-131161808D01*
X150084249Y-131161807D01*
X150084245Y-131161802D01*
X149916182Y-130993739D01*
X170860100Y-130993739D01*
X170860100Y-131192460D01*
X170891187Y-131388737D01*
X170952593Y-131577729D01*
X170952594Y-131577732D01*
X171035901Y-131741229D01*
X171042813Y-131754794D01*
X171159619Y-131915564D01*
X171300136Y-132056081D01*
X171460906Y-132172887D01*
X171579432Y-132233279D01*
X171617380Y-132252615D01*
X171668176Y-132300590D01*
X171684971Y-132368411D01*
X171662433Y-132434546D01*
X171617380Y-132473585D01*
X171460905Y-132553313D01*
X171300133Y-132670121D01*
X171159621Y-132810633D01*
X171042813Y-132971405D01*
X170952594Y-133148467D01*
X170952593Y-133148470D01*
X170891187Y-133337462D01*
X170860100Y-133533739D01*
X170860100Y-133732460D01*
X170891187Y-133928737D01*
X170952593Y-134117729D01*
X170952594Y-134117732D01*
X171042813Y-134294794D01*
X171159619Y-134455564D01*
X171300136Y-134596081D01*
X171460906Y-134712887D01*
X171579432Y-134773279D01*
X171617380Y-134792615D01*
X171668176Y-134840590D01*
X171684971Y-134908411D01*
X171662433Y-134974546D01*
X171617380Y-135013585D01*
X171460905Y-135093313D01*
X171300133Y-135210121D01*
X171159621Y-135350633D01*
X171042813Y-135511405D01*
X170952594Y-135688467D01*
X170952593Y-135688470D01*
X170891187Y-135877462D01*
X170860100Y-136073739D01*
X170860100Y-136272460D01*
X170891187Y-136468737D01*
X170952593Y-136657729D01*
X170952594Y-136657732D01*
X171019726Y-136789484D01*
X171042813Y-136834794D01*
X171159619Y-136995564D01*
X171300136Y-137136081D01*
X171460906Y-137252887D01*
X171547749Y-137297135D01*
X171637967Y-137343105D01*
X171637970Y-137343106D01*
X171732466Y-137373809D01*
X171826964Y-137404513D01*
X172023239Y-137435600D01*
X172023240Y-137435600D01*
X173491960Y-137435600D01*
X173491961Y-137435600D01*
X173688236Y-137404513D01*
X173877232Y-137343105D01*
X174054294Y-137252887D01*
X174215064Y-137136081D01*
X174355581Y-136995564D01*
X174472387Y-136834794D01*
X174562605Y-136657732D01*
X174624013Y-136468736D01*
X174655100Y-136272461D01*
X174655100Y-136073739D01*
X174624013Y-135877464D01*
X174562605Y-135688468D01*
X174562605Y-135688467D01*
X174472386Y-135511405D01*
X174355581Y-135350636D01*
X174215064Y-135210119D01*
X174054294Y-135093313D01*
X173897818Y-135013584D01*
X173847023Y-134965610D01*
X173830228Y-134897789D01*
X173852765Y-134831654D01*
X173897818Y-134792615D01*
X174054294Y-134712887D01*
X174215064Y-134596081D01*
X174355581Y-134455564D01*
X174472387Y-134294794D01*
X174562605Y-134117732D01*
X174624013Y-133928736D01*
X174655100Y-133732461D01*
X174655100Y-133533739D01*
X174624013Y-133337464D01*
X174562605Y-133148468D01*
X174562605Y-133148467D01*
X174472386Y-132971405D01*
X174355581Y-132810636D01*
X174215064Y-132670119D01*
X174054294Y-132553313D01*
X173897818Y-132473584D01*
X173847023Y-132425610D01*
X173830228Y-132357789D01*
X173852765Y-132291654D01*
X173897818Y-132252615D01*
X174054294Y-132172887D01*
X174215064Y-132056081D01*
X174355581Y-131915564D01*
X174472387Y-131754794D01*
X174562605Y-131577732D01*
X174624013Y-131388736D01*
X174655100Y-131192461D01*
X174655100Y-130993739D01*
X174624013Y-130797464D01*
X174562605Y-130608468D01*
X174562605Y-130608467D01*
X174495476Y-130476720D01*
X174472387Y-130431406D01*
X174355581Y-130270636D01*
X174215064Y-130130119D01*
X174054294Y-130013313D01*
X174014420Y-129992996D01*
X173877232Y-129923094D01*
X173877229Y-129923093D01*
X173688237Y-129861687D01*
X173590098Y-129846143D01*
X173491961Y-129830600D01*
X172023239Y-129830600D01*
X171957814Y-129840962D01*
X171826962Y-129861687D01*
X171637970Y-129923093D01*
X171637967Y-129923094D01*
X171460905Y-130013313D01*
X171300133Y-130130121D01*
X171159621Y-130270633D01*
X171042813Y-130431405D01*
X170952594Y-130608467D01*
X170952593Y-130608470D01*
X170891187Y-130797462D01*
X170860100Y-130993739D01*
X149916182Y-130993739D01*
X149828897Y-130906454D01*
X149549739Y-130677354D01*
X149549738Y-130677353D01*
X149549734Y-130677350D01*
X149249464Y-130476716D01*
X149249459Y-130476713D01*
X149249452Y-130476709D01*
X148930981Y-130306483D01*
X148930976Y-130306481D01*
X148597333Y-130168281D01*
X148251741Y-130063447D01*
X148251730Y-130063444D01*
X147897557Y-129992996D01*
X147626879Y-129966337D01*
X147538166Y-129957600D01*
X147177034Y-129957600D01*
X147095065Y-129965673D01*
X146817642Y-129992996D01*
X146463469Y-130063444D01*
X146463458Y-130063447D01*
X146117866Y-130168281D01*
X145784223Y-130306481D01*
X145784218Y-130306483D01*
X145465747Y-130476709D01*
X145465729Y-130476720D01*
X145165474Y-130677344D01*
X145165460Y-130677354D01*
X144886302Y-130906454D01*
X144630954Y-131161802D01*
X144401854Y-131440960D01*
X144401844Y-131440974D01*
X144201220Y-131741229D01*
X144201209Y-131741247D01*
X144030983Y-132059718D01*
X144030981Y-132059723D01*
X143892781Y-132393366D01*
X143787947Y-132738958D01*
X143787944Y-132738969D01*
X143717496Y-133093142D01*
X143682100Y-133452537D01*
X126382239Y-133452537D01*
X126375282Y-133408613D01*
X126364013Y-133337464D01*
X126302605Y-133148468D01*
X126302605Y-133148467D01*
X126212386Y-132971405D01*
X126095581Y-132810636D01*
X125955064Y-132670119D01*
X125794294Y-132553313D01*
X125637818Y-132473584D01*
X125587023Y-132425610D01*
X125570228Y-132357789D01*
X125592765Y-132291654D01*
X125637818Y-132252615D01*
X125794294Y-132172887D01*
X125955064Y-132056081D01*
X126095581Y-131915564D01*
X126212387Y-131754794D01*
X126302605Y-131577732D01*
X126364013Y-131388736D01*
X126395100Y-131192461D01*
X126395100Y-130993739D01*
X126364013Y-130797464D01*
X126302605Y-130608468D01*
X126302605Y-130608467D01*
X126235476Y-130476720D01*
X126212387Y-130431406D01*
X126095581Y-130270636D01*
X125955064Y-130130119D01*
X125794294Y-130013313D01*
X125637818Y-129933584D01*
X125587023Y-129885610D01*
X125570228Y-129817789D01*
X125592765Y-129751654D01*
X125637818Y-129712615D01*
X125794294Y-129632887D01*
X125955064Y-129516081D01*
X126095581Y-129375564D01*
X126212387Y-129214794D01*
X126302605Y-129037732D01*
X126364013Y-128848736D01*
X126395100Y-128652461D01*
X126395100Y-128453739D01*
X126364013Y-128257464D01*
X126302605Y-128068468D01*
X126302605Y-128068467D01*
X126212386Y-127891405D01*
X126095581Y-127730636D01*
X125955064Y-127590119D01*
X125794294Y-127473313D01*
X125617232Y-127383094D01*
X125617229Y-127383093D01*
X125428237Y-127321687D01*
X125330098Y-127306143D01*
X125231961Y-127290600D01*
X123763239Y-127290600D01*
X123697814Y-127300962D01*
X123566962Y-127321687D01*
X123377970Y-127383093D01*
X123377967Y-127383094D01*
X123200905Y-127473313D01*
X123040133Y-127590121D01*
X122899621Y-127730633D01*
X122782813Y-127891405D01*
X122692594Y-128068467D01*
X122692593Y-128068470D01*
X122631187Y-128257462D01*
X122600100Y-128453739D01*
X121969100Y-128453739D01*
X121969100Y-103053739D01*
X122600100Y-103053739D01*
X122600100Y-103252460D01*
X122631187Y-103448737D01*
X122692593Y-103637729D01*
X122692594Y-103637732D01*
X122782813Y-103814794D01*
X122899619Y-103975564D01*
X123040136Y-104116081D01*
X123200906Y-104232887D01*
X123319432Y-104293279D01*
X123357380Y-104312615D01*
X123408176Y-104360590D01*
X123424971Y-104428411D01*
X123402433Y-104494546D01*
X123357380Y-104533585D01*
X123200905Y-104613313D01*
X123040133Y-104730121D01*
X122899621Y-104870633D01*
X122782813Y-105031405D01*
X122692594Y-105208467D01*
X122692593Y-105208470D01*
X122631187Y-105397462D01*
X122600100Y-105593739D01*
X122600100Y-105792460D01*
X122631187Y-105988737D01*
X122692593Y-106177729D01*
X122692594Y-106177732D01*
X122782813Y-106354794D01*
X122899619Y-106515564D01*
X123040136Y-106656081D01*
X123200906Y-106772887D01*
X123289800Y-106818181D01*
X123357380Y-106852615D01*
X123408176Y-106900590D01*
X123424971Y-106968411D01*
X123402433Y-107034546D01*
X123357380Y-107073585D01*
X123200905Y-107153313D01*
X123040133Y-107270121D01*
X122899621Y-107410633D01*
X122782813Y-107571405D01*
X122692594Y-107748467D01*
X122692593Y-107748470D01*
X122631187Y-107937462D01*
X122600100Y-108133739D01*
X122600100Y-108332460D01*
X122631187Y-108528737D01*
X122692593Y-108717729D01*
X122692594Y-108717732D01*
X122782813Y-108894794D01*
X122899619Y-109055564D01*
X123040136Y-109196081D01*
X123200906Y-109312887D01*
X123319432Y-109373279D01*
X123357380Y-109392615D01*
X123408176Y-109440590D01*
X123424971Y-109508411D01*
X123402433Y-109574546D01*
X123357380Y-109613585D01*
X123200905Y-109693313D01*
X123040133Y-109810121D01*
X122899621Y-109950633D01*
X122782813Y-110111405D01*
X122692594Y-110288467D01*
X122692593Y-110288470D01*
X122631187Y-110477462D01*
X122600100Y-110673739D01*
X122600100Y-110872460D01*
X122631187Y-111068737D01*
X122692593Y-111257729D01*
X122692594Y-111257732D01*
X122782813Y-111434794D01*
X122899619Y-111595564D01*
X123040136Y-111736081D01*
X123200906Y-111852887D01*
X123270184Y-111888186D01*
X123357380Y-111932615D01*
X123408176Y-111980590D01*
X123424971Y-112048411D01*
X123402433Y-112114546D01*
X123357380Y-112153585D01*
X123200905Y-112233313D01*
X123040133Y-112350121D01*
X122899621Y-112490633D01*
X122782813Y-112651405D01*
X122692594Y-112828467D01*
X122692593Y-112828470D01*
X122631187Y-113017462D01*
X122600100Y-113213739D01*
X122600100Y-113412460D01*
X122631187Y-113608737D01*
X122692593Y-113797729D01*
X122692594Y-113797732D01*
X122782813Y-113974794D01*
X122899619Y-114135564D01*
X123040136Y-114276081D01*
X123200906Y-114392887D01*
X123319432Y-114453279D01*
X123357380Y-114472615D01*
X123408176Y-114520590D01*
X123424971Y-114588411D01*
X123402433Y-114654546D01*
X123357380Y-114693585D01*
X123200905Y-114773313D01*
X123040133Y-114890121D01*
X122899621Y-115030633D01*
X122782813Y-115191405D01*
X122692594Y-115368467D01*
X122692593Y-115368470D01*
X122631187Y-115557462D01*
X122600100Y-115753739D01*
X122600100Y-115952460D01*
X122631187Y-116148737D01*
X122692593Y-116337729D01*
X122692594Y-116337732D01*
X122782813Y-116514794D01*
X122899619Y-116675564D01*
X123040136Y-116816081D01*
X123200906Y-116932887D01*
X123319432Y-116993279D01*
X123357380Y-117012615D01*
X123408176Y-117060590D01*
X123424971Y-117128411D01*
X123402433Y-117194546D01*
X123357380Y-117233585D01*
X123200905Y-117313313D01*
X123040133Y-117430121D01*
X122899621Y-117570633D01*
X122782813Y-117731405D01*
X122692594Y-117908467D01*
X122692593Y-117908470D01*
X122631187Y-118097462D01*
X122600100Y-118293739D01*
X122600100Y-118492460D01*
X122631187Y-118688737D01*
X122692593Y-118877729D01*
X122692594Y-118877732D01*
X122782813Y-119054794D01*
X122899619Y-119215564D01*
X123040136Y-119356081D01*
X123200906Y-119472887D01*
X123319432Y-119533279D01*
X123357380Y-119552615D01*
X123408176Y-119600590D01*
X123424971Y-119668411D01*
X123402433Y-119734546D01*
X123357380Y-119773585D01*
X123200905Y-119853313D01*
X123040133Y-119970121D01*
X122899621Y-120110633D01*
X122782813Y-120271405D01*
X122692594Y-120448467D01*
X122692593Y-120448470D01*
X122631187Y-120637462D01*
X122600100Y-120833739D01*
X122600100Y-121032460D01*
X122631187Y-121228737D01*
X122692593Y-121417729D01*
X122692594Y-121417732D01*
X122782813Y-121594794D01*
X122899619Y-121755564D01*
X123040136Y-121896081D01*
X123200906Y-122012887D01*
X123250462Y-122038137D01*
X123377967Y-122103105D01*
X123377970Y-122103106D01*
X123472466Y-122133809D01*
X123566964Y-122164513D01*
X123763239Y-122195600D01*
X123763240Y-122195600D01*
X125231960Y-122195600D01*
X125231961Y-122195600D01*
X125428236Y-122164513D01*
X125617232Y-122103105D01*
X125794294Y-122012887D01*
X125955064Y-121896081D01*
X126095581Y-121755564D01*
X126212387Y-121594794D01*
X126302605Y-121417732D01*
X126364013Y-121228736D01*
X126370219Y-121189553D01*
X147959200Y-121189553D01*
X147959200Y-121347246D01*
X147989961Y-121501889D01*
X147989964Y-121501901D01*
X148050302Y-121647572D01*
X148050309Y-121647585D01*
X148137910Y-121778688D01*
X148137913Y-121778692D01*
X148249407Y-121890186D01*
X148249411Y-121890189D01*
X148380514Y-121977790D01*
X148380526Y-121977797D01*
X148467052Y-122013636D01*
X148521456Y-122057476D01*
X148543521Y-122123770D01*
X148543600Y-122128197D01*
X148543600Y-122236346D01*
X148574361Y-122390989D01*
X148574364Y-122391001D01*
X148634702Y-122536672D01*
X148634709Y-122536685D01*
X148722310Y-122667788D01*
X148722313Y-122667792D01*
X148833807Y-122779286D01*
X148833811Y-122779289D01*
X148964914Y-122866890D01*
X148964927Y-122866897D01*
X149110598Y-122927235D01*
X149110603Y-122927237D01*
X149265253Y-122957999D01*
X149265256Y-122958000D01*
X149265258Y-122958000D01*
X149422944Y-122958000D01*
X149422945Y-122957999D01*
X149577597Y-122927237D01*
X149723279Y-122866894D01*
X149854389Y-122779289D01*
X149965889Y-122667789D01*
X150053494Y-122536679D01*
X150113837Y-122390997D01*
X150144600Y-122236342D01*
X150144600Y-122078658D01*
X150144600Y-122078655D01*
X150144599Y-122078653D01*
X150113838Y-121924010D01*
X150113837Y-121924003D01*
X150113835Y-121923998D01*
X150053497Y-121778327D01*
X150053490Y-121778314D01*
X149965889Y-121647211D01*
X149965886Y-121647207D01*
X149854392Y-121535713D01*
X149854388Y-121535710D01*
X149723285Y-121448109D01*
X149723275Y-121448104D01*
X149636747Y-121412263D01*
X149582344Y-121368422D01*
X149560279Y-121302128D01*
X149560200Y-121297702D01*
X149560200Y-121189555D01*
X149560199Y-121189553D01*
X149529438Y-121034910D01*
X149529437Y-121034903D01*
X149529435Y-121034898D01*
X149469097Y-120889227D01*
X149469090Y-120889214D01*
X149381489Y-120758111D01*
X149381486Y-120758107D01*
X149269992Y-120646613D01*
X149269988Y-120646610D01*
X149138885Y-120559009D01*
X149138872Y-120559002D01*
X148993201Y-120498664D01*
X148993189Y-120498661D01*
X148838545Y-120467900D01*
X148838542Y-120467900D01*
X148680858Y-120467900D01*
X148680855Y-120467900D01*
X148526210Y-120498661D01*
X148526198Y-120498664D01*
X148380527Y-120559002D01*
X148380514Y-120559009D01*
X148249411Y-120646610D01*
X148249407Y-120646613D01*
X148137913Y-120758107D01*
X148137910Y-120758111D01*
X148050309Y-120889214D01*
X148050302Y-120889227D01*
X147989964Y-121034898D01*
X147989961Y-121034910D01*
X147959200Y-121189553D01*
X126370219Y-121189553D01*
X126395100Y-121032461D01*
X126395100Y-120833739D01*
X126364013Y-120637464D01*
X126302605Y-120448468D01*
X126302605Y-120448467D01*
X126212386Y-120271405D01*
X126095581Y-120110636D01*
X125955064Y-119970119D01*
X125794294Y-119853313D01*
X125637818Y-119773584D01*
X125587023Y-119725610D01*
X125570228Y-119657789D01*
X125592765Y-119591654D01*
X125637818Y-119552615D01*
X125794294Y-119472887D01*
X125955064Y-119356081D01*
X126095581Y-119215564D01*
X126212387Y-119054794D01*
X126302605Y-118877732D01*
X126364013Y-118688736D01*
X126395100Y-118492461D01*
X126395100Y-118293739D01*
X126364013Y-118097464D01*
X126302605Y-117908468D01*
X126302605Y-117908467D01*
X126212386Y-117731405D01*
X126095581Y-117570636D01*
X125955064Y-117430119D01*
X125794294Y-117313313D01*
X125637818Y-117233584D01*
X125587023Y-117185610D01*
X125570228Y-117117789D01*
X125592765Y-117051654D01*
X125637818Y-117012615D01*
X125794294Y-116932887D01*
X125955064Y-116816081D01*
X126095581Y-116675564D01*
X126212387Y-116514794D01*
X126302605Y-116337732D01*
X126364013Y-116148736D01*
X126395100Y-115952461D01*
X126395100Y-115753739D01*
X126364013Y-115557464D01*
X126302605Y-115368468D01*
X126302605Y-115368467D01*
X126212386Y-115191405D01*
X126095581Y-115030636D01*
X125955064Y-114890119D01*
X125794294Y-114773313D01*
X125637818Y-114693584D01*
X125587023Y-114645610D01*
X125570228Y-114577789D01*
X125592765Y-114511654D01*
X125637818Y-114472615D01*
X125794294Y-114392887D01*
X125955064Y-114276081D01*
X126095581Y-114135564D01*
X126212387Y-113974794D01*
X126302605Y-113797732D01*
X126364013Y-113608736D01*
X126395100Y-113412461D01*
X126395100Y-113213739D01*
X170860100Y-113213739D01*
X170860100Y-113412460D01*
X170891187Y-113608737D01*
X170952593Y-113797729D01*
X170952594Y-113797732D01*
X171042813Y-113974794D01*
X171159619Y-114135564D01*
X171300136Y-114276081D01*
X171460906Y-114392887D01*
X171579432Y-114453279D01*
X171617380Y-114472615D01*
X171668176Y-114520590D01*
X171684971Y-114588411D01*
X171662433Y-114654546D01*
X171617380Y-114693585D01*
X171460905Y-114773313D01*
X171300133Y-114890121D01*
X171159621Y-115030633D01*
X171042813Y-115191405D01*
X170952594Y-115368467D01*
X170952593Y-115368470D01*
X170891187Y-115557462D01*
X170860100Y-115753739D01*
X170860100Y-115952460D01*
X170891187Y-116148737D01*
X170952593Y-116337729D01*
X170952594Y-116337732D01*
X171042813Y-116514794D01*
X171159619Y-116675564D01*
X171300136Y-116816081D01*
X171460906Y-116932887D01*
X171579432Y-116993279D01*
X171617380Y-117012615D01*
X171668176Y-117060590D01*
X171684971Y-117128411D01*
X171662433Y-117194546D01*
X171617380Y-117233585D01*
X171460905Y-117313313D01*
X171300133Y-117430121D01*
X171159621Y-117570633D01*
X171042813Y-117731405D01*
X170952594Y-117908467D01*
X170952593Y-117908470D01*
X170891187Y-118097462D01*
X170860100Y-118293739D01*
X170860100Y-118492460D01*
X170891187Y-118688737D01*
X170952593Y-118877729D01*
X170952594Y-118877732D01*
X171042813Y-119054794D01*
X171159619Y-119215564D01*
X171300136Y-119356081D01*
X171460906Y-119472887D01*
X171579432Y-119533279D01*
X171617380Y-119552615D01*
X171668176Y-119600590D01*
X171684971Y-119668411D01*
X171662433Y-119734546D01*
X171617380Y-119773585D01*
X171460905Y-119853313D01*
X171300133Y-119970121D01*
X171159621Y-120110633D01*
X171042813Y-120271405D01*
X170952594Y-120448467D01*
X170952593Y-120448470D01*
X170891187Y-120637462D01*
X170860100Y-120833739D01*
X170860100Y-121032460D01*
X170891187Y-121228737D01*
X170952593Y-121417729D01*
X170952594Y-121417732D01*
X171042813Y-121594794D01*
X171159619Y-121755564D01*
X171300136Y-121896081D01*
X171460906Y-122012887D01*
X171579432Y-122073279D01*
X171617380Y-122092615D01*
X171668176Y-122140590D01*
X171684971Y-122208411D01*
X171662433Y-122274546D01*
X171617380Y-122313585D01*
X171460905Y-122393313D01*
X171300133Y-122510121D01*
X171159621Y-122650633D01*
X171042813Y-122811405D01*
X170952594Y-122988467D01*
X170952593Y-122988470D01*
X170891187Y-123177462D01*
X170860100Y-123373739D01*
X170860100Y-123572460D01*
X170891187Y-123768737D01*
X170952593Y-123957729D01*
X170952594Y-123957732D01*
X171042813Y-124134794D01*
X171159619Y-124295564D01*
X171300136Y-124436081D01*
X171460906Y-124552887D01*
X171547749Y-124597135D01*
X171637967Y-124643105D01*
X171637970Y-124643106D01*
X171732466Y-124673809D01*
X171826964Y-124704513D01*
X172023239Y-124735600D01*
X172023240Y-124735600D01*
X173491960Y-124735600D01*
X173491961Y-124735600D01*
X173688236Y-124704513D01*
X173877232Y-124643105D01*
X174054294Y-124552887D01*
X174215064Y-124436081D01*
X174355581Y-124295564D01*
X174472387Y-124134794D01*
X174562605Y-123957732D01*
X174624013Y-123768736D01*
X174655100Y-123572461D01*
X174655100Y-123373739D01*
X174624013Y-123177464D01*
X174562605Y-122988468D01*
X174562605Y-122988467D01*
X174500661Y-122866897D01*
X174472387Y-122811406D01*
X174355581Y-122650636D01*
X174215064Y-122510119D01*
X174054294Y-122393313D01*
X173897818Y-122313584D01*
X173847023Y-122265610D01*
X173830228Y-122197789D01*
X173852765Y-122131654D01*
X173897818Y-122092615D01*
X174054294Y-122012887D01*
X174215064Y-121896081D01*
X174355581Y-121755564D01*
X174472387Y-121594794D01*
X174562605Y-121417732D01*
X174624013Y-121228736D01*
X174655100Y-121032461D01*
X174655100Y-120833739D01*
X174624013Y-120637464D01*
X174562605Y-120448468D01*
X174562605Y-120448467D01*
X174472386Y-120271405D01*
X174355581Y-120110636D01*
X174215064Y-119970119D01*
X174054294Y-119853313D01*
X173897818Y-119773584D01*
X173847023Y-119725610D01*
X173830228Y-119657789D01*
X173852765Y-119591654D01*
X173897818Y-119552615D01*
X174054294Y-119472887D01*
X174215064Y-119356081D01*
X174355581Y-119215564D01*
X174472387Y-119054794D01*
X174562605Y-118877732D01*
X174624013Y-118688736D01*
X174655100Y-118492461D01*
X174655100Y-118293739D01*
X174624013Y-118097464D01*
X174562605Y-117908468D01*
X174562605Y-117908467D01*
X174472386Y-117731405D01*
X174355581Y-117570636D01*
X174215064Y-117430119D01*
X174054294Y-117313313D01*
X173897818Y-117233584D01*
X173847023Y-117185610D01*
X173830228Y-117117789D01*
X173852765Y-117051654D01*
X173897818Y-117012615D01*
X174054294Y-116932887D01*
X174215064Y-116816081D01*
X174355581Y-116675564D01*
X174472387Y-116514794D01*
X174562605Y-116337732D01*
X174624013Y-116148736D01*
X174655100Y-115952461D01*
X174655100Y-115753739D01*
X174624013Y-115557464D01*
X174562605Y-115368468D01*
X174562605Y-115368467D01*
X174472386Y-115191405D01*
X174355581Y-115030636D01*
X174215064Y-114890119D01*
X174054294Y-114773313D01*
X173897818Y-114693584D01*
X173847023Y-114645610D01*
X173830228Y-114577789D01*
X173852765Y-114511654D01*
X173897818Y-114472615D01*
X174054294Y-114392887D01*
X174215064Y-114276081D01*
X174355581Y-114135564D01*
X174472387Y-113974794D01*
X174562605Y-113797732D01*
X174624013Y-113608736D01*
X174655100Y-113412461D01*
X174655100Y-113213739D01*
X174624013Y-113017464D01*
X174562605Y-112828468D01*
X174562605Y-112828467D01*
X174472386Y-112651405D01*
X174355581Y-112490636D01*
X174215064Y-112350119D01*
X174054294Y-112233313D01*
X173877232Y-112143094D01*
X173877229Y-112143093D01*
X173688237Y-112081687D01*
X173590098Y-112066143D01*
X173491961Y-112050600D01*
X172023239Y-112050600D01*
X171957814Y-112060962D01*
X171826962Y-112081687D01*
X171637970Y-112143093D01*
X171637967Y-112143094D01*
X171460905Y-112233313D01*
X171300133Y-112350121D01*
X171159621Y-112490633D01*
X171042813Y-112651405D01*
X170952594Y-112828467D01*
X170952593Y-112828470D01*
X170891187Y-113017462D01*
X170860100Y-113213739D01*
X126395100Y-113213739D01*
X126364013Y-113017464D01*
X126302605Y-112828468D01*
X126302605Y-112828467D01*
X126212386Y-112651405D01*
X126095581Y-112490636D01*
X125955064Y-112350119D01*
X125794294Y-112233313D01*
X125637818Y-112153584D01*
X125587023Y-112105610D01*
X125570228Y-112037789D01*
X125592765Y-111971654D01*
X125637818Y-111932615D01*
X125794294Y-111852887D01*
X125955064Y-111736081D01*
X126095581Y-111595564D01*
X126212387Y-111434794D01*
X126302605Y-111257732D01*
X126325407Y-111187555D01*
X126325408Y-111187553D01*
X130670100Y-111187553D01*
X130670100Y-111345246D01*
X130700861Y-111499889D01*
X130700864Y-111499901D01*
X130761202Y-111645572D01*
X130761209Y-111645585D01*
X130848810Y-111776688D01*
X130848813Y-111776692D01*
X130960307Y-111888186D01*
X130960311Y-111888189D01*
X131091414Y-111975790D01*
X131091427Y-111975797D01*
X131237098Y-112036135D01*
X131237103Y-112036137D01*
X131391753Y-112066899D01*
X131391756Y-112066900D01*
X131391758Y-112066900D01*
X131549444Y-112066900D01*
X131549445Y-112066899D01*
X131704097Y-112036137D01*
X131816766Y-111989467D01*
X131849772Y-111975797D01*
X131849772Y-111975796D01*
X131849779Y-111975794D01*
X131980889Y-111888189D01*
X132092389Y-111776689D01*
X132179994Y-111645579D01*
X132240337Y-111499897D01*
X132271100Y-111345242D01*
X132271100Y-111187558D01*
X132271100Y-111187555D01*
X132271099Y-111187553D01*
X132247465Y-111068737D01*
X132240337Y-111032903D01*
X132240335Y-111032898D01*
X132179997Y-110887227D01*
X132179990Y-110887214D01*
X132092389Y-110756111D01*
X132092386Y-110756107D01*
X131980892Y-110644613D01*
X131980888Y-110644610D01*
X131849785Y-110557009D01*
X131849772Y-110557002D01*
X131704101Y-110496664D01*
X131704089Y-110496661D01*
X131549445Y-110465900D01*
X131549442Y-110465900D01*
X131391758Y-110465900D01*
X131391755Y-110465900D01*
X131237110Y-110496661D01*
X131237098Y-110496664D01*
X131091427Y-110557002D01*
X131091414Y-110557009D01*
X130960311Y-110644610D01*
X130960307Y-110644613D01*
X130848813Y-110756107D01*
X130848810Y-110756111D01*
X130761209Y-110887214D01*
X130761202Y-110887227D01*
X130700864Y-111032898D01*
X130700861Y-111032910D01*
X130670100Y-111187553D01*
X126325408Y-111187553D01*
X126339836Y-111143148D01*
X126339836Y-111143147D01*
X126364012Y-111068739D01*
X126364011Y-111068739D01*
X126364013Y-111068736D01*
X126395100Y-110872461D01*
X126395100Y-110673739D01*
X126364013Y-110477464D01*
X126302605Y-110288468D01*
X126302605Y-110288467D01*
X126212386Y-110111405D01*
X126175435Y-110060546D01*
X126095581Y-109950636D01*
X126047798Y-109902853D01*
X152990800Y-109902853D01*
X152990800Y-110060546D01*
X153021561Y-110215189D01*
X153021564Y-110215201D01*
X153081902Y-110360872D01*
X153081909Y-110360885D01*
X153169510Y-110491988D01*
X153169513Y-110491992D01*
X153281007Y-110603486D01*
X153281011Y-110603489D01*
X153412114Y-110691090D01*
X153412127Y-110691097D01*
X153557798Y-110751435D01*
X153557803Y-110751437D01*
X153712453Y-110782199D01*
X153712456Y-110782200D01*
X153712458Y-110782200D01*
X153870144Y-110782200D01*
X153870145Y-110782199D01*
X154024797Y-110751437D01*
X154170479Y-110691094D01*
X154301589Y-110603489D01*
X154413089Y-110491989D01*
X154500694Y-110360879D01*
X154561037Y-110215197D01*
X154591800Y-110060542D01*
X154591800Y-109902858D01*
X154591800Y-109902855D01*
X154591799Y-109902853D01*
X154561038Y-109748210D01*
X154561037Y-109748203D01*
X154500932Y-109603095D01*
X154500697Y-109602527D01*
X154500690Y-109602514D01*
X154413089Y-109471411D01*
X154413086Y-109471407D01*
X154301592Y-109359913D01*
X154301588Y-109359910D01*
X154170485Y-109272309D01*
X154170472Y-109272302D01*
X154024801Y-109211964D01*
X154024789Y-109211961D01*
X153870145Y-109181200D01*
X153870142Y-109181200D01*
X153712458Y-109181200D01*
X153712455Y-109181200D01*
X153557810Y-109211961D01*
X153557798Y-109211964D01*
X153412127Y-109272302D01*
X153412114Y-109272309D01*
X153281011Y-109359910D01*
X153281007Y-109359913D01*
X153169513Y-109471407D01*
X153169510Y-109471411D01*
X153081909Y-109602514D01*
X153081902Y-109602527D01*
X153021564Y-109748198D01*
X153021561Y-109748210D01*
X152990800Y-109902853D01*
X126047798Y-109902853D01*
X125955064Y-109810119D01*
X125794294Y-109693313D01*
X125637818Y-109613584D01*
X125587023Y-109565610D01*
X125570228Y-109497789D01*
X125592765Y-109431654D01*
X125637818Y-109392615D01*
X125794294Y-109312887D01*
X125955064Y-109196081D01*
X126095581Y-109055564D01*
X126212387Y-108894794D01*
X126302605Y-108717732D01*
X126364013Y-108528736D01*
X126395100Y-108332461D01*
X126395100Y-108133739D01*
X126364013Y-107937464D01*
X126302605Y-107748468D01*
X126302605Y-107748467D01*
X126244988Y-107635389D01*
X126212387Y-107571406D01*
X126095581Y-107410636D01*
X125955064Y-107270119D01*
X125794294Y-107153313D01*
X125637818Y-107073584D01*
X125628665Y-107064939D01*
X125617000Y-107060205D01*
X125603746Y-107041404D01*
X125587023Y-107025610D01*
X125583996Y-107013390D01*
X125576742Y-107003099D01*
X125575756Y-106980115D01*
X125570228Y-106957789D01*
X125574289Y-106945871D01*
X125573813Y-106934753D01*
X152639000Y-106934753D01*
X152639000Y-107092446D01*
X152669761Y-107247089D01*
X152669764Y-107247101D01*
X152730102Y-107392772D01*
X152730109Y-107392785D01*
X152817710Y-107523888D01*
X152817713Y-107523892D01*
X152929207Y-107635386D01*
X152929211Y-107635389D01*
X153060314Y-107722990D01*
X153060327Y-107722997D01*
X153205998Y-107783335D01*
X153206003Y-107783337D01*
X153360653Y-107814099D01*
X153360656Y-107814100D01*
X153360658Y-107814100D01*
X153518344Y-107814100D01*
X153518345Y-107814099D01*
X153672997Y-107783337D01*
X153818679Y-107722994D01*
X153949789Y-107635389D01*
X154061289Y-107523889D01*
X154148894Y-107392779D01*
X154209237Y-107247097D01*
X154240000Y-107092442D01*
X154240000Y-106934758D01*
X154240000Y-106934755D01*
X154239999Y-106934753D01*
X154235757Y-106913429D01*
X154209237Y-106780103D01*
X154157865Y-106656078D01*
X154148897Y-106634427D01*
X154148890Y-106634414D01*
X154061289Y-106503311D01*
X154061286Y-106503307D01*
X153949792Y-106391813D01*
X153949788Y-106391810D01*
X153818685Y-106304209D01*
X153818672Y-106304202D01*
X153673001Y-106243864D01*
X153672989Y-106243861D01*
X153518345Y-106213100D01*
X153518342Y-106213100D01*
X153360658Y-106213100D01*
X153360655Y-106213100D01*
X153206010Y-106243861D01*
X153205998Y-106243864D01*
X153060327Y-106304202D01*
X153060314Y-106304209D01*
X152929211Y-106391810D01*
X152929207Y-106391813D01*
X152817713Y-106503307D01*
X152817710Y-106503311D01*
X152730109Y-106634414D01*
X152730102Y-106634427D01*
X152669764Y-106780098D01*
X152669761Y-106780110D01*
X152639000Y-106934753D01*
X125573813Y-106934753D01*
X125573750Y-106933293D01*
X125585344Y-106913429D01*
X125592765Y-106891654D01*
X125603468Y-106882379D01*
X125608972Y-106872951D01*
X125637817Y-106852616D01*
X125794294Y-106772887D01*
X125955064Y-106656081D01*
X126095581Y-106515564D01*
X126212387Y-106354794D01*
X126302605Y-106177732D01*
X126364013Y-105988736D01*
X126395100Y-105792461D01*
X126395100Y-105593739D01*
X170860100Y-105593739D01*
X170860100Y-105792460D01*
X170891187Y-105988737D01*
X170952593Y-106177729D01*
X170952594Y-106177732D01*
X171042813Y-106354794D01*
X171159619Y-106515564D01*
X171300136Y-106656081D01*
X171460906Y-106772887D01*
X171547749Y-106817135D01*
X171637967Y-106863105D01*
X171637970Y-106863106D01*
X171732466Y-106893809D01*
X171826964Y-106924513D01*
X172023239Y-106955600D01*
X172023240Y-106955600D01*
X173491960Y-106955600D01*
X173491961Y-106955600D01*
X173688236Y-106924513D01*
X173877232Y-106863105D01*
X174054294Y-106772887D01*
X174215064Y-106656081D01*
X174355581Y-106515564D01*
X174472387Y-106354794D01*
X174562605Y-106177732D01*
X174624013Y-105988736D01*
X174655100Y-105792461D01*
X174655100Y-105593739D01*
X174624013Y-105397464D01*
X174562605Y-105208468D01*
X174562605Y-105208467D01*
X174472386Y-105031405D01*
X174355581Y-104870636D01*
X174215064Y-104730119D01*
X174054294Y-104613313D01*
X173877232Y-104523094D01*
X173877229Y-104523093D01*
X173688237Y-104461687D01*
X173590098Y-104446143D01*
X173491961Y-104430600D01*
X172023239Y-104430600D01*
X171957814Y-104440962D01*
X171826962Y-104461687D01*
X171637970Y-104523093D01*
X171637967Y-104523094D01*
X171460905Y-104613313D01*
X171300133Y-104730121D01*
X171159621Y-104870633D01*
X171042813Y-105031405D01*
X170952594Y-105208467D01*
X170952593Y-105208470D01*
X170891187Y-105397462D01*
X170860100Y-105593739D01*
X126395100Y-105593739D01*
X126364013Y-105397464D01*
X126302605Y-105208468D01*
X126302605Y-105208467D01*
X126212386Y-105031405D01*
X126095581Y-104870636D01*
X125955064Y-104730119D01*
X125794294Y-104613313D01*
X125637818Y-104533584D01*
X125587023Y-104485610D01*
X125570228Y-104417789D01*
X125592765Y-104351654D01*
X125637818Y-104312615D01*
X125794294Y-104232887D01*
X125955064Y-104116081D01*
X126095581Y-103975564D01*
X126212387Y-103814794D01*
X126302605Y-103637732D01*
X126364013Y-103448736D01*
X126395100Y-103252461D01*
X126395100Y-103053739D01*
X126364013Y-102857464D01*
X126302605Y-102668468D01*
X126302605Y-102668467D01*
X126212386Y-102491405D01*
X126095581Y-102330636D01*
X125955064Y-102190119D01*
X125794294Y-102073313D01*
X125617232Y-101983094D01*
X125617229Y-101983093D01*
X125428237Y-101921687D01*
X125330098Y-101906143D01*
X125231961Y-101890600D01*
X123763239Y-101890600D01*
X123697814Y-101900962D01*
X123566962Y-101921687D01*
X123377970Y-101983093D01*
X123377967Y-101983094D01*
X123200905Y-102073313D01*
X123040133Y-102190121D01*
X122899621Y-102330633D01*
X122782813Y-102491405D01*
X122692594Y-102668467D01*
X122692593Y-102668470D01*
X122631187Y-102857462D01*
X122600100Y-103053739D01*
X121969100Y-103053739D01*
X121969100Y-97973739D01*
X122600100Y-97973739D01*
X122600100Y-98172461D01*
X122611752Y-98246030D01*
X122631187Y-98368737D01*
X122692593Y-98557729D01*
X122692594Y-98557732D01*
X122762729Y-98695378D01*
X122782813Y-98734794D01*
X122899619Y-98895564D01*
X123040136Y-99036081D01*
X123200906Y-99152887D01*
X123287749Y-99197135D01*
X123377967Y-99243105D01*
X123377970Y-99243106D01*
X123472466Y-99273809D01*
X123566964Y-99304513D01*
X123763239Y-99335600D01*
X123763240Y-99335600D01*
X125231960Y-99335600D01*
X125231961Y-99335600D01*
X125428236Y-99304513D01*
X125617232Y-99243105D01*
X125794294Y-99152887D01*
X125955064Y-99036081D01*
X126095581Y-98895564D01*
X126212387Y-98734794D01*
X126302605Y-98557732D01*
X126364013Y-98368736D01*
X126395100Y-98172461D01*
X126395100Y-97973739D01*
X126364013Y-97777464D01*
X126321030Y-97645174D01*
X131364100Y-97645174D01*
X131364100Y-97819025D01*
X131391297Y-97990739D01*
X131391297Y-97990742D01*
X131445018Y-98156078D01*
X131490851Y-98246030D01*
X131523947Y-98310984D01*
X131626135Y-98451633D01*
X131749067Y-98574565D01*
X131889716Y-98676753D01*
X132003628Y-98734794D01*
X132044621Y-98755681D01*
X132209958Y-98809402D01*
X132209959Y-98809402D01*
X132209962Y-98809403D01*
X132381674Y-98836600D01*
X132381675Y-98836600D01*
X132555525Y-98836600D01*
X132555526Y-98836600D01*
X132727238Y-98809403D01*
X132727241Y-98809402D01*
X132727242Y-98809402D01*
X132892578Y-98755681D01*
X132892578Y-98755680D01*
X132892581Y-98755680D01*
X133047484Y-98676753D01*
X133188133Y-98574565D01*
X133311065Y-98451633D01*
X133368283Y-98372878D01*
X133423612Y-98330215D01*
X133493225Y-98324236D01*
X133555020Y-98356842D01*
X133568913Y-98372875D01*
X133626135Y-98451633D01*
X133749067Y-98574565D01*
X133770193Y-98589914D01*
X133844660Y-98644019D01*
X133887326Y-98699349D01*
X133893304Y-98768962D01*
X133889276Y-98782162D01*
X133889632Y-98782270D01*
X133887861Y-98788105D01*
X133857100Y-98942753D01*
X133857100Y-99100446D01*
X133887861Y-99255089D01*
X133887864Y-99255101D01*
X133948202Y-99400772D01*
X133948209Y-99400785D01*
X134035810Y-99531888D01*
X134035813Y-99531892D01*
X134147307Y-99643386D01*
X134147311Y-99643389D01*
X134278414Y-99730990D01*
X134278427Y-99730997D01*
X134424098Y-99791335D01*
X134424103Y-99791337D01*
X134578753Y-99822099D01*
X134578756Y-99822100D01*
X134578758Y-99822100D01*
X134736444Y-99822100D01*
X134736445Y-99822099D01*
X134891097Y-99791337D01*
X135036779Y-99730994D01*
X135167889Y-99643389D01*
X135279389Y-99531889D01*
X135366994Y-99400779D01*
X135427337Y-99255097D01*
X135458100Y-99100442D01*
X135458100Y-98942758D01*
X135458100Y-98942755D01*
X135458099Y-98942753D01*
X135440200Y-98852770D01*
X135427337Y-98788103D01*
X135419409Y-98768962D01*
X135366997Y-98642427D01*
X135366990Y-98642414D01*
X135321806Y-98574792D01*
X135300928Y-98508115D01*
X135319412Y-98440735D01*
X135324572Y-98433042D01*
X135413253Y-98310984D01*
X135492180Y-98156081D01*
X135545903Y-97990738D01*
X135573100Y-97819026D01*
X135573100Y-97645174D01*
X137364100Y-97645174D01*
X137364100Y-97819025D01*
X137391297Y-97990739D01*
X137391297Y-97990742D01*
X137445018Y-98156078D01*
X137490851Y-98246030D01*
X137523947Y-98310984D01*
X137626135Y-98451633D01*
X137749067Y-98574565D01*
X137889716Y-98676753D01*
X138003628Y-98734794D01*
X138044621Y-98755681D01*
X138209958Y-98809402D01*
X138209959Y-98809402D01*
X138209962Y-98809403D01*
X138381674Y-98836600D01*
X138381675Y-98836600D01*
X138555525Y-98836600D01*
X138555526Y-98836600D01*
X138727238Y-98809403D01*
X138727241Y-98809402D01*
X138727242Y-98809402D01*
X138892578Y-98755681D01*
X138892578Y-98755680D01*
X138892581Y-98755680D01*
X139047484Y-98676753D01*
X139188133Y-98574565D01*
X139311065Y-98451633D01*
X139368283Y-98372878D01*
X139423612Y-98330215D01*
X139493225Y-98324236D01*
X139555020Y-98356842D01*
X139568913Y-98372875D01*
X139626135Y-98451633D01*
X139749067Y-98574565D01*
X139889716Y-98676753D01*
X140003628Y-98734794D01*
X140044621Y-98755681D01*
X140209958Y-98809402D01*
X140209959Y-98809402D01*
X140209962Y-98809403D01*
X140381674Y-98836600D01*
X140381675Y-98836600D01*
X140555525Y-98836600D01*
X140555526Y-98836600D01*
X140727238Y-98809403D01*
X140727241Y-98809402D01*
X140727242Y-98809402D01*
X140892578Y-98755681D01*
X140892578Y-98755680D01*
X140892581Y-98755680D01*
X141047484Y-98676753D01*
X141188133Y-98574565D01*
X141311065Y-98451633D01*
X141368283Y-98372878D01*
X141423612Y-98330215D01*
X141493225Y-98324236D01*
X141555020Y-98356842D01*
X141568913Y-98372875D01*
X141626135Y-98451633D01*
X141749067Y-98574565D01*
X141889716Y-98676753D01*
X142003628Y-98734794D01*
X142044621Y-98755681D01*
X142209958Y-98809402D01*
X142209959Y-98809402D01*
X142209962Y-98809403D01*
X142381674Y-98836600D01*
X142381675Y-98836600D01*
X142555525Y-98836600D01*
X142555526Y-98836600D01*
X142727238Y-98809403D01*
X142727241Y-98809402D01*
X142727242Y-98809402D01*
X142892578Y-98755681D01*
X142892578Y-98755680D01*
X142892581Y-98755680D01*
X143047484Y-98676753D01*
X143188133Y-98574565D01*
X143311065Y-98451633D01*
X143413253Y-98310984D01*
X143492180Y-98156081D01*
X143545903Y-97990738D01*
X143573100Y-97819026D01*
X143573100Y-97645174D01*
X143545903Y-97473462D01*
X143545902Y-97473458D01*
X143545902Y-97473457D01*
X143492181Y-97308121D01*
X143413252Y-97153215D01*
X143381941Y-97110119D01*
X143326262Y-97033484D01*
X143302783Y-96967680D01*
X143318608Y-96899626D01*
X143368714Y-96850931D01*
X143426581Y-96836600D01*
X143555525Y-96836600D01*
X143555526Y-96836600D01*
X143727238Y-96809403D01*
X143727241Y-96809402D01*
X143727242Y-96809402D01*
X143892578Y-96755681D01*
X143892578Y-96755680D01*
X143892581Y-96755680D01*
X144047484Y-96676753D01*
X144188133Y-96574565D01*
X144311065Y-96451633D01*
X144368283Y-96372878D01*
X144423612Y-96330215D01*
X144493225Y-96324236D01*
X144555020Y-96356842D01*
X144568913Y-96372875D01*
X144626135Y-96451633D01*
X144749067Y-96574565D01*
X144889716Y-96676753D01*
X145044619Y-96755680D01*
X145044621Y-96755681D01*
X145209958Y-96809402D01*
X145209959Y-96809402D01*
X145209962Y-96809403D01*
X145381674Y-96836600D01*
X145381675Y-96836600D01*
X145510619Y-96836600D01*
X145577658Y-96856285D01*
X145623413Y-96909089D01*
X145633357Y-96978247D01*
X145610937Y-97033484D01*
X145570866Y-97088636D01*
X145523947Y-97153215D01*
X145445018Y-97308121D01*
X145391297Y-97473457D01*
X145391297Y-97473460D01*
X145364100Y-97645174D01*
X145364100Y-97819025D01*
X145391297Y-97990739D01*
X145391297Y-97990742D01*
X145445018Y-98156078D01*
X145490851Y-98246030D01*
X145523947Y-98310984D01*
X145626135Y-98451633D01*
X145749067Y-98574565D01*
X145889716Y-98676753D01*
X146003628Y-98734794D01*
X146044621Y-98755681D01*
X146209958Y-98809402D01*
X146209959Y-98809402D01*
X146209962Y-98809403D01*
X146381674Y-98836600D01*
X146381675Y-98836600D01*
X146555525Y-98836600D01*
X146555526Y-98836600D01*
X146727238Y-98809403D01*
X146727241Y-98809402D01*
X146727242Y-98809402D01*
X146892578Y-98755681D01*
X146892578Y-98755680D01*
X146892581Y-98755680D01*
X147047484Y-98676753D01*
X147188133Y-98574565D01*
X147311065Y-98451633D01*
X147368283Y-98372878D01*
X147423612Y-98330215D01*
X147493225Y-98324236D01*
X147555020Y-98356842D01*
X147568913Y-98372875D01*
X147626135Y-98451633D01*
X147749067Y-98574565D01*
X147889716Y-98676753D01*
X148003628Y-98734794D01*
X148044621Y-98755681D01*
X148209958Y-98809402D01*
X148209959Y-98809402D01*
X148209962Y-98809403D01*
X148381674Y-98836600D01*
X148381675Y-98836600D01*
X148555525Y-98836600D01*
X148555526Y-98836600D01*
X148727238Y-98809403D01*
X148727241Y-98809402D01*
X148727242Y-98809402D01*
X148892578Y-98755681D01*
X148892578Y-98755680D01*
X148892581Y-98755680D01*
X149047484Y-98676753D01*
X149188133Y-98574565D01*
X149311065Y-98451633D01*
X149368283Y-98372878D01*
X149423612Y-98330215D01*
X149493225Y-98324236D01*
X149555020Y-98356842D01*
X149568913Y-98372875D01*
X149626135Y-98451633D01*
X149749067Y-98574565D01*
X149889716Y-98676753D01*
X150003628Y-98734794D01*
X150044621Y-98755681D01*
X150209958Y-98809402D01*
X150209959Y-98809402D01*
X150209962Y-98809403D01*
X150381674Y-98836600D01*
X150381675Y-98836600D01*
X150555525Y-98836600D01*
X150555526Y-98836600D01*
X150727238Y-98809403D01*
X150727241Y-98809402D01*
X150727242Y-98809402D01*
X150892578Y-98755681D01*
X150892578Y-98755680D01*
X150892581Y-98755680D01*
X151047484Y-98676753D01*
X151188133Y-98574565D01*
X151311065Y-98451633D01*
X151368283Y-98372878D01*
X151423612Y-98330215D01*
X151493225Y-98324236D01*
X151555020Y-98356842D01*
X151568913Y-98372875D01*
X151626135Y-98451633D01*
X151749067Y-98574565D01*
X151889716Y-98676753D01*
X152003628Y-98734794D01*
X152044621Y-98755681D01*
X152209958Y-98809402D01*
X152209959Y-98809402D01*
X152209962Y-98809403D01*
X152381674Y-98836600D01*
X152381675Y-98836600D01*
X152555525Y-98836600D01*
X152555526Y-98836600D01*
X152727238Y-98809403D01*
X152727241Y-98809402D01*
X152727242Y-98809402D01*
X152892578Y-98755681D01*
X152892578Y-98755680D01*
X152892581Y-98755680D01*
X153047484Y-98676753D01*
X153188133Y-98574565D01*
X153311065Y-98451633D01*
X153413253Y-98310984D01*
X153492180Y-98156081D01*
X153545903Y-97990738D01*
X153573100Y-97819026D01*
X153573100Y-97645174D01*
X153545903Y-97473462D01*
X153545902Y-97473458D01*
X153545902Y-97473457D01*
X153492181Y-97308121D01*
X153413252Y-97153215D01*
X153381942Y-97110121D01*
X153311065Y-97012567D01*
X153188133Y-96889635D01*
X153047484Y-96787447D01*
X152985138Y-96755680D01*
X152892578Y-96708518D01*
X152727241Y-96654797D01*
X152598454Y-96634399D01*
X152555526Y-96627600D01*
X152426581Y-96627600D01*
X152359542Y-96607915D01*
X152313787Y-96555111D01*
X152303843Y-96485953D01*
X152326262Y-96430715D01*
X152413253Y-96310984D01*
X152492180Y-96156081D01*
X152545903Y-95990738D01*
X152573100Y-95819026D01*
X152573100Y-95645174D01*
X152558914Y-95555608D01*
X152567868Y-95486316D01*
X152612865Y-95432864D01*
X152679616Y-95412224D01*
X152746930Y-95430949D01*
X152769068Y-95448530D01*
X152889950Y-95569412D01*
X152889955Y-95569416D01*
X152994228Y-95645174D01*
X153071475Y-95701297D01*
X153198864Y-95766205D01*
X153271393Y-95803161D01*
X153271395Y-95803161D01*
X153271398Y-95803163D01*
X153385784Y-95840329D01*
X153484794Y-95872500D01*
X153706406Y-95907600D01*
X153706411Y-95907600D01*
X153930794Y-95907600D01*
X154152405Y-95872500D01*
X154223714Y-95849329D01*
X154293555Y-95847335D01*
X154353388Y-95883415D01*
X154384217Y-95946115D01*
X154384506Y-95947863D01*
X154391297Y-95990739D01*
X154391297Y-95990742D01*
X154445018Y-96156078D01*
X154523947Y-96310984D01*
X154626135Y-96451633D01*
X154749067Y-96574565D01*
X154889716Y-96676753D01*
X155044619Y-96755680D01*
X155044621Y-96755681D01*
X155209958Y-96809402D01*
X155209959Y-96809402D01*
X155209962Y-96809403D01*
X155381674Y-96836600D01*
X155381675Y-96836600D01*
X155510619Y-96836600D01*
X155577658Y-96856285D01*
X155623413Y-96909089D01*
X155633357Y-96978247D01*
X155610937Y-97033484D01*
X155570866Y-97088636D01*
X155523947Y-97153215D01*
X155445018Y-97308121D01*
X155391297Y-97473457D01*
X155391297Y-97473460D01*
X155364100Y-97645174D01*
X155364100Y-97819025D01*
X155391297Y-97990739D01*
X155391297Y-97990742D01*
X155445018Y-98156078D01*
X155455862Y-98177361D01*
X155468757Y-98246030D01*
X155442479Y-98310770D01*
X155392829Y-98348215D01*
X155316324Y-98379904D01*
X155316314Y-98379909D01*
X155185211Y-98467510D01*
X155185207Y-98467513D01*
X155073713Y-98579007D01*
X155073710Y-98579011D01*
X154986109Y-98710114D01*
X154986102Y-98710127D01*
X154925764Y-98855798D01*
X154925761Y-98855810D01*
X154895000Y-99010453D01*
X154895000Y-99168146D01*
X154925761Y-99322789D01*
X154925764Y-99322801D01*
X154986102Y-99468472D01*
X154986109Y-99468485D01*
X155073710Y-99599588D01*
X155073713Y-99599592D01*
X155185207Y-99711086D01*
X155185211Y-99711089D01*
X155316314Y-99798690D01*
X155316327Y-99798697D01*
X155461998Y-99859035D01*
X155462003Y-99859037D01*
X155616653Y-99889799D01*
X155616656Y-99889800D01*
X155616658Y-99889800D01*
X155774344Y-99889800D01*
X155774345Y-99889799D01*
X155928997Y-99859037D01*
X156074679Y-99798694D01*
X156205789Y-99711089D01*
X156317289Y-99599589D01*
X156404894Y-99468479D01*
X156465237Y-99322797D01*
X156496000Y-99168142D01*
X156496000Y-99010458D01*
X156489452Y-98977539D01*
X156495679Y-98907948D01*
X156538541Y-98852770D01*
X156591668Y-98830875D01*
X156727238Y-98809403D01*
X156727242Y-98809402D01*
X156892578Y-98755681D01*
X156892578Y-98755680D01*
X156892581Y-98755680D01*
X157047484Y-98676753D01*
X157188133Y-98574565D01*
X157311065Y-98451633D01*
X157413253Y-98310984D01*
X157492180Y-98156081D01*
X157545903Y-97990738D01*
X157573100Y-97819026D01*
X157573100Y-97645174D01*
X157545903Y-97473462D01*
X157545902Y-97473458D01*
X157545902Y-97473457D01*
X157492181Y-97308121D01*
X157413252Y-97153215D01*
X157381941Y-97110119D01*
X157326262Y-97033484D01*
X157302783Y-96967680D01*
X157318608Y-96899626D01*
X157368714Y-96850931D01*
X157426581Y-96836600D01*
X157555525Y-96836600D01*
X157555526Y-96836600D01*
X157727238Y-96809403D01*
X157727241Y-96809402D01*
X157727242Y-96809402D01*
X157892578Y-96755681D01*
X157892578Y-96755680D01*
X157892581Y-96755680D01*
X158047484Y-96676753D01*
X158188133Y-96574565D01*
X158311065Y-96451633D01*
X158368283Y-96372878D01*
X158423612Y-96330215D01*
X158493225Y-96324236D01*
X158555020Y-96356842D01*
X158568913Y-96372875D01*
X158626135Y-96451633D01*
X158749067Y-96574565D01*
X158889716Y-96676753D01*
X159044619Y-96755680D01*
X159044621Y-96755681D01*
X159209958Y-96809402D01*
X159209959Y-96809402D01*
X159209962Y-96809403D01*
X159381674Y-96836600D01*
X159381675Y-96836600D01*
X159510619Y-96836600D01*
X159577658Y-96856285D01*
X159623413Y-96909089D01*
X159633357Y-96978247D01*
X159610937Y-97033484D01*
X159570866Y-97088636D01*
X159523947Y-97153215D01*
X159445018Y-97308121D01*
X159391297Y-97473457D01*
X159391297Y-97473460D01*
X159364100Y-97645174D01*
X159364100Y-97819025D01*
X159391297Y-97990739D01*
X159391297Y-97990742D01*
X159445018Y-98156078D01*
X159490851Y-98246030D01*
X159523947Y-98310984D01*
X159626135Y-98451633D01*
X159749067Y-98574565D01*
X159889716Y-98676753D01*
X160003628Y-98734794D01*
X160044621Y-98755681D01*
X160209958Y-98809402D01*
X160209959Y-98809402D01*
X160209962Y-98809403D01*
X160381674Y-98836600D01*
X160381675Y-98836600D01*
X160555525Y-98836600D01*
X160555526Y-98836600D01*
X160727238Y-98809403D01*
X160727241Y-98809402D01*
X160727242Y-98809402D01*
X160892578Y-98755681D01*
X160892578Y-98755680D01*
X160892581Y-98755680D01*
X161047484Y-98676753D01*
X161188133Y-98574565D01*
X161311065Y-98451633D01*
X161368283Y-98372878D01*
X161423612Y-98330215D01*
X161493225Y-98324236D01*
X161555020Y-98356842D01*
X161568913Y-98372875D01*
X161626135Y-98451633D01*
X161749067Y-98574565D01*
X161889716Y-98676753D01*
X162003628Y-98734794D01*
X162044621Y-98755681D01*
X162209958Y-98809402D01*
X162209959Y-98809402D01*
X162209962Y-98809403D01*
X162381674Y-98836600D01*
X162381675Y-98836600D01*
X162555525Y-98836600D01*
X162555526Y-98836600D01*
X162727238Y-98809403D01*
X162727241Y-98809402D01*
X162727242Y-98809402D01*
X162892578Y-98755681D01*
X162892578Y-98755680D01*
X162892581Y-98755680D01*
X163047484Y-98676753D01*
X163188133Y-98574565D01*
X163311065Y-98451633D01*
X163413253Y-98310984D01*
X163492180Y-98156081D01*
X163545903Y-97990738D01*
X163548595Y-97973739D01*
X170860100Y-97973739D01*
X170860100Y-98172461D01*
X170871752Y-98246030D01*
X170891187Y-98368737D01*
X170952593Y-98557729D01*
X170952594Y-98557732D01*
X171022729Y-98695378D01*
X171042813Y-98734794D01*
X171159619Y-98895564D01*
X171300136Y-99036081D01*
X171460906Y-99152887D01*
X171579432Y-99213279D01*
X171617380Y-99232615D01*
X171668176Y-99280590D01*
X171684971Y-99348411D01*
X171662433Y-99414546D01*
X171617380Y-99453585D01*
X171460905Y-99533313D01*
X171300133Y-99650121D01*
X171159621Y-99790633D01*
X171042813Y-99951405D01*
X170952594Y-100128467D01*
X170952593Y-100128470D01*
X170891187Y-100317462D01*
X170860100Y-100513739D01*
X170860100Y-100712460D01*
X170891187Y-100908737D01*
X170952593Y-101097729D01*
X170952594Y-101097732D01*
X171042813Y-101274794D01*
X171159619Y-101435564D01*
X171300136Y-101576081D01*
X171460906Y-101692887D01*
X171547749Y-101737135D01*
X171637967Y-101783105D01*
X171637970Y-101783106D01*
X171732466Y-101813809D01*
X171826964Y-101844513D01*
X172023239Y-101875600D01*
X172023240Y-101875600D01*
X173491960Y-101875600D01*
X173491961Y-101875600D01*
X173688236Y-101844513D01*
X173877232Y-101783105D01*
X174054294Y-101692887D01*
X174215064Y-101576081D01*
X174355581Y-101435564D01*
X174472387Y-101274794D01*
X174562605Y-101097732D01*
X174624013Y-100908736D01*
X174655100Y-100712461D01*
X174655100Y-100513739D01*
X174624013Y-100317464D01*
X174562605Y-100128468D01*
X174562605Y-100128467D01*
X174472386Y-99951405D01*
X174355581Y-99790636D01*
X174215064Y-99650119D01*
X174054294Y-99533313D01*
X173897818Y-99453584D01*
X173847023Y-99405610D01*
X173830228Y-99337789D01*
X173852765Y-99271654D01*
X173897818Y-99232615D01*
X174054294Y-99152887D01*
X174215064Y-99036081D01*
X174355581Y-98895564D01*
X174472387Y-98734794D01*
X174562605Y-98557732D01*
X174624013Y-98368736D01*
X174655100Y-98172461D01*
X174655100Y-97973739D01*
X174624013Y-97777464D01*
X174562605Y-97588468D01*
X174562605Y-97588467D01*
X174472386Y-97411405D01*
X174397346Y-97308121D01*
X174355581Y-97250636D01*
X174215064Y-97110119D01*
X174054294Y-96993313D01*
X173877232Y-96903094D01*
X173877229Y-96903093D01*
X173688237Y-96841687D01*
X173590098Y-96826143D01*
X173491961Y-96810600D01*
X172023239Y-96810600D01*
X171957814Y-96820962D01*
X171826962Y-96841687D01*
X171637970Y-96903093D01*
X171637967Y-96903094D01*
X171460905Y-96993313D01*
X171300133Y-97110121D01*
X171159621Y-97250633D01*
X171042813Y-97411405D01*
X170952594Y-97588467D01*
X170952593Y-97588470D01*
X170891187Y-97777462D01*
X170891187Y-97777464D01*
X170860100Y-97973739D01*
X163548595Y-97973739D01*
X163573100Y-97819026D01*
X163573100Y-97645174D01*
X163545903Y-97473462D01*
X163545902Y-97473458D01*
X163545902Y-97473457D01*
X163492181Y-97308121D01*
X163413252Y-97153215D01*
X163381941Y-97110119D01*
X163326262Y-97033484D01*
X163302783Y-96967680D01*
X163318608Y-96899626D01*
X163368714Y-96850931D01*
X163426581Y-96836600D01*
X163555525Y-96836600D01*
X163555526Y-96836600D01*
X163727238Y-96809403D01*
X163727241Y-96809402D01*
X163727242Y-96809402D01*
X163892578Y-96755681D01*
X163892578Y-96755680D01*
X163892581Y-96755680D01*
X164047484Y-96676753D01*
X164188133Y-96574565D01*
X164311065Y-96451633D01*
X164413253Y-96310984D01*
X164492180Y-96156081D01*
X164545903Y-95990738D01*
X164573100Y-95819026D01*
X164573100Y-95645174D01*
X164545903Y-95473462D01*
X164545902Y-95473458D01*
X164545902Y-95473457D01*
X164492181Y-95308121D01*
X164451983Y-95229228D01*
X164413253Y-95153216D01*
X164311065Y-95012567D01*
X164188133Y-94889635D01*
X164047484Y-94787447D01*
X163892578Y-94708518D01*
X163727241Y-94654797D01*
X163598454Y-94634399D01*
X163555526Y-94627600D01*
X163381674Y-94627600D01*
X163324436Y-94636665D01*
X163209960Y-94654797D01*
X163209957Y-94654797D01*
X163044621Y-94708518D01*
X162889715Y-94787447D01*
X162850547Y-94815905D01*
X162749067Y-94889635D01*
X162749065Y-94889637D01*
X162749064Y-94889637D01*
X162626136Y-95012565D01*
X162568918Y-95091319D01*
X162513587Y-95133985D01*
X162443974Y-95139963D01*
X162382179Y-95107357D01*
X162368282Y-95091319D01*
X162365148Y-95087005D01*
X162311065Y-95012567D01*
X162188133Y-94889635D01*
X162047484Y-94787447D01*
X161892578Y-94708518D01*
X161727241Y-94654797D01*
X161598454Y-94634399D01*
X161555526Y-94627600D01*
X161381674Y-94627600D01*
X161324436Y-94636665D01*
X161209960Y-94654797D01*
X161209957Y-94654797D01*
X161044621Y-94708518D01*
X160889715Y-94787447D01*
X160850547Y-94815905D01*
X160749067Y-94889635D01*
X160749065Y-94889637D01*
X160749064Y-94889637D01*
X160626136Y-95012565D01*
X160568918Y-95091319D01*
X160513587Y-95133985D01*
X160443974Y-95139963D01*
X160382179Y-95107357D01*
X160368282Y-95091319D01*
X160365148Y-95087005D01*
X160311065Y-95012567D01*
X160188133Y-94889635D01*
X160047484Y-94787447D01*
X159892578Y-94708518D01*
X159727241Y-94654797D01*
X159598454Y-94634399D01*
X159555526Y-94627600D01*
X159381674Y-94627600D01*
X159324436Y-94636665D01*
X159209960Y-94654797D01*
X159209957Y-94654797D01*
X159044621Y-94708518D01*
X158889715Y-94787447D01*
X158850547Y-94815905D01*
X158749067Y-94889635D01*
X158749065Y-94889637D01*
X158749064Y-94889637D01*
X158626136Y-95012565D01*
X158568918Y-95091319D01*
X158513587Y-95133985D01*
X158443974Y-95139963D01*
X158382179Y-95107357D01*
X158368282Y-95091319D01*
X158365148Y-95087005D01*
X158311065Y-95012567D01*
X158188133Y-94889635D01*
X158047484Y-94787447D01*
X157892578Y-94708518D01*
X157727241Y-94654797D01*
X157598454Y-94634399D01*
X157555526Y-94627600D01*
X157381674Y-94627600D01*
X157324436Y-94636665D01*
X157209960Y-94654797D01*
X157209957Y-94654797D01*
X157044621Y-94708518D01*
X156889715Y-94787447D01*
X156850547Y-94815905D01*
X156749067Y-94889635D01*
X156749065Y-94889637D01*
X156749064Y-94889637D01*
X156626136Y-95012565D01*
X156568918Y-95091319D01*
X156513587Y-95133985D01*
X156443974Y-95139963D01*
X156382179Y-95107357D01*
X156368282Y-95091319D01*
X156365148Y-95087005D01*
X156311065Y-95012567D01*
X156188133Y-94889635D01*
X156047484Y-94787447D01*
X155892578Y-94708518D01*
X155727241Y-94654797D01*
X155598454Y-94634399D01*
X155555526Y-94627600D01*
X155381674Y-94627600D01*
X155381672Y-94627600D01*
X155377817Y-94627903D01*
X155364212Y-94625043D01*
X155350453Y-94627022D01*
X155330695Y-94617999D01*
X155309441Y-94613532D01*
X155299542Y-94603772D01*
X155286897Y-94597997D01*
X155275154Y-94579725D01*
X155259689Y-94564476D01*
X155255864Y-94549709D01*
X155249123Y-94539219D01*
X155244100Y-94504284D01*
X155244100Y-94459914D01*
X155263785Y-94392875D01*
X155316589Y-94347120D01*
X155377845Y-94336298D01*
X155381672Y-94336599D01*
X155381674Y-94336600D01*
X155381676Y-94336600D01*
X155555525Y-94336600D01*
X155555526Y-94336600D01*
X155727238Y-94309403D01*
X155727241Y-94309402D01*
X155727242Y-94309402D01*
X155892578Y-94255681D01*
X155892578Y-94255680D01*
X155892581Y-94255680D01*
X156047484Y-94176753D01*
X156188133Y-94074565D01*
X156311065Y-93951633D01*
X156413253Y-93810984D01*
X156492180Y-93656081D01*
X156545903Y-93490738D01*
X156573100Y-93319026D01*
X156573100Y-93145174D01*
X156545903Y-92973462D01*
X156545902Y-92973458D01*
X156545902Y-92973457D01*
X156492181Y-92808121D01*
X156413252Y-92653215D01*
X156326262Y-92533484D01*
X156302783Y-92467680D01*
X156318608Y-92399626D01*
X156368714Y-92350931D01*
X156426581Y-92336600D01*
X156555525Y-92336600D01*
X156555526Y-92336600D01*
X156727238Y-92309403D01*
X156727241Y-92309402D01*
X156727242Y-92309402D01*
X156892578Y-92255681D01*
X156892578Y-92255680D01*
X156892581Y-92255680D01*
X157047484Y-92176753D01*
X157188133Y-92074565D01*
X157311065Y-91951633D01*
X157368283Y-91872878D01*
X157423612Y-91830215D01*
X157493225Y-91824236D01*
X157555020Y-91856842D01*
X157568913Y-91872875D01*
X157626135Y-91951633D01*
X157749067Y-92074565D01*
X157889716Y-92176753D01*
X158044619Y-92255680D01*
X158044621Y-92255681D01*
X158209958Y-92309402D01*
X158209959Y-92309402D01*
X158209962Y-92309403D01*
X158381674Y-92336600D01*
X158381675Y-92336600D01*
X158510619Y-92336600D01*
X158577658Y-92356285D01*
X158623413Y-92409089D01*
X158633357Y-92478247D01*
X158610937Y-92533484D01*
X158570866Y-92588636D01*
X158523947Y-92653215D01*
X158445018Y-92808121D01*
X158391297Y-92973457D01*
X158391297Y-92973460D01*
X158364100Y-93145174D01*
X158364100Y-93319025D01*
X158391297Y-93490739D01*
X158391297Y-93490742D01*
X158445018Y-93656078D01*
X158485216Y-93734971D01*
X158523947Y-93810984D01*
X158626135Y-93951633D01*
X158749067Y-94074565D01*
X158889716Y-94176753D01*
X159044462Y-94255600D01*
X159044621Y-94255681D01*
X159209958Y-94309402D01*
X159209959Y-94309402D01*
X159209962Y-94309403D01*
X159381674Y-94336600D01*
X159381675Y-94336600D01*
X159555525Y-94336600D01*
X159555526Y-94336600D01*
X159727238Y-94309403D01*
X159727241Y-94309402D01*
X159727242Y-94309402D01*
X159892578Y-94255681D01*
X159892578Y-94255680D01*
X159892581Y-94255680D01*
X160047484Y-94176753D01*
X160188133Y-94074565D01*
X160311065Y-93951633D01*
X160368283Y-93872878D01*
X160423612Y-93830215D01*
X160493225Y-93824236D01*
X160555020Y-93856842D01*
X160568913Y-93872875D01*
X160626135Y-93951633D01*
X160749067Y-94074565D01*
X160889716Y-94176753D01*
X161044462Y-94255600D01*
X161044621Y-94255681D01*
X161209958Y-94309402D01*
X161209959Y-94309402D01*
X161209962Y-94309403D01*
X161381674Y-94336600D01*
X161381675Y-94336600D01*
X161555525Y-94336600D01*
X161555526Y-94336600D01*
X161727238Y-94309403D01*
X161727241Y-94309402D01*
X161727242Y-94309402D01*
X161892578Y-94255681D01*
X161892578Y-94255680D01*
X161892581Y-94255680D01*
X162047484Y-94176753D01*
X162188133Y-94074565D01*
X162311065Y-93951633D01*
X162413253Y-93810984D01*
X162492180Y-93656081D01*
X162545903Y-93490738D01*
X162573100Y-93319026D01*
X162573100Y-93145174D01*
X162545903Y-92973462D01*
X162545902Y-92973458D01*
X162545902Y-92973457D01*
X162492181Y-92808121D01*
X162413252Y-92653215D01*
X162326262Y-92533484D01*
X162302783Y-92467680D01*
X162318608Y-92399626D01*
X162368714Y-92350931D01*
X162426581Y-92336600D01*
X162555525Y-92336600D01*
X162555526Y-92336600D01*
X162727238Y-92309403D01*
X162727241Y-92309402D01*
X162727242Y-92309402D01*
X162892578Y-92255681D01*
X162892578Y-92255680D01*
X162892581Y-92255680D01*
X163047484Y-92176753D01*
X163188133Y-92074565D01*
X163311065Y-91951633D01*
X163368283Y-91872878D01*
X163423612Y-91830215D01*
X163493225Y-91824236D01*
X163555020Y-91856842D01*
X163568913Y-91872875D01*
X163626135Y-91951633D01*
X163749067Y-92074565D01*
X163889716Y-92176753D01*
X164044619Y-92255680D01*
X164044621Y-92255681D01*
X164209958Y-92309402D01*
X164209959Y-92309402D01*
X164209962Y-92309403D01*
X164381674Y-92336600D01*
X164381675Y-92336600D01*
X164510619Y-92336600D01*
X164577658Y-92356285D01*
X164623413Y-92409089D01*
X164633357Y-92478247D01*
X164610937Y-92533484D01*
X164570866Y-92588636D01*
X164523947Y-92653215D01*
X164445018Y-92808121D01*
X164391297Y-92973457D01*
X164391297Y-92973460D01*
X164364100Y-93145174D01*
X164364100Y-93319025D01*
X164391297Y-93490739D01*
X164391297Y-93490742D01*
X164445018Y-93656078D01*
X164485216Y-93734971D01*
X164523947Y-93810984D01*
X164626135Y-93951633D01*
X164749067Y-94074565D01*
X164889716Y-94176753D01*
X165044462Y-94255600D01*
X165044621Y-94255681D01*
X165209958Y-94309402D01*
X165209959Y-94309402D01*
X165209962Y-94309403D01*
X165381674Y-94336600D01*
X165381675Y-94336600D01*
X165555525Y-94336600D01*
X165555526Y-94336600D01*
X165727238Y-94309403D01*
X165727241Y-94309402D01*
X165727242Y-94309402D01*
X165892578Y-94255681D01*
X165892578Y-94255680D01*
X165892581Y-94255680D01*
X166047484Y-94176753D01*
X166188133Y-94074565D01*
X166311065Y-93951633D01*
X166413253Y-93810984D01*
X166492180Y-93656081D01*
X166545903Y-93490738D01*
X166573100Y-93319026D01*
X166573100Y-93145174D01*
X166545903Y-92973462D01*
X166545902Y-92973458D01*
X166545902Y-92973457D01*
X166492181Y-92808121D01*
X166413252Y-92653215D01*
X166311065Y-92512567D01*
X166188133Y-92389635D01*
X166047484Y-92287447D01*
X165985138Y-92255680D01*
X165892578Y-92208518D01*
X165727241Y-92154797D01*
X165598454Y-92134399D01*
X165555526Y-92127600D01*
X165426581Y-92127600D01*
X165359542Y-92107915D01*
X165313787Y-92055111D01*
X165303843Y-91985953D01*
X165326262Y-91930715D01*
X165413253Y-91810984D01*
X165492180Y-91656081D01*
X165532208Y-91532887D01*
X165545902Y-91490742D01*
X165545902Y-91490741D01*
X165545903Y-91490738D01*
X165573100Y-91319026D01*
X165573100Y-91145174D01*
X165545903Y-90973462D01*
X165545902Y-90973458D01*
X165545902Y-90973457D01*
X165492181Y-90808121D01*
X165413252Y-90653215D01*
X165403624Y-90639963D01*
X165311065Y-90512567D01*
X165188133Y-90389635D01*
X165138727Y-90353739D01*
X170860100Y-90353739D01*
X170860100Y-90552460D01*
X170891187Y-90748737D01*
X170952593Y-90937729D01*
X170952594Y-90937732D01*
X170970799Y-90973460D01*
X171042813Y-91114794D01*
X171159619Y-91275564D01*
X171300136Y-91416081D01*
X171460906Y-91532887D01*
X171579432Y-91593279D01*
X171617380Y-91612615D01*
X171668176Y-91660590D01*
X171684971Y-91728411D01*
X171662433Y-91794546D01*
X171617380Y-91833585D01*
X171460905Y-91913313D01*
X171300133Y-92030121D01*
X171159621Y-92170633D01*
X171042813Y-92331405D01*
X170952594Y-92508467D01*
X170952593Y-92508470D01*
X170891187Y-92697462D01*
X170860100Y-92893739D01*
X170860100Y-93092460D01*
X170891187Y-93288737D01*
X170952593Y-93477729D01*
X170952594Y-93477732D01*
X171042813Y-93654794D01*
X171159619Y-93815564D01*
X171300136Y-93956081D01*
X171460906Y-94072887D01*
X171547749Y-94117135D01*
X171637967Y-94163105D01*
X171637970Y-94163106D01*
X171732466Y-94193809D01*
X171826964Y-94224513D01*
X172023239Y-94255600D01*
X172023240Y-94255600D01*
X173491960Y-94255600D01*
X173491961Y-94255600D01*
X173688236Y-94224513D01*
X173877232Y-94163105D01*
X174054294Y-94072887D01*
X174215064Y-93956081D01*
X174355581Y-93815564D01*
X174472387Y-93654794D01*
X174562605Y-93477732D01*
X174624013Y-93288736D01*
X174655100Y-93092461D01*
X174655100Y-92893739D01*
X174624013Y-92697464D01*
X174563937Y-92512567D01*
X174562606Y-92508470D01*
X174562605Y-92508467D01*
X174502056Y-92389635D01*
X174472387Y-92331406D01*
X174355581Y-92170636D01*
X174215064Y-92030119D01*
X174054294Y-91913313D01*
X173897818Y-91833584D01*
X173847023Y-91785610D01*
X173830228Y-91717789D01*
X173852765Y-91651654D01*
X173897818Y-91612615D01*
X174054294Y-91532887D01*
X174215064Y-91416081D01*
X174355581Y-91275564D01*
X174472387Y-91114794D01*
X174562605Y-90937732D01*
X174624013Y-90748736D01*
X174655100Y-90552461D01*
X174655100Y-90353739D01*
X174624013Y-90157464D01*
X174562605Y-89968468D01*
X174562605Y-89968467D01*
X174472386Y-89791405D01*
X174355581Y-89630636D01*
X174215064Y-89490119D01*
X174054294Y-89373313D01*
X173877232Y-89283094D01*
X173877229Y-89283093D01*
X173688237Y-89221687D01*
X173590098Y-89206143D01*
X173491961Y-89190600D01*
X172023239Y-89190600D01*
X171957814Y-89200962D01*
X171826962Y-89221687D01*
X171637970Y-89283093D01*
X171637967Y-89283094D01*
X171460905Y-89373313D01*
X171300133Y-89490121D01*
X171159621Y-89630633D01*
X171042813Y-89791405D01*
X170952594Y-89968467D01*
X170952593Y-89968470D01*
X170891187Y-90157462D01*
X170860100Y-90353739D01*
X165138727Y-90353739D01*
X165047484Y-90287447D01*
X164892578Y-90208518D01*
X164727241Y-90154797D01*
X164598454Y-90134399D01*
X164555526Y-90127600D01*
X164381674Y-90127600D01*
X164324436Y-90136665D01*
X164209960Y-90154797D01*
X164209957Y-90154797D01*
X164044621Y-90208518D01*
X163889715Y-90287447D01*
X163809469Y-90345749D01*
X163749067Y-90389635D01*
X163749065Y-90389637D01*
X163749064Y-90389637D01*
X163626136Y-90512565D01*
X163568918Y-90591319D01*
X163513587Y-90633985D01*
X163443974Y-90639963D01*
X163382179Y-90607357D01*
X163368282Y-90591319D01*
X163340049Y-90552460D01*
X163311065Y-90512567D01*
X163188133Y-90389635D01*
X163047484Y-90287447D01*
X162892578Y-90208518D01*
X162727241Y-90154797D01*
X162598454Y-90134399D01*
X162555526Y-90127600D01*
X162381674Y-90127600D01*
X162324436Y-90136665D01*
X162209960Y-90154797D01*
X162209957Y-90154797D01*
X162044621Y-90208518D01*
X161889715Y-90287447D01*
X161809469Y-90345749D01*
X161749067Y-90389635D01*
X161749065Y-90389637D01*
X161749064Y-90389637D01*
X161626136Y-90512565D01*
X161568918Y-90591319D01*
X161513587Y-90633985D01*
X161443974Y-90639963D01*
X161382179Y-90607357D01*
X161368282Y-90591319D01*
X161340049Y-90552460D01*
X161311065Y-90512567D01*
X161188133Y-90389635D01*
X161047484Y-90287447D01*
X160892578Y-90208518D01*
X160727241Y-90154797D01*
X160598454Y-90134399D01*
X160555526Y-90127600D01*
X160381674Y-90127600D01*
X160324436Y-90136665D01*
X160209960Y-90154797D01*
X160209957Y-90154797D01*
X160044621Y-90208518D01*
X159889715Y-90287447D01*
X159809469Y-90345749D01*
X159749067Y-90389635D01*
X159749065Y-90389637D01*
X159749064Y-90389637D01*
X159626136Y-90512565D01*
X159568918Y-90591319D01*
X159513587Y-90633985D01*
X159443974Y-90639963D01*
X159382179Y-90607357D01*
X159368282Y-90591319D01*
X159340049Y-90552460D01*
X159311065Y-90512567D01*
X159188133Y-90389635D01*
X159047484Y-90287447D01*
X158892578Y-90208518D01*
X158727241Y-90154797D01*
X158598454Y-90134399D01*
X158555526Y-90127600D01*
X158381674Y-90127600D01*
X158324436Y-90136665D01*
X158209960Y-90154797D01*
X158209957Y-90154797D01*
X158044621Y-90208518D01*
X157889715Y-90287447D01*
X157809469Y-90345749D01*
X157749067Y-90389635D01*
X157749065Y-90389637D01*
X157749064Y-90389637D01*
X157626136Y-90512565D01*
X157568918Y-90591319D01*
X157513587Y-90633985D01*
X157443974Y-90639963D01*
X157382179Y-90607357D01*
X157368282Y-90591319D01*
X157340049Y-90552460D01*
X157311065Y-90512567D01*
X157188133Y-90389635D01*
X157047484Y-90287447D01*
X156892578Y-90208518D01*
X156727241Y-90154797D01*
X156598454Y-90134399D01*
X156555526Y-90127600D01*
X156381674Y-90127600D01*
X156324436Y-90136665D01*
X156209960Y-90154797D01*
X156209957Y-90154797D01*
X156044621Y-90208518D01*
X155889715Y-90287447D01*
X155809469Y-90345749D01*
X155749067Y-90389635D01*
X155749065Y-90389637D01*
X155749064Y-90389637D01*
X155626137Y-90512564D01*
X155626137Y-90512565D01*
X155626135Y-90512567D01*
X155597151Y-90552460D01*
X155523947Y-90653215D01*
X155445018Y-90808121D01*
X155391297Y-90973457D01*
X155391297Y-90973460D01*
X155364100Y-91145174D01*
X155364100Y-91319025D01*
X155391297Y-91490739D01*
X155391297Y-91490742D01*
X155445018Y-91656078D01*
X155475346Y-91715600D01*
X155523947Y-91810984D01*
X155610937Y-91930715D01*
X155634417Y-91996520D01*
X155618592Y-92064574D01*
X155568486Y-92113269D01*
X155510619Y-92127600D01*
X155381674Y-92127600D01*
X155324436Y-92136665D01*
X155209960Y-92154797D01*
X155209957Y-92154797D01*
X155044621Y-92208518D01*
X154889715Y-92287447D01*
X154859496Y-92309403D01*
X154749067Y-92389635D01*
X154749065Y-92389637D01*
X154749064Y-92389637D01*
X154626137Y-92512564D01*
X154626137Y-92512565D01*
X154626135Y-92512567D01*
X154582249Y-92572969D01*
X154523947Y-92653215D01*
X154445018Y-92808121D01*
X154391297Y-92973457D01*
X154391297Y-92973458D01*
X154384506Y-93016337D01*
X154354576Y-93079471D01*
X154295265Y-93116402D01*
X154225402Y-93115404D01*
X154223716Y-93114869D01*
X154152407Y-93091700D01*
X154152408Y-93091700D01*
X153930794Y-93056600D01*
X153930789Y-93056600D01*
X153706411Y-93056600D01*
X153706406Y-93056600D01*
X153484794Y-93091699D01*
X153271393Y-93161038D01*
X153071471Y-93262905D01*
X152889956Y-93394782D01*
X152769068Y-93515670D01*
X152707745Y-93549154D01*
X152638053Y-93544170D01*
X152582120Y-93502298D01*
X152557703Y-93436834D01*
X152558914Y-93408590D01*
X152573100Y-93319024D01*
X152573100Y-93145174D01*
X152559071Y-93056600D01*
X152545903Y-92973462D01*
X152545902Y-92973458D01*
X152545902Y-92973457D01*
X152492181Y-92808121D01*
X152413252Y-92653215D01*
X152326262Y-92533484D01*
X152302783Y-92467680D01*
X152318608Y-92399626D01*
X152368714Y-92350931D01*
X152426581Y-92336600D01*
X152555525Y-92336600D01*
X152555526Y-92336600D01*
X152727238Y-92309403D01*
X152727241Y-92309402D01*
X152727242Y-92309402D01*
X152892578Y-92255681D01*
X152892578Y-92255680D01*
X152892581Y-92255680D01*
X153047484Y-92176753D01*
X153188133Y-92074565D01*
X153311065Y-91951633D01*
X153413253Y-91810984D01*
X153492180Y-91656081D01*
X153532208Y-91532887D01*
X153545902Y-91490742D01*
X153545902Y-91490741D01*
X153545903Y-91490738D01*
X153573100Y-91319026D01*
X153573100Y-91145174D01*
X153545903Y-90973462D01*
X153545902Y-90973458D01*
X153545902Y-90973457D01*
X153492181Y-90808121D01*
X153413252Y-90653215D01*
X153403624Y-90639963D01*
X153311065Y-90512567D01*
X153188133Y-90389635D01*
X153047484Y-90287447D01*
X152892578Y-90208518D01*
X152727241Y-90154797D01*
X152598454Y-90134399D01*
X152555526Y-90127600D01*
X152381674Y-90127600D01*
X152324436Y-90136665D01*
X152209960Y-90154797D01*
X152209957Y-90154797D01*
X152044621Y-90208518D01*
X151889715Y-90287447D01*
X151809469Y-90345749D01*
X151749067Y-90389635D01*
X151749065Y-90389637D01*
X151749064Y-90389637D01*
X151626136Y-90512565D01*
X151568918Y-90591319D01*
X151513587Y-90633985D01*
X151443974Y-90639963D01*
X151382179Y-90607357D01*
X151368282Y-90591319D01*
X151340049Y-90552460D01*
X151311065Y-90512567D01*
X151188133Y-90389635D01*
X151047484Y-90287447D01*
X150892578Y-90208518D01*
X150727241Y-90154797D01*
X150598454Y-90134399D01*
X150555526Y-90127600D01*
X150381674Y-90127600D01*
X150324436Y-90136665D01*
X150209960Y-90154797D01*
X150209957Y-90154797D01*
X150044621Y-90208518D01*
X149889715Y-90287447D01*
X149809469Y-90345749D01*
X149749067Y-90389635D01*
X149749065Y-90389637D01*
X149749064Y-90389637D01*
X149626136Y-90512565D01*
X149568918Y-90591319D01*
X149513587Y-90633985D01*
X149443974Y-90639963D01*
X149382179Y-90607357D01*
X149368282Y-90591319D01*
X149340049Y-90552460D01*
X149311065Y-90512567D01*
X149188133Y-90389635D01*
X149047484Y-90287447D01*
X148892578Y-90208518D01*
X148727241Y-90154797D01*
X148598454Y-90134399D01*
X148555526Y-90127600D01*
X148381674Y-90127600D01*
X148324436Y-90136665D01*
X148209960Y-90154797D01*
X148209957Y-90154797D01*
X148044621Y-90208518D01*
X147889715Y-90287447D01*
X147809469Y-90345749D01*
X147749067Y-90389635D01*
X147749065Y-90389637D01*
X147749064Y-90389637D01*
X147626136Y-90512565D01*
X147568918Y-90591319D01*
X147513587Y-90633985D01*
X147443974Y-90639963D01*
X147382179Y-90607357D01*
X147368282Y-90591319D01*
X147340049Y-90552460D01*
X147311065Y-90512567D01*
X147188133Y-90389635D01*
X147047484Y-90287447D01*
X146892578Y-90208518D01*
X146727241Y-90154797D01*
X146598454Y-90134399D01*
X146555526Y-90127600D01*
X146381674Y-90127600D01*
X146324436Y-90136665D01*
X146209960Y-90154797D01*
X146209957Y-90154797D01*
X146044621Y-90208518D01*
X145889715Y-90287447D01*
X145809469Y-90345749D01*
X145749067Y-90389635D01*
X145749065Y-90389637D01*
X145749064Y-90389637D01*
X145626136Y-90512565D01*
X145568918Y-90591319D01*
X145513587Y-90633985D01*
X145443974Y-90639963D01*
X145382179Y-90607357D01*
X145368282Y-90591319D01*
X145340049Y-90552460D01*
X145311065Y-90512567D01*
X145188133Y-90389635D01*
X145047484Y-90287447D01*
X144892578Y-90208518D01*
X144727241Y-90154797D01*
X144598454Y-90134399D01*
X144555526Y-90127600D01*
X144381674Y-90127600D01*
X144324436Y-90136665D01*
X144209960Y-90154797D01*
X144209957Y-90154797D01*
X144044621Y-90208518D01*
X143889715Y-90287447D01*
X143809469Y-90345749D01*
X143749067Y-90389635D01*
X143749065Y-90389637D01*
X143749064Y-90389637D01*
X143626137Y-90512564D01*
X143626137Y-90512565D01*
X143626135Y-90512567D01*
X143597151Y-90552460D01*
X143523947Y-90653215D01*
X143445018Y-90808121D01*
X143391297Y-90973457D01*
X143391297Y-90973460D01*
X143364100Y-91145174D01*
X143364100Y-91319025D01*
X143391297Y-91490739D01*
X143391297Y-91490742D01*
X143445018Y-91656078D01*
X143475346Y-91715600D01*
X143523947Y-91810984D01*
X143626135Y-91951633D01*
X143749067Y-92074565D01*
X143889716Y-92176753D01*
X144044619Y-92255680D01*
X144044621Y-92255681D01*
X144209958Y-92309402D01*
X144209959Y-92309402D01*
X144209962Y-92309403D01*
X144381674Y-92336600D01*
X144381675Y-92336600D01*
X144510619Y-92336600D01*
X144577658Y-92356285D01*
X144623413Y-92409089D01*
X144633357Y-92478247D01*
X144610937Y-92533484D01*
X144570866Y-92588636D01*
X144523947Y-92653215D01*
X144445018Y-92808121D01*
X144391297Y-92973457D01*
X144391297Y-92973460D01*
X144364100Y-93145174D01*
X144364100Y-93319025D01*
X144391297Y-93490739D01*
X144391297Y-93490742D01*
X144445018Y-93656078D01*
X144485216Y-93734971D01*
X144523947Y-93810984D01*
X144626135Y-93951633D01*
X144749067Y-94074565D01*
X144889716Y-94176753D01*
X145044462Y-94255600D01*
X145044621Y-94255681D01*
X145209958Y-94309402D01*
X145209959Y-94309402D01*
X145209962Y-94309403D01*
X145381674Y-94336600D01*
X145381675Y-94336600D01*
X145555525Y-94336600D01*
X145555526Y-94336600D01*
X145727238Y-94309403D01*
X145727241Y-94309402D01*
X145727242Y-94309402D01*
X145892578Y-94255681D01*
X145892578Y-94255680D01*
X145892581Y-94255680D01*
X146047484Y-94176753D01*
X146188133Y-94074565D01*
X146311065Y-93951633D01*
X146368283Y-93872878D01*
X146423612Y-93830215D01*
X146493225Y-93824236D01*
X146555020Y-93856842D01*
X146568913Y-93872875D01*
X146626135Y-93951633D01*
X146749067Y-94074565D01*
X146889716Y-94176753D01*
X147044462Y-94255600D01*
X147044621Y-94255681D01*
X147209958Y-94309402D01*
X147209959Y-94309402D01*
X147209962Y-94309403D01*
X147381674Y-94336600D01*
X147381675Y-94336600D01*
X147555525Y-94336600D01*
X147555526Y-94336600D01*
X147727238Y-94309403D01*
X147727241Y-94309402D01*
X147727242Y-94309402D01*
X147892578Y-94255681D01*
X147892578Y-94255680D01*
X147892581Y-94255680D01*
X148047484Y-94176753D01*
X148188133Y-94074565D01*
X148311065Y-93951633D01*
X148413253Y-93810984D01*
X148492180Y-93656081D01*
X148545903Y-93490738D01*
X148573100Y-93319026D01*
X148573100Y-93145174D01*
X148545903Y-92973462D01*
X148545902Y-92973458D01*
X148545902Y-92973457D01*
X148492181Y-92808121D01*
X148413252Y-92653215D01*
X148326262Y-92533484D01*
X148302783Y-92467680D01*
X148318608Y-92399626D01*
X148368714Y-92350931D01*
X148426581Y-92336600D01*
X148555525Y-92336600D01*
X148555526Y-92336600D01*
X148727238Y-92309403D01*
X148727241Y-92309402D01*
X148727242Y-92309402D01*
X148892578Y-92255681D01*
X148892578Y-92255680D01*
X148892581Y-92255680D01*
X149047484Y-92176753D01*
X149188133Y-92074565D01*
X149311065Y-91951633D01*
X149368283Y-91872878D01*
X149423612Y-91830215D01*
X149493225Y-91824236D01*
X149555020Y-91856842D01*
X149568913Y-91872875D01*
X149626135Y-91951633D01*
X149749067Y-92074565D01*
X149889716Y-92176753D01*
X150044619Y-92255680D01*
X150044621Y-92255681D01*
X150209958Y-92309402D01*
X150209959Y-92309402D01*
X150209962Y-92309403D01*
X150381674Y-92336600D01*
X150381675Y-92336600D01*
X150510619Y-92336600D01*
X150577658Y-92356285D01*
X150623413Y-92409089D01*
X150633357Y-92478247D01*
X150610937Y-92533484D01*
X150570866Y-92588636D01*
X150523947Y-92653215D01*
X150445018Y-92808121D01*
X150391297Y-92973457D01*
X150391297Y-92973460D01*
X150364100Y-93145174D01*
X150364100Y-93319025D01*
X150391297Y-93490739D01*
X150391297Y-93490742D01*
X150445018Y-93656078D01*
X150485216Y-93734971D01*
X150523947Y-93810984D01*
X150626135Y-93951633D01*
X150749067Y-94074565D01*
X150889716Y-94176753D01*
X151044462Y-94255600D01*
X151044621Y-94255681D01*
X151209958Y-94309402D01*
X151209959Y-94309402D01*
X151209962Y-94309403D01*
X151381674Y-94336600D01*
X151381675Y-94336600D01*
X151555525Y-94336600D01*
X151555526Y-94336600D01*
X151727238Y-94309403D01*
X151727241Y-94309402D01*
X151727242Y-94309402D01*
X151892578Y-94255681D01*
X151892578Y-94255680D01*
X151892581Y-94255680D01*
X152047484Y-94176753D01*
X152188133Y-94074565D01*
X152217401Y-94045296D01*
X152278720Y-94011813D01*
X152348412Y-94016797D01*
X152404346Y-94058667D01*
X152428764Y-94124131D01*
X152427553Y-94152377D01*
X152393100Y-94369905D01*
X152393100Y-94594294D01*
X152427553Y-94811822D01*
X152418598Y-94881116D01*
X152373602Y-94934568D01*
X152306851Y-94955207D01*
X152239537Y-94936482D01*
X152217399Y-94918901D01*
X152188135Y-94889637D01*
X152188133Y-94889635D01*
X152047484Y-94787447D01*
X151892578Y-94708518D01*
X151727241Y-94654797D01*
X151598454Y-94634399D01*
X151555526Y-94627600D01*
X151381674Y-94627600D01*
X151324436Y-94636665D01*
X151209960Y-94654797D01*
X151209957Y-94654797D01*
X151044621Y-94708518D01*
X150889715Y-94787447D01*
X150850547Y-94815905D01*
X150749067Y-94889635D01*
X150749065Y-94889637D01*
X150749064Y-94889637D01*
X150626136Y-95012565D01*
X150568918Y-95091319D01*
X150513587Y-95133985D01*
X150443974Y-95139963D01*
X150382179Y-95107357D01*
X150368282Y-95091319D01*
X150365148Y-95087005D01*
X150311065Y-95012567D01*
X150188133Y-94889635D01*
X150047484Y-94787447D01*
X149892578Y-94708518D01*
X149727241Y-94654797D01*
X149598454Y-94634399D01*
X149555526Y-94627600D01*
X149381674Y-94627600D01*
X149324436Y-94636665D01*
X149209960Y-94654797D01*
X149209957Y-94654797D01*
X149044621Y-94708518D01*
X148889715Y-94787447D01*
X148850547Y-94815905D01*
X148749067Y-94889635D01*
X148749065Y-94889637D01*
X148749064Y-94889637D01*
X148626136Y-95012565D01*
X148568918Y-95091319D01*
X148513587Y-95133985D01*
X148443974Y-95139963D01*
X148382179Y-95107357D01*
X148368282Y-95091319D01*
X148365148Y-95087005D01*
X148311065Y-95012567D01*
X148188133Y-94889635D01*
X148047484Y-94787447D01*
X147892578Y-94708518D01*
X147727241Y-94654797D01*
X147598454Y-94634399D01*
X147555526Y-94627600D01*
X147381674Y-94627600D01*
X147324436Y-94636665D01*
X147209960Y-94654797D01*
X147209957Y-94654797D01*
X147044621Y-94708518D01*
X146889715Y-94787447D01*
X146850547Y-94815905D01*
X146749067Y-94889635D01*
X146749065Y-94889637D01*
X146749064Y-94889637D01*
X146626136Y-95012565D01*
X146568918Y-95091319D01*
X146513587Y-95133985D01*
X146443974Y-95139963D01*
X146382179Y-95107357D01*
X146368282Y-95091319D01*
X146365148Y-95087005D01*
X146311065Y-95012567D01*
X146188133Y-94889635D01*
X146047484Y-94787447D01*
X145892578Y-94708518D01*
X145727241Y-94654797D01*
X145598454Y-94634399D01*
X145555526Y-94627600D01*
X145381674Y-94627600D01*
X145324436Y-94636665D01*
X145209960Y-94654797D01*
X145209957Y-94654797D01*
X145044621Y-94708518D01*
X144889715Y-94787447D01*
X144850547Y-94815905D01*
X144749067Y-94889635D01*
X144749065Y-94889637D01*
X144749064Y-94889637D01*
X144626136Y-95012565D01*
X144568918Y-95091319D01*
X144513587Y-95133985D01*
X144443974Y-95139963D01*
X144382179Y-95107357D01*
X144368282Y-95091319D01*
X144365148Y-95087005D01*
X144311065Y-95012567D01*
X144188133Y-94889635D01*
X144047484Y-94787447D01*
X143892578Y-94708518D01*
X143727241Y-94654797D01*
X143598454Y-94634399D01*
X143555526Y-94627600D01*
X143381674Y-94627600D01*
X143324436Y-94636665D01*
X143209960Y-94654797D01*
X143209957Y-94654797D01*
X143044621Y-94708518D01*
X142889715Y-94787447D01*
X142850547Y-94815905D01*
X142749067Y-94889635D01*
X142749065Y-94889637D01*
X142749064Y-94889637D01*
X142626136Y-95012565D01*
X142568918Y-95091319D01*
X142513587Y-95133985D01*
X142443974Y-95139963D01*
X142382179Y-95107357D01*
X142368282Y-95091319D01*
X142365148Y-95087005D01*
X142311065Y-95012567D01*
X142188133Y-94889635D01*
X142047484Y-94787447D01*
X141892578Y-94708518D01*
X141727241Y-94654797D01*
X141598454Y-94634399D01*
X141555526Y-94627600D01*
X141381674Y-94627600D01*
X141324436Y-94636665D01*
X141209960Y-94654797D01*
X141209957Y-94654797D01*
X141044621Y-94708518D01*
X140889715Y-94787447D01*
X140850547Y-94815905D01*
X140749067Y-94889635D01*
X140749065Y-94889637D01*
X140749064Y-94889637D01*
X140626136Y-95012565D01*
X140568918Y-95091319D01*
X140513587Y-95133985D01*
X140443974Y-95139963D01*
X140382179Y-95107357D01*
X140368282Y-95091319D01*
X140365148Y-95087005D01*
X140311065Y-95012567D01*
X140188133Y-94889635D01*
X140047484Y-94787447D01*
X139892578Y-94708518D01*
X139727241Y-94654797D01*
X139598454Y-94634399D01*
X139555526Y-94627600D01*
X139381674Y-94627600D01*
X139324436Y-94636665D01*
X139209960Y-94654797D01*
X139209957Y-94654797D01*
X139044621Y-94708518D01*
X138889715Y-94787447D01*
X138850547Y-94815905D01*
X138749067Y-94889635D01*
X138749065Y-94889637D01*
X138749064Y-94889637D01*
X138626137Y-95012564D01*
X138626137Y-95012565D01*
X138626135Y-95012567D01*
X138582249Y-95072969D01*
X138523947Y-95153215D01*
X138445018Y-95308121D01*
X138391297Y-95473457D01*
X138391297Y-95473460D01*
X138364100Y-95645174D01*
X138364100Y-95819025D01*
X138391297Y-95990739D01*
X138391297Y-95990742D01*
X138445018Y-96156078D01*
X138523947Y-96310984D01*
X138610937Y-96430715D01*
X138634417Y-96496520D01*
X138618592Y-96564574D01*
X138568486Y-96613269D01*
X138510619Y-96627600D01*
X138381674Y-96627600D01*
X138324436Y-96636665D01*
X138209960Y-96654797D01*
X138209957Y-96654797D01*
X138044621Y-96708518D01*
X137889715Y-96787447D01*
X137822063Y-96836600D01*
X137749067Y-96889635D01*
X137749065Y-96889637D01*
X137749064Y-96889637D01*
X137626137Y-97012564D01*
X137626137Y-97012565D01*
X137626135Y-97012567D01*
X137582249Y-97072969D01*
X137523947Y-97153215D01*
X137445018Y-97308121D01*
X137391297Y-97473457D01*
X137391297Y-97473460D01*
X137364100Y-97645174D01*
X135573100Y-97645174D01*
X135545903Y-97473462D01*
X135545902Y-97473458D01*
X135545902Y-97473457D01*
X135492181Y-97308121D01*
X135413252Y-97153215D01*
X135381941Y-97110119D01*
X135326262Y-97033484D01*
X135302783Y-96967680D01*
X135318608Y-96899626D01*
X135368714Y-96850931D01*
X135426581Y-96836600D01*
X135555525Y-96836600D01*
X135555526Y-96836600D01*
X135727238Y-96809403D01*
X135727241Y-96809402D01*
X135727242Y-96809402D01*
X135892578Y-96755681D01*
X135892578Y-96755680D01*
X135892581Y-96755680D01*
X136047484Y-96676753D01*
X136188133Y-96574565D01*
X136311065Y-96451633D01*
X136413253Y-96310984D01*
X136492180Y-96156081D01*
X136545903Y-95990738D01*
X136573100Y-95819026D01*
X136573100Y-95645174D01*
X136545903Y-95473462D01*
X136545902Y-95473458D01*
X136545902Y-95473457D01*
X136492181Y-95308121D01*
X136451983Y-95229228D01*
X136413253Y-95153216D01*
X136311065Y-95012567D01*
X136188133Y-94889635D01*
X136047484Y-94787447D01*
X135892578Y-94708518D01*
X135727241Y-94654797D01*
X135598454Y-94634399D01*
X135555526Y-94627600D01*
X135381674Y-94627600D01*
X135324436Y-94636665D01*
X135209960Y-94654797D01*
X135209957Y-94654797D01*
X135044621Y-94708518D01*
X134889715Y-94787447D01*
X134850547Y-94815905D01*
X134749067Y-94889635D01*
X134749065Y-94889637D01*
X134749064Y-94889637D01*
X134626136Y-95012565D01*
X134568918Y-95091319D01*
X134513587Y-95133985D01*
X134443974Y-95139963D01*
X134382179Y-95107357D01*
X134368282Y-95091319D01*
X134365148Y-95087005D01*
X134311065Y-95012567D01*
X134188133Y-94889635D01*
X134047484Y-94787447D01*
X133892578Y-94708518D01*
X133727241Y-94654797D01*
X133598454Y-94634399D01*
X133555526Y-94627600D01*
X133381674Y-94627600D01*
X133324436Y-94636665D01*
X133209960Y-94654797D01*
X133209957Y-94654797D01*
X133044621Y-94708518D01*
X132889715Y-94787447D01*
X132850547Y-94815905D01*
X132749067Y-94889635D01*
X132749065Y-94889637D01*
X132749064Y-94889637D01*
X132626137Y-95012564D01*
X132626137Y-95012565D01*
X132626135Y-95012567D01*
X132582249Y-95072969D01*
X132523947Y-95153215D01*
X132445018Y-95308121D01*
X132391297Y-95473457D01*
X132391297Y-95473460D01*
X132364100Y-95645174D01*
X132364100Y-95819025D01*
X132391297Y-95990739D01*
X132391297Y-95990742D01*
X132445018Y-96156078D01*
X132523947Y-96310984D01*
X132610937Y-96430715D01*
X132634417Y-96496520D01*
X132618592Y-96564574D01*
X132568486Y-96613269D01*
X132510619Y-96627600D01*
X132381674Y-96627600D01*
X132324436Y-96636665D01*
X132209960Y-96654797D01*
X132209957Y-96654797D01*
X132044621Y-96708518D01*
X131889715Y-96787447D01*
X131822063Y-96836600D01*
X131749067Y-96889635D01*
X131749065Y-96889637D01*
X131749064Y-96889637D01*
X131626137Y-97012564D01*
X131626137Y-97012565D01*
X131626135Y-97012567D01*
X131582249Y-97072969D01*
X131523947Y-97153215D01*
X131445018Y-97308121D01*
X131391297Y-97473457D01*
X131391297Y-97473460D01*
X131364100Y-97645174D01*
X126321030Y-97645174D01*
X126302605Y-97588468D01*
X126302605Y-97588467D01*
X126212386Y-97411405D01*
X126137346Y-97308121D01*
X126095581Y-97250636D01*
X125955064Y-97110119D01*
X125794294Y-96993313D01*
X125617232Y-96903094D01*
X125617229Y-96903093D01*
X125428237Y-96841687D01*
X125330098Y-96826143D01*
X125231961Y-96810600D01*
X123763239Y-96810600D01*
X123697814Y-96820962D01*
X123566962Y-96841687D01*
X123377970Y-96903093D01*
X123377967Y-96903094D01*
X123200905Y-96993313D01*
X123040133Y-97110121D01*
X122899621Y-97250633D01*
X122782813Y-97411405D01*
X122692594Y-97588467D01*
X122692593Y-97588470D01*
X122631187Y-97777462D01*
X122631187Y-97777464D01*
X122600100Y-97973739D01*
X121969100Y-97973739D01*
X121969100Y-94369905D01*
X129243100Y-94369905D01*
X129243100Y-94594294D01*
X129278199Y-94815905D01*
X129347538Y-95029306D01*
X129449405Y-95229228D01*
X129581283Y-95410744D01*
X129581287Y-95410749D01*
X129739950Y-95569412D01*
X129739955Y-95569416D01*
X129844228Y-95645174D01*
X129921475Y-95701297D01*
X130048864Y-95766205D01*
X130121393Y-95803161D01*
X130121395Y-95803161D01*
X130121398Y-95803163D01*
X130235784Y-95840329D01*
X130334794Y-95872500D01*
X130556406Y-95907600D01*
X130556411Y-95907600D01*
X130780794Y-95907600D01*
X131002405Y-95872500D01*
X131215802Y-95803163D01*
X131415725Y-95701297D01*
X131597251Y-95569411D01*
X131755911Y-95410751D01*
X131887797Y-95229225D01*
X131989663Y-95029302D01*
X132059000Y-94815905D01*
X132076008Y-94708520D01*
X132094100Y-94594294D01*
X132094100Y-94369905D01*
X132059000Y-94148294D01*
X132014654Y-94011813D01*
X131989663Y-93934898D01*
X131989661Y-93934895D01*
X131989661Y-93934893D01*
X131928859Y-93815564D01*
X131887797Y-93734975D01*
X131864100Y-93702359D01*
X131755916Y-93553455D01*
X131755912Y-93553450D01*
X131597249Y-93394787D01*
X131597244Y-93394783D01*
X131415728Y-93262905D01*
X131415727Y-93262904D01*
X131415725Y-93262903D01*
X131353292Y-93231092D01*
X131215806Y-93161038D01*
X131002405Y-93091699D01*
X130780794Y-93056600D01*
X130780789Y-93056600D01*
X130556411Y-93056600D01*
X130556406Y-93056600D01*
X130334794Y-93091699D01*
X130121393Y-93161038D01*
X129921471Y-93262905D01*
X129739955Y-93394783D01*
X129739950Y-93394787D01*
X129581287Y-93553450D01*
X129581283Y-93553455D01*
X129449405Y-93734971D01*
X129347538Y-93934893D01*
X129278199Y-94148294D01*
X129243100Y-94369905D01*
X121969100Y-94369905D01*
X121969100Y-92893739D01*
X122600100Y-92893739D01*
X122600100Y-93092460D01*
X122631187Y-93288737D01*
X122692593Y-93477729D01*
X122692594Y-93477732D01*
X122782813Y-93654794D01*
X122899619Y-93815564D01*
X123040136Y-93956081D01*
X123200906Y-94072887D01*
X123287749Y-94117135D01*
X123377967Y-94163105D01*
X123377970Y-94163106D01*
X123472466Y-94193809D01*
X123566964Y-94224513D01*
X123763239Y-94255600D01*
X123763240Y-94255600D01*
X125231960Y-94255600D01*
X125231961Y-94255600D01*
X125428236Y-94224513D01*
X125617232Y-94163105D01*
X125794294Y-94072887D01*
X125955064Y-93956081D01*
X126095581Y-93815564D01*
X126212387Y-93654794D01*
X126302605Y-93477732D01*
X126364013Y-93288736D01*
X126395100Y-93092461D01*
X126395100Y-92893739D01*
X126364013Y-92697464D01*
X126303937Y-92512567D01*
X126302606Y-92508470D01*
X126302605Y-92508467D01*
X126242056Y-92389635D01*
X126212387Y-92331406D01*
X126095581Y-92170636D01*
X125955064Y-92030119D01*
X125794294Y-91913313D01*
X125617232Y-91823094D01*
X125617229Y-91823093D01*
X125428237Y-91761687D01*
X125330098Y-91746143D01*
X125231961Y-91730600D01*
X123763239Y-91730600D01*
X123697814Y-91740962D01*
X123566962Y-91761687D01*
X123377970Y-91823093D01*
X123377967Y-91823094D01*
X123200905Y-91913313D01*
X123040133Y-92030121D01*
X122899621Y-92170633D01*
X122782813Y-92331405D01*
X122692594Y-92508467D01*
X122692593Y-92508470D01*
X122631187Y-92697462D01*
X122600100Y-92893739D01*
X121969100Y-92893739D01*
X121969100Y-91145174D01*
X131364100Y-91145174D01*
X131364100Y-91319025D01*
X131391297Y-91490739D01*
X131391297Y-91490742D01*
X131445018Y-91656078D01*
X131475346Y-91715600D01*
X131523947Y-91810984D01*
X131626135Y-91951633D01*
X131749067Y-92074565D01*
X131889716Y-92176753D01*
X132044619Y-92255680D01*
X132044621Y-92255681D01*
X132209958Y-92309402D01*
X132209959Y-92309402D01*
X132209962Y-92309403D01*
X132381674Y-92336600D01*
X132381675Y-92336600D01*
X132510619Y-92336600D01*
X132577658Y-92356285D01*
X132623413Y-92409089D01*
X132633357Y-92478247D01*
X132610937Y-92533484D01*
X132570866Y-92588636D01*
X132523947Y-92653215D01*
X132445018Y-92808121D01*
X132391297Y-92973457D01*
X132391297Y-92973460D01*
X132364100Y-93145174D01*
X132364100Y-93319025D01*
X132391297Y-93490739D01*
X132391297Y-93490742D01*
X132445018Y-93656078D01*
X132485216Y-93734971D01*
X132523947Y-93810984D01*
X132626135Y-93951633D01*
X132749067Y-94074565D01*
X132889716Y-94176753D01*
X133044462Y-94255600D01*
X133044621Y-94255681D01*
X133209958Y-94309402D01*
X133209959Y-94309402D01*
X133209962Y-94309403D01*
X133381674Y-94336600D01*
X133381675Y-94336600D01*
X133555525Y-94336600D01*
X133555526Y-94336600D01*
X133727238Y-94309403D01*
X133727241Y-94309402D01*
X133727242Y-94309402D01*
X133892578Y-94255681D01*
X133892578Y-94255680D01*
X133892581Y-94255680D01*
X134047484Y-94176753D01*
X134188133Y-94074565D01*
X134311065Y-93951633D01*
X134368283Y-93872878D01*
X134423612Y-93830215D01*
X134493225Y-93824236D01*
X134555020Y-93856842D01*
X134568913Y-93872875D01*
X134626135Y-93951633D01*
X134749067Y-94074565D01*
X134889716Y-94176753D01*
X135044462Y-94255600D01*
X135044621Y-94255681D01*
X135209958Y-94309402D01*
X135209959Y-94309402D01*
X135209962Y-94309403D01*
X135381674Y-94336600D01*
X135381675Y-94336600D01*
X135555525Y-94336600D01*
X135555526Y-94336600D01*
X135727238Y-94309403D01*
X135727241Y-94309402D01*
X135727242Y-94309402D01*
X135892578Y-94255681D01*
X135892578Y-94255680D01*
X135892581Y-94255680D01*
X136047484Y-94176753D01*
X136188133Y-94074565D01*
X136311065Y-93951633D01*
X136368283Y-93872878D01*
X136423612Y-93830215D01*
X136493225Y-93824236D01*
X136555020Y-93856842D01*
X136568913Y-93872875D01*
X136626135Y-93951633D01*
X136749067Y-94074565D01*
X136889716Y-94176753D01*
X137044462Y-94255600D01*
X137044621Y-94255681D01*
X137209958Y-94309402D01*
X137209959Y-94309402D01*
X137209962Y-94309403D01*
X137381674Y-94336600D01*
X137381675Y-94336600D01*
X137555525Y-94336600D01*
X137555526Y-94336600D01*
X137727238Y-94309403D01*
X137727241Y-94309402D01*
X137727242Y-94309402D01*
X137892578Y-94255681D01*
X137892578Y-94255680D01*
X137892581Y-94255680D01*
X138047484Y-94176753D01*
X138188133Y-94074565D01*
X138311065Y-93951633D01*
X138368283Y-93872878D01*
X138423612Y-93830215D01*
X138493225Y-93824236D01*
X138555020Y-93856842D01*
X138568913Y-93872875D01*
X138626135Y-93951633D01*
X138749067Y-94074565D01*
X138889716Y-94176753D01*
X139044462Y-94255600D01*
X139044621Y-94255681D01*
X139209958Y-94309402D01*
X139209959Y-94309402D01*
X139209962Y-94309403D01*
X139381674Y-94336600D01*
X139381675Y-94336600D01*
X139555525Y-94336600D01*
X139555526Y-94336600D01*
X139727238Y-94309403D01*
X139727241Y-94309402D01*
X139727242Y-94309402D01*
X139892578Y-94255681D01*
X139892578Y-94255680D01*
X139892581Y-94255680D01*
X140047484Y-94176753D01*
X140188133Y-94074565D01*
X140311065Y-93951633D01*
X140368283Y-93872878D01*
X140423612Y-93830215D01*
X140493225Y-93824236D01*
X140555020Y-93856842D01*
X140568913Y-93872875D01*
X140626135Y-93951633D01*
X140749067Y-94074565D01*
X140889716Y-94176753D01*
X141044462Y-94255600D01*
X141044621Y-94255681D01*
X141209958Y-94309402D01*
X141209959Y-94309402D01*
X141209962Y-94309403D01*
X141381674Y-94336600D01*
X141381675Y-94336600D01*
X141555525Y-94336600D01*
X141555526Y-94336600D01*
X141727238Y-94309403D01*
X141727241Y-94309402D01*
X141727242Y-94309402D01*
X141892578Y-94255681D01*
X141892578Y-94255680D01*
X141892581Y-94255680D01*
X142047484Y-94176753D01*
X142188133Y-94074565D01*
X142311065Y-93951633D01*
X142413253Y-93810984D01*
X142492180Y-93656081D01*
X142545903Y-93490738D01*
X142573100Y-93319026D01*
X142573100Y-93145174D01*
X142545903Y-92973462D01*
X142545902Y-92973458D01*
X142545902Y-92973457D01*
X142492181Y-92808121D01*
X142413252Y-92653215D01*
X142311065Y-92512567D01*
X142188133Y-92389635D01*
X142047484Y-92287447D01*
X141985138Y-92255680D01*
X141892578Y-92208518D01*
X141727241Y-92154797D01*
X141598454Y-92134399D01*
X141555526Y-92127600D01*
X141426581Y-92127600D01*
X141359542Y-92107915D01*
X141313787Y-92055111D01*
X141303843Y-91985953D01*
X141326262Y-91930715D01*
X141413253Y-91810984D01*
X141492180Y-91656081D01*
X141532208Y-91532887D01*
X141545902Y-91490742D01*
X141545902Y-91490741D01*
X141545903Y-91490738D01*
X141573100Y-91319026D01*
X141573100Y-91145174D01*
X141545903Y-90973462D01*
X141545902Y-90973458D01*
X141545902Y-90973457D01*
X141492181Y-90808121D01*
X141413252Y-90653215D01*
X141403624Y-90639963D01*
X141311065Y-90512567D01*
X141188133Y-90389635D01*
X141047484Y-90287447D01*
X140892578Y-90208518D01*
X140727241Y-90154797D01*
X140598454Y-90134399D01*
X140555526Y-90127600D01*
X140381674Y-90127600D01*
X140324436Y-90136665D01*
X140209960Y-90154797D01*
X140209957Y-90154797D01*
X140044621Y-90208518D01*
X139889715Y-90287447D01*
X139809469Y-90345749D01*
X139749067Y-90389635D01*
X139749065Y-90389637D01*
X139749064Y-90389637D01*
X139626136Y-90512565D01*
X139568918Y-90591319D01*
X139513587Y-90633985D01*
X139443974Y-90639963D01*
X139382179Y-90607357D01*
X139368282Y-90591319D01*
X139340049Y-90552460D01*
X139311065Y-90512567D01*
X139188133Y-90389635D01*
X139047484Y-90287447D01*
X138892578Y-90208518D01*
X138727241Y-90154797D01*
X138598454Y-90134399D01*
X138555526Y-90127600D01*
X138381674Y-90127600D01*
X138324436Y-90136665D01*
X138209960Y-90154797D01*
X138209957Y-90154797D01*
X138044621Y-90208518D01*
X137889715Y-90287447D01*
X137809469Y-90345749D01*
X137749067Y-90389635D01*
X137749065Y-90389637D01*
X137749064Y-90389637D01*
X137626136Y-90512565D01*
X137568918Y-90591319D01*
X137513587Y-90633985D01*
X137443974Y-90639963D01*
X137382179Y-90607357D01*
X137368282Y-90591319D01*
X137340049Y-90552460D01*
X137311065Y-90512567D01*
X137188133Y-90389635D01*
X137047484Y-90287447D01*
X136892578Y-90208518D01*
X136727241Y-90154797D01*
X136598454Y-90134399D01*
X136555526Y-90127600D01*
X136381674Y-90127600D01*
X136324436Y-90136665D01*
X136209960Y-90154797D01*
X136209957Y-90154797D01*
X136044621Y-90208518D01*
X135889715Y-90287447D01*
X135809469Y-90345749D01*
X135749067Y-90389635D01*
X135749065Y-90389637D01*
X135749064Y-90389637D01*
X135626136Y-90512565D01*
X135568918Y-90591319D01*
X135513587Y-90633985D01*
X135443974Y-90639963D01*
X135382179Y-90607357D01*
X135368282Y-90591319D01*
X135340049Y-90552460D01*
X135311065Y-90512567D01*
X135188133Y-90389635D01*
X135047484Y-90287447D01*
X134892578Y-90208518D01*
X134727241Y-90154797D01*
X134598454Y-90134399D01*
X134555526Y-90127600D01*
X134381674Y-90127600D01*
X134324436Y-90136665D01*
X134209960Y-90154797D01*
X134209957Y-90154797D01*
X134044621Y-90208518D01*
X133889715Y-90287447D01*
X133809469Y-90345749D01*
X133749067Y-90389635D01*
X133749065Y-90389637D01*
X133749064Y-90389637D01*
X133626136Y-90512565D01*
X133568918Y-90591319D01*
X133513587Y-90633985D01*
X133443974Y-90639963D01*
X133382179Y-90607357D01*
X133368282Y-90591319D01*
X133340049Y-90552460D01*
X133311065Y-90512567D01*
X133188133Y-90389635D01*
X133047484Y-90287447D01*
X132892578Y-90208518D01*
X132727241Y-90154797D01*
X132598454Y-90134399D01*
X132555526Y-90127600D01*
X132381674Y-90127600D01*
X132324436Y-90136665D01*
X132209960Y-90154797D01*
X132209957Y-90154797D01*
X132044621Y-90208518D01*
X131889715Y-90287447D01*
X131809469Y-90345749D01*
X131749067Y-90389635D01*
X131749065Y-90389637D01*
X131749064Y-90389637D01*
X131626137Y-90512564D01*
X131626137Y-90512565D01*
X131626135Y-90512567D01*
X131597151Y-90552460D01*
X131523947Y-90653215D01*
X131445018Y-90808121D01*
X131391297Y-90973457D01*
X131391297Y-90973460D01*
X131364100Y-91145174D01*
X121969100Y-91145174D01*
X121969100Y-87103235D01*
X122600100Y-87103235D01*
X122600100Y-88722970D01*
X122600101Y-88722976D01*
X122606508Y-88782583D01*
X122656802Y-88917428D01*
X122656806Y-88917435D01*
X122743052Y-89032644D01*
X122743055Y-89032647D01*
X122858264Y-89118893D01*
X122858271Y-89118897D01*
X122993117Y-89169191D01*
X122993116Y-89169191D01*
X123000044Y-89169935D01*
X123052727Y-89175600D01*
X125942472Y-89175599D01*
X126002083Y-89169191D01*
X126136931Y-89118896D01*
X126252146Y-89032646D01*
X126338396Y-88917431D01*
X126388691Y-88782583D01*
X126395100Y-88722973D01*
X126395099Y-87103228D01*
X126388691Y-87043617D01*
X126338396Y-86908769D01*
X126338395Y-86908768D01*
X126338393Y-86908764D01*
X126252147Y-86793555D01*
X126252144Y-86793552D01*
X126136935Y-86707306D01*
X126136928Y-86707302D01*
X126002082Y-86657008D01*
X126002083Y-86657008D01*
X125942483Y-86650601D01*
X125942481Y-86650600D01*
X125942473Y-86650600D01*
X125942464Y-86650600D01*
X123052729Y-86650600D01*
X123052723Y-86650601D01*
X122993116Y-86657008D01*
X122858271Y-86707302D01*
X122858264Y-86707306D01*
X122743055Y-86793552D01*
X122743052Y-86793555D01*
X122656806Y-86908764D01*
X122656802Y-86908771D01*
X122606508Y-87043617D01*
X122600101Y-87103216D01*
X122600101Y-87103223D01*
X122600100Y-87103235D01*
X121969100Y-87103235D01*
X121969100Y-82652537D01*
X125902100Y-82652537D01*
X125902100Y-83013662D01*
X125937496Y-83373057D01*
X126007944Y-83727230D01*
X126007947Y-83727241D01*
X126112781Y-84072833D01*
X126250981Y-84406476D01*
X126250983Y-84406481D01*
X126421209Y-84724952D01*
X126421220Y-84724970D01*
X126621844Y-85025225D01*
X126621854Y-85025239D01*
X126850954Y-85304397D01*
X127106302Y-85559745D01*
X127106307Y-85559749D01*
X127106308Y-85559750D01*
X127385466Y-85788850D01*
X127685736Y-85989484D01*
X127685745Y-85989489D01*
X127685747Y-85989490D01*
X128004218Y-86159716D01*
X128004220Y-86159716D01*
X128004226Y-86159720D01*
X128337868Y-86297919D01*
X128683449Y-86402750D01*
X128683455Y-86402751D01*
X128683458Y-86402752D01*
X128683469Y-86402755D01*
X129037642Y-86473203D01*
X129397034Y-86508600D01*
X129397037Y-86508600D01*
X129758163Y-86508600D01*
X129758166Y-86508600D01*
X130117558Y-86473203D01*
X130186504Y-86459488D01*
X130471730Y-86402755D01*
X130471741Y-86402752D01*
X130471741Y-86402751D01*
X130471751Y-86402750D01*
X130817332Y-86297919D01*
X131150974Y-86159720D01*
X131469464Y-85989484D01*
X131769734Y-85788850D01*
X132048892Y-85559750D01*
X132304250Y-85304392D01*
X132533350Y-85025234D01*
X132733984Y-84724964D01*
X132904220Y-84406474D01*
X133042419Y-84072832D01*
X133147250Y-83727251D01*
X133147252Y-83727241D01*
X133147255Y-83727230D01*
X133217703Y-83373057D01*
X133253100Y-83013662D01*
X133253100Y-82652537D01*
X164002100Y-82652537D01*
X164002100Y-83013662D01*
X164037496Y-83373057D01*
X164107944Y-83727230D01*
X164107947Y-83727241D01*
X164212781Y-84072833D01*
X164350981Y-84406476D01*
X164350983Y-84406481D01*
X164521209Y-84724952D01*
X164521220Y-84724970D01*
X164721844Y-85025225D01*
X164721854Y-85025239D01*
X164950954Y-85304397D01*
X165206302Y-85559745D01*
X165206307Y-85559749D01*
X165206308Y-85559750D01*
X165485466Y-85788850D01*
X165785736Y-85989484D01*
X165785745Y-85989489D01*
X165785747Y-85989490D01*
X166104218Y-86159716D01*
X166104220Y-86159716D01*
X166104226Y-86159720D01*
X166437868Y-86297919D01*
X166783449Y-86402750D01*
X166783455Y-86402751D01*
X166783458Y-86402752D01*
X166783469Y-86402755D01*
X167137642Y-86473203D01*
X167497034Y-86508600D01*
X167497037Y-86508600D01*
X167858163Y-86508600D01*
X167858166Y-86508600D01*
X168217558Y-86473203D01*
X168286504Y-86459488D01*
X168571730Y-86402755D01*
X168571741Y-86402752D01*
X168571741Y-86402751D01*
X168571751Y-86402750D01*
X168917332Y-86297919D01*
X169250974Y-86159720D01*
X169569464Y-85989484D01*
X169869734Y-85788850D01*
X170148892Y-85559750D01*
X170404250Y-85304392D01*
X170633350Y-85025234D01*
X170833984Y-84724964D01*
X171004220Y-84406474D01*
X171142419Y-84072832D01*
X171247250Y-83727251D01*
X171247252Y-83727241D01*
X171247255Y-83727230D01*
X171317703Y-83373057D01*
X171353100Y-83013662D01*
X171353100Y-82652537D01*
X171317703Y-82293142D01*
X171247255Y-81938969D01*
X171247252Y-81938958D01*
X171247251Y-81938955D01*
X171247250Y-81938949D01*
X171142419Y-81593368D01*
X171004220Y-81259726D01*
X170833984Y-80941236D01*
X170633350Y-80640966D01*
X170404250Y-80361808D01*
X170404249Y-80361807D01*
X170404245Y-80361802D01*
X170148897Y-80106454D01*
X169869739Y-79877354D01*
X169869738Y-79877353D01*
X169869734Y-79877350D01*
X169569464Y-79676716D01*
X169569459Y-79676713D01*
X169569452Y-79676709D01*
X169250981Y-79506483D01*
X169250976Y-79506481D01*
X168917333Y-79368281D01*
X168571741Y-79263447D01*
X168571730Y-79263444D01*
X168217557Y-79192996D01*
X167946879Y-79166337D01*
X167858166Y-79157600D01*
X167497034Y-79157600D01*
X167415065Y-79165673D01*
X167137642Y-79192996D01*
X166783469Y-79263444D01*
X166783458Y-79263447D01*
X166437866Y-79368281D01*
X166104223Y-79506481D01*
X166104218Y-79506483D01*
X165785747Y-79676709D01*
X165785729Y-79676720D01*
X165485474Y-79877344D01*
X165485460Y-79877354D01*
X165206302Y-80106454D01*
X164950954Y-80361802D01*
X164721854Y-80640960D01*
X164721844Y-80640974D01*
X164521220Y-80941229D01*
X164521209Y-80941247D01*
X164350983Y-81259718D01*
X164350981Y-81259723D01*
X164212781Y-81593366D01*
X164107947Y-81938958D01*
X164107944Y-81938969D01*
X164037496Y-82293142D01*
X164002100Y-82652537D01*
X133253100Y-82652537D01*
X133217703Y-82293142D01*
X133147255Y-81938969D01*
X133147252Y-81938958D01*
X133147251Y-81938955D01*
X133147250Y-81938949D01*
X133042419Y-81593368D01*
X132904220Y-81259726D01*
X132733984Y-80941236D01*
X132533350Y-80640966D01*
X132304250Y-80361808D01*
X132304249Y-80361807D01*
X132304245Y-80361802D01*
X132048897Y-80106454D01*
X131769739Y-79877354D01*
X131769738Y-79877353D01*
X131769734Y-79877350D01*
X131469464Y-79676716D01*
X131469459Y-79676713D01*
X131469452Y-79676709D01*
X131150981Y-79506483D01*
X131150976Y-79506481D01*
X130817333Y-79368281D01*
X130471741Y-79263447D01*
X130471730Y-79263444D01*
X130117557Y-79192996D01*
X129846879Y-79166337D01*
X129758166Y-79157600D01*
X129397034Y-79157600D01*
X129315065Y-79165673D01*
X129037642Y-79192996D01*
X128683469Y-79263444D01*
X128683458Y-79263447D01*
X128337866Y-79368281D01*
X128004223Y-79506481D01*
X128004218Y-79506483D01*
X127685747Y-79676709D01*
X127685729Y-79676720D01*
X127385474Y-79877344D01*
X127385460Y-79877354D01*
X127106302Y-80106454D01*
X126850954Y-80361802D01*
X126621854Y-80640960D01*
X126621844Y-80640974D01*
X126421220Y-80941229D01*
X126421209Y-80941247D01*
X126250983Y-81259718D01*
X126250981Y-81259723D01*
X126112781Y-81593366D01*
X126007947Y-81938958D01*
X126007944Y-81938969D01*
X125937496Y-82293142D01*
X125902100Y-82652537D01*
X121969100Y-82652537D01*
X121969100Y-77356600D01*
X121988785Y-77289561D01*
X122041589Y-77243806D01*
X122093100Y-77232600D01*
X174844100Y-77232600D01*
X174911139Y-77252285D01*
G37*
%TD.AperFunction*%
%TD*%
M02*
