%TF.GenerationSoftware,KiCad,Pcbnew,10.0.4*%
%TF.CreationDate,2026-06-29T14:17:30+02:00*%
%TF.ProjectId,CW308T_to_cardedge,43573330-3854-45f7-946f-5f6361726465,rev?*%
%TF.SameCoordinates,Original*%
%TF.FileFunction,Legend,Bot*%
%TF.FilePolarity,Positive*%
%FSLAX46Y46*%
G04 Gerber Fmt 4.6, Leading zero omitted, Abs format (unit mm)*
G04 Created by KiCad (PCBNEW 10.0.4) date 2026-06-29 14:17:30*
%MOMM*%
%LPD*%
G01*
G04 APERTURE LIST*
%ADD10C,0.203200*%
%ADD11C,0.000000*%
G04 APERTURE END LIST*
D10*
G36*
X169444382Y-100991225D02*
G01*
X169444382Y-101570461D01*
X169364961Y-101492620D01*
X169281274Y-101439474D01*
X169191926Y-101408064D01*
X169094706Y-101397450D01*
X168994065Y-101407478D01*
X168906404Y-101436399D01*
X168831033Y-101482192D01*
X168779940Y-101536032D01*
X168744225Y-101599749D01*
X168721853Y-101670286D01*
X168710904Y-101754017D01*
X168706273Y-101898691D01*
X168706273Y-102573040D01*
X169008633Y-102573040D01*
X169008633Y-101966491D01*
X169014361Y-101802117D01*
X169025848Y-101737317D01*
X169049611Y-101693705D01*
X169086628Y-101659996D01*
X169134120Y-101638929D01*
X169195878Y-101631337D01*
X169267794Y-101640701D01*
X169330324Y-101668074D01*
X169380858Y-101713271D01*
X169416974Y-101778959D01*
X169436390Y-101862065D01*
X169444382Y-101997843D01*
X169444382Y-102573040D01*
X169746743Y-102573040D01*
X169746743Y-100991225D01*
X169444382Y-100991225D01*
G37*
G36*
X167875263Y-101428224D02*
G01*
X167875263Y-101668266D01*
X168081837Y-101668266D01*
X168081837Y-102133155D01*
X168075971Y-102297703D01*
X168066378Y-102318855D01*
X168049043Y-102336267D01*
X168026266Y-102347514D01*
X167997880Y-102351462D01*
X167952027Y-102345474D01*
X167876320Y-102322419D01*
X167850547Y-102558325D01*
X167922144Y-102583120D01*
X168001371Y-102598488D01*
X168089435Y-102603814D01*
X168168414Y-102596653D01*
X168236864Y-102576117D01*
X168295472Y-102543042D01*
X168333131Y-102504470D01*
X168358055Y-102455476D01*
X168375542Y-102385699D01*
X168382144Y-102319080D01*
X168385255Y-102170758D01*
X168385255Y-101668266D01*
X168524030Y-101668266D01*
X168524030Y-101428224D01*
X168385255Y-101428224D01*
X168385255Y-101206647D01*
X168081837Y-101028155D01*
X168081837Y-101428224D01*
X167875263Y-101428224D01*
G37*
G36*
X167141288Y-101428224D02*
G01*
X167141288Y-101668266D01*
X167347863Y-101668266D01*
X167347863Y-102133155D01*
X167341996Y-102297703D01*
X167332404Y-102318855D01*
X167315069Y-102336267D01*
X167292292Y-102347514D01*
X167263906Y-102351462D01*
X167218052Y-102345474D01*
X167142346Y-102322419D01*
X167116573Y-102558325D01*
X167188170Y-102583120D01*
X167267397Y-102598488D01*
X167355460Y-102603814D01*
X167434440Y-102596653D01*
X167502890Y-102576117D01*
X167561498Y-102543042D01*
X167599157Y-102504470D01*
X167624081Y-102455476D01*
X167641568Y-102385699D01*
X167648170Y-102319080D01*
X167651281Y-102170758D01*
X167651281Y-101668266D01*
X167790055Y-101668266D01*
X167790055Y-101428224D01*
X167651281Y-101428224D01*
X167651281Y-101206647D01*
X167347863Y-101028155D01*
X167347863Y-101428224D01*
X167141288Y-101428224D01*
G37*
G36*
X166376377Y-101403825D02*
G01*
X166445188Y-101422568D01*
X166509544Y-101453710D01*
X166594063Y-101518009D01*
X166658031Y-101596042D01*
X166658031Y-101428224D01*
X166939907Y-101428224D01*
X166939907Y-103010039D01*
X166637547Y-103010039D01*
X166637547Y-102436958D01*
X166550545Y-102518163D01*
X166475692Y-102566115D01*
X166395368Y-102594155D01*
X166304027Y-102603814D01*
X166208371Y-102593824D01*
X166121321Y-102564434D01*
X166040734Y-102515108D01*
X165965218Y-102443498D01*
X165906715Y-102360210D01*
X165863129Y-102259933D01*
X165835266Y-102139294D01*
X165825290Y-101994092D01*
X165825317Y-101993708D01*
X166132939Y-101993708D01*
X166142467Y-102124101D01*
X166167163Y-102215276D01*
X166202952Y-102277315D01*
X166254427Y-102325993D01*
X166312061Y-102354202D01*
X166378271Y-102363772D01*
X166447064Y-102353521D01*
X166508323Y-102322970D01*
X166564457Y-102269621D01*
X166604055Y-102202319D01*
X166630722Y-102108069D01*
X166640816Y-101978320D01*
X166631388Y-101865815D01*
X166606065Y-101781520D01*
X166567631Y-101718948D01*
X166513949Y-101669791D01*
X166453468Y-101641110D01*
X166383656Y-101631337D01*
X166316795Y-101641147D01*
X166258066Y-101670194D01*
X166205067Y-101720583D01*
X166167580Y-101784256D01*
X166142430Y-101872714D01*
X166132939Y-101993708D01*
X165825317Y-101993708D01*
X165835137Y-101852921D01*
X165862690Y-101735235D01*
X165905901Y-101637021D01*
X165964064Y-101555073D01*
X166038901Y-101484828D01*
X166119096Y-101436306D01*
X166206051Y-101407321D01*
X166301911Y-101397450D01*
X166376377Y-101403825D01*
G37*
G36*
X165691420Y-102246829D02*
G01*
X165388002Y-102209899D01*
X165369902Y-102265387D01*
X165343708Y-102309056D01*
X165309527Y-102342999D01*
X165267650Y-102367038D01*
X165213521Y-102382661D01*
X165143825Y-102388392D01*
X165066502Y-102382620D01*
X165009209Y-102367262D01*
X164967352Y-102344346D01*
X164937559Y-102308496D01*
X164927537Y-102261928D01*
X164933078Y-102229269D01*
X164949079Y-102203552D01*
X164979625Y-102184893D01*
X165050154Y-102162872D01*
X165298636Y-102099650D01*
X165441527Y-102050380D01*
X165513889Y-102012846D01*
X165573865Y-101960730D01*
X165615487Y-101901123D01*
X165640719Y-101832564D01*
X165649490Y-101752512D01*
X165642092Y-101680023D01*
X165620447Y-101614767D01*
X165584348Y-101555079D01*
X165532258Y-101499872D01*
X165471640Y-101458272D01*
X165393654Y-101426279D01*
X165294257Y-101405190D01*
X165168540Y-101397450D01*
X165047476Y-101403459D01*
X164951955Y-101419749D01*
X164877442Y-101444165D01*
X164820018Y-101475252D01*
X164752993Y-101534064D01*
X164700723Y-101609638D01*
X164662875Y-101705196D01*
X164947925Y-101760590D01*
X164975071Y-101696386D01*
X165017360Y-101650956D01*
X165053417Y-101630923D01*
X165100953Y-101617748D01*
X165163155Y-101612872D01*
X165242920Y-101617635D01*
X165297811Y-101629820D01*
X165334242Y-101647013D01*
X165360269Y-101675109D01*
X165368672Y-101709620D01*
X165361418Y-101739689D01*
X165338570Y-101765783D01*
X165272624Y-101794848D01*
X165056117Y-101852722D01*
X164895661Y-101898133D01*
X164787633Y-101944112D01*
X164718847Y-101989284D01*
X164667063Y-102049426D01*
X164635371Y-102123764D01*
X164624119Y-102216631D01*
X164632220Y-102292772D01*
X164656152Y-102362633D01*
X164696514Y-102427899D01*
X164755391Y-102489660D01*
X164823359Y-102536636D01*
X164908192Y-102572252D01*
X165013529Y-102595408D01*
X165143825Y-102603814D01*
X165261915Y-102596918D01*
X165360979Y-102577643D01*
X165443975Y-102547617D01*
X165513408Y-102507740D01*
X165575779Y-102455189D01*
X165625716Y-102394820D01*
X165664187Y-102325812D01*
X165691420Y-102246829D01*
G37*
G36*
X164301947Y-101729815D02*
G01*
X164301947Y-101428224D01*
X163999683Y-101428224D01*
X163999683Y-101729815D01*
X164301947Y-101729815D01*
G37*
G36*
X164301947Y-102573040D02*
G01*
X164301947Y-102271448D01*
X163999683Y-102271448D01*
X163999683Y-102573040D01*
X164301947Y-102573040D01*
G37*
G36*
X163787530Y-102597659D02*
G01*
X163396885Y-100966605D01*
X163169923Y-100966605D01*
X163564799Y-102597659D01*
X163787530Y-102597659D01*
G37*
G36*
X163175116Y-102597659D02*
G01*
X162784471Y-100966605D01*
X162557508Y-100966605D01*
X162952385Y-102597659D01*
X163175116Y-102597659D01*
G37*
G36*
X162086579Y-101407192D02*
G01*
X162175687Y-101435584D01*
X162256600Y-101482648D01*
X162330834Y-101550073D01*
X162388278Y-101629558D01*
X162431329Y-101727023D01*
X162459043Y-101846209D01*
X162469031Y-101991784D01*
X162461836Y-102107077D01*
X162441271Y-102208455D01*
X162408401Y-102297919D01*
X162363628Y-102377140D01*
X162304378Y-102449293D01*
X162239300Y-102503452D01*
X162167692Y-102541711D01*
X162088183Y-102565004D01*
X161998853Y-102573040D01*
X161900859Y-102561446D01*
X161812762Y-102527305D01*
X161731891Y-102469473D01*
X161656774Y-102384160D01*
X161656774Y-102553036D01*
X161661128Y-102647440D01*
X161670719Y-102693637D01*
X161696840Y-102740677D01*
X161731018Y-102770959D01*
X161772240Y-102789434D01*
X161829815Y-102802107D01*
X161908549Y-102806926D01*
X161993308Y-102797060D01*
X162044053Y-102772401D01*
X162068275Y-102741111D01*
X162083868Y-102683828D01*
X162429216Y-102646899D01*
X162430274Y-102684020D01*
X162422548Y-102758705D01*
X162400040Y-102825112D01*
X162362627Y-102885095D01*
X162308715Y-102939834D01*
X162246577Y-102979612D01*
X162161509Y-103011263D01*
X162047314Y-103032752D01*
X161896624Y-103040813D01*
X161749858Y-103031886D01*
X161642252Y-103008404D01*
X161549297Y-102968410D01*
X161481455Y-102918773D01*
X161429338Y-102853153D01*
X161387785Y-102761053D01*
X161370960Y-102692654D01*
X161359018Y-102594256D01*
X161354414Y-102457539D01*
X161354414Y-101982360D01*
X161651389Y-101982360D01*
X161661162Y-102093724D01*
X161687502Y-102177444D01*
X161727748Y-102239904D01*
X161783323Y-102288751D01*
X161844945Y-102317195D01*
X161914992Y-102326843D01*
X161979955Y-102317506D01*
X162037120Y-102289885D01*
X162088772Y-102242116D01*
X162125173Y-102181270D01*
X162149802Y-102094929D01*
X162159169Y-101974762D01*
X162149954Y-101860611D01*
X162125462Y-101776814D01*
X162088772Y-101716159D01*
X162036988Y-101668665D01*
X161978113Y-101640850D01*
X161909607Y-101631337D01*
X161838955Y-101641042D01*
X161778140Y-101669414D01*
X161724574Y-101717794D01*
X161686412Y-101779756D01*
X161660963Y-101865461D01*
X161651389Y-101982360D01*
X161354414Y-101982360D01*
X161354414Y-101428224D01*
X161637348Y-101428224D01*
X161637348Y-101585656D01*
X161713444Y-101500986D01*
X161795864Y-101443305D01*
X161886148Y-101409100D01*
X161987024Y-101397450D01*
X162086579Y-101407192D01*
G37*
G36*
X161054842Y-101268197D02*
G01*
X161054842Y-100991225D01*
X160752578Y-100991225D01*
X160752578Y-101268197D01*
X161054842Y-101268197D01*
G37*
G36*
X161054842Y-102573040D02*
G01*
X161054842Y-101428224D01*
X160752578Y-101428224D01*
X160752578Y-102573040D01*
X161054842Y-102573040D01*
G37*
G36*
X159918490Y-101428224D02*
G01*
X159918490Y-101668266D01*
X160125065Y-101668266D01*
X160125065Y-102133155D01*
X160119198Y-102297703D01*
X160109606Y-102318855D01*
X160092270Y-102336267D01*
X160069494Y-102347514D01*
X160041108Y-102351462D01*
X159995254Y-102345474D01*
X159919548Y-102322419D01*
X159893774Y-102558325D01*
X159965372Y-102583120D01*
X160044598Y-102598488D01*
X160132662Y-102603814D01*
X160211641Y-102596653D01*
X160280092Y-102576117D01*
X160338699Y-102543042D01*
X160376358Y-102504470D01*
X160401282Y-102455476D01*
X160418770Y-102385699D01*
X160425371Y-102319080D01*
X160428483Y-102170758D01*
X160428483Y-101668266D01*
X160567257Y-101668266D01*
X160567257Y-101428224D01*
X160428483Y-101428224D01*
X160428483Y-101206647D01*
X160125065Y-101028155D01*
X160125065Y-101428224D01*
X159918490Y-101428224D01*
G37*
G36*
X159407247Y-100991225D02*
G01*
X159407247Y-101570461D01*
X159327825Y-101492620D01*
X159244139Y-101439474D01*
X159154790Y-101408064D01*
X159057571Y-101397450D01*
X158956929Y-101407478D01*
X158869269Y-101436399D01*
X158793897Y-101482192D01*
X158742804Y-101536032D01*
X158707089Y-101599749D01*
X158684717Y-101670286D01*
X158673768Y-101754017D01*
X158669138Y-101898691D01*
X158669138Y-102573040D01*
X158971498Y-102573040D01*
X158971498Y-101966491D01*
X158977225Y-101802117D01*
X158988713Y-101737317D01*
X159012476Y-101693705D01*
X159049492Y-101659996D01*
X159096985Y-101638929D01*
X159158742Y-101631337D01*
X159230658Y-101640701D01*
X159293189Y-101668074D01*
X159343722Y-101713271D01*
X159379838Y-101778959D01*
X159399255Y-101862065D01*
X159407247Y-101997843D01*
X159407247Y-102573040D01*
X159709607Y-102573040D01*
X159709607Y-100991225D01*
X159407247Y-100991225D01*
G37*
G36*
X157610010Y-102573040D02*
G01*
X157610010Y-102401952D01*
X157655728Y-102458619D01*
X157710164Y-102507366D01*
X157774174Y-102548612D01*
X157843627Y-102579431D01*
X157914837Y-102597702D01*
X157988730Y-102603814D01*
X158064199Y-102597954D01*
X158132682Y-102580897D01*
X158195401Y-102552940D01*
X158251261Y-102514009D01*
X158294964Y-102466676D01*
X158327732Y-102410030D01*
X158348906Y-102347173D01*
X158363246Y-102263999D01*
X158368604Y-102155659D01*
X158368604Y-101428224D01*
X158066244Y-101428224D01*
X158066244Y-101955239D01*
X158060521Y-102174514D01*
X158049606Y-102251637D01*
X158025864Y-102300773D01*
X157988827Y-102338095D01*
X157940336Y-102361516D01*
X157876884Y-102369927D01*
X157803104Y-102359175D01*
X157738110Y-102327324D01*
X157685874Y-102278784D01*
X157654153Y-102221440D01*
X157639141Y-102135929D01*
X157631553Y-101912059D01*
X157631553Y-101428224D01*
X157329192Y-101428224D01*
X157329192Y-102573040D01*
X157610010Y-102573040D01*
G37*
G36*
X157028659Y-102573040D02*
G01*
X156747841Y-102573040D01*
X156747841Y-102405222D01*
X156698186Y-102464954D01*
X156643618Y-102513682D01*
X156583774Y-102552363D01*
X156518801Y-102581373D01*
X156454710Y-102598259D01*
X156390663Y-102603814D01*
X156294923Y-102593844D01*
X156207915Y-102564534D01*
X156127485Y-102515381D01*
X156052239Y-102444075D01*
X155994259Y-102361168D01*
X155950831Y-102260229D01*
X155922923Y-102137589D01*
X155914171Y-102007749D01*
X156222749Y-102007749D01*
X156232160Y-102131511D01*
X156256862Y-102220293D01*
X156293242Y-102282700D01*
X156345003Y-102332226D01*
X156401112Y-102360478D01*
X156463753Y-102369927D01*
X156525246Y-102362345D01*
X156579422Y-102340140D01*
X156628175Y-102302588D01*
X156672443Y-102247021D01*
X156701079Y-102186216D01*
X156720846Y-102099607D01*
X156728414Y-101979186D01*
X156719016Y-101864050D01*
X156693986Y-101779210D01*
X156656383Y-101717506D01*
X156603502Y-101669135D01*
X156544057Y-101640937D01*
X156475582Y-101631337D01*
X156405915Y-101641227D01*
X156346211Y-101670163D01*
X156293819Y-101719718D01*
X156257457Y-101783006D01*
X156232402Y-101875657D01*
X156222749Y-102007749D01*
X155914171Y-102007749D01*
X155912888Y-101988707D01*
X155922736Y-101844841D01*
X155950102Y-101726648D01*
X155992676Y-101629628D01*
X156049546Y-101550169D01*
X156122969Y-101482917D01*
X156203803Y-101435811D01*
X156293651Y-101407277D01*
X156394895Y-101397450D01*
X156486712Y-101407240D01*
X156571334Y-101436217D01*
X156650763Y-101485179D01*
X156726299Y-101556708D01*
X156726299Y-100991225D01*
X157028659Y-100991225D01*
X157028659Y-102573040D01*
G37*
G36*
X155669287Y-102573040D02*
G01*
X155669287Y-102271448D01*
X155367023Y-102271448D01*
X155367023Y-102573040D01*
X155669287Y-102573040D01*
G37*
G36*
X154060641Y-101754435D02*
G01*
X154358674Y-101809829D01*
X154373895Y-101753187D01*
X154396843Y-101709501D01*
X154427051Y-101676248D01*
X154464789Y-101651892D01*
X154510189Y-101636722D01*
X154565249Y-101631337D01*
X154636868Y-101640584D01*
X154695941Y-101667053D01*
X154745472Y-101711158D01*
X154779770Y-101768687D01*
X154803504Y-101854278D01*
X154812696Y-101977936D01*
X154803197Y-102116115D01*
X154778920Y-102210125D01*
X154744415Y-102271833D01*
X154693682Y-102319460D01*
X154633540Y-102347776D01*
X154560921Y-102357617D01*
X154505470Y-102351726D01*
X154459162Y-102334978D01*
X154420031Y-102307705D01*
X154389588Y-102270652D01*
X154363321Y-102215351D01*
X154342517Y-102136040D01*
X154045543Y-102185280D01*
X154075732Y-102287126D01*
X154115697Y-102371619D01*
X154164786Y-102441308D01*
X154223074Y-102498123D01*
X154290882Y-102542586D01*
X154370565Y-102575521D01*
X154464325Y-102596401D01*
X154574866Y-102603814D01*
X154698077Y-102593069D01*
X154803752Y-102562432D01*
X154895161Y-102512996D01*
X154974647Y-102444075D01*
X155037513Y-102360418D01*
X155083827Y-102261010D01*
X155113171Y-102142756D01*
X155123615Y-102001690D01*
X155113082Y-101858903D01*
X155083554Y-101739752D01*
X155037055Y-101640098D01*
X154974070Y-101556708D01*
X154894415Y-101488196D01*
X154802243Y-101438887D01*
X154695097Y-101408229D01*
X154569576Y-101397450D01*
X154464139Y-101403743D01*
X154375312Y-101421372D01*
X154300521Y-101448920D01*
X154237595Y-101485638D01*
X154165396Y-101552086D01*
X154106328Y-101640189D01*
X154060641Y-101754435D01*
G37*
G36*
X153423474Y-101406037D02*
G01*
X153524249Y-101431138D01*
X153617487Y-101472463D01*
X153701162Y-101529804D01*
X153770907Y-101601720D01*
X153827812Y-101689809D01*
X153869416Y-101786841D01*
X153893917Y-101884609D01*
X153902056Y-101984283D01*
X153893096Y-102115245D01*
X153867808Y-102226709D01*
X153827812Y-102321842D01*
X153770674Y-102406817D01*
X153698949Y-102476452D01*
X153611044Y-102532071D01*
X153513906Y-102572075D01*
X153414397Y-102595854D01*
X153311376Y-102603814D01*
X153187375Y-102592594D01*
X153077541Y-102560123D01*
X152979116Y-102506877D01*
X152890149Y-102431573D01*
X152817402Y-102340561D01*
X152765589Y-102239330D01*
X152733822Y-102125853D01*
X152722903Y-101998420D01*
X153033731Y-101998420D01*
X153043901Y-102112661D01*
X153071485Y-102199697D01*
X153113938Y-102265678D01*
X153172342Y-102317245D01*
X153237642Y-102347367D01*
X153312434Y-102357617D01*
X153387248Y-102347379D01*
X153452750Y-102317264D01*
X153511507Y-102265678D01*
X153554318Y-102199695D01*
X153582016Y-102113313D01*
X153592194Y-102000632D01*
X153582014Y-101887952D01*
X153554314Y-101801606D01*
X153511507Y-101735682D01*
X153452743Y-101684037D01*
X153387241Y-101653894D01*
X153312434Y-101643647D01*
X153237649Y-101653906D01*
X153172349Y-101684056D01*
X153113938Y-101735682D01*
X153071318Y-101801530D01*
X153043814Y-101887217D01*
X153033731Y-101998420D01*
X152722903Y-101998420D01*
X152722812Y-101997362D01*
X152733728Y-101869933D01*
X152765204Y-101757549D01*
X152816511Y-101657438D01*
X152888514Y-101567576D01*
X152976562Y-101493586D01*
X153075195Y-101440955D01*
X153186523Y-101408665D01*
X153313492Y-101397450D01*
X153423474Y-101406037D01*
G37*
G36*
X152508255Y-101428224D02*
G01*
X152229649Y-101428224D01*
X152229649Y-101584213D01*
X152147877Y-101499593D01*
X152062368Y-101442337D01*
X151971701Y-101408749D01*
X151873529Y-101397450D01*
X151801500Y-101402842D01*
X151738492Y-101418280D01*
X151683015Y-101443131D01*
X151633372Y-101477997D01*
X151589362Y-101523579D01*
X151550684Y-101581328D01*
X151470453Y-101498851D01*
X151388252Y-101443131D01*
X151298149Y-101408884D01*
X151202066Y-101397450D01*
X151119473Y-101403628D01*
X151049167Y-101421105D01*
X150989048Y-101448901D01*
X150936250Y-101488135D01*
X150893046Y-101537973D01*
X150858833Y-101599889D01*
X150837012Y-101685108D01*
X150827674Y-101838007D01*
X150827674Y-102573040D01*
X151130034Y-102573040D01*
X151130034Y-101916771D01*
X151134920Y-101800493D01*
X151146528Y-101732331D01*
X151161193Y-101696252D01*
X151193770Y-101660532D01*
X151235784Y-101639005D01*
X151290350Y-101631337D01*
X151351412Y-101640900D01*
X151409794Y-101670286D01*
X151457126Y-101717135D01*
X151490482Y-101784344D01*
X151507817Y-101870381D01*
X151515197Y-102021597D01*
X151515197Y-102573040D01*
X151817558Y-102573040D01*
X151817558Y-101943795D01*
X151822861Y-101790799D01*
X151833714Y-101727604D01*
X151855005Y-101684187D01*
X151883819Y-101655187D01*
X151921716Y-101637836D01*
X151975758Y-101631337D01*
X152042453Y-101640890D01*
X152101646Y-101669228D01*
X152149126Y-101714660D01*
X152181852Y-101778382D01*
X152198674Y-101861526D01*
X152205991Y-102015154D01*
X152205991Y-102573040D01*
X152508255Y-102573040D01*
X152508255Y-101428224D01*
G37*
G36*
X150686784Y-102597659D02*
G01*
X150296139Y-100966605D01*
X150069176Y-100966605D01*
X150464052Y-102597659D01*
X150686784Y-102597659D01*
G37*
G36*
X149388961Y-101428224D02*
G01*
X149388961Y-101668266D01*
X149595536Y-101668266D01*
X149595536Y-102133155D01*
X149589669Y-102297703D01*
X149580077Y-102318855D01*
X149562741Y-102336267D01*
X149539965Y-102347514D01*
X149511579Y-102351462D01*
X149465725Y-102345474D01*
X149390019Y-102322419D01*
X149364245Y-102558325D01*
X149435843Y-102583120D01*
X149515069Y-102598488D01*
X149603133Y-102603814D01*
X149682112Y-102596653D01*
X149750563Y-102576117D01*
X149809170Y-102543042D01*
X149846829Y-102504470D01*
X149871753Y-102455476D01*
X149889241Y-102385699D01*
X149895843Y-102319080D01*
X149898954Y-102170758D01*
X149898954Y-101668266D01*
X150037728Y-101668266D01*
X150037728Y-101428224D01*
X149898954Y-101428224D01*
X149898954Y-101206647D01*
X149595536Y-101028155D01*
X149595536Y-101428224D01*
X149388961Y-101428224D01*
G37*
G36*
X148877718Y-100991225D02*
G01*
X148877718Y-101570461D01*
X148798296Y-101492620D01*
X148714610Y-101439474D01*
X148625261Y-101408064D01*
X148528042Y-101397450D01*
X148427400Y-101407478D01*
X148339740Y-101436399D01*
X148264368Y-101482192D01*
X148213275Y-101536032D01*
X148177560Y-101599749D01*
X148155188Y-101670286D01*
X148144239Y-101754017D01*
X148139609Y-101898691D01*
X148139609Y-102573040D01*
X148441969Y-102573040D01*
X148441969Y-101966491D01*
X148447696Y-101802117D01*
X148459184Y-101737317D01*
X148482947Y-101693705D01*
X148519963Y-101659996D01*
X148567456Y-101638929D01*
X148629213Y-101631337D01*
X148701129Y-101640701D01*
X148763660Y-101668074D01*
X148814193Y-101713271D01*
X148850309Y-101778959D01*
X148869726Y-101862065D01*
X148877718Y-101997843D01*
X148877718Y-102573040D01*
X149180079Y-102573040D01*
X149180079Y-100991225D01*
X148877718Y-100991225D01*
G37*
G36*
X147507200Y-101407952D02*
G01*
X147604972Y-101438405D01*
X147692766Y-101488569D01*
X147772333Y-101559978D01*
X147834904Y-101644858D01*
X147881089Y-101745796D01*
X147910386Y-101865939D01*
X147920820Y-102009287D01*
X147913079Y-102129383D01*
X147891007Y-102234285D01*
X147855782Y-102326250D01*
X147807820Y-102407145D01*
X147746101Y-102476387D01*
X147673155Y-102530336D01*
X147587375Y-102569952D01*
X147486301Y-102594951D01*
X147366781Y-102603814D01*
X147243961Y-102593258D01*
X147140649Y-102563422D01*
X147053169Y-102515722D01*
X146978541Y-102449722D01*
X146917446Y-102365268D01*
X146869676Y-102259139D01*
X147170882Y-102209899D01*
X147203249Y-102285367D01*
X147244068Y-102332036D01*
X147297014Y-102360101D01*
X147363512Y-102369927D01*
X147429859Y-102361482D01*
X147487193Y-102336890D01*
X147537773Y-102295395D01*
X147575631Y-102241722D01*
X147600467Y-102173514D01*
X147610959Y-102086801D01*
X146853519Y-102086801D01*
X146858186Y-101940886D01*
X146863981Y-101902153D01*
X147153667Y-101902153D01*
X147605573Y-101902153D01*
X147598299Y-101821077D01*
X147576731Y-101756282D01*
X147542101Y-101704234D01*
X147495055Y-101663615D01*
X147441283Y-101639595D01*
X147378514Y-101631337D01*
X147319802Y-101639049D01*
X147268088Y-101661721D01*
X147221468Y-101700387D01*
X147186869Y-101750252D01*
X147163701Y-101815986D01*
X147153667Y-101902153D01*
X146863981Y-101902153D01*
X146876362Y-101819410D01*
X146905958Y-101718680D01*
X146945558Y-101635465D01*
X146994505Y-101567095D01*
X147073762Y-101493711D01*
X147165422Y-101441286D01*
X147271945Y-101408840D01*
X147396883Y-101397450D01*
X147507200Y-101407952D01*
G37*
G36*
X146318329Y-102573040D02*
G01*
X146620690Y-102573040D01*
X146620690Y-101428224D01*
X146339872Y-101428224D01*
X146339872Y-101590657D01*
X146265685Y-101487880D01*
X146210234Y-101436495D01*
X146149156Y-101407331D01*
X146079538Y-101397450D01*
X146012178Y-101403651D01*
X145946146Y-101422372D01*
X145880465Y-101454383D01*
X145974039Y-101717698D01*
X146050724Y-101679602D01*
X146116083Y-101668266D01*
X146175514Y-101677352D01*
X146223697Y-101703561D01*
X146260588Y-101748596D01*
X146293036Y-101830987D01*
X146310151Y-101948097D01*
X146318329Y-102217208D01*
X146318329Y-102573040D01*
G37*
G36*
X145425298Y-101407952D02*
G01*
X145523071Y-101438405D01*
X145610865Y-101488569D01*
X145690431Y-101559978D01*
X145753002Y-101644858D01*
X145799187Y-101745796D01*
X145828485Y-101865939D01*
X145838919Y-102009287D01*
X145831178Y-102129383D01*
X145809105Y-102234285D01*
X145773881Y-102326250D01*
X145725918Y-102407145D01*
X145664200Y-102476387D01*
X145591253Y-102530336D01*
X145505473Y-102569952D01*
X145404399Y-102594951D01*
X145284880Y-102603814D01*
X145162059Y-102593258D01*
X145058748Y-102563422D01*
X144971267Y-102515722D01*
X144896640Y-102449722D01*
X144835544Y-102365268D01*
X144787774Y-102259139D01*
X145088980Y-102209899D01*
X145121347Y-102285367D01*
X145162166Y-102332036D01*
X145215112Y-102360101D01*
X145281610Y-102369927D01*
X145347957Y-102361482D01*
X145405291Y-102336890D01*
X145455871Y-102295395D01*
X145493729Y-102241722D01*
X145518566Y-102173514D01*
X145529057Y-102086801D01*
X144771617Y-102086801D01*
X144776284Y-101940886D01*
X144782080Y-101902153D01*
X145071766Y-101902153D01*
X145523672Y-101902153D01*
X145516397Y-101821077D01*
X145494830Y-101756282D01*
X145460199Y-101704234D01*
X145413154Y-101663615D01*
X145359382Y-101639595D01*
X145296613Y-101631337D01*
X145237901Y-101639049D01*
X145186187Y-101661721D01*
X145139566Y-101700387D01*
X145104967Y-101750252D01*
X145081799Y-101815986D01*
X145071766Y-101902153D01*
X144782080Y-101902153D01*
X144794461Y-101819410D01*
X144824056Y-101718680D01*
X144863657Y-101635465D01*
X144912603Y-101567095D01*
X144991861Y-101493711D01*
X145083521Y-101441286D01*
X145190043Y-101408840D01*
X145314981Y-101397450D01*
X145425298Y-101407952D01*
G37*
G36*
X144193538Y-101403604D02*
G01*
X144285025Y-101420429D01*
X144357766Y-101445944D01*
X144415113Y-101478906D01*
X144480826Y-101540384D01*
X144534000Y-101622516D01*
X144574275Y-101729815D01*
X144299900Y-101779055D01*
X144265474Y-101705879D01*
X144226811Y-101664131D01*
X144175750Y-101640344D01*
X144100923Y-101631337D01*
X144021389Y-101636817D01*
X143970014Y-101650517D01*
X143938491Y-101669517D01*
X143915964Y-101698050D01*
X143901056Y-101739161D01*
X143895407Y-101797327D01*
X143895407Y-101828294D01*
X143994034Y-101860197D01*
X144189112Y-101902923D01*
X144336196Y-101938322D01*
X144429538Y-101973800D01*
X144481442Y-102005094D01*
X144524345Y-102043829D01*
X144559176Y-102090551D01*
X144584634Y-102143084D01*
X144600117Y-102200566D01*
X144605434Y-102264139D01*
X144598824Y-102335874D01*
X144579692Y-102399347D01*
X144548285Y-102456191D01*
X144503782Y-102507547D01*
X144450422Y-102548368D01*
X144387598Y-102578275D01*
X144313472Y-102597129D01*
X144225657Y-102603814D01*
X144128070Y-102594104D01*
X144037355Y-102565346D01*
X143953068Y-102518150D01*
X143871653Y-102449941D01*
X143860881Y-102484947D01*
X143831838Y-102573040D01*
X143532747Y-102573040D01*
X143567002Y-102491182D01*
X143587084Y-102418782D01*
X143597290Y-102336810D01*
X143601605Y-102195281D01*
X143600626Y-102085743D01*
X143895407Y-102085743D01*
X143899136Y-102186184D01*
X143907236Y-102233846D01*
X143933409Y-102288035D01*
X143979364Y-102334344D01*
X144030878Y-102364924D01*
X144082527Y-102382576D01*
X144135352Y-102388392D01*
X144182239Y-102382995D01*
X144221857Y-102367513D01*
X144255854Y-102341941D01*
X144282400Y-102308610D01*
X144297919Y-102272249D01*
X144303170Y-102231634D01*
X144296749Y-102191384D01*
X144277639Y-102156257D01*
X144244025Y-102124692D01*
X144193717Y-102101866D01*
X144079381Y-102071702D01*
X143895407Y-102025252D01*
X143895407Y-102085743D01*
X143600626Y-102085743D01*
X143598432Y-101840219D01*
X143604386Y-101706368D01*
X143619125Y-101620127D01*
X143638824Y-101567960D01*
X143670554Y-101523249D01*
X143716070Y-101482513D01*
X143778175Y-101445631D01*
X143846348Y-101421188D01*
X143943877Y-101404044D01*
X144079381Y-101397450D01*
X144193538Y-101403604D01*
G37*
G36*
X143300976Y-102573040D02*
G01*
X143300976Y-100991225D01*
X142998712Y-100991225D01*
X142998712Y-102573040D01*
X143300976Y-102573040D01*
G37*
G36*
X141942951Y-101556708D02*
G01*
X142018486Y-101485179D01*
X142097915Y-101436217D01*
X142182537Y-101407240D01*
X142274355Y-101397450D01*
X142375599Y-101407277D01*
X142465446Y-101435811D01*
X142546281Y-101482917D01*
X142619703Y-101550169D01*
X142676296Y-101629556D01*
X142718890Y-101727592D01*
X142746414Y-101848215D01*
X142756362Y-101996304D01*
X142746385Y-102140251D01*
X142718483Y-102260169D01*
X142674756Y-102360157D01*
X142615953Y-102443498D01*
X142540134Y-102515250D01*
X142459676Y-102564564D01*
X142373223Y-102593874D01*
X142278682Y-102603814D01*
X142183506Y-102591567D01*
X142086630Y-102553517D01*
X142026905Y-102515356D01*
X141971979Y-102466310D01*
X141921505Y-102405222D01*
X141921505Y-102573040D01*
X141640687Y-102573040D01*
X141640687Y-102008903D01*
X141941893Y-102008903D01*
X141951399Y-102126997D01*
X141976807Y-102214841D01*
X142015079Y-102279431D01*
X142068767Y-102330765D01*
X142127180Y-102360100D01*
X142192610Y-102369927D01*
X142254709Y-102362349D01*
X142308263Y-102340356D01*
X142355347Y-102303479D01*
X142396972Y-102249233D01*
X142422480Y-102190804D01*
X142440530Y-102103943D01*
X142447558Y-101979186D01*
X142438159Y-101865567D01*
X142412993Y-101780934D01*
X142374949Y-101718564D01*
X142321722Y-101669465D01*
X142262449Y-101640989D01*
X142194725Y-101631337D01*
X142125059Y-101641227D01*
X142065354Y-101670163D01*
X142012963Y-101719718D01*
X141976636Y-101783024D01*
X141951565Y-101876004D01*
X141941893Y-102008903D01*
X141640687Y-102008903D01*
X141640687Y-100991225D01*
X141942951Y-100991225D01*
X141942951Y-101556708D01*
G37*
G36*
X141052796Y-102573040D02*
G01*
X141355156Y-102573040D01*
X141355156Y-101428224D01*
X141074338Y-101428224D01*
X141074338Y-101590657D01*
X141000151Y-101487880D01*
X140944700Y-101436495D01*
X140883622Y-101407331D01*
X140814004Y-101397450D01*
X140746644Y-101403651D01*
X140680613Y-101422372D01*
X140614931Y-101454383D01*
X140708505Y-101717698D01*
X140785190Y-101679602D01*
X140850549Y-101668266D01*
X140909980Y-101677352D01*
X140958164Y-101703561D01*
X140995054Y-101748596D01*
X141027503Y-101830987D01*
X141044617Y-101948097D01*
X141052796Y-102217208D01*
X141052796Y-102573040D01*
G37*
G36*
X140159764Y-101407952D02*
G01*
X140257537Y-101438405D01*
X140345331Y-101488569D01*
X140424898Y-101559978D01*
X140487468Y-101644858D01*
X140533653Y-101745796D01*
X140562951Y-101865939D01*
X140573385Y-102009287D01*
X140565644Y-102129383D01*
X140543571Y-102234285D01*
X140508347Y-102326250D01*
X140460384Y-102407145D01*
X140398666Y-102476387D01*
X140325719Y-102530336D01*
X140239940Y-102569952D01*
X140138866Y-102594951D01*
X140019346Y-102603814D01*
X139896526Y-102593258D01*
X139793214Y-102563422D01*
X139705734Y-102515722D01*
X139631106Y-102449722D01*
X139570010Y-102365268D01*
X139522240Y-102259139D01*
X139823446Y-102209899D01*
X139855813Y-102285367D01*
X139896632Y-102332036D01*
X139949578Y-102360101D01*
X140016076Y-102369927D01*
X140082424Y-102361482D01*
X140139757Y-102336890D01*
X140190337Y-102295395D01*
X140228195Y-102241722D01*
X140253032Y-102173514D01*
X140263523Y-102086801D01*
X139506083Y-102086801D01*
X139510751Y-101940886D01*
X139516546Y-101902153D01*
X139806232Y-101902153D01*
X140258138Y-101902153D01*
X140250864Y-101821077D01*
X140229296Y-101756282D01*
X140194665Y-101704234D01*
X140147620Y-101663615D01*
X140093848Y-101639595D01*
X140031079Y-101631337D01*
X139972367Y-101639049D01*
X139920653Y-101661721D01*
X139874032Y-101700387D01*
X139839433Y-101750252D01*
X139816265Y-101815986D01*
X139806232Y-101902153D01*
X139516546Y-101902153D01*
X139528927Y-101819410D01*
X139558522Y-101718680D01*
X139598123Y-101635465D01*
X139647070Y-101567095D01*
X139726327Y-101493711D01*
X139817987Y-101441286D01*
X139924509Y-101408840D01*
X140049447Y-101397450D01*
X140159764Y-101407952D01*
G37*
G36*
X138945619Y-101407192D02*
G01*
X139034727Y-101435584D01*
X139115641Y-101482648D01*
X139189874Y-101550073D01*
X139247319Y-101629558D01*
X139290369Y-101727023D01*
X139318083Y-101846209D01*
X139328072Y-101991784D01*
X139320876Y-102107077D01*
X139300312Y-102208455D01*
X139267441Y-102297919D01*
X139222669Y-102377140D01*
X139163418Y-102449293D01*
X139098341Y-102503452D01*
X139026732Y-102541711D01*
X138947224Y-102565004D01*
X138857893Y-102573040D01*
X138759899Y-102561446D01*
X138671802Y-102527305D01*
X138590931Y-102469473D01*
X138515815Y-102384160D01*
X138515815Y-102553036D01*
X138520169Y-102647440D01*
X138529759Y-102693637D01*
X138555880Y-102740677D01*
X138590058Y-102770959D01*
X138631280Y-102789434D01*
X138688855Y-102802107D01*
X138767589Y-102806926D01*
X138852349Y-102797060D01*
X138903094Y-102772401D01*
X138927316Y-102741111D01*
X138942908Y-102683828D01*
X139288257Y-102646899D01*
X139289315Y-102684020D01*
X139281588Y-102758705D01*
X139259080Y-102825112D01*
X139221668Y-102885095D01*
X139167755Y-102939834D01*
X139105617Y-102979612D01*
X139020550Y-103011263D01*
X138906354Y-103032752D01*
X138755664Y-103040813D01*
X138608899Y-103031886D01*
X138501293Y-103008404D01*
X138408337Y-102968410D01*
X138340495Y-102918773D01*
X138288379Y-102853153D01*
X138246825Y-102761053D01*
X138230000Y-102692654D01*
X138218058Y-102594256D01*
X138213454Y-102457539D01*
X138213454Y-101982360D01*
X138510429Y-101982360D01*
X138520203Y-102093724D01*
X138546543Y-102177444D01*
X138586788Y-102239904D01*
X138642364Y-102288751D01*
X138703986Y-102317195D01*
X138774033Y-102326843D01*
X138838995Y-102317506D01*
X138896161Y-102289885D01*
X138947813Y-102242116D01*
X138984213Y-102181270D01*
X139008842Y-102094929D01*
X139018210Y-101974762D01*
X139008994Y-101860611D01*
X138984502Y-101776814D01*
X138947813Y-101716159D01*
X138896028Y-101668665D01*
X138837153Y-101640850D01*
X138768647Y-101631337D01*
X138697996Y-101641042D01*
X138637180Y-101669414D01*
X138583615Y-101717794D01*
X138545453Y-101779756D01*
X138520004Y-101865461D01*
X138510429Y-101982360D01*
X138213454Y-101982360D01*
X138213454Y-101428224D01*
X138496388Y-101428224D01*
X138496388Y-101585656D01*
X138572485Y-101500986D01*
X138654905Y-101443305D01*
X138745189Y-101409100D01*
X138846064Y-101397450D01*
X138945619Y-101407192D01*
G37*
G36*
X138075353Y-102597659D02*
G01*
X137684708Y-100966605D01*
X137457745Y-100966605D01*
X137852622Y-102597659D01*
X138075353Y-102597659D01*
G37*
G36*
X136969200Y-101403604D02*
G01*
X137060688Y-101420429D01*
X137133429Y-101445944D01*
X137190776Y-101478906D01*
X137256489Y-101540384D01*
X137309663Y-101622516D01*
X137349938Y-101729815D01*
X137075563Y-101779055D01*
X137041137Y-101705879D01*
X137002474Y-101664131D01*
X136951413Y-101640344D01*
X136876586Y-101631337D01*
X136797052Y-101636817D01*
X136745677Y-101650517D01*
X136714154Y-101669517D01*
X136691627Y-101698050D01*
X136676719Y-101739161D01*
X136671070Y-101797327D01*
X136671070Y-101828294D01*
X136769697Y-101860197D01*
X136964775Y-101902923D01*
X137111859Y-101938322D01*
X137205201Y-101973800D01*
X137257105Y-102005094D01*
X137300007Y-102043829D01*
X137334839Y-102090551D01*
X137360297Y-102143084D01*
X137375780Y-102200566D01*
X137381097Y-102264139D01*
X137374487Y-102335874D01*
X137355355Y-102399347D01*
X137323948Y-102456191D01*
X137279445Y-102507547D01*
X137226085Y-102548368D01*
X137163261Y-102578275D01*
X137089135Y-102597129D01*
X137001320Y-102603814D01*
X136903732Y-102594104D01*
X136813018Y-102565346D01*
X136728731Y-102518150D01*
X136647316Y-102449941D01*
X136636544Y-102484947D01*
X136607501Y-102573040D01*
X136308410Y-102573040D01*
X136342665Y-102491182D01*
X136362747Y-102418782D01*
X136372953Y-102336810D01*
X136377268Y-102195281D01*
X136376289Y-102085743D01*
X136671070Y-102085743D01*
X136674799Y-102186184D01*
X136682899Y-102233846D01*
X136709072Y-102288035D01*
X136755027Y-102334344D01*
X136806541Y-102364924D01*
X136858190Y-102382576D01*
X136911015Y-102388392D01*
X136957901Y-102382995D01*
X136997520Y-102367513D01*
X137031517Y-102341941D01*
X137058063Y-102308610D01*
X137073582Y-102272249D01*
X137078833Y-102231634D01*
X137072412Y-102191384D01*
X137053302Y-102156257D01*
X137019688Y-102124692D01*
X136969380Y-102101866D01*
X136855044Y-102071702D01*
X136671070Y-102025252D01*
X136671070Y-102085743D01*
X136376289Y-102085743D01*
X136374095Y-101840219D01*
X136380049Y-101706368D01*
X136394788Y-101620127D01*
X136414486Y-101567960D01*
X136446217Y-101523249D01*
X136491733Y-101482513D01*
X136553838Y-101445631D01*
X136622011Y-101421188D01*
X136719540Y-101404044D01*
X136855044Y-101397450D01*
X136969200Y-101403604D01*
G37*
G36*
X136089622Y-102573040D02*
G01*
X135808804Y-102573040D01*
X135808804Y-102405222D01*
X135759149Y-102464954D01*
X135704581Y-102513682D01*
X135644737Y-102552363D01*
X135579764Y-102581373D01*
X135515673Y-102598259D01*
X135451626Y-102603814D01*
X135355886Y-102593844D01*
X135268878Y-102564534D01*
X135188448Y-102515381D01*
X135113202Y-102444075D01*
X135055222Y-102361168D01*
X135011794Y-102260229D01*
X134983886Y-102137589D01*
X134975134Y-102007749D01*
X135283712Y-102007749D01*
X135293123Y-102131511D01*
X135317825Y-102220293D01*
X135354205Y-102282700D01*
X135405967Y-102332226D01*
X135462075Y-102360478D01*
X135524716Y-102369927D01*
X135586210Y-102362345D01*
X135640385Y-102340140D01*
X135689138Y-102302588D01*
X135733406Y-102247021D01*
X135762042Y-102186216D01*
X135781809Y-102099607D01*
X135789377Y-101979186D01*
X135779979Y-101864050D01*
X135754949Y-101779210D01*
X135717346Y-101717506D01*
X135664465Y-101669135D01*
X135605020Y-101640937D01*
X135536545Y-101631337D01*
X135466878Y-101641227D01*
X135407174Y-101670163D01*
X135354782Y-101719718D01*
X135318420Y-101783006D01*
X135293365Y-101875657D01*
X135283712Y-102007749D01*
X134975134Y-102007749D01*
X134973851Y-101988707D01*
X134983699Y-101844841D01*
X135011065Y-101726648D01*
X135053639Y-101629628D01*
X135110509Y-101550169D01*
X135183932Y-101482917D01*
X135264766Y-101435811D01*
X135354614Y-101407277D01*
X135455858Y-101397450D01*
X135547675Y-101407240D01*
X135632297Y-101436217D01*
X135711726Y-101485179D01*
X135787262Y-101556708D01*
X135787262Y-100991225D01*
X136089622Y-100991225D01*
X136089622Y-102573040D01*
G37*
G36*
X133984640Y-101556708D02*
G01*
X134060175Y-101485179D01*
X134139604Y-101436217D01*
X134224226Y-101407240D01*
X134316044Y-101397450D01*
X134417287Y-101407277D01*
X134507135Y-101435811D01*
X134587969Y-101482917D01*
X134661392Y-101550169D01*
X134717984Y-101629556D01*
X134760579Y-101727592D01*
X134788103Y-101848215D01*
X134798051Y-101996304D01*
X134788074Y-102140251D01*
X134760172Y-102260169D01*
X134716445Y-102360157D01*
X134657642Y-102443498D01*
X134581822Y-102515250D01*
X134501365Y-102564564D01*
X134414912Y-102593874D01*
X134320371Y-102603814D01*
X134225195Y-102591567D01*
X134128318Y-102553517D01*
X134068594Y-102515356D01*
X134013667Y-102466310D01*
X133963194Y-102405222D01*
X133963194Y-102573040D01*
X133682375Y-102573040D01*
X133682375Y-102008903D01*
X133983582Y-102008903D01*
X133993088Y-102126997D01*
X134018495Y-102214841D01*
X134056768Y-102279431D01*
X134110456Y-102330765D01*
X134168869Y-102360100D01*
X134234298Y-102369927D01*
X134296398Y-102362349D01*
X134349952Y-102340356D01*
X134397036Y-102303479D01*
X134438661Y-102249233D01*
X134464169Y-102190804D01*
X134482219Y-102103943D01*
X134489247Y-101979186D01*
X134479847Y-101865567D01*
X134454682Y-101780934D01*
X134416638Y-101718564D01*
X134363411Y-101669465D01*
X134304138Y-101640989D01*
X134236414Y-101631337D01*
X134166748Y-101641227D01*
X134107043Y-101670163D01*
X134054652Y-101719718D01*
X134018324Y-101783024D01*
X133993253Y-101876004D01*
X133983582Y-102008903D01*
X133682375Y-102008903D01*
X133682375Y-100991225D01*
X133984640Y-100991225D01*
X133984640Y-101556708D01*
G37*
G36*
X132631807Y-102573040D02*
G01*
X132631807Y-102401952D01*
X132677525Y-102458619D01*
X132731961Y-102507366D01*
X132795971Y-102548612D01*
X132865424Y-102579431D01*
X132936634Y-102597702D01*
X133010527Y-102603814D01*
X133085996Y-102597954D01*
X133154479Y-102580897D01*
X133217198Y-102552940D01*
X133273058Y-102514009D01*
X133316761Y-102466676D01*
X133349529Y-102410030D01*
X133370703Y-102347173D01*
X133385043Y-102263999D01*
X133390401Y-102155659D01*
X133390401Y-101428224D01*
X133088041Y-101428224D01*
X133088041Y-101955239D01*
X133082318Y-102174514D01*
X133071403Y-102251637D01*
X133047661Y-102300773D01*
X133010624Y-102338095D01*
X132962133Y-102361516D01*
X132898681Y-102369927D01*
X132824901Y-102359175D01*
X132759907Y-102327324D01*
X132707671Y-102278784D01*
X132675950Y-102221440D01*
X132660938Y-102135929D01*
X132653350Y-101912059D01*
X132653350Y-101428224D01*
X132350989Y-101428224D01*
X132350989Y-102573040D01*
X132631807Y-102573040D01*
G37*
G36*
X131041242Y-101754435D02*
G01*
X131339274Y-101809829D01*
X131354495Y-101753187D01*
X131377443Y-101709501D01*
X131407652Y-101676248D01*
X131445390Y-101651892D01*
X131490789Y-101636722D01*
X131545849Y-101631337D01*
X131617468Y-101640584D01*
X131676541Y-101667053D01*
X131726073Y-101711158D01*
X131760371Y-101768687D01*
X131784104Y-101854278D01*
X131793296Y-101977936D01*
X131783797Y-102116115D01*
X131759520Y-102210125D01*
X131725015Y-102271833D01*
X131674283Y-102319460D01*
X131614140Y-102347776D01*
X131541521Y-102357617D01*
X131486070Y-102351726D01*
X131439762Y-102334978D01*
X131400631Y-102307705D01*
X131370188Y-102270652D01*
X131343922Y-102215351D01*
X131323118Y-102136040D01*
X131026143Y-102185280D01*
X131056332Y-102287126D01*
X131096297Y-102371619D01*
X131145386Y-102441308D01*
X131203674Y-102498123D01*
X131271482Y-102542586D01*
X131351166Y-102575521D01*
X131444925Y-102596401D01*
X131555466Y-102603814D01*
X131678677Y-102593069D01*
X131784352Y-102562432D01*
X131875762Y-102512996D01*
X131955247Y-102444075D01*
X132018113Y-102360418D01*
X132064427Y-102261010D01*
X132093771Y-102142756D01*
X132104215Y-102001690D01*
X132093683Y-101858903D01*
X132064154Y-101739752D01*
X132017656Y-101640098D01*
X131954670Y-101556708D01*
X131875015Y-101488196D01*
X131782843Y-101438887D01*
X131675697Y-101408229D01*
X131550176Y-101397450D01*
X131444739Y-101403743D01*
X131355912Y-101421372D01*
X131281122Y-101448920D01*
X131218195Y-101485638D01*
X131145996Y-101552086D01*
X131086928Y-101640189D01*
X131041242Y-101754435D01*
G37*
G36*
X130288706Y-101428224D02*
G01*
X130288706Y-101668266D01*
X130495281Y-101668266D01*
X130495281Y-102133155D01*
X130489415Y-102297703D01*
X130479822Y-102318855D01*
X130462487Y-102336267D01*
X130439710Y-102347514D01*
X130411324Y-102351462D01*
X130365470Y-102345474D01*
X130289764Y-102322419D01*
X130263991Y-102558325D01*
X130335588Y-102583120D01*
X130414815Y-102598488D01*
X130502878Y-102603814D01*
X130581858Y-102596653D01*
X130650308Y-102576117D01*
X130708916Y-102543042D01*
X130746575Y-102504470D01*
X130771499Y-102455476D01*
X130788986Y-102385699D01*
X130795588Y-102319080D01*
X130798699Y-102170758D01*
X130798699Y-101668266D01*
X130937473Y-101668266D01*
X130937473Y-101428224D01*
X130798699Y-101428224D01*
X130798699Y-101206647D01*
X130495281Y-101028155D01*
X130495281Y-101428224D01*
X130288706Y-101428224D01*
G37*
G36*
X129670100Y-101406037D02*
G01*
X129770875Y-101431138D01*
X129864113Y-101472463D01*
X129947788Y-101529804D01*
X130017533Y-101601720D01*
X130074438Y-101689809D01*
X130116042Y-101786841D01*
X130140543Y-101884609D01*
X130148682Y-101984283D01*
X130139721Y-102115245D01*
X130114434Y-102226709D01*
X130074438Y-102321842D01*
X130017300Y-102406817D01*
X129945575Y-102476452D01*
X129857670Y-102532071D01*
X129760532Y-102572075D01*
X129661023Y-102595854D01*
X129558002Y-102603814D01*
X129434001Y-102592594D01*
X129324167Y-102560123D01*
X129225742Y-102506877D01*
X129136775Y-102431573D01*
X129064028Y-102340561D01*
X129012215Y-102239330D01*
X128980448Y-102125853D01*
X128969529Y-101998420D01*
X129280357Y-101998420D01*
X129290527Y-102112661D01*
X129318111Y-102199697D01*
X129360564Y-102265678D01*
X129418968Y-102317245D01*
X129484268Y-102347367D01*
X129559060Y-102357617D01*
X129633874Y-102347379D01*
X129699375Y-102317264D01*
X129758133Y-102265678D01*
X129800944Y-102199695D01*
X129828642Y-102113313D01*
X129838820Y-102000632D01*
X129828640Y-101887952D01*
X129800940Y-101801606D01*
X129758133Y-101735682D01*
X129699368Y-101684037D01*
X129633867Y-101653894D01*
X129559060Y-101643647D01*
X129484275Y-101653906D01*
X129418975Y-101684056D01*
X129360564Y-101735682D01*
X129317944Y-101801530D01*
X129290440Y-101887217D01*
X129280357Y-101998420D01*
X128969529Y-101998420D01*
X128969438Y-101997362D01*
X128980354Y-101869933D01*
X129011829Y-101757549D01*
X129063137Y-101657438D01*
X129135140Y-101567576D01*
X129223188Y-101493586D01*
X129321821Y-101440955D01*
X129433149Y-101408665D01*
X129560118Y-101397450D01*
X129670100Y-101406037D01*
G37*
G36*
X128442904Y-102573040D02*
G01*
X128745264Y-102573040D01*
X128745264Y-101428224D01*
X128464446Y-101428224D01*
X128464446Y-101590657D01*
X128390260Y-101487880D01*
X128334808Y-101436495D01*
X128273730Y-101407331D01*
X128204112Y-101397450D01*
X128136752Y-101403651D01*
X128070721Y-101422372D01*
X128005039Y-101454383D01*
X128098613Y-101717698D01*
X128175299Y-101679602D01*
X128240657Y-101668266D01*
X128300088Y-101677352D01*
X128348272Y-101703561D01*
X128385162Y-101748596D01*
X128417611Y-101830987D01*
X128434725Y-101948097D01*
X128442904Y-102217208D01*
X128442904Y-102573040D01*
G37*
G36*
X151489318Y-86073039D02*
G01*
X150952494Y-86073039D01*
X150675262Y-86068395D01*
X150568388Y-86062267D01*
X150485692Y-86047020D01*
X150415112Y-86021810D01*
X150354793Y-85987254D01*
X150301551Y-85942444D01*
X150256113Y-85888426D01*
X150218135Y-85824149D01*
X150190127Y-85754758D01*
X150173612Y-85684996D01*
X150168126Y-85614112D01*
X150169503Y-85600360D01*
X150497318Y-85600360D01*
X150502735Y-85655064D01*
X150517876Y-85699297D01*
X150542038Y-85735287D01*
X150592733Y-85775996D01*
X150657635Y-85798664D01*
X150719262Y-85805141D01*
X150876038Y-85808377D01*
X151170801Y-85808377D01*
X151170801Y-85383687D01*
X150913641Y-85383687D01*
X150715136Y-85391120D01*
X150631284Y-85406480D01*
X150573041Y-85436571D01*
X150531747Y-85479089D01*
X150506289Y-85533049D01*
X150497318Y-85600360D01*
X150169503Y-85600360D01*
X150177015Y-85525325D01*
X150202855Y-85446508D01*
X150245640Y-85375513D01*
X150303103Y-85315703D01*
X150376004Y-85267811D01*
X150467217Y-85231834D01*
X150403441Y-85195538D01*
X150349806Y-85149429D01*
X150305266Y-85092771D01*
X150272040Y-85028808D01*
X150252235Y-84961287D01*
X150249780Y-84934763D01*
X150555405Y-84934763D01*
X150560927Y-84983532D01*
X150576606Y-85023803D01*
X150602240Y-85057477D01*
X150655913Y-85093986D01*
X150730724Y-85113640D01*
X150962111Y-85119026D01*
X151170801Y-85119026D01*
X151170801Y-84755886D01*
X150987885Y-84755886D01*
X150715722Y-84761271D01*
X150664671Y-84772453D01*
X150625515Y-84791046D01*
X150595797Y-84816473D01*
X150565976Y-84867426D01*
X150555405Y-84934763D01*
X150249780Y-84934763D01*
X150245544Y-84888986D01*
X150251080Y-84822041D01*
X150267275Y-84760794D01*
X150294014Y-84704146D01*
X150349074Y-84629194D01*
X150414996Y-84572104D01*
X150491863Y-84531228D01*
X150579640Y-84506900D01*
X150683540Y-84495848D01*
X150858824Y-84491224D01*
X151489318Y-84491224D01*
X151489318Y-86073039D01*
G37*
G36*
X150059646Y-86073039D02*
G01*
X149721798Y-86073039D01*
X149591583Y-85716053D01*
X148961185Y-85716053D01*
X148823469Y-86073039D01*
X148476966Y-86073039D01*
X148725163Y-85451392D01*
X149063318Y-85451392D01*
X149493682Y-85451392D01*
X149280664Y-84860519D01*
X149063318Y-85451392D01*
X148725163Y-85451392D01*
X149108518Y-84491224D01*
X149445308Y-84491224D01*
X150059646Y-86073039D01*
G37*
G36*
X147299068Y-85488321D02*
G01*
X146990264Y-85586800D01*
X147034325Y-85714398D01*
X147088744Y-85819008D01*
X147152772Y-85903974D01*
X147226459Y-85971867D01*
X147311608Y-86025399D01*
X147408401Y-86064572D01*
X147518861Y-86089071D01*
X147645475Y-86097658D01*
X147769749Y-86088614D01*
X147881769Y-86062402D01*
X147983513Y-86019716D01*
X148076559Y-85960308D01*
X148162007Y-85883005D01*
X148232453Y-85794411D01*
X148288166Y-85693456D01*
X148329303Y-85578353D01*
X148355169Y-85446801D01*
X148364254Y-85296076D01*
X148354954Y-85135703D01*
X148328623Y-84997247D01*
X148287033Y-84877581D01*
X148231122Y-84774043D01*
X148160949Y-84684527D01*
X148075224Y-84606651D01*
X147980418Y-84546436D01*
X147875253Y-84502878D01*
X147757914Y-84475950D01*
X147626144Y-84466604D01*
X147483262Y-84478127D01*
X147359350Y-84511056D01*
X147251085Y-84564123D01*
X147155966Y-84637692D01*
X147092991Y-84710924D01*
X147038919Y-84806260D01*
X146994592Y-84928223D01*
X147309839Y-85002082D01*
X147335936Y-84924586D01*
X147374757Y-84860787D01*
X147426590Y-84808491D01*
X147489039Y-84769463D01*
X147560180Y-84745682D01*
X147642301Y-84737421D01*
X147727562Y-84745652D01*
X147802095Y-84769399D01*
X147868077Y-84808352D01*
X147926966Y-84863693D01*
X147970700Y-84928657D01*
X148004842Y-85014729D01*
X148027657Y-85127196D01*
X148036120Y-85272418D01*
X148027593Y-85427559D01*
X148004801Y-85545737D01*
X147971092Y-85634352D01*
X147928505Y-85699608D01*
X147870316Y-85755541D01*
X147805354Y-85794761D01*
X147732213Y-85818595D01*
X147648744Y-85826842D01*
X147567228Y-85817572D01*
X147495187Y-85790517D01*
X147430341Y-85745193D01*
X147378244Y-85685055D01*
X147334057Y-85601455D01*
X147299068Y-85488321D01*
G37*
G36*
X146712908Y-86073039D02*
G01*
X146712908Y-84491224D01*
X146394487Y-84491224D01*
X146394487Y-85189904D01*
X145751106Y-84491224D01*
X145322858Y-84491224D01*
X145916808Y-85106139D01*
X145290545Y-86073039D01*
X145702636Y-86073039D01*
X146136269Y-85331852D01*
X146394487Y-85596225D01*
X146394487Y-86073039D01*
X146712908Y-86073039D01*
G37*
D11*
%TO.C,G\u002A\u002A\u002A*%
G36*
X169038639Y-121230029D02*
G01*
X169038474Y-121387918D01*
X169038112Y-121521762D01*
X169037507Y-121633534D01*
X169036612Y-121725209D01*
X169035379Y-121798762D01*
X169033760Y-121856167D01*
X169031708Y-121899398D01*
X169029176Y-121930431D01*
X169026116Y-121951240D01*
X169022482Y-121963798D01*
X169018225Y-121970082D01*
X169012115Y-121977429D01*
X169005152Y-121997409D01*
X169000751Y-122031694D01*
X168998449Y-122084592D01*
X168997785Y-122160411D01*
X168997710Y-122198262D01*
X168996815Y-122259700D01*
X168994347Y-122301375D01*
X168989608Y-122328348D01*
X168981902Y-122345682D01*
X168970531Y-122358441D01*
X168964660Y-122364228D01*
X168953610Y-122381345D01*
X168947116Y-122406986D01*
X168944049Y-122447384D01*
X168943278Y-122508777D01*
X168942771Y-122554141D01*
X168939714Y-122604313D01*
X168933296Y-122635156D01*
X168922838Y-122651413D01*
X168918580Y-122655850D01*
X168906395Y-122688744D01*
X168902398Y-122746355D01*
X168900357Y-122793111D01*
X168892020Y-122826520D01*
X168875145Y-122848998D01*
X168864312Y-122860919D01*
X168854139Y-122883524D01*
X168849191Y-122918837D01*
X168847892Y-122974090D01*
X168846647Y-123024892D01*
X168840335Y-123070668D01*
X168825873Y-123114602D01*
X168800199Y-123169224D01*
X168796908Y-123175805D01*
X168770201Y-123236069D01*
X168756420Y-123286247D01*
X168752506Y-123337104D01*
X168751036Y-123374788D01*
X168742818Y-123410909D01*
X168725252Y-123434943D01*
X168707965Y-123458926D01*
X168697999Y-123505739D01*
X168690772Y-123547994D01*
X168672169Y-123588794D01*
X168669785Y-123592647D01*
X168656058Y-123624437D01*
X168638874Y-123675313D01*
X168620193Y-123739113D01*
X168601972Y-123809674D01*
X168599007Y-123821893D01*
X168581345Y-123890460D01*
X168563308Y-123950498D01*
X168542376Y-124008508D01*
X168516031Y-124070989D01*
X168481755Y-124144440D01*
X168437029Y-124235363D01*
X168413925Y-124282114D01*
X168370428Y-124373674D01*
X168340063Y-124443782D01*
X168322262Y-124493805D01*
X168316454Y-124525110D01*
X168313923Y-124543131D01*
X168299851Y-124588315D01*
X168275775Y-124648133D01*
X168244367Y-124717250D01*
X168208298Y-124790333D01*
X168170239Y-124862046D01*
X168132861Y-124927056D01*
X168098834Y-124980028D01*
X168070831Y-125015629D01*
X168056011Y-125032611D01*
X168013901Y-125097073D01*
X167975789Y-125179149D01*
X167961274Y-125213633D01*
X167922180Y-125287791D01*
X167881057Y-125342668D01*
X167880322Y-125343444D01*
X167836492Y-125403021D01*
X167805191Y-125471047D01*
X167802241Y-125479614D01*
X167770565Y-125544716D01*
X167728640Y-125602024D01*
X167707158Y-125627047D01*
X167684711Y-125658525D01*
X167676003Y-125678744D01*
X167669502Y-125693220D01*
X167648930Y-125726371D01*
X167616839Y-125773830D01*
X167575843Y-125831737D01*
X167528560Y-125896231D01*
X167467347Y-125980414D01*
X167415305Y-126057530D01*
X167380745Y-126116608D01*
X167363051Y-126158625D01*
X167348289Y-126195989D01*
X167309381Y-126261767D01*
X167250062Y-126341599D01*
X167228043Y-126369923D01*
X167195689Y-126415265D01*
X167162538Y-126466957D01*
X167126467Y-126528680D01*
X167085355Y-126604114D01*
X167037080Y-126696938D01*
X166979519Y-126810834D01*
X166968730Y-126832427D01*
X166909147Y-126953629D01*
X166862964Y-127051400D01*
X166830090Y-127125945D01*
X166810433Y-127177473D01*
X166803900Y-127206188D01*
X166803463Y-127214354D01*
X166789095Y-127263099D01*
X166756207Y-127321577D01*
X166743545Y-127341234D01*
X166716804Y-127395922D01*
X166708514Y-127444217D01*
X166707727Y-127459143D01*
X166693942Y-127508668D01*
X166660821Y-127566856D01*
X166656797Y-127572916D01*
X166623836Y-127634768D01*
X166613128Y-127686445D01*
X166613046Y-127690681D01*
X166600422Y-127743131D01*
X166565435Y-127806033D01*
X166553846Y-127823955D01*
X166526326Y-127879545D01*
X166517742Y-127928218D01*
X166514517Y-127945631D01*
X166499933Y-127988116D01*
X166475187Y-128048480D01*
X166442033Y-128123226D01*
X166402226Y-128208858D01*
X166357520Y-128301878D01*
X166309670Y-128398790D01*
X166260430Y-128496097D01*
X166211554Y-128590301D01*
X166164796Y-128677907D01*
X166121911Y-128755416D01*
X166084652Y-128819333D01*
X166054776Y-128866160D01*
X166034035Y-128892400D01*
X166016949Y-128911394D01*
X165982888Y-128959152D01*
X165944183Y-129022855D01*
X165904451Y-129096799D01*
X165886611Y-129131368D01*
X165841172Y-129211523D01*
X165798777Y-129272971D01*
X165755841Y-129321126D01*
X165721537Y-129358095D01*
X165696086Y-129392989D01*
X165686519Y-129416977D01*
X165686493Y-129417791D01*
X165675994Y-129442282D01*
X165649528Y-129478128D01*
X165611572Y-129519224D01*
X165604652Y-129526149D01*
X165570123Y-129563732D01*
X165545816Y-129595260D01*
X165536626Y-129614510D01*
X165533168Y-129623608D01*
X165514064Y-129650598D01*
X165481995Y-129687941D01*
X165441240Y-129730436D01*
X165421366Y-129750678D01*
X165381860Y-129794846D01*
X165355466Y-129830395D01*
X165345853Y-129852628D01*
X165340683Y-129862876D01*
X165318288Y-129891382D01*
X165280420Y-129934445D01*
X165229526Y-129989617D01*
X165168055Y-130054450D01*
X165098455Y-130126493D01*
X165023174Y-130203298D01*
X164944661Y-130282416D01*
X164865364Y-130361397D01*
X164787731Y-130437794D01*
X164714211Y-130509156D01*
X164647252Y-130573035D01*
X164589302Y-130626982D01*
X164542809Y-130668548D01*
X164510223Y-130695283D01*
X164493990Y-130704739D01*
X164478523Y-130710720D01*
X164445050Y-130734636D01*
X164399247Y-130774391D01*
X164344297Y-130827378D01*
X164339353Y-130832328D01*
X164291774Y-130878216D01*
X164249944Y-130915616D01*
X164218228Y-130940795D01*
X164200990Y-130950018D01*
X164200456Y-130950038D01*
X164180223Y-130960052D01*
X164148579Y-130984859D01*
X164112133Y-131019304D01*
X164078024Y-131050513D01*
X164014552Y-131097896D01*
X163949126Y-131136711D01*
X163891549Y-131170541D01*
X163826318Y-131217005D01*
X163769753Y-131265011D01*
X163755883Y-131277933D01*
X163715316Y-131312264D01*
X163681358Y-131336200D01*
X163660228Y-131345189D01*
X163660019Y-131345192D01*
X163637884Y-131354701D01*
X163604705Y-131379152D01*
X163567581Y-131413323D01*
X163530828Y-131447012D01*
X163496108Y-131472008D01*
X163472241Y-131481456D01*
X163471427Y-131481481D01*
X163446937Y-131491980D01*
X163411091Y-131518446D01*
X163369995Y-131556402D01*
X163363053Y-131563340D01*
X163325511Y-131597861D01*
X163294065Y-131622161D01*
X163274919Y-131631348D01*
X163268959Y-131634046D01*
X163244779Y-131652633D01*
X163206178Y-131686547D01*
X163156147Y-131733040D01*
X163097677Y-131789367D01*
X163033760Y-131852781D01*
X162967826Y-131919322D01*
X162911379Y-131977309D01*
X162868161Y-132023785D01*
X162834981Y-132062767D01*
X162808647Y-132098273D01*
X162785969Y-132134319D01*
X162763755Y-132174925D01*
X162738814Y-132224106D01*
X162713271Y-132272942D01*
X162676510Y-132336335D01*
X162642376Y-132387860D01*
X162614997Y-132420958D01*
X162591902Y-132445195D01*
X162571577Y-132478834D01*
X162565999Y-132516344D01*
X162565999Y-132516538D01*
X162558863Y-132555883D01*
X162536652Y-132608523D01*
X162497866Y-132678011D01*
X162462267Y-132741343D01*
X162437715Y-132797597D01*
X162429759Y-132838351D01*
X162429003Y-132848141D01*
X162417228Y-132892691D01*
X162392104Y-132955971D01*
X162354813Y-133034889D01*
X162345665Y-133053341D01*
X162309640Y-133132034D01*
X162287442Y-133192444D01*
X162279866Y-133232475D01*
X162279535Y-133239012D01*
X162268855Y-133283450D01*
X162243719Y-133347831D01*
X162204920Y-133430061D01*
X162180852Y-133479370D01*
X162151631Y-133546226D01*
X162135149Y-133596577D01*
X162129973Y-133634327D01*
X162126998Y-133651748D01*
X162112729Y-133694842D01*
X162088363Y-133755402D01*
X162055782Y-133829653D01*
X162016864Y-133913821D01*
X161973491Y-134004130D01*
X161927543Y-134096807D01*
X161880901Y-134188076D01*
X161835445Y-134274162D01*
X161793056Y-134351293D01*
X161755613Y-134415691D01*
X161724998Y-134463584D01*
X161703091Y-134491197D01*
X161691107Y-134503869D01*
X161654164Y-134556974D01*
X161624116Y-134620649D01*
X161611739Y-134649951D01*
X161580929Y-134705125D01*
X161535801Y-134769375D01*
X161473343Y-134847228D01*
X161461810Y-134861118D01*
X161419351Y-134914372D01*
X161384946Y-134960826D01*
X161361874Y-134995894D01*
X161353414Y-135014989D01*
X161352684Y-135018005D01*
X161338967Y-135040188D01*
X161310156Y-135077584D01*
X161269231Y-135126926D01*
X161219174Y-135184946D01*
X161162964Y-135248377D01*
X161103584Y-135313952D01*
X161044012Y-135378403D01*
X160987231Y-135438463D01*
X160936220Y-135490863D01*
X160893961Y-135532338D01*
X160863434Y-135559619D01*
X160847620Y-135569438D01*
X160846645Y-135569548D01*
X160827321Y-135580027D01*
X160791667Y-135605648D01*
X160743230Y-135643636D01*
X160685558Y-135691220D01*
X160622200Y-135745625D01*
X160589349Y-135774230D01*
X160519218Y-135833851D01*
X160464302Y-135877820D01*
X160421439Y-135908462D01*
X160387469Y-135928102D01*
X160359231Y-135939064D01*
X160339605Y-135945952D01*
X160288534Y-135972578D01*
X160242898Y-136006464D01*
X160221329Y-136024568D01*
X160167470Y-136061766D01*
X160105529Y-136097157D01*
X160042919Y-136127030D01*
X159987056Y-136147676D01*
X159945355Y-136155383D01*
X159911748Y-136160336D01*
X159874770Y-136182636D01*
X159849231Y-136200737D01*
X159797371Y-136209889D01*
X159775780Y-136211847D01*
X159718487Y-136227667D01*
X159649931Y-136257582D01*
X159601362Y-136280698D01*
X159556832Y-136296392D01*
X159512010Y-136303564D01*
X159454353Y-136305275D01*
X159454252Y-136305275D01*
X159394026Y-136307289D01*
X159356283Y-136313842D01*
X159336519Y-136325715D01*
X159335057Y-136327276D01*
X159324529Y-136333309D01*
X159305180Y-136337945D01*
X159273937Y-136341356D01*
X159227729Y-136343711D01*
X159163484Y-136345183D01*
X159078132Y-136345941D01*
X158968600Y-136346155D01*
X158941786Y-136346145D01*
X158837942Y-136345824D01*
X158757588Y-136344921D01*
X158697654Y-136343266D01*
X158655067Y-136340689D01*
X158626758Y-136337018D01*
X158609653Y-136332084D01*
X158600682Y-136325715D01*
X158582403Y-136314321D01*
X158545127Y-136307407D01*
X158485299Y-136305275D01*
X158448380Y-136304783D01*
X158406842Y-136301229D01*
X158380564Y-136292849D01*
X158362216Y-136278022D01*
X158337928Y-136260508D01*
X158286826Y-136250769D01*
X158282134Y-136250689D01*
X158243895Y-136244233D01*
X158219137Y-136230329D01*
X158217538Y-136228593D01*
X158189117Y-136215006D01*
X158144634Y-136209889D01*
X158095624Y-136203642D01*
X158062431Y-136182636D01*
X158038441Y-136165351D01*
X157991883Y-136155383D01*
X157957982Y-136149571D01*
X157905460Y-136131174D01*
X157845323Y-136103907D01*
X157785221Y-136071598D01*
X157732803Y-136038075D01*
X157695718Y-136007165D01*
X157680695Y-135993641D01*
X157635984Y-135964623D01*
X157586705Y-135942967D01*
X157572328Y-135937866D01*
X157508763Y-135903457D01*
X157442025Y-135847217D01*
X157435266Y-135840723D01*
X157396660Y-135806783D01*
X157363937Y-135782879D01*
X157343577Y-135773838D01*
X157331589Y-135768467D01*
X157301415Y-135747138D01*
X157257880Y-135712444D01*
X157204403Y-135667476D01*
X157144407Y-135615327D01*
X157081312Y-135559088D01*
X157018538Y-135501852D01*
X156959506Y-135446711D01*
X156907638Y-135396756D01*
X156866355Y-135355080D01*
X156839076Y-135324774D01*
X156829222Y-135308930D01*
X156828358Y-135305659D01*
X156814472Y-135283099D01*
X156785722Y-135244828D01*
X156744801Y-135194208D01*
X156694405Y-135134602D01*
X156637226Y-135069371D01*
X156589793Y-135015887D01*
X156532756Y-134950025D01*
X156488382Y-134895814D01*
X156453095Y-134848346D01*
X156423317Y-134802715D01*
X156395471Y-134754014D01*
X156365977Y-134697335D01*
X156341695Y-134651081D01*
X156302151Y-134582694D01*
X156265860Y-134528081D01*
X156236431Y-134492936D01*
X156222339Y-134476382D01*
X156194131Y-134434547D01*
X156158465Y-134375034D01*
X156117231Y-134301610D01*
X156072318Y-134218045D01*
X156025614Y-134128108D01*
X155979008Y-134035566D01*
X155934390Y-133944189D01*
X155893648Y-133857745D01*
X155858672Y-133780002D01*
X155831351Y-133714728D01*
X155813573Y-133665694D01*
X155807227Y-133636666D01*
X155804887Y-133610919D01*
X155788849Y-133562858D01*
X155755244Y-133503713D01*
X155752928Y-133500104D01*
X155721007Y-133442379D01*
X155697838Y-133380046D01*
X155679156Y-133301782D01*
X155661106Y-133225700D01*
X155638482Y-133164102D01*
X155608499Y-133111191D01*
X155601053Y-133099760D01*
X155572176Y-133043436D01*
X155561948Y-132997416D01*
X155556430Y-132968885D01*
X155537992Y-132917350D01*
X155507667Y-132847599D01*
X155466561Y-132762357D01*
X155458986Y-132747170D01*
X155418843Y-132663490D01*
X155391594Y-132599673D01*
X155376088Y-132552795D01*
X155371175Y-132519933D01*
X155368445Y-132488954D01*
X155354064Y-132456420D01*
X155322204Y-132420958D01*
X155303549Y-132399526D01*
X155270931Y-132352615D01*
X155234501Y-132291955D01*
X155198386Y-132224106D01*
X155175421Y-132178727D01*
X155153099Y-132137547D01*
X155130584Y-132101268D01*
X155104686Y-132065873D01*
X155072214Y-132027344D01*
X155029976Y-131981664D01*
X154974782Y-131924815D01*
X154903441Y-131852781D01*
X154869134Y-131818558D01*
X154807418Y-131758503D01*
X154752529Y-131707002D01*
X154707503Y-131666807D01*
X154675377Y-131640672D01*
X154659187Y-131631348D01*
X154647311Y-131625969D01*
X154616083Y-131605314D01*
X154569581Y-131571373D01*
X154510923Y-131526495D01*
X154443229Y-131473029D01*
X154369619Y-131413323D01*
X154310509Y-131365263D01*
X154241325Y-131310340D01*
X154180524Y-131263533D01*
X154131232Y-131227190D01*
X154096571Y-131203662D01*
X154079668Y-131195297D01*
X154075784Y-131194455D01*
X154051353Y-131181203D01*
X154012210Y-131154342D01*
X153962861Y-131117088D01*
X153907814Y-131072657D01*
X153890233Y-131058154D01*
X153836720Y-131015657D01*
X153790500Y-130981330D01*
X153756022Y-130958381D01*
X153737736Y-130950018D01*
X153736749Y-130949924D01*
X153717309Y-130938959D01*
X153683908Y-130912384D01*
X153640966Y-130873943D01*
X153592903Y-130827378D01*
X153548667Y-130784361D01*
X153501032Y-130741938D01*
X153464831Y-130714491D01*
X153443376Y-130704739D01*
X153433130Y-130699568D01*
X153404628Y-130677172D01*
X153361569Y-130639301D01*
X153306402Y-130588402D01*
X153241576Y-130526925D01*
X153169539Y-130457319D01*
X153092742Y-130382031D01*
X153013631Y-130303510D01*
X152934657Y-130224205D01*
X152858267Y-130146565D01*
X152786912Y-130073037D01*
X152723038Y-130006071D01*
X152669097Y-129948116D01*
X152627535Y-129901618D01*
X152600802Y-129869028D01*
X152591347Y-129852794D01*
X152589720Y-129845633D01*
X152572792Y-129817218D01*
X152540350Y-129777292D01*
X152495961Y-129730436D01*
X152470649Y-129704503D01*
X152434579Y-129664171D01*
X152409790Y-129631945D01*
X152400574Y-129613103D01*
X152398207Y-129606632D01*
X152381812Y-129580032D01*
X152351870Y-129537408D01*
X152310809Y-129482071D01*
X152261057Y-129417329D01*
X152205041Y-129346495D01*
X152161732Y-129292105D01*
X152100712Y-129213525D01*
X152054536Y-129150804D01*
X152021198Y-129101044D01*
X151998694Y-129061350D01*
X151985016Y-129028828D01*
X151984229Y-129026497D01*
X151950771Y-128957055D01*
X151902781Y-128893086D01*
X151891690Y-128879470D01*
X151863853Y-128837918D01*
X151828182Y-128778280D01*
X151786427Y-128704052D01*
X151740340Y-128618727D01*
X151691670Y-128525803D01*
X151642169Y-128428773D01*
X151593587Y-128331133D01*
X151547676Y-128236379D01*
X151506187Y-128148005D01*
X151470869Y-128069507D01*
X151443475Y-128004380D01*
X151425754Y-127956120D01*
X151419458Y-127928220D01*
X151418796Y-127914748D01*
X151405122Y-127864809D01*
X151371765Y-127806033D01*
X151367741Y-127799974D01*
X151334780Y-127738122D01*
X151324072Y-127686445D01*
X151323990Y-127682208D01*
X151311366Y-127629759D01*
X151276379Y-127566856D01*
X151263717Y-127547199D01*
X151236975Y-127492512D01*
X151228686Y-127444217D01*
X151227899Y-127429291D01*
X151214113Y-127379765D01*
X151180993Y-127321577D01*
X151172949Y-127309224D01*
X151143618Y-127252243D01*
X151133300Y-127206188D01*
X151133145Y-127203243D01*
X151124578Y-127170966D01*
X151102845Y-127115776D01*
X151067862Y-127037485D01*
X151019544Y-126935901D01*
X150957806Y-126810834D01*
X150923977Y-126743556D01*
X150871632Y-126641428D01*
X150827445Y-126558489D01*
X150789362Y-126491169D01*
X150755331Y-126435897D01*
X150723298Y-126389103D01*
X150691211Y-126347217D01*
X150648042Y-126290356D01*
X150602148Y-126218718D01*
X150574009Y-126158520D01*
X150564515Y-126135765D01*
X150535692Y-126082793D01*
X150490528Y-126011297D01*
X150428557Y-125920557D01*
X150349313Y-125809849D01*
X150337699Y-125793872D01*
X150267946Y-125696468D01*
X150210761Y-125613196D01*
X150162268Y-125537824D01*
X150118589Y-125464118D01*
X150075849Y-125385846D01*
X150030169Y-125296775D01*
X150003233Y-125243931D01*
X149959071Y-125161189D01*
X149920188Y-125093337D01*
X149888527Y-125043706D01*
X149866033Y-125015629D01*
X149844965Y-124990510D01*
X149814125Y-124943795D01*
X149778771Y-124883120D01*
X149741563Y-124813812D01*
X149705158Y-124741197D01*
X149672215Y-124670601D01*
X149645394Y-124607351D01*
X149627351Y-124556773D01*
X149620746Y-124524193D01*
X149619974Y-124512220D01*
X149609467Y-124472627D01*
X149585314Y-124419781D01*
X149545800Y-124349690D01*
X149536733Y-124334342D01*
X149499265Y-124265513D01*
X149477739Y-124214006D01*
X149470853Y-124176818D01*
X149459103Y-124124126D01*
X149423160Y-124058716D01*
X149407259Y-124033733D01*
X149382874Y-123981776D01*
X149375467Y-123934520D01*
X149375400Y-123929809D01*
X149369105Y-123889570D01*
X149355027Y-123864181D01*
X149353163Y-123862436D01*
X149339914Y-123835417D01*
X149334587Y-123796491D01*
X149330054Y-123759790D01*
X149307334Y-123721102D01*
X149289233Y-123695563D01*
X149280081Y-123643703D01*
X149278123Y-123622112D01*
X149262303Y-123564818D01*
X149232388Y-123496262D01*
X149205707Y-123437812D01*
X149189464Y-123384038D01*
X149184694Y-123332743D01*
X149180904Y-123286720D01*
X149165988Y-123233665D01*
X149137001Y-123169224D01*
X149114049Y-123121026D01*
X149098263Y-123076387D01*
X149091036Y-123031584D01*
X149089308Y-122974090D01*
X149088734Y-122933649D01*
X149085098Y-122892872D01*
X149076730Y-122867066D01*
X149062055Y-122848998D01*
X149046360Y-122828953D01*
X149037320Y-122796919D01*
X149034802Y-122746355D01*
X149034565Y-122729912D01*
X149028594Y-122678470D01*
X149014362Y-122651413D01*
X149007052Y-122642230D01*
X148999305Y-122617004D01*
X148995154Y-122574100D01*
X148993922Y-122508777D01*
X148993819Y-122481608D01*
X148992276Y-122429257D01*
X148987990Y-122395435D01*
X148979831Y-122373908D01*
X148966669Y-122358441D01*
X148960729Y-122352589D01*
X148951198Y-122338273D01*
X148944998Y-122316960D01*
X148941432Y-122283587D01*
X148939804Y-122233092D01*
X148939416Y-122160411D01*
X148939147Y-122108373D01*
X148937473Y-122047920D01*
X148933861Y-122007592D01*
X148927850Y-121983082D01*
X148918976Y-121970082D01*
X148916243Y-121966790D01*
X148912380Y-121956821D01*
X148909110Y-121939345D01*
X148906385Y-121912386D01*
X148904158Y-121873971D01*
X148902382Y-121822125D01*
X148901010Y-121754873D01*
X148899993Y-121670241D01*
X148899284Y-121566254D01*
X148898837Y-121440938D01*
X148898603Y-121292318D01*
X148898554Y-121166112D01*
X151910016Y-121166112D01*
X151910237Y-121189503D01*
X151913427Y-121234189D01*
X151921834Y-121262436D01*
X151937270Y-121281938D01*
X151948845Y-121294919D01*
X151958573Y-121317723D01*
X151963290Y-121353445D01*
X151964523Y-121409218D01*
X151964784Y-121436660D01*
X151967961Y-121485820D01*
X151975843Y-121517900D01*
X151989793Y-121539966D01*
X151991938Y-121542624D01*
X152007228Y-121573298D01*
X152023063Y-121621514D01*
X152036685Y-121679087D01*
X152042788Y-121707368D01*
X152058889Y-121763940D01*
X152082301Y-121826465D01*
X152115300Y-121900725D01*
X152160166Y-121992499D01*
X152195036Y-122060872D01*
X152229165Y-122124153D01*
X152258818Y-122173058D01*
X152287758Y-122213230D01*
X152319749Y-122250311D01*
X152358553Y-122289942D01*
X152375576Y-122307044D01*
X152417623Y-122353172D01*
X152445186Y-122389876D01*
X152455081Y-122413094D01*
X152463864Y-122435726D01*
X152488260Y-122470019D01*
X152523214Y-122508333D01*
X152524154Y-122509261D01*
X152558038Y-122545636D01*
X152582159Y-122577003D01*
X152591347Y-122596663D01*
X152593895Y-122603792D01*
X152611972Y-122629145D01*
X152643588Y-122665781D01*
X152684222Y-122709179D01*
X152729349Y-122754821D01*
X152774447Y-122798187D01*
X152814994Y-122834758D01*
X152846465Y-122860015D01*
X152864340Y-122869438D01*
X152876733Y-122876179D01*
X152905959Y-122899585D01*
X152947690Y-122936743D01*
X152998422Y-122984516D01*
X153054652Y-123039771D01*
X153084083Y-123068979D01*
X153145665Y-123127848D01*
X153195679Y-123172326D01*
X153231881Y-123200476D01*
X153252033Y-123210361D01*
X153259161Y-123212556D01*
X153287638Y-123228015D01*
X153332610Y-123256321D01*
X153390585Y-123295167D01*
X153458073Y-123342242D01*
X153531583Y-123395240D01*
X153532033Y-123395569D01*
X153649011Y-123478560D01*
X153760893Y-123552806D01*
X153865051Y-123616840D01*
X153958860Y-123669198D01*
X154039693Y-123708411D01*
X154104922Y-123733014D01*
X154151922Y-123741541D01*
X154154882Y-123741583D01*
X154207648Y-123754002D01*
X154271182Y-123789235D01*
X154273289Y-123790647D01*
X154337239Y-123825468D01*
X154390059Y-123836928D01*
X154391497Y-123836938D01*
X154444627Y-123849089D01*
X154508936Y-123884621D01*
X154509356Y-123884903D01*
X154574200Y-123920526D01*
X154627528Y-123932314D01*
X154643018Y-123933517D01*
X154694338Y-123950026D01*
X154759631Y-123986820D01*
X154798532Y-124010346D01*
X154850946Y-124033984D01*
X154894688Y-124041327D01*
X154899380Y-124041407D01*
X154937619Y-124047863D01*
X154962377Y-124061767D01*
X154980656Y-124073161D01*
X155017932Y-124080075D01*
X155077760Y-124082207D01*
X155114679Y-124082699D01*
X155156217Y-124086253D01*
X155182495Y-124094633D01*
X155200843Y-124109460D01*
X155211761Y-124119560D01*
X155234200Y-124130171D01*
X155269145Y-124135348D01*
X155323925Y-124136713D01*
X155380311Y-124138545D01*
X155419039Y-124145095D01*
X155439308Y-124157153D01*
X155457587Y-124168548D01*
X155494863Y-124175462D01*
X155554691Y-124177593D01*
X155591610Y-124178085D01*
X155633148Y-124181640D01*
X155659426Y-124190019D01*
X155677774Y-124204846D01*
X155682956Y-124210150D01*
X155693883Y-124217846D01*
X155710057Y-124223502D01*
X155735145Y-124227429D01*
X155772816Y-124229941D01*
X155826737Y-124231348D01*
X155900576Y-124231964D01*
X155997999Y-124232099D01*
X156055550Y-124232064D01*
X156139346Y-124231699D01*
X156201605Y-124230679D01*
X156245996Y-124228694D01*
X156276185Y-124225430D01*
X156295842Y-124220575D01*
X156308632Y-124213818D01*
X156318225Y-124204846D01*
X156338270Y-124189151D01*
X156370304Y-124180112D01*
X156420868Y-124177593D01*
X156437311Y-124177356D01*
X156488753Y-124171385D01*
X156515810Y-124157153D01*
X156522207Y-124151496D01*
X156545921Y-124142804D01*
X156587257Y-124138116D01*
X156650970Y-124136713D01*
X156695159Y-124136396D01*
X156740330Y-124133776D01*
X156773982Y-124126571D01*
X156805302Y-124112522D01*
X156843480Y-124089369D01*
X156850838Y-124084765D01*
X156914290Y-124052874D01*
X156966130Y-124041676D01*
X156997563Y-124037674D01*
X157029848Y-124021091D01*
X157067688Y-123986820D01*
X157090573Y-123965560D01*
X157124125Y-123941196D01*
X157148807Y-123931284D01*
X157157207Y-123928223D01*
X157185871Y-123906247D01*
X157230300Y-123863602D01*
X157289898Y-123800878D01*
X157364067Y-123718665D01*
X157367487Y-123714802D01*
X157430094Y-123643662D01*
X157476756Y-123589290D01*
X157509775Y-123548461D01*
X157531452Y-123517950D01*
X157544086Y-123494534D01*
X157549979Y-123474988D01*
X157551433Y-123456088D01*
X157555953Y-123419190D01*
X157578686Y-123380436D01*
X157588786Y-123369518D01*
X157599397Y-123347079D01*
X157604574Y-123312134D01*
X157605939Y-123257353D01*
X157607771Y-123200968D01*
X157614321Y-123162240D01*
X157626379Y-123141971D01*
X157628298Y-123140211D01*
X157639103Y-123119237D01*
X157645019Y-123080489D01*
X157646819Y-123019331D01*
X157646797Y-123012518D01*
X160235875Y-123012518D01*
X160235964Y-123019331D01*
X160236349Y-123048648D01*
X160239885Y-123090359D01*
X160248266Y-123116746D01*
X160263128Y-123135157D01*
X160275520Y-123149368D01*
X160284757Y-123172429D01*
X160289220Y-123208653D01*
X160290381Y-123265054D01*
X160290408Y-123274121D01*
X160292705Y-123332122D01*
X160299252Y-123368289D01*
X160310821Y-123387250D01*
X160312719Y-123389033D01*
X160325911Y-123415880D01*
X160331261Y-123454110D01*
X160333519Y-123480304D01*
X160343945Y-123506875D01*
X160366773Y-123537129D01*
X160406207Y-123578022D01*
X160413039Y-123584861D01*
X160447610Y-123622652D01*
X160471950Y-123654589D01*
X160481154Y-123674366D01*
X160481963Y-123679489D01*
X160488314Y-123691594D01*
X160502762Y-123709183D01*
X160527427Y-123734274D01*
X160564429Y-123768884D01*
X160615888Y-123815032D01*
X160683922Y-123874736D01*
X160770651Y-123950014D01*
X160790111Y-123966709D01*
X160836375Y-124004231D01*
X160870541Y-124027007D01*
X160898086Y-124038289D01*
X160924488Y-124041327D01*
X160926890Y-124041355D01*
X160979791Y-124053678D01*
X161043607Y-124089020D01*
X161077897Y-124111188D01*
X161106829Y-124125445D01*
X161137696Y-124133078D01*
X161178936Y-124136148D01*
X161238987Y-124136713D01*
X161282554Y-124137187D01*
X161333068Y-124140217D01*
X161364138Y-124146644D01*
X161380510Y-124157153D01*
X161384947Y-124161412D01*
X161417841Y-124173597D01*
X161475453Y-124177593D01*
X161522208Y-124179635D01*
X161555617Y-124187971D01*
X161578096Y-124204846D01*
X161582379Y-124209302D01*
X161593112Y-124217290D01*
X161608792Y-124223162D01*
X161633136Y-124227242D01*
X161669862Y-124229852D01*
X161722687Y-124231316D01*
X161795330Y-124231957D01*
X161891508Y-124232099D01*
X161938742Y-124232076D01*
X162023673Y-124231745D01*
X162086772Y-124230767D01*
X162131758Y-124228817D01*
X162162348Y-124225574D01*
X162182260Y-124220713D01*
X162195211Y-124213912D01*
X162204920Y-124204846D01*
X162214383Y-124195869D01*
X162236616Y-124184587D01*
X162271062Y-124179060D01*
X162325192Y-124177593D01*
X162376462Y-124175971D01*
X162419477Y-124168982D01*
X162445116Y-124155587D01*
X162449818Y-124152169D01*
X162476894Y-124141665D01*
X162524388Y-124131180D01*
X162594568Y-124120277D01*
X162689701Y-124108522D01*
X162694020Y-124108029D01*
X162791606Y-124095759D01*
X162863205Y-124084215D01*
X162910018Y-124073170D01*
X162933249Y-124062395D01*
X162933881Y-124061838D01*
X162963998Y-124047319D01*
X163003149Y-124041283D01*
X163015756Y-124040409D01*
X163066695Y-124024192D01*
X163131529Y-123986820D01*
X163158997Y-123969405D01*
X163215713Y-123941359D01*
X163261164Y-123932357D01*
X163261356Y-123932357D01*
X163314862Y-123920418D01*
X163379859Y-123884621D01*
X163385918Y-123880597D01*
X163447771Y-123847636D01*
X163499448Y-123836928D01*
X163503684Y-123836846D01*
X163556133Y-123824222D01*
X163619036Y-123789235D01*
X163637518Y-123777298D01*
X163692816Y-123750030D01*
X163741365Y-123741541D01*
X163745378Y-123741407D01*
X163786812Y-123732469D01*
X163843519Y-123711818D01*
X163909106Y-123682663D01*
X163977178Y-123648217D01*
X164041339Y-123611690D01*
X164095195Y-123576292D01*
X164132351Y-123545234D01*
X164149022Y-123529132D01*
X164179582Y-123505540D01*
X164201342Y-123496262D01*
X164207336Y-123495183D01*
X164233472Y-123480578D01*
X164263395Y-123454353D01*
X164270273Y-123447899D01*
X164303677Y-123422352D01*
X164353538Y-123388699D01*
X164414339Y-123350565D01*
X164480564Y-123311578D01*
X164496589Y-123302425D01*
X164561660Y-123264195D01*
X164614567Y-123230192D01*
X164661475Y-123195598D01*
X164708547Y-123155593D01*
X164761946Y-123105358D01*
X164827838Y-123040075D01*
X164851820Y-123016204D01*
X164916215Y-122954289D01*
X164967844Y-122908169D01*
X165004933Y-122879376D01*
X165025708Y-122869438D01*
X165027416Y-122869297D01*
X165050714Y-122857500D01*
X165086225Y-122830090D01*
X165129227Y-122791803D01*
X165174999Y-122747375D01*
X165218818Y-122701544D01*
X165255964Y-122659044D01*
X165281714Y-122624612D01*
X165291347Y-122602984D01*
X165291555Y-122600708D01*
X165303398Y-122576104D01*
X165329936Y-122540841D01*
X165366293Y-122501520D01*
X165373211Y-122494597D01*
X165407741Y-122457009D01*
X165432049Y-122425470D01*
X165441240Y-122406206D01*
X165443494Y-122399250D01*
X165460791Y-122373756D01*
X165491433Y-122337770D01*
X165530965Y-122296727D01*
X165554020Y-122273494D01*
X165587189Y-122236534D01*
X165616863Y-122197055D01*
X165646724Y-122149479D01*
X165680455Y-122088228D01*
X165721738Y-122007726D01*
X165762141Y-121925130D01*
X165796114Y-121848986D01*
X165816187Y-121793869D01*
X165822785Y-121758738D01*
X165829184Y-121721322D01*
X165848157Y-121666335D01*
X165877291Y-121602164D01*
X165884988Y-121586735D01*
X165909549Y-121533578D01*
X165923723Y-121491429D01*
X165930232Y-121450184D01*
X165931797Y-121399736D01*
X165933290Y-121350749D01*
X165939817Y-121310041D01*
X165952237Y-121288752D01*
X165955159Y-121285625D01*
X165965922Y-121257340D01*
X165972185Y-121212695D01*
X165973948Y-121160338D01*
X165971211Y-121108917D01*
X165963974Y-121067079D01*
X165952237Y-121043473D01*
X165940843Y-121025194D01*
X165933929Y-120987918D01*
X165931797Y-120928090D01*
X165931305Y-120891171D01*
X165927751Y-120849633D01*
X165919372Y-120823355D01*
X165904544Y-120805007D01*
X165887123Y-120780876D01*
X165877291Y-120730890D01*
X165875095Y-120705384D01*
X165864691Y-120678753D01*
X165841841Y-120648405D01*
X165802345Y-120607421D01*
X165796046Y-120601106D01*
X165761086Y-120562239D01*
X165736242Y-120528181D01*
X165726546Y-120505687D01*
X165725946Y-120502513D01*
X165709982Y-120478188D01*
X165672724Y-120438374D01*
X165614713Y-120383612D01*
X165536490Y-120314449D01*
X165514544Y-120295520D01*
X165450518Y-120241083D01*
X165401946Y-120201681D01*
X165365151Y-120174782D01*
X165336455Y-120157855D01*
X165312183Y-120148368D01*
X165288657Y-120143789D01*
X165251044Y-120134421D01*
X165188196Y-120107501D01*
X165112308Y-120065436D01*
X164994590Y-119994224D01*
X164824412Y-119994224D01*
X164777122Y-119993997D01*
X164716007Y-119992371D01*
X164675220Y-119988777D01*
X164650421Y-119982739D01*
X164637270Y-119973784D01*
X164632863Y-119969815D01*
X164618826Y-119963873D01*
X164594263Y-119959501D01*
X164555829Y-119956480D01*
X164500180Y-119954592D01*
X164423971Y-119953620D01*
X164323858Y-119953344D01*
X164266226Y-119953421D01*
X164179532Y-119954049D01*
X164114923Y-119955492D01*
X164069055Y-119957969D01*
X164038582Y-119961698D01*
X164020161Y-119966897D01*
X164010446Y-119973784D01*
X163993538Y-119984701D01*
X163956700Y-119991972D01*
X163897236Y-119994224D01*
X163870579Y-119994494D01*
X163824257Y-119997808D01*
X163793972Y-120006243D01*
X163771966Y-120021490D01*
X163767305Y-120025484D01*
X163748816Y-120036048D01*
X163720424Y-120044974D01*
X163677808Y-120053153D01*
X163616647Y-120061475D01*
X163532622Y-120070831D01*
X163478409Y-120076785D01*
X163401911Y-120086702D01*
X163346747Y-120096478D01*
X163309156Y-120106840D01*
X163285380Y-120118511D01*
X163247907Y-120136014D01*
X163203439Y-120144117D01*
X163196648Y-120144411D01*
X163147210Y-120158401D01*
X163087598Y-120191810D01*
X163081539Y-120195834D01*
X163019687Y-120228795D01*
X162968010Y-120239503D01*
X162963773Y-120239585D01*
X162911324Y-120252209D01*
X162848421Y-120287196D01*
X162840282Y-120292576D01*
X162779534Y-120324567D01*
X162728432Y-120334889D01*
X162707625Y-120336810D01*
X162657787Y-120353650D01*
X162594931Y-120389395D01*
X162571624Y-120403871D01*
X162510640Y-120434056D01*
X162463139Y-120443902D01*
X162454504Y-120444571D01*
X162413387Y-120455327D01*
X162357691Y-120476772D01*
X162293778Y-120505734D01*
X162228005Y-120539042D01*
X162166734Y-120573527D01*
X162116325Y-120606017D01*
X162083138Y-120633342D01*
X162073597Y-120642735D01*
X162042576Y-120666170D01*
X162017827Y-120675554D01*
X161998759Y-120682337D01*
X161965737Y-120703763D01*
X161928397Y-120734744D01*
X161899468Y-120758531D01*
X161847286Y-120795724D01*
X161785189Y-120835820D01*
X161721175Y-120873463D01*
X161720386Y-120873902D01*
X161664664Y-120906035D01*
X161616424Y-120937124D01*
X161570428Y-120971343D01*
X161521440Y-121012862D01*
X161464221Y-121065857D01*
X161393534Y-121134499D01*
X161343058Y-121183337D01*
X161284286Y-121237853D01*
X161236129Y-121279703D01*
X161201320Y-121306538D01*
X161182591Y-121316005D01*
X161180731Y-121316176D01*
X161157504Y-121328161D01*
X161122064Y-121355667D01*
X161079130Y-121393968D01*
X161033421Y-121438335D01*
X160989655Y-121484040D01*
X160952551Y-121526356D01*
X160926828Y-121560553D01*
X160917205Y-121581905D01*
X160917144Y-121583153D01*
X160906243Y-121607670D01*
X160879748Y-121643347D01*
X160842259Y-121683923D01*
X160835341Y-121690846D01*
X160800811Y-121728435D01*
X160776503Y-121759974D01*
X160767313Y-121779238D01*
X160765058Y-121786194D01*
X160747761Y-121811687D01*
X160717119Y-121847673D01*
X160677587Y-121888716D01*
X160654532Y-121911949D01*
X160621363Y-121948910D01*
X160591689Y-121988389D01*
X160561828Y-122035965D01*
X160528097Y-122097215D01*
X160486814Y-122177718D01*
X160446207Y-122260743D01*
X160412339Y-122336691D01*
X160392338Y-122391667D01*
X160385767Y-122426744D01*
X160380481Y-122460415D01*
X160363584Y-122512218D01*
X160338074Y-122569653D01*
X160315122Y-122617851D01*
X160299336Y-122662490D01*
X160292109Y-122707293D01*
X160290381Y-122764787D01*
X160289807Y-122805228D01*
X160286171Y-122846005D01*
X160277803Y-122871810D01*
X160263128Y-122889878D01*
X160253197Y-122900571D01*
X160242485Y-122922976D01*
X160237255Y-122957841D01*
X160235875Y-123012518D01*
X157646797Y-123012518D01*
X157646787Y-123009383D01*
X157644464Y-122951595D01*
X157637919Y-122915577D01*
X157626379Y-122896692D01*
X157625454Y-122895886D01*
X157614093Y-122875544D01*
X157607848Y-122837330D01*
X157605939Y-122776669D01*
X157605565Y-122743657D01*
X157602196Y-122697102D01*
X157594149Y-122666768D01*
X157580005Y-122645478D01*
X157578581Y-122643826D01*
X157562446Y-122613313D01*
X157545687Y-122563539D01*
X157530739Y-122501617D01*
X157525701Y-122478380D01*
X157509250Y-122419083D01*
X157485745Y-122355061D01*
X157452774Y-122280155D01*
X157407922Y-122188205D01*
X157377939Y-122129329D01*
X157343162Y-122064488D01*
X157313051Y-122014480D01*
X157283726Y-121973510D01*
X157251306Y-121935782D01*
X157211909Y-121895501D01*
X157194643Y-121878149D01*
X157152752Y-121832158D01*
X157125260Y-121795541D01*
X157115381Y-121772396D01*
X157115335Y-121771303D01*
X157104576Y-121746796D01*
X157078091Y-121711058D01*
X157040435Y-121670297D01*
X157033508Y-121663365D01*
X156998982Y-121625798D01*
X156974677Y-121594302D01*
X156965488Y-121575092D01*
X156964822Y-121571968D01*
X156950866Y-121549995D01*
X156922336Y-121515849D01*
X156883893Y-121474183D01*
X156840198Y-121429653D01*
X156795912Y-121386915D01*
X156755694Y-121350624D01*
X156724206Y-121325436D01*
X156706109Y-121316005D01*
X156693719Y-121309264D01*
X156664496Y-121285858D01*
X156622769Y-121248700D01*
X156572039Y-121200927D01*
X156515810Y-121145672D01*
X156474369Y-121104801D01*
X156418720Y-121052254D01*
X156372374Y-121011343D01*
X156338464Y-120984795D01*
X156320126Y-120975340D01*
X156308973Y-120971084D01*
X156277206Y-120952762D01*
X156229325Y-120922006D01*
X156168646Y-120881021D01*
X156098486Y-120832012D01*
X156022159Y-120777184D01*
X156007340Y-120766426D01*
X155870346Y-120670028D01*
X155748402Y-120590001D01*
X155642418Y-120526859D01*
X155553305Y-120481113D01*
X155481974Y-120453276D01*
X155429336Y-120443859D01*
X155400454Y-120440708D01*
X155354090Y-120423689D01*
X155296229Y-120389395D01*
X155253851Y-120363241D01*
X155205135Y-120341546D01*
X155162832Y-120334932D01*
X155148874Y-120334221D01*
X155098991Y-120320490D01*
X155040374Y-120287196D01*
X155038267Y-120285784D01*
X154974317Y-120250963D01*
X154921497Y-120239503D01*
X154920059Y-120239493D01*
X154866929Y-120227342D01*
X154802620Y-120191810D01*
X154777637Y-120175909D01*
X154725680Y-120151524D01*
X154678424Y-120144117D01*
X154673713Y-120144050D01*
X154633475Y-120137754D01*
X154608085Y-120123677D01*
X154589806Y-120112282D01*
X154552530Y-120105368D01*
X154492702Y-120103237D01*
X154455783Y-120102744D01*
X154414245Y-120099190D01*
X154387967Y-120090811D01*
X154369619Y-120075983D01*
X154358926Y-120066053D01*
X154336522Y-120055340D01*
X154301657Y-120050110D01*
X154246980Y-120048730D01*
X154210850Y-120048256D01*
X154169138Y-120044720D01*
X154142752Y-120036339D01*
X154124340Y-120021477D01*
X154113422Y-120011377D01*
X154090983Y-120000766D01*
X154056038Y-119995589D01*
X154001257Y-119994224D01*
X153944872Y-119992392D01*
X153906144Y-119985842D01*
X153885875Y-119973784D01*
X153881468Y-119969815D01*
X153867431Y-119963873D01*
X153842868Y-119959501D01*
X153804434Y-119956480D01*
X153748785Y-119954592D01*
X153672576Y-119953620D01*
X153572463Y-119953344D01*
X153514831Y-119953421D01*
X153428137Y-119954049D01*
X153363528Y-119955492D01*
X153317660Y-119957969D01*
X153287187Y-119961698D01*
X153268766Y-119966897D01*
X153259051Y-119973784D01*
X153252155Y-119979628D01*
X153232465Y-119986718D01*
X153198529Y-119991201D01*
X153146019Y-119993546D01*
X153070610Y-119994224D01*
X152899132Y-119994224D01*
X152773542Y-120069170D01*
X152723830Y-120097892D01*
X152670111Y-120125067D01*
X152628971Y-120139728D01*
X152595069Y-120144117D01*
X152564879Y-120146541D01*
X152531561Y-120160440D01*
X152495961Y-120191810D01*
X152480264Y-120206813D01*
X152449408Y-120230260D01*
X152427096Y-120239503D01*
X152425502Y-120239592D01*
X152415487Y-120243249D01*
X152400860Y-120253709D01*
X152379733Y-120272942D01*
X152350215Y-120302919D01*
X152310415Y-120345611D01*
X152258442Y-120402989D01*
X152192407Y-120477025D01*
X152110419Y-120569689D01*
X152077732Y-120607252D01*
X152041542Y-120651736D01*
X152019444Y-120684668D01*
X152008408Y-120710814D01*
X152005403Y-120734946D01*
X152005381Y-120737110D01*
X151999081Y-120773584D01*
X151984963Y-120798194D01*
X151983206Y-120799791D01*
X151972310Y-120820660D01*
X151966341Y-120859317D01*
X151964523Y-120920390D01*
X151963747Y-120968940D01*
X151959939Y-121008054D01*
X151951604Y-121032832D01*
X151937270Y-121050286D01*
X151930337Y-121057299D01*
X151917840Y-121079277D01*
X151911671Y-121112983D01*
X151910016Y-121166112D01*
X148898554Y-121166112D01*
X148898536Y-121118419D01*
X148898561Y-121006809D01*
X148898726Y-120848920D01*
X148899088Y-120715076D01*
X148899693Y-120603304D01*
X148900588Y-120511629D01*
X148901822Y-120438077D01*
X148903441Y-120380672D01*
X148905492Y-120337440D01*
X148908024Y-120306407D01*
X148911084Y-120285599D01*
X148914719Y-120273040D01*
X148918976Y-120266756D01*
X148925085Y-120259409D01*
X148932048Y-120239429D01*
X148936450Y-120205144D01*
X148938751Y-120152246D01*
X148939416Y-120076427D01*
X148939490Y-120038576D01*
X148940385Y-119977138D01*
X148942853Y-119935464D01*
X148947592Y-119908491D01*
X148955298Y-119891156D01*
X148966669Y-119878398D01*
X148972540Y-119872610D01*
X148983590Y-119855493D01*
X148990084Y-119829853D01*
X148993151Y-119789454D01*
X148993922Y-119728061D01*
X148994429Y-119682698D01*
X148997486Y-119632526D01*
X149003904Y-119601682D01*
X149014362Y-119585426D01*
X149018621Y-119580988D01*
X149030805Y-119548095D01*
X149034802Y-119490483D01*
X149036843Y-119443728D01*
X149045180Y-119410318D01*
X149062055Y-119387840D01*
X149072889Y-119375919D01*
X149083061Y-119353314D01*
X149088009Y-119318001D01*
X149089308Y-119262748D01*
X149090553Y-119211946D01*
X149096865Y-119166170D01*
X149111327Y-119122236D01*
X149137001Y-119067614D01*
X149140292Y-119061033D01*
X149166999Y-119000770D01*
X149180780Y-118950591D01*
X149184694Y-118899734D01*
X149186164Y-118862050D01*
X149194382Y-118825929D01*
X149211948Y-118801895D01*
X149229235Y-118777912D01*
X149239201Y-118731099D01*
X149246428Y-118688844D01*
X149265031Y-118648044D01*
X149267420Y-118644183D01*
X149281163Y-118612389D01*
X149298380Y-118561514D01*
X149317107Y-118497719D01*
X149335384Y-118427164D01*
X149337921Y-118416741D01*
X149360434Y-118330729D01*
X149381188Y-118265526D01*
X149402173Y-118215558D01*
X149425380Y-118175253D01*
X149459207Y-118112736D01*
X149470853Y-118060020D01*
X149471098Y-118053891D01*
X149480676Y-118014203D01*
X149505143Y-117959623D01*
X149545800Y-117887148D01*
X149562208Y-117859146D01*
X149595874Y-117795869D01*
X149614814Y-117748364D01*
X149620746Y-117712634D01*
X149623116Y-117695148D01*
X149636969Y-117649998D01*
X149660892Y-117590132D01*
X149692212Y-117520893D01*
X149728259Y-117447628D01*
X149766362Y-117375682D01*
X149803851Y-117310399D01*
X149838053Y-117257127D01*
X149866299Y-117221209D01*
X149880686Y-117204758D01*
X149924838Y-117136388D01*
X149967792Y-117042759D01*
X149987274Y-116996743D01*
X150026114Y-116922473D01*
X150063894Y-116873456D01*
X150070367Y-116866817D01*
X150106675Y-116816565D01*
X150133043Y-116758934D01*
X150138673Y-116743580D01*
X150168824Y-116685724D01*
X150206946Y-116635265D01*
X150206970Y-116635240D01*
X150239496Y-116594711D01*
X150275211Y-116540872D01*
X150306388Y-116485372D01*
X150329175Y-116444684D01*
X150375263Y-116377774D01*
X150423563Y-116322365D01*
X150425225Y-116320736D01*
X150459356Y-116284331D01*
X150483616Y-116252986D01*
X150492849Y-116233326D01*
X150493167Y-116231038D01*
X150505435Y-116209054D01*
X150531943Y-116175927D01*
X150567795Y-116137893D01*
X150570591Y-116135115D01*
X150607637Y-116094497D01*
X150633206Y-116059321D01*
X150642742Y-116035794D01*
X150644001Y-116029472D01*
X150660290Y-116001176D01*
X150692776Y-115960943D01*
X150738128Y-115913054D01*
X150763181Y-115887267D01*
X150799377Y-115846096D01*
X150824260Y-115812547D01*
X150833514Y-115792095D01*
X150834955Y-115786728D01*
X150851218Y-115761198D01*
X150883285Y-115721613D01*
X150928301Y-115671369D01*
X150983407Y-115613865D01*
X151013227Y-115583248D01*
X151060796Y-115532593D01*
X151098870Y-115489698D01*
X151124141Y-115458350D01*
X151133300Y-115442335D01*
X151133652Y-115440793D01*
X151146488Y-115422317D01*
X151175643Y-115388583D01*
X151218187Y-115342501D01*
X151271191Y-115286985D01*
X151331727Y-115224947D01*
X151396866Y-115159300D01*
X151463677Y-115092956D01*
X151529233Y-115028828D01*
X151590605Y-114969828D01*
X151644862Y-114918870D01*
X151689076Y-114878865D01*
X151720319Y-114852726D01*
X151735661Y-114843365D01*
X151751086Y-114834890D01*
X151783818Y-114810242D01*
X151830833Y-114771830D01*
X151889248Y-114722064D01*
X151956181Y-114663357D01*
X152028751Y-114598120D01*
X152099681Y-114534368D01*
X152166895Y-114475462D01*
X152225708Y-114425442D01*
X152273228Y-114386723D01*
X152306561Y-114361718D01*
X152322813Y-114352841D01*
X152333961Y-114348333D01*
X152364194Y-114328560D01*
X152407978Y-114295786D01*
X152461362Y-114253003D01*
X152520399Y-114203201D01*
X152563113Y-114166958D01*
X152618757Y-114121814D01*
X152666049Y-114085823D01*
X152701000Y-114061987D01*
X152719620Y-114053308D01*
X152731989Y-114048828D01*
X152764424Y-114030224D01*
X152811150Y-113999703D01*
X152868006Y-113960012D01*
X152930832Y-113913895D01*
X152995115Y-113866747D01*
X153076965Y-113810791D01*
X153144268Y-113770076D01*
X153194355Y-113746298D01*
X153226924Y-113732319D01*
X153280991Y-113701715D01*
X153323808Y-113669022D01*
X153338967Y-113655935D01*
X153390532Y-113621989D01*
X153444040Y-113597848D01*
X153506552Y-113568566D01*
X153559866Y-113526773D01*
X153586408Y-113505842D01*
X153633371Y-113475923D01*
X153697011Y-113438924D01*
X153773647Y-113396691D01*
X153859594Y-113351070D01*
X153951171Y-113303904D01*
X154044694Y-113257041D01*
X154136481Y-113212324D01*
X154222848Y-113171600D01*
X154300115Y-113136714D01*
X154364596Y-113109510D01*
X154412611Y-113091835D01*
X154440475Y-113085533D01*
X154457914Y-113084131D01*
X154497149Y-113073025D01*
X154548500Y-113049176D01*
X154616663Y-113010586D01*
X154647061Y-112992802D01*
X154709283Y-112959854D01*
X154756050Y-112941396D01*
X154791533Y-112935640D01*
X154797711Y-112935474D01*
X154849660Y-112922571D01*
X154911633Y-112887947D01*
X154921962Y-112881153D01*
X154981549Y-112850176D01*
X155032066Y-112840254D01*
X155036778Y-112840166D01*
X155074169Y-112833634D01*
X155098643Y-112819814D01*
X155100388Y-112817950D01*
X155127407Y-112804701D01*
X155166333Y-112799374D01*
X155203034Y-112794841D01*
X155241722Y-112772121D01*
X155265950Y-112754641D01*
X155316669Y-112744868D01*
X155353043Y-112740310D01*
X155391615Y-112717614D01*
X155415903Y-112700100D01*
X155467005Y-112690361D01*
X155471697Y-112690281D01*
X155509936Y-112683825D01*
X155534694Y-112669921D01*
X155536354Y-112668134D01*
X155563880Y-112654736D01*
X155604836Y-112649481D01*
X155625031Y-112647792D01*
X155682947Y-112632164D01*
X155752720Y-112601788D01*
X155815691Y-112573300D01*
X155867465Y-112558397D01*
X155918428Y-112554095D01*
X155941304Y-112553525D01*
X155986998Y-112545844D01*
X156017764Y-112527476D01*
X156022501Y-112523549D01*
X156055221Y-112507544D01*
X156109817Y-112492546D01*
X156188975Y-112477775D01*
X156268915Y-112462668D01*
X156327655Y-112446246D01*
X156359983Y-112429447D01*
X156360973Y-112428572D01*
X156385950Y-112413992D01*
X156423076Y-112406389D01*
X156479767Y-112404202D01*
X156533163Y-112402203D01*
X156576434Y-112393987D01*
X156608342Y-112377818D01*
X156624894Y-112368565D01*
X156656159Y-112358163D01*
X156702475Y-112348660D01*
X156767896Y-112339261D01*
X156856476Y-112329172D01*
X156875046Y-112327195D01*
X156955237Y-112317915D01*
X157013231Y-112309465D01*
X157053206Y-112300996D01*
X157079343Y-112291660D01*
X157095820Y-112280609D01*
X157106467Y-112272054D01*
X157126308Y-112262959D01*
X157155952Y-112257562D01*
X157201209Y-112254975D01*
X157267890Y-112254310D01*
X157273062Y-112254306D01*
X157340840Y-112253240D01*
X157386317Y-112249869D01*
X157414099Y-112243607D01*
X157428793Y-112233870D01*
X157429894Y-112232636D01*
X157442962Y-112224709D01*
X157467103Y-112219205D01*
X157506358Y-112215743D01*
X157564768Y-112213945D01*
X157646375Y-112213430D01*
X157647008Y-112213430D01*
X157725532Y-112213137D01*
X157781460Y-112211889D01*
X157819414Y-112209129D01*
X157844016Y-112204296D01*
X157859890Y-112196832D01*
X157871658Y-112186177D01*
X157876400Y-112181295D01*
X157886164Y-112174229D01*
X157900578Y-112168835D01*
X157922871Y-112164890D01*
X157956272Y-112162174D01*
X158004009Y-112160465D01*
X158069313Y-112159542D01*
X158155412Y-112159183D01*
X158265535Y-112159167D01*
X158339194Y-112158883D01*
X158497095Y-112156373D01*
X158657107Y-112151544D01*
X158809452Y-112144728D01*
X158944354Y-112136253D01*
X159017617Y-112130828D01*
X159100474Y-112125025D01*
X159162241Y-112121407D01*
X159206477Y-112119972D01*
X159236741Y-112120717D01*
X159256590Y-112123641D01*
X159269583Y-112128739D01*
X159279279Y-112136010D01*
X159287777Y-112142044D01*
X159302421Y-112147635D01*
X159325207Y-112151857D01*
X159359320Y-112154895D01*
X159407944Y-112156936D01*
X159474265Y-112158164D01*
X159561468Y-112158764D01*
X159672738Y-112158923D01*
X159736832Y-112158946D01*
X159833074Y-112159191D01*
X159907089Y-112159889D01*
X159962112Y-112161266D01*
X160001377Y-112163545D01*
X160028118Y-112166952D01*
X160045570Y-112171709D01*
X160056967Y-112178043D01*
X160065542Y-112186177D01*
X160065620Y-112186263D01*
X160077400Y-112196894D01*
X160093319Y-112204338D01*
X160117998Y-112209154D01*
X160156060Y-112211902D01*
X160212129Y-112213141D01*
X160290825Y-112213430D01*
X160302942Y-112213438D01*
X160381290Y-112214099D01*
X160436970Y-112216093D01*
X160474021Y-112219800D01*
X160496487Y-112225599D01*
X160508407Y-112233870D01*
X160509512Y-112235115D01*
X160525249Y-112244375D01*
X160554433Y-112250277D01*
X160601649Y-112253397D01*
X160671483Y-112254310D01*
X160731701Y-112254737D01*
X160778539Y-112256771D01*
X160808812Y-112261320D01*
X160828169Y-112269283D01*
X160842259Y-112281563D01*
X160850764Y-112289764D01*
X160872883Y-112301507D01*
X160907026Y-112307279D01*
X160960749Y-112308816D01*
X161013694Y-112310684D01*
X161058848Y-112318688D01*
X161091496Y-112334421D01*
X161103486Y-112341235D01*
X161134624Y-112352075D01*
X161181705Y-112362016D01*
X161248490Y-112371784D01*
X161338738Y-112382102D01*
X161369239Y-112385356D01*
X161445247Y-112394273D01*
X161499814Y-112402449D01*
X161537262Y-112410776D01*
X161561912Y-112420144D01*
X161578082Y-112431443D01*
X161597226Y-112445217D01*
X161632049Y-112455706D01*
X161684920Y-112458709D01*
X161699863Y-112458924D01*
X161748974Y-112464234D01*
X161797731Y-112479018D01*
X161857441Y-112506402D01*
X161911040Y-112531093D01*
X161967094Y-112548806D01*
X162018952Y-112554095D01*
X162025255Y-112554150D01*
X162074900Y-112559941D01*
X162102720Y-112574535D01*
X162104319Y-112576271D01*
X162132740Y-112589858D01*
X162177223Y-112594975D01*
X162226233Y-112601222D01*
X162259426Y-112622228D01*
X162283714Y-112639742D01*
X162334816Y-112649481D01*
X162339508Y-112649561D01*
X162377747Y-112656018D01*
X162402506Y-112669921D01*
X162404153Y-112671688D01*
X162430652Y-112684933D01*
X162468022Y-112690361D01*
X162503468Y-112695233D01*
X162546892Y-112718842D01*
X162562576Y-112729340D01*
X162609121Y-112749013D01*
X162681615Y-112772136D01*
X162779423Y-112798490D01*
X162784150Y-112799688D01*
X162861806Y-112820227D01*
X162927720Y-112840066D01*
X162989022Y-112861965D01*
X163052841Y-112888681D01*
X163126305Y-112922971D01*
X163216544Y-112967595D01*
X163255511Y-112987002D01*
X163347254Y-113030979D01*
X163417555Y-113061673D01*
X163467804Y-113079664D01*
X163499390Y-113085533D01*
X163522660Y-113090649D01*
X163567899Y-113107166D01*
X163630032Y-113133310D01*
X163705380Y-113167247D01*
X163790268Y-113207142D01*
X163881019Y-113251162D01*
X163973954Y-113297471D01*
X164065399Y-113344236D01*
X164151674Y-113389621D01*
X164229104Y-113431791D01*
X164294012Y-113468914D01*
X164342719Y-113499153D01*
X164371551Y-113520674D01*
X164390121Y-113536395D01*
X164442231Y-113571130D01*
X164494190Y-113596073D01*
X164516092Y-113605235D01*
X164570301Y-113635859D01*
X164616830Y-113671457D01*
X164635656Y-113687298D01*
X164687561Y-113721224D01*
X164739200Y-113744925D01*
X164758425Y-113752376D01*
X164813723Y-113782570D01*
X164861839Y-113819635D01*
X164867058Y-113824383D01*
X164903829Y-113852848D01*
X164956935Y-113889138D01*
X165020075Y-113929084D01*
X165086948Y-113968520D01*
X165114839Y-113984599D01*
X165202667Y-114039165D01*
X165274196Y-114090020D01*
X165324901Y-114134015D01*
X165326361Y-114135498D01*
X165362827Y-114169518D01*
X165394239Y-114193707D01*
X165413940Y-114202915D01*
X165416228Y-114203233D01*
X165438212Y-114215501D01*
X165471339Y-114242009D01*
X165509373Y-114277861D01*
X165512151Y-114280657D01*
X165552769Y-114317703D01*
X165587945Y-114343272D01*
X165611472Y-114352808D01*
X165617794Y-114354067D01*
X165646090Y-114370356D01*
X165686323Y-114402842D01*
X165734212Y-114448194D01*
X165752885Y-114466576D01*
X165797907Y-114507038D01*
X165834007Y-114533865D01*
X165856718Y-114543580D01*
X165857757Y-114543641D01*
X165880426Y-114555091D01*
X165918777Y-114585081D01*
X165970678Y-114631809D01*
X166033997Y-114693473D01*
X166063186Y-114722365D01*
X166113481Y-114770272D01*
X166156247Y-114808643D01*
X166187682Y-114834126D01*
X166203981Y-114843365D01*
X166205589Y-114843770D01*
X166223994Y-114856788D01*
X166257711Y-114885996D01*
X166303822Y-114928480D01*
X166359404Y-114981323D01*
X166421536Y-115041611D01*
X166487298Y-115106429D01*
X166553769Y-115172860D01*
X166618027Y-115237991D01*
X166677152Y-115298906D01*
X166728223Y-115352689D01*
X166768319Y-115396426D01*
X166794518Y-115427201D01*
X166803900Y-115442100D01*
X166806897Y-115449081D01*
X166825562Y-115474297D01*
X166858473Y-115512694D01*
X166902320Y-115560482D01*
X166953793Y-115613865D01*
X166976048Y-115636675D01*
X167027603Y-115691783D01*
X167067966Y-115738320D01*
X167094280Y-115772890D01*
X167103686Y-115792095D01*
X167107045Y-115802336D01*
X167126090Y-115831218D01*
X167158205Y-115869949D01*
X167199072Y-115913054D01*
X167216302Y-115930523D01*
X167257503Y-115976204D01*
X167284665Y-116012722D01*
X167294458Y-116035794D01*
X167294505Y-116036887D01*
X167305264Y-116061395D01*
X167331749Y-116097132D01*
X167369405Y-116137893D01*
X167376313Y-116144806D01*
X167410848Y-116182418D01*
X167435159Y-116214003D01*
X167444351Y-116233326D01*
X167444357Y-116233622D01*
X167453982Y-116253757D01*
X167478414Y-116285406D01*
X167512484Y-116321853D01*
X167512973Y-116322335D01*
X167547066Y-116359566D01*
X167571358Y-116392899D01*
X167580617Y-116415169D01*
X167587982Y-116434110D01*
X167609615Y-116469533D01*
X167642079Y-116515669D01*
X167681912Y-116567316D01*
X167713691Y-116608303D01*
X167758360Y-116672149D01*
X167802932Y-116744430D01*
X167850809Y-116830769D01*
X167905394Y-116936792D01*
X167933460Y-116991849D01*
X167977944Y-117075212D01*
X168016979Y-117143381D01*
X168048681Y-117193124D01*
X168071167Y-117221209D01*
X168092235Y-117246329D01*
X168123075Y-117293044D01*
X168158429Y-117353718D01*
X168195637Y-117423026D01*
X168232042Y-117495642D01*
X168264985Y-117566237D01*
X168291806Y-117629487D01*
X168309849Y-117680066D01*
X168316454Y-117712646D01*
X168317226Y-117724619D01*
X168327733Y-117764212D01*
X168351886Y-117817057D01*
X168391400Y-117887148D01*
X168400467Y-117902496D01*
X168437935Y-117971325D01*
X168459461Y-118022832D01*
X168466347Y-118060020D01*
X168478097Y-118112712D01*
X168514040Y-118178122D01*
X168529941Y-118203105D01*
X168554326Y-118255062D01*
X168561733Y-118302318D01*
X168561800Y-118307029D01*
X168568095Y-118347268D01*
X168582173Y-118372657D01*
X168584037Y-118374403D01*
X168597286Y-118401422D01*
X168602613Y-118440347D01*
X168607146Y-118477048D01*
X168629866Y-118515737D01*
X168647151Y-118539725D01*
X168657119Y-118586322D01*
X168657169Y-118588526D01*
X168664340Y-118624961D01*
X168681335Y-118674388D01*
X168704813Y-118726949D01*
X168711274Y-118739963D01*
X168736249Y-118797590D01*
X168748958Y-118846336D01*
X168752506Y-118897282D01*
X168752621Y-118907757D01*
X168757688Y-118957420D01*
X168772513Y-119007013D01*
X168800199Y-119067614D01*
X168823151Y-119115812D01*
X168838937Y-119160452D01*
X168846164Y-119205254D01*
X168847892Y-119262748D01*
X168848466Y-119303189D01*
X168852102Y-119343966D01*
X168860470Y-119369772D01*
X168875145Y-119387840D01*
X168890840Y-119407885D01*
X168899880Y-119439919D01*
X168902398Y-119490483D01*
X168902635Y-119506926D01*
X168908606Y-119558368D01*
X168922838Y-119585426D01*
X168930148Y-119594608D01*
X168937896Y-119619835D01*
X168942046Y-119662738D01*
X168943278Y-119728061D01*
X168943381Y-119755231D01*
X168944924Y-119807581D01*
X168949210Y-119841403D01*
X168957369Y-119862930D01*
X168970531Y-119878398D01*
X168976471Y-119884249D01*
X168986002Y-119898565D01*
X168992202Y-119919878D01*
X168995768Y-119953251D01*
X168997397Y-120003746D01*
X168997785Y-120076427D01*
X168998053Y-120128466D01*
X168999727Y-120188918D01*
X169003339Y-120229246D01*
X169009350Y-120253756D01*
X169018225Y-120266756D01*
X169020957Y-120270048D01*
X169024820Y-120280017D01*
X169028090Y-120297493D01*
X169030815Y-120324452D01*
X169033042Y-120362867D01*
X169034818Y-120414713D01*
X169036191Y-120481965D01*
X169037208Y-120566597D01*
X169037916Y-120670584D01*
X169038363Y-120795900D01*
X169038597Y-120944521D01*
X169038664Y-121118419D01*
X169038655Y-121160338D01*
X169038639Y-121230029D01*
G37*
%TD*%
M02*
