M48
; DRILL file KiCad 10.0.4 date 2026-06-29T14:17:38
; FORMAT={-:-/ absolute / metric / decimal}
; #@! TF.CreationDate,2026-06-29T14:17:38+02:00
; #@! TF.GenerationSoftware,Kicad,Pcbnew,10.0.4
; #@! TF.FileFunction,Plated,1,6,PTH
FMAT,2
METRIC
; #@! TA.AperFunction,Plated,PTH,ViaDrill
T1C0.300
; #@! TA.AperFunction,Plated,PTH,ComponentDrill
T2C0.700
; #@! TA.AperFunction,Plated,PTH,ComponentDrill
T3C0.991
; #@! TA.AperFunction,Plated,PTH,ComponentDrill
T4C3.404
%
G90
G05
T1
X124.469Y-78.732
X124.469Y-81.732
X124.469Y-84.732
X124.469Y-89.232
X124.469Y-96.732
X124.469Y-122.232
X124.469Y-138.732
X127.469Y-78.732
X127.469Y-87.732
X127.469Y-90.732
X127.469Y-95.232
X127.469Y-98.232
X127.469Y-101.232
X128.969Y-104.232
X128.969Y-107.232
X128.969Y-114.732
X128.969Y-117.732
X128.969Y-120.732
X128.969Y-126.732
X128.969Y-129.732
X128.969Y-132.732
X128.969Y-135.732
X128.969Y-138.732
X130.469Y-78.732
X130.469Y-87.732
X130.469Y-96.732
X130.469Y-111.732
X131.471Y-111.266
X133.469Y-78.732
X133.469Y-81.732
X133.469Y-84.732
X133.469Y-87.732
X133.469Y-122.232
X133.469Y-125.232
X133.469Y-128.232
X133.469Y-131.232
X133.469Y-134.232
X133.469Y-137.232
X134.658Y-99.022
X136.469Y-78.732
X136.469Y-81.732
X136.469Y-84.732
X136.469Y-87.732
X136.469Y-99.732
X136.469Y-108.732
X136.469Y-111.732
X136.469Y-114.732
X136.469Y-117.732
X136.469Y-120.732
X136.469Y-123.732
X136.469Y-126.732
X136.469Y-129.732
X136.469Y-132.732
X136.469Y-135.732
X137.969Y-138.732
X139.469Y-78.732
X139.469Y-81.732
X139.469Y-84.732
X139.469Y-87.732
X140.969Y-104.232
X140.969Y-107.232
X140.969Y-110.232
X140.969Y-113.232
X140.969Y-116.232
X140.969Y-119.232
X140.969Y-122.232
X140.969Y-125.232
X140.969Y-128.232
X140.969Y-131.232
X140.969Y-134.232
X140.969Y-137.232
X142.469Y-78.732
X142.469Y-81.732
X142.469Y-84.732
X142.469Y-87.732
X143.969Y-101.232
X143.969Y-104.232
X143.969Y-107.232
X143.969Y-110.232
X143.969Y-113.232
X143.969Y-116.232
X143.969Y-119.232
X143.969Y-122.232
X143.969Y-125.232
X143.969Y-128.232
X143.969Y-138.732
X145.469Y-78.732
X145.469Y-81.732
X145.469Y-84.732
X145.469Y-87.732
X146.969Y-114.732
X146.969Y-117.732
X146.969Y-120.732
X146.969Y-123.732
X146.969Y-126.732
X146.969Y-129.732
X146.969Y-138.732
X148.469Y-78.732
X148.469Y-81.732
X148.469Y-84.732
X148.469Y-87.732
X148.469Y-141.732
X148.76Y-121.268
X149.344Y-122.157
X149.969Y-123.732
X149.969Y-126.732
X151.469Y-78.732
X151.469Y-81.732
X151.469Y-84.732
X151.469Y-87.732
X152.969Y-138.732
X153.439Y-107.014
X153.791Y-109.982
X154.469Y-78.732
X154.469Y-81.732
X154.469Y-84.732
X154.469Y-87.732
X154.469Y-101.232
X154.469Y-104.232
X154.469Y-107.232
X154.469Y-111.732
X154.469Y-114.732
X154.469Y-117.732
X154.469Y-122.232
X154.469Y-125.232
X154.469Y-128.232
X154.469Y-132.732
X155.695Y-99.089
X157.469Y-78.732
X157.469Y-81.732
X157.469Y-84.732
X157.469Y-87.732
X157.469Y-99.732
X157.469Y-102.732
X157.469Y-105.732
X157.469Y-108.732
X157.469Y-111.732
X157.469Y-114.732
X157.469Y-117.732
X157.469Y-120.732
X157.469Y-125.232
X157.469Y-128.232
X157.469Y-131.232
X157.469Y-135.732
X160.469Y-78.732
X160.469Y-81.732
X160.469Y-84.732
X160.469Y-87.732
X160.469Y-114.732
X160.469Y-117.732
X160.469Y-122.232
X160.469Y-128.232
X160.469Y-131.232
X160.469Y-134.232
X160.469Y-138.732
X161.969Y-125.232
X163.469Y-78.732
X163.469Y-81.732
X163.469Y-84.732
X163.469Y-87.732
X163.469Y-111.732
X163.469Y-114.732
X163.469Y-117.732
X163.469Y-120.732
X163.469Y-131.232
X163.469Y-134.232
X163.469Y-137.232
X164.969Y-99.732
X164.969Y-102.732
X164.969Y-105.732
X164.969Y-108.732
X164.969Y-123.732
X164.969Y-126.732
X166.469Y-78.732
X166.469Y-87.732
X166.469Y-114.732
X166.469Y-117.732
X166.469Y-120.732
X166.469Y-129.732
X166.469Y-134.232
X166.469Y-137.232
X167.969Y-92.232
X167.969Y-95.232
X167.969Y-98.232
X167.969Y-101.232
X167.969Y-104.232
X167.969Y-107.232
X167.969Y-111.732
X167.969Y-123.732
X167.969Y-126.732
X169.469Y-78.732
X169.469Y-87.732
X169.469Y-117.732
X169.469Y-120.732
X169.469Y-131.232
X169.469Y-137.232
X170.969Y-95.232
X170.969Y-107.232
X170.969Y-110.232
X170.969Y-125.232
X170.969Y-128.232
X172.469Y-78.732
X172.469Y-81.732
X172.469Y-84.732
X172.469Y-104.232
X173.969Y-96.732
X173.969Y-138.732
T2
X132.469Y-91.232
X132.469Y-97.732
X133.469Y-93.232
X133.469Y-95.732
X134.469Y-91.232
X134.469Y-97.732
X135.469Y-93.232
X135.469Y-95.732
X136.469Y-91.232
X136.469Y-97.732
X137.469Y-93.232
X137.469Y-95.732
X138.469Y-91.232
X138.469Y-97.732
X139.469Y-93.232
X139.469Y-95.732
X140.469Y-91.232
X140.469Y-97.732
X141.469Y-93.232
X141.469Y-95.732
X142.469Y-91.232
X142.469Y-97.732
X143.469Y-93.232
X143.469Y-95.732
X144.469Y-91.232
X144.469Y-97.732
X145.469Y-93.232
X145.469Y-95.732
X146.469Y-91.232
X146.469Y-97.732
X147.469Y-93.232
X147.469Y-95.732
X148.469Y-91.232
X148.469Y-97.732
X149.469Y-93.232
X149.469Y-95.732
X150.469Y-91.232
X150.469Y-97.732
X151.469Y-93.232
X151.469Y-95.732
X152.469Y-91.232
X152.469Y-97.732
X155.469Y-93.232
X155.469Y-95.732
X156.469Y-91.232
X156.469Y-97.732
X157.469Y-93.232
X157.469Y-95.732
X158.469Y-91.232
X158.469Y-97.732
X159.469Y-93.232
X159.469Y-95.732
X160.469Y-91.232
X160.469Y-97.732
X161.469Y-93.232
X161.469Y-95.732
X162.469Y-91.232
X162.469Y-97.732
X163.469Y-93.232
X163.469Y-95.732
X164.469Y-91.232
X164.469Y-97.732
X165.469Y-93.232
X165.469Y-95.732
T3
X124.498Y-87.913
X124.498Y-90.453
X124.498Y-92.993
X124.498Y-95.533
X124.498Y-98.073
X124.498Y-100.613
X124.498Y-103.153
X124.498Y-105.693
X124.498Y-108.233
X124.498Y-110.773
X124.498Y-113.313
X124.498Y-115.853
X124.498Y-118.393
X124.498Y-120.933
X124.498Y-123.473
X124.498Y-126.013
X124.498Y-128.553
X124.498Y-131.093
X124.498Y-133.633
X124.498Y-136.173
X124.498Y-141.253
X127.038Y-141.253
X129.578Y-141.253
X132.118Y-141.253
X134.658Y-141.253
X137.198Y-141.253
X139.738Y-141.253
X142.278Y-141.253
X144.818Y-141.253
X147.358Y-141.253
X149.898Y-141.253
X152.438Y-141.253
X154.978Y-141.253
X157.518Y-141.253
X160.058Y-141.253
X162.598Y-141.253
X165.138Y-141.253
X167.678Y-141.253
X170.218Y-141.253
X172.758Y-87.913
X172.758Y-90.453
X172.758Y-92.993
X172.758Y-95.533
X172.758Y-98.073
X172.758Y-100.613
X172.758Y-103.153
X172.758Y-105.693
X172.758Y-108.233
X172.758Y-110.773
X172.758Y-113.313
X172.758Y-115.853
X172.758Y-118.393
X172.758Y-120.933
X172.758Y-123.473
X172.758Y-126.013
X172.758Y-128.553
X172.758Y-131.093
X172.758Y-133.633
X172.758Y-136.173
X172.758Y-141.253
T4
X129.578Y-82.833
X147.358Y-133.633
X167.678Y-82.833
M30
