%TF.GenerationSoftware,KiCad,Pcbnew,10.0.4*%
%TF.CreationDate,2026-06-29T15:09:08+02:00*%
%TF.ProjectId,CW308T_to_cardedge,43573330-3854-45f7-946f-5f6361726465,rev?*%
%TF.SameCoordinates,Original*%
%TF.FileFunction,Copper,L5,Inr*%
%TF.FilePolarity,Positive*%
%FSLAX46Y46*%
G04 Gerber Fmt 4.6, Leading zero omitted, Abs format (unit mm)*
G04 Created by KiCad (PCBNEW 10.0.4) date 2026-06-29 15:09:08*
%MOMM*%
%LPD*%
G01*
G04 APERTURE LIST*
%TA.AperFunction,ComponentPad*%
%ADD10R,2.794000X1.524000*%
%TD*%
%TA.AperFunction,ComponentPad*%
%ADD11O,2.794000X1.524000*%
%TD*%
%TA.AperFunction,ComponentPad*%
%ADD12R,1.524000X2.794000*%
%TD*%
%TA.AperFunction,ComponentPad*%
%ADD13O,1.524000X2.794000*%
%TD*%
%TA.AperFunction,ComponentPad*%
%ADD14C,6.350000*%
%TD*%
%TA.AperFunction,ComponentPad*%
%ADD15R,1.208000X1.208000*%
%TD*%
%TA.AperFunction,ComponentPad*%
%ADD16C,1.208000*%
%TD*%
%TA.AperFunction,ViaPad*%
%ADD17C,0.600000*%
%TD*%
%TA.AperFunction,Conductor*%
%ADD18C,0.200000*%
%TD*%
G04 APERTURE END LIST*
D10*
%TO.N,unconnected-(J1-SPARE1-PadA1)*%
%TO.C,J1*%
X124497600Y-87913100D03*
D11*
%TO.N,GND*%
X124497600Y-90453100D03*
%TO.N,/CLKOUT*%
X124497600Y-92993100D03*
%TO.N,GND*%
X124497600Y-95533100D03*
%TO.N,/CLKIN*%
X124497600Y-98073100D03*
%TO.N,GND*%
X124497600Y-100613100D03*
%TO.N,/GPIO1{slash}TX*%
X124497600Y-103153100D03*
%TO.N,/GPIO2{slash}RX*%
X124497600Y-105693100D03*
%TO.N,/GPIO3*%
X124497600Y-108233100D03*
%TO.N,/GPIO4{slash}TRIG*%
X124497600Y-110773100D03*
%TO.N,/nRST*%
X124497600Y-113313100D03*
%TO.N,/SCK*%
X124497600Y-115853100D03*
%TO.N,/MISO*%
X124497600Y-118393100D03*
%TO.N,/MOSI*%
X124497600Y-120933100D03*
%TO.N,GND*%
X124497600Y-123473100D03*
X124497600Y-126013100D03*
%TO.N,/PDIC*%
X124497600Y-128553100D03*
%TO.N,/PDID*%
X124497600Y-131093100D03*
%TO.N,unconnected-(J1-SPARE2-PadA19)*%
X124497600Y-133633100D03*
%TO.N,/IOVREF*%
X124497600Y-136173100D03*
D12*
%TO.N,GND*%
X124497600Y-141253100D03*
D13*
%TO.N,/JTAG_TRST*%
X127037600Y-141253100D03*
%TO.N,/JTAG_TDI*%
X129577600Y-141253100D03*
%TO.N,/JTAG_TDO*%
X132117600Y-141253100D03*
%TO.N,/JTAG_TMS*%
X134657600Y-141253100D03*
%TO.N,/JTAG_TCK*%
X137197600Y-141253100D03*
%TO.N,/JTAG_VREF*%
X139737600Y-141253100D03*
%TO.N,/JTAG_nRST*%
X142277600Y-141253100D03*
%TO.N,GND*%
X144817600Y-141253100D03*
X147357600Y-141253100D03*
%TO.N,/HDR1*%
X149897600Y-141253100D03*
%TO.N,/HDR2*%
X152437600Y-141253100D03*
%TO.N,/HDR3*%
X154977600Y-141253100D03*
%TO.N,/HDR4*%
X157517600Y-141253100D03*
%TO.N,/HDR5*%
X160057600Y-141253100D03*
%TO.N,/HDR6*%
X162597600Y-141253100D03*
%TO.N,/HDR7*%
X165137600Y-141253100D03*
%TO.N,/HDR8*%
X167677600Y-141253100D03*
%TO.N,/HDR9*%
X170217600Y-141253100D03*
%TO.N,/HDR10*%
X172757600Y-141253100D03*
D10*
%TO.N,GND*%
X172757600Y-87913100D03*
D11*
%TO.N,/SHUNTL*%
X172757600Y-90453100D03*
%TO.N,/SHUNTH*%
X172757600Y-92993100D03*
%TO.N,GND*%
X172757600Y-95533100D03*
%TO.N,/FILT_LP*%
X172757600Y-98073100D03*
%TO.N,/FILT_HP*%
X172757600Y-100613100D03*
%TO.N,GND*%
X172757600Y-103153100D03*
%TO.N,/FILTIN*%
X172757600Y-105693100D03*
%TO.N,GND*%
X172757600Y-108233100D03*
X172757600Y-110773100D03*
%TO.N,/VCC1.2*%
X172757600Y-113313100D03*
%TO.N,/VCC1.8*%
X172757600Y-115853100D03*
%TO.N,/VCC2.5*%
X172757600Y-118393100D03*
%TO.N,/VCC3.3*%
X172757600Y-120933100D03*
%TO.N,/VCC5.0*%
X172757600Y-123473100D03*
%TO.N,GND*%
X172757600Y-126013100D03*
X172757600Y-128553100D03*
%TO.N,/LED1*%
X172757600Y-131093100D03*
%TO.N,/LED2*%
X172757600Y-133633100D03*
%TO.N,/LED3*%
X172757600Y-136173100D03*
D14*
%TO.N,N/C*%
X147357600Y-133633100D03*
%TD*%
D15*
%TO.N,GND*%
%TO.C,CN1*%
X164968600Y-73732100D03*
D16*
X163968600Y-71732100D03*
%TO.N,/FILT_LP*%
X162968600Y-73732100D03*
%TO.N,/VCC2.5*%
X161968600Y-71732100D03*
%TO.N,/VCC3.3*%
X160968600Y-73732100D03*
%TO.N,/VCC5.0*%
X159968600Y-71732100D03*
%TO.N,/VCCADJ*%
X158968600Y-73732100D03*
%TO.N,GND*%
X157968600Y-71732100D03*
%TO.N,/HDR1*%
X156968600Y-73732100D03*
%TO.N,/HDR2*%
X155968600Y-71732100D03*
%TO.N,/HDR3*%
X154968600Y-73732100D03*
%TO.N,/HDR4*%
X151968600Y-71732100D03*
%TO.N,/HDR5*%
X150968600Y-73732100D03*
%TO.N,/HDR6*%
X149968600Y-71732100D03*
%TO.N,/HDR7*%
X148968600Y-73732100D03*
%TO.N,/HDR8*%
X147968600Y-71732100D03*
%TO.N,/HDR9*%
X146968600Y-73732100D03*
%TO.N,/HDR10*%
X145968600Y-71732100D03*
%TO.N,/nRST_OUT*%
X144968600Y-73732100D03*
%TO.N,GND*%
X143968600Y-71732100D03*
%TO.N,/TRACECLK*%
X142968600Y-73732100D03*
%TO.N,/TRACED0*%
X141968600Y-71732100D03*
%TO.N,/TRACED1*%
X140968600Y-73732100D03*
%TO.N,/TRACED2*%
X139968600Y-71732100D03*
%TO.N,/TRACED3*%
X138968600Y-73732100D03*
%TO.N,/JTAG_VREF*%
X137968600Y-71732100D03*
%TO.N,GND*%
X136968600Y-73732100D03*
X135968600Y-71732100D03*
%TO.N,/CLKIN*%
X134968600Y-73732100D03*
%TO.N,/CLKIN_n*%
X133968600Y-71732100D03*
%TO.N,/JTAG_nRST*%
X132968600Y-73732100D03*
%TO.N,/JTAG_TRST*%
X131968600Y-71732100D03*
%TO.N,/SHUNTL*%
X164968600Y-76232100D03*
%TO.N,/SHUNTH*%
X163968600Y-78232100D03*
%TO.N,GND*%
X162968600Y-76232100D03*
%TO.N,/FILT_HP*%
X161968600Y-78232100D03*
%TO.N,/FILTIN*%
X160968600Y-76232100D03*
%TO.N,/VCC1.0*%
X159968600Y-78232100D03*
%TO.N,/VCC1.2*%
X158968600Y-76232100D03*
%TO.N,/VCC1.8*%
X157968600Y-78232100D03*
%TO.N,GND*%
X156968600Y-76232100D03*
%TO.N,/IOVREF*%
X155968600Y-78232100D03*
%TO.N,/LED1*%
X154968600Y-76232100D03*
%TO.N,/LED2*%
X151968600Y-78232100D03*
%TO.N,/LED3*%
X150968600Y-76232100D03*
%TO.N,/nRST*%
X149968600Y-78232100D03*
%TO.N,GND*%
X148968600Y-76232100D03*
%TO.N,/GPIO1{slash}TX*%
X147968600Y-78232100D03*
%TO.N,/GPIO2{slash}RX*%
X146968600Y-76232100D03*
%TO.N,/GPIO3*%
X145968600Y-78232100D03*
%TO.N,/GPIO4{slash}TRIG*%
X144968600Y-76232100D03*
%TO.N,/SCK*%
X143968600Y-78232100D03*
%TO.N,GND*%
X142968600Y-76232100D03*
X141968600Y-78232100D03*
%TO.N,/MISO*%
X140968600Y-76232100D03*
%TO.N,/MOSI*%
X139968600Y-78232100D03*
%TO.N,/PDIC*%
X138968600Y-76232100D03*
%TO.N,/PDID*%
X137968600Y-78232100D03*
%TO.N,/CLKOUT*%
X136968600Y-76232100D03*
%TO.N,/CLKOUT_n*%
X135968600Y-78232100D03*
%TO.N,/JTAG_TDI*%
X134968600Y-76232100D03*
%TO.N,/JTAG_TDO*%
X133968600Y-78232100D03*
%TO.N,/JTAG_TMS*%
X132968600Y-76232100D03*
%TO.N,/JTAG_TCK*%
X131968600Y-78232100D03*
%TD*%
D17*
%TO.N,GND*%
X172968600Y-138732100D03*
X172968600Y-104232100D03*
X172968600Y-96732100D03*
X172968600Y-84732100D03*
X172968600Y-81732100D03*
X172968600Y-78732100D03*
X172968600Y-75732100D03*
X171468600Y-129732100D03*
X171468600Y-72732100D03*
X171468600Y-69732100D03*
X171468600Y-66732100D03*
X171468600Y-63732100D03*
X171468600Y-60732100D03*
X169968600Y-116232100D03*
X169968600Y-113232100D03*
X169968600Y-108732100D03*
X169968600Y-105732100D03*
X169968600Y-101232100D03*
X169968600Y-96732100D03*
X169968600Y-93732100D03*
X169968600Y-90732100D03*
X169968600Y-86232100D03*
X169968600Y-81732100D03*
X169968600Y-78732100D03*
X169968600Y-75732100D03*
X168468600Y-125232100D03*
X168468600Y-122232100D03*
X168468600Y-72732100D03*
X168468600Y-69732100D03*
X168468600Y-66732100D03*
X168468600Y-63732100D03*
X168468600Y-60732100D03*
X166968600Y-137232100D03*
X166968600Y-134232100D03*
X166968600Y-131232100D03*
X166968600Y-128232100D03*
X166968600Y-113232100D03*
X166968600Y-110232100D03*
X166968600Y-105732100D03*
X166968600Y-102732100D03*
X166968600Y-98232100D03*
X166968600Y-93732100D03*
X166968600Y-90732100D03*
X166968600Y-87732100D03*
X166968600Y-83232100D03*
X166968600Y-78732100D03*
X166968600Y-75732100D03*
X165468600Y-123732100D03*
X165468600Y-120732100D03*
X165468600Y-72732100D03*
X165468600Y-69732100D03*
X165468600Y-66732100D03*
X165468600Y-63732100D03*
X165468600Y-60732100D03*
X163968600Y-134232100D03*
X163968600Y-117732100D03*
X163968600Y-110232100D03*
X163968600Y-107232100D03*
X163968600Y-102732100D03*
X163968600Y-99732100D03*
X163968600Y-95232100D03*
X163968600Y-92232100D03*
X163968600Y-89232100D03*
X163968600Y-86232100D03*
X163968600Y-83232100D03*
X163968600Y-80232100D03*
X162468600Y-137232100D03*
X162468600Y-129732100D03*
X162468600Y-126732100D03*
X162468600Y-120732100D03*
X162468600Y-69732100D03*
X162468600Y-66732100D03*
X162468600Y-63732100D03*
X162468600Y-60732100D03*
X160968600Y-134232100D03*
X160968600Y-117732100D03*
X160968600Y-114732100D03*
X160968600Y-110232100D03*
X160968600Y-107232100D03*
X160968600Y-104232100D03*
X159468600Y-129732100D03*
X159468600Y-126732100D03*
X159468600Y-123732100D03*
X159468600Y-69732100D03*
X159468600Y-66732100D03*
X159468600Y-63732100D03*
X159468600Y-60732100D03*
X157968600Y-116232100D03*
X157968600Y-113232100D03*
X157968600Y-110232100D03*
X156468600Y-137232100D03*
X156468600Y-134232100D03*
X156468600Y-126732100D03*
X156468600Y-123732100D03*
X156468600Y-120732100D03*
X156468600Y-69732100D03*
X156468600Y-66732100D03*
X156468600Y-63732100D03*
X156468600Y-60732100D03*
X153468600Y-137232100D03*
X153468600Y-69732100D03*
X153468600Y-63732100D03*
X153468600Y-60732100D03*
X151968600Y-132732100D03*
X151968600Y-129732100D03*
X151968600Y-126732100D03*
X151968600Y-122232100D03*
X151968600Y-119232100D03*
X151968600Y-116232100D03*
X150468600Y-69732100D03*
X150468600Y-66732100D03*
X150468600Y-63732100D03*
X150468600Y-60732100D03*
X148968600Y-138732100D03*
X148968600Y-128232100D03*
X148968600Y-125232100D03*
X148968600Y-122232100D03*
X148968600Y-119232100D03*
X148968600Y-114732100D03*
X148968600Y-110232100D03*
X148968600Y-107232100D03*
X148968600Y-104232100D03*
X148968600Y-101232100D03*
X148968600Y-98232100D03*
X148968600Y-95232100D03*
X148968600Y-92232100D03*
X148968600Y-89232100D03*
X148968600Y-86232100D03*
X148968600Y-83232100D03*
X148968600Y-80232100D03*
X147468600Y-69732100D03*
X147468600Y-66732100D03*
X147468600Y-63732100D03*
X147468600Y-60732100D03*
X145968600Y-141732100D03*
X145968600Y-138732100D03*
X145968600Y-128232100D03*
X145968600Y-125232100D03*
X145968600Y-122232100D03*
X145968600Y-119232100D03*
X145968600Y-113232100D03*
X145968600Y-110232100D03*
X145968600Y-107232100D03*
X145968600Y-104232100D03*
X145968600Y-101232100D03*
X145968600Y-98232100D03*
X145968600Y-95232100D03*
X144468600Y-92232100D03*
X144468600Y-86232100D03*
X144468600Y-69732100D03*
X144468600Y-66732100D03*
X144468600Y-63732100D03*
X144468600Y-60732100D03*
X142968600Y-138732100D03*
X142968600Y-135732100D03*
X142968600Y-132732100D03*
X142968600Y-129732100D03*
X142968600Y-126732100D03*
X142968600Y-123732100D03*
X142968600Y-120732100D03*
X142968600Y-116232100D03*
X142968600Y-113232100D03*
X142968600Y-110232100D03*
X142968600Y-107232100D03*
X142968600Y-104232100D03*
X142968600Y-101232100D03*
X142968600Y-98232100D03*
X142968600Y-95232100D03*
X141468600Y-69732100D03*
X141468600Y-66732100D03*
X141468600Y-63732100D03*
X141468600Y-60732100D03*
X139968600Y-135732100D03*
X139968600Y-132732100D03*
X139968600Y-129732100D03*
X139968600Y-126732100D03*
X139968600Y-123732100D03*
X139968600Y-119232100D03*
X139968600Y-116232100D03*
X139968600Y-113232100D03*
X139968600Y-110232100D03*
X139968600Y-107232100D03*
X139968600Y-104232100D03*
X139968600Y-101232100D03*
X139968600Y-98232100D03*
X139968600Y-90732100D03*
X139968600Y-87732100D03*
X138468600Y-140232100D03*
X138468600Y-69732100D03*
X138468600Y-66732100D03*
X138468600Y-63732100D03*
X138468600Y-60732100D03*
X136968600Y-135732100D03*
X136968600Y-132732100D03*
X136968600Y-129732100D03*
X136968600Y-126732100D03*
X136968600Y-122232100D03*
X135468600Y-69732100D03*
X135468600Y-66732100D03*
X135468600Y-63732100D03*
X135468600Y-60732100D03*
X133968600Y-138732100D03*
X132468600Y-69732100D03*
X132468600Y-66732100D03*
X132468600Y-63732100D03*
X132468600Y-60732100D03*
X130968600Y-135732100D03*
X130968600Y-132732100D03*
X130968600Y-128232100D03*
X130968600Y-120732100D03*
X130968600Y-117732100D03*
X130968600Y-114732100D03*
X130968600Y-110232100D03*
X130968600Y-107232100D03*
X130968600Y-99732100D03*
X130968600Y-96732100D03*
X130968600Y-92232100D03*
X130968600Y-89232100D03*
X130968600Y-86232100D03*
X130968600Y-83232100D03*
X130968600Y-80232100D03*
X129468600Y-75732100D03*
X129468600Y-72732100D03*
X129468600Y-69732100D03*
X129468600Y-63732100D03*
X129468600Y-60732100D03*
X127968600Y-138732100D03*
X127968600Y-135732100D03*
X127968600Y-131232100D03*
X127968600Y-123732100D03*
X127968600Y-120732100D03*
X127968600Y-117732100D03*
X127968600Y-113232100D03*
X127968600Y-110232100D03*
X127968600Y-102732100D03*
X127968600Y-99732100D03*
X127968600Y-95232100D03*
X127968600Y-92232100D03*
X127968600Y-87732100D03*
X127968600Y-84732100D03*
X127968600Y-81732100D03*
X127968600Y-78732100D03*
X126468600Y-75732100D03*
X126468600Y-72732100D03*
X126468600Y-69732100D03*
X126468600Y-66732100D03*
X126468600Y-63732100D03*
X126468600Y-60732100D03*
X123468600Y-138732100D03*
X123468600Y-122232100D03*
X123468600Y-96732100D03*
X123468600Y-89232100D03*
X123468600Y-84732100D03*
X123468600Y-81732100D03*
X123468600Y-78732100D03*
X123468600Y-75732100D03*
X123468600Y-72732100D03*
X123468600Y-69732100D03*
X123468600Y-66732100D03*
X123468600Y-63732100D03*
X123468600Y-60732100D03*
%TO.N,/GPIO1{slash}TX*%
X144468600Y-81036900D03*
%TO.N,/MOSI*%
X126248700Y-99175700D03*
%TO.N,/JTAG_TCK*%
X132213200Y-125653700D03*
%TO.N,/HDR2*%
X155357700Y-132851500D03*
%TO.N,/HDR3*%
X155675000Y-133707500D03*
%TO.N,/HDR4*%
X152431300Y-127851700D03*
%TO.N,/HDR5*%
X152201500Y-125160800D03*
%TO.N,/HDR6*%
X158388700Y-119131200D03*
%TO.N,/HDR7*%
X159237000Y-121188400D03*
%TO.N,/HDR10*%
X157468600Y-86878300D03*
%TD*%
%TO.N,/MOSI*%
D18*
X126248700Y-99175700D02*
X126248700Y-120880700D01*
X124497600Y-120933100D02*
X126196300Y-120933100D01*
X126248700Y-120880700D02*
X126196300Y-120933100D01*
%TO.N,/JTAG_TRST*%
X127037600Y-76663100D02*
X127037600Y-141253100D01*
X131968600Y-71732100D02*
X127037600Y-76663100D01*
%TO.N,/JTAG_TDI*%
X132967300Y-136164700D02*
X132967300Y-77932000D01*
X129577600Y-139554400D02*
X132967300Y-136164700D01*
X129577600Y-141253100D02*
X129577600Y-139554400D01*
X132967300Y-77932000D02*
X134667200Y-76232100D01*
X134667200Y-76232100D02*
X134968600Y-76232100D01*
%TO.N,/JTAG_TDO*%
X133968600Y-78232100D02*
X133968600Y-137703400D01*
X132117600Y-141253100D02*
X132117600Y-139554400D01*
X133968600Y-137703400D02*
X132117600Y-139554400D01*
%TO.N,/JTAG_TMS*%
X135323000Y-75294500D02*
X135888900Y-75860400D01*
X135888900Y-76613300D02*
X135031300Y-77470900D01*
X135031300Y-77470900D02*
X135031300Y-139180700D01*
X135031300Y-139180700D02*
X134657600Y-139554400D01*
X134657600Y-141253100D02*
X134657600Y-139554400D01*
X132968600Y-76232100D02*
X133906200Y-75294500D01*
X135888900Y-75860400D02*
X135888900Y-76613300D01*
X133906200Y-75294500D02*
X135323000Y-75294500D01*
%TO.N,/JTAG_TCK*%
X131968600Y-78232100D02*
X132213200Y-78476700D01*
X132213200Y-78476700D02*
X132213200Y-125653700D01*
%TO.N,/JTAG_VREF*%
X137968600Y-71732100D02*
X138317900Y-71732100D01*
X139032800Y-138849600D02*
X139737600Y-139554400D01*
X139032800Y-77469400D02*
X139032800Y-138849600D01*
X139875400Y-76626800D02*
X139032800Y-77469400D01*
X139737600Y-141253100D02*
X139737600Y-139554400D01*
X139875400Y-73289600D02*
X139875400Y-76626800D01*
X138317900Y-71732100D02*
X139875400Y-73289600D01*
%TO.N,/HDR2*%
X152437600Y-141253100D02*
X152437600Y-135771600D01*
X152437600Y-135771600D02*
X155357700Y-132851500D01*
%TO.N,/HDR3*%
X154977600Y-134404900D02*
X155675000Y-133707500D01*
X154977600Y-141253100D02*
X154977600Y-134404900D01*
%TO.N,/HDR4*%
X152431300Y-127851700D02*
X157517600Y-132938000D01*
X157517600Y-132938000D02*
X157517600Y-141253100D01*
%TO.N,/HDR5*%
X152201500Y-125160800D02*
X160057600Y-133016900D01*
X160057600Y-133016900D02*
X160057600Y-141253100D01*
%TO.N,/HDR6*%
X153858200Y-114600700D02*
X153858200Y-75320200D01*
X153858200Y-75320200D02*
X150270100Y-71732100D01*
X158388700Y-119131200D02*
X153858200Y-114600700D01*
X150270100Y-71732100D02*
X149968600Y-71732100D01*
%TO.N,/HDR7*%
X150218600Y-74982100D02*
X151045200Y-74982100D01*
X152968700Y-114920100D02*
X159237000Y-121188400D01*
X152968700Y-76905600D02*
X152968700Y-114920100D01*
X148968600Y-73732100D02*
X150218600Y-74982100D01*
X151045200Y-74982100D02*
X152968700Y-76905600D01*
%TO.N,/HDR8*%
X147667200Y-71732100D02*
X147968600Y-71732100D01*
X145070300Y-116947100D02*
X145070300Y-80787700D01*
X145967400Y-76931900D02*
X145967400Y-73431900D01*
X145061800Y-80779200D02*
X145061800Y-77837500D01*
X167677600Y-139554400D02*
X145070300Y-116947100D01*
X145070300Y-80787700D02*
X145061800Y-80779200D01*
X145967400Y-73431900D02*
X147667200Y-71732100D01*
X167677600Y-141253100D02*
X167677600Y-139554400D01*
X145061800Y-77837500D02*
X145967400Y-76931900D01*
%TO.N,/HDR9*%
X147911900Y-76987400D02*
X147911900Y-74675400D01*
X147061800Y-116398600D02*
X147061800Y-77837500D01*
X147061800Y-77837500D02*
X147911900Y-76987400D01*
X170217600Y-139554400D02*
X147061800Y-116398600D01*
X147911900Y-74675400D02*
X146968600Y-73732100D01*
X170217600Y-141253100D02*
X170217600Y-139554400D01*
%TO.N,/SHUNTL*%
X164968600Y-76232100D02*
X166107900Y-77371400D01*
X166107900Y-77371400D02*
X166108000Y-77371400D01*
X166108000Y-77371400D02*
X166108000Y-85502200D01*
X166108000Y-85502200D02*
X171058900Y-90453100D01*
X172757600Y-90453100D02*
X171058900Y-90453100D01*
%TO.N,/VCC2.5*%
X162687300Y-74637800D02*
X162593500Y-74637800D01*
X171058900Y-118393100D02*
X165431900Y-112766100D01*
X165431900Y-78393900D02*
X163968600Y-76930600D01*
X163968600Y-75919100D02*
X162687300Y-74637800D01*
X172757600Y-118393100D02*
X171058900Y-118393100D01*
X162593500Y-74637800D02*
X161968700Y-74013000D01*
X165431900Y-112766100D02*
X165431900Y-78393900D01*
X163968600Y-76930600D02*
X163968600Y-75919100D01*
X161968700Y-71732100D02*
X161968600Y-71732100D01*
X161968700Y-74013000D02*
X161968700Y-71732100D01*
%TO.N,/VCC3.3*%
X161968600Y-74732100D02*
X160968600Y-73732100D01*
X162968600Y-112842800D02*
X162968600Y-77600000D01*
X171058900Y-120933100D02*
X162968600Y-112842800D01*
X162968600Y-77600000D02*
X161968600Y-76600000D01*
X172757600Y-120933100D02*
X171058900Y-120933100D01*
X161968600Y-76600000D02*
X161968600Y-74732100D01*
%TO.N,/VCC5.0*%
X158690400Y-75121900D02*
X158047500Y-75764800D01*
X159968600Y-71732100D02*
X159968600Y-74084400D01*
X172757600Y-123473100D02*
X171058900Y-123473100D01*
X159968600Y-74084400D02*
X158931100Y-75121900D01*
X158047500Y-75764800D02*
X158047500Y-76903000D01*
X158968600Y-77824100D02*
X158968600Y-111382800D01*
X158931100Y-75121900D02*
X158690400Y-75121900D01*
X158047500Y-76903000D02*
X158968600Y-77824100D01*
X158968600Y-111382800D02*
X171058900Y-123473100D01*
%TO.N,/LED1*%
X156866900Y-116758500D02*
X171058900Y-130950500D01*
X172757600Y-131093100D02*
X171058900Y-131093100D01*
X155317900Y-76232100D02*
X156968600Y-77882800D01*
X156866900Y-86629200D02*
X156866900Y-116758500D01*
X171058900Y-130950500D02*
X171058900Y-131093100D01*
X156968600Y-86527500D02*
X156866900Y-86629200D01*
X154968600Y-76232100D02*
X155317900Y-76232100D01*
X156968600Y-77882800D02*
X156968600Y-86527500D01*
%TO.N,/LED2*%
X151968600Y-78232100D02*
X151968600Y-114770800D01*
X151968600Y-114770800D02*
X170830900Y-133633100D01*
X172757600Y-133633100D02*
X171058900Y-133633100D01*
X170830900Y-133633100D02*
X171058900Y-133633100D01*
%TO.N,/LED3*%
X171058900Y-136173100D02*
X150968600Y-116082800D01*
X150968600Y-116082800D02*
X150968600Y-76232100D01*
X172757600Y-136173100D02*
X171058900Y-136173100D01*
%TD*%
%TA.AperFunction,Conductor*%
%TO.N,GND*%
G36*
X174911139Y-59752285D02*
G01*
X174956894Y-59805089D01*
X174968100Y-59856600D01*
X174968100Y-143107600D01*
X174948415Y-143174639D01*
X174895611Y-143220394D01*
X174844100Y-143231600D01*
X173418226Y-143231600D01*
X173351187Y-143211915D01*
X173305432Y-143159111D01*
X173295488Y-143089953D01*
X173324513Y-143026397D01*
X173361931Y-142997115D01*
X173419294Y-142967887D01*
X173580064Y-142851081D01*
X173720581Y-142710564D01*
X173837387Y-142549794D01*
X173927605Y-142372732D01*
X173989013Y-142183736D01*
X174020100Y-141987461D01*
X174020100Y-140518739D01*
X173989013Y-140322464D01*
X173927605Y-140133468D01*
X173927605Y-140133467D01*
X173837386Y-139956405D01*
X173720581Y-139795636D01*
X173580064Y-139655119D01*
X173419294Y-139538313D01*
X173403888Y-139530463D01*
X173242232Y-139448094D01*
X173242229Y-139448093D01*
X173053237Y-139386687D01*
X172955098Y-139371143D01*
X172856961Y-139355600D01*
X172658239Y-139355600D01*
X172592814Y-139365962D01*
X172461962Y-139386687D01*
X172272970Y-139448093D01*
X172272967Y-139448094D01*
X172095905Y-139538313D01*
X171935133Y-139655121D01*
X171794621Y-139795633D01*
X171677813Y-139956405D01*
X171598085Y-140112880D01*
X171550110Y-140163676D01*
X171482289Y-140180471D01*
X171416154Y-140157933D01*
X171377115Y-140112880D01*
X171297386Y-139956405D01*
X171180581Y-139795636D01*
X171040064Y-139655119D01*
X170879294Y-139538313D01*
X170877144Y-139537217D01*
X170876475Y-139536585D01*
X170875146Y-139535771D01*
X170875317Y-139535491D01*
X170826353Y-139489238D01*
X170813676Y-139458833D01*
X170777177Y-139322616D01*
X170777173Y-139322609D01*
X170698124Y-139185690D01*
X170698121Y-139185686D01*
X170698120Y-139185684D01*
X170586316Y-139073880D01*
X170586315Y-139073879D01*
X170581985Y-139069549D01*
X170581974Y-139069539D01*
X147698619Y-116186184D01*
X147665134Y-116124861D01*
X147662300Y-116098503D01*
X147662300Y-79447039D01*
X147681985Y-79380000D01*
X147734789Y-79334245D01*
X147803947Y-79324301D01*
X147805625Y-79324554D01*
X147881674Y-79336600D01*
X147881676Y-79336600D01*
X148055525Y-79336600D01*
X148055526Y-79336600D01*
X148227238Y-79309403D01*
X148227241Y-79309402D01*
X148227242Y-79309402D01*
X148392578Y-79255681D01*
X148392578Y-79255680D01*
X148392581Y-79255680D01*
X148547484Y-79176753D01*
X148688133Y-79074565D01*
X148811065Y-78951633D01*
X148868283Y-78872878D01*
X148923612Y-78830215D01*
X148993225Y-78824236D01*
X149055020Y-78856842D01*
X149068913Y-78872875D01*
X149126135Y-78951633D01*
X149249067Y-79074565D01*
X149389716Y-79176753D01*
X149504900Y-79235442D01*
X149544621Y-79255681D01*
X149709958Y-79309402D01*
X149709959Y-79309402D01*
X149709962Y-79309403D01*
X149881674Y-79336600D01*
X149881675Y-79336600D01*
X150055524Y-79336600D01*
X150055526Y-79336600D01*
X150224703Y-79309804D01*
X150293995Y-79318758D01*
X150347447Y-79363754D01*
X150368087Y-79430506D01*
X150368100Y-79432277D01*
X150368100Y-115996130D01*
X150368099Y-115996148D01*
X150368099Y-116161854D01*
X150368098Y-116161854D01*
X150409023Y-116314585D01*
X150437958Y-116364700D01*
X150437959Y-116364704D01*
X150437960Y-116364704D01*
X150488079Y-116451514D01*
X150488081Y-116451517D01*
X150606949Y-116570385D01*
X150606954Y-116570389D01*
X170690184Y-136653620D01*
X170690186Y-136653621D01*
X170690190Y-136653624D01*
X170827109Y-136732673D01*
X170827116Y-136732677D01*
X170963336Y-136769177D01*
X171022993Y-136805541D01*
X171041725Y-136832659D01*
X171042813Y-136834794D01*
X171159619Y-136995564D01*
X171300136Y-137136081D01*
X171460906Y-137252887D01*
X171547749Y-137297135D01*
X171637967Y-137343105D01*
X171637970Y-137343106D01*
X171732466Y-137373809D01*
X171826964Y-137404513D01*
X172023239Y-137435600D01*
X172023240Y-137435600D01*
X173491960Y-137435600D01*
X173491961Y-137435600D01*
X173688236Y-137404513D01*
X173877232Y-137343105D01*
X174054294Y-137252887D01*
X174215064Y-137136081D01*
X174355581Y-136995564D01*
X174472387Y-136834794D01*
X174562605Y-136657732D01*
X174624013Y-136468736D01*
X174655100Y-136272461D01*
X174655100Y-136073739D01*
X174624013Y-135877464D01*
X174562605Y-135688468D01*
X174562605Y-135688467D01*
X174516635Y-135598249D01*
X174472387Y-135511406D01*
X174355581Y-135350636D01*
X174215064Y-135210119D01*
X174054294Y-135093313D01*
X173897818Y-135013584D01*
X173847023Y-134965610D01*
X173830228Y-134897789D01*
X173852765Y-134831654D01*
X173897818Y-134792615D01*
X174054294Y-134712887D01*
X174215064Y-134596081D01*
X174355581Y-134455564D01*
X174472387Y-134294794D01*
X174562605Y-134117732D01*
X174624013Y-133928736D01*
X174655100Y-133732461D01*
X174655100Y-133533739D01*
X174624013Y-133337464D01*
X174583163Y-133211739D01*
X174562606Y-133148470D01*
X174562605Y-133148467D01*
X174498615Y-133022881D01*
X174472387Y-132971406D01*
X174355581Y-132810636D01*
X174215064Y-132670119D01*
X174054294Y-132553313D01*
X173897818Y-132473584D01*
X173847023Y-132425610D01*
X173830228Y-132357789D01*
X173852765Y-132291654D01*
X173897818Y-132252615D01*
X174054294Y-132172887D01*
X174215064Y-132056081D01*
X174355581Y-131915564D01*
X174472387Y-131754794D01*
X174562605Y-131577732D01*
X174624013Y-131388736D01*
X174655100Y-131192461D01*
X174655100Y-130993739D01*
X174624013Y-130797464D01*
X174562605Y-130608468D01*
X174562605Y-130608467D01*
X174516635Y-130518249D01*
X174472387Y-130431406D01*
X174355581Y-130270636D01*
X174215064Y-130130119D01*
X174054294Y-130013313D01*
X174014420Y-129992996D01*
X173877232Y-129923094D01*
X173877229Y-129923093D01*
X173688237Y-129861687D01*
X173590098Y-129846143D01*
X173491961Y-129830600D01*
X172023239Y-129830600D01*
X171957814Y-129840962D01*
X171826962Y-129861687D01*
X171637970Y-129923093D01*
X171637967Y-129923094D01*
X171460905Y-130013313D01*
X171300133Y-130130121D01*
X171281626Y-130148629D01*
X171220303Y-130182114D01*
X171150611Y-130177130D01*
X171106264Y-130148629D01*
X157503719Y-116546084D01*
X157470234Y-116484761D01*
X157467400Y-116458403D01*
X157467400Y-87796485D01*
X157487085Y-87729446D01*
X157539889Y-87683691D01*
X157567209Y-87674868D01*
X157702097Y-87648037D01*
X157847779Y-87587694D01*
X157978889Y-87500089D01*
X158090389Y-87388589D01*
X158140998Y-87312848D01*
X158194610Y-87268043D01*
X158263935Y-87259336D01*
X158326963Y-87289490D01*
X158363682Y-87348934D01*
X158368100Y-87381739D01*
X158368100Y-111296130D01*
X158368099Y-111296148D01*
X158368099Y-111461854D01*
X158368098Y-111461854D01*
X158409023Y-111614585D01*
X158432682Y-111655562D01*
X158432683Y-111655566D01*
X158488075Y-111751509D01*
X158488081Y-111751517D01*
X158606949Y-111870385D01*
X158606955Y-111870390D01*
X170574039Y-123837474D01*
X170574049Y-123837485D01*
X170578379Y-123841815D01*
X170578380Y-123841816D01*
X170690184Y-123953620D01*
X170776995Y-124003739D01*
X170827115Y-124032677D01*
X170968352Y-124070521D01*
X170973228Y-124072276D01*
X170997416Y-124089951D01*
X171022991Y-124105540D01*
X171027315Y-124111799D01*
X171029641Y-124113499D01*
X171031100Y-124117278D01*
X171041721Y-124132651D01*
X171042813Y-124134794D01*
X171159619Y-124295564D01*
X171300136Y-124436081D01*
X171460906Y-124552887D01*
X171486267Y-124565809D01*
X171637967Y-124643105D01*
X171637970Y-124643106D01*
X171732466Y-124673809D01*
X171826964Y-124704513D01*
X172023239Y-124735600D01*
X172023240Y-124735600D01*
X173491960Y-124735600D01*
X173491961Y-124735600D01*
X173688236Y-124704513D01*
X173877232Y-124643105D01*
X174054294Y-124552887D01*
X174215064Y-124436081D01*
X174355581Y-124295564D01*
X174472387Y-124134794D01*
X174562605Y-123957732D01*
X174624013Y-123768736D01*
X174655100Y-123572461D01*
X174655100Y-123373739D01*
X174624013Y-123177464D01*
X174562605Y-122988468D01*
X174562605Y-122988467D01*
X174472386Y-122811405D01*
X174355581Y-122650636D01*
X174215064Y-122510119D01*
X174054294Y-122393313D01*
X173897818Y-122313584D01*
X173847023Y-122265610D01*
X173830228Y-122197789D01*
X173852765Y-122131654D01*
X173897818Y-122092615D01*
X174054294Y-122012887D01*
X174215064Y-121896081D01*
X174355581Y-121755564D01*
X174472387Y-121594794D01*
X174562605Y-121417732D01*
X174624013Y-121228736D01*
X174655100Y-121032461D01*
X174655100Y-120833739D01*
X174624013Y-120637464D01*
X174593309Y-120542966D01*
X174562606Y-120448470D01*
X174562605Y-120448467D01*
X174472386Y-120271405D01*
X174451327Y-120242420D01*
X174355581Y-120110636D01*
X174215064Y-119970119D01*
X174054294Y-119853313D01*
X173897818Y-119773584D01*
X173847023Y-119725610D01*
X173830228Y-119657789D01*
X173852765Y-119591654D01*
X173897818Y-119552615D01*
X174054294Y-119472887D01*
X174215064Y-119356081D01*
X174355581Y-119215564D01*
X174472387Y-119054794D01*
X174562605Y-118877732D01*
X174624013Y-118688736D01*
X174655100Y-118492461D01*
X174655100Y-118293739D01*
X174624013Y-118097464D01*
X174562605Y-117908468D01*
X174562605Y-117908467D01*
X174472386Y-117731405D01*
X174355581Y-117570636D01*
X174215064Y-117430119D01*
X174054294Y-117313313D01*
X173897818Y-117233584D01*
X173847023Y-117185610D01*
X173830228Y-117117789D01*
X173852765Y-117051654D01*
X173897818Y-117012615D01*
X174054294Y-116932887D01*
X174215064Y-116816081D01*
X174355581Y-116675564D01*
X174472387Y-116514794D01*
X174562605Y-116337732D01*
X174624013Y-116148736D01*
X174655100Y-115952461D01*
X174655100Y-115753739D01*
X174624013Y-115557464D01*
X174562605Y-115368468D01*
X174562605Y-115368467D01*
X174502915Y-115251320D01*
X174472387Y-115191406D01*
X174355581Y-115030636D01*
X174215064Y-114890119D01*
X174054294Y-114773313D01*
X173897818Y-114693584D01*
X173847023Y-114645610D01*
X173830228Y-114577789D01*
X173852765Y-114511654D01*
X173897818Y-114472615D01*
X174054294Y-114392887D01*
X174215064Y-114276081D01*
X174355581Y-114135564D01*
X174472387Y-113974794D01*
X174562605Y-113797732D01*
X174624013Y-113608736D01*
X174655100Y-113412461D01*
X174655100Y-113213739D01*
X174624013Y-113017464D01*
X174562605Y-112828468D01*
X174562605Y-112828467D01*
X174472386Y-112651405D01*
X174355581Y-112490636D01*
X174215064Y-112350119D01*
X174054294Y-112233313D01*
X173877232Y-112143094D01*
X173877229Y-112143093D01*
X173688237Y-112081687D01*
X173590098Y-112066143D01*
X173491961Y-112050600D01*
X172023239Y-112050600D01*
X171957814Y-112060962D01*
X171826962Y-112081687D01*
X171637970Y-112143093D01*
X171637967Y-112143094D01*
X171460905Y-112233313D01*
X171300133Y-112350121D01*
X171159621Y-112490633D01*
X171042813Y-112651405D01*
X170952594Y-112828467D01*
X170952593Y-112828470D01*
X170891187Y-113017462D01*
X170860100Y-113213739D01*
X170860100Y-113412460D01*
X170891187Y-113608737D01*
X170952593Y-113797729D01*
X170952594Y-113797732D01*
X171042813Y-113974794D01*
X171159619Y-114135564D01*
X171300136Y-114276081D01*
X171460906Y-114392887D01*
X171579432Y-114453279D01*
X171617380Y-114472615D01*
X171668176Y-114520590D01*
X171684971Y-114588411D01*
X171662433Y-114654546D01*
X171617380Y-114693585D01*
X171460905Y-114773313D01*
X171300133Y-114890121D01*
X171159621Y-115030633D01*
X171042813Y-115191405D01*
X170952594Y-115368467D01*
X170952593Y-115368470D01*
X170891187Y-115557462D01*
X170860100Y-115753739D01*
X170860100Y-115952460D01*
X170891187Y-116148737D01*
X170952593Y-116337729D01*
X170952594Y-116337732D01*
X171027510Y-116484761D01*
X171042813Y-116514794D01*
X171159619Y-116675564D01*
X171300136Y-116816081D01*
X171460906Y-116932887D01*
X171579432Y-116993279D01*
X171617380Y-117012615D01*
X171668176Y-117060590D01*
X171684971Y-117128411D01*
X171662433Y-117194546D01*
X171617380Y-117233585D01*
X171460905Y-117313313D01*
X171300137Y-117430118D01*
X171210326Y-117519929D01*
X171149002Y-117553413D01*
X171079311Y-117548429D01*
X171034964Y-117519928D01*
X166068719Y-112553683D01*
X166035234Y-112492360D01*
X166032400Y-112466002D01*
X166032400Y-105593739D01*
X170860100Y-105593739D01*
X170860100Y-105792460D01*
X170891187Y-105988737D01*
X170952593Y-106177729D01*
X170952594Y-106177732D01*
X171042813Y-106354794D01*
X171159619Y-106515564D01*
X171300136Y-106656081D01*
X171460906Y-106772887D01*
X171547749Y-106817135D01*
X171637967Y-106863105D01*
X171637970Y-106863106D01*
X171732466Y-106893809D01*
X171826964Y-106924513D01*
X172023239Y-106955600D01*
X172023240Y-106955600D01*
X173491960Y-106955600D01*
X173491961Y-106955600D01*
X173688236Y-106924513D01*
X173877232Y-106863105D01*
X174054294Y-106772887D01*
X174215064Y-106656081D01*
X174355581Y-106515564D01*
X174472387Y-106354794D01*
X174562605Y-106177732D01*
X174624013Y-105988736D01*
X174655100Y-105792461D01*
X174655100Y-105593739D01*
X174624013Y-105397464D01*
X174562605Y-105208468D01*
X174562605Y-105208467D01*
X174472386Y-105031405D01*
X174355581Y-104870636D01*
X174215064Y-104730119D01*
X174054294Y-104613313D01*
X173877232Y-104523094D01*
X173877229Y-104523093D01*
X173688237Y-104461687D01*
X173590098Y-104446143D01*
X173491961Y-104430600D01*
X172023239Y-104430600D01*
X171957814Y-104440962D01*
X171826962Y-104461687D01*
X171637970Y-104523093D01*
X171637967Y-104523094D01*
X171460905Y-104613313D01*
X171300133Y-104730121D01*
X171159621Y-104870633D01*
X171042813Y-105031405D01*
X170952594Y-105208467D01*
X170952593Y-105208470D01*
X170891187Y-105397462D01*
X170860100Y-105593739D01*
X166032400Y-105593739D01*
X166032400Y-97973739D01*
X170860100Y-97973739D01*
X170860100Y-98172460D01*
X170891187Y-98368737D01*
X170952593Y-98557729D01*
X170952594Y-98557732D01*
X171042813Y-98734794D01*
X171159619Y-98895564D01*
X171300136Y-99036081D01*
X171460906Y-99152887D01*
X171579432Y-99213279D01*
X171617380Y-99232615D01*
X171668176Y-99280590D01*
X171684971Y-99348411D01*
X171662433Y-99414546D01*
X171617380Y-99453585D01*
X171460905Y-99533313D01*
X171300133Y-99650121D01*
X171159621Y-99790633D01*
X171042813Y-99951405D01*
X170952594Y-100128467D01*
X170952593Y-100128470D01*
X170891187Y-100317462D01*
X170860100Y-100513739D01*
X170860100Y-100712460D01*
X170891187Y-100908737D01*
X170952593Y-101097729D01*
X170952594Y-101097732D01*
X171042813Y-101274794D01*
X171159619Y-101435564D01*
X171300136Y-101576081D01*
X171460906Y-101692887D01*
X171547749Y-101737135D01*
X171637967Y-101783105D01*
X171637970Y-101783106D01*
X171732466Y-101813809D01*
X171826964Y-101844513D01*
X172023239Y-101875600D01*
X172023240Y-101875600D01*
X173491960Y-101875600D01*
X173491961Y-101875600D01*
X173688236Y-101844513D01*
X173877232Y-101783105D01*
X174054294Y-101692887D01*
X174215064Y-101576081D01*
X174355581Y-101435564D01*
X174472387Y-101274794D01*
X174562605Y-101097732D01*
X174624013Y-100908736D01*
X174655100Y-100712461D01*
X174655100Y-100513739D01*
X174624013Y-100317464D01*
X174562605Y-100128468D01*
X174562605Y-100128467D01*
X174472386Y-99951405D01*
X174355581Y-99790636D01*
X174215064Y-99650119D01*
X174054294Y-99533313D01*
X173897818Y-99453584D01*
X173847023Y-99405610D01*
X173830228Y-99337789D01*
X173852765Y-99271654D01*
X173897818Y-99232615D01*
X174054294Y-99152887D01*
X174215064Y-99036081D01*
X174355581Y-98895564D01*
X174472387Y-98734794D01*
X174562605Y-98557732D01*
X174624013Y-98368736D01*
X174655100Y-98172461D01*
X174655100Y-97973739D01*
X174624013Y-97777464D01*
X174562605Y-97588468D01*
X174562605Y-97588467D01*
X174516635Y-97498249D01*
X174472387Y-97411406D01*
X174355581Y-97250636D01*
X174215064Y-97110119D01*
X174054294Y-96993313D01*
X173877232Y-96903094D01*
X173877229Y-96903093D01*
X173688237Y-96841687D01*
X173590098Y-96826143D01*
X173491961Y-96810600D01*
X172023239Y-96810600D01*
X171957814Y-96820962D01*
X171826962Y-96841687D01*
X171637970Y-96903093D01*
X171637967Y-96903094D01*
X171460905Y-96993313D01*
X171300133Y-97110121D01*
X171159621Y-97250633D01*
X171042813Y-97411405D01*
X170952594Y-97588467D01*
X170952593Y-97588470D01*
X170891187Y-97777462D01*
X170860100Y-97973739D01*
X166032400Y-97973739D01*
X166032400Y-86575197D01*
X166052085Y-86508158D01*
X166104889Y-86462403D01*
X166174047Y-86452459D01*
X166237603Y-86481484D01*
X166244081Y-86487516D01*
X170574039Y-90817474D01*
X170574049Y-90817485D01*
X170578379Y-90821815D01*
X170578380Y-90821816D01*
X170690184Y-90933620D01*
X170776995Y-90983739D01*
X170827115Y-91012677D01*
X170968349Y-91050521D01*
X170973228Y-91052277D01*
X170997411Y-91069948D01*
X171022992Y-91085541D01*
X171027317Y-91091801D01*
X171029641Y-91093500D01*
X171031099Y-91097277D01*
X171041717Y-91112646D01*
X171042808Y-91114787D01*
X171042812Y-91114793D01*
X171042813Y-91114794D01*
X171159619Y-91275564D01*
X171300136Y-91416081D01*
X171460906Y-91532887D01*
X171579432Y-91593279D01*
X171617380Y-91612615D01*
X171668176Y-91660590D01*
X171684971Y-91728411D01*
X171662433Y-91794546D01*
X171617380Y-91833585D01*
X171460905Y-91913313D01*
X171300133Y-92030121D01*
X171159621Y-92170633D01*
X171042813Y-92331405D01*
X170952594Y-92508467D01*
X170952593Y-92508470D01*
X170891187Y-92697462D01*
X170860100Y-92893739D01*
X170860100Y-93092460D01*
X170891187Y-93288737D01*
X170952593Y-93477729D01*
X170952594Y-93477732D01*
X171017750Y-93605606D01*
X171042813Y-93654794D01*
X171159619Y-93815564D01*
X171300136Y-93956081D01*
X171460906Y-94072887D01*
X171547749Y-94117135D01*
X171637967Y-94163105D01*
X171637970Y-94163106D01*
X171732466Y-94193809D01*
X171826964Y-94224513D01*
X172023239Y-94255600D01*
X172023240Y-94255600D01*
X173491960Y-94255600D01*
X173491961Y-94255600D01*
X173688236Y-94224513D01*
X173877232Y-94163105D01*
X174054294Y-94072887D01*
X174215064Y-93956081D01*
X174355581Y-93815564D01*
X174472387Y-93654794D01*
X174562605Y-93477732D01*
X174624013Y-93288736D01*
X174655100Y-93092461D01*
X174655100Y-92893739D01*
X174624013Y-92697464D01*
X174562605Y-92508468D01*
X174562605Y-92508467D01*
X174516635Y-92418249D01*
X174472387Y-92331406D01*
X174355581Y-92170636D01*
X174215064Y-92030119D01*
X174054294Y-91913313D01*
X173897818Y-91833584D01*
X173847023Y-91785610D01*
X173830228Y-91717789D01*
X173852765Y-91651654D01*
X173897818Y-91612615D01*
X174054294Y-91532887D01*
X174215064Y-91416081D01*
X174355581Y-91275564D01*
X174472387Y-91114794D01*
X174562605Y-90937732D01*
X174624013Y-90748736D01*
X174655100Y-90552461D01*
X174655100Y-90353739D01*
X174624013Y-90157464D01*
X174562605Y-89968468D01*
X174562605Y-89968467D01*
X174472386Y-89791405D01*
X174355581Y-89630636D01*
X174215064Y-89490119D01*
X174054294Y-89373313D01*
X173877232Y-89283094D01*
X173877229Y-89283093D01*
X173688237Y-89221687D01*
X173590098Y-89206143D01*
X173491961Y-89190600D01*
X172023239Y-89190600D01*
X171957814Y-89200962D01*
X171826962Y-89221687D01*
X171637970Y-89283093D01*
X171637967Y-89283094D01*
X171460905Y-89373313D01*
X171300133Y-89490121D01*
X171210326Y-89579929D01*
X171149003Y-89613414D01*
X171079311Y-89608430D01*
X171034964Y-89579929D01*
X166744819Y-85289784D01*
X166711334Y-85228461D01*
X166708500Y-85202103D01*
X166708500Y-77292345D01*
X166708500Y-77292343D01*
X166667577Y-77139616D01*
X166630020Y-77074565D01*
X166588524Y-77002690D01*
X166588518Y-77002682D01*
X166471365Y-76885529D01*
X166470550Y-76884814D01*
X166094758Y-76509023D01*
X166061273Y-76447700D01*
X166059966Y-76401943D01*
X166065309Y-76368216D01*
X166073100Y-76319026D01*
X166073100Y-76145174D01*
X166045903Y-75973462D01*
X166045902Y-75973458D01*
X166045902Y-75973457D01*
X165992181Y-75808121D01*
X165968600Y-75761840D01*
X165913253Y-75653216D01*
X165811065Y-75512567D01*
X165688133Y-75389635D01*
X165547484Y-75287447D01*
X165541268Y-75284280D01*
X165392578Y-75208518D01*
X165227241Y-75154797D01*
X165070388Y-75129954D01*
X165055526Y-75127600D01*
X164881674Y-75127600D01*
X164866812Y-75129954D01*
X164709960Y-75154797D01*
X164709957Y-75154797D01*
X164544621Y-75208518D01*
X164389717Y-75287446D01*
X164389710Y-75287450D01*
X164357506Y-75310847D01*
X164291699Y-75334325D01*
X164223646Y-75318498D01*
X164196943Y-75298208D01*
X163666365Y-74767630D01*
X163632880Y-74706307D01*
X163637864Y-74636615D01*
X163679736Y-74580682D01*
X163681164Y-74579629D01*
X163688126Y-74574570D01*
X163688124Y-74574570D01*
X163688133Y-74574565D01*
X163811065Y-74451633D01*
X163913253Y-74310984D01*
X163992180Y-74156081D01*
X164045903Y-73990738D01*
X164073100Y-73819026D01*
X164073100Y-73645174D01*
X164045903Y-73473462D01*
X164045902Y-73473458D01*
X164045902Y-73473457D01*
X163992181Y-73308121D01*
X163913252Y-73153215D01*
X163903624Y-73139963D01*
X163811065Y-73012567D01*
X163688133Y-72889635D01*
X163547484Y-72787447D01*
X163519213Y-72773042D01*
X163392578Y-72708518D01*
X163227241Y-72654797D01*
X163098454Y-72634399D01*
X163055526Y-72627600D01*
X162926581Y-72627600D01*
X162859542Y-72607915D01*
X162813787Y-72555111D01*
X162803843Y-72485953D01*
X162826262Y-72430715D01*
X162913253Y-72310984D01*
X162992180Y-72156081D01*
X163045903Y-71990738D01*
X163073100Y-71819026D01*
X163073100Y-71645174D01*
X163045903Y-71473462D01*
X163045902Y-71473458D01*
X163045902Y-71473457D01*
X162992181Y-71308121D01*
X162913252Y-71153215D01*
X162903624Y-71139963D01*
X162811065Y-71012567D01*
X162688133Y-70889635D01*
X162547484Y-70787447D01*
X162392578Y-70708518D01*
X162227241Y-70654797D01*
X162098454Y-70634399D01*
X162055526Y-70627600D01*
X161881674Y-70627600D01*
X161824436Y-70636665D01*
X161709960Y-70654797D01*
X161709957Y-70654797D01*
X161544621Y-70708518D01*
X161389715Y-70787447D01*
X161309469Y-70845749D01*
X161249067Y-70889635D01*
X161249065Y-70889637D01*
X161249064Y-70889637D01*
X161126136Y-71012565D01*
X161068918Y-71091319D01*
X161013587Y-71133985D01*
X160943974Y-71139963D01*
X160882179Y-71107357D01*
X160868282Y-71091319D01*
X160865148Y-71087005D01*
X160811065Y-71012567D01*
X160688133Y-70889635D01*
X160547484Y-70787447D01*
X160392578Y-70708518D01*
X160227241Y-70654797D01*
X160098454Y-70634399D01*
X160055526Y-70627600D01*
X159881674Y-70627600D01*
X159824436Y-70636665D01*
X159709960Y-70654797D01*
X159709957Y-70654797D01*
X159544621Y-70708518D01*
X159389715Y-70787447D01*
X159309469Y-70845749D01*
X159249067Y-70889635D01*
X159249065Y-70889637D01*
X159249064Y-70889637D01*
X159126137Y-71012564D01*
X159126137Y-71012565D01*
X159126135Y-71012567D01*
X159082249Y-71072969D01*
X159023947Y-71153215D01*
X158945018Y-71308121D01*
X158891297Y-71473457D01*
X158891297Y-71473460D01*
X158864100Y-71645174D01*
X158864100Y-71819025D01*
X158891297Y-71990739D01*
X158891297Y-71990742D01*
X158945018Y-72156078D01*
X159023947Y-72310984D01*
X159110937Y-72430715D01*
X159134417Y-72496520D01*
X159118592Y-72564574D01*
X159068486Y-72613269D01*
X159010619Y-72627600D01*
X158881674Y-72627600D01*
X158824436Y-72636665D01*
X158709960Y-72654797D01*
X158709957Y-72654797D01*
X158544621Y-72708518D01*
X158389715Y-72787447D01*
X158340834Y-72822962D01*
X158249067Y-72889635D01*
X158249065Y-72889637D01*
X158249064Y-72889637D01*
X158126136Y-73012565D01*
X158068918Y-73091319D01*
X158013587Y-73133985D01*
X157943974Y-73139963D01*
X157882179Y-73107357D01*
X157868282Y-73091319D01*
X157865148Y-73087005D01*
X157811065Y-73012567D01*
X157688133Y-72889635D01*
X157547484Y-72787447D01*
X157519213Y-72773042D01*
X157392578Y-72708518D01*
X157227241Y-72654797D01*
X157098454Y-72634399D01*
X157055526Y-72627600D01*
X156926581Y-72627600D01*
X156859542Y-72607915D01*
X156813787Y-72555111D01*
X156803843Y-72485953D01*
X156826262Y-72430715D01*
X156913253Y-72310984D01*
X156992180Y-72156081D01*
X157045903Y-71990738D01*
X157073100Y-71819026D01*
X157073100Y-71645174D01*
X157045903Y-71473462D01*
X157045902Y-71473458D01*
X157045902Y-71473457D01*
X156992181Y-71308121D01*
X156913252Y-71153215D01*
X156903624Y-71139963D01*
X156811065Y-71012567D01*
X156688133Y-70889635D01*
X156547484Y-70787447D01*
X156392578Y-70708518D01*
X156227241Y-70654797D01*
X156098454Y-70634399D01*
X156055526Y-70627600D01*
X155881674Y-70627600D01*
X155824436Y-70636665D01*
X155709960Y-70654797D01*
X155709957Y-70654797D01*
X155544621Y-70708518D01*
X155389715Y-70787447D01*
X155309469Y-70845749D01*
X155249067Y-70889635D01*
X155249065Y-70889637D01*
X155249064Y-70889637D01*
X155126137Y-71012564D01*
X155126137Y-71012565D01*
X155126135Y-71012567D01*
X155082249Y-71072969D01*
X155023947Y-71153215D01*
X154945018Y-71308121D01*
X154891297Y-71473457D01*
X154891297Y-71473460D01*
X154864100Y-71645174D01*
X154864100Y-71819025D01*
X154891297Y-71990739D01*
X154891297Y-71990742D01*
X154945018Y-72156078D01*
X155023947Y-72310984D01*
X155110937Y-72430715D01*
X155134417Y-72496520D01*
X155118592Y-72564574D01*
X155068486Y-72613269D01*
X155010619Y-72627600D01*
X154881674Y-72627600D01*
X154824436Y-72636665D01*
X154709960Y-72654797D01*
X154709957Y-72654797D01*
X154544621Y-72708518D01*
X154389715Y-72787447D01*
X154340834Y-72822962D01*
X154249067Y-72889635D01*
X154249065Y-72889637D01*
X154249064Y-72889637D01*
X154126137Y-73012564D01*
X154126137Y-73012565D01*
X154126135Y-73012567D01*
X154082249Y-73072969D01*
X154023947Y-73153215D01*
X153945018Y-73308121D01*
X153891297Y-73473457D01*
X153891297Y-73473460D01*
X153864100Y-73645174D01*
X153864100Y-73819025D01*
X153891297Y-73990739D01*
X153891297Y-73990742D01*
X153945018Y-74156078D01*
X154006894Y-74277516D01*
X154019790Y-74346185D01*
X153993514Y-74410926D01*
X153936407Y-74451183D01*
X153866602Y-74454175D01*
X153808728Y-74421492D01*
X152347226Y-72959990D01*
X152313741Y-72898667D01*
X152318725Y-72828975D01*
X152360597Y-72773042D01*
X152388506Y-72758579D01*
X152388078Y-72757546D01*
X152392575Y-72755682D01*
X152392575Y-72755681D01*
X152392581Y-72755680D01*
X152547484Y-72676753D01*
X152688133Y-72574565D01*
X152811065Y-72451633D01*
X152913253Y-72310984D01*
X152992180Y-72156081D01*
X153045903Y-71990738D01*
X153073100Y-71819026D01*
X153073100Y-71645174D01*
X153045903Y-71473462D01*
X153045902Y-71473458D01*
X153045902Y-71473457D01*
X152992181Y-71308121D01*
X152913252Y-71153215D01*
X152903624Y-71139963D01*
X152811065Y-71012567D01*
X152688133Y-70889635D01*
X152547484Y-70787447D01*
X152392578Y-70708518D01*
X152227241Y-70654797D01*
X152098454Y-70634399D01*
X152055526Y-70627600D01*
X151881674Y-70627600D01*
X151824436Y-70636665D01*
X151709960Y-70654797D01*
X151709957Y-70654797D01*
X151544621Y-70708518D01*
X151389715Y-70787447D01*
X151309469Y-70845749D01*
X151249067Y-70889635D01*
X151249065Y-70889637D01*
X151249064Y-70889637D01*
X151126136Y-71012565D01*
X151068918Y-71091319D01*
X151013587Y-71133985D01*
X150943974Y-71139963D01*
X150882179Y-71107357D01*
X150868282Y-71091319D01*
X150865148Y-71087005D01*
X150811065Y-71012567D01*
X150688133Y-70889635D01*
X150547484Y-70787447D01*
X150392578Y-70708518D01*
X150227241Y-70654797D01*
X150098454Y-70634399D01*
X150055526Y-70627600D01*
X149881674Y-70627600D01*
X149824436Y-70636665D01*
X149709960Y-70654797D01*
X149709957Y-70654797D01*
X149544621Y-70708518D01*
X149389715Y-70787447D01*
X149309469Y-70845749D01*
X149249067Y-70889635D01*
X149249065Y-70889637D01*
X149249064Y-70889637D01*
X149126136Y-71012565D01*
X149068918Y-71091319D01*
X149013587Y-71133985D01*
X148943974Y-71139963D01*
X148882179Y-71107357D01*
X148868282Y-71091319D01*
X148865148Y-71087005D01*
X148811065Y-71012567D01*
X148688133Y-70889635D01*
X148547484Y-70787447D01*
X148392578Y-70708518D01*
X148227241Y-70654797D01*
X148098454Y-70634399D01*
X148055526Y-70627600D01*
X147881674Y-70627600D01*
X147824436Y-70636665D01*
X147709960Y-70654797D01*
X147709957Y-70654797D01*
X147544621Y-70708518D01*
X147389715Y-70787447D01*
X147309469Y-70845749D01*
X147249067Y-70889635D01*
X147249065Y-70889637D01*
X147249064Y-70889637D01*
X147126136Y-71012565D01*
X147068918Y-71091319D01*
X147013587Y-71133985D01*
X146943974Y-71139963D01*
X146882179Y-71107357D01*
X146868282Y-71091319D01*
X146865148Y-71087005D01*
X146811065Y-71012567D01*
X146688133Y-70889635D01*
X146547484Y-70787447D01*
X146392578Y-70708518D01*
X146227241Y-70654797D01*
X146098454Y-70634399D01*
X146055526Y-70627600D01*
X145881674Y-70627600D01*
X145824436Y-70636665D01*
X145709960Y-70654797D01*
X145709957Y-70654797D01*
X145544621Y-70708518D01*
X145389715Y-70787447D01*
X145309469Y-70845749D01*
X145249067Y-70889635D01*
X145249065Y-70889637D01*
X145249064Y-70889637D01*
X145126137Y-71012564D01*
X145126137Y-71012565D01*
X145126135Y-71012567D01*
X145082249Y-71072969D01*
X145023947Y-71153215D01*
X144945018Y-71308121D01*
X144891297Y-71473457D01*
X144891297Y-71473460D01*
X144864100Y-71645174D01*
X144864100Y-71819025D01*
X144891297Y-71990739D01*
X144891297Y-71990742D01*
X144945018Y-72156078D01*
X145023947Y-72310984D01*
X145110937Y-72430715D01*
X145134417Y-72496520D01*
X145118592Y-72564574D01*
X145068486Y-72613269D01*
X145010619Y-72627600D01*
X144881674Y-72627600D01*
X144824436Y-72636665D01*
X144709960Y-72654797D01*
X144709957Y-72654797D01*
X144544621Y-72708518D01*
X144389715Y-72787447D01*
X144340834Y-72822962D01*
X144249067Y-72889635D01*
X144249065Y-72889637D01*
X144249064Y-72889637D01*
X144126136Y-73012565D01*
X144068918Y-73091319D01*
X144013587Y-73133985D01*
X143943974Y-73139963D01*
X143882179Y-73107357D01*
X143868282Y-73091319D01*
X143865148Y-73087005D01*
X143811065Y-73012567D01*
X143688133Y-72889635D01*
X143547484Y-72787447D01*
X143519213Y-72773042D01*
X143392578Y-72708518D01*
X143227241Y-72654797D01*
X143098454Y-72634399D01*
X143055526Y-72627600D01*
X142926581Y-72627600D01*
X142859542Y-72607915D01*
X142813787Y-72555111D01*
X142803843Y-72485953D01*
X142826262Y-72430715D01*
X142913253Y-72310984D01*
X142992180Y-72156081D01*
X143045903Y-71990738D01*
X143073100Y-71819026D01*
X143073100Y-71645174D01*
X143045903Y-71473462D01*
X143045902Y-71473458D01*
X143045902Y-71473457D01*
X142992181Y-71308121D01*
X142913252Y-71153215D01*
X142903624Y-71139963D01*
X142811065Y-71012567D01*
X142688133Y-70889635D01*
X142547484Y-70787447D01*
X142392578Y-70708518D01*
X142227241Y-70654797D01*
X142098454Y-70634399D01*
X142055526Y-70627600D01*
X141881674Y-70627600D01*
X141824436Y-70636665D01*
X141709960Y-70654797D01*
X141709957Y-70654797D01*
X141544621Y-70708518D01*
X141389715Y-70787447D01*
X141309469Y-70845749D01*
X141249067Y-70889635D01*
X141249065Y-70889637D01*
X141249064Y-70889637D01*
X141126136Y-71012565D01*
X141068918Y-71091319D01*
X141013587Y-71133985D01*
X140943974Y-71139963D01*
X140882179Y-71107357D01*
X140868282Y-71091319D01*
X140865148Y-71087005D01*
X140811065Y-71012567D01*
X140688133Y-70889635D01*
X140547484Y-70787447D01*
X140392578Y-70708518D01*
X140227241Y-70654797D01*
X140098454Y-70634399D01*
X140055526Y-70627600D01*
X139881674Y-70627600D01*
X139824436Y-70636665D01*
X139709960Y-70654797D01*
X139709957Y-70654797D01*
X139544621Y-70708518D01*
X139389715Y-70787447D01*
X139309469Y-70845749D01*
X139249067Y-70889635D01*
X139249065Y-70889637D01*
X139249064Y-70889637D01*
X139126136Y-71012565D01*
X139068918Y-71091319D01*
X139013587Y-71133985D01*
X138943974Y-71139963D01*
X138882179Y-71107357D01*
X138868282Y-71091319D01*
X138865148Y-71087005D01*
X138811065Y-71012567D01*
X138688133Y-70889635D01*
X138547484Y-70787447D01*
X138392578Y-70708518D01*
X138227241Y-70654797D01*
X138098454Y-70634399D01*
X138055526Y-70627600D01*
X137881674Y-70627600D01*
X137824436Y-70636665D01*
X137709960Y-70654797D01*
X137709957Y-70654797D01*
X137544621Y-70708518D01*
X137389715Y-70787447D01*
X137309469Y-70845749D01*
X137249067Y-70889635D01*
X137249065Y-70889637D01*
X137249064Y-70889637D01*
X137126137Y-71012564D01*
X137126137Y-71012565D01*
X137126135Y-71012567D01*
X137082249Y-71072969D01*
X137023947Y-71153215D01*
X136945018Y-71308121D01*
X136891297Y-71473457D01*
X136891297Y-71473460D01*
X136864100Y-71645174D01*
X136864100Y-71819025D01*
X136891297Y-71990739D01*
X136891297Y-71990742D01*
X136945018Y-72156078D01*
X137023947Y-72310984D01*
X137126135Y-72451633D01*
X137249067Y-72574565D01*
X137389716Y-72676753D01*
X137517998Y-72742116D01*
X137544621Y-72755681D01*
X137709958Y-72809402D01*
X137709959Y-72809402D01*
X137709962Y-72809403D01*
X137881674Y-72836600D01*
X137881675Y-72836600D01*
X138010619Y-72836600D01*
X138077658Y-72856285D01*
X138123413Y-72909089D01*
X138133357Y-72978247D01*
X138110937Y-73033484D01*
X138070866Y-73088636D01*
X138023947Y-73153215D01*
X137945018Y-73308121D01*
X137891297Y-73473457D01*
X137891297Y-73473460D01*
X137864100Y-73645174D01*
X137864100Y-73819025D01*
X137891297Y-73990739D01*
X137891297Y-73990742D01*
X137945018Y-74156078D01*
X137994751Y-74253684D01*
X138023947Y-74310984D01*
X138126135Y-74451633D01*
X138249067Y-74574565D01*
X138389716Y-74676753D01*
X138498070Y-74731962D01*
X138544621Y-74755681D01*
X138709958Y-74809402D01*
X138709959Y-74809402D01*
X138709962Y-74809403D01*
X138881674Y-74836600D01*
X138881675Y-74836600D01*
X139055524Y-74836600D01*
X139055526Y-74836600D01*
X139131502Y-74824566D01*
X139150041Y-74826961D01*
X139168547Y-74824301D01*
X139183974Y-74831346D01*
X139200795Y-74833520D01*
X139215097Y-74845559D01*
X139232103Y-74853326D01*
X139241272Y-74867593D01*
X139254247Y-74878516D01*
X139259769Y-74896376D01*
X139269877Y-74912104D01*
X139274435Y-74943807D01*
X139274887Y-74945268D01*
X139274900Y-74947039D01*
X139274900Y-75017160D01*
X139255215Y-75084199D01*
X139202411Y-75129954D01*
X139133253Y-75139898D01*
X139131503Y-75139633D01*
X139055526Y-75127600D01*
X138881674Y-75127600D01*
X138866812Y-75129954D01*
X138709960Y-75154797D01*
X138709957Y-75154797D01*
X138544621Y-75208518D01*
X138389715Y-75287447D01*
X138333589Y-75328226D01*
X138249067Y-75389635D01*
X138249065Y-75389637D01*
X138249064Y-75389637D01*
X138126136Y-75512565D01*
X138068918Y-75591319D01*
X138013587Y-75633985D01*
X137943974Y-75639963D01*
X137882179Y-75607357D01*
X137868282Y-75591319D01*
X137856661Y-75575324D01*
X137811065Y-75512567D01*
X137688133Y-75389635D01*
X137547484Y-75287447D01*
X137541268Y-75284280D01*
X137392578Y-75208518D01*
X137227241Y-75154797D01*
X137070388Y-75129954D01*
X137055526Y-75127600D01*
X136881674Y-75127600D01*
X136866812Y-75129954D01*
X136709960Y-75154797D01*
X136709957Y-75154797D01*
X136544621Y-75208518D01*
X136389713Y-75287448D01*
X136345345Y-75319683D01*
X136279538Y-75343162D01*
X136211485Y-75327336D01*
X136184780Y-75307045D01*
X135812613Y-74934878D01*
X135803521Y-74925786D01*
X135803520Y-74925784D01*
X135691716Y-74813980D01*
X135659838Y-74795575D01*
X135649917Y-74786529D01*
X135638468Y-74767682D01*
X135623250Y-74751722D01*
X135620683Y-74738404D01*
X135613642Y-74726814D01*
X135614199Y-74704769D01*
X135610026Y-74683115D01*
X135615066Y-74670523D01*
X135615410Y-74656967D01*
X135627797Y-74638723D01*
X135635994Y-74618250D01*
X135652466Y-74602392D01*
X135654660Y-74599163D01*
X135656746Y-74598273D01*
X135660577Y-74594585D01*
X135688133Y-74574565D01*
X135811065Y-74451633D01*
X135913253Y-74310984D01*
X135992180Y-74156081D01*
X136045903Y-73990738D01*
X136073100Y-73819026D01*
X136073100Y-73645174D01*
X136045903Y-73473462D01*
X136045902Y-73473458D01*
X136045902Y-73473457D01*
X135992181Y-73308121D01*
X135913252Y-73153215D01*
X135903624Y-73139963D01*
X135811065Y-73012567D01*
X135688133Y-72889635D01*
X135547484Y-72787447D01*
X135519213Y-72773042D01*
X135392578Y-72708518D01*
X135227241Y-72654797D01*
X135098454Y-72634399D01*
X135055526Y-72627600D01*
X134926581Y-72627600D01*
X134859542Y-72607915D01*
X134813787Y-72555111D01*
X134803843Y-72485953D01*
X134826262Y-72430715D01*
X134913253Y-72310984D01*
X134992180Y-72156081D01*
X135045903Y-71990738D01*
X135073100Y-71819026D01*
X135073100Y-71645174D01*
X135045903Y-71473462D01*
X135045902Y-71473458D01*
X135045902Y-71473457D01*
X134992181Y-71308121D01*
X134913252Y-71153215D01*
X134903624Y-71139963D01*
X134811065Y-71012567D01*
X134688133Y-70889635D01*
X134547484Y-70787447D01*
X134392578Y-70708518D01*
X134227241Y-70654797D01*
X134098454Y-70634399D01*
X134055526Y-70627600D01*
X133881674Y-70627600D01*
X133824436Y-70636665D01*
X133709960Y-70654797D01*
X133709957Y-70654797D01*
X133544621Y-70708518D01*
X133389715Y-70787447D01*
X133309469Y-70845749D01*
X133249067Y-70889635D01*
X133249065Y-70889637D01*
X133249064Y-70889637D01*
X133126136Y-71012565D01*
X133068918Y-71091319D01*
X133013587Y-71133985D01*
X132943974Y-71139963D01*
X132882179Y-71107357D01*
X132868282Y-71091319D01*
X132865148Y-71087005D01*
X132811065Y-71012567D01*
X132688133Y-70889635D01*
X132547484Y-70787447D01*
X132392578Y-70708518D01*
X132227241Y-70654797D01*
X132098454Y-70634399D01*
X132055526Y-70627600D01*
X131881674Y-70627600D01*
X131824436Y-70636665D01*
X131709960Y-70654797D01*
X131709957Y-70654797D01*
X131544621Y-70708518D01*
X131389715Y-70787447D01*
X131309469Y-70845749D01*
X131249067Y-70889635D01*
X131249065Y-70889637D01*
X131249064Y-70889637D01*
X131126137Y-71012564D01*
X131126137Y-71012565D01*
X131126135Y-71012567D01*
X131082249Y-71072969D01*
X131023947Y-71153215D01*
X130945018Y-71308121D01*
X130891297Y-71473457D01*
X130891297Y-71473460D01*
X130864100Y-71645174D01*
X130864100Y-71819025D01*
X130877233Y-71901943D01*
X130868278Y-71971236D01*
X130842441Y-72009022D01*
X126668886Y-76182578D01*
X126557081Y-76294382D01*
X126557079Y-76294385D01*
X126535767Y-76331299D01*
X126514454Y-76368215D01*
X126478023Y-76431315D01*
X126437099Y-76584043D01*
X126437099Y-76584045D01*
X126437099Y-76752146D01*
X126437100Y-76752159D01*
X126437100Y-86684288D01*
X126417415Y-86751327D01*
X126364611Y-86797082D01*
X126295453Y-86807026D01*
X126238789Y-86783555D01*
X126195738Y-86751327D01*
X126136931Y-86707304D01*
X126136929Y-86707303D01*
X126136928Y-86707302D01*
X126002082Y-86657008D01*
X126002083Y-86657008D01*
X125942483Y-86650601D01*
X125942481Y-86650600D01*
X125942473Y-86650600D01*
X125942464Y-86650600D01*
X123052729Y-86650600D01*
X123052723Y-86650601D01*
X122993116Y-86657008D01*
X122858271Y-86707302D01*
X122858264Y-86707306D01*
X122743055Y-86793552D01*
X122743052Y-86793555D01*
X122656806Y-86908764D01*
X122656802Y-86908771D01*
X122606508Y-87043617D01*
X122600101Y-87103216D01*
X122600100Y-87103235D01*
X122600100Y-88722970D01*
X122600101Y-88722976D01*
X122606508Y-88782583D01*
X122656802Y-88917428D01*
X122656806Y-88917435D01*
X122743052Y-89032644D01*
X122743055Y-89032647D01*
X122858264Y-89118893D01*
X122858271Y-89118897D01*
X122993117Y-89169191D01*
X122993116Y-89169191D01*
X123000044Y-89169935D01*
X123052727Y-89175600D01*
X125942472Y-89175599D01*
X126002083Y-89169191D01*
X126136931Y-89118896D01*
X126238790Y-89042644D01*
X126304252Y-89018227D01*
X126372526Y-89033078D01*
X126421931Y-89082483D01*
X126437100Y-89141911D01*
X126437100Y-92259063D01*
X126417415Y-92326102D01*
X126364611Y-92371857D01*
X126295453Y-92381801D01*
X126231897Y-92352776D01*
X126212782Y-92331949D01*
X126184665Y-92293249D01*
X126095581Y-92170636D01*
X125955064Y-92030119D01*
X125794294Y-91913313D01*
X125617232Y-91823094D01*
X125617229Y-91823093D01*
X125428237Y-91761687D01*
X125330098Y-91746143D01*
X125231961Y-91730600D01*
X123763239Y-91730600D01*
X123697814Y-91740962D01*
X123566962Y-91761687D01*
X123377970Y-91823093D01*
X123377967Y-91823094D01*
X123200905Y-91913313D01*
X123040133Y-92030121D01*
X122899621Y-92170633D01*
X122782813Y-92331405D01*
X122692594Y-92508467D01*
X122692593Y-92508470D01*
X122631187Y-92697462D01*
X122600100Y-92893739D01*
X122600100Y-93092460D01*
X122631187Y-93288737D01*
X122692593Y-93477729D01*
X122692594Y-93477732D01*
X122757750Y-93605606D01*
X122782813Y-93654794D01*
X122899619Y-93815564D01*
X123040136Y-93956081D01*
X123200906Y-94072887D01*
X123287749Y-94117135D01*
X123377967Y-94163105D01*
X123377970Y-94163106D01*
X123472466Y-94193809D01*
X123566964Y-94224513D01*
X123763239Y-94255600D01*
X123763240Y-94255600D01*
X125231960Y-94255600D01*
X125231961Y-94255600D01*
X125428236Y-94224513D01*
X125617232Y-94163105D01*
X125794294Y-94072887D01*
X125955064Y-93956081D01*
X126095581Y-93815564D01*
X126171746Y-93710731D01*
X126212782Y-93654251D01*
X126268112Y-93611585D01*
X126337725Y-93605606D01*
X126399520Y-93638212D01*
X126433878Y-93699051D01*
X126437100Y-93727136D01*
X126437100Y-97339063D01*
X126417415Y-97406102D01*
X126364611Y-97451857D01*
X126295453Y-97461801D01*
X126231897Y-97432776D01*
X126212782Y-97411949D01*
X126184665Y-97373249D01*
X126095581Y-97250636D01*
X125955064Y-97110119D01*
X125794294Y-96993313D01*
X125617232Y-96903094D01*
X125617229Y-96903093D01*
X125428237Y-96841687D01*
X125330098Y-96826143D01*
X125231961Y-96810600D01*
X123763239Y-96810600D01*
X123697814Y-96820962D01*
X123566962Y-96841687D01*
X123377970Y-96903093D01*
X123377967Y-96903094D01*
X123200905Y-96993313D01*
X123040133Y-97110121D01*
X122899621Y-97250633D01*
X122782813Y-97411405D01*
X122692594Y-97588467D01*
X122692593Y-97588470D01*
X122631187Y-97777462D01*
X122600100Y-97973739D01*
X122600100Y-98172460D01*
X122631187Y-98368737D01*
X122692593Y-98557729D01*
X122692594Y-98557732D01*
X122782813Y-98734794D01*
X122899619Y-98895564D01*
X123040136Y-99036081D01*
X123200906Y-99152887D01*
X123287749Y-99197135D01*
X123377967Y-99243105D01*
X123377970Y-99243106D01*
X123472466Y-99273809D01*
X123566964Y-99304513D01*
X123763239Y-99335600D01*
X123763240Y-99335600D01*
X125231960Y-99335600D01*
X125231961Y-99335600D01*
X125339640Y-99318545D01*
X125408931Y-99327499D01*
X125462383Y-99372495D01*
X125477696Y-99405019D01*
X125478965Y-99409203D01*
X125539302Y-99554872D01*
X125539309Y-99554885D01*
X125627302Y-99686574D01*
X125648180Y-99753251D01*
X125648200Y-99755465D01*
X125648200Y-101822485D01*
X125628515Y-101889524D01*
X125575711Y-101935279D01*
X125506553Y-101945223D01*
X125485884Y-101940417D01*
X125428235Y-101921686D01*
X125263047Y-101895523D01*
X125231961Y-101890600D01*
X123763239Y-101890600D01*
X123697814Y-101900962D01*
X123566962Y-101921687D01*
X123377970Y-101983093D01*
X123377967Y-101983094D01*
X123200905Y-102073313D01*
X123040133Y-102190121D01*
X122899621Y-102330633D01*
X122782813Y-102491405D01*
X122692594Y-102668467D01*
X122692593Y-102668470D01*
X122631187Y-102857462D01*
X122600100Y-103053739D01*
X122600100Y-103252460D01*
X122631187Y-103448737D01*
X122692593Y-103637729D01*
X122692594Y-103637732D01*
X122782813Y-103814794D01*
X122899619Y-103975564D01*
X123040136Y-104116081D01*
X123200906Y-104232887D01*
X123319432Y-104293279D01*
X123357380Y-104312615D01*
X123408176Y-104360590D01*
X123424971Y-104428411D01*
X123402433Y-104494546D01*
X123357380Y-104533585D01*
X123200905Y-104613313D01*
X123040133Y-104730121D01*
X122899621Y-104870633D01*
X122782813Y-105031405D01*
X122692594Y-105208467D01*
X122692593Y-105208470D01*
X122631187Y-105397462D01*
X122600100Y-105593739D01*
X122600100Y-105792460D01*
X122631187Y-105988737D01*
X122692593Y-106177729D01*
X122692594Y-106177732D01*
X122782813Y-106354794D01*
X122899619Y-106515564D01*
X123040136Y-106656081D01*
X123200906Y-106772887D01*
X123319432Y-106833279D01*
X123357380Y-106852615D01*
X123408176Y-106900590D01*
X123424971Y-106968411D01*
X123402433Y-107034546D01*
X123357380Y-107073585D01*
X123200905Y-107153313D01*
X123040133Y-107270121D01*
X122899621Y-107410633D01*
X122782813Y-107571405D01*
X122692594Y-107748467D01*
X122692593Y-107748470D01*
X122631187Y-107937462D01*
X122600100Y-108133739D01*
X122600100Y-108332460D01*
X122631187Y-108528737D01*
X122692593Y-108717729D01*
X122692594Y-108717732D01*
X122782813Y-108894794D01*
X122899619Y-109055564D01*
X123040136Y-109196081D01*
X123200906Y-109312887D01*
X123319432Y-109373279D01*
X123357380Y-109392615D01*
X123408176Y-109440590D01*
X123424971Y-109508411D01*
X123402433Y-109574546D01*
X123357380Y-109613585D01*
X123200905Y-109693313D01*
X123040133Y-109810121D01*
X122899621Y-109950633D01*
X122782813Y-110111405D01*
X122692594Y-110288467D01*
X122692593Y-110288470D01*
X122631187Y-110477462D01*
X122600100Y-110673739D01*
X122600100Y-110872460D01*
X122631187Y-111068737D01*
X122692593Y-111257729D01*
X122692594Y-111257732D01*
X122782813Y-111434794D01*
X122899619Y-111595564D01*
X123040136Y-111736081D01*
X123200906Y-111852887D01*
X123319432Y-111913279D01*
X123357380Y-111932615D01*
X123408176Y-111980590D01*
X123424971Y-112048411D01*
X123402433Y-112114546D01*
X123357380Y-112153585D01*
X123200905Y-112233313D01*
X123040133Y-112350121D01*
X122899621Y-112490633D01*
X122782813Y-112651405D01*
X122692594Y-112828467D01*
X122692593Y-112828470D01*
X122631187Y-113017462D01*
X122600100Y-113213739D01*
X122600100Y-113412460D01*
X122631187Y-113608737D01*
X122692593Y-113797729D01*
X122692594Y-113797732D01*
X122782813Y-113974794D01*
X122899619Y-114135564D01*
X123040136Y-114276081D01*
X123200906Y-114392887D01*
X123319432Y-114453279D01*
X123357380Y-114472615D01*
X123408176Y-114520590D01*
X123424971Y-114588411D01*
X123402433Y-114654546D01*
X123357380Y-114693585D01*
X123200905Y-114773313D01*
X123040133Y-114890121D01*
X122899621Y-115030633D01*
X122782813Y-115191405D01*
X122692594Y-115368467D01*
X122692593Y-115368470D01*
X122631187Y-115557462D01*
X122600100Y-115753739D01*
X122600100Y-115952460D01*
X122631187Y-116148737D01*
X122692593Y-116337729D01*
X122692594Y-116337732D01*
X122767510Y-116484761D01*
X122782813Y-116514794D01*
X122899619Y-116675564D01*
X123040136Y-116816081D01*
X123200906Y-116932887D01*
X123319432Y-116993279D01*
X123357380Y-117012615D01*
X123408176Y-117060590D01*
X123424971Y-117128411D01*
X123402433Y-117194546D01*
X123357380Y-117233585D01*
X123200905Y-117313313D01*
X123040133Y-117430121D01*
X122899621Y-117570633D01*
X122782813Y-117731405D01*
X122692594Y-117908467D01*
X122692593Y-117908470D01*
X122631187Y-118097462D01*
X122600100Y-118293739D01*
X122600100Y-118492460D01*
X122631187Y-118688737D01*
X122692593Y-118877729D01*
X122692594Y-118877732D01*
X122751633Y-118993601D01*
X122782813Y-119054794D01*
X122899619Y-119215564D01*
X123040136Y-119356081D01*
X123200906Y-119472887D01*
X123319432Y-119533279D01*
X123357380Y-119552615D01*
X123408176Y-119600590D01*
X123424971Y-119668411D01*
X123402433Y-119734546D01*
X123357380Y-119773585D01*
X123200905Y-119853313D01*
X123040133Y-119970121D01*
X122899621Y-120110633D01*
X122782813Y-120271405D01*
X122692594Y-120448467D01*
X122692593Y-120448470D01*
X122631187Y-120637462D01*
X122600100Y-120833739D01*
X122600100Y-121032460D01*
X122631187Y-121228737D01*
X122692593Y-121417729D01*
X122692594Y-121417732D01*
X122768946Y-121567579D01*
X122782813Y-121594794D01*
X122899619Y-121755564D01*
X123040136Y-121896081D01*
X123200906Y-122012887D01*
X123287749Y-122057135D01*
X123377967Y-122103105D01*
X123377970Y-122103106D01*
X123472466Y-122133809D01*
X123566964Y-122164513D01*
X123763239Y-122195600D01*
X123763240Y-122195600D01*
X125231960Y-122195600D01*
X125231961Y-122195600D01*
X125428236Y-122164513D01*
X125617232Y-122103105D01*
X125794294Y-122012887D01*
X125955064Y-121896081D01*
X126095581Y-121755564D01*
X126171746Y-121650731D01*
X126212782Y-121594251D01*
X126268112Y-121551585D01*
X126337725Y-121545606D01*
X126399520Y-121578212D01*
X126433878Y-121639051D01*
X126437100Y-121667136D01*
X126437100Y-127819063D01*
X126417415Y-127886102D01*
X126364611Y-127931857D01*
X126295453Y-127941801D01*
X126231897Y-127912776D01*
X126212782Y-127891949D01*
X126172887Y-127837039D01*
X126095581Y-127730636D01*
X125955064Y-127590119D01*
X125794294Y-127473313D01*
X125792726Y-127472514D01*
X125617232Y-127383094D01*
X125617229Y-127383093D01*
X125428237Y-127321687D01*
X125330098Y-127306143D01*
X125231961Y-127290600D01*
X123763239Y-127290600D01*
X123697814Y-127300962D01*
X123566962Y-127321687D01*
X123377970Y-127383093D01*
X123377967Y-127383094D01*
X123200905Y-127473313D01*
X123040133Y-127590121D01*
X122899621Y-127730633D01*
X122782813Y-127891405D01*
X122692594Y-128068467D01*
X122692593Y-128068470D01*
X122631187Y-128257462D01*
X122631187Y-128257464D01*
X122600100Y-128453739D01*
X122600100Y-128652461D01*
X122615643Y-128750598D01*
X122631187Y-128848737D01*
X122692593Y-129037729D01*
X122692594Y-129037732D01*
X122757750Y-129165606D01*
X122782813Y-129214794D01*
X122899619Y-129375564D01*
X123040136Y-129516081D01*
X123200906Y-129632887D01*
X123319432Y-129693279D01*
X123357380Y-129712615D01*
X123408176Y-129760590D01*
X123424971Y-129828411D01*
X123402433Y-129894546D01*
X123357380Y-129933585D01*
X123200905Y-130013313D01*
X123040133Y-130130121D01*
X122899621Y-130270633D01*
X122782813Y-130431405D01*
X122692594Y-130608467D01*
X122692593Y-130608470D01*
X122631187Y-130797462D01*
X122600100Y-130993739D01*
X122600100Y-131192460D01*
X122631187Y-131388737D01*
X122692593Y-131577729D01*
X122692594Y-131577732D01*
X122749378Y-131689175D01*
X122782813Y-131754794D01*
X122899619Y-131915564D01*
X123040136Y-132056081D01*
X123200906Y-132172887D01*
X123312427Y-132229710D01*
X123357380Y-132252615D01*
X123408176Y-132300590D01*
X123424971Y-132368411D01*
X123402433Y-132434546D01*
X123357380Y-132473585D01*
X123200905Y-132553313D01*
X123040133Y-132670121D01*
X122899621Y-132810633D01*
X122782813Y-132971405D01*
X122692594Y-133148467D01*
X122692593Y-133148470D01*
X122631187Y-133337462D01*
X122600100Y-133533739D01*
X122600100Y-133732460D01*
X122631187Y-133928737D01*
X122692593Y-134117729D01*
X122692594Y-134117732D01*
X122743578Y-134217792D01*
X122782813Y-134294794D01*
X122899619Y-134455564D01*
X123040136Y-134596081D01*
X123200906Y-134712887D01*
X123319432Y-134773279D01*
X123357380Y-134792615D01*
X123408176Y-134840590D01*
X123424971Y-134908411D01*
X123402433Y-134974546D01*
X123357380Y-135013585D01*
X123200905Y-135093313D01*
X123040133Y-135210121D01*
X122899621Y-135350633D01*
X122782813Y-135511405D01*
X122692594Y-135688467D01*
X122692593Y-135688470D01*
X122631187Y-135877462D01*
X122600100Y-136073739D01*
X122600100Y-136272460D01*
X122631187Y-136468737D01*
X122692593Y-136657729D01*
X122692594Y-136657732D01*
X122759726Y-136789484D01*
X122782813Y-136834794D01*
X122899619Y-136995564D01*
X123040136Y-137136081D01*
X123200906Y-137252887D01*
X123287749Y-137297135D01*
X123377967Y-137343105D01*
X123377970Y-137343106D01*
X123472466Y-137373809D01*
X123566964Y-137404513D01*
X123763239Y-137435600D01*
X123763240Y-137435600D01*
X125231960Y-137435600D01*
X125231961Y-137435600D01*
X125428236Y-137404513D01*
X125617232Y-137343105D01*
X125794294Y-137252887D01*
X125955064Y-137136081D01*
X126095581Y-136995564D01*
X126171746Y-136890731D01*
X126212782Y-136834251D01*
X126268112Y-136791585D01*
X126337725Y-136785606D01*
X126399520Y-136818212D01*
X126433878Y-136879051D01*
X126437100Y-136907136D01*
X126437100Y-139431370D01*
X126417415Y-139498409D01*
X126379733Y-139535291D01*
X126379848Y-139535449D01*
X126378776Y-139536227D01*
X126377885Y-139537100D01*
X126375909Y-139538310D01*
X126215133Y-139655121D01*
X126074621Y-139795633D01*
X125957813Y-139956405D01*
X125867594Y-140133467D01*
X125867593Y-140133470D01*
X125806187Y-140322462D01*
X125775100Y-140518739D01*
X125775100Y-141987460D01*
X125806187Y-142183737D01*
X125867593Y-142372729D01*
X125867594Y-142372732D01*
X125957813Y-142549794D01*
X126074619Y-142710564D01*
X126215136Y-142851081D01*
X126375906Y-142967887D01*
X126433269Y-142997115D01*
X126484065Y-143045090D01*
X126500860Y-143112911D01*
X126478322Y-143179046D01*
X126423607Y-143222497D01*
X126376974Y-143231600D01*
X122093100Y-143231600D01*
X122026061Y-143211915D01*
X121980306Y-143159111D01*
X121969100Y-143107600D01*
X121969100Y-67119905D01*
X128743100Y-67119905D01*
X128743100Y-67344294D01*
X128778199Y-67565905D01*
X128847538Y-67779306D01*
X128949405Y-67979228D01*
X129081283Y-68160744D01*
X129081287Y-68160749D01*
X129239950Y-68319412D01*
X129239955Y-68319416D01*
X129398283Y-68434447D01*
X129421475Y-68451297D01*
X129548864Y-68516205D01*
X129621393Y-68553161D01*
X129621395Y-68553161D01*
X129621398Y-68553163D01*
X129735784Y-68590329D01*
X129834794Y-68622500D01*
X130056406Y-68657600D01*
X130056411Y-68657600D01*
X130280794Y-68657600D01*
X130502405Y-68622500D01*
X130715802Y-68553163D01*
X130915725Y-68451297D01*
X131097251Y-68319411D01*
X131255911Y-68160751D01*
X131387797Y-67979225D01*
X131489663Y-67779302D01*
X131559000Y-67565905D01*
X131594100Y-67344294D01*
X131594100Y-67119905D01*
X151893100Y-67119905D01*
X151893100Y-67344294D01*
X151928199Y-67565905D01*
X151997538Y-67779306D01*
X152099405Y-67979228D01*
X152231283Y-68160744D01*
X152231287Y-68160749D01*
X152389950Y-68319412D01*
X152389955Y-68319416D01*
X152548283Y-68434447D01*
X152571475Y-68451297D01*
X152698864Y-68516205D01*
X152771393Y-68553161D01*
X152771395Y-68553161D01*
X152771398Y-68553163D01*
X152885784Y-68590329D01*
X152984794Y-68622500D01*
X153206406Y-68657600D01*
X153206411Y-68657600D01*
X153430794Y-68657600D01*
X153652405Y-68622500D01*
X153865802Y-68553163D01*
X154065725Y-68451297D01*
X154247251Y-68319411D01*
X154405911Y-68160751D01*
X154537797Y-67979225D01*
X154639663Y-67779302D01*
X154709000Y-67565905D01*
X154744100Y-67344294D01*
X154744100Y-67119905D01*
X154709000Y-66898294D01*
X154639661Y-66684893D01*
X154602705Y-66612364D01*
X154537797Y-66484975D01*
X154520947Y-66461783D01*
X154405916Y-66303455D01*
X154405912Y-66303450D01*
X154247249Y-66144787D01*
X154247244Y-66144783D01*
X154065728Y-66012905D01*
X154065727Y-66012904D01*
X154065725Y-66012903D01*
X154003292Y-65981092D01*
X153865806Y-65911038D01*
X153652405Y-65841699D01*
X153430794Y-65806600D01*
X153430789Y-65806600D01*
X153206411Y-65806600D01*
X153206406Y-65806600D01*
X152984794Y-65841699D01*
X152771393Y-65911038D01*
X152571471Y-66012905D01*
X152389955Y-66144783D01*
X152389950Y-66144787D01*
X152231287Y-66303450D01*
X152231283Y-66303455D01*
X152099405Y-66484971D01*
X151997538Y-66684893D01*
X151928199Y-66898294D01*
X151893100Y-67119905D01*
X131594100Y-67119905D01*
X131559000Y-66898294D01*
X131489661Y-66684893D01*
X131452705Y-66612364D01*
X131387797Y-66484975D01*
X131370947Y-66461783D01*
X131255916Y-66303455D01*
X131255912Y-66303450D01*
X131097249Y-66144787D01*
X131097244Y-66144783D01*
X130915728Y-66012905D01*
X130915727Y-66012904D01*
X130915725Y-66012903D01*
X130853292Y-65981092D01*
X130715806Y-65911038D01*
X130502405Y-65841699D01*
X130280794Y-65806600D01*
X130280789Y-65806600D01*
X130056411Y-65806600D01*
X130056406Y-65806600D01*
X129834794Y-65841699D01*
X129621393Y-65911038D01*
X129421471Y-66012905D01*
X129239955Y-66144783D01*
X129239950Y-66144787D01*
X129081287Y-66303450D01*
X129081283Y-66303455D01*
X128949405Y-66484971D01*
X128847538Y-66684893D01*
X128778199Y-66898294D01*
X128743100Y-67119905D01*
X121969100Y-67119905D01*
X121969100Y-59856600D01*
X121988785Y-59789561D01*
X122041589Y-59743806D01*
X122093100Y-59732600D01*
X174844100Y-59732600D01*
X174911139Y-59752285D01*
G37*
%TD.AperFunction*%
%TA.AperFunction,Conductor*%
G36*
X144055020Y-74356842D02*
G01*
X144068913Y-74372875D01*
X144126135Y-74451633D01*
X144249067Y-74574565D01*
X144389716Y-74676753D01*
X144498070Y-74731962D01*
X144544621Y-74755681D01*
X144709958Y-74809402D01*
X144709959Y-74809402D01*
X144709962Y-74809403D01*
X144881674Y-74836600D01*
X144881675Y-74836600D01*
X145055524Y-74836600D01*
X145055526Y-74836600D01*
X145223504Y-74809994D01*
X145242041Y-74812389D01*
X145260547Y-74809729D01*
X145275974Y-74816774D01*
X145292795Y-74818948D01*
X145307097Y-74830987D01*
X145324103Y-74838754D01*
X145333272Y-74853021D01*
X145346247Y-74863944D01*
X145351769Y-74881804D01*
X145361877Y-74897532D01*
X145366435Y-74929235D01*
X145366887Y-74930696D01*
X145366900Y-74932467D01*
X145366900Y-75031732D01*
X145347215Y-75098771D01*
X145294411Y-75144526D01*
X145225253Y-75154470D01*
X145223502Y-75154205D01*
X145070388Y-75129954D01*
X145055526Y-75127600D01*
X144881674Y-75127600D01*
X144866812Y-75129954D01*
X144709960Y-75154797D01*
X144709957Y-75154797D01*
X144544621Y-75208518D01*
X144389715Y-75287447D01*
X144333589Y-75328226D01*
X144249067Y-75389635D01*
X144249065Y-75389637D01*
X144249064Y-75389637D01*
X144126137Y-75512564D01*
X144126137Y-75512565D01*
X144126135Y-75512567D01*
X144097596Y-75551847D01*
X144023947Y-75653215D01*
X143945018Y-75808121D01*
X143891297Y-75973457D01*
X143891297Y-75973460D01*
X143864100Y-76145174D01*
X143864100Y-76319025D01*
X143891297Y-76490739D01*
X143891297Y-76490742D01*
X143945018Y-76656078D01*
X143993974Y-76752159D01*
X144023947Y-76810984D01*
X144110937Y-76930715D01*
X144134417Y-76996520D01*
X144118592Y-77064574D01*
X144068486Y-77113269D01*
X144010619Y-77127600D01*
X143881674Y-77127600D01*
X143836311Y-77134785D01*
X143709960Y-77154797D01*
X143709957Y-77154797D01*
X143544621Y-77208518D01*
X143389715Y-77287447D01*
X143326854Y-77333119D01*
X143249067Y-77389635D01*
X143249065Y-77389637D01*
X143249064Y-77389637D01*
X143126137Y-77512564D01*
X143126137Y-77512565D01*
X143126135Y-77512567D01*
X143082249Y-77572969D01*
X143023947Y-77653215D01*
X142945018Y-77808121D01*
X142891297Y-77973457D01*
X142891297Y-77973460D01*
X142864100Y-78145174D01*
X142864100Y-78319025D01*
X142891297Y-78490739D01*
X142891297Y-78490742D01*
X142945018Y-78656078D01*
X143023947Y-78810984D01*
X143126135Y-78951633D01*
X143249067Y-79074565D01*
X143389716Y-79176753D01*
X143504900Y-79235442D01*
X143544621Y-79255681D01*
X143709958Y-79309402D01*
X143709959Y-79309402D01*
X143709962Y-79309403D01*
X143881674Y-79336600D01*
X143881675Y-79336600D01*
X144055525Y-79336600D01*
X144055526Y-79336600D01*
X144227238Y-79309403D01*
X144298982Y-79286091D01*
X144368822Y-79284097D01*
X144428655Y-79320177D01*
X144459484Y-79382877D01*
X144461300Y-79404023D01*
X144461300Y-80120405D01*
X144441615Y-80187444D01*
X144388811Y-80233199D01*
X144361492Y-80242022D01*
X144235108Y-80267161D01*
X144235098Y-80267164D01*
X144089427Y-80327502D01*
X144089414Y-80327509D01*
X143958311Y-80415110D01*
X143958307Y-80415113D01*
X143846813Y-80526607D01*
X143846810Y-80526611D01*
X143759209Y-80657714D01*
X143759202Y-80657727D01*
X143698864Y-80803398D01*
X143698861Y-80803410D01*
X143668100Y-80958053D01*
X143668100Y-81115746D01*
X143698861Y-81270389D01*
X143698864Y-81270401D01*
X143759202Y-81416072D01*
X143759209Y-81416085D01*
X143846810Y-81547188D01*
X143846813Y-81547192D01*
X143958307Y-81658686D01*
X143958311Y-81658689D01*
X144089414Y-81746290D01*
X144089427Y-81746297D01*
X144235098Y-81806635D01*
X144235103Y-81806637D01*
X144369991Y-81833468D01*
X144431902Y-81865852D01*
X144466476Y-81926568D01*
X144469800Y-81955085D01*
X144469800Y-116860430D01*
X144469799Y-116860448D01*
X144469799Y-117026154D01*
X144469798Y-117026154D01*
X144494352Y-117117789D01*
X144510723Y-117178885D01*
X144536248Y-117223095D01*
X144545358Y-117238874D01*
X144589779Y-117315814D01*
X144589781Y-117315817D01*
X144708649Y-117434685D01*
X144708655Y-117434690D01*
X151664412Y-124390447D01*
X151697897Y-124451770D01*
X151692913Y-124521462D01*
X151664412Y-124565809D01*
X151579713Y-124650507D01*
X151579710Y-124650511D01*
X151492109Y-124781614D01*
X151492102Y-124781627D01*
X151431764Y-124927298D01*
X151431761Y-124927310D01*
X151401000Y-125081953D01*
X151401000Y-125239646D01*
X151431761Y-125394289D01*
X151431764Y-125394301D01*
X151492102Y-125539972D01*
X151492109Y-125539985D01*
X151579710Y-125671088D01*
X151579713Y-125671092D01*
X151691207Y-125782586D01*
X151691211Y-125782589D01*
X151822314Y-125870190D01*
X151822327Y-125870197D01*
X151967998Y-125930535D01*
X151968003Y-125930537D01*
X152032647Y-125943395D01*
X152123349Y-125961438D01*
X152185260Y-125993823D01*
X152186839Y-125995374D01*
X159420781Y-133229316D01*
X159454266Y-133290639D01*
X159457100Y-133316997D01*
X159457100Y-139431370D01*
X159437415Y-139498409D01*
X159399733Y-139535291D01*
X159399848Y-139535449D01*
X159398776Y-139536227D01*
X159397885Y-139537100D01*
X159395909Y-139538310D01*
X159235133Y-139655121D01*
X159094621Y-139795633D01*
X158977813Y-139956405D01*
X158898085Y-140112880D01*
X158850110Y-140163676D01*
X158782289Y-140180471D01*
X158716154Y-140157933D01*
X158677115Y-140112880D01*
X158597386Y-139956405D01*
X158480581Y-139795636D01*
X158340064Y-139655119D01*
X158179294Y-139538313D01*
X158179290Y-139538310D01*
X158177315Y-139537100D01*
X158176721Y-139536443D01*
X158175352Y-139535449D01*
X158175560Y-139535161D01*
X158130437Y-139485290D01*
X158118100Y-139431370D01*
X158118100Y-132858945D01*
X158118100Y-132858943D01*
X158077177Y-132706216D01*
X158077173Y-132706209D01*
X157998124Y-132569290D01*
X157998121Y-132569286D01*
X157998120Y-132569284D01*
X157886316Y-132457480D01*
X157886315Y-132457479D01*
X157881985Y-132453149D01*
X157881974Y-132453139D01*
X153265874Y-127837039D01*
X153232389Y-127775716D01*
X153231938Y-127773549D01*
X153201038Y-127618210D01*
X153201037Y-127618203D01*
X153189404Y-127590119D01*
X153140697Y-127472527D01*
X153140690Y-127472514D01*
X153053089Y-127341411D01*
X153053086Y-127341407D01*
X152941592Y-127229913D01*
X152941588Y-127229910D01*
X152810485Y-127142309D01*
X152810472Y-127142302D01*
X152664801Y-127081964D01*
X152664789Y-127081961D01*
X152510145Y-127051200D01*
X152510142Y-127051200D01*
X152352458Y-127051200D01*
X152352455Y-127051200D01*
X152197810Y-127081961D01*
X152197798Y-127081964D01*
X152052127Y-127142302D01*
X152052114Y-127142309D01*
X151921011Y-127229910D01*
X151921007Y-127229913D01*
X151809513Y-127341407D01*
X151809510Y-127341411D01*
X151721909Y-127472514D01*
X151721902Y-127472527D01*
X151661564Y-127618198D01*
X151661561Y-127618210D01*
X151630800Y-127772853D01*
X151630800Y-127930546D01*
X151661561Y-128085189D01*
X151661564Y-128085201D01*
X151721902Y-128230872D01*
X151721909Y-128230885D01*
X151809510Y-128361988D01*
X151809513Y-128361992D01*
X151921007Y-128473486D01*
X151921011Y-128473489D01*
X152052114Y-128561090D01*
X152052127Y-128561097D01*
X152197798Y-128621435D01*
X152197803Y-128621437D01*
X152262447Y-128634295D01*
X152353149Y-128652338D01*
X152415060Y-128684723D01*
X152416639Y-128686274D01*
X155577939Y-131847574D01*
X155611424Y-131908897D01*
X155606440Y-131978589D01*
X155564568Y-132034522D01*
X155499104Y-132058939D01*
X155466067Y-132056872D01*
X155436546Y-132051000D01*
X155436542Y-132051000D01*
X155278858Y-132051000D01*
X155278855Y-132051000D01*
X155124210Y-132081761D01*
X155124198Y-132081764D01*
X154978527Y-132142102D01*
X154978514Y-132142109D01*
X154847411Y-132229710D01*
X154847407Y-132229713D01*
X154735913Y-132341207D01*
X154735910Y-132341211D01*
X154648309Y-132472314D01*
X154648302Y-132472327D01*
X154587964Y-132617998D01*
X154587961Y-132618008D01*
X154557061Y-132773350D01*
X154524676Y-132835261D01*
X154523125Y-132836839D01*
X151957081Y-135402882D01*
X151957080Y-135402884D01*
X151919385Y-135468174D01*
X151878023Y-135539815D01*
X151837099Y-135692543D01*
X151837099Y-135692545D01*
X151837099Y-135860646D01*
X151837100Y-135860659D01*
X151837100Y-139431370D01*
X151817415Y-139498409D01*
X151779733Y-139535291D01*
X151779848Y-139535449D01*
X151778776Y-139536227D01*
X151777885Y-139537100D01*
X151775909Y-139538310D01*
X151615133Y-139655121D01*
X151474621Y-139795633D01*
X151357813Y-139956405D01*
X151278085Y-140112880D01*
X151230110Y-140163676D01*
X151162289Y-140180471D01*
X151096154Y-140157933D01*
X151057115Y-140112880D01*
X150977386Y-139956405D01*
X150860581Y-139795636D01*
X150720064Y-139655119D01*
X150559294Y-139538313D01*
X150543888Y-139530463D01*
X150382232Y-139448094D01*
X150382229Y-139448093D01*
X150193237Y-139386687D01*
X150095098Y-139371143D01*
X149996961Y-139355600D01*
X149798239Y-139355600D01*
X149732814Y-139365962D01*
X149601962Y-139386687D01*
X149412970Y-139448093D01*
X149412967Y-139448094D01*
X149235905Y-139538313D01*
X149075133Y-139655121D01*
X148934621Y-139795633D01*
X148817813Y-139956405D01*
X148727594Y-140133467D01*
X148727593Y-140133470D01*
X148666187Y-140322462D01*
X148635100Y-140518739D01*
X148635100Y-141987460D01*
X148666187Y-142183737D01*
X148727593Y-142372729D01*
X148727594Y-142372732D01*
X148817813Y-142549794D01*
X148934619Y-142710564D01*
X149075136Y-142851081D01*
X149235906Y-142967887D01*
X149293269Y-142997115D01*
X149344065Y-143045090D01*
X149360860Y-143112911D01*
X149338322Y-143179046D01*
X149283607Y-143222497D01*
X149236974Y-143231600D01*
X142938226Y-143231600D01*
X142871187Y-143211915D01*
X142825432Y-143159111D01*
X142815488Y-143089953D01*
X142844513Y-143026397D01*
X142881931Y-142997115D01*
X142939294Y-142967887D01*
X143100064Y-142851081D01*
X143240581Y-142710564D01*
X143357387Y-142549794D01*
X143447605Y-142372732D01*
X143509013Y-142183736D01*
X143540100Y-141987461D01*
X143540100Y-140518739D01*
X143509013Y-140322464D01*
X143447605Y-140133468D01*
X143447605Y-140133467D01*
X143357386Y-139956405D01*
X143240581Y-139795636D01*
X143100064Y-139655119D01*
X142939294Y-139538313D01*
X142923888Y-139530463D01*
X142762232Y-139448094D01*
X142762229Y-139448093D01*
X142573237Y-139386687D01*
X142475098Y-139371143D01*
X142376961Y-139355600D01*
X142178239Y-139355600D01*
X142112814Y-139365962D01*
X141981962Y-139386687D01*
X141792970Y-139448093D01*
X141792967Y-139448094D01*
X141615905Y-139538313D01*
X141455133Y-139655121D01*
X141314621Y-139795633D01*
X141197813Y-139956405D01*
X141118085Y-140112880D01*
X141070110Y-140163676D01*
X141002289Y-140180471D01*
X140936154Y-140157933D01*
X140897115Y-140112880D01*
X140817386Y-139956405D01*
X140700581Y-139795636D01*
X140560064Y-139655119D01*
X140399294Y-139538313D01*
X140397159Y-139537225D01*
X140396492Y-139536595D01*
X140395142Y-139535768D01*
X140395315Y-139535484D01*
X140346362Y-139489252D01*
X140333678Y-139458840D01*
X140297177Y-139322616D01*
X140297173Y-139322609D01*
X140218124Y-139185690D01*
X140218118Y-139185682D01*
X139669619Y-138637183D01*
X139636134Y-138575860D01*
X139633300Y-138549502D01*
X139633300Y-133452537D01*
X143682100Y-133452537D01*
X143682100Y-133813662D01*
X143717496Y-134173057D01*
X143787944Y-134527230D01*
X143787947Y-134527241D01*
X143892781Y-134872833D01*
X144030981Y-135206476D01*
X144030983Y-135206481D01*
X144201209Y-135524952D01*
X144201220Y-135524970D01*
X144401844Y-135825225D01*
X144401854Y-135825239D01*
X144630954Y-136104397D01*
X144886302Y-136359745D01*
X144886307Y-136359749D01*
X144886308Y-136359750D01*
X145165466Y-136588850D01*
X145465736Y-136789484D01*
X145465745Y-136789489D01*
X145465747Y-136789490D01*
X145784218Y-136959716D01*
X145784220Y-136959716D01*
X145784226Y-136959720D01*
X146117868Y-137097919D01*
X146463449Y-137202750D01*
X146463455Y-137202751D01*
X146463458Y-137202752D01*
X146463469Y-137202755D01*
X146817642Y-137273203D01*
X147177034Y-137308600D01*
X147177037Y-137308600D01*
X147538163Y-137308600D01*
X147538166Y-137308600D01*
X147897558Y-137273203D01*
X147999699Y-137252886D01*
X148251730Y-137202755D01*
X148251741Y-137202752D01*
X148251741Y-137202751D01*
X148251751Y-137202750D01*
X148597332Y-137097919D01*
X148930974Y-136959720D01*
X149249464Y-136789484D01*
X149549734Y-136588850D01*
X149828892Y-136359750D01*
X150084250Y-136104392D01*
X150313350Y-135825234D01*
X150513984Y-135524964D01*
X150684220Y-135206474D01*
X150822419Y-134872832D01*
X150927250Y-134527251D01*
X150927252Y-134527241D01*
X150927255Y-134527230D01*
X150983988Y-134242004D01*
X150997703Y-134173058D01*
X151033100Y-133813666D01*
X151033100Y-133452534D01*
X150997703Y-133093142D01*
X150983727Y-133022881D01*
X150927255Y-132738969D01*
X150927252Y-132738958D01*
X150927251Y-132738955D01*
X150927250Y-132738949D01*
X150822419Y-132393368D01*
X150684220Y-132059726D01*
X150683799Y-132058939D01*
X150513990Y-131741247D01*
X150513989Y-131741245D01*
X150513984Y-131741236D01*
X150313350Y-131440966D01*
X150084250Y-131161808D01*
X150084249Y-131161807D01*
X150084245Y-131161802D01*
X149828897Y-130906454D01*
X149549739Y-130677354D01*
X149549738Y-130677353D01*
X149549734Y-130677350D01*
X149249464Y-130476716D01*
X149249459Y-130476713D01*
X149249452Y-130476709D01*
X148930981Y-130306483D01*
X148930976Y-130306481D01*
X148597333Y-130168281D01*
X148251741Y-130063447D01*
X148251730Y-130063444D01*
X147897557Y-129992996D01*
X147626879Y-129966337D01*
X147538166Y-129957600D01*
X147177034Y-129957600D01*
X147095065Y-129965673D01*
X146817642Y-129992996D01*
X146463469Y-130063444D01*
X146463458Y-130063447D01*
X146117866Y-130168281D01*
X145784223Y-130306481D01*
X145784218Y-130306483D01*
X145465747Y-130476709D01*
X145465729Y-130476720D01*
X145165474Y-130677344D01*
X145165460Y-130677354D01*
X144886302Y-130906454D01*
X144630954Y-131161802D01*
X144401854Y-131440960D01*
X144401844Y-131440974D01*
X144201220Y-131741229D01*
X144201209Y-131741247D01*
X144030983Y-132059718D01*
X144030981Y-132059723D01*
X143892781Y-132393366D01*
X143787947Y-132738958D01*
X143787944Y-132738969D01*
X143717496Y-133093142D01*
X143682100Y-133452537D01*
X139633300Y-133452537D01*
X139633300Y-79442446D01*
X139652985Y-79375407D01*
X139705789Y-79329652D01*
X139774947Y-79319708D01*
X139776678Y-79319970D01*
X139881674Y-79336600D01*
X139881675Y-79336600D01*
X140055525Y-79336600D01*
X140055526Y-79336600D01*
X140227238Y-79309403D01*
X140227241Y-79309402D01*
X140227242Y-79309402D01*
X140392578Y-79255681D01*
X140392578Y-79255680D01*
X140392581Y-79255680D01*
X140547484Y-79176753D01*
X140688133Y-79074565D01*
X140811065Y-78951633D01*
X140913253Y-78810984D01*
X140992180Y-78656081D01*
X141045903Y-78490738D01*
X141073100Y-78319026D01*
X141073100Y-78145174D01*
X141045903Y-77973462D01*
X141045902Y-77973458D01*
X141045902Y-77973457D01*
X140992181Y-77808121D01*
X140913252Y-77653215D01*
X140903624Y-77639963D01*
X140826262Y-77533484D01*
X140802783Y-77467680D01*
X140818608Y-77399626D01*
X140868714Y-77350931D01*
X140926581Y-77336600D01*
X141055525Y-77336600D01*
X141055526Y-77336600D01*
X141227238Y-77309403D01*
X141227241Y-77309402D01*
X141227242Y-77309402D01*
X141392578Y-77255681D01*
X141392578Y-77255680D01*
X141392581Y-77255680D01*
X141547484Y-77176753D01*
X141688133Y-77074565D01*
X141811065Y-76951633D01*
X141913253Y-76810984D01*
X141992180Y-76656081D01*
X142015586Y-76584045D01*
X142045902Y-76490742D01*
X142045902Y-76490741D01*
X142045903Y-76490738D01*
X142073100Y-76319026D01*
X142073100Y-76145174D01*
X142045903Y-75973462D01*
X142045902Y-75973458D01*
X142045902Y-75973457D01*
X141992181Y-75808121D01*
X141968600Y-75761840D01*
X141913253Y-75653216D01*
X141811065Y-75512567D01*
X141688133Y-75389635D01*
X141547484Y-75287447D01*
X141541268Y-75284280D01*
X141392578Y-75208518D01*
X141227241Y-75154797D01*
X141070388Y-75129954D01*
X141055526Y-75127600D01*
X140881674Y-75127600D01*
X140866812Y-75129954D01*
X140709960Y-75154797D01*
X140709957Y-75154797D01*
X140638218Y-75178107D01*
X140610098Y-75178910D01*
X140582253Y-75182914D01*
X140575641Y-75179894D01*
X140568376Y-75180102D01*
X140544287Y-75165575D01*
X140518697Y-75153889D01*
X140514766Y-75147773D01*
X140508544Y-75144021D01*
X140496133Y-75118778D01*
X140480923Y-75095111D01*
X140479446Y-75084838D01*
X140477716Y-75081320D01*
X140475900Y-75060176D01*
X140475900Y-74904023D01*
X140495585Y-74836984D01*
X140548389Y-74791229D01*
X140617547Y-74781285D01*
X140638214Y-74786091D01*
X140662298Y-74793916D01*
X140709961Y-74809403D01*
X140772404Y-74819293D01*
X140881674Y-74836600D01*
X140881675Y-74836600D01*
X141055525Y-74836600D01*
X141055526Y-74836600D01*
X141227238Y-74809403D01*
X141227241Y-74809402D01*
X141227242Y-74809402D01*
X141392578Y-74755681D01*
X141392578Y-74755680D01*
X141392581Y-74755680D01*
X141547484Y-74676753D01*
X141688133Y-74574565D01*
X141811065Y-74451633D01*
X141868283Y-74372878D01*
X141923612Y-74330215D01*
X141993225Y-74324236D01*
X142055020Y-74356842D01*
X142068913Y-74372875D01*
X142126135Y-74451633D01*
X142249067Y-74574565D01*
X142389716Y-74676753D01*
X142498070Y-74731962D01*
X142544621Y-74755681D01*
X142709958Y-74809402D01*
X142709959Y-74809402D01*
X142709962Y-74809403D01*
X142881674Y-74836600D01*
X142881675Y-74836600D01*
X143055525Y-74836600D01*
X143055526Y-74836600D01*
X143227238Y-74809403D01*
X143227241Y-74809402D01*
X143227242Y-74809402D01*
X143392578Y-74755681D01*
X143392578Y-74755680D01*
X143392581Y-74755680D01*
X143547484Y-74676753D01*
X143688133Y-74574565D01*
X143811065Y-74451633D01*
X143868283Y-74372878D01*
X143923612Y-74330215D01*
X143993225Y-74324236D01*
X144055020Y-74356842D01*
G37*
%TD.AperFunction*%
%TA.AperFunction,Conductor*%
G36*
X131798753Y-72823465D02*
G01*
X131881674Y-72836600D01*
X131881675Y-72836600D01*
X132010619Y-72836600D01*
X132077658Y-72856285D01*
X132123413Y-72909089D01*
X132133357Y-72978247D01*
X132110937Y-73033484D01*
X132070866Y-73088636D01*
X132023947Y-73153215D01*
X131945018Y-73308121D01*
X131891297Y-73473457D01*
X131891297Y-73473460D01*
X131864100Y-73645174D01*
X131864100Y-73819025D01*
X131891297Y-73990739D01*
X131891297Y-73990742D01*
X131945018Y-74156078D01*
X131994751Y-74253684D01*
X132023947Y-74310984D01*
X132126135Y-74451633D01*
X132249067Y-74574565D01*
X132389716Y-74676753D01*
X132498070Y-74731962D01*
X132544621Y-74755681D01*
X132709958Y-74809402D01*
X132709959Y-74809402D01*
X132709962Y-74809403D01*
X132881674Y-74836600D01*
X132881675Y-74836600D01*
X133055524Y-74836600D01*
X133055526Y-74836600D01*
X133224375Y-74809856D01*
X133255648Y-74813897D01*
X133287106Y-74816147D01*
X133290036Y-74818340D01*
X133293667Y-74818810D01*
X133317795Y-74839121D01*
X133343039Y-74858019D01*
X133344318Y-74861448D01*
X133347119Y-74863806D01*
X133356434Y-74893933D01*
X133367456Y-74923483D01*
X133366677Y-74927060D01*
X133367759Y-74930558D01*
X133359308Y-74960935D01*
X133352604Y-74991756D01*
X133349629Y-74995728D01*
X133349034Y-74997871D01*
X133331453Y-75020010D01*
X133245522Y-75105941D01*
X133184199Y-75139426D01*
X133138443Y-75140733D01*
X133055526Y-75127600D01*
X132881674Y-75127600D01*
X132866812Y-75129954D01*
X132709960Y-75154797D01*
X132709957Y-75154797D01*
X132544621Y-75208518D01*
X132389715Y-75287447D01*
X132333589Y-75328226D01*
X132249067Y-75389635D01*
X132249065Y-75389637D01*
X132249064Y-75389637D01*
X132126137Y-75512564D01*
X132126137Y-75512565D01*
X132126135Y-75512567D01*
X132097596Y-75551847D01*
X132023947Y-75653215D01*
X131945018Y-75808121D01*
X131891297Y-75973457D01*
X131891297Y-75973460D01*
X131864100Y-76145174D01*
X131864100Y-76319025D01*
X131891297Y-76490739D01*
X131891297Y-76490742D01*
X131945018Y-76656078D01*
X131993974Y-76752159D01*
X132023947Y-76810984D01*
X132110937Y-76930715D01*
X132134417Y-76996520D01*
X132118592Y-77064574D01*
X132068486Y-77113269D01*
X132010619Y-77127600D01*
X131881674Y-77127600D01*
X131836311Y-77134785D01*
X131709960Y-77154797D01*
X131709957Y-77154797D01*
X131544621Y-77208518D01*
X131389715Y-77287447D01*
X131326854Y-77333119D01*
X131249067Y-77389635D01*
X131249065Y-77389637D01*
X131249064Y-77389637D01*
X131126137Y-77512564D01*
X131126137Y-77512565D01*
X131126135Y-77512567D01*
X131082249Y-77572969D01*
X131023947Y-77653215D01*
X130945018Y-77808121D01*
X130891297Y-77973457D01*
X130891297Y-77973460D01*
X130864100Y-78145174D01*
X130864100Y-78319025D01*
X130891297Y-78490739D01*
X130891297Y-78490742D01*
X130945018Y-78656078D01*
X131023947Y-78810984D01*
X131126135Y-78951633D01*
X131249067Y-79074565D01*
X131389716Y-79176753D01*
X131544619Y-79255680D01*
X131544622Y-79255681D01*
X131544995Y-79255871D01*
X131595791Y-79303845D01*
X131612700Y-79366356D01*
X131612700Y-125073934D01*
X131593015Y-125140973D01*
X131591802Y-125142825D01*
X131503809Y-125274514D01*
X131503802Y-125274527D01*
X131443464Y-125420198D01*
X131443461Y-125420210D01*
X131412700Y-125574853D01*
X131412700Y-125732546D01*
X131443461Y-125887189D01*
X131443464Y-125887201D01*
X131503802Y-126032872D01*
X131503809Y-126032885D01*
X131591410Y-126163988D01*
X131591413Y-126163992D01*
X131702907Y-126275486D01*
X131702911Y-126275489D01*
X131834014Y-126363090D01*
X131834027Y-126363097D01*
X131979698Y-126423435D01*
X131979703Y-126423437D01*
X132134353Y-126454199D01*
X132134356Y-126454200D01*
X132242800Y-126454200D01*
X132309839Y-126473885D01*
X132355594Y-126526689D01*
X132366800Y-126578200D01*
X132366800Y-135864602D01*
X132347115Y-135931641D01*
X132330481Y-135952283D01*
X129097082Y-139185681D01*
X129097080Y-139185683D01*
X129097080Y-139185684D01*
X129054314Y-139259757D01*
X129054313Y-139259757D01*
X129018024Y-139322612D01*
X129018023Y-139322614D01*
X129018023Y-139322615D01*
X128981523Y-139458833D01*
X128945157Y-139518493D01*
X128918060Y-139537214D01*
X128915911Y-139538309D01*
X128755133Y-139655121D01*
X128614621Y-139795633D01*
X128497813Y-139956405D01*
X128418085Y-140112880D01*
X128370110Y-140163676D01*
X128302289Y-140180471D01*
X128236154Y-140157933D01*
X128197115Y-140112880D01*
X128117386Y-139956405D01*
X128000581Y-139795636D01*
X127860064Y-139655119D01*
X127699294Y-139538313D01*
X127699290Y-139538310D01*
X127697315Y-139537100D01*
X127696721Y-139536443D01*
X127695352Y-139535449D01*
X127695560Y-139535161D01*
X127650437Y-139485290D01*
X127638100Y-139431370D01*
X127638100Y-76963196D01*
X127657785Y-76896157D01*
X127674414Y-76875520D01*
X131691677Y-72858256D01*
X131696476Y-72855635D01*
X131699501Y-72851075D01*
X131726815Y-72839069D01*
X131752998Y-72824773D01*
X131759784Y-72824579D01*
X131763464Y-72822962D01*
X131798753Y-72823465D01*
G37*
%TD.AperFunction*%
%TA.AperFunction,Conductor*%
G36*
X134350134Y-138273614D02*
G01*
X134406067Y-138315486D01*
X134430484Y-138380950D01*
X134430800Y-138389796D01*
X134430800Y-138880601D01*
X134411115Y-138947640D01*
X134394481Y-138968282D01*
X134281814Y-139080948D01*
X134281815Y-139080949D01*
X134177080Y-139185684D01*
X134134314Y-139259757D01*
X134134313Y-139259757D01*
X134098024Y-139322612D01*
X134098023Y-139322614D01*
X134098023Y-139322615D01*
X134061523Y-139458833D01*
X134025157Y-139518493D01*
X133998060Y-139537214D01*
X133995911Y-139538309D01*
X133835133Y-139655121D01*
X133694621Y-139795633D01*
X133577813Y-139956405D01*
X133498085Y-140112880D01*
X133450110Y-140163676D01*
X133382289Y-140180471D01*
X133316154Y-140157933D01*
X133277115Y-140112880D01*
X133197386Y-139956405D01*
X133080581Y-139795636D01*
X132990770Y-139705825D01*
X132957285Y-139644502D01*
X132962269Y-139574810D01*
X132990768Y-139530465D01*
X134219119Y-138302115D01*
X134280442Y-138268630D01*
X134350134Y-138273614D01*
G37*
%TD.AperFunction*%
%TA.AperFunction,Conductor*%
G36*
X136985983Y-78824857D02*
G01*
X136993225Y-78824236D01*
X137018103Y-78837363D01*
X137044320Y-78847570D01*
X137051553Y-78855012D01*
X137055020Y-78856842D01*
X137068913Y-78872875D01*
X137126135Y-78951633D01*
X137249067Y-79074565D01*
X137389716Y-79176753D01*
X137504900Y-79235442D01*
X137544621Y-79255681D01*
X137709958Y-79309402D01*
X137709959Y-79309402D01*
X137709962Y-79309403D01*
X137881674Y-79336600D01*
X137881675Y-79336600D01*
X138055525Y-79336600D01*
X138055526Y-79336600D01*
X138227238Y-79309403D01*
X138269981Y-79295514D01*
X138339822Y-79293520D01*
X138399655Y-79329600D01*
X138430484Y-79392301D01*
X138432300Y-79413446D01*
X138432300Y-138762930D01*
X138432299Y-138762948D01*
X138432299Y-138928654D01*
X138432298Y-138928654D01*
X138473223Y-139081386D01*
X138480523Y-139094029D01*
X138484919Y-139101642D01*
X138529826Y-139179424D01*
X138552279Y-139218315D01*
X138671149Y-139337185D01*
X138671155Y-139337190D01*
X138864428Y-139530464D01*
X138897913Y-139591787D01*
X138892929Y-139661479D01*
X138864429Y-139705826D01*
X138774618Y-139795637D01*
X138657813Y-139956405D01*
X138578085Y-140112880D01*
X138530110Y-140163676D01*
X138462289Y-140180471D01*
X138396154Y-140157933D01*
X138357115Y-140112880D01*
X138277386Y-139956405D01*
X138160581Y-139795636D01*
X138020064Y-139655119D01*
X137859294Y-139538313D01*
X137843888Y-139530463D01*
X137682232Y-139448094D01*
X137682229Y-139448093D01*
X137493237Y-139386687D01*
X137395098Y-139371143D01*
X137296961Y-139355600D01*
X137098239Y-139355600D01*
X137032814Y-139365962D01*
X136901962Y-139386687D01*
X136712970Y-139448093D01*
X136712967Y-139448094D01*
X136535905Y-139538313D01*
X136375133Y-139655121D01*
X136234621Y-139795633D01*
X136117813Y-139956405D01*
X136038085Y-140112880D01*
X135990110Y-140163676D01*
X135922289Y-140180471D01*
X135856154Y-140157933D01*
X135817115Y-140112880D01*
X135737386Y-139956405D01*
X135620581Y-139795636D01*
X135528786Y-139703841D01*
X135495301Y-139642518D01*
X135500285Y-139572826D01*
X135509080Y-139554160D01*
X135511817Y-139549418D01*
X135511820Y-139549416D01*
X135590877Y-139412484D01*
X135631801Y-139259757D01*
X135631801Y-139101642D01*
X135631801Y-139101640D01*
X135631801Y-139094047D01*
X135631800Y-139094029D01*
X135631800Y-79442208D01*
X135651485Y-79375169D01*
X135704289Y-79329414D01*
X135773447Y-79319470D01*
X135775099Y-79319719D01*
X135881674Y-79336600D01*
X135881676Y-79336600D01*
X136055525Y-79336600D01*
X136055526Y-79336600D01*
X136227238Y-79309403D01*
X136227241Y-79309402D01*
X136227242Y-79309402D01*
X136392578Y-79255681D01*
X136392578Y-79255680D01*
X136392581Y-79255680D01*
X136547484Y-79176753D01*
X136688133Y-79074565D01*
X136811065Y-78951633D01*
X136868283Y-78872878D01*
X136890557Y-78855703D01*
X136910733Y-78836096D01*
X136917857Y-78834652D01*
X136923612Y-78830215D01*
X136951637Y-78827807D01*
X136979211Y-78822221D01*
X136985983Y-78824857D01*
G37*
%TD.AperFunction*%
%TA.AperFunction,Conductor*%
G36*
X154296434Y-134864515D02*
G01*
X154352367Y-134906387D01*
X154376784Y-134971851D01*
X154377100Y-134980697D01*
X154377100Y-139431370D01*
X154357415Y-139498409D01*
X154319733Y-139535291D01*
X154319848Y-139535449D01*
X154318776Y-139536227D01*
X154317885Y-139537100D01*
X154315909Y-139538310D01*
X154155133Y-139655121D01*
X154014621Y-139795633D01*
X153897813Y-139956405D01*
X153818085Y-140112880D01*
X153770110Y-140163676D01*
X153702289Y-140180471D01*
X153636154Y-140157933D01*
X153597115Y-140112880D01*
X153517386Y-139956405D01*
X153400581Y-139795636D01*
X153260064Y-139655119D01*
X153099294Y-139538313D01*
X153099290Y-139538310D01*
X153097315Y-139537100D01*
X153096721Y-139536443D01*
X153095352Y-139535449D01*
X153095560Y-139535161D01*
X153050437Y-139485290D01*
X153038100Y-139431370D01*
X153038100Y-136071697D01*
X153057785Y-136004658D01*
X153074419Y-135984016D01*
X154165419Y-134893016D01*
X154226742Y-134859531D01*
X154296434Y-134864515D01*
G37*
%TD.AperFunction*%
%TA.AperFunction,Conductor*%
G36*
X156335302Y-132611186D02*
G01*
X156361625Y-132631260D01*
X156880781Y-133150416D01*
X156914266Y-133211739D01*
X156917100Y-133238097D01*
X156917100Y-139431370D01*
X156897415Y-139498409D01*
X156859733Y-139535291D01*
X156859848Y-139535449D01*
X156858776Y-139536227D01*
X156857885Y-139537100D01*
X156855909Y-139538310D01*
X156695133Y-139655121D01*
X156554621Y-139795633D01*
X156437813Y-139956405D01*
X156358085Y-140112880D01*
X156310110Y-140163676D01*
X156242289Y-140180471D01*
X156176154Y-140157933D01*
X156137115Y-140112880D01*
X156057386Y-139956405D01*
X155940581Y-139795636D01*
X155800064Y-139655119D01*
X155639294Y-139538313D01*
X155639290Y-139538310D01*
X155637315Y-139537100D01*
X155636721Y-139536443D01*
X155635352Y-139535449D01*
X155635560Y-139535161D01*
X155590437Y-139485290D01*
X155578100Y-139431370D01*
X155578100Y-134704997D01*
X155586743Y-134675560D01*
X155593267Y-134645571D01*
X155597022Y-134640553D01*
X155597785Y-134637958D01*
X155614413Y-134617321D01*
X155689663Y-134542071D01*
X155750982Y-134508589D01*
X155753150Y-134508138D01*
X155811085Y-134496613D01*
X155908497Y-134477237D01*
X156054179Y-134416894D01*
X156185289Y-134329289D01*
X156296789Y-134217789D01*
X156384394Y-134086679D01*
X156444737Y-133940997D01*
X156475500Y-133786342D01*
X156475500Y-133628658D01*
X156475500Y-133628655D01*
X156475499Y-133628653D01*
X156444738Y-133474010D01*
X156444737Y-133474003D01*
X156407513Y-133384135D01*
X156384397Y-133328327D01*
X156384390Y-133328314D01*
X156296789Y-133197211D01*
X156296786Y-133197207D01*
X156183783Y-133084204D01*
X156150298Y-133022881D01*
X156149847Y-132972333D01*
X156158200Y-132930342D01*
X156158200Y-132772658D01*
X156152327Y-132743133D01*
X156158553Y-132673543D01*
X156201416Y-132618365D01*
X156267305Y-132595119D01*
X156335302Y-132611186D01*
G37*
%TD.AperFunction*%
%TA.AperFunction,Conductor*%
G36*
X160863303Y-133589784D02*
G01*
X160869781Y-133595816D01*
X166804429Y-139530464D01*
X166837914Y-139591787D01*
X166832930Y-139661479D01*
X166804429Y-139705826D01*
X166714621Y-139795633D01*
X166597813Y-139956405D01*
X166518085Y-140112880D01*
X166470110Y-140163676D01*
X166402289Y-140180471D01*
X166336154Y-140157933D01*
X166297115Y-140112880D01*
X166217386Y-139956405D01*
X166100581Y-139795636D01*
X165960064Y-139655119D01*
X165799294Y-139538313D01*
X165783888Y-139530463D01*
X165622232Y-139448094D01*
X165622229Y-139448093D01*
X165433237Y-139386687D01*
X165335098Y-139371143D01*
X165236961Y-139355600D01*
X165038239Y-139355600D01*
X164972814Y-139365962D01*
X164841962Y-139386687D01*
X164652970Y-139448093D01*
X164652967Y-139448094D01*
X164475905Y-139538313D01*
X164315133Y-139655121D01*
X164174621Y-139795633D01*
X164057813Y-139956405D01*
X163978085Y-140112880D01*
X163930110Y-140163676D01*
X163862289Y-140180471D01*
X163796154Y-140157933D01*
X163757115Y-140112880D01*
X163677386Y-139956405D01*
X163560581Y-139795636D01*
X163420064Y-139655119D01*
X163259294Y-139538313D01*
X163243888Y-139530463D01*
X163082232Y-139448094D01*
X163082229Y-139448093D01*
X162893237Y-139386687D01*
X162795098Y-139371143D01*
X162696961Y-139355600D01*
X162498239Y-139355600D01*
X162432814Y-139365962D01*
X162301962Y-139386687D01*
X162112970Y-139448093D01*
X162112967Y-139448094D01*
X161935905Y-139538313D01*
X161775133Y-139655121D01*
X161634621Y-139795633D01*
X161517813Y-139956405D01*
X161438085Y-140112880D01*
X161390110Y-140163676D01*
X161322289Y-140180471D01*
X161256154Y-140157933D01*
X161217115Y-140112880D01*
X161137386Y-139956405D01*
X161020581Y-139795636D01*
X160880064Y-139655119D01*
X160719294Y-139538313D01*
X160719290Y-139538310D01*
X160717315Y-139537100D01*
X160716721Y-139536443D01*
X160715352Y-139535449D01*
X160715560Y-139535161D01*
X160670437Y-139485290D01*
X160658100Y-139431370D01*
X160658100Y-133683497D01*
X160677785Y-133616458D01*
X160730589Y-133570703D01*
X160799747Y-133560759D01*
X160863303Y-133589784D01*
G37*
%TD.AperFunction*%
%TA.AperFunction,Conductor*%
G36*
X146428655Y-79320177D02*
G01*
X146459484Y-79382877D01*
X146461300Y-79404023D01*
X146461300Y-116311930D01*
X146461299Y-116311948D01*
X146461299Y-116477654D01*
X146461298Y-116477654D01*
X146502223Y-116630387D01*
X146509146Y-116642377D01*
X146509148Y-116642379D01*
X146581277Y-116767312D01*
X146581281Y-116767317D01*
X146700149Y-116886185D01*
X146700155Y-116886190D01*
X169344429Y-139530464D01*
X169377914Y-139591787D01*
X169372930Y-139661479D01*
X169344429Y-139705826D01*
X169254621Y-139795633D01*
X169137813Y-139956405D01*
X169058085Y-140112880D01*
X169010110Y-140163676D01*
X168942289Y-140180471D01*
X168876154Y-140157933D01*
X168837115Y-140112880D01*
X168757386Y-139956405D01*
X168640581Y-139795636D01*
X168500064Y-139655119D01*
X168339294Y-139538313D01*
X168337144Y-139537217D01*
X168336475Y-139536585D01*
X168335146Y-139535771D01*
X168335317Y-139535491D01*
X168312571Y-139514005D01*
X168287568Y-139491275D01*
X168286928Y-139489781D01*
X168286353Y-139489238D01*
X168273676Y-139458833D01*
X168237177Y-139322616D01*
X168237177Y-139322615D01*
X168237177Y-139322614D01*
X168200886Y-139259757D01*
X168158120Y-139185684D01*
X168046316Y-139073880D01*
X168046315Y-139073879D01*
X168041985Y-139069549D01*
X168041974Y-139069539D01*
X145707119Y-116734684D01*
X145673634Y-116673361D01*
X145670800Y-116647003D01*
X145670800Y-80879189D01*
X145670800Y-80866760D01*
X145670801Y-80866757D01*
X145670801Y-80708643D01*
X145662940Y-80679306D01*
X145662396Y-80665463D01*
X145662753Y-80664039D01*
X145662300Y-80660591D01*
X145662300Y-79447039D01*
X145681985Y-79380000D01*
X145734789Y-79334245D01*
X145803947Y-79324301D01*
X145805625Y-79324554D01*
X145881674Y-79336600D01*
X145881676Y-79336600D01*
X146055525Y-79336600D01*
X146055526Y-79336600D01*
X146227238Y-79309403D01*
X146298982Y-79286091D01*
X146368822Y-79284097D01*
X146428655Y-79320177D01*
G37*
%TD.AperFunction*%
%TA.AperFunction,Conductor*%
G36*
X151774303Y-115426184D02*
G01*
X151780781Y-115432216D01*
X170346039Y-133997474D01*
X170346049Y-133997485D01*
X170350379Y-134001815D01*
X170350380Y-134001816D01*
X170462184Y-134113620D01*
X170462186Y-134113621D01*
X170462190Y-134113624D01*
X170599109Y-134192673D01*
X170599116Y-134192677D01*
X170710919Y-134222634D01*
X170751842Y-134233600D01*
X170751843Y-134233600D01*
X170935870Y-134233600D01*
X171002909Y-134253285D01*
X171039791Y-134290966D01*
X171039949Y-134290852D01*
X171040727Y-134291923D01*
X171041600Y-134292815D01*
X171042810Y-134294790D01*
X171042813Y-134294794D01*
X171159619Y-134455564D01*
X171300136Y-134596081D01*
X171460906Y-134712887D01*
X171579432Y-134773279D01*
X171617380Y-134792615D01*
X171668176Y-134840590D01*
X171684971Y-134908411D01*
X171662433Y-134974546D01*
X171617380Y-135013585D01*
X171460905Y-135093313D01*
X171300137Y-135210118D01*
X171210326Y-135299929D01*
X171149002Y-135333413D01*
X171079311Y-135328429D01*
X171034964Y-135299928D01*
X151605419Y-115870383D01*
X151571934Y-115809060D01*
X151569100Y-115782702D01*
X151569100Y-115519897D01*
X151588785Y-115452858D01*
X151641589Y-115407103D01*
X151710747Y-115397159D01*
X151774303Y-115426184D01*
G37*
%TD.AperFunction*%
%TA.AperFunction,Conductor*%
G36*
X160217978Y-120965062D02*
G01*
X160244302Y-120985137D01*
X170444816Y-131185651D01*
X170476910Y-131241238D01*
X170499323Y-131324885D01*
X170499326Y-131324890D01*
X170578375Y-131461809D01*
X170578379Y-131461814D01*
X170578380Y-131461816D01*
X170690184Y-131573620D01*
X170690186Y-131573621D01*
X170690190Y-131573624D01*
X170827109Y-131652673D01*
X170827116Y-131652677D01*
X170963332Y-131689176D01*
X171022992Y-131725540D01*
X171041721Y-131752651D01*
X171042812Y-131754793D01*
X171081748Y-131808384D01*
X171159619Y-131915564D01*
X171300136Y-132056081D01*
X171460906Y-132172887D01*
X171572427Y-132229710D01*
X171617380Y-132252615D01*
X171668176Y-132300590D01*
X171684971Y-132368411D01*
X171662433Y-132434546D01*
X171617380Y-132473585D01*
X171460905Y-132553313D01*
X171300133Y-132670121D01*
X171159618Y-132810636D01*
X171117893Y-132868066D01*
X171062563Y-132910731D01*
X170992949Y-132916709D01*
X170931155Y-132884102D01*
X170929895Y-132882860D01*
X159885459Y-121838424D01*
X159851974Y-121777101D01*
X159856958Y-121707409D01*
X159870036Y-121681856D01*
X159923455Y-121601908D01*
X159946389Y-121567587D01*
X159946390Y-121567584D01*
X159946394Y-121567579D01*
X160006737Y-121421897D01*
X160037500Y-121267242D01*
X160037500Y-121109558D01*
X160035004Y-121097010D01*
X160041230Y-121027421D01*
X160084091Y-120972242D01*
X160149980Y-120948996D01*
X160217978Y-120965062D01*
G37*
%TD.AperFunction*%
%TA.AperFunction,Conductor*%
G36*
X160985983Y-78824857D02*
G01*
X160993225Y-78824236D01*
X161018103Y-78837363D01*
X161044320Y-78847570D01*
X161051553Y-78855012D01*
X161055020Y-78856842D01*
X161068913Y-78872875D01*
X161126135Y-78951633D01*
X161249067Y-79074565D01*
X161389716Y-79176753D01*
X161504900Y-79235442D01*
X161544621Y-79255681D01*
X161709958Y-79309402D01*
X161709959Y-79309402D01*
X161709962Y-79309403D01*
X161881674Y-79336600D01*
X161881675Y-79336600D01*
X162055524Y-79336600D01*
X162055526Y-79336600D01*
X162224703Y-79309804D01*
X162293995Y-79318758D01*
X162347447Y-79363754D01*
X162368087Y-79430506D01*
X162368100Y-79432277D01*
X162368100Y-112756130D01*
X162368099Y-112756148D01*
X162368099Y-112921854D01*
X162368098Y-112921854D01*
X162409023Y-113074585D01*
X162437958Y-113124700D01*
X162437959Y-113124704D01*
X162437960Y-113124704D01*
X162488079Y-113211514D01*
X162488081Y-113211517D01*
X162606949Y-113330385D01*
X162606955Y-113330390D01*
X170574039Y-121297474D01*
X170574049Y-121297485D01*
X170578379Y-121301815D01*
X170578380Y-121301816D01*
X170690184Y-121413620D01*
X170776995Y-121463739D01*
X170827115Y-121492677D01*
X170968349Y-121530521D01*
X170973228Y-121532277D01*
X170997411Y-121549948D01*
X171022992Y-121565541D01*
X171027317Y-121571801D01*
X171029641Y-121573500D01*
X171031099Y-121577277D01*
X171041717Y-121592646D01*
X171042808Y-121594787D01*
X171042812Y-121594793D01*
X171042813Y-121594794D01*
X171159619Y-121755564D01*
X171300136Y-121896081D01*
X171460906Y-122012887D01*
X171579432Y-122073279D01*
X171617380Y-122092615D01*
X171668176Y-122140590D01*
X171684971Y-122208411D01*
X171662433Y-122274546D01*
X171617380Y-122313585D01*
X171460905Y-122393313D01*
X171300133Y-122510121D01*
X171210326Y-122599929D01*
X171149003Y-122633414D01*
X171079311Y-122628430D01*
X171034964Y-122599929D01*
X159605419Y-111170384D01*
X159571934Y-111109061D01*
X159569100Y-111082703D01*
X159569100Y-79432277D01*
X159588785Y-79365238D01*
X159641589Y-79319483D01*
X159710747Y-79309539D01*
X159712382Y-79309786D01*
X159881674Y-79336600D01*
X159881676Y-79336600D01*
X160055525Y-79336600D01*
X160055526Y-79336600D01*
X160227238Y-79309403D01*
X160227241Y-79309402D01*
X160227242Y-79309402D01*
X160392578Y-79255681D01*
X160392578Y-79255680D01*
X160392581Y-79255680D01*
X160547484Y-79176753D01*
X160688133Y-79074565D01*
X160811065Y-78951633D01*
X160868283Y-78872878D01*
X160890557Y-78855703D01*
X160910733Y-78836096D01*
X160917857Y-78834652D01*
X160923612Y-78830215D01*
X160951637Y-78827807D01*
X160979211Y-78822221D01*
X160985983Y-78824857D01*
G37*
%TD.AperFunction*%
%TA.AperFunction,Conductor*%
G36*
X164768374Y-79105866D02*
G01*
X164817069Y-79155971D01*
X164831400Y-79213839D01*
X164831400Y-112679430D01*
X164831399Y-112679448D01*
X164831399Y-112845154D01*
X164831398Y-112845154D01*
X164872324Y-112997887D01*
X164883626Y-113017462D01*
X164883627Y-113017464D01*
X164951377Y-113134812D01*
X164951381Y-113134817D01*
X165070249Y-113253685D01*
X165070254Y-113253689D01*
X170690184Y-118873620D01*
X170690186Y-118873621D01*
X170690190Y-118873624D01*
X170827109Y-118952673D01*
X170827116Y-118952677D01*
X170963336Y-118989177D01*
X171022993Y-119025541D01*
X171041725Y-119052659D01*
X171042813Y-119054794D01*
X171159619Y-119215564D01*
X171300136Y-119356081D01*
X171460906Y-119472887D01*
X171579432Y-119533279D01*
X171617380Y-119552615D01*
X171668176Y-119600590D01*
X171684971Y-119668411D01*
X171662433Y-119734546D01*
X171617380Y-119773585D01*
X171460905Y-119853313D01*
X171300133Y-119970121D01*
X171210326Y-120059929D01*
X171149003Y-120093414D01*
X171079311Y-120088430D01*
X171034964Y-120059929D01*
X163605419Y-112630384D01*
X163571934Y-112569061D01*
X163569100Y-112542703D01*
X163569100Y-79432277D01*
X163588785Y-79365238D01*
X163641589Y-79319483D01*
X163710747Y-79309539D01*
X163712382Y-79309786D01*
X163881674Y-79336600D01*
X163881676Y-79336600D01*
X164055525Y-79336600D01*
X164055526Y-79336600D01*
X164227238Y-79309403D01*
X164227241Y-79309402D01*
X164227242Y-79309402D01*
X164392578Y-79255681D01*
X164392578Y-79255680D01*
X164392581Y-79255680D01*
X164547484Y-79176753D01*
X164634515Y-79113520D01*
X164700320Y-79090041D01*
X164768374Y-79105866D01*
G37*
%TD.AperFunction*%
%TA.AperFunction,Conductor*%
G36*
X148650165Y-74793703D02*
G01*
X148654047Y-74793145D01*
X148674719Y-74797952D01*
X148709961Y-74809403D01*
X148772404Y-74819293D01*
X148881674Y-74836600D01*
X148881675Y-74836600D01*
X149055525Y-74836600D01*
X149055526Y-74836600D01*
X149138444Y-74823466D01*
X149207736Y-74832420D01*
X149245523Y-74858258D01*
X149733739Y-75346474D01*
X149733749Y-75346485D01*
X149738079Y-75350815D01*
X149738080Y-75350816D01*
X149849884Y-75462620D01*
X149936396Y-75512567D01*
X149957515Y-75524760D01*
X149983342Y-75551847D01*
X150005728Y-75575324D01*
X150005728Y-75575326D01*
X150005730Y-75575328D01*
X150009316Y-75593939D01*
X150018952Y-75643931D01*
X150005998Y-75688440D01*
X149945019Y-75808118D01*
X149945019Y-75808119D01*
X149891297Y-75973457D01*
X149891297Y-75973460D01*
X149864100Y-76145174D01*
X149864100Y-76319025D01*
X149891297Y-76490739D01*
X149891297Y-76490742D01*
X149945018Y-76656078D01*
X149993974Y-76752159D01*
X150023947Y-76810984D01*
X150110937Y-76930715D01*
X150134417Y-76996520D01*
X150118592Y-77064574D01*
X150068486Y-77113269D01*
X150010619Y-77127600D01*
X149881674Y-77127600D01*
X149836311Y-77134785D01*
X149709960Y-77154797D01*
X149709957Y-77154797D01*
X149544621Y-77208518D01*
X149389715Y-77287447D01*
X149326854Y-77333119D01*
X149249067Y-77389635D01*
X149249065Y-77389637D01*
X149249064Y-77389637D01*
X149126136Y-77512565D01*
X149068918Y-77591319D01*
X149013587Y-77633985D01*
X148943974Y-77639963D01*
X148882179Y-77607357D01*
X148868282Y-77591319D01*
X148865148Y-77587005D01*
X148811065Y-77512567D01*
X148688133Y-77389635D01*
X148555003Y-77292910D01*
X148547476Y-77287441D01*
X148545431Y-77286188D01*
X148544817Y-77285509D01*
X148543542Y-77284583D01*
X148543736Y-77284315D01*
X148498558Y-77234374D01*
X148487139Y-77165444D01*
X148490447Y-77148387D01*
X148512401Y-77066457D01*
X148512401Y-76908343D01*
X148512401Y-76900748D01*
X148512400Y-76900730D01*
X148512400Y-74915883D01*
X148520325Y-74888892D01*
X148525123Y-74861171D01*
X148530037Y-74855815D01*
X148532085Y-74848844D01*
X148553339Y-74830426D01*
X148572367Y-74809695D01*
X148579397Y-74807846D01*
X148584889Y-74803089D01*
X148612732Y-74799085D01*
X148639941Y-74791934D01*
X148650165Y-74793703D01*
G37*
%TD.AperFunction*%
%TA.AperFunction,Conductor*%
G36*
X158055020Y-74356842D02*
G01*
X158068913Y-74372875D01*
X158126135Y-74451633D01*
X158126137Y-74451635D01*
X158231102Y-74556600D01*
X158264587Y-74617923D01*
X158259603Y-74687615D01*
X158231102Y-74731962D01*
X157566981Y-75396082D01*
X157566979Y-75396084D01*
X157539978Y-75442852D01*
X157528566Y-75462620D01*
X157508244Y-75497817D01*
X157487923Y-75533014D01*
X157482877Y-75551847D01*
X157446999Y-75685743D01*
X157446999Y-75685745D01*
X157446999Y-75853846D01*
X157447000Y-75853859D01*
X157447000Y-76816330D01*
X157446999Y-76816348D01*
X157446999Y-76823943D01*
X157446999Y-76982057D01*
X157452526Y-77002682D01*
X157486128Y-77128088D01*
X157485465Y-77155911D01*
X157488119Y-77183613D01*
X157484645Y-77190355D01*
X157484465Y-77197938D01*
X157468866Y-77220983D01*
X157456121Y-77245725D01*
X157448051Y-77251737D01*
X157445302Y-77255800D01*
X157428384Y-77267550D01*
X157425531Y-77269197D01*
X157389716Y-77287447D01*
X157373297Y-77299375D01*
X157367680Y-77302621D01*
X157339775Y-77309399D01*
X157312725Y-77319050D01*
X157306246Y-77317543D01*
X157299785Y-77319113D01*
X157272645Y-77309728D01*
X157244672Y-77303223D01*
X157237023Y-77297411D01*
X157233751Y-77296280D01*
X157231099Y-77292910D01*
X157217968Y-77282933D01*
X156100251Y-76165216D01*
X156066766Y-76103893D01*
X156065459Y-76096933D01*
X156057392Y-76046002D01*
X156045903Y-75973462D01*
X156045902Y-75973458D01*
X156045902Y-75973457D01*
X155992181Y-75808121D01*
X155968600Y-75761840D01*
X155913253Y-75653216D01*
X155811065Y-75512567D01*
X155688133Y-75389635D01*
X155547484Y-75287447D01*
X155541268Y-75284280D01*
X155392578Y-75208518D01*
X155227241Y-75154797D01*
X155070388Y-75129954D01*
X155055526Y-75127600D01*
X154881674Y-75127600D01*
X154866812Y-75129954D01*
X154709960Y-75154797D01*
X154709957Y-75154797D01*
X154581813Y-75196434D01*
X154511972Y-75198429D01*
X154452139Y-75162348D01*
X154423721Y-75110598D01*
X154417777Y-75088416D01*
X154385051Y-75031732D01*
X154338724Y-74951490D01*
X154338718Y-74951482D01*
X154279207Y-74891971D01*
X154245722Y-74830648D01*
X154250706Y-74760956D01*
X154292578Y-74705023D01*
X154358042Y-74680606D01*
X154423182Y-74693804D01*
X154498070Y-74731962D01*
X154544621Y-74755681D01*
X154709958Y-74809402D01*
X154709959Y-74809402D01*
X154709962Y-74809403D01*
X154881674Y-74836600D01*
X154881675Y-74836600D01*
X155055525Y-74836600D01*
X155055526Y-74836600D01*
X155227238Y-74809403D01*
X155227241Y-74809402D01*
X155227242Y-74809402D01*
X155392578Y-74755681D01*
X155392578Y-74755680D01*
X155392581Y-74755680D01*
X155547484Y-74676753D01*
X155688133Y-74574565D01*
X155811065Y-74451633D01*
X155868283Y-74372878D01*
X155923612Y-74330215D01*
X155993225Y-74324236D01*
X156055020Y-74356842D01*
X156068913Y-74372875D01*
X156126135Y-74451633D01*
X156249067Y-74574565D01*
X156389716Y-74676753D01*
X156498070Y-74731962D01*
X156544621Y-74755681D01*
X156709958Y-74809402D01*
X156709959Y-74809402D01*
X156709962Y-74809403D01*
X156881674Y-74836600D01*
X156881675Y-74836600D01*
X157055525Y-74836600D01*
X157055526Y-74836600D01*
X157227238Y-74809403D01*
X157227241Y-74809402D01*
X157227242Y-74809402D01*
X157392578Y-74755681D01*
X157392578Y-74755680D01*
X157392581Y-74755680D01*
X157547484Y-74676753D01*
X157688133Y-74574565D01*
X157811065Y-74451633D01*
X157868283Y-74372878D01*
X157923612Y-74330215D01*
X157993225Y-74324236D01*
X158055020Y-74356842D01*
G37*
%TD.AperFunction*%
%TA.AperFunction,Conductor*%
G36*
X162774303Y-75574484D02*
G01*
X162780781Y-75580516D01*
X163331781Y-76131516D01*
X163365266Y-76192839D01*
X163368100Y-76219197D01*
X163368100Y-76843948D01*
X163368099Y-76850919D01*
X163367063Y-76854444D01*
X163367342Y-76857624D01*
X163367341Y-76857633D01*
X163366164Y-76857502D01*
X163358141Y-76884814D01*
X163348414Y-76917940D01*
X163348407Y-76917945D01*
X163348405Y-76917955D01*
X163319296Y-76943170D01*
X163295610Y-76963695D01*
X163295601Y-76963696D01*
X163295594Y-76963703D01*
X163260673Y-76968718D01*
X163226452Y-76973639D01*
X163226442Y-76973634D01*
X163226434Y-76973636D01*
X163197031Y-76960203D01*
X163162896Y-76944614D01*
X163156418Y-76938582D01*
X162605419Y-76387583D01*
X162571934Y-76326260D01*
X162569100Y-76299902D01*
X162569100Y-75668197D01*
X162588785Y-75601158D01*
X162641589Y-75555403D01*
X162710747Y-75545459D01*
X162774303Y-75574484D01*
G37*
%TD.AperFunction*%
%TD*%
M02*
