%TF.GenerationSoftware,KiCad,Pcbnew,10.0.4*%
%TF.CreationDate,2026-06-29T15:09:08+02:00*%
%TF.ProjectId,CW308T_to_cardedge,43573330-3854-45f7-946f-5f6361726465,rev?*%
%TF.SameCoordinates,Original*%
%TF.FileFunction,Copper,L6,Bot*%
%TF.FilePolarity,Positive*%
%FSLAX46Y46*%
G04 Gerber Fmt 4.6, Leading zero omitted, Abs format (unit mm)*
G04 Created by KiCad (PCBNEW 10.0.4) date 2026-06-29 15:09:08*
%MOMM*%
%LPD*%
G01*
G04 APERTURE LIST*
%TA.AperFunction,ComponentPad*%
%ADD10R,2.794000X1.524000*%
%TD*%
%TA.AperFunction,ComponentPad*%
%ADD11O,2.794000X1.524000*%
%TD*%
%TA.AperFunction,ComponentPad*%
%ADD12R,1.524000X2.794000*%
%TD*%
%TA.AperFunction,ComponentPad*%
%ADD13O,1.524000X2.794000*%
%TD*%
%TA.AperFunction,ComponentPad*%
%ADD14C,6.350000*%
%TD*%
%TA.AperFunction,ComponentPad*%
%ADD15R,1.208000X1.208000*%
%TD*%
%TA.AperFunction,ComponentPad*%
%ADD16C,1.208000*%
%TD*%
%TA.AperFunction,ViaPad*%
%ADD17C,0.600000*%
%TD*%
G04 APERTURE END LIST*
D10*
%TO.P,J1,A1,SPARE1_A1*%
%TO.N,unconnected-(J1-SPARE1-PadA1)*%
X124497600Y-87913100D03*
D11*
%TO.P,J1,A2,GND_A2*%
%TO.N,GND*%
X124497600Y-90453100D03*
%TO.P,J1,A3,CLKOUT(TO_TARGET)_A3*%
%TO.N,/CLKOUT*%
X124497600Y-92993100D03*
%TO.P,J1,A4,GND_A4*%
%TO.N,GND*%
X124497600Y-95533100D03*
%TO.P,J1,A5,CLKIN(FROM_TARGET)_A5*%
%TO.N,/CLKIN*%
X124497600Y-98073100D03*
%TO.P,J1,A6,GND_A6*%
%TO.N,GND*%
X124497600Y-100613100D03*
%TO.P,J1,A7,GPIO1_A7*%
%TO.N,/GPIO1{slash}TX*%
X124497600Y-103153100D03*
%TO.P,J1,A8,GPIO2_A8*%
%TO.N,/GPIO2{slash}RX*%
X124497600Y-105693100D03*
%TO.P,J1,A9,GPIO3_A9*%
%TO.N,/GPIO3*%
X124497600Y-108233100D03*
%TO.P,J1,A10,GPIO4_A10*%
%TO.N,/GPIO4{slash}TRIG*%
X124497600Y-110773100D03*
%TO.P,J1,A11,nRST_A11*%
%TO.N,/nRST*%
X124497600Y-113313100D03*
%TO.P,J1,A12,SCK_A12*%
%TO.N,/SCK*%
X124497600Y-115853100D03*
%TO.P,J1,A13,MISO_A13*%
%TO.N,/MISO*%
X124497600Y-118393100D03*
%TO.P,J1,A14,MOSI_A14*%
%TO.N,/MOSI*%
X124497600Y-120933100D03*
%TO.P,J1,A15,GND_A15*%
%TO.N,GND*%
X124497600Y-123473100D03*
%TO.P,J1,A16,GND_A16*%
X124497600Y-126013100D03*
%TO.P,J1,A17,PDIC_A17*%
%TO.N,/PDIC*%
X124497600Y-128553100D03*
%TO.P,J1,A18,PDID_A18*%
%TO.N,/PDID*%
X124497600Y-131093100D03*
%TO.P,J1,A19,SPARE2_A19*%
%TO.N,unconnected-(J1-SPARE2-PadA19)*%
X124497600Y-133633100D03*
%TO.P,J1,A20,VREF_A20*%
%TO.N,/IOVREF*%
X124497600Y-136173100D03*
D12*
%TO.P,J1,B1,GND_B1*%
%TO.N,GND*%
X124497600Y-141253100D03*
D13*
%TO.P,J1,B2,JTAG_TRST_B2*%
%TO.N,/JTAG_TRST*%
X127037600Y-141253100D03*
%TO.P,J1,B3,JTAG_TDI_B3*%
%TO.N,/JTAG_TDI*%
X129577600Y-141253100D03*
%TO.P,J1,B4,JTAG_TDO_B4*%
%TO.N,/JTAG_TDO*%
X132117600Y-141253100D03*
%TO.P,J1,B5,JTAG_TMS_B5*%
%TO.N,/JTAG_TMS*%
X134657600Y-141253100D03*
%TO.P,J1,B6,JTAG_TCK_B6*%
%TO.N,/JTAG_TCK*%
X137197600Y-141253100D03*
%TO.P,J1,B7,JTAG_VREF_B7*%
%TO.N,/JTAG_VREF*%
X139737600Y-141253100D03*
%TO.P,J1,B8,JTAG_nRST_B8*%
%TO.N,/JTAG_nRST*%
X142277600Y-141253100D03*
%TO.P,J1,B9,GND_B9*%
%TO.N,GND*%
X144817600Y-141253100D03*
%TO.P,J1,B10,GND_B10*%
X147357600Y-141253100D03*
%TO.P,J1,B11,HDR1_B11*%
%TO.N,/HDR1*%
X149897600Y-141253100D03*
%TO.P,J1,B12,HDR2_B12*%
%TO.N,/HDR2*%
X152437600Y-141253100D03*
%TO.P,J1,B13,HDR3_B13*%
%TO.N,/HDR3*%
X154977600Y-141253100D03*
%TO.P,J1,B14,HDR4_B14*%
%TO.N,/HDR4*%
X157517600Y-141253100D03*
%TO.P,J1,B15,HDR5_B15*%
%TO.N,/HDR5*%
X160057600Y-141253100D03*
%TO.P,J1,B16,HDR6_B16*%
%TO.N,/HDR6*%
X162597600Y-141253100D03*
%TO.P,J1,B17,HDR7_B17*%
%TO.N,/HDR7*%
X165137600Y-141253100D03*
%TO.P,J1,B18,HDR8_B18*%
%TO.N,/HDR8*%
X167677600Y-141253100D03*
%TO.P,J1,B19,HDR9_B19*%
%TO.N,/HDR9*%
X170217600Y-141253100D03*
%TO.P,J1,B20,HDR10_B20*%
%TO.N,/HDR10*%
X172757600Y-141253100D03*
D10*
%TO.P,J1,C1,GND_C1*%
%TO.N,GND*%
X172757600Y-87913100D03*
D11*
%TO.P,J1,C2,SHUNTL_C2*%
%TO.N,/SHUNTL*%
X172757600Y-90453100D03*
%TO.P,J1,C3,SHUNTH_C3*%
%TO.N,/SHUNTH*%
X172757600Y-92993100D03*
%TO.P,J1,C4,GND_C4*%
%TO.N,GND*%
X172757600Y-95533100D03*
%TO.P,J1,C5,FILT_LP_C5*%
%TO.N,/FILT_LP*%
X172757600Y-98073100D03*
%TO.P,J1,C6,FILT_HP_C6*%
%TO.N,/FILT_HP*%
X172757600Y-100613100D03*
%TO.P,J1,C7,GND_C7*%
%TO.N,GND*%
X172757600Y-103153100D03*
%TO.P,J1,C8,FILTIN_C8*%
%TO.N,/FILTIN*%
X172757600Y-105693100D03*
%TO.P,J1,C9,GND_C9*%
%TO.N,GND*%
X172757600Y-108233100D03*
%TO.P,J1,C10,GND_C10*%
X172757600Y-110773100D03*
%TO.P,J1,C11,VCC1.2V_C11*%
%TO.N,/VCC1.2*%
X172757600Y-113313100D03*
%TO.P,J1,C12,VCC1.8V_C12*%
%TO.N,/VCC1.8*%
X172757600Y-115853100D03*
%TO.P,J1,C13,VCC2.5V_C13*%
%TO.N,/VCC2.5*%
X172757600Y-118393100D03*
%TO.P,J1,C14,VCC3.3V_C14*%
%TO.N,/VCC3.3*%
X172757600Y-120933100D03*
%TO.P,J1,C15,VCC5.0V_C15*%
%TO.N,/VCC5.0*%
X172757600Y-123473100D03*
%TO.P,J1,C16,GND_C16*%
%TO.N,GND*%
X172757600Y-126013100D03*
%TO.P,J1,C17,GND_C17*%
X172757600Y-128553100D03*
%TO.P,J1,C18,LED1_C18*%
%TO.N,/LED1*%
X172757600Y-131093100D03*
%TO.P,J1,C19,LED2_C19*%
%TO.N,/LED2*%
X172757600Y-133633100D03*
%TO.P,J1,C20,LED3_C20*%
%TO.N,/LED3*%
X172757600Y-136173100D03*
D14*
%TO.P,J1,MH2*%
%TO.N,N/C*%
X147357600Y-133633100D03*
%TD*%
D15*
%TO.P,CN1,A1,A1_A1*%
%TO.N,GND*%
X164968600Y-73732100D03*
D16*
%TO.P,CN1,A2,A2_A2*%
X163968600Y-71732100D03*
%TO.P,CN1,A3,A3_A3*%
%TO.N,/FILT_LP*%
X162968600Y-73732100D03*
%TO.P,CN1,A4,A4_A4*%
%TO.N,/VCC2.5*%
X161968600Y-71732100D03*
%TO.P,CN1,A5,A5_A5*%
%TO.N,/VCC3.3*%
X160968600Y-73732100D03*
%TO.P,CN1,A6,A6_A6*%
%TO.N,/VCC5.0*%
X159968600Y-71732100D03*
%TO.P,CN1,A7,A7_A7*%
%TO.N,/VCCADJ*%
X158968600Y-73732100D03*
%TO.P,CN1,A8,A8_A8*%
%TO.N,GND*%
X157968600Y-71732100D03*
%TO.P,CN1,A9,A9_A9*%
%TO.N,/HDR1*%
X156968600Y-73732100D03*
%TO.P,CN1,A10,A10_A10*%
%TO.N,/HDR2*%
X155968600Y-71732100D03*
%TO.P,CN1,A11,A11_A11*%
%TO.N,/HDR3*%
X154968600Y-73732100D03*
%TO.P,CN1,A12,A12_A12*%
%TO.N,/HDR4*%
X151968600Y-71732100D03*
%TO.P,CN1,A13,A13_A13*%
%TO.N,/HDR5*%
X150968600Y-73732100D03*
%TO.P,CN1,A14,A14_A14*%
%TO.N,/HDR6*%
X149968600Y-71732100D03*
%TO.P,CN1,A15,A15_A15*%
%TO.N,/HDR7*%
X148968600Y-73732100D03*
%TO.P,CN1,A16,A16_A16*%
%TO.N,/HDR8*%
X147968600Y-71732100D03*
%TO.P,CN1,A17,A17_A17*%
%TO.N,/HDR9*%
X146968600Y-73732100D03*
%TO.P,CN1,A18,A18_A18*%
%TO.N,/HDR10*%
X145968600Y-71732100D03*
%TO.P,CN1,A19,A19_A19*%
%TO.N,/nRST_OUT*%
X144968600Y-73732100D03*
%TO.P,CN1,A20,A20_A20*%
%TO.N,GND*%
X143968600Y-71732100D03*
%TO.P,CN1,A21,A21_A21*%
%TO.N,/TRACECLK*%
X142968600Y-73732100D03*
%TO.P,CN1,A22,A22_A22*%
%TO.N,/TRACED0*%
X141968600Y-71732100D03*
%TO.P,CN1,A23,A23_A23*%
%TO.N,/TRACED1*%
X140968600Y-73732100D03*
%TO.P,CN1,A24,A24_A24*%
%TO.N,/TRACED2*%
X139968600Y-71732100D03*
%TO.P,CN1,A25,A25_A25*%
%TO.N,/TRACED3*%
X138968600Y-73732100D03*
%TO.P,CN1,A26,A26_A26*%
%TO.N,/JTAG_VREF*%
X137968600Y-71732100D03*
%TO.P,CN1,A27,A27_A27*%
%TO.N,GND*%
X136968600Y-73732100D03*
%TO.P,CN1,A28,A28_A28*%
X135968600Y-71732100D03*
%TO.P,CN1,A29,A29_A29*%
%TO.N,/CLKIN*%
X134968600Y-73732100D03*
%TO.P,CN1,A30,A30_A30*%
%TO.N,/CLKIN_n*%
X133968600Y-71732100D03*
%TO.P,CN1,A31,A31_A31*%
%TO.N,/JTAG_nRST*%
X132968600Y-73732100D03*
%TO.P,CN1,A32,A32_A32*%
%TO.N,/JTAG_TRST*%
X131968600Y-71732100D03*
%TO.P,CN1,B1,B1_B1*%
%TO.N,/SHUNTL*%
X164968600Y-76232100D03*
%TO.P,CN1,B2,B2_B2*%
%TO.N,/SHUNTH*%
X163968600Y-78232100D03*
%TO.P,CN1,B3,B3_B3*%
%TO.N,GND*%
X162968600Y-76232100D03*
%TO.P,CN1,B4,B4_B4*%
%TO.N,/FILT_HP*%
X161968600Y-78232100D03*
%TO.P,CN1,B5,B5_B5*%
%TO.N,/FILTIN*%
X160968600Y-76232100D03*
%TO.P,CN1,B6,B6_B6*%
%TO.N,/VCC1.0*%
X159968600Y-78232100D03*
%TO.P,CN1,B7,B7_B7*%
%TO.N,/VCC1.2*%
X158968600Y-76232100D03*
%TO.P,CN1,B8,B8_B8*%
%TO.N,/VCC1.8*%
X157968600Y-78232100D03*
%TO.P,CN1,B9,B9_B9*%
%TO.N,GND*%
X156968600Y-76232100D03*
%TO.P,CN1,B10,B10_B10*%
%TO.N,/IOVREF*%
X155968600Y-78232100D03*
%TO.P,CN1,B11,B11_B11*%
%TO.N,/LED1*%
X154968600Y-76232100D03*
%TO.P,CN1,B12,B12_B12*%
%TO.N,/LED2*%
X151968600Y-78232100D03*
%TO.P,CN1,B13,B13_B13*%
%TO.N,/LED3*%
X150968600Y-76232100D03*
%TO.P,CN1,B14,B14_B14*%
%TO.N,/nRST*%
X149968600Y-78232100D03*
%TO.P,CN1,B15,B15_B15*%
%TO.N,GND*%
X148968600Y-76232100D03*
%TO.P,CN1,B16,B16_B16*%
%TO.N,/GPIO1{slash}TX*%
X147968600Y-78232100D03*
%TO.P,CN1,B17,B17_B17*%
%TO.N,/GPIO2{slash}RX*%
X146968600Y-76232100D03*
%TO.P,CN1,B18,B18_B18*%
%TO.N,/GPIO3*%
X145968600Y-78232100D03*
%TO.P,CN1,B19,B19_B19*%
%TO.N,/GPIO4{slash}TRIG*%
X144968600Y-76232100D03*
%TO.P,CN1,B20,B20_B20*%
%TO.N,/SCK*%
X143968600Y-78232100D03*
%TO.P,CN1,B21,B21_B21*%
%TO.N,GND*%
X142968600Y-76232100D03*
%TO.P,CN1,B22,B22_B22*%
X141968600Y-78232100D03*
%TO.P,CN1,B23,B23_B23*%
%TO.N,/MISO*%
X140968600Y-76232100D03*
%TO.P,CN1,B24,B24_B24*%
%TO.N,/MOSI*%
X139968600Y-78232100D03*
%TO.P,CN1,B25,B25_B25*%
%TO.N,/PDIC*%
X138968600Y-76232100D03*
%TO.P,CN1,B26,B26_B26*%
%TO.N,/PDID*%
X137968600Y-78232100D03*
%TO.P,CN1,B27,B27_B27*%
%TO.N,/CLKOUT*%
X136968600Y-76232100D03*
%TO.P,CN1,B28,B28_B28*%
%TO.N,/CLKOUT_n*%
X135968600Y-78232100D03*
%TO.P,CN1,B29,B29_B29*%
%TO.N,/JTAG_TDI*%
X134968600Y-76232100D03*
%TO.P,CN1,B30,B30_B30*%
%TO.N,/JTAG_TDO*%
X133968600Y-78232100D03*
%TO.P,CN1,B31,B31_B31*%
%TO.N,/JTAG_TMS*%
X132968600Y-76232100D03*
%TO.P,CN1,B32,B32_B32*%
%TO.N,/JTAG_TCK*%
X131968600Y-78232100D03*
%TD*%
D17*
%TO.N,GND*%
X172968600Y-138732100D03*
X172968600Y-104232100D03*
X172968600Y-96732100D03*
X172968600Y-84732100D03*
X172968600Y-81732100D03*
X172968600Y-78732100D03*
X172968600Y-75732100D03*
X171468600Y-129732100D03*
X171468600Y-72732100D03*
X171468600Y-69732100D03*
X171468600Y-66732100D03*
X171468600Y-63732100D03*
X171468600Y-60732100D03*
X169968600Y-116232100D03*
X169968600Y-113232100D03*
X169968600Y-108732100D03*
X169968600Y-105732100D03*
X169968600Y-101232100D03*
X169968600Y-96732100D03*
X169968600Y-93732100D03*
X169968600Y-90732100D03*
X169968600Y-86232100D03*
X169968600Y-81732100D03*
X169968600Y-78732100D03*
X169968600Y-75732100D03*
X168468600Y-125232100D03*
X168468600Y-122232100D03*
X168468600Y-72732100D03*
X168468600Y-69732100D03*
X168468600Y-66732100D03*
X168468600Y-63732100D03*
X168468600Y-60732100D03*
X166968600Y-137232100D03*
X166968600Y-134232100D03*
X166968600Y-131232100D03*
X166968600Y-128232100D03*
X166968600Y-113232100D03*
X166968600Y-110232100D03*
X166968600Y-105732100D03*
X166968600Y-102732100D03*
X166968600Y-98232100D03*
X166968600Y-93732100D03*
X166968600Y-90732100D03*
X166968600Y-87732100D03*
X166968600Y-83232100D03*
X166968600Y-78732100D03*
X166968600Y-75732100D03*
X165468600Y-123732100D03*
X165468600Y-120732100D03*
X165468600Y-72732100D03*
X165468600Y-69732100D03*
X165468600Y-66732100D03*
X165468600Y-63732100D03*
X165468600Y-60732100D03*
X163968600Y-134232100D03*
X163968600Y-117732100D03*
X163968600Y-110232100D03*
X163968600Y-107232100D03*
X163968600Y-102732100D03*
X163968600Y-99732100D03*
X163968600Y-95232100D03*
X163968600Y-92232100D03*
X163968600Y-89232100D03*
X163968600Y-86232100D03*
X163968600Y-83232100D03*
X163968600Y-80232100D03*
X162468600Y-137232100D03*
X162468600Y-129732100D03*
X162468600Y-126732100D03*
X162468600Y-120732100D03*
X162468600Y-69732100D03*
X162468600Y-66732100D03*
X162468600Y-63732100D03*
X162468600Y-60732100D03*
X160968600Y-134232100D03*
X160968600Y-117732100D03*
X160968600Y-114732100D03*
X160968600Y-110232100D03*
X160968600Y-107232100D03*
X160968600Y-104232100D03*
X159468600Y-129732100D03*
X159468600Y-126732100D03*
X159468600Y-123732100D03*
X159468600Y-69732100D03*
X159468600Y-66732100D03*
X159468600Y-63732100D03*
X159468600Y-60732100D03*
X157968600Y-116232100D03*
X157968600Y-113232100D03*
X157968600Y-110232100D03*
X156468600Y-137232100D03*
X156468600Y-134232100D03*
X156468600Y-126732100D03*
X156468600Y-123732100D03*
X156468600Y-120732100D03*
X156468600Y-69732100D03*
X156468600Y-66732100D03*
X156468600Y-63732100D03*
X156468600Y-60732100D03*
X153468600Y-137232100D03*
X153468600Y-69732100D03*
X153468600Y-63732100D03*
X153468600Y-60732100D03*
X151968600Y-132732100D03*
X151968600Y-129732100D03*
X151968600Y-126732100D03*
X151968600Y-122232100D03*
X151968600Y-119232100D03*
X151968600Y-116232100D03*
X150468600Y-69732100D03*
X150468600Y-66732100D03*
X150468600Y-63732100D03*
X150468600Y-60732100D03*
X148968600Y-138732100D03*
X148968600Y-128232100D03*
X148968600Y-125232100D03*
X148968600Y-122232100D03*
X148968600Y-119232100D03*
X148968600Y-114732100D03*
X148968600Y-110232100D03*
X148968600Y-107232100D03*
X148968600Y-104232100D03*
X148968600Y-101232100D03*
X148968600Y-98232100D03*
X148968600Y-95232100D03*
X148968600Y-92232100D03*
X148968600Y-89232100D03*
X148968600Y-86232100D03*
X148968600Y-83232100D03*
X148968600Y-80232100D03*
X147468600Y-69732100D03*
X147468600Y-66732100D03*
X147468600Y-63732100D03*
X147468600Y-60732100D03*
X145968600Y-141732100D03*
X145968600Y-138732100D03*
X145968600Y-128232100D03*
X145968600Y-125232100D03*
X145968600Y-122232100D03*
X145968600Y-119232100D03*
X145968600Y-113232100D03*
X145968600Y-110232100D03*
X145968600Y-107232100D03*
X145968600Y-104232100D03*
X145968600Y-101232100D03*
X145968600Y-98232100D03*
X145968600Y-95232100D03*
X144468600Y-92232100D03*
X144468600Y-86232100D03*
X144468600Y-69732100D03*
X144468600Y-66732100D03*
X144468600Y-63732100D03*
X144468600Y-60732100D03*
X142968600Y-138732100D03*
X142968600Y-135732100D03*
X142968600Y-132732100D03*
X142968600Y-129732100D03*
X142968600Y-126732100D03*
X142968600Y-123732100D03*
X142968600Y-120732100D03*
X142968600Y-116232100D03*
X142968600Y-113232100D03*
X142968600Y-110232100D03*
X142968600Y-107232100D03*
X142968600Y-104232100D03*
X142968600Y-101232100D03*
X142968600Y-98232100D03*
X142968600Y-95232100D03*
X141468600Y-69732100D03*
X141468600Y-66732100D03*
X141468600Y-63732100D03*
X141468600Y-60732100D03*
X139968600Y-135732100D03*
X139968600Y-132732100D03*
X139968600Y-129732100D03*
X139968600Y-126732100D03*
X139968600Y-123732100D03*
X139968600Y-119232100D03*
X139968600Y-116232100D03*
X139968600Y-113232100D03*
X139968600Y-110232100D03*
X139968600Y-107232100D03*
X139968600Y-104232100D03*
X139968600Y-101232100D03*
X139968600Y-98232100D03*
X139968600Y-90732100D03*
X139968600Y-87732100D03*
X138468600Y-140232100D03*
X138468600Y-69732100D03*
X138468600Y-66732100D03*
X138468600Y-63732100D03*
X138468600Y-60732100D03*
X136968600Y-135732100D03*
X136968600Y-132732100D03*
X136968600Y-129732100D03*
X136968600Y-126732100D03*
X136968600Y-122232100D03*
X135468600Y-69732100D03*
X135468600Y-66732100D03*
X135468600Y-63732100D03*
X135468600Y-60732100D03*
X133968600Y-138732100D03*
X132468600Y-69732100D03*
X132468600Y-66732100D03*
X132468600Y-63732100D03*
X132468600Y-60732100D03*
X130968600Y-135732100D03*
X130968600Y-132732100D03*
X130968600Y-128232100D03*
X130968600Y-120732100D03*
X130968600Y-117732100D03*
X130968600Y-114732100D03*
X130968600Y-110232100D03*
X130968600Y-107232100D03*
X130968600Y-99732100D03*
X130968600Y-96732100D03*
X130968600Y-92232100D03*
X130968600Y-89232100D03*
X130968600Y-86232100D03*
X130968600Y-83232100D03*
X130968600Y-80232100D03*
X129468600Y-75732100D03*
X129468600Y-72732100D03*
X129468600Y-69732100D03*
X129468600Y-63732100D03*
X129468600Y-60732100D03*
X127968600Y-138732100D03*
X127968600Y-135732100D03*
X127968600Y-131232100D03*
X127968600Y-123732100D03*
X127968600Y-120732100D03*
X127968600Y-117732100D03*
X127968600Y-113232100D03*
X127968600Y-110232100D03*
X127968600Y-102732100D03*
X127968600Y-99732100D03*
X127968600Y-95232100D03*
X127968600Y-92232100D03*
X127968600Y-87732100D03*
X127968600Y-84732100D03*
X127968600Y-81732100D03*
X127968600Y-78732100D03*
X126468600Y-75732100D03*
X126468600Y-72732100D03*
X126468600Y-69732100D03*
X126468600Y-66732100D03*
X126468600Y-63732100D03*
X126468600Y-60732100D03*
X123468600Y-138732100D03*
X123468600Y-122232100D03*
X123468600Y-96732100D03*
X123468600Y-89232100D03*
X123468600Y-84732100D03*
X123468600Y-81732100D03*
X123468600Y-78732100D03*
X123468600Y-75732100D03*
X123468600Y-72732100D03*
X123468600Y-69732100D03*
X123468600Y-66732100D03*
X123468600Y-63732100D03*
X123468600Y-60732100D03*
%TO.N,/GPIO1{slash}TX*%
X144468600Y-81036900D03*
%TO.N,/MOSI*%
X126248700Y-99175700D03*
%TO.N,/JTAG_TCK*%
X132213200Y-125653700D03*
%TO.N,/HDR2*%
X155357700Y-132851500D03*
%TO.N,/HDR3*%
X155675000Y-133707500D03*
%TO.N,/HDR4*%
X152431300Y-127851700D03*
%TO.N,/HDR5*%
X152201500Y-125160800D03*
%TO.N,/HDR6*%
X158388700Y-119131200D03*
%TO.N,/HDR7*%
X159237000Y-121188400D03*
%TO.N,/HDR10*%
X157468600Y-86878300D03*
%TD*%
%TA.AperFunction,Conductor*%
%TO.N,GND*%
G36*
X174911139Y-59752285D02*
G01*
X174956894Y-59805089D01*
X174968100Y-59856600D01*
X174968100Y-143107600D01*
X174948415Y-143174639D01*
X174895611Y-143220394D01*
X174844100Y-143231600D01*
X173418226Y-143231600D01*
X173351187Y-143211915D01*
X173305432Y-143159111D01*
X173295488Y-143089953D01*
X173324513Y-143026397D01*
X173361931Y-142997115D01*
X173419294Y-142967887D01*
X173580064Y-142851081D01*
X173720581Y-142710564D01*
X173837387Y-142549794D01*
X173927605Y-142372732D01*
X173989013Y-142183736D01*
X174020100Y-141987461D01*
X174020100Y-140518739D01*
X173989013Y-140322464D01*
X173927605Y-140133468D01*
X173927605Y-140133467D01*
X173837386Y-139956405D01*
X173720581Y-139795636D01*
X173580064Y-139655119D01*
X173419294Y-139538313D01*
X173242232Y-139448094D01*
X173242229Y-139448093D01*
X173053237Y-139386687D01*
X172955098Y-139371143D01*
X172856961Y-139355600D01*
X172658239Y-139355600D01*
X172592814Y-139365962D01*
X172461962Y-139386687D01*
X172272970Y-139448093D01*
X172272967Y-139448094D01*
X172095905Y-139538313D01*
X171935133Y-139655121D01*
X171794621Y-139795633D01*
X171677813Y-139956405D01*
X171598085Y-140112880D01*
X171550110Y-140163676D01*
X171482289Y-140180471D01*
X171416154Y-140157933D01*
X171377115Y-140112880D01*
X171297386Y-139956405D01*
X171180581Y-139795636D01*
X171040064Y-139655119D01*
X170879294Y-139538313D01*
X170702232Y-139448094D01*
X170702229Y-139448093D01*
X170513237Y-139386687D01*
X170415098Y-139371143D01*
X170316961Y-139355600D01*
X170118239Y-139355600D01*
X170052814Y-139365962D01*
X169921962Y-139386687D01*
X169732970Y-139448093D01*
X169732967Y-139448094D01*
X169555905Y-139538313D01*
X169395133Y-139655121D01*
X169254621Y-139795633D01*
X169137813Y-139956405D01*
X169058085Y-140112880D01*
X169010110Y-140163676D01*
X168942289Y-140180471D01*
X168876154Y-140157933D01*
X168837115Y-140112880D01*
X168757386Y-139956405D01*
X168640581Y-139795636D01*
X168500064Y-139655119D01*
X168339294Y-139538313D01*
X168162232Y-139448094D01*
X168162229Y-139448093D01*
X167973237Y-139386687D01*
X167875098Y-139371143D01*
X167776961Y-139355600D01*
X167578239Y-139355600D01*
X167512814Y-139365962D01*
X167381962Y-139386687D01*
X167192970Y-139448093D01*
X167192967Y-139448094D01*
X167015905Y-139538313D01*
X166855133Y-139655121D01*
X166714621Y-139795633D01*
X166597813Y-139956405D01*
X166518085Y-140112880D01*
X166470110Y-140163676D01*
X166402289Y-140180471D01*
X166336154Y-140157933D01*
X166297115Y-140112880D01*
X166217386Y-139956405D01*
X166100581Y-139795636D01*
X165960064Y-139655119D01*
X165799294Y-139538313D01*
X165622232Y-139448094D01*
X165622229Y-139448093D01*
X165433237Y-139386687D01*
X165335098Y-139371143D01*
X165236961Y-139355600D01*
X165038239Y-139355600D01*
X164972814Y-139365962D01*
X164841962Y-139386687D01*
X164652970Y-139448093D01*
X164652967Y-139448094D01*
X164475905Y-139538313D01*
X164315133Y-139655121D01*
X164174621Y-139795633D01*
X164057813Y-139956405D01*
X163978085Y-140112880D01*
X163930110Y-140163676D01*
X163862289Y-140180471D01*
X163796154Y-140157933D01*
X163757115Y-140112880D01*
X163677386Y-139956405D01*
X163560581Y-139795636D01*
X163420064Y-139655119D01*
X163259294Y-139538313D01*
X163082232Y-139448094D01*
X163082229Y-139448093D01*
X162893237Y-139386687D01*
X162795098Y-139371143D01*
X162696961Y-139355600D01*
X162498239Y-139355600D01*
X162432814Y-139365962D01*
X162301962Y-139386687D01*
X162112970Y-139448093D01*
X162112967Y-139448094D01*
X161935905Y-139538313D01*
X161775133Y-139655121D01*
X161634621Y-139795633D01*
X161517813Y-139956405D01*
X161438085Y-140112880D01*
X161390110Y-140163676D01*
X161322289Y-140180471D01*
X161256154Y-140157933D01*
X161217115Y-140112880D01*
X161137386Y-139956405D01*
X161020581Y-139795636D01*
X160880064Y-139655119D01*
X160719294Y-139538313D01*
X160542232Y-139448094D01*
X160542229Y-139448093D01*
X160353237Y-139386687D01*
X160255098Y-139371143D01*
X160156961Y-139355600D01*
X159958239Y-139355600D01*
X159892814Y-139365962D01*
X159761962Y-139386687D01*
X159572970Y-139448093D01*
X159572967Y-139448094D01*
X159395905Y-139538313D01*
X159235133Y-139655121D01*
X159094621Y-139795633D01*
X158977813Y-139956405D01*
X158898085Y-140112880D01*
X158850110Y-140163676D01*
X158782289Y-140180471D01*
X158716154Y-140157933D01*
X158677115Y-140112880D01*
X158597386Y-139956405D01*
X158480581Y-139795636D01*
X158340064Y-139655119D01*
X158179294Y-139538313D01*
X158002232Y-139448094D01*
X158002229Y-139448093D01*
X157813237Y-139386687D01*
X157715098Y-139371143D01*
X157616961Y-139355600D01*
X157418239Y-139355600D01*
X157352814Y-139365962D01*
X157221962Y-139386687D01*
X157032970Y-139448093D01*
X157032967Y-139448094D01*
X156855905Y-139538313D01*
X156695133Y-139655121D01*
X156554621Y-139795633D01*
X156437813Y-139956405D01*
X156358085Y-140112880D01*
X156310110Y-140163676D01*
X156242289Y-140180471D01*
X156176154Y-140157933D01*
X156137115Y-140112880D01*
X156057386Y-139956405D01*
X155940581Y-139795636D01*
X155800064Y-139655119D01*
X155639294Y-139538313D01*
X155462232Y-139448094D01*
X155462229Y-139448093D01*
X155273237Y-139386687D01*
X155175098Y-139371143D01*
X155076961Y-139355600D01*
X154878239Y-139355600D01*
X154812814Y-139365962D01*
X154681962Y-139386687D01*
X154492970Y-139448093D01*
X154492967Y-139448094D01*
X154315905Y-139538313D01*
X154155133Y-139655121D01*
X154014621Y-139795633D01*
X153897813Y-139956405D01*
X153818085Y-140112880D01*
X153770110Y-140163676D01*
X153702289Y-140180471D01*
X153636154Y-140157933D01*
X153597115Y-140112880D01*
X153517386Y-139956405D01*
X153400581Y-139795636D01*
X153260064Y-139655119D01*
X153099294Y-139538313D01*
X152922232Y-139448094D01*
X152922229Y-139448093D01*
X152733237Y-139386687D01*
X152635098Y-139371143D01*
X152536961Y-139355600D01*
X152338239Y-139355600D01*
X152272814Y-139365962D01*
X152141962Y-139386687D01*
X151952970Y-139448093D01*
X151952967Y-139448094D01*
X151775905Y-139538313D01*
X151615133Y-139655121D01*
X151474621Y-139795633D01*
X151357813Y-139956405D01*
X151278085Y-140112880D01*
X151230110Y-140163676D01*
X151162289Y-140180471D01*
X151096154Y-140157933D01*
X151057115Y-140112880D01*
X150977386Y-139956405D01*
X150860581Y-139795636D01*
X150720064Y-139655119D01*
X150559294Y-139538313D01*
X150382232Y-139448094D01*
X150382229Y-139448093D01*
X150193237Y-139386687D01*
X150095098Y-139371143D01*
X149996961Y-139355600D01*
X149798239Y-139355600D01*
X149732814Y-139365962D01*
X149601962Y-139386687D01*
X149412970Y-139448093D01*
X149412967Y-139448094D01*
X149235905Y-139538313D01*
X149075133Y-139655121D01*
X148934621Y-139795633D01*
X148817813Y-139956405D01*
X148727594Y-140133467D01*
X148727593Y-140133470D01*
X148666187Y-140322462D01*
X148635100Y-140518739D01*
X148635100Y-141987460D01*
X148666187Y-142183737D01*
X148727593Y-142372729D01*
X148727594Y-142372732D01*
X148817813Y-142549794D01*
X148934619Y-142710564D01*
X149075136Y-142851081D01*
X149235906Y-142967887D01*
X149293269Y-142997115D01*
X149344065Y-143045090D01*
X149360860Y-143112911D01*
X149338322Y-143179046D01*
X149283607Y-143222497D01*
X149236974Y-143231600D01*
X142938226Y-143231600D01*
X142871187Y-143211915D01*
X142825432Y-143159111D01*
X142815488Y-143089953D01*
X142844513Y-143026397D01*
X142881931Y-142997115D01*
X142939294Y-142967887D01*
X143100064Y-142851081D01*
X143240581Y-142710564D01*
X143357387Y-142549794D01*
X143447605Y-142372732D01*
X143509013Y-142183736D01*
X143540100Y-141987461D01*
X143540100Y-140518739D01*
X143509013Y-140322464D01*
X143447605Y-140133468D01*
X143447605Y-140133467D01*
X143357386Y-139956405D01*
X143240581Y-139795636D01*
X143100064Y-139655119D01*
X142939294Y-139538313D01*
X142762232Y-139448094D01*
X142762229Y-139448093D01*
X142573237Y-139386687D01*
X142475098Y-139371143D01*
X142376961Y-139355600D01*
X142178239Y-139355600D01*
X142112814Y-139365962D01*
X141981962Y-139386687D01*
X141792970Y-139448093D01*
X141792967Y-139448094D01*
X141615905Y-139538313D01*
X141455133Y-139655121D01*
X141314621Y-139795633D01*
X141197813Y-139956405D01*
X141118085Y-140112880D01*
X141070110Y-140163676D01*
X141002289Y-140180471D01*
X140936154Y-140157933D01*
X140897115Y-140112880D01*
X140817386Y-139956405D01*
X140700581Y-139795636D01*
X140560064Y-139655119D01*
X140399294Y-139538313D01*
X140222232Y-139448094D01*
X140222229Y-139448093D01*
X140033237Y-139386687D01*
X139935098Y-139371143D01*
X139836961Y-139355600D01*
X139638239Y-139355600D01*
X139572814Y-139365962D01*
X139441962Y-139386687D01*
X139252970Y-139448093D01*
X139252967Y-139448094D01*
X139075905Y-139538313D01*
X138915133Y-139655121D01*
X138774621Y-139795633D01*
X138657813Y-139956405D01*
X138578085Y-140112880D01*
X138530110Y-140163676D01*
X138462289Y-140180471D01*
X138396154Y-140157933D01*
X138357115Y-140112880D01*
X138277386Y-139956405D01*
X138160581Y-139795636D01*
X138020064Y-139655119D01*
X137859294Y-139538313D01*
X137682232Y-139448094D01*
X137682229Y-139448093D01*
X137493237Y-139386687D01*
X137395098Y-139371143D01*
X137296961Y-139355600D01*
X137098239Y-139355600D01*
X137032814Y-139365962D01*
X136901962Y-139386687D01*
X136712970Y-139448093D01*
X136712967Y-139448094D01*
X136535905Y-139538313D01*
X136375133Y-139655121D01*
X136234621Y-139795633D01*
X136117813Y-139956405D01*
X136038085Y-140112880D01*
X135990110Y-140163676D01*
X135922289Y-140180471D01*
X135856154Y-140157933D01*
X135817115Y-140112880D01*
X135737386Y-139956405D01*
X135620581Y-139795636D01*
X135480064Y-139655119D01*
X135319294Y-139538313D01*
X135142232Y-139448094D01*
X135142229Y-139448093D01*
X134953237Y-139386687D01*
X134855098Y-139371143D01*
X134756961Y-139355600D01*
X134558239Y-139355600D01*
X134492814Y-139365962D01*
X134361962Y-139386687D01*
X134172970Y-139448093D01*
X134172967Y-139448094D01*
X133995905Y-139538313D01*
X133835133Y-139655121D01*
X133694621Y-139795633D01*
X133577813Y-139956405D01*
X133498085Y-140112880D01*
X133450110Y-140163676D01*
X133382289Y-140180471D01*
X133316154Y-140157933D01*
X133277115Y-140112880D01*
X133197386Y-139956405D01*
X133080581Y-139795636D01*
X132940064Y-139655119D01*
X132779294Y-139538313D01*
X132602232Y-139448094D01*
X132602229Y-139448093D01*
X132413237Y-139386687D01*
X132315098Y-139371143D01*
X132216961Y-139355600D01*
X132018239Y-139355600D01*
X131952814Y-139365962D01*
X131821962Y-139386687D01*
X131632970Y-139448093D01*
X131632967Y-139448094D01*
X131455905Y-139538313D01*
X131295133Y-139655121D01*
X131154621Y-139795633D01*
X131037813Y-139956405D01*
X130958085Y-140112880D01*
X130910110Y-140163676D01*
X130842289Y-140180471D01*
X130776154Y-140157933D01*
X130737115Y-140112880D01*
X130657386Y-139956405D01*
X130540581Y-139795636D01*
X130400064Y-139655119D01*
X130239294Y-139538313D01*
X130062232Y-139448094D01*
X130062229Y-139448093D01*
X129873237Y-139386687D01*
X129775098Y-139371143D01*
X129676961Y-139355600D01*
X129478239Y-139355600D01*
X129412814Y-139365962D01*
X129281962Y-139386687D01*
X129092970Y-139448093D01*
X129092967Y-139448094D01*
X128915905Y-139538313D01*
X128755133Y-139655121D01*
X128614621Y-139795633D01*
X128497813Y-139956405D01*
X128418085Y-140112880D01*
X128370110Y-140163676D01*
X128302289Y-140180471D01*
X128236154Y-140157933D01*
X128197115Y-140112880D01*
X128117386Y-139956405D01*
X128000581Y-139795636D01*
X127860064Y-139655119D01*
X127699294Y-139538313D01*
X127522232Y-139448094D01*
X127522229Y-139448093D01*
X127333237Y-139386687D01*
X127235098Y-139371143D01*
X127136961Y-139355600D01*
X126938239Y-139355600D01*
X126872814Y-139365962D01*
X126741962Y-139386687D01*
X126552970Y-139448093D01*
X126552967Y-139448094D01*
X126375905Y-139538313D01*
X126215133Y-139655121D01*
X126074621Y-139795633D01*
X125957813Y-139956405D01*
X125867594Y-140133467D01*
X125867593Y-140133470D01*
X125806187Y-140322462D01*
X125775100Y-140518739D01*
X125775100Y-141987460D01*
X125806187Y-142183737D01*
X125867593Y-142372729D01*
X125867594Y-142372732D01*
X125957813Y-142549794D01*
X126074619Y-142710564D01*
X126215136Y-142851081D01*
X126375906Y-142967887D01*
X126433269Y-142997115D01*
X126484065Y-143045090D01*
X126500860Y-143112911D01*
X126478322Y-143179046D01*
X126423607Y-143222497D01*
X126376974Y-143231600D01*
X122093100Y-143231600D01*
X122026061Y-143211915D01*
X121980306Y-143159111D01*
X121969100Y-143107600D01*
X121969100Y-128453739D01*
X122600100Y-128453739D01*
X122600100Y-128652460D01*
X122631187Y-128848737D01*
X122692593Y-129037729D01*
X122692594Y-129037732D01*
X122782813Y-129214794D01*
X122899619Y-129375564D01*
X123040136Y-129516081D01*
X123200906Y-129632887D01*
X123319432Y-129693279D01*
X123357380Y-129712615D01*
X123408176Y-129760590D01*
X123424971Y-129828411D01*
X123402433Y-129894546D01*
X123357380Y-129933585D01*
X123200905Y-130013313D01*
X123040133Y-130130121D01*
X122899621Y-130270633D01*
X122782813Y-130431405D01*
X122692594Y-130608467D01*
X122692593Y-130608470D01*
X122631187Y-130797462D01*
X122600100Y-130993739D01*
X122600100Y-131192460D01*
X122631187Y-131388737D01*
X122692593Y-131577729D01*
X122692594Y-131577732D01*
X122775901Y-131741229D01*
X122782813Y-131754794D01*
X122899619Y-131915564D01*
X123040136Y-132056081D01*
X123200906Y-132172887D01*
X123312427Y-132229710D01*
X123357380Y-132252615D01*
X123408176Y-132300590D01*
X123424971Y-132368411D01*
X123402433Y-132434546D01*
X123357380Y-132473585D01*
X123200905Y-132553313D01*
X123040133Y-132670121D01*
X122899621Y-132810633D01*
X122782813Y-132971405D01*
X122692594Y-133148467D01*
X122692593Y-133148470D01*
X122631187Y-133337462D01*
X122600100Y-133533739D01*
X122600100Y-133732460D01*
X122631187Y-133928737D01*
X122692593Y-134117729D01*
X122692594Y-134117732D01*
X122743578Y-134217792D01*
X122782813Y-134294794D01*
X122899619Y-134455564D01*
X123040136Y-134596081D01*
X123200906Y-134712887D01*
X123319432Y-134773279D01*
X123357380Y-134792615D01*
X123408176Y-134840590D01*
X123424971Y-134908411D01*
X123402433Y-134974546D01*
X123357380Y-135013585D01*
X123200905Y-135093313D01*
X123040133Y-135210121D01*
X122899621Y-135350633D01*
X122782813Y-135511405D01*
X122692594Y-135688467D01*
X122692593Y-135688470D01*
X122631187Y-135877462D01*
X122600100Y-136073739D01*
X122600100Y-136272460D01*
X122631187Y-136468737D01*
X122692593Y-136657729D01*
X122692594Y-136657732D01*
X122759726Y-136789484D01*
X122782813Y-136834794D01*
X122899619Y-136995564D01*
X123040136Y-137136081D01*
X123200906Y-137252887D01*
X123287749Y-137297135D01*
X123377967Y-137343105D01*
X123377970Y-137343106D01*
X123472466Y-137373809D01*
X123566964Y-137404513D01*
X123763239Y-137435600D01*
X123763240Y-137435600D01*
X125231960Y-137435600D01*
X125231961Y-137435600D01*
X125428236Y-137404513D01*
X125617232Y-137343105D01*
X125794294Y-137252887D01*
X125955064Y-137136081D01*
X126095581Y-136995564D01*
X126212387Y-136834794D01*
X126302605Y-136657732D01*
X126364013Y-136468736D01*
X126395100Y-136272461D01*
X126395100Y-136073739D01*
X126364013Y-135877464D01*
X126302605Y-135688468D01*
X126302605Y-135688467D01*
X126212386Y-135511405D01*
X126095581Y-135350636D01*
X125955064Y-135210119D01*
X125794294Y-135093313D01*
X125637818Y-135013584D01*
X125587023Y-134965610D01*
X125570228Y-134897789D01*
X125592765Y-134831654D01*
X125637818Y-134792615D01*
X125794294Y-134712887D01*
X125955064Y-134596081D01*
X126095581Y-134455564D01*
X126212387Y-134294794D01*
X126302605Y-134117732D01*
X126364013Y-133928736D01*
X126395100Y-133732461D01*
X126395100Y-133533739D01*
X126390943Y-133507493D01*
X126384829Y-133468887D01*
X126382239Y-133452537D01*
X143682100Y-133452537D01*
X143682100Y-133813662D01*
X143717496Y-134173057D01*
X143787944Y-134527230D01*
X143787947Y-134527241D01*
X143892781Y-134872833D01*
X144030981Y-135206476D01*
X144030983Y-135206481D01*
X144201209Y-135524952D01*
X144201220Y-135524970D01*
X144401844Y-135825225D01*
X144401854Y-135825239D01*
X144630954Y-136104397D01*
X144886302Y-136359745D01*
X144886307Y-136359749D01*
X144886308Y-136359750D01*
X145165466Y-136588850D01*
X145465736Y-136789484D01*
X145465745Y-136789489D01*
X145465747Y-136789490D01*
X145784218Y-136959716D01*
X145784220Y-136959716D01*
X145784226Y-136959720D01*
X146117868Y-137097919D01*
X146463449Y-137202750D01*
X146463455Y-137202751D01*
X146463458Y-137202752D01*
X146463469Y-137202755D01*
X146817642Y-137273203D01*
X147177034Y-137308600D01*
X147177037Y-137308600D01*
X147538163Y-137308600D01*
X147538166Y-137308600D01*
X147897558Y-137273203D01*
X147999699Y-137252886D01*
X148251730Y-137202755D01*
X148251741Y-137202752D01*
X148251741Y-137202751D01*
X148251751Y-137202750D01*
X148597332Y-137097919D01*
X148930974Y-136959720D01*
X149249464Y-136789484D01*
X149549734Y-136588850D01*
X149828892Y-136359750D01*
X150084250Y-136104392D01*
X150313350Y-135825234D01*
X150513984Y-135524964D01*
X150684220Y-135206474D01*
X150822419Y-134872832D01*
X150927250Y-134527251D01*
X150927252Y-134527241D01*
X150927255Y-134527230D01*
X150997703Y-134173057D01*
X151006210Y-134086685D01*
X151033100Y-133813666D01*
X151033100Y-133452534D01*
X150997703Y-133093142D01*
X150973672Y-132972328D01*
X150937556Y-132790757D01*
X150933955Y-132772653D01*
X154557200Y-132772653D01*
X154557200Y-132930346D01*
X154587961Y-133084989D01*
X154587964Y-133085001D01*
X154648302Y-133230672D01*
X154648309Y-133230685D01*
X154735910Y-133361788D01*
X154735913Y-133361792D01*
X154848916Y-133474795D01*
X154882401Y-133536118D01*
X154882852Y-133586667D01*
X154874500Y-133628653D01*
X154874500Y-133786346D01*
X154905261Y-133940989D01*
X154905264Y-133941001D01*
X154965602Y-134086672D01*
X154965609Y-134086685D01*
X155053210Y-134217788D01*
X155053213Y-134217792D01*
X155164707Y-134329286D01*
X155164711Y-134329289D01*
X155295814Y-134416890D01*
X155295827Y-134416897D01*
X155389179Y-134455564D01*
X155441503Y-134477237D01*
X155596153Y-134507999D01*
X155596156Y-134508000D01*
X155596158Y-134508000D01*
X155753844Y-134508000D01*
X155753845Y-134507999D01*
X155908497Y-134477237D01*
X156054179Y-134416894D01*
X156185289Y-134329289D01*
X156296789Y-134217789D01*
X156384394Y-134086679D01*
X156444737Y-133940997D01*
X156475500Y-133786342D01*
X156475500Y-133628658D01*
X156475500Y-133628655D01*
X156475499Y-133628653D01*
X156467147Y-133586667D01*
X156444737Y-133474003D01*
X156398257Y-133361789D01*
X156384397Y-133328327D01*
X156384390Y-133328314D01*
X156296789Y-133197211D01*
X156296786Y-133197207D01*
X156183783Y-133084204D01*
X156150298Y-133022881D01*
X156149847Y-132972333D01*
X156158200Y-132930342D01*
X156158200Y-132772658D01*
X156158200Y-132772655D01*
X156158199Y-132772653D01*
X156137804Y-132670121D01*
X156127437Y-132618003D01*
X156067618Y-132473585D01*
X156067097Y-132472327D01*
X156067090Y-132472314D01*
X155979489Y-132341211D01*
X155979486Y-132341207D01*
X155867992Y-132229713D01*
X155867988Y-132229710D01*
X155736885Y-132142109D01*
X155736872Y-132142102D01*
X155591201Y-132081764D01*
X155591189Y-132081761D01*
X155436545Y-132051000D01*
X155436542Y-132051000D01*
X155278858Y-132051000D01*
X155278855Y-132051000D01*
X155124210Y-132081761D01*
X155124198Y-132081764D01*
X154978527Y-132142102D01*
X154978514Y-132142109D01*
X154847411Y-132229710D01*
X154847407Y-132229713D01*
X154735913Y-132341207D01*
X154735910Y-132341211D01*
X154648309Y-132472314D01*
X154648302Y-132472327D01*
X154587964Y-132617998D01*
X154587961Y-132618010D01*
X154557200Y-132772653D01*
X150933955Y-132772653D01*
X150927255Y-132738969D01*
X150927252Y-132738958D01*
X150927251Y-132738955D01*
X150927250Y-132738949D01*
X150822419Y-132393368D01*
X150684220Y-132059726D01*
X150513984Y-131741236D01*
X150313350Y-131440966D01*
X150084250Y-131161808D01*
X150084249Y-131161807D01*
X150084245Y-131161802D01*
X149916182Y-130993739D01*
X170860100Y-130993739D01*
X170860100Y-131192460D01*
X170891187Y-131388737D01*
X170952593Y-131577729D01*
X170952594Y-131577732D01*
X171035901Y-131741229D01*
X171042813Y-131754794D01*
X171159619Y-131915564D01*
X171300136Y-132056081D01*
X171460906Y-132172887D01*
X171572427Y-132229710D01*
X171617380Y-132252615D01*
X171668176Y-132300590D01*
X171684971Y-132368411D01*
X171662433Y-132434546D01*
X171617380Y-132473585D01*
X171460905Y-132553313D01*
X171300133Y-132670121D01*
X171159621Y-132810633D01*
X171042813Y-132971405D01*
X170952594Y-133148467D01*
X170952593Y-133148470D01*
X170891187Y-133337462D01*
X170860100Y-133533739D01*
X170860100Y-133732460D01*
X170891187Y-133928737D01*
X170952593Y-134117729D01*
X170952594Y-134117732D01*
X171003578Y-134217792D01*
X171042813Y-134294794D01*
X171159619Y-134455564D01*
X171300136Y-134596081D01*
X171460906Y-134712887D01*
X171579432Y-134773279D01*
X171617380Y-134792615D01*
X171668176Y-134840590D01*
X171684971Y-134908411D01*
X171662433Y-134974546D01*
X171617380Y-135013585D01*
X171460905Y-135093313D01*
X171300133Y-135210121D01*
X171159621Y-135350633D01*
X171042813Y-135511405D01*
X170952594Y-135688467D01*
X170952593Y-135688470D01*
X170891187Y-135877462D01*
X170860100Y-136073739D01*
X170860100Y-136272460D01*
X170891187Y-136468737D01*
X170952593Y-136657729D01*
X170952594Y-136657732D01*
X171019726Y-136789484D01*
X171042813Y-136834794D01*
X171159619Y-136995564D01*
X171300136Y-137136081D01*
X171460906Y-137252887D01*
X171547749Y-137297135D01*
X171637967Y-137343105D01*
X171637970Y-137343106D01*
X171732466Y-137373809D01*
X171826964Y-137404513D01*
X172023239Y-137435600D01*
X172023240Y-137435600D01*
X173491960Y-137435600D01*
X173491961Y-137435600D01*
X173688236Y-137404513D01*
X173877232Y-137343105D01*
X174054294Y-137252887D01*
X174215064Y-137136081D01*
X174355581Y-136995564D01*
X174472387Y-136834794D01*
X174562605Y-136657732D01*
X174624013Y-136468736D01*
X174655100Y-136272461D01*
X174655100Y-136073739D01*
X174624013Y-135877464D01*
X174562605Y-135688468D01*
X174562605Y-135688467D01*
X174472386Y-135511405D01*
X174355581Y-135350636D01*
X174215064Y-135210119D01*
X174054294Y-135093313D01*
X173897818Y-135013584D01*
X173847023Y-134965610D01*
X173830228Y-134897789D01*
X173852765Y-134831654D01*
X173897818Y-134792615D01*
X174054294Y-134712887D01*
X174215064Y-134596081D01*
X174355581Y-134455564D01*
X174472387Y-134294794D01*
X174562605Y-134117732D01*
X174624013Y-133928736D01*
X174655100Y-133732461D01*
X174655100Y-133533739D01*
X174624013Y-133337464D01*
X174589317Y-133230679D01*
X174562606Y-133148470D01*
X174562605Y-133148467D01*
X174498615Y-133022881D01*
X174472387Y-132971406D01*
X174355581Y-132810636D01*
X174215064Y-132670119D01*
X174054294Y-132553313D01*
X173897818Y-132473584D01*
X173847023Y-132425610D01*
X173830228Y-132357789D01*
X173852765Y-132291654D01*
X173897818Y-132252615D01*
X174054294Y-132172887D01*
X174215064Y-132056081D01*
X174355581Y-131915564D01*
X174472387Y-131754794D01*
X174562605Y-131577732D01*
X174624013Y-131388736D01*
X174655100Y-131192461D01*
X174655100Y-130993739D01*
X174624013Y-130797464D01*
X174562605Y-130608468D01*
X174562605Y-130608467D01*
X174495476Y-130476720D01*
X174472387Y-130431406D01*
X174355581Y-130270636D01*
X174215064Y-130130119D01*
X174054294Y-130013313D01*
X174014420Y-129992996D01*
X173877232Y-129923094D01*
X173877229Y-129923093D01*
X173688237Y-129861687D01*
X173590098Y-129846143D01*
X173491961Y-129830600D01*
X172023239Y-129830600D01*
X171957814Y-129840962D01*
X171826962Y-129861687D01*
X171637970Y-129923093D01*
X171637967Y-129923094D01*
X171460905Y-130013313D01*
X171300133Y-130130121D01*
X171159621Y-130270633D01*
X171042813Y-130431405D01*
X170952594Y-130608467D01*
X170952593Y-130608470D01*
X170891187Y-130797462D01*
X170860100Y-130993739D01*
X149916182Y-130993739D01*
X149828897Y-130906454D01*
X149549739Y-130677354D01*
X149549738Y-130677353D01*
X149549734Y-130677350D01*
X149249464Y-130476716D01*
X149249459Y-130476713D01*
X149249452Y-130476709D01*
X148930981Y-130306483D01*
X148930976Y-130306481D01*
X148597333Y-130168281D01*
X148251741Y-130063447D01*
X148251730Y-130063444D01*
X147897557Y-129992996D01*
X147626879Y-129966337D01*
X147538166Y-129957600D01*
X147177034Y-129957600D01*
X147095065Y-129965673D01*
X146817642Y-129992996D01*
X146463469Y-130063444D01*
X146463458Y-130063447D01*
X146117866Y-130168281D01*
X145784223Y-130306481D01*
X145784218Y-130306483D01*
X145465747Y-130476709D01*
X145465729Y-130476720D01*
X145165474Y-130677344D01*
X145165460Y-130677354D01*
X144886302Y-130906454D01*
X144630954Y-131161802D01*
X144401854Y-131440960D01*
X144401844Y-131440974D01*
X144201220Y-131741229D01*
X144201209Y-131741247D01*
X144030983Y-132059718D01*
X144030981Y-132059723D01*
X143892781Y-132393366D01*
X143787947Y-132738958D01*
X143787944Y-132738969D01*
X143717496Y-133093142D01*
X143682100Y-133452537D01*
X126382239Y-133452537D01*
X126367866Y-133361792D01*
X126364013Y-133337464D01*
X126329317Y-133230679D01*
X126302606Y-133148470D01*
X126302605Y-133148467D01*
X126238615Y-133022881D01*
X126212387Y-132971406D01*
X126095581Y-132810636D01*
X125955064Y-132670119D01*
X125794294Y-132553313D01*
X125637818Y-132473584D01*
X125587023Y-132425610D01*
X125570228Y-132357789D01*
X125592765Y-132291654D01*
X125637818Y-132252615D01*
X125794294Y-132172887D01*
X125955064Y-132056081D01*
X126095581Y-131915564D01*
X126212387Y-131754794D01*
X126302605Y-131577732D01*
X126364013Y-131388736D01*
X126395100Y-131192461D01*
X126395100Y-130993739D01*
X126364013Y-130797464D01*
X126302605Y-130608468D01*
X126302605Y-130608467D01*
X126235476Y-130476720D01*
X126212387Y-130431406D01*
X126095581Y-130270636D01*
X125955064Y-130130119D01*
X125794294Y-130013313D01*
X125637818Y-129933584D01*
X125587023Y-129885610D01*
X125570228Y-129817789D01*
X125592765Y-129751654D01*
X125637818Y-129712615D01*
X125794294Y-129632887D01*
X125955064Y-129516081D01*
X126095581Y-129375564D01*
X126212387Y-129214794D01*
X126302605Y-129037732D01*
X126364013Y-128848736D01*
X126395100Y-128652461D01*
X126395100Y-128453739D01*
X126364013Y-128257464D01*
X126302605Y-128068468D01*
X126302605Y-128068467D01*
X126212386Y-127891405D01*
X126126253Y-127772853D01*
X151630800Y-127772853D01*
X151630800Y-127930546D01*
X151661561Y-128085189D01*
X151661564Y-128085201D01*
X151721902Y-128230872D01*
X151721909Y-128230885D01*
X151809510Y-128361988D01*
X151809513Y-128361992D01*
X151921007Y-128473486D01*
X151921011Y-128473489D01*
X152052114Y-128561090D01*
X152052127Y-128561097D01*
X152197798Y-128621435D01*
X152197803Y-128621437D01*
X152352453Y-128652199D01*
X152352456Y-128652200D01*
X152352458Y-128652200D01*
X152510144Y-128652200D01*
X152510145Y-128652199D01*
X152664797Y-128621437D01*
X152810479Y-128561094D01*
X152941589Y-128473489D01*
X153053089Y-128361989D01*
X153140694Y-128230879D01*
X153201037Y-128085197D01*
X153231800Y-127930542D01*
X153231800Y-127772858D01*
X153231800Y-127772855D01*
X153231799Y-127772853D01*
X153201038Y-127618210D01*
X153201037Y-127618203D01*
X153189404Y-127590119D01*
X153140697Y-127472527D01*
X153140690Y-127472514D01*
X153053089Y-127341411D01*
X153053086Y-127341407D01*
X152941592Y-127229913D01*
X152941588Y-127229910D01*
X152810485Y-127142309D01*
X152810472Y-127142302D01*
X152664801Y-127081964D01*
X152664789Y-127081961D01*
X152510145Y-127051200D01*
X152510142Y-127051200D01*
X152352458Y-127051200D01*
X152352455Y-127051200D01*
X152197810Y-127081961D01*
X152197798Y-127081964D01*
X152052127Y-127142302D01*
X152052114Y-127142309D01*
X151921011Y-127229910D01*
X151921007Y-127229913D01*
X151809513Y-127341407D01*
X151809510Y-127341411D01*
X151721909Y-127472514D01*
X151721902Y-127472527D01*
X151661564Y-127618198D01*
X151661561Y-127618210D01*
X151630800Y-127772853D01*
X126126253Y-127772853D01*
X126095581Y-127730636D01*
X125955064Y-127590119D01*
X125794294Y-127473313D01*
X125792726Y-127472514D01*
X125617232Y-127383094D01*
X125617229Y-127383093D01*
X125428237Y-127321687D01*
X125330098Y-127306143D01*
X125231961Y-127290600D01*
X123763239Y-127290600D01*
X123697814Y-127300962D01*
X123566962Y-127321687D01*
X123377970Y-127383093D01*
X123377967Y-127383094D01*
X123200905Y-127473313D01*
X123040133Y-127590121D01*
X122899621Y-127730633D01*
X122782813Y-127891405D01*
X122692594Y-128068467D01*
X122692593Y-128068470D01*
X122631187Y-128257462D01*
X122600100Y-128453739D01*
X121969100Y-128453739D01*
X121969100Y-125574853D01*
X131412700Y-125574853D01*
X131412700Y-125732546D01*
X131443461Y-125887189D01*
X131443464Y-125887201D01*
X131503802Y-126032872D01*
X131503809Y-126032885D01*
X131591410Y-126163988D01*
X131591413Y-126163992D01*
X131702907Y-126275486D01*
X131702911Y-126275489D01*
X131834014Y-126363090D01*
X131834027Y-126363097D01*
X131979698Y-126423435D01*
X131979703Y-126423437D01*
X132134353Y-126454199D01*
X132134356Y-126454200D01*
X132134358Y-126454200D01*
X132292044Y-126454200D01*
X132292045Y-126454199D01*
X132446697Y-126423437D01*
X132592379Y-126363094D01*
X132723489Y-126275489D01*
X132834989Y-126163989D01*
X132922594Y-126032879D01*
X132982937Y-125887197D01*
X133013700Y-125732542D01*
X133013700Y-125574858D01*
X133013700Y-125574855D01*
X133013699Y-125574853D01*
X132982938Y-125420210D01*
X132982937Y-125420203D01*
X132972208Y-125394301D01*
X132922597Y-125274527D01*
X132922590Y-125274514D01*
X132835889Y-125144757D01*
X132834990Y-125143412D01*
X132834986Y-125143407D01*
X132773532Y-125081953D01*
X151401000Y-125081953D01*
X151401000Y-125239646D01*
X151431761Y-125394289D01*
X151431764Y-125394301D01*
X151492102Y-125539972D01*
X151492109Y-125539985D01*
X151579710Y-125671088D01*
X151579713Y-125671092D01*
X151691207Y-125782586D01*
X151691211Y-125782589D01*
X151822314Y-125870190D01*
X151822327Y-125870197D01*
X151967998Y-125930535D01*
X151968003Y-125930537D01*
X152122653Y-125961299D01*
X152122656Y-125961300D01*
X152122658Y-125961300D01*
X152280344Y-125961300D01*
X152280345Y-125961299D01*
X152434997Y-125930537D01*
X152580679Y-125870194D01*
X152711789Y-125782589D01*
X152823289Y-125671089D01*
X152910894Y-125539979D01*
X152971237Y-125394297D01*
X153002000Y-125239642D01*
X153002000Y-125081958D01*
X153002000Y-125081955D01*
X153001999Y-125081953D01*
X152992045Y-125031910D01*
X152971237Y-124927303D01*
X152940543Y-124853200D01*
X152910897Y-124781627D01*
X152910890Y-124781614D01*
X152823289Y-124650511D01*
X152823286Y-124650507D01*
X152711792Y-124539013D01*
X152711788Y-124539010D01*
X152580685Y-124451409D01*
X152580672Y-124451402D01*
X152435001Y-124391064D01*
X152434989Y-124391061D01*
X152280345Y-124360300D01*
X152280342Y-124360300D01*
X152122658Y-124360300D01*
X152122655Y-124360300D01*
X151968010Y-124391061D01*
X151967998Y-124391064D01*
X151822327Y-124451402D01*
X151822314Y-124451409D01*
X151691211Y-124539010D01*
X151691207Y-124539013D01*
X151579713Y-124650507D01*
X151579710Y-124650511D01*
X151492109Y-124781614D01*
X151492102Y-124781627D01*
X151431764Y-124927298D01*
X151431761Y-124927310D01*
X151401000Y-125081953D01*
X132773532Y-125081953D01*
X132723492Y-125031913D01*
X132723488Y-125031910D01*
X132592385Y-124944309D01*
X132592372Y-124944302D01*
X132446701Y-124883964D01*
X132446689Y-124883961D01*
X132292045Y-124853200D01*
X132292042Y-124853200D01*
X132134358Y-124853200D01*
X132134355Y-124853200D01*
X131979710Y-124883961D01*
X131979698Y-124883964D01*
X131834027Y-124944302D01*
X131834014Y-124944309D01*
X131702911Y-125031910D01*
X131702907Y-125031913D01*
X131591413Y-125143407D01*
X131591410Y-125143411D01*
X131503809Y-125274514D01*
X131503802Y-125274527D01*
X131443464Y-125420198D01*
X131443461Y-125420210D01*
X131412700Y-125574853D01*
X121969100Y-125574853D01*
X121969100Y-103053739D01*
X122600100Y-103053739D01*
X122600100Y-103252460D01*
X122631187Y-103448737D01*
X122692593Y-103637729D01*
X122692594Y-103637732D01*
X122782813Y-103814794D01*
X122899619Y-103975564D01*
X123040136Y-104116081D01*
X123200906Y-104232887D01*
X123319432Y-104293279D01*
X123357380Y-104312615D01*
X123408176Y-104360590D01*
X123424971Y-104428411D01*
X123402433Y-104494546D01*
X123357380Y-104533585D01*
X123200905Y-104613313D01*
X123040133Y-104730121D01*
X122899621Y-104870633D01*
X122782813Y-105031405D01*
X122692594Y-105208467D01*
X122692593Y-105208470D01*
X122631187Y-105397462D01*
X122600100Y-105593739D01*
X122600100Y-105792460D01*
X122631187Y-105988737D01*
X122692593Y-106177729D01*
X122692594Y-106177732D01*
X122782813Y-106354794D01*
X122899619Y-106515564D01*
X123040136Y-106656081D01*
X123200906Y-106772887D01*
X123319432Y-106833279D01*
X123357380Y-106852615D01*
X123408176Y-106900590D01*
X123424971Y-106968411D01*
X123402433Y-107034546D01*
X123357380Y-107073585D01*
X123200905Y-107153313D01*
X123040133Y-107270121D01*
X122899621Y-107410633D01*
X122782813Y-107571405D01*
X122692594Y-107748467D01*
X122692593Y-107748470D01*
X122631187Y-107937462D01*
X122600100Y-108133739D01*
X122600100Y-108332460D01*
X122631187Y-108528737D01*
X122692593Y-108717729D01*
X122692594Y-108717732D01*
X122782813Y-108894794D01*
X122899619Y-109055564D01*
X123040136Y-109196081D01*
X123200906Y-109312887D01*
X123319432Y-109373279D01*
X123357380Y-109392615D01*
X123408176Y-109440590D01*
X123424971Y-109508411D01*
X123402433Y-109574546D01*
X123357380Y-109613585D01*
X123200905Y-109693313D01*
X123040133Y-109810121D01*
X122899621Y-109950633D01*
X122782813Y-110111405D01*
X122692594Y-110288467D01*
X122692593Y-110288470D01*
X122631187Y-110477462D01*
X122600100Y-110673739D01*
X122600100Y-110872460D01*
X122631187Y-111068737D01*
X122692593Y-111257729D01*
X122692594Y-111257732D01*
X122782813Y-111434794D01*
X122899619Y-111595564D01*
X123040136Y-111736081D01*
X123200906Y-111852887D01*
X123319432Y-111913279D01*
X123357380Y-111932615D01*
X123408176Y-111980590D01*
X123424971Y-112048411D01*
X123402433Y-112114546D01*
X123357380Y-112153585D01*
X123200905Y-112233313D01*
X123040133Y-112350121D01*
X122899621Y-112490633D01*
X122782813Y-112651405D01*
X122692594Y-112828467D01*
X122692593Y-112828470D01*
X122631187Y-113017462D01*
X122600100Y-113213739D01*
X122600100Y-113412460D01*
X122631187Y-113608737D01*
X122692593Y-113797729D01*
X122692594Y-113797732D01*
X122782813Y-113974794D01*
X122899619Y-114135564D01*
X123040136Y-114276081D01*
X123200906Y-114392887D01*
X123319432Y-114453279D01*
X123357380Y-114472615D01*
X123408176Y-114520590D01*
X123424971Y-114588411D01*
X123402433Y-114654546D01*
X123357380Y-114693585D01*
X123200905Y-114773313D01*
X123040133Y-114890121D01*
X122899621Y-115030633D01*
X122782813Y-115191405D01*
X122692594Y-115368467D01*
X122692593Y-115368470D01*
X122631187Y-115557462D01*
X122600100Y-115753739D01*
X122600100Y-115952460D01*
X122631187Y-116148737D01*
X122692593Y-116337729D01*
X122692594Y-116337732D01*
X122782813Y-116514794D01*
X122899619Y-116675564D01*
X123040136Y-116816081D01*
X123200906Y-116932887D01*
X123319432Y-116993279D01*
X123357380Y-117012615D01*
X123408176Y-117060590D01*
X123424971Y-117128411D01*
X123402433Y-117194546D01*
X123357380Y-117233585D01*
X123200905Y-117313313D01*
X123040133Y-117430121D01*
X122899621Y-117570633D01*
X122782813Y-117731405D01*
X122692594Y-117908467D01*
X122692593Y-117908470D01*
X122631187Y-118097462D01*
X122631187Y-118097464D01*
X122600100Y-118293739D01*
X122600100Y-118492461D01*
X122602785Y-118509411D01*
X122631187Y-118688737D01*
X122692593Y-118877729D01*
X122692594Y-118877732D01*
X122749784Y-118989971D01*
X122782813Y-119054794D01*
X122899619Y-119215564D01*
X123040136Y-119356081D01*
X123200906Y-119472887D01*
X123274474Y-119510372D01*
X123357380Y-119552615D01*
X123408176Y-119600590D01*
X123424971Y-119668411D01*
X123402433Y-119734546D01*
X123357380Y-119773585D01*
X123200905Y-119853313D01*
X123040133Y-119970121D01*
X122899621Y-120110633D01*
X122782813Y-120271405D01*
X122692594Y-120448467D01*
X122692593Y-120448470D01*
X122631187Y-120637462D01*
X122600100Y-120833739D01*
X122600100Y-121032460D01*
X122631187Y-121228737D01*
X122692593Y-121417729D01*
X122692594Y-121417732D01*
X122768946Y-121567579D01*
X122782813Y-121594794D01*
X122899619Y-121755564D01*
X123040136Y-121896081D01*
X123200906Y-122012887D01*
X123287749Y-122057135D01*
X123377967Y-122103105D01*
X123377970Y-122103106D01*
X123472466Y-122133809D01*
X123566964Y-122164513D01*
X123763239Y-122195600D01*
X123763240Y-122195600D01*
X125231960Y-122195600D01*
X125231961Y-122195600D01*
X125428236Y-122164513D01*
X125617232Y-122103105D01*
X125794294Y-122012887D01*
X125955064Y-121896081D01*
X126095581Y-121755564D01*
X126212387Y-121594794D01*
X126302605Y-121417732D01*
X126364013Y-121228736D01*
X126382890Y-121109553D01*
X158436500Y-121109553D01*
X158436500Y-121267246D01*
X158467261Y-121421889D01*
X158467264Y-121421901D01*
X158527602Y-121567572D01*
X158527609Y-121567585D01*
X158615210Y-121698688D01*
X158615213Y-121698692D01*
X158726707Y-121810186D01*
X158726711Y-121810189D01*
X158857814Y-121897790D01*
X158857827Y-121897797D01*
X159003498Y-121958135D01*
X159003503Y-121958137D01*
X159158153Y-121988899D01*
X159158156Y-121988900D01*
X159158158Y-121988900D01*
X159315844Y-121988900D01*
X159315845Y-121988899D01*
X159470497Y-121958137D01*
X159616179Y-121897794D01*
X159747289Y-121810189D01*
X159858789Y-121698689D01*
X159946394Y-121567579D01*
X160006737Y-121421897D01*
X160037500Y-121267242D01*
X160037500Y-121109558D01*
X160037500Y-121109555D01*
X160037499Y-121109553D01*
X160006738Y-120954910D01*
X160006737Y-120954903D01*
X159956550Y-120833739D01*
X159946397Y-120809227D01*
X159946390Y-120809214D01*
X159858789Y-120678111D01*
X159858786Y-120678107D01*
X159747292Y-120566613D01*
X159747288Y-120566610D01*
X159616185Y-120479009D01*
X159616172Y-120479002D01*
X159470501Y-120418664D01*
X159470489Y-120418661D01*
X159315845Y-120387900D01*
X159315842Y-120387900D01*
X159158158Y-120387900D01*
X159158155Y-120387900D01*
X159003510Y-120418661D01*
X159003498Y-120418664D01*
X158857827Y-120479002D01*
X158857814Y-120479009D01*
X158726711Y-120566610D01*
X158726707Y-120566613D01*
X158615213Y-120678107D01*
X158615210Y-120678111D01*
X158527609Y-120809214D01*
X158527602Y-120809227D01*
X158467264Y-120954898D01*
X158467261Y-120954910D01*
X158436500Y-121109553D01*
X126382890Y-121109553D01*
X126395100Y-121032461D01*
X126395100Y-120833739D01*
X126364013Y-120637464D01*
X126333309Y-120542966D01*
X126302606Y-120448470D01*
X126302605Y-120448467D01*
X126212386Y-120271405D01*
X126095581Y-120110636D01*
X125955064Y-119970119D01*
X125794294Y-119853313D01*
X125637818Y-119773584D01*
X125587023Y-119725610D01*
X125570228Y-119657789D01*
X125592765Y-119591654D01*
X125637818Y-119552615D01*
X125794294Y-119472887D01*
X125955064Y-119356081D01*
X126095581Y-119215564D01*
X126212387Y-119054794D01*
X126213631Y-119052353D01*
X157588200Y-119052353D01*
X157588200Y-119210046D01*
X157618961Y-119364689D01*
X157618964Y-119364701D01*
X157679302Y-119510372D01*
X157679309Y-119510385D01*
X157766910Y-119641488D01*
X157766913Y-119641492D01*
X157878407Y-119752986D01*
X157878411Y-119752989D01*
X158009514Y-119840590D01*
X158009527Y-119840597D01*
X158155198Y-119900935D01*
X158155203Y-119900937D01*
X158309853Y-119931699D01*
X158309856Y-119931700D01*
X158309858Y-119931700D01*
X158467544Y-119931700D01*
X158467545Y-119931699D01*
X158622197Y-119900937D01*
X158767879Y-119840594D01*
X158898989Y-119752989D01*
X159010489Y-119641489D01*
X159098094Y-119510379D01*
X159158437Y-119364697D01*
X159189200Y-119210042D01*
X159189200Y-119052358D01*
X159189200Y-119052355D01*
X159189199Y-119052353D01*
X159158438Y-118897710D01*
X159158437Y-118897703D01*
X159150164Y-118877729D01*
X159098097Y-118752027D01*
X159098090Y-118752014D01*
X159010489Y-118620911D01*
X159010486Y-118620907D01*
X158898992Y-118509413D01*
X158898988Y-118509410D01*
X158767885Y-118421809D01*
X158767872Y-118421802D01*
X158622201Y-118361464D01*
X158622189Y-118361461D01*
X158467545Y-118330700D01*
X158467542Y-118330700D01*
X158309858Y-118330700D01*
X158309855Y-118330700D01*
X158155210Y-118361461D01*
X158155198Y-118361464D01*
X158009527Y-118421802D01*
X158009514Y-118421809D01*
X157878411Y-118509410D01*
X157878407Y-118509413D01*
X157766913Y-118620907D01*
X157766910Y-118620911D01*
X157679309Y-118752014D01*
X157679302Y-118752027D01*
X157618964Y-118897698D01*
X157618961Y-118897710D01*
X157588200Y-119052353D01*
X126213631Y-119052353D01*
X126302605Y-118877732D01*
X126364013Y-118688736D01*
X126395100Y-118492461D01*
X126395100Y-118293739D01*
X126364013Y-118097464D01*
X126302605Y-117908468D01*
X126302605Y-117908467D01*
X126212386Y-117731405D01*
X126095581Y-117570636D01*
X125955064Y-117430119D01*
X125794294Y-117313313D01*
X125637818Y-117233584D01*
X125587023Y-117185610D01*
X125570228Y-117117789D01*
X125592765Y-117051654D01*
X125637818Y-117012615D01*
X125794294Y-116932887D01*
X125955064Y-116816081D01*
X126095581Y-116675564D01*
X126212387Y-116514794D01*
X126302605Y-116337732D01*
X126364013Y-116148736D01*
X126395100Y-115952461D01*
X126395100Y-115753739D01*
X126364013Y-115557464D01*
X126302605Y-115368468D01*
X126302605Y-115368467D01*
X126212386Y-115191405D01*
X126095581Y-115030636D01*
X125955064Y-114890119D01*
X125794294Y-114773313D01*
X125637818Y-114693584D01*
X125587023Y-114645610D01*
X125570228Y-114577789D01*
X125592765Y-114511654D01*
X125637818Y-114472615D01*
X125794294Y-114392887D01*
X125955064Y-114276081D01*
X126095581Y-114135564D01*
X126212387Y-113974794D01*
X126302605Y-113797732D01*
X126364013Y-113608736D01*
X126395100Y-113412461D01*
X126395100Y-113213739D01*
X170860100Y-113213739D01*
X170860100Y-113412460D01*
X170891187Y-113608737D01*
X170952593Y-113797729D01*
X170952594Y-113797732D01*
X171042813Y-113974794D01*
X171159619Y-114135564D01*
X171300136Y-114276081D01*
X171460906Y-114392887D01*
X171579432Y-114453279D01*
X171617380Y-114472615D01*
X171668176Y-114520590D01*
X171684971Y-114588411D01*
X171662433Y-114654546D01*
X171617380Y-114693585D01*
X171460905Y-114773313D01*
X171300133Y-114890121D01*
X171159621Y-115030633D01*
X171042813Y-115191405D01*
X170952594Y-115368467D01*
X170952593Y-115368470D01*
X170891187Y-115557462D01*
X170860100Y-115753739D01*
X170860100Y-115952460D01*
X170891187Y-116148737D01*
X170952593Y-116337729D01*
X170952594Y-116337732D01*
X171042813Y-116514794D01*
X171159619Y-116675564D01*
X171300136Y-116816081D01*
X171460906Y-116932887D01*
X171579432Y-116993279D01*
X171617380Y-117012615D01*
X171668176Y-117060590D01*
X171684971Y-117128411D01*
X171662433Y-117194546D01*
X171617380Y-117233585D01*
X171460905Y-117313313D01*
X171300133Y-117430121D01*
X171159621Y-117570633D01*
X171042813Y-117731405D01*
X170952594Y-117908467D01*
X170952593Y-117908470D01*
X170891187Y-118097462D01*
X170891187Y-118097464D01*
X170860100Y-118293739D01*
X170860100Y-118492461D01*
X170862785Y-118509411D01*
X170891187Y-118688737D01*
X170952593Y-118877729D01*
X170952594Y-118877732D01*
X171009784Y-118989971D01*
X171042813Y-119054794D01*
X171159619Y-119215564D01*
X171300136Y-119356081D01*
X171460906Y-119472887D01*
X171534474Y-119510372D01*
X171617380Y-119552615D01*
X171668176Y-119600590D01*
X171684971Y-119668411D01*
X171662433Y-119734546D01*
X171617380Y-119773585D01*
X171460905Y-119853313D01*
X171300133Y-119970121D01*
X171159621Y-120110633D01*
X171042813Y-120271405D01*
X170952594Y-120448467D01*
X170952593Y-120448470D01*
X170891187Y-120637462D01*
X170860100Y-120833739D01*
X170860100Y-121032460D01*
X170891187Y-121228737D01*
X170952593Y-121417729D01*
X170952594Y-121417732D01*
X171028946Y-121567579D01*
X171042813Y-121594794D01*
X171159619Y-121755564D01*
X171300136Y-121896081D01*
X171460906Y-122012887D01*
X171579432Y-122073279D01*
X171617380Y-122092615D01*
X171668176Y-122140590D01*
X171684971Y-122208411D01*
X171662433Y-122274546D01*
X171617380Y-122313585D01*
X171460905Y-122393313D01*
X171300133Y-122510121D01*
X171159621Y-122650633D01*
X171042813Y-122811405D01*
X170952594Y-122988467D01*
X170952593Y-122988470D01*
X170891187Y-123177462D01*
X170860100Y-123373739D01*
X170860100Y-123572460D01*
X170891187Y-123768737D01*
X170952593Y-123957729D01*
X170952594Y-123957732D01*
X171042813Y-124134794D01*
X171159619Y-124295564D01*
X171300136Y-124436081D01*
X171460906Y-124552887D01*
X171547749Y-124597135D01*
X171637967Y-124643105D01*
X171637970Y-124643106D01*
X171732466Y-124673809D01*
X171826964Y-124704513D01*
X172023239Y-124735600D01*
X172023240Y-124735600D01*
X173491960Y-124735600D01*
X173491961Y-124735600D01*
X173688236Y-124704513D01*
X173877232Y-124643105D01*
X174054294Y-124552887D01*
X174215064Y-124436081D01*
X174355581Y-124295564D01*
X174472387Y-124134794D01*
X174562605Y-123957732D01*
X174624013Y-123768736D01*
X174655100Y-123572461D01*
X174655100Y-123373739D01*
X174624013Y-123177464D01*
X174562605Y-122988468D01*
X174562605Y-122988467D01*
X174472386Y-122811405D01*
X174355581Y-122650636D01*
X174215064Y-122510119D01*
X174054294Y-122393313D01*
X173897818Y-122313584D01*
X173847023Y-122265610D01*
X173830228Y-122197789D01*
X173852765Y-122131654D01*
X173897818Y-122092615D01*
X174054294Y-122012887D01*
X174215064Y-121896081D01*
X174355581Y-121755564D01*
X174472387Y-121594794D01*
X174562605Y-121417732D01*
X174624013Y-121228736D01*
X174655100Y-121032461D01*
X174655100Y-120833739D01*
X174624013Y-120637464D01*
X174593309Y-120542966D01*
X174562606Y-120448470D01*
X174562605Y-120448467D01*
X174472386Y-120271405D01*
X174355581Y-120110636D01*
X174215064Y-119970119D01*
X174054294Y-119853313D01*
X173897818Y-119773584D01*
X173847023Y-119725610D01*
X173830228Y-119657789D01*
X173852765Y-119591654D01*
X173897818Y-119552615D01*
X174054294Y-119472887D01*
X174215064Y-119356081D01*
X174355581Y-119215564D01*
X174472387Y-119054794D01*
X174562605Y-118877732D01*
X174624013Y-118688736D01*
X174655100Y-118492461D01*
X174655100Y-118293739D01*
X174624013Y-118097464D01*
X174562605Y-117908468D01*
X174562605Y-117908467D01*
X174472386Y-117731405D01*
X174355581Y-117570636D01*
X174215064Y-117430119D01*
X174054294Y-117313313D01*
X173897818Y-117233584D01*
X173847023Y-117185610D01*
X173830228Y-117117789D01*
X173852765Y-117051654D01*
X173897818Y-117012615D01*
X174054294Y-116932887D01*
X174215064Y-116816081D01*
X174355581Y-116675564D01*
X174472387Y-116514794D01*
X174562605Y-116337732D01*
X174624013Y-116148736D01*
X174655100Y-115952461D01*
X174655100Y-115753739D01*
X174624013Y-115557464D01*
X174562605Y-115368468D01*
X174562605Y-115368467D01*
X174472386Y-115191405D01*
X174355581Y-115030636D01*
X174215064Y-114890119D01*
X174054294Y-114773313D01*
X173897818Y-114693584D01*
X173847023Y-114645610D01*
X173830228Y-114577789D01*
X173852765Y-114511654D01*
X173897818Y-114472615D01*
X174054294Y-114392887D01*
X174215064Y-114276081D01*
X174355581Y-114135564D01*
X174472387Y-113974794D01*
X174562605Y-113797732D01*
X174624013Y-113608736D01*
X174655100Y-113412461D01*
X174655100Y-113213739D01*
X174624013Y-113017464D01*
X174562605Y-112828468D01*
X174562605Y-112828467D01*
X174472386Y-112651405D01*
X174355581Y-112490636D01*
X174215064Y-112350119D01*
X174054294Y-112233313D01*
X173877232Y-112143094D01*
X173877229Y-112143093D01*
X173688237Y-112081687D01*
X173590098Y-112066143D01*
X173491961Y-112050600D01*
X172023239Y-112050600D01*
X171957814Y-112060962D01*
X171826962Y-112081687D01*
X171637970Y-112143093D01*
X171637967Y-112143094D01*
X171460905Y-112233313D01*
X171300133Y-112350121D01*
X171159621Y-112490633D01*
X171042813Y-112651405D01*
X170952594Y-112828467D01*
X170952593Y-112828470D01*
X170891187Y-113017462D01*
X170860100Y-113213739D01*
X126395100Y-113213739D01*
X126364013Y-113017464D01*
X126302605Y-112828468D01*
X126302605Y-112828467D01*
X126212386Y-112651405D01*
X126095581Y-112490636D01*
X125955064Y-112350119D01*
X125794294Y-112233313D01*
X125637818Y-112153584D01*
X125587023Y-112105610D01*
X125570228Y-112037789D01*
X125592765Y-111971654D01*
X125637818Y-111932615D01*
X125794294Y-111852887D01*
X125955064Y-111736081D01*
X126095581Y-111595564D01*
X126212387Y-111434794D01*
X126302605Y-111257732D01*
X126364013Y-111068736D01*
X126395100Y-110872461D01*
X126395100Y-110673739D01*
X126364013Y-110477464D01*
X126302605Y-110288468D01*
X126302605Y-110288467D01*
X126212386Y-110111405D01*
X126095581Y-109950636D01*
X125955064Y-109810119D01*
X125794294Y-109693313D01*
X125637818Y-109613584D01*
X125587023Y-109565610D01*
X125570228Y-109497789D01*
X125592765Y-109431654D01*
X125637818Y-109392615D01*
X125794294Y-109312887D01*
X125955064Y-109196081D01*
X126095581Y-109055564D01*
X126212387Y-108894794D01*
X126302605Y-108717732D01*
X126364013Y-108528736D01*
X126395100Y-108332461D01*
X126395100Y-108133739D01*
X126364013Y-107937464D01*
X126302605Y-107748468D01*
X126302605Y-107748467D01*
X126212386Y-107571405D01*
X126095581Y-107410636D01*
X125955064Y-107270119D01*
X125794294Y-107153313D01*
X125637818Y-107073584D01*
X125587023Y-107025610D01*
X125570228Y-106957789D01*
X125592765Y-106891654D01*
X125637818Y-106852615D01*
X125794294Y-106772887D01*
X125955064Y-106656081D01*
X126095581Y-106515564D01*
X126212387Y-106354794D01*
X126302605Y-106177732D01*
X126364013Y-105988736D01*
X126395100Y-105792461D01*
X126395100Y-105593739D01*
X170860100Y-105593739D01*
X170860100Y-105792460D01*
X170891187Y-105988737D01*
X170952593Y-106177729D01*
X170952594Y-106177732D01*
X171042813Y-106354794D01*
X171159619Y-106515564D01*
X171300136Y-106656081D01*
X171460906Y-106772887D01*
X171547749Y-106817135D01*
X171637967Y-106863105D01*
X171637970Y-106863106D01*
X171732466Y-106893809D01*
X171826964Y-106924513D01*
X172023239Y-106955600D01*
X172023240Y-106955600D01*
X173491960Y-106955600D01*
X173491961Y-106955600D01*
X173688236Y-106924513D01*
X173877232Y-106863105D01*
X174054294Y-106772887D01*
X174215064Y-106656081D01*
X174355581Y-106515564D01*
X174472387Y-106354794D01*
X174562605Y-106177732D01*
X174624013Y-105988736D01*
X174655100Y-105792461D01*
X174655100Y-105593739D01*
X174624013Y-105397464D01*
X174562605Y-105208468D01*
X174562605Y-105208467D01*
X174472386Y-105031405D01*
X174355581Y-104870636D01*
X174215064Y-104730119D01*
X174054294Y-104613313D01*
X173877232Y-104523094D01*
X173877229Y-104523093D01*
X173688237Y-104461687D01*
X173590098Y-104446143D01*
X173491961Y-104430600D01*
X172023239Y-104430600D01*
X171957814Y-104440962D01*
X171826962Y-104461687D01*
X171637970Y-104523093D01*
X171637967Y-104523094D01*
X171460905Y-104613313D01*
X171300133Y-104730121D01*
X171159621Y-104870633D01*
X171042813Y-105031405D01*
X170952594Y-105208467D01*
X170952593Y-105208470D01*
X170891187Y-105397462D01*
X170860100Y-105593739D01*
X126395100Y-105593739D01*
X126364013Y-105397464D01*
X126302605Y-105208468D01*
X126302605Y-105208467D01*
X126212386Y-105031405D01*
X126095581Y-104870636D01*
X125955064Y-104730119D01*
X125794294Y-104613313D01*
X125637818Y-104533584D01*
X125587023Y-104485610D01*
X125570228Y-104417789D01*
X125592765Y-104351654D01*
X125637818Y-104312615D01*
X125794294Y-104232887D01*
X125955064Y-104116081D01*
X126095581Y-103975564D01*
X126212387Y-103814794D01*
X126302605Y-103637732D01*
X126364013Y-103448736D01*
X126395100Y-103252461D01*
X126395100Y-103053739D01*
X126364013Y-102857464D01*
X126302605Y-102668468D01*
X126302605Y-102668467D01*
X126212386Y-102491405D01*
X126095581Y-102330636D01*
X125955064Y-102190119D01*
X125794294Y-102073313D01*
X125617232Y-101983094D01*
X125617229Y-101983093D01*
X125428237Y-101921687D01*
X125330098Y-101906143D01*
X125231961Y-101890600D01*
X123763239Y-101890600D01*
X123697814Y-101900962D01*
X123566962Y-101921687D01*
X123377970Y-101983093D01*
X123377967Y-101983094D01*
X123200905Y-102073313D01*
X123040133Y-102190121D01*
X122899621Y-102330633D01*
X122782813Y-102491405D01*
X122692594Y-102668467D01*
X122692593Y-102668470D01*
X122631187Y-102857462D01*
X122600100Y-103053739D01*
X121969100Y-103053739D01*
X121969100Y-97973739D01*
X122600100Y-97973739D01*
X122600100Y-98172460D01*
X122631187Y-98368737D01*
X122692593Y-98557729D01*
X122692594Y-98557732D01*
X122747458Y-98665407D01*
X122782813Y-98734794D01*
X122899619Y-98895564D01*
X123040136Y-99036081D01*
X123200906Y-99152887D01*
X123287749Y-99197135D01*
X123377967Y-99243105D01*
X123377970Y-99243106D01*
X123472466Y-99273809D01*
X123566964Y-99304513D01*
X123763239Y-99335600D01*
X123763240Y-99335600D01*
X125231960Y-99335600D01*
X125231961Y-99335600D01*
X125339640Y-99318545D01*
X125408931Y-99327499D01*
X125462383Y-99372495D01*
X125477696Y-99405019D01*
X125478965Y-99409203D01*
X125539302Y-99554872D01*
X125539309Y-99554885D01*
X125626910Y-99685988D01*
X125626913Y-99685992D01*
X125738407Y-99797486D01*
X125738411Y-99797489D01*
X125869514Y-99885090D01*
X125869527Y-99885097D01*
X126015198Y-99945435D01*
X126015203Y-99945437D01*
X126169853Y-99976199D01*
X126169856Y-99976200D01*
X126169858Y-99976200D01*
X126327544Y-99976200D01*
X126327545Y-99976199D01*
X126482197Y-99945437D01*
X126627879Y-99885094D01*
X126758989Y-99797489D01*
X126870489Y-99685989D01*
X126958094Y-99554879D01*
X127018437Y-99409197D01*
X127049200Y-99254542D01*
X127049200Y-99096858D01*
X127049200Y-99096855D01*
X127049199Y-99096853D01*
X127018437Y-98942203D01*
X127018435Y-98942198D01*
X126958097Y-98796527D01*
X126958090Y-98796514D01*
X126870489Y-98665411D01*
X126870486Y-98665407D01*
X126758992Y-98553913D01*
X126758988Y-98553910D01*
X126627885Y-98466309D01*
X126627872Y-98466302D01*
X126482201Y-98405964D01*
X126482190Y-98405961D01*
X126478832Y-98405293D01*
X126477236Y-98404458D01*
X126476365Y-98404194D01*
X126476415Y-98404028D01*
X126416923Y-98372904D01*
X126382352Y-98312187D01*
X126380557Y-98264279D01*
X126395100Y-98172459D01*
X126395100Y-97973739D01*
X170860100Y-97973739D01*
X170860100Y-98172460D01*
X170891187Y-98368737D01*
X170952593Y-98557729D01*
X170952594Y-98557732D01*
X171007458Y-98665407D01*
X171042813Y-98734794D01*
X171159619Y-98895564D01*
X171300136Y-99036081D01*
X171460906Y-99152887D01*
X171579432Y-99213279D01*
X171617380Y-99232615D01*
X171668176Y-99280590D01*
X171684971Y-99348411D01*
X171662433Y-99414546D01*
X171617380Y-99453585D01*
X171460905Y-99533313D01*
X171300133Y-99650121D01*
X171159621Y-99790633D01*
X171042813Y-99951405D01*
X170952594Y-100128467D01*
X170952593Y-100128470D01*
X170891187Y-100317462D01*
X170860100Y-100513739D01*
X170860100Y-100712460D01*
X170891187Y-100908737D01*
X170952593Y-101097729D01*
X170952594Y-101097732D01*
X171042813Y-101274794D01*
X171159619Y-101435564D01*
X171300136Y-101576081D01*
X171460906Y-101692887D01*
X171547749Y-101737135D01*
X171637967Y-101783105D01*
X171637970Y-101783106D01*
X171732466Y-101813809D01*
X171826964Y-101844513D01*
X172023239Y-101875600D01*
X172023240Y-101875600D01*
X173491960Y-101875600D01*
X173491961Y-101875600D01*
X173688236Y-101844513D01*
X173877232Y-101783105D01*
X174054294Y-101692887D01*
X174215064Y-101576081D01*
X174355581Y-101435564D01*
X174472387Y-101274794D01*
X174562605Y-101097732D01*
X174624013Y-100908736D01*
X174655100Y-100712461D01*
X174655100Y-100513739D01*
X174624013Y-100317464D01*
X174562605Y-100128468D01*
X174562605Y-100128467D01*
X174485020Y-99976200D01*
X174472387Y-99951406D01*
X174355581Y-99790636D01*
X174215064Y-99650119D01*
X174054294Y-99533313D01*
X173897818Y-99453584D01*
X173847023Y-99405610D01*
X173830228Y-99337789D01*
X173852765Y-99271654D01*
X173897818Y-99232615D01*
X174054294Y-99152887D01*
X174215064Y-99036081D01*
X174355581Y-98895564D01*
X174472387Y-98734794D01*
X174562605Y-98557732D01*
X174624013Y-98368736D01*
X174655100Y-98172461D01*
X174655100Y-97973739D01*
X174624013Y-97777464D01*
X174562605Y-97588468D01*
X174562605Y-97588467D01*
X174472386Y-97411405D01*
X174355581Y-97250636D01*
X174215064Y-97110119D01*
X174054294Y-96993313D01*
X173877232Y-96903094D01*
X173877229Y-96903093D01*
X173688237Y-96841687D01*
X173590098Y-96826143D01*
X173491961Y-96810600D01*
X172023239Y-96810600D01*
X171957814Y-96820962D01*
X171826962Y-96841687D01*
X171637970Y-96903093D01*
X171637967Y-96903094D01*
X171460905Y-96993313D01*
X171300133Y-97110121D01*
X171159621Y-97250633D01*
X171042813Y-97411405D01*
X170952594Y-97588467D01*
X170952593Y-97588470D01*
X170891187Y-97777462D01*
X170860100Y-97973739D01*
X126395100Y-97973739D01*
X126364013Y-97777464D01*
X126302605Y-97588468D01*
X126302605Y-97588467D01*
X126212386Y-97411405D01*
X126095581Y-97250636D01*
X125955064Y-97110119D01*
X125794294Y-96993313D01*
X125617232Y-96903094D01*
X125617229Y-96903093D01*
X125428237Y-96841687D01*
X125330098Y-96826143D01*
X125231961Y-96810600D01*
X123763239Y-96810600D01*
X123697814Y-96820962D01*
X123566962Y-96841687D01*
X123377970Y-96903093D01*
X123377967Y-96903094D01*
X123200905Y-96993313D01*
X123040133Y-97110121D01*
X122899621Y-97250633D01*
X122782813Y-97411405D01*
X122692594Y-97588467D01*
X122692593Y-97588470D01*
X122631187Y-97777462D01*
X122600100Y-97973739D01*
X121969100Y-97973739D01*
X121969100Y-92893739D01*
X122600100Y-92893739D01*
X122600100Y-93092460D01*
X122631187Y-93288737D01*
X122692593Y-93477729D01*
X122692594Y-93477732D01*
X122782813Y-93654794D01*
X122899619Y-93815564D01*
X123040136Y-93956081D01*
X123200906Y-94072887D01*
X123287749Y-94117135D01*
X123377967Y-94163105D01*
X123377970Y-94163106D01*
X123472466Y-94193809D01*
X123566964Y-94224513D01*
X123763239Y-94255600D01*
X123763240Y-94255600D01*
X125231960Y-94255600D01*
X125231961Y-94255600D01*
X125428236Y-94224513D01*
X125617232Y-94163105D01*
X125794294Y-94072887D01*
X125955064Y-93956081D01*
X126095581Y-93815564D01*
X126212387Y-93654794D01*
X126302605Y-93477732D01*
X126364013Y-93288736D01*
X126395100Y-93092461D01*
X126395100Y-92893739D01*
X126364013Y-92697464D01*
X126302605Y-92508468D01*
X126302605Y-92508467D01*
X126212386Y-92331405D01*
X126095581Y-92170636D01*
X125955064Y-92030119D01*
X125794294Y-91913313D01*
X125617232Y-91823094D01*
X125617229Y-91823093D01*
X125428237Y-91761687D01*
X125330098Y-91746143D01*
X125231961Y-91730600D01*
X123763239Y-91730600D01*
X123697814Y-91740962D01*
X123566962Y-91761687D01*
X123377970Y-91823093D01*
X123377967Y-91823094D01*
X123200905Y-91913313D01*
X123040133Y-92030121D01*
X122899621Y-92170633D01*
X122782813Y-92331405D01*
X122692594Y-92508467D01*
X122692593Y-92508470D01*
X122631187Y-92697462D01*
X122600100Y-92893739D01*
X121969100Y-92893739D01*
X121969100Y-90353739D01*
X170860100Y-90353739D01*
X170860100Y-90552460D01*
X170891187Y-90748737D01*
X170952593Y-90937729D01*
X170952594Y-90937732D01*
X171042813Y-91114794D01*
X171159619Y-91275564D01*
X171300136Y-91416081D01*
X171460906Y-91532887D01*
X171579432Y-91593279D01*
X171617380Y-91612615D01*
X171668176Y-91660590D01*
X171684971Y-91728411D01*
X171662433Y-91794546D01*
X171617380Y-91833585D01*
X171460905Y-91913313D01*
X171300133Y-92030121D01*
X171159621Y-92170633D01*
X171042813Y-92331405D01*
X170952594Y-92508467D01*
X170952593Y-92508470D01*
X170891187Y-92697462D01*
X170860100Y-92893739D01*
X170860100Y-93092460D01*
X170891187Y-93288737D01*
X170952593Y-93477729D01*
X170952594Y-93477732D01*
X171042813Y-93654794D01*
X171159619Y-93815564D01*
X171300136Y-93956081D01*
X171460906Y-94072887D01*
X171547749Y-94117135D01*
X171637967Y-94163105D01*
X171637970Y-94163106D01*
X171732466Y-94193809D01*
X171826964Y-94224513D01*
X172023239Y-94255600D01*
X172023240Y-94255600D01*
X173491960Y-94255600D01*
X173491961Y-94255600D01*
X173688236Y-94224513D01*
X173877232Y-94163105D01*
X174054294Y-94072887D01*
X174215064Y-93956081D01*
X174355581Y-93815564D01*
X174472387Y-93654794D01*
X174562605Y-93477732D01*
X174624013Y-93288736D01*
X174655100Y-93092461D01*
X174655100Y-92893739D01*
X174624013Y-92697464D01*
X174562605Y-92508468D01*
X174562605Y-92508467D01*
X174472386Y-92331405D01*
X174355581Y-92170636D01*
X174215064Y-92030119D01*
X174054294Y-91913313D01*
X173897818Y-91833584D01*
X173847023Y-91785610D01*
X173830228Y-91717789D01*
X173852765Y-91651654D01*
X173897818Y-91612615D01*
X174054294Y-91532887D01*
X174215064Y-91416081D01*
X174355581Y-91275564D01*
X174472387Y-91114794D01*
X174562605Y-90937732D01*
X174624013Y-90748736D01*
X174655100Y-90552461D01*
X174655100Y-90353739D01*
X174624013Y-90157464D01*
X174562605Y-89968468D01*
X174562605Y-89968467D01*
X174472386Y-89791405D01*
X174355581Y-89630636D01*
X174215064Y-89490119D01*
X174054294Y-89373313D01*
X173877232Y-89283094D01*
X173877229Y-89283093D01*
X173688237Y-89221687D01*
X173590098Y-89206143D01*
X173491961Y-89190600D01*
X172023239Y-89190600D01*
X171957814Y-89200962D01*
X171826962Y-89221687D01*
X171637970Y-89283093D01*
X171637967Y-89283094D01*
X171460905Y-89373313D01*
X171300133Y-89490121D01*
X171159621Y-89630633D01*
X171042813Y-89791405D01*
X170952594Y-89968467D01*
X170952593Y-89968470D01*
X170891187Y-90157462D01*
X170860100Y-90353739D01*
X121969100Y-90353739D01*
X121969100Y-87103235D01*
X122600100Y-87103235D01*
X122600100Y-88722970D01*
X122600101Y-88722976D01*
X122606508Y-88782583D01*
X122656802Y-88917428D01*
X122656806Y-88917435D01*
X122743052Y-89032644D01*
X122743055Y-89032647D01*
X122858264Y-89118893D01*
X122858271Y-89118897D01*
X122993117Y-89169191D01*
X122993116Y-89169191D01*
X123000044Y-89169935D01*
X123052727Y-89175600D01*
X125942472Y-89175599D01*
X126002083Y-89169191D01*
X126136931Y-89118896D01*
X126252146Y-89032646D01*
X126338396Y-88917431D01*
X126388691Y-88782583D01*
X126395100Y-88722973D01*
X126395099Y-87103228D01*
X126388691Y-87043617D01*
X126356439Y-86957146D01*
X126338397Y-86908771D01*
X126338395Y-86908768D01*
X126307635Y-86867678D01*
X126256562Y-86799453D01*
X156668100Y-86799453D01*
X156668100Y-86957146D01*
X156698861Y-87111789D01*
X156698864Y-87111801D01*
X156759202Y-87257472D01*
X156759209Y-87257485D01*
X156846810Y-87388588D01*
X156846813Y-87388592D01*
X156958307Y-87500086D01*
X156958311Y-87500089D01*
X157089414Y-87587690D01*
X157089427Y-87587697D01*
X157235098Y-87648035D01*
X157235103Y-87648037D01*
X157389753Y-87678799D01*
X157389756Y-87678800D01*
X157389758Y-87678800D01*
X157547444Y-87678800D01*
X157547445Y-87678799D01*
X157702097Y-87648037D01*
X157847779Y-87587694D01*
X157978889Y-87500089D01*
X158090389Y-87388589D01*
X158177994Y-87257479D01*
X158238337Y-87111797D01*
X158269100Y-86957142D01*
X158269100Y-86799458D01*
X158269100Y-86799455D01*
X158269099Y-86799453D01*
X158267925Y-86793552D01*
X158238337Y-86644803D01*
X158238335Y-86644798D01*
X158177997Y-86499127D01*
X158177990Y-86499114D01*
X158090389Y-86368011D01*
X158090386Y-86368007D01*
X157978892Y-86256513D01*
X157978888Y-86256510D01*
X157847785Y-86168909D01*
X157847772Y-86168902D01*
X157702101Y-86108564D01*
X157702089Y-86108561D01*
X157547445Y-86077800D01*
X157547442Y-86077800D01*
X157389758Y-86077800D01*
X157389755Y-86077800D01*
X157235110Y-86108561D01*
X157235098Y-86108564D01*
X157089427Y-86168902D01*
X157089414Y-86168909D01*
X156958311Y-86256510D01*
X156958307Y-86256513D01*
X156846813Y-86368007D01*
X156846810Y-86368011D01*
X156759209Y-86499114D01*
X156759202Y-86499127D01*
X156698864Y-86644798D01*
X156698861Y-86644810D01*
X156668100Y-86799453D01*
X126256562Y-86799453D01*
X126252146Y-86793554D01*
X126229309Y-86776458D01*
X126136935Y-86707306D01*
X126136928Y-86707302D01*
X126002082Y-86657008D01*
X126002083Y-86657008D01*
X125942483Y-86650601D01*
X125942481Y-86650600D01*
X125942473Y-86650600D01*
X125942464Y-86650600D01*
X123052729Y-86650600D01*
X123052723Y-86650601D01*
X122993116Y-86657008D01*
X122858271Y-86707302D01*
X122858264Y-86707306D01*
X122743055Y-86793552D01*
X122743052Y-86793555D01*
X122656806Y-86908764D01*
X122656802Y-86908771D01*
X122606508Y-87043617D01*
X122600101Y-87103216D01*
X122600101Y-87103223D01*
X122600100Y-87103235D01*
X121969100Y-87103235D01*
X121969100Y-80958053D01*
X143668100Y-80958053D01*
X143668100Y-81115746D01*
X143698861Y-81270389D01*
X143698864Y-81270401D01*
X143759202Y-81416072D01*
X143759209Y-81416085D01*
X143846810Y-81547188D01*
X143846813Y-81547192D01*
X143958307Y-81658686D01*
X143958311Y-81658689D01*
X144089414Y-81746290D01*
X144089427Y-81746297D01*
X144235098Y-81806635D01*
X144235103Y-81806637D01*
X144389753Y-81837399D01*
X144389756Y-81837400D01*
X144389758Y-81837400D01*
X144547444Y-81837400D01*
X144547445Y-81837399D01*
X144702097Y-81806637D01*
X144847779Y-81746294D01*
X144978889Y-81658689D01*
X145090389Y-81547189D01*
X145177994Y-81416079D01*
X145238337Y-81270397D01*
X145269100Y-81115742D01*
X145269100Y-80958058D01*
X145269100Y-80958055D01*
X145269099Y-80958053D01*
X145238338Y-80803410D01*
X145238337Y-80803403D01*
X145238335Y-80803398D01*
X145177997Y-80657727D01*
X145177990Y-80657714D01*
X145090389Y-80526611D01*
X145090386Y-80526607D01*
X144978892Y-80415113D01*
X144978888Y-80415110D01*
X144847785Y-80327509D01*
X144847772Y-80327502D01*
X144702101Y-80267164D01*
X144702089Y-80267161D01*
X144547445Y-80236400D01*
X144547442Y-80236400D01*
X144389758Y-80236400D01*
X144389755Y-80236400D01*
X144235110Y-80267161D01*
X144235098Y-80267164D01*
X144089427Y-80327502D01*
X144089414Y-80327509D01*
X143958311Y-80415110D01*
X143958307Y-80415113D01*
X143846813Y-80526607D01*
X143846810Y-80526611D01*
X143759209Y-80657714D01*
X143759202Y-80657727D01*
X143698864Y-80803398D01*
X143698861Y-80803410D01*
X143668100Y-80958053D01*
X121969100Y-80958053D01*
X121969100Y-78145174D01*
X130864100Y-78145174D01*
X130864100Y-78319025D01*
X130891297Y-78490739D01*
X130891297Y-78490742D01*
X130945018Y-78656078D01*
X131023947Y-78810984D01*
X131126135Y-78951633D01*
X131249067Y-79074565D01*
X131389716Y-79176753D01*
X131544619Y-79255680D01*
X131544621Y-79255681D01*
X131709958Y-79309402D01*
X131709959Y-79309402D01*
X131709962Y-79309403D01*
X131881674Y-79336600D01*
X131881675Y-79336600D01*
X132055525Y-79336600D01*
X132055526Y-79336600D01*
X132227238Y-79309403D01*
X132227241Y-79309402D01*
X132227242Y-79309402D01*
X132392578Y-79255681D01*
X132392578Y-79255680D01*
X132392581Y-79255680D01*
X132547484Y-79176753D01*
X132688133Y-79074565D01*
X132811065Y-78951633D01*
X132868283Y-78872878D01*
X132923612Y-78830215D01*
X132993225Y-78824236D01*
X133055020Y-78856842D01*
X133068913Y-78872875D01*
X133126135Y-78951633D01*
X133249067Y-79074565D01*
X133389716Y-79176753D01*
X133544619Y-79255680D01*
X133544621Y-79255681D01*
X133709958Y-79309402D01*
X133709959Y-79309402D01*
X133709962Y-79309403D01*
X133881674Y-79336600D01*
X133881675Y-79336600D01*
X134055525Y-79336600D01*
X134055526Y-79336600D01*
X134227238Y-79309403D01*
X134227241Y-79309402D01*
X134227242Y-79309402D01*
X134392578Y-79255681D01*
X134392578Y-79255680D01*
X134392581Y-79255680D01*
X134547484Y-79176753D01*
X134688133Y-79074565D01*
X134811065Y-78951633D01*
X134868283Y-78872878D01*
X134923612Y-78830215D01*
X134993225Y-78824236D01*
X135055020Y-78856842D01*
X135068913Y-78872875D01*
X135126135Y-78951633D01*
X135249067Y-79074565D01*
X135389716Y-79176753D01*
X135544619Y-79255680D01*
X135544621Y-79255681D01*
X135709958Y-79309402D01*
X135709959Y-79309402D01*
X135709962Y-79309403D01*
X135881674Y-79336600D01*
X135881675Y-79336600D01*
X136055525Y-79336600D01*
X136055526Y-79336600D01*
X136227238Y-79309403D01*
X136227241Y-79309402D01*
X136227242Y-79309402D01*
X136392578Y-79255681D01*
X136392578Y-79255680D01*
X136392581Y-79255680D01*
X136547484Y-79176753D01*
X136688133Y-79074565D01*
X136811065Y-78951633D01*
X136868283Y-78872878D01*
X136923612Y-78830215D01*
X136993225Y-78824236D01*
X137055020Y-78856842D01*
X137068913Y-78872875D01*
X137126135Y-78951633D01*
X137249067Y-79074565D01*
X137389716Y-79176753D01*
X137544619Y-79255680D01*
X137544621Y-79255681D01*
X137709958Y-79309402D01*
X137709959Y-79309402D01*
X137709962Y-79309403D01*
X137881674Y-79336600D01*
X137881675Y-79336600D01*
X138055525Y-79336600D01*
X138055526Y-79336600D01*
X138227238Y-79309403D01*
X138227241Y-79309402D01*
X138227242Y-79309402D01*
X138392578Y-79255681D01*
X138392578Y-79255680D01*
X138392581Y-79255680D01*
X138547484Y-79176753D01*
X138688133Y-79074565D01*
X138811065Y-78951633D01*
X138868283Y-78872878D01*
X138923612Y-78830215D01*
X138993225Y-78824236D01*
X139055020Y-78856842D01*
X139068913Y-78872875D01*
X139126135Y-78951633D01*
X139249067Y-79074565D01*
X139389716Y-79176753D01*
X139544619Y-79255680D01*
X139544621Y-79255681D01*
X139709958Y-79309402D01*
X139709959Y-79309402D01*
X139709962Y-79309403D01*
X139881674Y-79336600D01*
X139881675Y-79336600D01*
X140055525Y-79336600D01*
X140055526Y-79336600D01*
X140227238Y-79309403D01*
X140227241Y-79309402D01*
X140227242Y-79309402D01*
X140392578Y-79255681D01*
X140392578Y-79255680D01*
X140392581Y-79255680D01*
X140547484Y-79176753D01*
X140688133Y-79074565D01*
X140811065Y-78951633D01*
X140913253Y-78810984D01*
X140992180Y-78656081D01*
X141045903Y-78490738D01*
X141073100Y-78319026D01*
X141073100Y-78145174D01*
X142864100Y-78145174D01*
X142864100Y-78319025D01*
X142891297Y-78490739D01*
X142891297Y-78490742D01*
X142945018Y-78656078D01*
X143023947Y-78810984D01*
X143126135Y-78951633D01*
X143249067Y-79074565D01*
X143389716Y-79176753D01*
X143544619Y-79255680D01*
X143544621Y-79255681D01*
X143709958Y-79309402D01*
X143709959Y-79309402D01*
X143709962Y-79309403D01*
X143881674Y-79336600D01*
X143881675Y-79336600D01*
X144055525Y-79336600D01*
X144055526Y-79336600D01*
X144227238Y-79309403D01*
X144227241Y-79309402D01*
X144227242Y-79309402D01*
X144392578Y-79255681D01*
X144392578Y-79255680D01*
X144392581Y-79255680D01*
X144547484Y-79176753D01*
X144688133Y-79074565D01*
X144811065Y-78951633D01*
X144868283Y-78872878D01*
X144923612Y-78830215D01*
X144993225Y-78824236D01*
X145055020Y-78856842D01*
X145068913Y-78872875D01*
X145126135Y-78951633D01*
X145249067Y-79074565D01*
X145389716Y-79176753D01*
X145544619Y-79255680D01*
X145544621Y-79255681D01*
X145709958Y-79309402D01*
X145709959Y-79309402D01*
X145709962Y-79309403D01*
X145881674Y-79336600D01*
X145881675Y-79336600D01*
X146055525Y-79336600D01*
X146055526Y-79336600D01*
X146227238Y-79309403D01*
X146227241Y-79309402D01*
X146227242Y-79309402D01*
X146392578Y-79255681D01*
X146392578Y-79255680D01*
X146392581Y-79255680D01*
X146547484Y-79176753D01*
X146688133Y-79074565D01*
X146811065Y-78951633D01*
X146868283Y-78872878D01*
X146923612Y-78830215D01*
X146993225Y-78824236D01*
X147055020Y-78856842D01*
X147068913Y-78872875D01*
X147126135Y-78951633D01*
X147249067Y-79074565D01*
X147389716Y-79176753D01*
X147544619Y-79255680D01*
X147544621Y-79255681D01*
X147709958Y-79309402D01*
X147709959Y-79309402D01*
X147709962Y-79309403D01*
X147881674Y-79336600D01*
X147881675Y-79336600D01*
X148055525Y-79336600D01*
X148055526Y-79336600D01*
X148227238Y-79309403D01*
X148227241Y-79309402D01*
X148227242Y-79309402D01*
X148392578Y-79255681D01*
X148392578Y-79255680D01*
X148392581Y-79255680D01*
X148547484Y-79176753D01*
X148688133Y-79074565D01*
X148811065Y-78951633D01*
X148868283Y-78872878D01*
X148923612Y-78830215D01*
X148993225Y-78824236D01*
X149055020Y-78856842D01*
X149068913Y-78872875D01*
X149126135Y-78951633D01*
X149249067Y-79074565D01*
X149389716Y-79176753D01*
X149544619Y-79255680D01*
X149544621Y-79255681D01*
X149709958Y-79309402D01*
X149709959Y-79309402D01*
X149709962Y-79309403D01*
X149881674Y-79336600D01*
X149881675Y-79336600D01*
X150055525Y-79336600D01*
X150055526Y-79336600D01*
X150227238Y-79309403D01*
X150227241Y-79309402D01*
X150227242Y-79309402D01*
X150392578Y-79255681D01*
X150392578Y-79255680D01*
X150392581Y-79255680D01*
X150547484Y-79176753D01*
X150688133Y-79074565D01*
X150811065Y-78951633D01*
X150868283Y-78872878D01*
X150923612Y-78830215D01*
X150993225Y-78824236D01*
X151055020Y-78856842D01*
X151068913Y-78872875D01*
X151126135Y-78951633D01*
X151249067Y-79074565D01*
X151389716Y-79176753D01*
X151544619Y-79255680D01*
X151544621Y-79255681D01*
X151709958Y-79309402D01*
X151709959Y-79309402D01*
X151709962Y-79309403D01*
X151881674Y-79336600D01*
X151881675Y-79336600D01*
X152055525Y-79336600D01*
X152055526Y-79336600D01*
X152227238Y-79309403D01*
X152227241Y-79309402D01*
X152227242Y-79309402D01*
X152392578Y-79255681D01*
X152392578Y-79255680D01*
X152392581Y-79255680D01*
X152547484Y-79176753D01*
X152688133Y-79074565D01*
X152811065Y-78951633D01*
X152913253Y-78810984D01*
X152992180Y-78656081D01*
X153045903Y-78490738D01*
X153073100Y-78319026D01*
X153073100Y-78145174D01*
X153045903Y-77973462D01*
X153045902Y-77973458D01*
X153045902Y-77973457D01*
X152992181Y-77808121D01*
X152913252Y-77653215D01*
X152903624Y-77639963D01*
X152811065Y-77512567D01*
X152688133Y-77389635D01*
X152547484Y-77287447D01*
X152485138Y-77255680D01*
X152392578Y-77208518D01*
X152227241Y-77154797D01*
X152098454Y-77134399D01*
X152055526Y-77127600D01*
X151926581Y-77127600D01*
X151859542Y-77107915D01*
X151813787Y-77055111D01*
X151803843Y-76985953D01*
X151826262Y-76930715D01*
X151913253Y-76810984D01*
X151992180Y-76656081D01*
X152045903Y-76490738D01*
X152073100Y-76319026D01*
X152073100Y-76145174D01*
X153864100Y-76145174D01*
X153864100Y-76319025D01*
X153891297Y-76490739D01*
X153891297Y-76490742D01*
X153945018Y-76656078D01*
X154023947Y-76810984D01*
X154126135Y-76951633D01*
X154249067Y-77074565D01*
X154389716Y-77176753D01*
X154544619Y-77255680D01*
X154544621Y-77255681D01*
X154709958Y-77309402D01*
X154709959Y-77309402D01*
X154709962Y-77309403D01*
X154881674Y-77336600D01*
X154881675Y-77336600D01*
X155010619Y-77336600D01*
X155077658Y-77356285D01*
X155123413Y-77409089D01*
X155133357Y-77478247D01*
X155110937Y-77533484D01*
X155070866Y-77588636D01*
X155023947Y-77653215D01*
X154945018Y-77808121D01*
X154891297Y-77973457D01*
X154891297Y-77973460D01*
X154864100Y-78145174D01*
X154864100Y-78319025D01*
X154891297Y-78490739D01*
X154891297Y-78490742D01*
X154945018Y-78656078D01*
X155023947Y-78810984D01*
X155126135Y-78951633D01*
X155249067Y-79074565D01*
X155389716Y-79176753D01*
X155544619Y-79255680D01*
X155544621Y-79255681D01*
X155709958Y-79309402D01*
X155709959Y-79309402D01*
X155709962Y-79309403D01*
X155881674Y-79336600D01*
X155881675Y-79336600D01*
X156055525Y-79336600D01*
X156055526Y-79336600D01*
X156227238Y-79309403D01*
X156227241Y-79309402D01*
X156227242Y-79309402D01*
X156392578Y-79255681D01*
X156392578Y-79255680D01*
X156392581Y-79255680D01*
X156547484Y-79176753D01*
X156688133Y-79074565D01*
X156811065Y-78951633D01*
X156868283Y-78872878D01*
X156923612Y-78830215D01*
X156993225Y-78824236D01*
X157055020Y-78856842D01*
X157068913Y-78872875D01*
X157126135Y-78951633D01*
X157249067Y-79074565D01*
X157389716Y-79176753D01*
X157544619Y-79255680D01*
X157544621Y-79255681D01*
X157709958Y-79309402D01*
X157709959Y-79309402D01*
X157709962Y-79309403D01*
X157881674Y-79336600D01*
X157881675Y-79336600D01*
X158055525Y-79336600D01*
X158055526Y-79336600D01*
X158227238Y-79309403D01*
X158227241Y-79309402D01*
X158227242Y-79309402D01*
X158392578Y-79255681D01*
X158392578Y-79255680D01*
X158392581Y-79255680D01*
X158547484Y-79176753D01*
X158688133Y-79074565D01*
X158811065Y-78951633D01*
X158868283Y-78872878D01*
X158923612Y-78830215D01*
X158993225Y-78824236D01*
X159055020Y-78856842D01*
X159068913Y-78872875D01*
X159126135Y-78951633D01*
X159249067Y-79074565D01*
X159389716Y-79176753D01*
X159544619Y-79255680D01*
X159544621Y-79255681D01*
X159709958Y-79309402D01*
X159709959Y-79309402D01*
X159709962Y-79309403D01*
X159881674Y-79336600D01*
X159881675Y-79336600D01*
X160055525Y-79336600D01*
X160055526Y-79336600D01*
X160227238Y-79309403D01*
X160227241Y-79309402D01*
X160227242Y-79309402D01*
X160392578Y-79255681D01*
X160392578Y-79255680D01*
X160392581Y-79255680D01*
X160547484Y-79176753D01*
X160688133Y-79074565D01*
X160811065Y-78951633D01*
X160868283Y-78872878D01*
X160923612Y-78830215D01*
X160993225Y-78824236D01*
X161055020Y-78856842D01*
X161068913Y-78872875D01*
X161126135Y-78951633D01*
X161249067Y-79074565D01*
X161389716Y-79176753D01*
X161544619Y-79255680D01*
X161544621Y-79255681D01*
X161709958Y-79309402D01*
X161709959Y-79309402D01*
X161709962Y-79309403D01*
X161881674Y-79336600D01*
X161881675Y-79336600D01*
X162055525Y-79336600D01*
X162055526Y-79336600D01*
X162227238Y-79309403D01*
X162227241Y-79309402D01*
X162227242Y-79309402D01*
X162392578Y-79255681D01*
X162392578Y-79255680D01*
X162392581Y-79255680D01*
X162547484Y-79176753D01*
X162688133Y-79074565D01*
X162811065Y-78951633D01*
X162868283Y-78872878D01*
X162923612Y-78830215D01*
X162993225Y-78824236D01*
X163055020Y-78856842D01*
X163068913Y-78872875D01*
X163126135Y-78951633D01*
X163249067Y-79074565D01*
X163389716Y-79176753D01*
X163544619Y-79255680D01*
X163544621Y-79255681D01*
X163709958Y-79309402D01*
X163709959Y-79309402D01*
X163709962Y-79309403D01*
X163881674Y-79336600D01*
X163881675Y-79336600D01*
X164055525Y-79336600D01*
X164055526Y-79336600D01*
X164227238Y-79309403D01*
X164227241Y-79309402D01*
X164227242Y-79309402D01*
X164392578Y-79255681D01*
X164392578Y-79255680D01*
X164392581Y-79255680D01*
X164547484Y-79176753D01*
X164688133Y-79074565D01*
X164811065Y-78951633D01*
X164913253Y-78810984D01*
X164992180Y-78656081D01*
X165045903Y-78490738D01*
X165073100Y-78319026D01*
X165073100Y-78145174D01*
X165045903Y-77973462D01*
X165045902Y-77973458D01*
X165045902Y-77973457D01*
X164992181Y-77808121D01*
X164913252Y-77653215D01*
X164903624Y-77639963D01*
X164826262Y-77533484D01*
X164802783Y-77467680D01*
X164818608Y-77399626D01*
X164868714Y-77350931D01*
X164926581Y-77336600D01*
X165055525Y-77336600D01*
X165055526Y-77336600D01*
X165227238Y-77309403D01*
X165227241Y-77309402D01*
X165227242Y-77309402D01*
X165392578Y-77255681D01*
X165392578Y-77255680D01*
X165392581Y-77255680D01*
X165547484Y-77176753D01*
X165688133Y-77074565D01*
X165811065Y-76951633D01*
X165913253Y-76810984D01*
X165992180Y-76656081D01*
X166045903Y-76490738D01*
X166073100Y-76319026D01*
X166073100Y-76145174D01*
X166045903Y-75973462D01*
X166045902Y-75973458D01*
X166045902Y-75973457D01*
X165992181Y-75808121D01*
X165913252Y-75653215D01*
X165903624Y-75639963D01*
X165811065Y-75512567D01*
X165688133Y-75389635D01*
X165547484Y-75287447D01*
X165392578Y-75208518D01*
X165227241Y-75154797D01*
X165098454Y-75134399D01*
X165055526Y-75127600D01*
X164881674Y-75127600D01*
X164824436Y-75136665D01*
X164709960Y-75154797D01*
X164709957Y-75154797D01*
X164544621Y-75208518D01*
X164389715Y-75287447D01*
X164309469Y-75345749D01*
X164249067Y-75389635D01*
X164249065Y-75389637D01*
X164249064Y-75389637D01*
X164126137Y-75512564D01*
X164126137Y-75512565D01*
X164126135Y-75512567D01*
X164082249Y-75572969D01*
X164023947Y-75653215D01*
X163945018Y-75808121D01*
X163891297Y-75973457D01*
X163891297Y-75973460D01*
X163864100Y-76145174D01*
X163864100Y-76319025D01*
X163891297Y-76490739D01*
X163891297Y-76490742D01*
X163945018Y-76656078D01*
X164023947Y-76810984D01*
X164110937Y-76930715D01*
X164134417Y-76996520D01*
X164118592Y-77064574D01*
X164068486Y-77113269D01*
X164010619Y-77127600D01*
X163881674Y-77127600D01*
X163824436Y-77136665D01*
X163709960Y-77154797D01*
X163709957Y-77154797D01*
X163544621Y-77208518D01*
X163389715Y-77287447D01*
X163359496Y-77309403D01*
X163249067Y-77389635D01*
X163249065Y-77389637D01*
X163249064Y-77389637D01*
X163126136Y-77512565D01*
X163068918Y-77591319D01*
X163013587Y-77633985D01*
X162943974Y-77639963D01*
X162882179Y-77607357D01*
X162868282Y-77591319D01*
X162865148Y-77587005D01*
X162811065Y-77512567D01*
X162688133Y-77389635D01*
X162547484Y-77287447D01*
X162485138Y-77255680D01*
X162392578Y-77208518D01*
X162227241Y-77154797D01*
X162098454Y-77134399D01*
X162055526Y-77127600D01*
X161926581Y-77127600D01*
X161859542Y-77107915D01*
X161813787Y-77055111D01*
X161803843Y-76985953D01*
X161826262Y-76930715D01*
X161913253Y-76810984D01*
X161992180Y-76656081D01*
X162045903Y-76490738D01*
X162073100Y-76319026D01*
X162073100Y-76145174D01*
X162045903Y-75973462D01*
X162045902Y-75973458D01*
X162045902Y-75973457D01*
X161992181Y-75808121D01*
X161913252Y-75653215D01*
X161903624Y-75639963D01*
X161811065Y-75512567D01*
X161688133Y-75389635D01*
X161547484Y-75287447D01*
X161392578Y-75208518D01*
X161227241Y-75154797D01*
X161098454Y-75134399D01*
X161055526Y-75127600D01*
X160881674Y-75127600D01*
X160824436Y-75136665D01*
X160709960Y-75154797D01*
X160709957Y-75154797D01*
X160544621Y-75208518D01*
X160389715Y-75287447D01*
X160309469Y-75345749D01*
X160249067Y-75389635D01*
X160249065Y-75389637D01*
X160249064Y-75389637D01*
X160126136Y-75512565D01*
X160068918Y-75591319D01*
X160013587Y-75633985D01*
X159943974Y-75639963D01*
X159882179Y-75607357D01*
X159868282Y-75591319D01*
X159865148Y-75587005D01*
X159811065Y-75512567D01*
X159688133Y-75389635D01*
X159547484Y-75287447D01*
X159392578Y-75208518D01*
X159227241Y-75154797D01*
X159098454Y-75134399D01*
X159055526Y-75127600D01*
X158881674Y-75127600D01*
X158824436Y-75136665D01*
X158709960Y-75154797D01*
X158709957Y-75154797D01*
X158544621Y-75208518D01*
X158389715Y-75287447D01*
X158309469Y-75345749D01*
X158249067Y-75389635D01*
X158249065Y-75389637D01*
X158249064Y-75389637D01*
X158126137Y-75512564D01*
X158126137Y-75512565D01*
X158126135Y-75512567D01*
X158082249Y-75572969D01*
X158023947Y-75653215D01*
X157945018Y-75808121D01*
X157891297Y-75973457D01*
X157891297Y-75973460D01*
X157864100Y-76145174D01*
X157864100Y-76319025D01*
X157891297Y-76490739D01*
X157891297Y-76490742D01*
X157945018Y-76656078D01*
X158023947Y-76810984D01*
X158110937Y-76930715D01*
X158134417Y-76996520D01*
X158118592Y-77064574D01*
X158068486Y-77113269D01*
X158010619Y-77127600D01*
X157881674Y-77127600D01*
X157824436Y-77136665D01*
X157709960Y-77154797D01*
X157709957Y-77154797D01*
X157544621Y-77208518D01*
X157389715Y-77287447D01*
X157359496Y-77309403D01*
X157249067Y-77389635D01*
X157249065Y-77389637D01*
X157249064Y-77389637D01*
X157126136Y-77512565D01*
X157068918Y-77591319D01*
X157013587Y-77633985D01*
X156943974Y-77639963D01*
X156882179Y-77607357D01*
X156868282Y-77591319D01*
X156865148Y-77587005D01*
X156811065Y-77512567D01*
X156688133Y-77389635D01*
X156547484Y-77287447D01*
X156485138Y-77255680D01*
X156392578Y-77208518D01*
X156227241Y-77154797D01*
X156098454Y-77134399D01*
X156055526Y-77127600D01*
X155926581Y-77127600D01*
X155859542Y-77107915D01*
X155813787Y-77055111D01*
X155803843Y-76985953D01*
X155826262Y-76930715D01*
X155913253Y-76810984D01*
X155992180Y-76656081D01*
X156045903Y-76490738D01*
X156073100Y-76319026D01*
X156073100Y-76145174D01*
X156045903Y-75973462D01*
X156045902Y-75973458D01*
X156045902Y-75973457D01*
X155992181Y-75808121D01*
X155913252Y-75653215D01*
X155903624Y-75639963D01*
X155811065Y-75512567D01*
X155688133Y-75389635D01*
X155547484Y-75287447D01*
X155392578Y-75208518D01*
X155227241Y-75154797D01*
X155098454Y-75134399D01*
X155055526Y-75127600D01*
X154881674Y-75127600D01*
X154824436Y-75136665D01*
X154709960Y-75154797D01*
X154709957Y-75154797D01*
X154544621Y-75208518D01*
X154389715Y-75287447D01*
X154309469Y-75345749D01*
X154249067Y-75389635D01*
X154249065Y-75389637D01*
X154249064Y-75389637D01*
X154126137Y-75512564D01*
X154126137Y-75512565D01*
X154126135Y-75512567D01*
X154082249Y-75572969D01*
X154023947Y-75653215D01*
X153945018Y-75808121D01*
X153891297Y-75973457D01*
X153891297Y-75973460D01*
X153864100Y-76145174D01*
X152073100Y-76145174D01*
X152045903Y-75973462D01*
X152045902Y-75973458D01*
X152045902Y-75973457D01*
X151992181Y-75808121D01*
X151913252Y-75653215D01*
X151903624Y-75639963D01*
X151811065Y-75512567D01*
X151688133Y-75389635D01*
X151547484Y-75287447D01*
X151392578Y-75208518D01*
X151227241Y-75154797D01*
X151098454Y-75134399D01*
X151055526Y-75127600D01*
X150881674Y-75127600D01*
X150824436Y-75136665D01*
X150709960Y-75154797D01*
X150709957Y-75154797D01*
X150544621Y-75208518D01*
X150389715Y-75287447D01*
X150309469Y-75345749D01*
X150249067Y-75389635D01*
X150249065Y-75389637D01*
X150249064Y-75389637D01*
X150126137Y-75512564D01*
X150126137Y-75512565D01*
X150126135Y-75512567D01*
X150082249Y-75572969D01*
X150023947Y-75653215D01*
X149945018Y-75808121D01*
X149891297Y-75973457D01*
X149891297Y-75973460D01*
X149864100Y-76145174D01*
X149864100Y-76319025D01*
X149891297Y-76490739D01*
X149891297Y-76490742D01*
X149945018Y-76656078D01*
X150023947Y-76810984D01*
X150110937Y-76930715D01*
X150134417Y-76996520D01*
X150118592Y-77064574D01*
X150068486Y-77113269D01*
X150010619Y-77127600D01*
X149881674Y-77127600D01*
X149824436Y-77136665D01*
X149709960Y-77154797D01*
X149709957Y-77154797D01*
X149544621Y-77208518D01*
X149389715Y-77287447D01*
X149359496Y-77309403D01*
X149249067Y-77389635D01*
X149249065Y-77389637D01*
X149249064Y-77389637D01*
X149126136Y-77512565D01*
X149068918Y-77591319D01*
X149013587Y-77633985D01*
X148943974Y-77639963D01*
X148882179Y-77607357D01*
X148868282Y-77591319D01*
X148865148Y-77587005D01*
X148811065Y-77512567D01*
X148688133Y-77389635D01*
X148547484Y-77287447D01*
X148485138Y-77255680D01*
X148392578Y-77208518D01*
X148227241Y-77154797D01*
X148098454Y-77134399D01*
X148055526Y-77127600D01*
X147926581Y-77127600D01*
X147859542Y-77107915D01*
X147813787Y-77055111D01*
X147803843Y-76985953D01*
X147826262Y-76930715D01*
X147913253Y-76810984D01*
X147992180Y-76656081D01*
X148045903Y-76490738D01*
X148073100Y-76319026D01*
X148073100Y-76145174D01*
X148045903Y-75973462D01*
X148045902Y-75973458D01*
X148045902Y-75973457D01*
X147992181Y-75808121D01*
X147913252Y-75653215D01*
X147903624Y-75639963D01*
X147811065Y-75512567D01*
X147688133Y-75389635D01*
X147547484Y-75287447D01*
X147392578Y-75208518D01*
X147227241Y-75154797D01*
X147098454Y-75134399D01*
X147055526Y-75127600D01*
X146881674Y-75127600D01*
X146824436Y-75136665D01*
X146709960Y-75154797D01*
X146709957Y-75154797D01*
X146544621Y-75208518D01*
X146389715Y-75287447D01*
X146309469Y-75345749D01*
X146249067Y-75389635D01*
X146249065Y-75389637D01*
X146249064Y-75389637D01*
X146126136Y-75512565D01*
X146068918Y-75591319D01*
X146013587Y-75633985D01*
X145943974Y-75639963D01*
X145882179Y-75607357D01*
X145868282Y-75591319D01*
X145865148Y-75587005D01*
X145811065Y-75512567D01*
X145688133Y-75389635D01*
X145547484Y-75287447D01*
X145392578Y-75208518D01*
X145227241Y-75154797D01*
X145098454Y-75134399D01*
X145055526Y-75127600D01*
X144881674Y-75127600D01*
X144824436Y-75136665D01*
X144709960Y-75154797D01*
X144709957Y-75154797D01*
X144544621Y-75208518D01*
X144389715Y-75287447D01*
X144309469Y-75345749D01*
X144249067Y-75389635D01*
X144249065Y-75389637D01*
X144249064Y-75389637D01*
X144126137Y-75512564D01*
X144126137Y-75512565D01*
X144126135Y-75512567D01*
X144082249Y-75572969D01*
X144023947Y-75653215D01*
X143945018Y-75808121D01*
X143891297Y-75973457D01*
X143891297Y-75973460D01*
X143864100Y-76145174D01*
X143864100Y-76319025D01*
X143891297Y-76490739D01*
X143891297Y-76490742D01*
X143945018Y-76656078D01*
X144023947Y-76810984D01*
X144110937Y-76930715D01*
X144134417Y-76996520D01*
X144118592Y-77064574D01*
X144068486Y-77113269D01*
X144010619Y-77127600D01*
X143881674Y-77127600D01*
X143824436Y-77136665D01*
X143709960Y-77154797D01*
X143709957Y-77154797D01*
X143544621Y-77208518D01*
X143389715Y-77287447D01*
X143359496Y-77309403D01*
X143249067Y-77389635D01*
X143249065Y-77389637D01*
X143249064Y-77389637D01*
X143126137Y-77512564D01*
X143126137Y-77512565D01*
X143126135Y-77512567D01*
X143082249Y-77572969D01*
X143023947Y-77653215D01*
X142945018Y-77808121D01*
X142891297Y-77973457D01*
X142891297Y-77973460D01*
X142864100Y-78145174D01*
X141073100Y-78145174D01*
X141045903Y-77973462D01*
X141045902Y-77973458D01*
X141045902Y-77973457D01*
X140992181Y-77808121D01*
X140913252Y-77653215D01*
X140903624Y-77639963D01*
X140826262Y-77533484D01*
X140802783Y-77467680D01*
X140818608Y-77399626D01*
X140868714Y-77350931D01*
X140926581Y-77336600D01*
X141055525Y-77336600D01*
X141055526Y-77336600D01*
X141227238Y-77309403D01*
X141227241Y-77309402D01*
X141227242Y-77309402D01*
X141392578Y-77255681D01*
X141392578Y-77255680D01*
X141392581Y-77255680D01*
X141547484Y-77176753D01*
X141688133Y-77074565D01*
X141811065Y-76951633D01*
X141913253Y-76810984D01*
X141992180Y-76656081D01*
X142045903Y-76490738D01*
X142073100Y-76319026D01*
X142073100Y-76145174D01*
X142045903Y-75973462D01*
X142045902Y-75973458D01*
X142045902Y-75973457D01*
X141992181Y-75808121D01*
X141913252Y-75653215D01*
X141903624Y-75639963D01*
X141811065Y-75512567D01*
X141688133Y-75389635D01*
X141547484Y-75287447D01*
X141392578Y-75208518D01*
X141227241Y-75154797D01*
X141098454Y-75134399D01*
X141055526Y-75127600D01*
X140881674Y-75127600D01*
X140824436Y-75136665D01*
X140709960Y-75154797D01*
X140709957Y-75154797D01*
X140544621Y-75208518D01*
X140389715Y-75287447D01*
X140309469Y-75345749D01*
X140249067Y-75389635D01*
X140249065Y-75389637D01*
X140249064Y-75389637D01*
X140126136Y-75512565D01*
X140068918Y-75591319D01*
X140013587Y-75633985D01*
X139943974Y-75639963D01*
X139882179Y-75607357D01*
X139868282Y-75591319D01*
X139865148Y-75587005D01*
X139811065Y-75512567D01*
X139688133Y-75389635D01*
X139547484Y-75287447D01*
X139392578Y-75208518D01*
X139227241Y-75154797D01*
X139098454Y-75134399D01*
X139055526Y-75127600D01*
X138881674Y-75127600D01*
X138824436Y-75136665D01*
X138709960Y-75154797D01*
X138709957Y-75154797D01*
X138544621Y-75208518D01*
X138389715Y-75287447D01*
X138309469Y-75345749D01*
X138249067Y-75389635D01*
X138249065Y-75389637D01*
X138249064Y-75389637D01*
X138126136Y-75512565D01*
X138068918Y-75591319D01*
X138013587Y-75633985D01*
X137943974Y-75639963D01*
X137882179Y-75607357D01*
X137868282Y-75591319D01*
X137865148Y-75587005D01*
X137811065Y-75512567D01*
X137688133Y-75389635D01*
X137547484Y-75287447D01*
X137392578Y-75208518D01*
X137227241Y-75154797D01*
X137098454Y-75134399D01*
X137055526Y-75127600D01*
X136881674Y-75127600D01*
X136824436Y-75136665D01*
X136709960Y-75154797D01*
X136709957Y-75154797D01*
X136544621Y-75208518D01*
X136389715Y-75287447D01*
X136309469Y-75345749D01*
X136249067Y-75389635D01*
X136249065Y-75389637D01*
X136249064Y-75389637D01*
X136126136Y-75512565D01*
X136068918Y-75591319D01*
X136013587Y-75633985D01*
X135943974Y-75639963D01*
X135882179Y-75607357D01*
X135868282Y-75591319D01*
X135865148Y-75587005D01*
X135811065Y-75512567D01*
X135688133Y-75389635D01*
X135547484Y-75287447D01*
X135392578Y-75208518D01*
X135227241Y-75154797D01*
X135098454Y-75134399D01*
X135055526Y-75127600D01*
X134881674Y-75127600D01*
X134824436Y-75136665D01*
X134709960Y-75154797D01*
X134709957Y-75154797D01*
X134544621Y-75208518D01*
X134389715Y-75287447D01*
X134309469Y-75345749D01*
X134249067Y-75389635D01*
X134249065Y-75389637D01*
X134249064Y-75389637D01*
X134126136Y-75512565D01*
X134068918Y-75591319D01*
X134013587Y-75633985D01*
X133943974Y-75639963D01*
X133882179Y-75607357D01*
X133868282Y-75591319D01*
X133865148Y-75587005D01*
X133811065Y-75512567D01*
X133688133Y-75389635D01*
X133547484Y-75287447D01*
X133392578Y-75208518D01*
X133227241Y-75154797D01*
X133098454Y-75134399D01*
X133055526Y-75127600D01*
X132881674Y-75127600D01*
X132824436Y-75136665D01*
X132709960Y-75154797D01*
X132709957Y-75154797D01*
X132544621Y-75208518D01*
X132389715Y-75287447D01*
X132309469Y-75345749D01*
X132249067Y-75389635D01*
X132249065Y-75389637D01*
X132249064Y-75389637D01*
X132126137Y-75512564D01*
X132126137Y-75512565D01*
X132126135Y-75512567D01*
X132082249Y-75572969D01*
X132023947Y-75653215D01*
X131945018Y-75808121D01*
X131891297Y-75973457D01*
X131891297Y-75973460D01*
X131864100Y-76145174D01*
X131864100Y-76319025D01*
X131891297Y-76490739D01*
X131891297Y-76490742D01*
X131945018Y-76656078D01*
X132023947Y-76810984D01*
X132110937Y-76930715D01*
X132134417Y-76996520D01*
X132118592Y-77064574D01*
X132068486Y-77113269D01*
X132010619Y-77127600D01*
X131881674Y-77127600D01*
X131824436Y-77136665D01*
X131709960Y-77154797D01*
X131709957Y-77154797D01*
X131544621Y-77208518D01*
X131389715Y-77287447D01*
X131359496Y-77309403D01*
X131249067Y-77389635D01*
X131249065Y-77389637D01*
X131249064Y-77389637D01*
X131126137Y-77512564D01*
X131126137Y-77512565D01*
X131126135Y-77512567D01*
X131082249Y-77572969D01*
X131023947Y-77653215D01*
X130945018Y-77808121D01*
X130891297Y-77973457D01*
X130891297Y-77973460D01*
X130864100Y-78145174D01*
X121969100Y-78145174D01*
X121969100Y-71645174D01*
X130864100Y-71645174D01*
X130864100Y-71819025D01*
X130891297Y-71990739D01*
X130891297Y-71990742D01*
X130945018Y-72156078D01*
X131023947Y-72310984D01*
X131126135Y-72451633D01*
X131249067Y-72574565D01*
X131389716Y-72676753D01*
X131544619Y-72755680D01*
X131544621Y-72755681D01*
X131709958Y-72809402D01*
X131709959Y-72809402D01*
X131709962Y-72809403D01*
X131881674Y-72836600D01*
X131881675Y-72836600D01*
X132010619Y-72836600D01*
X132077658Y-72856285D01*
X132123413Y-72909089D01*
X132133357Y-72978247D01*
X132110937Y-73033484D01*
X132070866Y-73088636D01*
X132023947Y-73153215D01*
X131945018Y-73308121D01*
X131891297Y-73473457D01*
X131891297Y-73473460D01*
X131864100Y-73645174D01*
X131864100Y-73819025D01*
X131891297Y-73990739D01*
X131891297Y-73990742D01*
X131945018Y-74156078D01*
X132023947Y-74310984D01*
X132126135Y-74451633D01*
X132249067Y-74574565D01*
X132389716Y-74676753D01*
X132544619Y-74755680D01*
X132544621Y-74755681D01*
X132709958Y-74809402D01*
X132709959Y-74809402D01*
X132709962Y-74809403D01*
X132881674Y-74836600D01*
X132881675Y-74836600D01*
X133055525Y-74836600D01*
X133055526Y-74836600D01*
X133227238Y-74809403D01*
X133227241Y-74809402D01*
X133227242Y-74809402D01*
X133392578Y-74755681D01*
X133392578Y-74755680D01*
X133392581Y-74755680D01*
X133547484Y-74676753D01*
X133688133Y-74574565D01*
X133811065Y-74451633D01*
X133868283Y-74372878D01*
X133923612Y-74330215D01*
X133993225Y-74324236D01*
X134055020Y-74356842D01*
X134068913Y-74372875D01*
X134126135Y-74451633D01*
X134249067Y-74574565D01*
X134389716Y-74676753D01*
X134544619Y-74755680D01*
X134544621Y-74755681D01*
X134709958Y-74809402D01*
X134709959Y-74809402D01*
X134709962Y-74809403D01*
X134881674Y-74836600D01*
X134881675Y-74836600D01*
X135055525Y-74836600D01*
X135055526Y-74836600D01*
X135227238Y-74809403D01*
X135227241Y-74809402D01*
X135227242Y-74809402D01*
X135392578Y-74755681D01*
X135392578Y-74755680D01*
X135392581Y-74755680D01*
X135547484Y-74676753D01*
X135688133Y-74574565D01*
X135811065Y-74451633D01*
X135913253Y-74310984D01*
X135992180Y-74156081D01*
X136045903Y-73990738D01*
X136073100Y-73819026D01*
X136073100Y-73645174D01*
X136045903Y-73473462D01*
X136045902Y-73473458D01*
X136045902Y-73473457D01*
X135992181Y-73308121D01*
X135913252Y-73153215D01*
X135903624Y-73139963D01*
X135811065Y-73012567D01*
X135688133Y-72889635D01*
X135547484Y-72787447D01*
X135485138Y-72755680D01*
X135392578Y-72708518D01*
X135227241Y-72654797D01*
X135098454Y-72634399D01*
X135055526Y-72627600D01*
X134926581Y-72627600D01*
X134859542Y-72607915D01*
X134813787Y-72555111D01*
X134803843Y-72485953D01*
X134826262Y-72430715D01*
X134913253Y-72310984D01*
X134992180Y-72156081D01*
X135045903Y-71990738D01*
X135073100Y-71819026D01*
X135073100Y-71645174D01*
X136864100Y-71645174D01*
X136864100Y-71819025D01*
X136891297Y-71990739D01*
X136891297Y-71990742D01*
X136945018Y-72156078D01*
X137023947Y-72310984D01*
X137126135Y-72451633D01*
X137249067Y-72574565D01*
X137389716Y-72676753D01*
X137544619Y-72755680D01*
X137544621Y-72755681D01*
X137709958Y-72809402D01*
X137709959Y-72809402D01*
X137709962Y-72809403D01*
X137881674Y-72836600D01*
X137881675Y-72836600D01*
X138010619Y-72836600D01*
X138077658Y-72856285D01*
X138123413Y-72909089D01*
X138133357Y-72978247D01*
X138110937Y-73033484D01*
X138070866Y-73088636D01*
X138023947Y-73153215D01*
X137945018Y-73308121D01*
X137891297Y-73473457D01*
X137891297Y-73473460D01*
X137864100Y-73645174D01*
X137864100Y-73819025D01*
X137891297Y-73990739D01*
X137891297Y-73990742D01*
X137945018Y-74156078D01*
X138023947Y-74310984D01*
X138126135Y-74451633D01*
X138249067Y-74574565D01*
X138389716Y-74676753D01*
X138544619Y-74755680D01*
X138544621Y-74755681D01*
X138709958Y-74809402D01*
X138709959Y-74809402D01*
X138709962Y-74809403D01*
X138881674Y-74836600D01*
X138881675Y-74836600D01*
X139055525Y-74836600D01*
X139055526Y-74836600D01*
X139227238Y-74809403D01*
X139227241Y-74809402D01*
X139227242Y-74809402D01*
X139392578Y-74755681D01*
X139392578Y-74755680D01*
X139392581Y-74755680D01*
X139547484Y-74676753D01*
X139688133Y-74574565D01*
X139811065Y-74451633D01*
X139868283Y-74372878D01*
X139923612Y-74330215D01*
X139993225Y-74324236D01*
X140055020Y-74356842D01*
X140068913Y-74372875D01*
X140126135Y-74451633D01*
X140249067Y-74574565D01*
X140389716Y-74676753D01*
X140544619Y-74755680D01*
X140544621Y-74755681D01*
X140709958Y-74809402D01*
X140709959Y-74809402D01*
X140709962Y-74809403D01*
X140881674Y-74836600D01*
X140881675Y-74836600D01*
X141055525Y-74836600D01*
X141055526Y-74836600D01*
X141227238Y-74809403D01*
X141227241Y-74809402D01*
X141227242Y-74809402D01*
X141392578Y-74755681D01*
X141392578Y-74755680D01*
X141392581Y-74755680D01*
X141547484Y-74676753D01*
X141688133Y-74574565D01*
X141811065Y-74451633D01*
X141868283Y-74372878D01*
X141923612Y-74330215D01*
X141993225Y-74324236D01*
X142055020Y-74356842D01*
X142068913Y-74372875D01*
X142126135Y-74451633D01*
X142249067Y-74574565D01*
X142389716Y-74676753D01*
X142544619Y-74755680D01*
X142544621Y-74755681D01*
X142709958Y-74809402D01*
X142709959Y-74809402D01*
X142709962Y-74809403D01*
X142881674Y-74836600D01*
X142881675Y-74836600D01*
X143055525Y-74836600D01*
X143055526Y-74836600D01*
X143227238Y-74809403D01*
X143227241Y-74809402D01*
X143227242Y-74809402D01*
X143392578Y-74755681D01*
X143392578Y-74755680D01*
X143392581Y-74755680D01*
X143547484Y-74676753D01*
X143688133Y-74574565D01*
X143811065Y-74451633D01*
X143868283Y-74372878D01*
X143923612Y-74330215D01*
X143993225Y-74324236D01*
X144055020Y-74356842D01*
X144068913Y-74372875D01*
X144126135Y-74451633D01*
X144249067Y-74574565D01*
X144389716Y-74676753D01*
X144544619Y-74755680D01*
X144544621Y-74755681D01*
X144709958Y-74809402D01*
X144709959Y-74809402D01*
X144709962Y-74809403D01*
X144881674Y-74836600D01*
X144881675Y-74836600D01*
X145055525Y-74836600D01*
X145055526Y-74836600D01*
X145227238Y-74809403D01*
X145227241Y-74809402D01*
X145227242Y-74809402D01*
X145392578Y-74755681D01*
X145392578Y-74755680D01*
X145392581Y-74755680D01*
X145547484Y-74676753D01*
X145688133Y-74574565D01*
X145811065Y-74451633D01*
X145868283Y-74372878D01*
X145923612Y-74330215D01*
X145993225Y-74324236D01*
X146055020Y-74356842D01*
X146068913Y-74372875D01*
X146126135Y-74451633D01*
X146249067Y-74574565D01*
X146389716Y-74676753D01*
X146544619Y-74755680D01*
X146544621Y-74755681D01*
X146709958Y-74809402D01*
X146709959Y-74809402D01*
X146709962Y-74809403D01*
X146881674Y-74836600D01*
X146881675Y-74836600D01*
X147055525Y-74836600D01*
X147055526Y-74836600D01*
X147227238Y-74809403D01*
X147227241Y-74809402D01*
X147227242Y-74809402D01*
X147392578Y-74755681D01*
X147392578Y-74755680D01*
X147392581Y-74755680D01*
X147547484Y-74676753D01*
X147688133Y-74574565D01*
X147811065Y-74451633D01*
X147868283Y-74372878D01*
X147923612Y-74330215D01*
X147993225Y-74324236D01*
X148055020Y-74356842D01*
X148068913Y-74372875D01*
X148126135Y-74451633D01*
X148249067Y-74574565D01*
X148389716Y-74676753D01*
X148544619Y-74755680D01*
X148544621Y-74755681D01*
X148709958Y-74809402D01*
X148709959Y-74809402D01*
X148709962Y-74809403D01*
X148881674Y-74836600D01*
X148881675Y-74836600D01*
X149055525Y-74836600D01*
X149055526Y-74836600D01*
X149227238Y-74809403D01*
X149227241Y-74809402D01*
X149227242Y-74809402D01*
X149392578Y-74755681D01*
X149392578Y-74755680D01*
X149392581Y-74755680D01*
X149547484Y-74676753D01*
X149688133Y-74574565D01*
X149811065Y-74451633D01*
X149868283Y-74372878D01*
X149923612Y-74330215D01*
X149993225Y-74324236D01*
X150055020Y-74356842D01*
X150068913Y-74372875D01*
X150126135Y-74451633D01*
X150249067Y-74574565D01*
X150389716Y-74676753D01*
X150544619Y-74755680D01*
X150544621Y-74755681D01*
X150709958Y-74809402D01*
X150709959Y-74809402D01*
X150709962Y-74809403D01*
X150881674Y-74836600D01*
X150881675Y-74836600D01*
X151055525Y-74836600D01*
X151055526Y-74836600D01*
X151227238Y-74809403D01*
X151227241Y-74809402D01*
X151227242Y-74809402D01*
X151392578Y-74755681D01*
X151392578Y-74755680D01*
X151392581Y-74755680D01*
X151547484Y-74676753D01*
X151688133Y-74574565D01*
X151811065Y-74451633D01*
X151913253Y-74310984D01*
X151992180Y-74156081D01*
X152045903Y-73990738D01*
X152073100Y-73819026D01*
X152073100Y-73645174D01*
X153864100Y-73645174D01*
X153864100Y-73819025D01*
X153891297Y-73990739D01*
X153891297Y-73990742D01*
X153945018Y-74156078D01*
X154023947Y-74310984D01*
X154126135Y-74451633D01*
X154249067Y-74574565D01*
X154389716Y-74676753D01*
X154544619Y-74755680D01*
X154544621Y-74755681D01*
X154709958Y-74809402D01*
X154709959Y-74809402D01*
X154709962Y-74809403D01*
X154881674Y-74836600D01*
X154881675Y-74836600D01*
X155055525Y-74836600D01*
X155055526Y-74836600D01*
X155227238Y-74809403D01*
X155227241Y-74809402D01*
X155227242Y-74809402D01*
X155392578Y-74755681D01*
X155392578Y-74755680D01*
X155392581Y-74755680D01*
X155547484Y-74676753D01*
X155688133Y-74574565D01*
X155811065Y-74451633D01*
X155868283Y-74372878D01*
X155923612Y-74330215D01*
X155993225Y-74324236D01*
X156055020Y-74356842D01*
X156068913Y-74372875D01*
X156126135Y-74451633D01*
X156249067Y-74574565D01*
X156389716Y-74676753D01*
X156544619Y-74755680D01*
X156544621Y-74755681D01*
X156709958Y-74809402D01*
X156709959Y-74809402D01*
X156709962Y-74809403D01*
X156881674Y-74836600D01*
X156881675Y-74836600D01*
X157055525Y-74836600D01*
X157055526Y-74836600D01*
X157227238Y-74809403D01*
X157227241Y-74809402D01*
X157227242Y-74809402D01*
X157392578Y-74755681D01*
X157392578Y-74755680D01*
X157392581Y-74755680D01*
X157547484Y-74676753D01*
X157688133Y-74574565D01*
X157811065Y-74451633D01*
X157868283Y-74372878D01*
X157923612Y-74330215D01*
X157993225Y-74324236D01*
X158055020Y-74356842D01*
X158068913Y-74372875D01*
X158126135Y-74451633D01*
X158249067Y-74574565D01*
X158389716Y-74676753D01*
X158544619Y-74755680D01*
X158544621Y-74755681D01*
X158709958Y-74809402D01*
X158709959Y-74809402D01*
X158709962Y-74809403D01*
X158881674Y-74836600D01*
X158881675Y-74836600D01*
X159055525Y-74836600D01*
X159055526Y-74836600D01*
X159227238Y-74809403D01*
X159227241Y-74809402D01*
X159227242Y-74809402D01*
X159392578Y-74755681D01*
X159392578Y-74755680D01*
X159392581Y-74755680D01*
X159547484Y-74676753D01*
X159688133Y-74574565D01*
X159811065Y-74451633D01*
X159868283Y-74372878D01*
X159923612Y-74330215D01*
X159993225Y-74324236D01*
X160055020Y-74356842D01*
X160068913Y-74372875D01*
X160126135Y-74451633D01*
X160249067Y-74574565D01*
X160389716Y-74676753D01*
X160544619Y-74755680D01*
X160544621Y-74755681D01*
X160709958Y-74809402D01*
X160709959Y-74809402D01*
X160709962Y-74809403D01*
X160881674Y-74836600D01*
X160881675Y-74836600D01*
X161055525Y-74836600D01*
X161055526Y-74836600D01*
X161227238Y-74809403D01*
X161227241Y-74809402D01*
X161227242Y-74809402D01*
X161392578Y-74755681D01*
X161392578Y-74755680D01*
X161392581Y-74755680D01*
X161547484Y-74676753D01*
X161688133Y-74574565D01*
X161811065Y-74451633D01*
X161868283Y-74372878D01*
X161923612Y-74330215D01*
X161993225Y-74324236D01*
X162055020Y-74356842D01*
X162068913Y-74372875D01*
X162126135Y-74451633D01*
X162249067Y-74574565D01*
X162389716Y-74676753D01*
X162544619Y-74755680D01*
X162544621Y-74755681D01*
X162709958Y-74809402D01*
X162709959Y-74809402D01*
X162709962Y-74809403D01*
X162881674Y-74836600D01*
X162881675Y-74836600D01*
X163055525Y-74836600D01*
X163055526Y-74836600D01*
X163227238Y-74809403D01*
X163227241Y-74809402D01*
X163227242Y-74809402D01*
X163392578Y-74755681D01*
X163392578Y-74755680D01*
X163392581Y-74755680D01*
X163547484Y-74676753D01*
X163688133Y-74574565D01*
X163811065Y-74451633D01*
X163913253Y-74310984D01*
X163992180Y-74156081D01*
X164045903Y-73990738D01*
X164073100Y-73819026D01*
X164073100Y-73645174D01*
X164045903Y-73473462D01*
X164045902Y-73473458D01*
X164045902Y-73473457D01*
X163992181Y-73308121D01*
X163913252Y-73153215D01*
X163903624Y-73139963D01*
X163811065Y-73012567D01*
X163688133Y-72889635D01*
X163547484Y-72787447D01*
X163485138Y-72755680D01*
X163392578Y-72708518D01*
X163227241Y-72654797D01*
X163098454Y-72634399D01*
X163055526Y-72627600D01*
X162926581Y-72627600D01*
X162859542Y-72607915D01*
X162813787Y-72555111D01*
X162803843Y-72485953D01*
X162826262Y-72430715D01*
X162913253Y-72310984D01*
X162992180Y-72156081D01*
X163045903Y-71990738D01*
X163073100Y-71819026D01*
X163073100Y-71645174D01*
X163045903Y-71473462D01*
X163045902Y-71473458D01*
X163045902Y-71473457D01*
X162992181Y-71308121D01*
X162913252Y-71153215D01*
X162903624Y-71139963D01*
X162811065Y-71012567D01*
X162688133Y-70889635D01*
X162547484Y-70787447D01*
X162392578Y-70708518D01*
X162227241Y-70654797D01*
X162098454Y-70634399D01*
X162055526Y-70627600D01*
X161881674Y-70627600D01*
X161824436Y-70636665D01*
X161709960Y-70654797D01*
X161709957Y-70654797D01*
X161544621Y-70708518D01*
X161389715Y-70787447D01*
X161309469Y-70845749D01*
X161249067Y-70889635D01*
X161249065Y-70889637D01*
X161249064Y-70889637D01*
X161126136Y-71012565D01*
X161068918Y-71091319D01*
X161013587Y-71133985D01*
X160943974Y-71139963D01*
X160882179Y-71107357D01*
X160868282Y-71091319D01*
X160865148Y-71087005D01*
X160811065Y-71012567D01*
X160688133Y-70889635D01*
X160547484Y-70787447D01*
X160392578Y-70708518D01*
X160227241Y-70654797D01*
X160098454Y-70634399D01*
X160055526Y-70627600D01*
X159881674Y-70627600D01*
X159824436Y-70636665D01*
X159709960Y-70654797D01*
X159709957Y-70654797D01*
X159544621Y-70708518D01*
X159389715Y-70787447D01*
X159309469Y-70845749D01*
X159249067Y-70889635D01*
X159249065Y-70889637D01*
X159249064Y-70889637D01*
X159126137Y-71012564D01*
X159126137Y-71012565D01*
X159126135Y-71012567D01*
X159082249Y-71072969D01*
X159023947Y-71153215D01*
X158945018Y-71308121D01*
X158891297Y-71473457D01*
X158891297Y-71473460D01*
X158864100Y-71645174D01*
X158864100Y-71819025D01*
X158891297Y-71990739D01*
X158891297Y-71990742D01*
X158945018Y-72156078D01*
X159023947Y-72310984D01*
X159110937Y-72430715D01*
X159134417Y-72496520D01*
X159118592Y-72564574D01*
X159068486Y-72613269D01*
X159010619Y-72627600D01*
X158881674Y-72627600D01*
X158824436Y-72636665D01*
X158709960Y-72654797D01*
X158709957Y-72654797D01*
X158544621Y-72708518D01*
X158389715Y-72787447D01*
X158359496Y-72809403D01*
X158249067Y-72889635D01*
X158249065Y-72889637D01*
X158249064Y-72889637D01*
X158126136Y-73012565D01*
X158068918Y-73091319D01*
X158013587Y-73133985D01*
X157943974Y-73139963D01*
X157882179Y-73107357D01*
X157868282Y-73091319D01*
X157865148Y-73087005D01*
X157811065Y-73012567D01*
X157688133Y-72889635D01*
X157547484Y-72787447D01*
X157485138Y-72755680D01*
X157392578Y-72708518D01*
X157227241Y-72654797D01*
X157098454Y-72634399D01*
X157055526Y-72627600D01*
X156926581Y-72627600D01*
X156859542Y-72607915D01*
X156813787Y-72555111D01*
X156803843Y-72485953D01*
X156826262Y-72430715D01*
X156913253Y-72310984D01*
X156992180Y-72156081D01*
X157045903Y-71990738D01*
X157073100Y-71819026D01*
X157073100Y-71645174D01*
X157045903Y-71473462D01*
X157045902Y-71473458D01*
X157045902Y-71473457D01*
X156992181Y-71308121D01*
X156913252Y-71153215D01*
X156903624Y-71139963D01*
X156811065Y-71012567D01*
X156688133Y-70889635D01*
X156547484Y-70787447D01*
X156392578Y-70708518D01*
X156227241Y-70654797D01*
X156098454Y-70634399D01*
X156055526Y-70627600D01*
X155881674Y-70627600D01*
X155824436Y-70636665D01*
X155709960Y-70654797D01*
X155709957Y-70654797D01*
X155544621Y-70708518D01*
X155389715Y-70787447D01*
X155309469Y-70845749D01*
X155249067Y-70889635D01*
X155249065Y-70889637D01*
X155249064Y-70889637D01*
X155126137Y-71012564D01*
X155126137Y-71012565D01*
X155126135Y-71012567D01*
X155082249Y-71072969D01*
X155023947Y-71153215D01*
X154945018Y-71308121D01*
X154891297Y-71473457D01*
X154891297Y-71473460D01*
X154864100Y-71645174D01*
X154864100Y-71819025D01*
X154891297Y-71990739D01*
X154891297Y-71990742D01*
X154945018Y-72156078D01*
X155023947Y-72310984D01*
X155110937Y-72430715D01*
X155134417Y-72496520D01*
X155118592Y-72564574D01*
X155068486Y-72613269D01*
X155010619Y-72627600D01*
X154881674Y-72627600D01*
X154824436Y-72636665D01*
X154709960Y-72654797D01*
X154709957Y-72654797D01*
X154544621Y-72708518D01*
X154389715Y-72787447D01*
X154359496Y-72809403D01*
X154249067Y-72889635D01*
X154249065Y-72889637D01*
X154249064Y-72889637D01*
X154126137Y-73012564D01*
X154126137Y-73012565D01*
X154126135Y-73012567D01*
X154082249Y-73072969D01*
X154023947Y-73153215D01*
X153945018Y-73308121D01*
X153891297Y-73473457D01*
X153891297Y-73473460D01*
X153864100Y-73645174D01*
X152073100Y-73645174D01*
X152045903Y-73473462D01*
X152045902Y-73473458D01*
X152045902Y-73473457D01*
X151992181Y-73308121D01*
X151913252Y-73153215D01*
X151903624Y-73139963D01*
X151826262Y-73033484D01*
X151802783Y-72967680D01*
X151818608Y-72899626D01*
X151868714Y-72850931D01*
X151926581Y-72836600D01*
X152055525Y-72836600D01*
X152055526Y-72836600D01*
X152227238Y-72809403D01*
X152227241Y-72809402D01*
X152227242Y-72809402D01*
X152392578Y-72755681D01*
X152392578Y-72755680D01*
X152392581Y-72755680D01*
X152547484Y-72676753D01*
X152688133Y-72574565D01*
X152811065Y-72451633D01*
X152913253Y-72310984D01*
X152992180Y-72156081D01*
X153045903Y-71990738D01*
X153073100Y-71819026D01*
X153073100Y-71645174D01*
X153045903Y-71473462D01*
X153045902Y-71473458D01*
X153045902Y-71473457D01*
X152992181Y-71308121D01*
X152913252Y-71153215D01*
X152903624Y-71139963D01*
X152811065Y-71012567D01*
X152688133Y-70889635D01*
X152547484Y-70787447D01*
X152392578Y-70708518D01*
X152227241Y-70654797D01*
X152098454Y-70634399D01*
X152055526Y-70627600D01*
X151881674Y-70627600D01*
X151824436Y-70636665D01*
X151709960Y-70654797D01*
X151709957Y-70654797D01*
X151544621Y-70708518D01*
X151389715Y-70787447D01*
X151309469Y-70845749D01*
X151249067Y-70889635D01*
X151249065Y-70889637D01*
X151249064Y-70889637D01*
X151126136Y-71012565D01*
X151068918Y-71091319D01*
X151013587Y-71133985D01*
X150943974Y-71139963D01*
X150882179Y-71107357D01*
X150868282Y-71091319D01*
X150865148Y-71087005D01*
X150811065Y-71012567D01*
X150688133Y-70889635D01*
X150547484Y-70787447D01*
X150392578Y-70708518D01*
X150227241Y-70654797D01*
X150098454Y-70634399D01*
X150055526Y-70627600D01*
X149881674Y-70627600D01*
X149824436Y-70636665D01*
X149709960Y-70654797D01*
X149709957Y-70654797D01*
X149544621Y-70708518D01*
X149389715Y-70787447D01*
X149309469Y-70845749D01*
X149249067Y-70889635D01*
X149249065Y-70889637D01*
X149249064Y-70889637D01*
X149126136Y-71012565D01*
X149068918Y-71091319D01*
X149013587Y-71133985D01*
X148943974Y-71139963D01*
X148882179Y-71107357D01*
X148868282Y-71091319D01*
X148865148Y-71087005D01*
X148811065Y-71012567D01*
X148688133Y-70889635D01*
X148547484Y-70787447D01*
X148392578Y-70708518D01*
X148227241Y-70654797D01*
X148098454Y-70634399D01*
X148055526Y-70627600D01*
X147881674Y-70627600D01*
X147824436Y-70636665D01*
X147709960Y-70654797D01*
X147709957Y-70654797D01*
X147544621Y-70708518D01*
X147389715Y-70787447D01*
X147309469Y-70845749D01*
X147249067Y-70889635D01*
X147249065Y-70889637D01*
X147249064Y-70889637D01*
X147126136Y-71012565D01*
X147068918Y-71091319D01*
X147013587Y-71133985D01*
X146943974Y-71139963D01*
X146882179Y-71107357D01*
X146868282Y-71091319D01*
X146865148Y-71087005D01*
X146811065Y-71012567D01*
X146688133Y-70889635D01*
X146547484Y-70787447D01*
X146392578Y-70708518D01*
X146227241Y-70654797D01*
X146098454Y-70634399D01*
X146055526Y-70627600D01*
X145881674Y-70627600D01*
X145824436Y-70636665D01*
X145709960Y-70654797D01*
X145709957Y-70654797D01*
X145544621Y-70708518D01*
X145389715Y-70787447D01*
X145309469Y-70845749D01*
X145249067Y-70889635D01*
X145249065Y-70889637D01*
X145249064Y-70889637D01*
X145126137Y-71012564D01*
X145126137Y-71012565D01*
X145126135Y-71012567D01*
X145082249Y-71072969D01*
X145023947Y-71153215D01*
X144945018Y-71308121D01*
X144891297Y-71473457D01*
X144891297Y-71473460D01*
X144864100Y-71645174D01*
X144864100Y-71819025D01*
X144891297Y-71990739D01*
X144891297Y-71990742D01*
X144945018Y-72156078D01*
X145023947Y-72310984D01*
X145110937Y-72430715D01*
X145134417Y-72496520D01*
X145118592Y-72564574D01*
X145068486Y-72613269D01*
X145010619Y-72627600D01*
X144881674Y-72627600D01*
X144824436Y-72636665D01*
X144709960Y-72654797D01*
X144709957Y-72654797D01*
X144544621Y-72708518D01*
X144389715Y-72787447D01*
X144359496Y-72809403D01*
X144249067Y-72889635D01*
X144249065Y-72889637D01*
X144249064Y-72889637D01*
X144126136Y-73012565D01*
X144068918Y-73091319D01*
X144013587Y-73133985D01*
X143943974Y-73139963D01*
X143882179Y-73107357D01*
X143868282Y-73091319D01*
X143865148Y-73087005D01*
X143811065Y-73012567D01*
X143688133Y-72889635D01*
X143547484Y-72787447D01*
X143485138Y-72755680D01*
X143392578Y-72708518D01*
X143227241Y-72654797D01*
X143098454Y-72634399D01*
X143055526Y-72627600D01*
X142926581Y-72627600D01*
X142859542Y-72607915D01*
X142813787Y-72555111D01*
X142803843Y-72485953D01*
X142826262Y-72430715D01*
X142913253Y-72310984D01*
X142992180Y-72156081D01*
X143045903Y-71990738D01*
X143073100Y-71819026D01*
X143073100Y-71645174D01*
X143045903Y-71473462D01*
X143045902Y-71473458D01*
X143045902Y-71473457D01*
X142992181Y-71308121D01*
X142913252Y-71153215D01*
X142903624Y-71139963D01*
X142811065Y-71012567D01*
X142688133Y-70889635D01*
X142547484Y-70787447D01*
X142392578Y-70708518D01*
X142227241Y-70654797D01*
X142098454Y-70634399D01*
X142055526Y-70627600D01*
X141881674Y-70627600D01*
X141824436Y-70636665D01*
X141709960Y-70654797D01*
X141709957Y-70654797D01*
X141544621Y-70708518D01*
X141389715Y-70787447D01*
X141309469Y-70845749D01*
X141249067Y-70889635D01*
X141249065Y-70889637D01*
X141249064Y-70889637D01*
X141126136Y-71012565D01*
X141068918Y-71091319D01*
X141013587Y-71133985D01*
X140943974Y-71139963D01*
X140882179Y-71107357D01*
X140868282Y-71091319D01*
X140865148Y-71087005D01*
X140811065Y-71012567D01*
X140688133Y-70889635D01*
X140547484Y-70787447D01*
X140392578Y-70708518D01*
X140227241Y-70654797D01*
X140098454Y-70634399D01*
X140055526Y-70627600D01*
X139881674Y-70627600D01*
X139824436Y-70636665D01*
X139709960Y-70654797D01*
X139709957Y-70654797D01*
X139544621Y-70708518D01*
X139389715Y-70787447D01*
X139309469Y-70845749D01*
X139249067Y-70889635D01*
X139249065Y-70889637D01*
X139249064Y-70889637D01*
X139126136Y-71012565D01*
X139068918Y-71091319D01*
X139013587Y-71133985D01*
X138943974Y-71139963D01*
X138882179Y-71107357D01*
X138868282Y-71091319D01*
X138865148Y-71087005D01*
X138811065Y-71012567D01*
X138688133Y-70889635D01*
X138547484Y-70787447D01*
X138392578Y-70708518D01*
X138227241Y-70654797D01*
X138098454Y-70634399D01*
X138055526Y-70627600D01*
X137881674Y-70627600D01*
X137824436Y-70636665D01*
X137709960Y-70654797D01*
X137709957Y-70654797D01*
X137544621Y-70708518D01*
X137389715Y-70787447D01*
X137309469Y-70845749D01*
X137249067Y-70889635D01*
X137249065Y-70889637D01*
X137249064Y-70889637D01*
X137126137Y-71012564D01*
X137126137Y-71012565D01*
X137126135Y-71012567D01*
X137082249Y-71072969D01*
X137023947Y-71153215D01*
X136945018Y-71308121D01*
X136891297Y-71473457D01*
X136891297Y-71473460D01*
X136864100Y-71645174D01*
X135073100Y-71645174D01*
X135045903Y-71473462D01*
X135045902Y-71473458D01*
X135045902Y-71473457D01*
X134992181Y-71308121D01*
X134913252Y-71153215D01*
X134903624Y-71139963D01*
X134811065Y-71012567D01*
X134688133Y-70889635D01*
X134547484Y-70787447D01*
X134392578Y-70708518D01*
X134227241Y-70654797D01*
X134098454Y-70634399D01*
X134055526Y-70627600D01*
X133881674Y-70627600D01*
X133824436Y-70636665D01*
X133709960Y-70654797D01*
X133709957Y-70654797D01*
X133544621Y-70708518D01*
X133389715Y-70787447D01*
X133309469Y-70845749D01*
X133249067Y-70889635D01*
X133249065Y-70889637D01*
X133249064Y-70889637D01*
X133126136Y-71012565D01*
X133068918Y-71091319D01*
X133013587Y-71133985D01*
X132943974Y-71139963D01*
X132882179Y-71107357D01*
X132868282Y-71091319D01*
X132865148Y-71087005D01*
X132811065Y-71012567D01*
X132688133Y-70889635D01*
X132547484Y-70787447D01*
X132392578Y-70708518D01*
X132227241Y-70654797D01*
X132098454Y-70634399D01*
X132055526Y-70627600D01*
X131881674Y-70627600D01*
X131824436Y-70636665D01*
X131709960Y-70654797D01*
X131709957Y-70654797D01*
X131544621Y-70708518D01*
X131389715Y-70787447D01*
X131309469Y-70845749D01*
X131249067Y-70889635D01*
X131249065Y-70889637D01*
X131249064Y-70889637D01*
X131126137Y-71012564D01*
X131126137Y-71012565D01*
X131126135Y-71012567D01*
X131082249Y-71072969D01*
X131023947Y-71153215D01*
X130945018Y-71308121D01*
X130891297Y-71473457D01*
X130891297Y-71473460D01*
X130864100Y-71645174D01*
X121969100Y-71645174D01*
X121969100Y-67119905D01*
X128743100Y-67119905D01*
X128743100Y-67344294D01*
X128778199Y-67565905D01*
X128847538Y-67779306D01*
X128949405Y-67979228D01*
X129081283Y-68160744D01*
X129081287Y-68160749D01*
X129239950Y-68319412D01*
X129239955Y-68319416D01*
X129398283Y-68434447D01*
X129421475Y-68451297D01*
X129548864Y-68516205D01*
X129621393Y-68553161D01*
X129621395Y-68553161D01*
X129621398Y-68553163D01*
X129735784Y-68590329D01*
X129834794Y-68622500D01*
X130056406Y-68657600D01*
X130056411Y-68657600D01*
X130280794Y-68657600D01*
X130502405Y-68622500D01*
X130715802Y-68553163D01*
X130915725Y-68451297D01*
X131097251Y-68319411D01*
X131255911Y-68160751D01*
X131387797Y-67979225D01*
X131489663Y-67779302D01*
X131559000Y-67565905D01*
X131594100Y-67344294D01*
X131594100Y-67119905D01*
X151893100Y-67119905D01*
X151893100Y-67344294D01*
X151928199Y-67565905D01*
X151997538Y-67779306D01*
X152099405Y-67979228D01*
X152231283Y-68160744D01*
X152231287Y-68160749D01*
X152389950Y-68319412D01*
X152389955Y-68319416D01*
X152548283Y-68434447D01*
X152571475Y-68451297D01*
X152698864Y-68516205D01*
X152771393Y-68553161D01*
X152771395Y-68553161D01*
X152771398Y-68553163D01*
X152885784Y-68590329D01*
X152984794Y-68622500D01*
X153206406Y-68657600D01*
X153206411Y-68657600D01*
X153430794Y-68657600D01*
X153652405Y-68622500D01*
X153865802Y-68553163D01*
X154065725Y-68451297D01*
X154247251Y-68319411D01*
X154405911Y-68160751D01*
X154537797Y-67979225D01*
X154639663Y-67779302D01*
X154709000Y-67565905D01*
X154744100Y-67344294D01*
X154744100Y-67119905D01*
X154709000Y-66898294D01*
X154639661Y-66684893D01*
X154602705Y-66612364D01*
X154537797Y-66484975D01*
X154520947Y-66461783D01*
X154405916Y-66303455D01*
X154405912Y-66303450D01*
X154247249Y-66144787D01*
X154247244Y-66144783D01*
X154065728Y-66012905D01*
X154065727Y-66012904D01*
X154065725Y-66012903D01*
X154003292Y-65981092D01*
X153865806Y-65911038D01*
X153652405Y-65841699D01*
X153430794Y-65806600D01*
X153430789Y-65806600D01*
X153206411Y-65806600D01*
X153206406Y-65806600D01*
X152984794Y-65841699D01*
X152771393Y-65911038D01*
X152571471Y-66012905D01*
X152389955Y-66144783D01*
X152389950Y-66144787D01*
X152231287Y-66303450D01*
X152231283Y-66303455D01*
X152099405Y-66484971D01*
X151997538Y-66684893D01*
X151928199Y-66898294D01*
X151893100Y-67119905D01*
X131594100Y-67119905D01*
X131559000Y-66898294D01*
X131489661Y-66684893D01*
X131452705Y-66612364D01*
X131387797Y-66484975D01*
X131370947Y-66461783D01*
X131255916Y-66303455D01*
X131255912Y-66303450D01*
X131097249Y-66144787D01*
X131097244Y-66144783D01*
X130915728Y-66012905D01*
X130915727Y-66012904D01*
X130915725Y-66012903D01*
X130853292Y-65981092D01*
X130715806Y-65911038D01*
X130502405Y-65841699D01*
X130280794Y-65806600D01*
X130280789Y-65806600D01*
X130056411Y-65806600D01*
X130056406Y-65806600D01*
X129834794Y-65841699D01*
X129621393Y-65911038D01*
X129421471Y-66012905D01*
X129239955Y-66144783D01*
X129239950Y-66144787D01*
X129081287Y-66303450D01*
X129081283Y-66303455D01*
X128949405Y-66484971D01*
X128847538Y-66684893D01*
X128778199Y-66898294D01*
X128743100Y-67119905D01*
X121969100Y-67119905D01*
X121969100Y-59856600D01*
X121988785Y-59789561D01*
X122041589Y-59743806D01*
X122093100Y-59732600D01*
X174844100Y-59732600D01*
X174911139Y-59752285D01*
G37*
%TD.AperFunction*%
%TD*%
M02*
