%TF.GenerationSoftware,KiCad,Pcbnew,10.0.4*%
%TF.CreationDate,2026-06-29T15:09:08+02:00*%
%TF.ProjectId,CW308T_to_cardedge,43573330-3854-45f7-946f-5f6361726465,rev?*%
%TF.SameCoordinates,Original*%
%TF.FileFunction,Copper,L3,Inr*%
%TF.FilePolarity,Positive*%
%FSLAX46Y46*%
G04 Gerber Fmt 4.6, Leading zero omitted, Abs format (unit mm)*
G04 Created by KiCad (PCBNEW 10.0.4) date 2026-06-29 15:09:08*
%MOMM*%
%LPD*%
G01*
G04 APERTURE LIST*
%TA.AperFunction,ComponentPad*%
%ADD10R,2.794000X1.524000*%
%TD*%
%TA.AperFunction,ComponentPad*%
%ADD11O,2.794000X1.524000*%
%TD*%
%TA.AperFunction,ComponentPad*%
%ADD12R,1.524000X2.794000*%
%TD*%
%TA.AperFunction,ComponentPad*%
%ADD13O,1.524000X2.794000*%
%TD*%
%TA.AperFunction,ComponentPad*%
%ADD14C,6.350000*%
%TD*%
%TA.AperFunction,ComponentPad*%
%ADD15R,1.208000X1.208000*%
%TD*%
%TA.AperFunction,ComponentPad*%
%ADD16C,1.208000*%
%TD*%
%TA.AperFunction,ViaPad*%
%ADD17C,0.600000*%
%TD*%
%TA.AperFunction,Conductor*%
%ADD18C,0.200000*%
%TD*%
G04 APERTURE END LIST*
D10*
%TO.N,unconnected-(J1-SPARE1-PadA1)*%
%TO.C,J1*%
X124497600Y-87913100D03*
D11*
%TO.N,GND*%
X124497600Y-90453100D03*
%TO.N,/CLKOUT*%
X124497600Y-92993100D03*
%TO.N,GND*%
X124497600Y-95533100D03*
%TO.N,/CLKIN*%
X124497600Y-98073100D03*
%TO.N,GND*%
X124497600Y-100613100D03*
%TO.N,/GPIO1{slash}TX*%
X124497600Y-103153100D03*
%TO.N,/GPIO2{slash}RX*%
X124497600Y-105693100D03*
%TO.N,/GPIO3*%
X124497600Y-108233100D03*
%TO.N,/GPIO4{slash}TRIG*%
X124497600Y-110773100D03*
%TO.N,/nRST*%
X124497600Y-113313100D03*
%TO.N,/SCK*%
X124497600Y-115853100D03*
%TO.N,/MISO*%
X124497600Y-118393100D03*
%TO.N,/MOSI*%
X124497600Y-120933100D03*
%TO.N,GND*%
X124497600Y-123473100D03*
X124497600Y-126013100D03*
%TO.N,/PDIC*%
X124497600Y-128553100D03*
%TO.N,/PDID*%
X124497600Y-131093100D03*
%TO.N,unconnected-(J1-SPARE2-PadA19)*%
X124497600Y-133633100D03*
%TO.N,/IOVREF*%
X124497600Y-136173100D03*
D12*
%TO.N,GND*%
X124497600Y-141253100D03*
D13*
%TO.N,/JTAG_TRST*%
X127037600Y-141253100D03*
%TO.N,/JTAG_TDI*%
X129577600Y-141253100D03*
%TO.N,/JTAG_TDO*%
X132117600Y-141253100D03*
%TO.N,/JTAG_TMS*%
X134657600Y-141253100D03*
%TO.N,/JTAG_TCK*%
X137197600Y-141253100D03*
%TO.N,/JTAG_VREF*%
X139737600Y-141253100D03*
%TO.N,/JTAG_nRST*%
X142277600Y-141253100D03*
%TO.N,GND*%
X144817600Y-141253100D03*
X147357600Y-141253100D03*
%TO.N,/HDR1*%
X149897600Y-141253100D03*
%TO.N,/HDR2*%
X152437600Y-141253100D03*
%TO.N,/HDR3*%
X154977600Y-141253100D03*
%TO.N,/HDR4*%
X157517600Y-141253100D03*
%TO.N,/HDR5*%
X160057600Y-141253100D03*
%TO.N,/HDR6*%
X162597600Y-141253100D03*
%TO.N,/HDR7*%
X165137600Y-141253100D03*
%TO.N,/HDR8*%
X167677600Y-141253100D03*
%TO.N,/HDR9*%
X170217600Y-141253100D03*
%TO.N,/HDR10*%
X172757600Y-141253100D03*
D10*
%TO.N,GND*%
X172757600Y-87913100D03*
D11*
%TO.N,/SHUNTL*%
X172757600Y-90453100D03*
%TO.N,/SHUNTH*%
X172757600Y-92993100D03*
%TO.N,GND*%
X172757600Y-95533100D03*
%TO.N,/FILT_LP*%
X172757600Y-98073100D03*
%TO.N,/FILT_HP*%
X172757600Y-100613100D03*
%TO.N,GND*%
X172757600Y-103153100D03*
%TO.N,/FILTIN*%
X172757600Y-105693100D03*
%TO.N,GND*%
X172757600Y-108233100D03*
X172757600Y-110773100D03*
%TO.N,/VCC1.2*%
X172757600Y-113313100D03*
%TO.N,/VCC1.8*%
X172757600Y-115853100D03*
%TO.N,/VCC2.5*%
X172757600Y-118393100D03*
%TO.N,/VCC3.3*%
X172757600Y-120933100D03*
%TO.N,/VCC5.0*%
X172757600Y-123473100D03*
%TO.N,GND*%
X172757600Y-126013100D03*
X172757600Y-128553100D03*
%TO.N,/LED1*%
X172757600Y-131093100D03*
%TO.N,/LED2*%
X172757600Y-133633100D03*
%TO.N,/LED3*%
X172757600Y-136173100D03*
D14*
%TO.N,N/C*%
X147357600Y-133633100D03*
%TD*%
D15*
%TO.N,GND*%
%TO.C,CN1*%
X164968600Y-73732100D03*
D16*
X163968600Y-71732100D03*
%TO.N,/FILT_LP*%
X162968600Y-73732100D03*
%TO.N,/VCC2.5*%
X161968600Y-71732100D03*
%TO.N,/VCC3.3*%
X160968600Y-73732100D03*
%TO.N,/VCC5.0*%
X159968600Y-71732100D03*
%TO.N,/VCCADJ*%
X158968600Y-73732100D03*
%TO.N,GND*%
X157968600Y-71732100D03*
%TO.N,/HDR1*%
X156968600Y-73732100D03*
%TO.N,/HDR2*%
X155968600Y-71732100D03*
%TO.N,/HDR3*%
X154968600Y-73732100D03*
%TO.N,/HDR4*%
X151968600Y-71732100D03*
%TO.N,/HDR5*%
X150968600Y-73732100D03*
%TO.N,/HDR6*%
X149968600Y-71732100D03*
%TO.N,/HDR7*%
X148968600Y-73732100D03*
%TO.N,/HDR8*%
X147968600Y-71732100D03*
%TO.N,/HDR9*%
X146968600Y-73732100D03*
%TO.N,/HDR10*%
X145968600Y-71732100D03*
%TO.N,/nRST_OUT*%
X144968600Y-73732100D03*
%TO.N,GND*%
X143968600Y-71732100D03*
%TO.N,/TRACECLK*%
X142968600Y-73732100D03*
%TO.N,/TRACED0*%
X141968600Y-71732100D03*
%TO.N,/TRACED1*%
X140968600Y-73732100D03*
%TO.N,/TRACED2*%
X139968600Y-71732100D03*
%TO.N,/TRACED3*%
X138968600Y-73732100D03*
%TO.N,/JTAG_VREF*%
X137968600Y-71732100D03*
%TO.N,GND*%
X136968600Y-73732100D03*
X135968600Y-71732100D03*
%TO.N,/CLKIN*%
X134968600Y-73732100D03*
%TO.N,/CLKIN_n*%
X133968600Y-71732100D03*
%TO.N,/JTAG_nRST*%
X132968600Y-73732100D03*
%TO.N,/JTAG_TRST*%
X131968600Y-71732100D03*
%TO.N,/SHUNTL*%
X164968600Y-76232100D03*
%TO.N,/SHUNTH*%
X163968600Y-78232100D03*
%TO.N,GND*%
X162968600Y-76232100D03*
%TO.N,/FILT_HP*%
X161968600Y-78232100D03*
%TO.N,/FILTIN*%
X160968600Y-76232100D03*
%TO.N,/VCC1.0*%
X159968600Y-78232100D03*
%TO.N,/VCC1.2*%
X158968600Y-76232100D03*
%TO.N,/VCC1.8*%
X157968600Y-78232100D03*
%TO.N,GND*%
X156968600Y-76232100D03*
%TO.N,/IOVREF*%
X155968600Y-78232100D03*
%TO.N,/LED1*%
X154968600Y-76232100D03*
%TO.N,/LED2*%
X151968600Y-78232100D03*
%TO.N,/LED3*%
X150968600Y-76232100D03*
%TO.N,/nRST*%
X149968600Y-78232100D03*
%TO.N,GND*%
X148968600Y-76232100D03*
%TO.N,/GPIO1{slash}TX*%
X147968600Y-78232100D03*
%TO.N,/GPIO2{slash}RX*%
X146968600Y-76232100D03*
%TO.N,/GPIO3*%
X145968600Y-78232100D03*
%TO.N,/GPIO4{slash}TRIG*%
X144968600Y-76232100D03*
%TO.N,/SCK*%
X143968600Y-78232100D03*
%TO.N,GND*%
X142968600Y-76232100D03*
X141968600Y-78232100D03*
%TO.N,/MISO*%
X140968600Y-76232100D03*
%TO.N,/MOSI*%
X139968600Y-78232100D03*
%TO.N,/PDIC*%
X138968600Y-76232100D03*
%TO.N,/PDID*%
X137968600Y-78232100D03*
%TO.N,/CLKOUT*%
X136968600Y-76232100D03*
%TO.N,/CLKOUT_n*%
X135968600Y-78232100D03*
%TO.N,/JTAG_TDI*%
X134968600Y-76232100D03*
%TO.N,/JTAG_TDO*%
X133968600Y-78232100D03*
%TO.N,/JTAG_TMS*%
X132968600Y-76232100D03*
%TO.N,/JTAG_TCK*%
X131968600Y-78232100D03*
%TD*%
D17*
%TO.N,GND*%
X172968600Y-138732100D03*
X172968600Y-104232100D03*
X172968600Y-96732100D03*
X172968600Y-84732100D03*
X172968600Y-81732100D03*
X172968600Y-78732100D03*
X172968600Y-75732100D03*
X171468600Y-129732100D03*
X171468600Y-72732100D03*
X171468600Y-69732100D03*
X171468600Y-66732100D03*
X171468600Y-63732100D03*
X171468600Y-60732100D03*
X169968600Y-116232100D03*
X169968600Y-113232100D03*
X169968600Y-108732100D03*
X169968600Y-105732100D03*
X169968600Y-101232100D03*
X169968600Y-96732100D03*
X169968600Y-93732100D03*
X169968600Y-90732100D03*
X169968600Y-86232100D03*
X169968600Y-81732100D03*
X169968600Y-78732100D03*
X169968600Y-75732100D03*
X168468600Y-125232100D03*
X168468600Y-122232100D03*
X168468600Y-72732100D03*
X168468600Y-69732100D03*
X168468600Y-66732100D03*
X168468600Y-63732100D03*
X168468600Y-60732100D03*
X166968600Y-137232100D03*
X166968600Y-134232100D03*
X166968600Y-131232100D03*
X166968600Y-128232100D03*
X166968600Y-113232100D03*
X166968600Y-110232100D03*
X166968600Y-105732100D03*
X166968600Y-102732100D03*
X166968600Y-98232100D03*
X166968600Y-93732100D03*
X166968600Y-90732100D03*
X166968600Y-87732100D03*
X166968600Y-83232100D03*
X166968600Y-78732100D03*
X166968600Y-75732100D03*
X165468600Y-123732100D03*
X165468600Y-120732100D03*
X165468600Y-72732100D03*
X165468600Y-69732100D03*
X165468600Y-66732100D03*
X165468600Y-63732100D03*
X165468600Y-60732100D03*
X163968600Y-134232100D03*
X163968600Y-117732100D03*
X163968600Y-110232100D03*
X163968600Y-107232100D03*
X163968600Y-102732100D03*
X163968600Y-99732100D03*
X163968600Y-95232100D03*
X163968600Y-92232100D03*
X163968600Y-89232100D03*
X163968600Y-86232100D03*
X163968600Y-83232100D03*
X163968600Y-80232100D03*
X162468600Y-137232100D03*
X162468600Y-129732100D03*
X162468600Y-126732100D03*
X162468600Y-120732100D03*
X162468600Y-69732100D03*
X162468600Y-66732100D03*
X162468600Y-63732100D03*
X162468600Y-60732100D03*
X160968600Y-134232100D03*
X160968600Y-117732100D03*
X160968600Y-114732100D03*
X160968600Y-110232100D03*
X160968600Y-107232100D03*
X160968600Y-104232100D03*
X159468600Y-129732100D03*
X159468600Y-126732100D03*
X159468600Y-123732100D03*
X159468600Y-69732100D03*
X159468600Y-66732100D03*
X159468600Y-63732100D03*
X159468600Y-60732100D03*
X157968600Y-116232100D03*
X157968600Y-113232100D03*
X157968600Y-110232100D03*
X156468600Y-137232100D03*
X156468600Y-134232100D03*
X156468600Y-126732100D03*
X156468600Y-123732100D03*
X156468600Y-120732100D03*
X156468600Y-69732100D03*
X156468600Y-66732100D03*
X156468600Y-63732100D03*
X156468600Y-60732100D03*
X153468600Y-137232100D03*
X153468600Y-69732100D03*
X153468600Y-63732100D03*
X153468600Y-60732100D03*
X151968600Y-132732100D03*
X151968600Y-129732100D03*
X151968600Y-126732100D03*
X151968600Y-122232100D03*
X151968600Y-119232100D03*
X151968600Y-116232100D03*
X150468600Y-69732100D03*
X150468600Y-66732100D03*
X150468600Y-63732100D03*
X150468600Y-60732100D03*
X148968600Y-138732100D03*
X148968600Y-128232100D03*
X148968600Y-125232100D03*
X148968600Y-122232100D03*
X148968600Y-119232100D03*
X148968600Y-114732100D03*
X148968600Y-110232100D03*
X148968600Y-107232100D03*
X148968600Y-104232100D03*
X148968600Y-101232100D03*
X148968600Y-98232100D03*
X148968600Y-95232100D03*
X148968600Y-92232100D03*
X148968600Y-89232100D03*
X148968600Y-86232100D03*
X148968600Y-83232100D03*
X148968600Y-80232100D03*
X147468600Y-69732100D03*
X147468600Y-66732100D03*
X147468600Y-63732100D03*
X147468600Y-60732100D03*
X145968600Y-141732100D03*
X145968600Y-138732100D03*
X145968600Y-128232100D03*
X145968600Y-125232100D03*
X145968600Y-122232100D03*
X145968600Y-119232100D03*
X145968600Y-113232100D03*
X145968600Y-110232100D03*
X145968600Y-107232100D03*
X145968600Y-104232100D03*
X145968600Y-101232100D03*
X145968600Y-98232100D03*
X145968600Y-95232100D03*
X144468600Y-92232100D03*
X144468600Y-86232100D03*
X144468600Y-69732100D03*
X144468600Y-66732100D03*
X144468600Y-63732100D03*
X144468600Y-60732100D03*
X142968600Y-138732100D03*
X142968600Y-135732100D03*
X142968600Y-132732100D03*
X142968600Y-129732100D03*
X142968600Y-126732100D03*
X142968600Y-123732100D03*
X142968600Y-120732100D03*
X142968600Y-116232100D03*
X142968600Y-113232100D03*
X142968600Y-110232100D03*
X142968600Y-107232100D03*
X142968600Y-104232100D03*
X142968600Y-101232100D03*
X142968600Y-98232100D03*
X142968600Y-95232100D03*
X141468600Y-69732100D03*
X141468600Y-66732100D03*
X141468600Y-63732100D03*
X141468600Y-60732100D03*
X139968600Y-135732100D03*
X139968600Y-132732100D03*
X139968600Y-129732100D03*
X139968600Y-126732100D03*
X139968600Y-123732100D03*
X139968600Y-119232100D03*
X139968600Y-116232100D03*
X139968600Y-113232100D03*
X139968600Y-110232100D03*
X139968600Y-107232100D03*
X139968600Y-104232100D03*
X139968600Y-101232100D03*
X139968600Y-98232100D03*
X139968600Y-90732100D03*
X139968600Y-87732100D03*
X138468600Y-140232100D03*
X138468600Y-69732100D03*
X138468600Y-66732100D03*
X138468600Y-63732100D03*
X138468600Y-60732100D03*
X136968600Y-135732100D03*
X136968600Y-132732100D03*
X136968600Y-129732100D03*
X136968600Y-126732100D03*
X136968600Y-122232100D03*
X135468600Y-69732100D03*
X135468600Y-66732100D03*
X135468600Y-63732100D03*
X135468600Y-60732100D03*
X133968600Y-138732100D03*
X132468600Y-69732100D03*
X132468600Y-66732100D03*
X132468600Y-63732100D03*
X132468600Y-60732100D03*
X130968600Y-135732100D03*
X130968600Y-132732100D03*
X130968600Y-128232100D03*
X130968600Y-120732100D03*
X130968600Y-117732100D03*
X130968600Y-114732100D03*
X130968600Y-110232100D03*
X130968600Y-107232100D03*
X130968600Y-99732100D03*
X130968600Y-96732100D03*
X130968600Y-92232100D03*
X130968600Y-89232100D03*
X130968600Y-86232100D03*
X130968600Y-83232100D03*
X130968600Y-80232100D03*
X129468600Y-75732100D03*
X129468600Y-72732100D03*
X129468600Y-69732100D03*
X129468600Y-63732100D03*
X129468600Y-60732100D03*
X127968600Y-138732100D03*
X127968600Y-135732100D03*
X127968600Y-131232100D03*
X127968600Y-123732100D03*
X127968600Y-120732100D03*
X127968600Y-117732100D03*
X127968600Y-113232100D03*
X127968600Y-110232100D03*
X127968600Y-102732100D03*
X127968600Y-99732100D03*
X127968600Y-95232100D03*
X127968600Y-92232100D03*
X127968600Y-87732100D03*
X127968600Y-84732100D03*
X127968600Y-81732100D03*
X127968600Y-78732100D03*
X126468600Y-75732100D03*
X126468600Y-72732100D03*
X126468600Y-69732100D03*
X126468600Y-66732100D03*
X126468600Y-63732100D03*
X126468600Y-60732100D03*
X123468600Y-138732100D03*
X123468600Y-122232100D03*
X123468600Y-96732100D03*
X123468600Y-89232100D03*
X123468600Y-84732100D03*
X123468600Y-81732100D03*
X123468600Y-78732100D03*
X123468600Y-75732100D03*
X123468600Y-72732100D03*
X123468600Y-69732100D03*
X123468600Y-66732100D03*
X123468600Y-63732100D03*
X123468600Y-60732100D03*
%TO.N,/GPIO1{slash}TX*%
X144468600Y-81036900D03*
%TO.N,/MOSI*%
X126248700Y-99175700D03*
%TO.N,/JTAG_TCK*%
X132213200Y-125653700D03*
%TO.N,/HDR2*%
X155357700Y-132851500D03*
%TO.N,/HDR3*%
X155675000Y-133707500D03*
%TO.N,/HDR4*%
X152431300Y-127851700D03*
%TO.N,/HDR5*%
X152201500Y-125160800D03*
%TO.N,/HDR6*%
X158388700Y-119131200D03*
%TO.N,/HDR7*%
X159237000Y-121188400D03*
%TO.N,/HDR10*%
X157468600Y-86878300D03*
%TD*%
%TO.N,/CLKIN*%
D18*
X133969900Y-76532300D02*
X132965600Y-77536600D01*
X124497600Y-98073100D02*
X126196300Y-98073100D01*
X134968600Y-73732100D02*
X133969900Y-74730800D01*
X132965600Y-91303800D02*
X126196300Y-98073100D01*
X132965600Y-77536600D02*
X132965600Y-91303800D01*
X133969900Y-74730800D02*
X133969900Y-76532300D01*
%TO.N,/MISO*%
X136525800Y-75317200D02*
X140053700Y-75317200D01*
X126196300Y-118393100D02*
X134968600Y-109620800D01*
X140053700Y-75317200D02*
X140968600Y-76232100D01*
X134968600Y-77640100D02*
X135968600Y-76640100D01*
X135968600Y-75874400D02*
X136525800Y-75317200D01*
X124497600Y-118393100D02*
X126196300Y-118393100D01*
X135968600Y-76640100D02*
X135968600Y-75874400D01*
X134968600Y-109620800D02*
X134968600Y-77640100D01*
%TO.N,/PDIC*%
X126196300Y-128553100D02*
X136968600Y-117780800D01*
X136968600Y-77944400D02*
X138680900Y-76232100D01*
X124497600Y-128553100D02*
X126196300Y-128553100D01*
X138680900Y-76232100D02*
X138968600Y-76232100D01*
X136968600Y-117780800D02*
X136968600Y-77944400D01*
%TO.N,/PDID*%
X137968600Y-78232100D02*
X137968600Y-119047500D01*
X137968600Y-119047500D02*
X126196300Y-130819800D01*
X126196300Y-130819800D02*
X126196300Y-131093100D01*
X124497600Y-131093100D02*
X126196300Y-131093100D01*
%TO.N,/JTAG_TCK*%
X137197600Y-141253100D02*
X137197600Y-139554400D01*
X132213200Y-134570000D02*
X137197600Y-139554400D01*
X132213200Y-125653700D02*
X132213200Y-134570000D01*
%TO.N,/JTAG_nRST*%
X141031300Y-138308100D02*
X142277600Y-139554400D01*
X136602200Y-74706400D02*
X140758300Y-74706400D01*
X141031300Y-77470900D02*
X141031300Y-138308100D01*
X135968600Y-73439000D02*
X135968600Y-74072800D01*
X142277600Y-141253100D02*
X142277600Y-139554400D01*
X141911000Y-76591200D02*
X141031300Y-77470900D01*
X133889700Y-72811000D02*
X135340600Y-72811000D01*
X141911000Y-75859100D02*
X141911000Y-76591200D01*
X135340600Y-72811000D02*
X135968600Y-73439000D01*
X140758300Y-74706400D02*
X141911000Y-75859100D01*
X135968600Y-74072800D02*
X136602200Y-74706400D01*
X132968600Y-73732100D02*
X133889700Y-72811000D01*
%TO.N,/HDR1*%
X153975800Y-135476200D02*
X153975800Y-73436800D01*
X154670800Y-72741800D02*
X155978300Y-72741800D01*
X155978300Y-72741800D02*
X156968600Y-73732100D01*
X153975800Y-73436800D02*
X154670800Y-72741800D01*
X149897600Y-139554400D02*
X153975800Y-135476200D01*
X149897600Y-141253100D02*
X149897600Y-139554400D01*
%TO.N,/HDR2*%
X156317900Y-71732100D02*
X157875400Y-73289600D01*
X156968600Y-86527500D02*
X155357700Y-88138400D01*
X155968600Y-71732100D02*
X156317900Y-71732100D01*
X157875400Y-76626800D02*
X156968600Y-77533600D01*
X156968600Y-77533600D02*
X156968600Y-86527500D01*
X157875400Y-73289600D02*
X157875400Y-76626800D01*
X155357700Y-88138400D02*
X155357700Y-132851500D01*
%TO.N,/HDR3*%
X154756000Y-133100600D02*
X155362900Y-133707500D01*
X155875400Y-74638900D02*
X155875400Y-77044500D01*
X155362900Y-133707500D02*
X155675000Y-133707500D01*
X155875400Y-77044500D02*
X154756000Y-78163900D01*
X154968600Y-73732100D02*
X155875400Y-74638900D01*
X154756000Y-78163900D02*
X154756000Y-133100600D01*
%TO.N,/HDR4*%
X152910300Y-127372700D02*
X152431300Y-127851700D01*
X151968600Y-71732100D02*
X152910300Y-72673800D01*
X152910300Y-72673800D02*
X152910300Y-127372700D01*
%TO.N,/HDR5*%
X151062900Y-77857000D02*
X151062900Y-124022200D01*
X150968600Y-73732100D02*
X151874800Y-74638300D01*
X151062900Y-124022200D02*
X152201500Y-125160800D01*
X151874800Y-74638300D02*
X151874800Y-77045100D01*
X151874800Y-77045100D02*
X151062900Y-77857000D01*
%TO.N,/HDR6*%
X162597600Y-141253100D02*
X162597600Y-139554400D01*
X162597600Y-139554400D02*
X158388700Y-135345500D01*
X158388700Y-135345500D02*
X158388700Y-119131200D01*
%TO.N,/HDR7*%
X165137600Y-127089000D02*
X159237000Y-121188400D01*
X165137600Y-141253100D02*
X165137600Y-127089000D01*
%TO.N,/HDR10*%
X157468600Y-108184100D02*
X169849600Y-120565100D01*
X169849600Y-120565100D02*
X169849600Y-136646400D01*
X172757600Y-141253100D02*
X172757600Y-139554400D01*
X169849600Y-136646400D02*
X172757600Y-139554400D01*
X157468600Y-86878300D02*
X157468600Y-108184100D01*
%TO.N,/FILT_LP*%
X171058900Y-83996800D02*
X171058900Y-98073100D01*
X163969700Y-76907600D02*
X171058900Y-83996800D01*
X163969700Y-74733200D02*
X163969700Y-76907600D01*
X162968600Y-73732100D02*
X163969700Y-74733200D01*
X172757600Y-98073100D02*
X171058900Y-98073100D01*
%TO.N,/FILT_HP*%
X172757600Y-100613100D02*
X171058900Y-100613100D01*
X161968600Y-78232100D02*
X161968600Y-91522800D01*
X161968600Y-91522800D02*
X171058900Y-100613100D01*
%TO.N,/VCC1.2*%
X160968600Y-77882800D02*
X160968600Y-103222800D01*
X172757600Y-113313100D02*
X171058900Y-113313100D01*
X159317900Y-76232100D02*
X160968600Y-77882800D01*
X158968600Y-76232100D02*
X159317900Y-76232100D01*
X160968600Y-103222800D02*
X171058900Y-113313100D01*
%TO.N,/VCC1.8*%
X171058900Y-115853100D02*
X158070300Y-102864500D01*
X158070300Y-78333800D02*
X157968600Y-78232100D01*
X158070300Y-102864500D02*
X158070300Y-78333800D01*
X172757600Y-115853100D02*
X171058900Y-115853100D01*
%TD*%
%TA.AperFunction,Conductor*%
%TO.N,GND*%
G36*
X174911139Y-59752285D02*
G01*
X174956894Y-59805089D01*
X174968100Y-59856600D01*
X174968100Y-143107600D01*
X174948415Y-143174639D01*
X174895611Y-143220394D01*
X174844100Y-143231600D01*
X173418226Y-143231600D01*
X173351187Y-143211915D01*
X173305432Y-143159111D01*
X173295488Y-143089953D01*
X173324513Y-143026397D01*
X173361931Y-142997115D01*
X173419294Y-142967887D01*
X173580064Y-142851081D01*
X173720581Y-142710564D01*
X173837387Y-142549794D01*
X173927605Y-142372732D01*
X173989013Y-142183736D01*
X174020100Y-141987461D01*
X174020100Y-140518739D01*
X173989013Y-140322464D01*
X173927605Y-140133468D01*
X173927605Y-140133467D01*
X173837386Y-139956405D01*
X173720581Y-139795636D01*
X173580064Y-139655119D01*
X173419294Y-139538313D01*
X173419293Y-139538312D01*
X173419287Y-139538308D01*
X173419288Y-139538308D01*
X173417146Y-139537217D01*
X173416480Y-139536587D01*
X173415142Y-139535768D01*
X173415314Y-139535486D01*
X173396204Y-139517435D01*
X173373333Y-139499899D01*
X173369778Y-139492472D01*
X173366354Y-139489238D01*
X173356777Y-139468729D01*
X173355022Y-139463853D01*
X173317177Y-139322615D01*
X173288239Y-139272495D01*
X173238120Y-139185684D01*
X173126316Y-139073880D01*
X173126315Y-139073879D01*
X173121985Y-139069549D01*
X173121974Y-139069539D01*
X171644076Y-137591641D01*
X171610591Y-137530318D01*
X171615575Y-137460626D01*
X171657447Y-137404693D01*
X171722911Y-137380276D01*
X171770075Y-137386029D01*
X171790702Y-137392730D01*
X171826964Y-137404513D01*
X172023239Y-137435600D01*
X172023240Y-137435600D01*
X173491960Y-137435600D01*
X173491961Y-137435600D01*
X173688236Y-137404513D01*
X173877232Y-137343105D01*
X174054294Y-137252887D01*
X174215064Y-137136081D01*
X174355581Y-136995564D01*
X174472387Y-136834794D01*
X174562605Y-136657732D01*
X174624013Y-136468736D01*
X174655100Y-136272461D01*
X174655100Y-136073739D01*
X174624013Y-135877464D01*
X174593309Y-135782966D01*
X174562606Y-135688470D01*
X174562605Y-135688467D01*
X174472386Y-135511405D01*
X174355581Y-135350636D01*
X174215064Y-135210119D01*
X174054294Y-135093313D01*
X173897818Y-135013584D01*
X173847023Y-134965610D01*
X173830228Y-134897789D01*
X173852765Y-134831654D01*
X173897818Y-134792615D01*
X174054294Y-134712887D01*
X174215064Y-134596081D01*
X174355581Y-134455564D01*
X174472387Y-134294794D01*
X174562605Y-134117732D01*
X174624013Y-133928736D01*
X174655100Y-133732461D01*
X174655100Y-133533739D01*
X174624013Y-133337464D01*
X174593309Y-133242966D01*
X174562606Y-133148470D01*
X174562605Y-133148467D01*
X174498615Y-133022881D01*
X174472387Y-132971406D01*
X174355581Y-132810636D01*
X174215064Y-132670119D01*
X174054294Y-132553313D01*
X173897818Y-132473584D01*
X173847023Y-132425610D01*
X173830228Y-132357789D01*
X173852765Y-132291654D01*
X173897818Y-132252615D01*
X174054294Y-132172887D01*
X174215064Y-132056081D01*
X174355581Y-131915564D01*
X174472387Y-131754794D01*
X174562605Y-131577732D01*
X174624013Y-131388736D01*
X174655100Y-131192461D01*
X174655100Y-130993739D01*
X174624013Y-130797464D01*
X174562605Y-130608468D01*
X174562605Y-130608467D01*
X174495476Y-130476720D01*
X174472387Y-130431406D01*
X174355581Y-130270636D01*
X174215064Y-130130119D01*
X174054294Y-130013313D01*
X174014420Y-129992996D01*
X173877232Y-129923094D01*
X173877229Y-129923093D01*
X173688237Y-129861687D01*
X173590098Y-129846143D01*
X173491961Y-129830600D01*
X172023239Y-129830600D01*
X171957814Y-129840962D01*
X171826962Y-129861687D01*
X171637970Y-129923093D01*
X171637967Y-129923094D01*
X171460905Y-130013313D01*
X171300133Y-130130121D01*
X171159621Y-130270633D01*
X171042813Y-130431405D01*
X170952594Y-130608467D01*
X170952593Y-130608470D01*
X170891187Y-130797462D01*
X170860100Y-130993739D01*
X170860100Y-131192460D01*
X170891187Y-131388737D01*
X170952593Y-131577729D01*
X170952594Y-131577732D01*
X171009378Y-131689175D01*
X171042813Y-131754794D01*
X171159619Y-131915564D01*
X171300136Y-132056081D01*
X171460906Y-132172887D01*
X171579432Y-132233279D01*
X171617380Y-132252615D01*
X171668176Y-132300590D01*
X171684971Y-132368411D01*
X171662433Y-132434546D01*
X171617380Y-132473585D01*
X171460905Y-132553313D01*
X171300133Y-132670121D01*
X171159621Y-132810633D01*
X171042813Y-132971405D01*
X170952594Y-133148467D01*
X170952593Y-133148470D01*
X170891187Y-133337462D01*
X170860100Y-133533739D01*
X170860100Y-133732460D01*
X170891187Y-133928737D01*
X170952593Y-134117729D01*
X170952594Y-134117732D01*
X171008772Y-134227986D01*
X171042813Y-134294794D01*
X171159619Y-134455564D01*
X171300136Y-134596081D01*
X171460906Y-134712887D01*
X171579432Y-134773279D01*
X171617380Y-134792615D01*
X171668176Y-134840590D01*
X171684971Y-134908411D01*
X171662433Y-134974546D01*
X171617380Y-135013585D01*
X171460905Y-135093313D01*
X171300133Y-135210121D01*
X171159621Y-135350633D01*
X171042813Y-135511405D01*
X170952594Y-135688467D01*
X170952593Y-135688470D01*
X170891187Y-135877462D01*
X170860100Y-136073739D01*
X170860100Y-136272460D01*
X170891187Y-136468739D01*
X170909670Y-136525625D01*
X170911665Y-136595466D01*
X170875584Y-136655299D01*
X170812882Y-136686126D01*
X170743468Y-136678161D01*
X170704058Y-136651623D01*
X170486419Y-136433984D01*
X170452934Y-136372661D01*
X170450100Y-136346303D01*
X170450100Y-120486045D01*
X170450100Y-120486043D01*
X170417824Y-120365590D01*
X170409177Y-120333315D01*
X170409177Y-120333314D01*
X170380239Y-120283195D01*
X170380237Y-120283192D01*
X170330120Y-120196384D01*
X170218316Y-120084580D01*
X170218315Y-120084579D01*
X170213985Y-120080249D01*
X170213974Y-120080239D01*
X158105419Y-107971684D01*
X158071934Y-107910361D01*
X158069100Y-107884003D01*
X158069100Y-104011897D01*
X158088785Y-103944858D01*
X158141589Y-103899103D01*
X158210747Y-103889159D01*
X158274303Y-103918184D01*
X158280781Y-103924216D01*
X170574039Y-116217474D01*
X170574049Y-116217485D01*
X170578379Y-116221815D01*
X170578380Y-116221816D01*
X170690184Y-116333620D01*
X170776995Y-116383739D01*
X170827115Y-116412677D01*
X170968352Y-116450521D01*
X170973228Y-116452276D01*
X170997416Y-116469951D01*
X171022991Y-116485540D01*
X171027315Y-116491799D01*
X171029641Y-116493499D01*
X171031100Y-116497278D01*
X171041721Y-116512651D01*
X171042813Y-116514794D01*
X171159619Y-116675564D01*
X171300136Y-116816081D01*
X171460906Y-116932887D01*
X171579432Y-116993279D01*
X171617380Y-117012615D01*
X171668176Y-117060590D01*
X171684971Y-117128411D01*
X171662433Y-117194546D01*
X171617380Y-117233585D01*
X171460905Y-117313313D01*
X171300133Y-117430121D01*
X171159621Y-117570633D01*
X171042813Y-117731405D01*
X170952594Y-117908467D01*
X170952593Y-117908470D01*
X170891187Y-118097462D01*
X170860100Y-118293739D01*
X170860100Y-118492461D01*
X170862785Y-118509411D01*
X170891187Y-118688737D01*
X170952593Y-118877729D01*
X170952594Y-118877732D01*
X171031049Y-119031706D01*
X171042813Y-119054794D01*
X171159619Y-119215564D01*
X171300136Y-119356081D01*
X171460906Y-119472887D01*
X171534474Y-119510372D01*
X171617380Y-119552615D01*
X171668176Y-119600590D01*
X171684971Y-119668411D01*
X171662433Y-119734546D01*
X171617380Y-119773585D01*
X171460905Y-119853313D01*
X171300133Y-119970121D01*
X171159621Y-120110633D01*
X171042813Y-120271405D01*
X170952594Y-120448467D01*
X170952593Y-120448470D01*
X170891187Y-120637462D01*
X170860100Y-120833739D01*
X170860100Y-121032460D01*
X170891187Y-121228737D01*
X170952593Y-121417729D01*
X170952594Y-121417732D01*
X171042813Y-121594794D01*
X171159619Y-121755564D01*
X171300136Y-121896081D01*
X171460906Y-122012887D01*
X171579432Y-122073279D01*
X171617380Y-122092615D01*
X171668176Y-122140590D01*
X171684971Y-122208411D01*
X171662433Y-122274546D01*
X171617380Y-122313585D01*
X171460905Y-122393313D01*
X171300133Y-122510121D01*
X171159621Y-122650633D01*
X171042813Y-122811405D01*
X170952594Y-122988467D01*
X170952593Y-122988470D01*
X170891187Y-123177462D01*
X170860100Y-123373739D01*
X170860100Y-123572460D01*
X170891187Y-123768737D01*
X170952593Y-123957729D01*
X170952594Y-123957732D01*
X171025723Y-124101254D01*
X171042813Y-124134794D01*
X171159619Y-124295564D01*
X171300136Y-124436081D01*
X171460906Y-124552887D01*
X171547749Y-124597135D01*
X171637967Y-124643105D01*
X171637970Y-124643106D01*
X171732466Y-124673809D01*
X171826964Y-124704513D01*
X172023239Y-124735600D01*
X172023240Y-124735600D01*
X173491960Y-124735600D01*
X173491961Y-124735600D01*
X173688236Y-124704513D01*
X173877232Y-124643105D01*
X174054294Y-124552887D01*
X174215064Y-124436081D01*
X174355581Y-124295564D01*
X174472387Y-124134794D01*
X174562605Y-123957732D01*
X174624013Y-123768736D01*
X174655100Y-123572461D01*
X174655100Y-123373739D01*
X174624013Y-123177464D01*
X174562605Y-122988468D01*
X174562605Y-122988467D01*
X174472386Y-122811405D01*
X174355581Y-122650636D01*
X174215064Y-122510119D01*
X174054294Y-122393313D01*
X173897818Y-122313584D01*
X173847023Y-122265610D01*
X173830228Y-122197789D01*
X173852765Y-122131654D01*
X173897818Y-122092615D01*
X174054294Y-122012887D01*
X174215064Y-121896081D01*
X174355581Y-121755564D01*
X174472387Y-121594794D01*
X174562605Y-121417732D01*
X174624013Y-121228736D01*
X174655100Y-121032461D01*
X174655100Y-120833739D01*
X174624013Y-120637464D01*
X174593309Y-120542966D01*
X174562606Y-120448470D01*
X174562605Y-120448467D01*
X174503931Y-120333314D01*
X174472387Y-120271406D01*
X174355581Y-120110636D01*
X174215064Y-119970119D01*
X174054294Y-119853313D01*
X173897818Y-119773584D01*
X173847023Y-119725610D01*
X173830228Y-119657789D01*
X173852765Y-119591654D01*
X173897818Y-119552615D01*
X174054294Y-119472887D01*
X174215064Y-119356081D01*
X174355581Y-119215564D01*
X174472387Y-119054794D01*
X174562605Y-118877732D01*
X174624013Y-118688736D01*
X174655100Y-118492461D01*
X174655100Y-118293739D01*
X174624013Y-118097464D01*
X174562605Y-117908468D01*
X174562605Y-117908467D01*
X174472386Y-117731405D01*
X174355581Y-117570636D01*
X174215064Y-117430119D01*
X174054294Y-117313313D01*
X173897818Y-117233584D01*
X173847023Y-117185610D01*
X173830228Y-117117789D01*
X173852765Y-117051654D01*
X173897818Y-117012615D01*
X174054294Y-116932887D01*
X174215064Y-116816081D01*
X174355581Y-116675564D01*
X174472387Y-116514794D01*
X174562605Y-116337732D01*
X174624013Y-116148736D01*
X174655100Y-115952461D01*
X174655100Y-115753739D01*
X174624013Y-115557464D01*
X174562605Y-115368468D01*
X174562605Y-115368467D01*
X174472386Y-115191405D01*
X174355581Y-115030636D01*
X174215064Y-114890119D01*
X174054294Y-114773313D01*
X173897818Y-114693584D01*
X173847023Y-114645610D01*
X173830228Y-114577789D01*
X173852765Y-114511654D01*
X173897818Y-114472615D01*
X174054294Y-114392887D01*
X174215064Y-114276081D01*
X174355581Y-114135564D01*
X174472387Y-113974794D01*
X174562605Y-113797732D01*
X174624013Y-113608736D01*
X174655100Y-113412461D01*
X174655100Y-113213739D01*
X174624013Y-113017464D01*
X174562605Y-112828468D01*
X174562605Y-112828467D01*
X174472386Y-112651405D01*
X174355581Y-112490636D01*
X174215064Y-112350119D01*
X174054294Y-112233313D01*
X173877232Y-112143094D01*
X173877229Y-112143093D01*
X173688237Y-112081687D01*
X173590098Y-112066143D01*
X173491961Y-112050600D01*
X172023239Y-112050600D01*
X171957814Y-112060962D01*
X171826962Y-112081687D01*
X171637970Y-112143093D01*
X171637967Y-112143094D01*
X171460905Y-112233313D01*
X171300133Y-112350121D01*
X171210326Y-112439929D01*
X171149003Y-112473414D01*
X171079311Y-112468430D01*
X171034964Y-112439929D01*
X164188774Y-105593739D01*
X170860100Y-105593739D01*
X170860100Y-105792460D01*
X170891187Y-105988737D01*
X170952593Y-106177729D01*
X170952594Y-106177732D01*
X171042813Y-106354794D01*
X171159619Y-106515564D01*
X171300136Y-106656081D01*
X171460906Y-106772887D01*
X171547749Y-106817135D01*
X171637967Y-106863105D01*
X171637970Y-106863106D01*
X171732466Y-106893809D01*
X171826964Y-106924513D01*
X172023239Y-106955600D01*
X172023240Y-106955600D01*
X173491960Y-106955600D01*
X173491961Y-106955600D01*
X173688236Y-106924513D01*
X173877232Y-106863105D01*
X174054294Y-106772887D01*
X174215064Y-106656081D01*
X174355581Y-106515564D01*
X174472387Y-106354794D01*
X174562605Y-106177732D01*
X174624013Y-105988736D01*
X174655100Y-105792461D01*
X174655100Y-105593739D01*
X174624013Y-105397464D01*
X174562605Y-105208468D01*
X174562605Y-105208467D01*
X174472386Y-105031405D01*
X174355581Y-104870636D01*
X174215064Y-104730119D01*
X174054294Y-104613313D01*
X173877232Y-104523094D01*
X173877229Y-104523093D01*
X173688237Y-104461687D01*
X173590098Y-104446143D01*
X173491961Y-104430600D01*
X172023239Y-104430600D01*
X171957814Y-104440962D01*
X171826962Y-104461687D01*
X171637970Y-104523093D01*
X171637967Y-104523094D01*
X171460905Y-104613313D01*
X171300133Y-104730121D01*
X171159621Y-104870633D01*
X171042813Y-105031405D01*
X170952594Y-105208467D01*
X170952593Y-105208470D01*
X170891187Y-105397462D01*
X170860100Y-105593739D01*
X164188774Y-105593739D01*
X161605419Y-103010384D01*
X161571934Y-102949061D01*
X161569100Y-102922703D01*
X161569100Y-92271897D01*
X161588785Y-92204858D01*
X161641589Y-92159103D01*
X161710747Y-92149159D01*
X161774303Y-92178184D01*
X161780780Y-92184215D01*
X170690184Y-101093620D01*
X170690186Y-101093621D01*
X170690190Y-101093624D01*
X170827109Y-101172673D01*
X170827116Y-101172677D01*
X170963336Y-101209177D01*
X171022993Y-101245541D01*
X171041725Y-101272659D01*
X171042813Y-101274794D01*
X171159619Y-101435564D01*
X171300136Y-101576081D01*
X171460906Y-101692887D01*
X171547749Y-101737135D01*
X171637967Y-101783105D01*
X171637970Y-101783106D01*
X171732466Y-101813809D01*
X171826964Y-101844513D01*
X172023239Y-101875600D01*
X172023240Y-101875600D01*
X173491960Y-101875600D01*
X173491961Y-101875600D01*
X173688236Y-101844513D01*
X173877232Y-101783105D01*
X174054294Y-101692887D01*
X174215064Y-101576081D01*
X174355581Y-101435564D01*
X174472387Y-101274794D01*
X174562605Y-101097732D01*
X174624013Y-100908736D01*
X174655100Y-100712461D01*
X174655100Y-100513739D01*
X174624013Y-100317464D01*
X174562605Y-100128468D01*
X174562605Y-100128467D01*
X174485020Y-99976200D01*
X174472387Y-99951406D01*
X174355581Y-99790636D01*
X174215064Y-99650119D01*
X174054294Y-99533313D01*
X173897818Y-99453584D01*
X173847023Y-99405610D01*
X173830228Y-99337789D01*
X173852765Y-99271654D01*
X173897818Y-99232615D01*
X174054294Y-99152887D01*
X174215064Y-99036081D01*
X174355581Y-98895564D01*
X174472387Y-98734794D01*
X174562605Y-98557732D01*
X174624013Y-98368736D01*
X174655100Y-98172461D01*
X174655100Y-97973739D01*
X174624013Y-97777464D01*
X174562605Y-97588468D01*
X174562605Y-97588467D01*
X174472386Y-97411405D01*
X174355581Y-97250636D01*
X174215064Y-97110119D01*
X174054294Y-96993313D01*
X173877232Y-96903094D01*
X173877229Y-96903093D01*
X173688237Y-96841687D01*
X173590098Y-96826143D01*
X173491961Y-96810600D01*
X172023239Y-96810600D01*
X171996403Y-96814850D01*
X171826964Y-96841686D01*
X171821716Y-96843392D01*
X171751875Y-96845386D01*
X171692043Y-96809304D01*
X171661216Y-96746602D01*
X171659400Y-96725460D01*
X171659400Y-94340740D01*
X171679085Y-94273701D01*
X171731889Y-94227946D01*
X171801047Y-94218002D01*
X171821719Y-94222809D01*
X171826963Y-94224513D01*
X171925101Y-94240056D01*
X172023239Y-94255600D01*
X172023240Y-94255600D01*
X173491960Y-94255600D01*
X173491961Y-94255600D01*
X173688236Y-94224513D01*
X173877232Y-94163105D01*
X174054294Y-94072887D01*
X174215064Y-93956081D01*
X174355581Y-93815564D01*
X174472387Y-93654794D01*
X174562605Y-93477732D01*
X174624013Y-93288736D01*
X174655100Y-93092461D01*
X174655100Y-92893739D01*
X174624013Y-92697464D01*
X174562605Y-92508468D01*
X174562605Y-92508467D01*
X174472386Y-92331405D01*
X174429151Y-92271897D01*
X174355581Y-92170636D01*
X174215064Y-92030119D01*
X174054294Y-91913313D01*
X173897818Y-91833584D01*
X173847023Y-91785610D01*
X173830228Y-91717789D01*
X173852765Y-91651654D01*
X173897818Y-91612615D01*
X174054294Y-91532887D01*
X174215064Y-91416081D01*
X174355581Y-91275564D01*
X174472387Y-91114794D01*
X174562605Y-90937732D01*
X174624013Y-90748736D01*
X174655100Y-90552461D01*
X174655100Y-90353739D01*
X174624013Y-90157464D01*
X174562605Y-89968468D01*
X174562605Y-89968467D01*
X174472386Y-89791405D01*
X174355581Y-89630636D01*
X174215064Y-89490119D01*
X174054294Y-89373313D01*
X173877232Y-89283094D01*
X173877229Y-89283093D01*
X173688237Y-89221687D01*
X173590098Y-89206143D01*
X173491961Y-89190600D01*
X172023239Y-89190600D01*
X171996403Y-89194850D01*
X171826964Y-89221686D01*
X171821716Y-89223392D01*
X171751875Y-89225386D01*
X171692043Y-89189304D01*
X171661216Y-89126602D01*
X171659400Y-89105460D01*
X171659400Y-84085860D01*
X171659401Y-84085847D01*
X171659401Y-83917745D01*
X171659401Y-83917743D01*
X171618477Y-83765015D01*
X171539420Y-83628084D01*
X165363834Y-77452499D01*
X165330350Y-77391177D01*
X165335334Y-77321485D01*
X165377206Y-77265552D01*
X165395218Y-77254335D01*
X165547484Y-77176753D01*
X165688133Y-77074565D01*
X165811065Y-76951633D01*
X165913253Y-76810984D01*
X165992180Y-76656081D01*
X165992181Y-76656078D01*
X166045902Y-76490742D01*
X166045902Y-76490741D01*
X166045903Y-76490738D01*
X166073100Y-76319026D01*
X166073100Y-76145174D01*
X166045903Y-75973462D01*
X166045902Y-75973458D01*
X166045902Y-75973457D01*
X165992181Y-75808121D01*
X165992180Y-75808119D01*
X165913253Y-75653216D01*
X165811065Y-75512567D01*
X165688133Y-75389635D01*
X165547484Y-75287447D01*
X165461300Y-75243534D01*
X165392578Y-75208518D01*
X165227241Y-75154797D01*
X165070388Y-75129954D01*
X165055526Y-75127600D01*
X164881674Y-75127600D01*
X164713597Y-75154220D01*
X164644304Y-75145265D01*
X164590852Y-75100269D01*
X164570213Y-75033517D01*
X164570200Y-75031747D01*
X164570200Y-74654146D01*
X164570200Y-74654143D01*
X164551034Y-74582612D01*
X164529277Y-74501415D01*
X164474833Y-74407116D01*
X164450220Y-74364484D01*
X164338416Y-74252680D01*
X164338413Y-74252678D01*
X164094758Y-74009023D01*
X164061273Y-73947700D01*
X164059966Y-73901943D01*
X164073100Y-73819024D01*
X164073100Y-73645174D01*
X164063327Y-73583471D01*
X164045903Y-73473462D01*
X164045902Y-73473458D01*
X164045902Y-73473457D01*
X163992181Y-73308121D01*
X163913252Y-73153215D01*
X163903624Y-73139963D01*
X163811065Y-73012567D01*
X163688133Y-72889635D01*
X163547484Y-72787447D01*
X163485138Y-72755680D01*
X163392578Y-72708518D01*
X163227241Y-72654797D01*
X163098454Y-72634399D01*
X163055526Y-72627600D01*
X162926581Y-72627600D01*
X162859542Y-72607915D01*
X162813787Y-72555111D01*
X162803843Y-72485953D01*
X162826262Y-72430715D01*
X162913253Y-72310984D01*
X162992180Y-72156081D01*
X162996983Y-72141300D01*
X163045902Y-71990742D01*
X163045902Y-71990741D01*
X163045903Y-71990738D01*
X163073100Y-71819026D01*
X163073100Y-71645174D01*
X163045903Y-71473462D01*
X163045902Y-71473458D01*
X163045902Y-71473457D01*
X162992181Y-71308121D01*
X162913252Y-71153215D01*
X162903624Y-71139963D01*
X162811065Y-71012567D01*
X162688133Y-70889635D01*
X162547484Y-70787447D01*
X162392578Y-70708518D01*
X162227241Y-70654797D01*
X162098454Y-70634399D01*
X162055526Y-70627600D01*
X161881674Y-70627600D01*
X161824436Y-70636665D01*
X161709960Y-70654797D01*
X161709957Y-70654797D01*
X161544621Y-70708518D01*
X161389715Y-70787447D01*
X161309469Y-70845749D01*
X161249067Y-70889635D01*
X161249065Y-70889637D01*
X161249064Y-70889637D01*
X161126136Y-71012565D01*
X161068918Y-71091319D01*
X161013587Y-71133985D01*
X160943974Y-71139963D01*
X160882179Y-71107357D01*
X160868282Y-71091319D01*
X160865148Y-71087005D01*
X160811065Y-71012567D01*
X160688133Y-70889635D01*
X160547484Y-70787447D01*
X160392578Y-70708518D01*
X160227241Y-70654797D01*
X160098454Y-70634399D01*
X160055526Y-70627600D01*
X159881674Y-70627600D01*
X159824436Y-70636665D01*
X159709960Y-70654797D01*
X159709957Y-70654797D01*
X159544621Y-70708518D01*
X159389715Y-70787447D01*
X159309469Y-70845749D01*
X159249067Y-70889635D01*
X159249065Y-70889637D01*
X159249064Y-70889637D01*
X159126137Y-71012564D01*
X159126137Y-71012565D01*
X159126135Y-71012567D01*
X159082249Y-71072969D01*
X159023947Y-71153215D01*
X158945018Y-71308121D01*
X158891297Y-71473457D01*
X158891297Y-71473460D01*
X158864100Y-71645174D01*
X158864100Y-71819025D01*
X158891297Y-71990739D01*
X158891297Y-71990742D01*
X158945018Y-72156078D01*
X158998622Y-72261281D01*
X159023947Y-72310984D01*
X159110937Y-72430715D01*
X159134417Y-72496520D01*
X159118592Y-72564574D01*
X159068486Y-72613269D01*
X159010619Y-72627600D01*
X158881674Y-72627600D01*
X158824436Y-72636665D01*
X158709960Y-72654797D01*
X158709957Y-72654797D01*
X158544621Y-72708518D01*
X158389713Y-72787448D01*
X158378528Y-72795574D01*
X158312720Y-72819049D01*
X158244667Y-72803220D01*
X158217968Y-72782932D01*
X157100251Y-71665215D01*
X157066766Y-71603892D01*
X157065459Y-71596932D01*
X157045903Y-71473462D01*
X157045902Y-71473458D01*
X157045902Y-71473457D01*
X156992181Y-71308121D01*
X156913252Y-71153215D01*
X156903624Y-71139963D01*
X156811065Y-71012567D01*
X156688133Y-70889635D01*
X156547484Y-70787447D01*
X156392578Y-70708518D01*
X156227241Y-70654797D01*
X156098454Y-70634399D01*
X156055526Y-70627600D01*
X155881674Y-70627600D01*
X155824436Y-70636665D01*
X155709960Y-70654797D01*
X155709957Y-70654797D01*
X155544621Y-70708518D01*
X155389715Y-70787447D01*
X155309469Y-70845749D01*
X155249067Y-70889635D01*
X155249065Y-70889637D01*
X155249064Y-70889637D01*
X155126137Y-71012564D01*
X155126137Y-71012565D01*
X155126135Y-71012567D01*
X155082249Y-71072969D01*
X155023947Y-71153215D01*
X154945018Y-71308121D01*
X154891297Y-71473457D01*
X154891297Y-71473460D01*
X154864100Y-71645174D01*
X154864100Y-71819025D01*
X154892059Y-71995550D01*
X154890347Y-71995821D01*
X154887240Y-72058119D01*
X154846584Y-72114942D01*
X154781661Y-72140765D01*
X154770151Y-72141300D01*
X154591740Y-72141300D01*
X154550819Y-72152264D01*
X154550819Y-72152265D01*
X154536578Y-72156081D01*
X154439014Y-72182223D01*
X154439009Y-72182226D01*
X154302090Y-72261275D01*
X154302084Y-72261280D01*
X153722482Y-72840882D01*
X153661159Y-72874367D01*
X153591467Y-72869383D01*
X153535534Y-72827511D01*
X153511117Y-72762047D01*
X153510801Y-72753201D01*
X153510801Y-72594745D01*
X153510801Y-72594743D01*
X153469877Y-72442015D01*
X153406706Y-72332600D01*
X153390820Y-72305084D01*
X153279016Y-72193280D01*
X153279013Y-72193278D01*
X153094758Y-72009023D01*
X153061273Y-71947700D01*
X153059966Y-71901943D01*
X153073100Y-71819024D01*
X153073100Y-71645174D01*
X153065459Y-71596932D01*
X153045903Y-71473462D01*
X153045902Y-71473458D01*
X153045902Y-71473457D01*
X152992181Y-71308121D01*
X152913252Y-71153215D01*
X152903624Y-71139963D01*
X152811065Y-71012567D01*
X152688133Y-70889635D01*
X152547484Y-70787447D01*
X152392578Y-70708518D01*
X152227241Y-70654797D01*
X152098454Y-70634399D01*
X152055526Y-70627600D01*
X151881674Y-70627600D01*
X151824436Y-70636665D01*
X151709960Y-70654797D01*
X151709957Y-70654797D01*
X151544621Y-70708518D01*
X151389715Y-70787447D01*
X151309469Y-70845749D01*
X151249067Y-70889635D01*
X151249065Y-70889637D01*
X151249064Y-70889637D01*
X151126136Y-71012565D01*
X151068918Y-71091319D01*
X151013587Y-71133985D01*
X150943974Y-71139963D01*
X150882179Y-71107357D01*
X150868282Y-71091319D01*
X150865148Y-71087005D01*
X150811065Y-71012567D01*
X150688133Y-70889635D01*
X150547484Y-70787447D01*
X150392578Y-70708518D01*
X150227241Y-70654797D01*
X150098454Y-70634399D01*
X150055526Y-70627600D01*
X149881674Y-70627600D01*
X149824436Y-70636665D01*
X149709960Y-70654797D01*
X149709957Y-70654797D01*
X149544621Y-70708518D01*
X149389715Y-70787447D01*
X149309469Y-70845749D01*
X149249067Y-70889635D01*
X149249065Y-70889637D01*
X149249064Y-70889637D01*
X149126136Y-71012565D01*
X149068918Y-71091319D01*
X149013587Y-71133985D01*
X148943974Y-71139963D01*
X148882179Y-71107357D01*
X148868282Y-71091319D01*
X148865148Y-71087005D01*
X148811065Y-71012567D01*
X148688133Y-70889635D01*
X148547484Y-70787447D01*
X148392578Y-70708518D01*
X148227241Y-70654797D01*
X148098454Y-70634399D01*
X148055526Y-70627600D01*
X147881674Y-70627600D01*
X147824436Y-70636665D01*
X147709960Y-70654797D01*
X147709957Y-70654797D01*
X147544621Y-70708518D01*
X147389715Y-70787447D01*
X147309469Y-70845749D01*
X147249067Y-70889635D01*
X147249065Y-70889637D01*
X147249064Y-70889637D01*
X147126136Y-71012565D01*
X147068918Y-71091319D01*
X147013587Y-71133985D01*
X146943974Y-71139963D01*
X146882179Y-71107357D01*
X146868282Y-71091319D01*
X146865148Y-71087005D01*
X146811065Y-71012567D01*
X146688133Y-70889635D01*
X146547484Y-70787447D01*
X146392578Y-70708518D01*
X146227241Y-70654797D01*
X146098454Y-70634399D01*
X146055526Y-70627600D01*
X145881674Y-70627600D01*
X145824436Y-70636665D01*
X145709960Y-70654797D01*
X145709957Y-70654797D01*
X145544621Y-70708518D01*
X145389715Y-70787447D01*
X145309469Y-70845749D01*
X145249067Y-70889635D01*
X145249065Y-70889637D01*
X145249064Y-70889637D01*
X145126137Y-71012564D01*
X145126137Y-71012565D01*
X145126135Y-71012567D01*
X145082249Y-71072969D01*
X145023947Y-71153215D01*
X144945018Y-71308121D01*
X144891297Y-71473457D01*
X144891297Y-71473460D01*
X144864100Y-71645174D01*
X144864100Y-71819025D01*
X144891297Y-71990739D01*
X144891297Y-71990742D01*
X144945018Y-72156078D01*
X144998622Y-72261281D01*
X145023947Y-72310984D01*
X145110937Y-72430715D01*
X145134417Y-72496520D01*
X145118592Y-72564574D01*
X145068486Y-72613269D01*
X145010619Y-72627600D01*
X144881674Y-72627600D01*
X144824436Y-72636665D01*
X144709960Y-72654797D01*
X144709957Y-72654797D01*
X144544621Y-72708518D01*
X144389715Y-72787447D01*
X144334573Y-72827511D01*
X144249067Y-72889635D01*
X144249065Y-72889637D01*
X144249064Y-72889637D01*
X144126136Y-73012565D01*
X144068918Y-73091319D01*
X144013587Y-73133985D01*
X143943974Y-73139963D01*
X143882179Y-73107357D01*
X143868282Y-73091319D01*
X143865148Y-73087005D01*
X143811065Y-73012567D01*
X143688133Y-72889635D01*
X143547484Y-72787447D01*
X143485138Y-72755680D01*
X143392578Y-72708518D01*
X143227241Y-72654797D01*
X143098454Y-72634399D01*
X143055526Y-72627600D01*
X142926581Y-72627600D01*
X142859542Y-72607915D01*
X142813787Y-72555111D01*
X142803843Y-72485953D01*
X142826262Y-72430715D01*
X142913253Y-72310984D01*
X142992180Y-72156081D01*
X142996983Y-72141300D01*
X143045902Y-71990742D01*
X143045902Y-71990741D01*
X143045903Y-71990738D01*
X143073100Y-71819026D01*
X143073100Y-71645174D01*
X143045903Y-71473462D01*
X143045902Y-71473458D01*
X143045902Y-71473457D01*
X142992181Y-71308121D01*
X142913252Y-71153215D01*
X142903624Y-71139963D01*
X142811065Y-71012567D01*
X142688133Y-70889635D01*
X142547484Y-70787447D01*
X142392578Y-70708518D01*
X142227241Y-70654797D01*
X142098454Y-70634399D01*
X142055526Y-70627600D01*
X141881674Y-70627600D01*
X141824436Y-70636665D01*
X141709960Y-70654797D01*
X141709957Y-70654797D01*
X141544621Y-70708518D01*
X141389715Y-70787447D01*
X141309469Y-70845749D01*
X141249067Y-70889635D01*
X141249065Y-70889637D01*
X141249064Y-70889637D01*
X141126136Y-71012565D01*
X141068918Y-71091319D01*
X141013587Y-71133985D01*
X140943974Y-71139963D01*
X140882179Y-71107357D01*
X140868282Y-71091319D01*
X140865148Y-71087005D01*
X140811065Y-71012567D01*
X140688133Y-70889635D01*
X140547484Y-70787447D01*
X140392578Y-70708518D01*
X140227241Y-70654797D01*
X140098454Y-70634399D01*
X140055526Y-70627600D01*
X139881674Y-70627600D01*
X139824436Y-70636665D01*
X139709960Y-70654797D01*
X139709957Y-70654797D01*
X139544621Y-70708518D01*
X139389715Y-70787447D01*
X139309469Y-70845749D01*
X139249067Y-70889635D01*
X139249065Y-70889637D01*
X139249064Y-70889637D01*
X139126136Y-71012565D01*
X139068918Y-71091319D01*
X139013587Y-71133985D01*
X138943974Y-71139963D01*
X138882179Y-71107357D01*
X138868282Y-71091319D01*
X138865148Y-71087005D01*
X138811065Y-71012567D01*
X138688133Y-70889635D01*
X138547484Y-70787447D01*
X138392578Y-70708518D01*
X138227241Y-70654797D01*
X138098454Y-70634399D01*
X138055526Y-70627600D01*
X137881674Y-70627600D01*
X137824436Y-70636665D01*
X137709960Y-70654797D01*
X137709957Y-70654797D01*
X137544621Y-70708518D01*
X137389715Y-70787447D01*
X137309469Y-70845749D01*
X137249067Y-70889635D01*
X137249065Y-70889637D01*
X137249064Y-70889637D01*
X137126137Y-71012564D01*
X137126137Y-71012565D01*
X137126135Y-71012567D01*
X137082249Y-71072969D01*
X137023947Y-71153215D01*
X136945018Y-71308121D01*
X136891297Y-71473457D01*
X136891297Y-71473460D01*
X136864100Y-71645174D01*
X136864100Y-71819025D01*
X136891297Y-71990739D01*
X136891297Y-71990742D01*
X136945018Y-72156078D01*
X136998622Y-72261281D01*
X137023947Y-72310984D01*
X137126135Y-72451633D01*
X137249067Y-72574565D01*
X137389716Y-72676753D01*
X137539754Y-72753201D01*
X137544621Y-72755681D01*
X137709958Y-72809402D01*
X137709959Y-72809402D01*
X137709962Y-72809403D01*
X137881674Y-72836600D01*
X137881675Y-72836600D01*
X138010619Y-72836600D01*
X138077658Y-72856285D01*
X138123413Y-72909089D01*
X138133357Y-72978247D01*
X138110937Y-73033484D01*
X138070866Y-73088636D01*
X138023947Y-73153215D01*
X137945018Y-73308121D01*
X137891297Y-73473457D01*
X137891297Y-73473460D01*
X137891297Y-73473462D01*
X137864100Y-73645174D01*
X137864100Y-73819026D01*
X137886825Y-73962502D01*
X137877871Y-74031795D01*
X137832875Y-74085247D01*
X137766123Y-74105887D01*
X137764352Y-74105900D01*
X136902298Y-74105900D01*
X136835259Y-74086215D01*
X136814617Y-74069581D01*
X136605419Y-73860383D01*
X136571934Y-73799060D01*
X136569100Y-73772702D01*
X136569100Y-73359945D01*
X136569100Y-73359943D01*
X136532224Y-73222320D01*
X136528177Y-73207215D01*
X136484520Y-73131599D01*
X136449120Y-73070284D01*
X136337316Y-72958480D01*
X136337315Y-72958479D01*
X136332985Y-72954149D01*
X136332974Y-72954139D01*
X135828190Y-72449355D01*
X135828188Y-72449352D01*
X135709317Y-72330481D01*
X135709309Y-72330475D01*
X135589460Y-72261281D01*
X135589457Y-72261280D01*
X135589448Y-72261275D01*
X135572385Y-72251423D01*
X135419657Y-72210499D01*
X135261543Y-72210499D01*
X135253947Y-72210499D01*
X135253931Y-72210500D01*
X135145170Y-72210500D01*
X135078131Y-72190815D01*
X135032376Y-72138011D01*
X135022432Y-72068853D01*
X135027239Y-72048182D01*
X135045902Y-71990742D01*
X135045902Y-71990741D01*
X135045903Y-71990738D01*
X135073100Y-71819026D01*
X135073100Y-71645174D01*
X135045903Y-71473462D01*
X135045902Y-71473458D01*
X135045902Y-71473457D01*
X134992181Y-71308121D01*
X134913252Y-71153215D01*
X134903624Y-71139963D01*
X134811065Y-71012567D01*
X134688133Y-70889635D01*
X134547484Y-70787447D01*
X134392578Y-70708518D01*
X134227241Y-70654797D01*
X134098454Y-70634399D01*
X134055526Y-70627600D01*
X133881674Y-70627600D01*
X133824436Y-70636665D01*
X133709960Y-70654797D01*
X133709957Y-70654797D01*
X133544621Y-70708518D01*
X133389715Y-70787447D01*
X133309469Y-70845749D01*
X133249067Y-70889635D01*
X133249065Y-70889637D01*
X133249064Y-70889637D01*
X133126136Y-71012565D01*
X133068918Y-71091319D01*
X133013587Y-71133985D01*
X132943974Y-71139963D01*
X132882179Y-71107357D01*
X132868282Y-71091319D01*
X132865148Y-71087005D01*
X132811065Y-71012567D01*
X132688133Y-70889635D01*
X132547484Y-70787447D01*
X132392578Y-70708518D01*
X132227241Y-70654797D01*
X132098454Y-70634399D01*
X132055526Y-70627600D01*
X131881674Y-70627600D01*
X131824436Y-70636665D01*
X131709960Y-70654797D01*
X131709957Y-70654797D01*
X131544621Y-70708518D01*
X131389715Y-70787447D01*
X131309469Y-70845749D01*
X131249067Y-70889635D01*
X131249065Y-70889637D01*
X131249064Y-70889637D01*
X131126137Y-71012564D01*
X131126137Y-71012565D01*
X131126135Y-71012567D01*
X131082249Y-71072969D01*
X131023947Y-71153215D01*
X130945018Y-71308121D01*
X130891297Y-71473457D01*
X130891297Y-71473460D01*
X130864100Y-71645174D01*
X130864100Y-71819025D01*
X130891297Y-71990739D01*
X130891297Y-71990742D01*
X130945018Y-72156078D01*
X130998622Y-72261281D01*
X131023947Y-72310984D01*
X131126135Y-72451633D01*
X131249067Y-72574565D01*
X131389716Y-72676753D01*
X131539754Y-72753201D01*
X131544621Y-72755681D01*
X131709958Y-72809402D01*
X131709959Y-72809402D01*
X131709962Y-72809403D01*
X131881674Y-72836600D01*
X131881675Y-72836600D01*
X132010619Y-72836600D01*
X132077658Y-72856285D01*
X132123413Y-72909089D01*
X132133357Y-72978247D01*
X132110937Y-73033484D01*
X132070866Y-73088636D01*
X132023947Y-73153215D01*
X131945018Y-73308121D01*
X131891297Y-73473457D01*
X131891297Y-73473460D01*
X131891297Y-73473462D01*
X131864100Y-73645174D01*
X131864100Y-73819026D01*
X131877233Y-73901943D01*
X131891297Y-73990739D01*
X131891297Y-73990742D01*
X131945018Y-74156078D01*
X132023947Y-74310984D01*
X132126135Y-74451633D01*
X132249067Y-74574565D01*
X132389716Y-74676753D01*
X132544619Y-74755680D01*
X132544621Y-74755681D01*
X132709958Y-74809402D01*
X132709959Y-74809402D01*
X132709962Y-74809403D01*
X132881674Y-74836600D01*
X132881675Y-74836600D01*
X133055524Y-74836600D01*
X133055526Y-74836600D01*
X133226004Y-74809598D01*
X133244541Y-74811993D01*
X133263047Y-74809333D01*
X133278474Y-74816378D01*
X133295295Y-74818552D01*
X133309597Y-74830591D01*
X133326603Y-74838358D01*
X133335772Y-74852625D01*
X133348747Y-74863548D01*
X133354269Y-74881408D01*
X133364377Y-74897136D01*
X133368935Y-74928839D01*
X133369387Y-74930300D01*
X133369400Y-74932071D01*
X133369400Y-75032128D01*
X133349715Y-75099167D01*
X133296911Y-75144922D01*
X133227753Y-75154866D01*
X133226002Y-75154601D01*
X133124461Y-75138518D01*
X133055526Y-75127600D01*
X132881674Y-75127600D01*
X132824436Y-75136665D01*
X132709960Y-75154797D01*
X132709957Y-75154797D01*
X132544621Y-75208518D01*
X132389715Y-75287447D01*
X132309469Y-75345749D01*
X132249067Y-75389635D01*
X132249065Y-75389637D01*
X132249064Y-75389637D01*
X132126137Y-75512564D01*
X132126137Y-75512565D01*
X132126135Y-75512567D01*
X132082249Y-75572969D01*
X132023947Y-75653215D01*
X131945018Y-75808121D01*
X131891297Y-75973457D01*
X131891297Y-75973460D01*
X131864100Y-76145174D01*
X131864100Y-76319025D01*
X131891297Y-76490739D01*
X131891297Y-76490742D01*
X131945018Y-76656078D01*
X132023947Y-76810984D01*
X132110937Y-76930715D01*
X132134417Y-76996520D01*
X132118592Y-77064574D01*
X132068486Y-77113269D01*
X132010619Y-77127600D01*
X131881674Y-77127600D01*
X131824436Y-77136665D01*
X131709960Y-77154797D01*
X131709957Y-77154797D01*
X131544621Y-77208518D01*
X131389715Y-77287447D01*
X131349842Y-77316417D01*
X131249067Y-77389635D01*
X131249065Y-77389637D01*
X131249064Y-77389637D01*
X131126137Y-77512564D01*
X131126137Y-77512565D01*
X131126135Y-77512567D01*
X131082249Y-77572969D01*
X131023947Y-77653215D01*
X130945018Y-77808121D01*
X130891297Y-77973457D01*
X130891297Y-77973460D01*
X130864100Y-78145174D01*
X130864100Y-78319025D01*
X130891297Y-78490739D01*
X130891297Y-78490742D01*
X130945018Y-78656078D01*
X130986616Y-78737718D01*
X131023947Y-78810984D01*
X131126135Y-78951633D01*
X131249067Y-79074565D01*
X131389716Y-79176753D01*
X131536798Y-79251695D01*
X131544621Y-79255681D01*
X131709958Y-79309402D01*
X131709959Y-79309402D01*
X131709962Y-79309403D01*
X131881674Y-79336600D01*
X131881675Y-79336600D01*
X132055524Y-79336600D01*
X132055526Y-79336600D01*
X132221704Y-79310279D01*
X132290995Y-79319233D01*
X132344447Y-79364229D01*
X132365087Y-79430981D01*
X132365100Y-79432752D01*
X132365100Y-91003702D01*
X132345415Y-91070741D01*
X132328781Y-91091383D01*
X126220235Y-97199928D01*
X126158912Y-97233413D01*
X126089220Y-97228429D01*
X126044873Y-97199928D01*
X125955066Y-97110121D01*
X125955064Y-97110119D01*
X125794294Y-96993313D01*
X125617232Y-96903094D01*
X125617229Y-96903093D01*
X125428237Y-96841687D01*
X125330098Y-96826143D01*
X125231961Y-96810600D01*
X123763239Y-96810600D01*
X123697814Y-96820962D01*
X123566962Y-96841687D01*
X123377970Y-96903093D01*
X123377967Y-96903094D01*
X123200905Y-96993313D01*
X123040133Y-97110121D01*
X122899621Y-97250633D01*
X122782813Y-97411405D01*
X122692594Y-97588467D01*
X122692593Y-97588470D01*
X122631187Y-97777462D01*
X122600100Y-97973739D01*
X122600100Y-98172460D01*
X122631187Y-98368737D01*
X122692593Y-98557729D01*
X122692594Y-98557732D01*
X122747458Y-98665407D01*
X122782813Y-98734794D01*
X122899619Y-98895564D01*
X123040136Y-99036081D01*
X123200906Y-99152887D01*
X123287749Y-99197135D01*
X123377967Y-99243105D01*
X123377970Y-99243106D01*
X123472466Y-99273809D01*
X123566964Y-99304513D01*
X123763239Y-99335600D01*
X123763240Y-99335600D01*
X125231960Y-99335600D01*
X125231961Y-99335600D01*
X125339640Y-99318545D01*
X125408931Y-99327499D01*
X125462383Y-99372495D01*
X125477696Y-99405019D01*
X125478965Y-99409203D01*
X125539302Y-99554872D01*
X125539309Y-99554885D01*
X125626910Y-99685988D01*
X125626913Y-99685992D01*
X125738407Y-99797486D01*
X125738411Y-99797489D01*
X125869514Y-99885090D01*
X125869527Y-99885097D01*
X126015198Y-99945435D01*
X126015203Y-99945437D01*
X126169853Y-99976199D01*
X126169856Y-99976200D01*
X126169858Y-99976200D01*
X126327544Y-99976200D01*
X126327545Y-99976199D01*
X126482197Y-99945437D01*
X126627879Y-99885094D01*
X126758989Y-99797489D01*
X126870489Y-99685989D01*
X126958094Y-99554879D01*
X127018437Y-99409197D01*
X127049200Y-99254542D01*
X127049200Y-99096858D01*
X127049200Y-99096855D01*
X127049199Y-99096853D01*
X127018437Y-98942203D01*
X127018435Y-98942198D01*
X126958097Y-98796527D01*
X126958090Y-98796514D01*
X126870489Y-98665411D01*
X126870486Y-98665407D01*
X126758993Y-98553914D01*
X126758051Y-98553141D01*
X126757689Y-98552610D01*
X126754682Y-98549603D01*
X126755252Y-98549032D01*
X126718714Y-98495397D01*
X126716840Y-98425553D01*
X126749028Y-98369605D01*
X133334313Y-91784321D01*
X133334316Y-91784320D01*
X133446120Y-91672516D01*
X133496239Y-91585704D01*
X133525177Y-91535585D01*
X133566101Y-91382857D01*
X133566101Y-91224743D01*
X133566101Y-91217148D01*
X133566100Y-91217130D01*
X133566100Y-79431802D01*
X133585785Y-79364763D01*
X133638589Y-79319008D01*
X133707747Y-79309064D01*
X133709498Y-79309329D01*
X133709958Y-79309402D01*
X133709962Y-79309403D01*
X133881674Y-79336600D01*
X133881675Y-79336600D01*
X134055524Y-79336600D01*
X134055526Y-79336600D01*
X134224703Y-79309804D01*
X134293995Y-79318758D01*
X134347447Y-79363754D01*
X134368087Y-79430506D01*
X134368100Y-79432277D01*
X134368100Y-109320702D01*
X134348415Y-109387741D01*
X134331781Y-109408383D01*
X126220235Y-117519928D01*
X126158912Y-117553413D01*
X126089220Y-117548429D01*
X126044873Y-117519928D01*
X125955066Y-117430121D01*
X125955064Y-117430119D01*
X125794294Y-117313313D01*
X125637818Y-117233584D01*
X125587023Y-117185610D01*
X125570228Y-117117789D01*
X125592765Y-117051654D01*
X125637818Y-117012615D01*
X125794294Y-116932887D01*
X125955064Y-116816081D01*
X126095581Y-116675564D01*
X126212387Y-116514794D01*
X126302605Y-116337732D01*
X126364013Y-116148736D01*
X126395100Y-115952461D01*
X126395100Y-115753739D01*
X126364013Y-115557464D01*
X126302605Y-115368468D01*
X126302605Y-115368467D01*
X126212386Y-115191405D01*
X126095581Y-115030636D01*
X125955064Y-114890119D01*
X125794294Y-114773313D01*
X125637818Y-114693584D01*
X125587023Y-114645610D01*
X125570228Y-114577789D01*
X125592765Y-114511654D01*
X125637818Y-114472615D01*
X125794294Y-114392887D01*
X125955064Y-114276081D01*
X126095581Y-114135564D01*
X126212387Y-113974794D01*
X126302605Y-113797732D01*
X126364013Y-113608736D01*
X126395100Y-113412461D01*
X126395100Y-113213739D01*
X126364013Y-113017464D01*
X126302605Y-112828468D01*
X126302605Y-112828467D01*
X126212386Y-112651405D01*
X126095581Y-112490636D01*
X125955064Y-112350119D01*
X125794294Y-112233313D01*
X125637818Y-112153584D01*
X125587023Y-112105610D01*
X125570228Y-112037789D01*
X125592765Y-111971654D01*
X125637818Y-111932615D01*
X125794294Y-111852887D01*
X125955064Y-111736081D01*
X126095581Y-111595564D01*
X126212387Y-111434794D01*
X126302605Y-111257732D01*
X126364013Y-111068736D01*
X126395100Y-110872461D01*
X126395100Y-110673739D01*
X126364013Y-110477464D01*
X126302605Y-110288468D01*
X126302605Y-110288467D01*
X126212386Y-110111405D01*
X126095581Y-109950636D01*
X125955064Y-109810119D01*
X125794294Y-109693313D01*
X125637818Y-109613584D01*
X125587023Y-109565610D01*
X125570228Y-109497789D01*
X125592765Y-109431654D01*
X125637818Y-109392615D01*
X125794294Y-109312887D01*
X125955064Y-109196081D01*
X126095581Y-109055564D01*
X126212387Y-108894794D01*
X126302605Y-108717732D01*
X126364013Y-108528736D01*
X126395100Y-108332461D01*
X126395100Y-108133739D01*
X126364013Y-107937464D01*
X126302605Y-107748468D01*
X126302605Y-107748467D01*
X126212386Y-107571405D01*
X126095581Y-107410636D01*
X125955064Y-107270119D01*
X125794294Y-107153313D01*
X125637818Y-107073584D01*
X125587023Y-107025610D01*
X125570228Y-106957789D01*
X125592765Y-106891654D01*
X125637818Y-106852615D01*
X125794294Y-106772887D01*
X125955064Y-106656081D01*
X126095581Y-106515564D01*
X126212387Y-106354794D01*
X126302605Y-106177732D01*
X126364013Y-105988736D01*
X126395100Y-105792461D01*
X126395100Y-105593739D01*
X126364013Y-105397464D01*
X126302605Y-105208468D01*
X126302605Y-105208467D01*
X126212386Y-105031405D01*
X126095581Y-104870636D01*
X125955064Y-104730119D01*
X125794294Y-104613313D01*
X125637818Y-104533584D01*
X125587023Y-104485610D01*
X125570228Y-104417789D01*
X125592765Y-104351654D01*
X125637818Y-104312615D01*
X125794294Y-104232887D01*
X125955064Y-104116081D01*
X126095581Y-103975564D01*
X126212387Y-103814794D01*
X126302605Y-103637732D01*
X126364013Y-103448736D01*
X126395100Y-103252461D01*
X126395100Y-103053739D01*
X126364013Y-102857464D01*
X126302605Y-102668468D01*
X126302605Y-102668467D01*
X126212386Y-102491405D01*
X126095581Y-102330636D01*
X125955064Y-102190119D01*
X125794294Y-102073313D01*
X125617232Y-101983094D01*
X125617229Y-101983093D01*
X125428237Y-101921687D01*
X125330098Y-101906143D01*
X125231961Y-101890600D01*
X123763239Y-101890600D01*
X123697814Y-101900962D01*
X123566962Y-101921687D01*
X123377970Y-101983093D01*
X123377967Y-101983094D01*
X123200905Y-102073313D01*
X123040133Y-102190121D01*
X122899621Y-102330633D01*
X122782813Y-102491405D01*
X122692594Y-102668467D01*
X122692593Y-102668470D01*
X122631187Y-102857462D01*
X122600100Y-103053739D01*
X122600100Y-103252460D01*
X122631187Y-103448737D01*
X122692593Y-103637729D01*
X122692594Y-103637732D01*
X122729616Y-103710390D01*
X122782813Y-103814794D01*
X122899619Y-103975564D01*
X123040136Y-104116081D01*
X123200906Y-104232887D01*
X123319432Y-104293279D01*
X123357380Y-104312615D01*
X123408176Y-104360590D01*
X123424971Y-104428411D01*
X123402433Y-104494546D01*
X123357380Y-104533585D01*
X123200905Y-104613313D01*
X123040133Y-104730121D01*
X122899621Y-104870633D01*
X122782813Y-105031405D01*
X122692594Y-105208467D01*
X122692593Y-105208470D01*
X122631187Y-105397462D01*
X122600100Y-105593739D01*
X122600100Y-105792460D01*
X122631187Y-105988737D01*
X122692593Y-106177729D01*
X122692594Y-106177732D01*
X122782813Y-106354794D01*
X122899619Y-106515564D01*
X123040136Y-106656081D01*
X123200906Y-106772887D01*
X123319432Y-106833279D01*
X123357380Y-106852615D01*
X123408176Y-106900590D01*
X123424971Y-106968411D01*
X123402433Y-107034546D01*
X123357380Y-107073585D01*
X123200905Y-107153313D01*
X123040133Y-107270121D01*
X122899621Y-107410633D01*
X122782813Y-107571405D01*
X122692594Y-107748467D01*
X122692593Y-107748470D01*
X122631187Y-107937462D01*
X122600100Y-108133739D01*
X122600100Y-108332460D01*
X122631187Y-108528737D01*
X122692593Y-108717729D01*
X122692594Y-108717732D01*
X122782813Y-108894794D01*
X122899619Y-109055564D01*
X123040136Y-109196081D01*
X123200906Y-109312887D01*
X123317047Y-109372064D01*
X123357380Y-109392615D01*
X123408176Y-109440590D01*
X123424971Y-109508411D01*
X123402433Y-109574546D01*
X123357380Y-109613585D01*
X123200905Y-109693313D01*
X123040133Y-109810121D01*
X122899621Y-109950633D01*
X122782813Y-110111405D01*
X122692594Y-110288467D01*
X122692593Y-110288470D01*
X122631187Y-110477462D01*
X122600100Y-110673739D01*
X122600100Y-110872460D01*
X122631187Y-111068737D01*
X122692593Y-111257729D01*
X122692594Y-111257732D01*
X122782813Y-111434794D01*
X122899619Y-111595564D01*
X123040136Y-111736081D01*
X123200906Y-111852887D01*
X123319432Y-111913279D01*
X123357380Y-111932615D01*
X123408176Y-111980590D01*
X123424971Y-112048411D01*
X123402433Y-112114546D01*
X123357380Y-112153585D01*
X123200905Y-112233313D01*
X123040133Y-112350121D01*
X122899621Y-112490633D01*
X122782813Y-112651405D01*
X122692594Y-112828467D01*
X122692593Y-112828470D01*
X122631187Y-113017462D01*
X122600100Y-113213739D01*
X122600100Y-113412460D01*
X122631187Y-113608737D01*
X122692593Y-113797729D01*
X122692594Y-113797732D01*
X122773887Y-113957276D01*
X122782813Y-113974794D01*
X122899619Y-114135564D01*
X123040136Y-114276081D01*
X123200906Y-114392887D01*
X123319432Y-114453279D01*
X123357380Y-114472615D01*
X123408176Y-114520590D01*
X123424971Y-114588411D01*
X123402433Y-114654546D01*
X123357380Y-114693585D01*
X123200905Y-114773313D01*
X123040133Y-114890121D01*
X122899621Y-115030633D01*
X122782813Y-115191405D01*
X122692594Y-115368467D01*
X122692593Y-115368470D01*
X122631187Y-115557462D01*
X122600100Y-115753739D01*
X122600100Y-115952460D01*
X122631187Y-116148737D01*
X122692593Y-116337729D01*
X122692594Y-116337732D01*
X122773888Y-116497278D01*
X122782813Y-116514794D01*
X122899619Y-116675564D01*
X123040136Y-116816081D01*
X123200906Y-116932887D01*
X123319432Y-116993279D01*
X123357380Y-117012615D01*
X123408176Y-117060590D01*
X123424971Y-117128411D01*
X123402433Y-117194546D01*
X123357380Y-117233585D01*
X123200905Y-117313313D01*
X123040133Y-117430121D01*
X122899621Y-117570633D01*
X122782813Y-117731405D01*
X122692594Y-117908467D01*
X122692593Y-117908470D01*
X122631187Y-118097462D01*
X122600100Y-118293739D01*
X122600100Y-118492461D01*
X122602785Y-118509411D01*
X122631187Y-118688737D01*
X122692593Y-118877729D01*
X122692594Y-118877732D01*
X122771049Y-119031706D01*
X122782813Y-119054794D01*
X122899619Y-119215564D01*
X123040136Y-119356081D01*
X123200906Y-119472887D01*
X123274474Y-119510372D01*
X123357380Y-119552615D01*
X123408176Y-119600590D01*
X123424971Y-119668411D01*
X123402433Y-119734546D01*
X123357380Y-119773585D01*
X123200905Y-119853313D01*
X123040133Y-119970121D01*
X122899621Y-120110633D01*
X122782813Y-120271405D01*
X122692594Y-120448467D01*
X122692593Y-120448470D01*
X122631187Y-120637462D01*
X122600100Y-120833739D01*
X122600100Y-121032460D01*
X122631187Y-121228737D01*
X122692593Y-121417729D01*
X122692594Y-121417732D01*
X122782813Y-121594794D01*
X122899619Y-121755564D01*
X123040136Y-121896081D01*
X123200906Y-122012887D01*
X123287749Y-122057135D01*
X123377967Y-122103105D01*
X123377970Y-122103106D01*
X123472466Y-122133809D01*
X123566964Y-122164513D01*
X123763239Y-122195600D01*
X123763240Y-122195600D01*
X125231960Y-122195600D01*
X125231961Y-122195600D01*
X125428236Y-122164513D01*
X125617232Y-122103105D01*
X125794294Y-122012887D01*
X125955064Y-121896081D01*
X126095581Y-121755564D01*
X126212387Y-121594794D01*
X126302605Y-121417732D01*
X126364013Y-121228736D01*
X126395100Y-121032461D01*
X126395100Y-120833739D01*
X126364013Y-120637464D01*
X126333309Y-120542966D01*
X126302606Y-120448470D01*
X126302605Y-120448467D01*
X126243931Y-120333314D01*
X126212387Y-120271406D01*
X126095581Y-120110636D01*
X125955064Y-119970119D01*
X125794294Y-119853313D01*
X125637818Y-119773584D01*
X125587023Y-119725610D01*
X125570228Y-119657789D01*
X125592765Y-119591654D01*
X125637818Y-119552615D01*
X125794294Y-119472887D01*
X125955064Y-119356081D01*
X126095581Y-119215564D01*
X126212387Y-119054794D01*
X126213475Y-119052659D01*
X126214104Y-119051992D01*
X126214932Y-119050642D01*
X126215215Y-119050815D01*
X126233263Y-119031706D01*
X126250801Y-119008833D01*
X126258216Y-119005283D01*
X126261448Y-119001862D01*
X126281971Y-118992277D01*
X126286846Y-118990522D01*
X126428085Y-118952677D01*
X126478204Y-118923739D01*
X126565016Y-118873620D01*
X126676820Y-118761816D01*
X126676820Y-118761814D01*
X126687028Y-118751607D01*
X126687029Y-118751604D01*
X135449120Y-109989516D01*
X135528177Y-109852584D01*
X135569101Y-109699857D01*
X135569101Y-109541742D01*
X135569101Y-109534147D01*
X135569100Y-109534129D01*
X135569100Y-79432277D01*
X135588785Y-79365238D01*
X135641589Y-79319483D01*
X135710747Y-79309539D01*
X135712382Y-79309786D01*
X135881674Y-79336600D01*
X135881676Y-79336600D01*
X136055524Y-79336600D01*
X136055526Y-79336600D01*
X136224703Y-79309804D01*
X136293995Y-79318758D01*
X136347447Y-79363754D01*
X136368087Y-79430506D01*
X136368100Y-79432277D01*
X136368100Y-117480702D01*
X136348415Y-117547741D01*
X136331781Y-117568383D01*
X126220235Y-127679928D01*
X126158912Y-127713413D01*
X126089220Y-127708429D01*
X126044873Y-127679928D01*
X125955066Y-127590121D01*
X125955064Y-127590119D01*
X125794294Y-127473313D01*
X125792726Y-127472514D01*
X125617232Y-127383094D01*
X125617229Y-127383093D01*
X125428237Y-127321687D01*
X125300250Y-127301416D01*
X125231961Y-127290600D01*
X123763239Y-127290600D01*
X123697814Y-127300962D01*
X123566962Y-127321687D01*
X123377970Y-127383093D01*
X123377967Y-127383094D01*
X123200905Y-127473313D01*
X123040133Y-127590121D01*
X122899621Y-127730633D01*
X122782813Y-127891405D01*
X122692594Y-128068467D01*
X122692593Y-128068470D01*
X122631187Y-128257462D01*
X122600100Y-128453739D01*
X122600100Y-128652460D01*
X122631187Y-128848737D01*
X122692593Y-129037729D01*
X122692594Y-129037732D01*
X122771049Y-129191706D01*
X122782813Y-129214794D01*
X122899619Y-129375564D01*
X123040136Y-129516081D01*
X123200906Y-129632887D01*
X123319432Y-129693279D01*
X123357380Y-129712615D01*
X123408176Y-129760590D01*
X123424971Y-129828411D01*
X123402433Y-129894546D01*
X123357380Y-129933585D01*
X123200905Y-130013313D01*
X123040133Y-130130121D01*
X122899621Y-130270633D01*
X122782813Y-130431405D01*
X122692594Y-130608467D01*
X122692593Y-130608470D01*
X122631187Y-130797462D01*
X122600100Y-130993739D01*
X122600100Y-131192460D01*
X122631187Y-131388737D01*
X122692593Y-131577729D01*
X122692594Y-131577732D01*
X122749378Y-131689175D01*
X122782813Y-131754794D01*
X122899619Y-131915564D01*
X123040136Y-132056081D01*
X123200906Y-132172887D01*
X123319432Y-132233279D01*
X123357380Y-132252615D01*
X123408176Y-132300590D01*
X123424971Y-132368411D01*
X123402433Y-132434546D01*
X123357380Y-132473585D01*
X123200905Y-132553313D01*
X123040133Y-132670121D01*
X122899621Y-132810633D01*
X122782813Y-132971405D01*
X122692594Y-133148467D01*
X122692593Y-133148470D01*
X122631187Y-133337462D01*
X122600100Y-133533739D01*
X122600100Y-133732460D01*
X122631187Y-133928737D01*
X122692593Y-134117729D01*
X122692594Y-134117732D01*
X122748772Y-134227986D01*
X122782813Y-134294794D01*
X122899619Y-134455564D01*
X123040136Y-134596081D01*
X123200906Y-134712887D01*
X123319432Y-134773279D01*
X123357380Y-134792615D01*
X123408176Y-134840590D01*
X123424971Y-134908411D01*
X123402433Y-134974546D01*
X123357380Y-135013585D01*
X123200905Y-135093313D01*
X123040133Y-135210121D01*
X122899621Y-135350633D01*
X122782813Y-135511405D01*
X122692594Y-135688467D01*
X122692593Y-135688470D01*
X122631187Y-135877462D01*
X122600100Y-136073739D01*
X122600100Y-136272460D01*
X122631187Y-136468737D01*
X122692593Y-136657729D01*
X122692594Y-136657732D01*
X122759726Y-136789484D01*
X122782813Y-136834794D01*
X122899619Y-136995564D01*
X123040136Y-137136081D01*
X123200906Y-137252887D01*
X123287749Y-137297135D01*
X123377967Y-137343105D01*
X123377970Y-137343106D01*
X123472466Y-137373809D01*
X123566964Y-137404513D01*
X123763239Y-137435600D01*
X123763240Y-137435600D01*
X125231960Y-137435600D01*
X125231961Y-137435600D01*
X125428236Y-137404513D01*
X125617232Y-137343105D01*
X125794294Y-137252887D01*
X125955064Y-137136081D01*
X126095581Y-136995564D01*
X126212387Y-136834794D01*
X126302605Y-136657732D01*
X126364013Y-136468736D01*
X126395100Y-136272461D01*
X126395100Y-136073739D01*
X126364013Y-135877464D01*
X126333309Y-135782966D01*
X126302606Y-135688470D01*
X126302605Y-135688467D01*
X126212386Y-135511405D01*
X126095581Y-135350636D01*
X125955064Y-135210119D01*
X125794294Y-135093313D01*
X125637818Y-135013584D01*
X125587023Y-134965610D01*
X125570228Y-134897789D01*
X125592765Y-134831654D01*
X125637818Y-134792615D01*
X125794294Y-134712887D01*
X125955064Y-134596081D01*
X126095581Y-134455564D01*
X126212387Y-134294794D01*
X126302605Y-134117732D01*
X126364013Y-133928736D01*
X126395100Y-133732461D01*
X126395100Y-133533739D01*
X126364013Y-133337464D01*
X126333309Y-133242966D01*
X126302606Y-133148470D01*
X126302605Y-133148467D01*
X126238615Y-133022881D01*
X126212387Y-132971406D01*
X126095581Y-132810636D01*
X125955064Y-132670119D01*
X125794294Y-132553313D01*
X125637818Y-132473584D01*
X125587023Y-132425610D01*
X125570228Y-132357789D01*
X125592765Y-132291654D01*
X125637818Y-132252615D01*
X125794294Y-132172887D01*
X125955064Y-132056081D01*
X126095581Y-131915564D01*
X126212387Y-131754794D01*
X126213472Y-131752663D01*
X126214101Y-131751997D01*
X126214932Y-131750642D01*
X126215216Y-131750816D01*
X126261441Y-131701865D01*
X126291861Y-131689177D01*
X126428084Y-131652677D01*
X126565016Y-131573620D01*
X126676820Y-131461816D01*
X126755877Y-131324884D01*
X126796800Y-131172157D01*
X126796800Y-131119897D01*
X126816485Y-131052858D01*
X126833119Y-131032216D01*
X131401019Y-126464316D01*
X131462342Y-126430831D01*
X131532034Y-126435815D01*
X131587967Y-126477687D01*
X131612384Y-126543151D01*
X131612700Y-126551997D01*
X131612700Y-134483330D01*
X131612699Y-134483348D01*
X131612699Y-134649054D01*
X131612698Y-134649054D01*
X131612699Y-134649057D01*
X131653623Y-134801785D01*
X131670868Y-134831654D01*
X131682558Y-134851900D01*
X131682559Y-134851904D01*
X131682560Y-134851904D01*
X131707787Y-134895600D01*
X131732679Y-134938714D01*
X131732681Y-134938717D01*
X131851549Y-135057585D01*
X131851555Y-135057590D01*
X136324429Y-139530464D01*
X136357914Y-139591787D01*
X136352930Y-139661479D01*
X136324429Y-139705826D01*
X136234621Y-139795633D01*
X136117813Y-139956405D01*
X136038085Y-140112880D01*
X135990110Y-140163676D01*
X135922289Y-140180471D01*
X135856154Y-140157933D01*
X135817115Y-140112880D01*
X135737386Y-139956405D01*
X135620581Y-139795636D01*
X135480064Y-139655119D01*
X135319294Y-139538313D01*
X135293443Y-139525141D01*
X135142232Y-139448094D01*
X135142229Y-139448093D01*
X134953237Y-139386687D01*
X134855098Y-139371143D01*
X134756961Y-139355600D01*
X134558239Y-139355600D01*
X134492814Y-139365962D01*
X134361962Y-139386687D01*
X134172970Y-139448093D01*
X134172967Y-139448094D01*
X133995905Y-139538313D01*
X133835133Y-139655121D01*
X133694621Y-139795633D01*
X133577813Y-139956405D01*
X133498085Y-140112880D01*
X133450110Y-140163676D01*
X133382289Y-140180471D01*
X133316154Y-140157933D01*
X133277115Y-140112880D01*
X133197386Y-139956405D01*
X133080581Y-139795636D01*
X132940064Y-139655119D01*
X132779294Y-139538313D01*
X132753443Y-139525141D01*
X132602232Y-139448094D01*
X132602229Y-139448093D01*
X132413237Y-139386687D01*
X132315098Y-139371143D01*
X132216961Y-139355600D01*
X132018239Y-139355600D01*
X131952814Y-139365962D01*
X131821962Y-139386687D01*
X131632970Y-139448093D01*
X131632967Y-139448094D01*
X131455905Y-139538313D01*
X131295133Y-139655121D01*
X131154621Y-139795633D01*
X131037813Y-139956405D01*
X130958085Y-140112880D01*
X130910110Y-140163676D01*
X130842289Y-140180471D01*
X130776154Y-140157933D01*
X130737115Y-140112880D01*
X130657386Y-139956405D01*
X130540581Y-139795636D01*
X130400064Y-139655119D01*
X130239294Y-139538313D01*
X130213443Y-139525141D01*
X130062232Y-139448094D01*
X130062229Y-139448093D01*
X129873237Y-139386687D01*
X129775098Y-139371143D01*
X129676961Y-139355600D01*
X129478239Y-139355600D01*
X129412814Y-139365962D01*
X129281962Y-139386687D01*
X129092970Y-139448093D01*
X129092967Y-139448094D01*
X128915905Y-139538313D01*
X128755133Y-139655121D01*
X128614621Y-139795633D01*
X128497813Y-139956405D01*
X128418085Y-140112880D01*
X128370110Y-140163676D01*
X128302289Y-140180471D01*
X128236154Y-140157933D01*
X128197115Y-140112880D01*
X128117386Y-139956405D01*
X128000581Y-139795636D01*
X127860064Y-139655119D01*
X127699294Y-139538313D01*
X127673443Y-139525141D01*
X127522232Y-139448094D01*
X127522229Y-139448093D01*
X127333237Y-139386687D01*
X127235098Y-139371143D01*
X127136961Y-139355600D01*
X126938239Y-139355600D01*
X126872814Y-139365962D01*
X126741962Y-139386687D01*
X126552970Y-139448093D01*
X126552967Y-139448094D01*
X126375905Y-139538313D01*
X126215133Y-139655121D01*
X126074621Y-139795633D01*
X125957813Y-139956405D01*
X125867594Y-140133467D01*
X125867593Y-140133470D01*
X125806187Y-140322462D01*
X125775100Y-140518739D01*
X125775100Y-141987460D01*
X125806187Y-142183737D01*
X125867593Y-142372729D01*
X125867594Y-142372732D01*
X125957813Y-142549794D01*
X126074619Y-142710564D01*
X126215136Y-142851081D01*
X126375906Y-142967887D01*
X126433269Y-142997115D01*
X126484065Y-143045090D01*
X126500860Y-143112911D01*
X126478322Y-143179046D01*
X126423607Y-143222497D01*
X126376974Y-143231600D01*
X122093100Y-143231600D01*
X122026061Y-143211915D01*
X121980306Y-143159111D01*
X121969100Y-143107600D01*
X121969100Y-92893739D01*
X122600100Y-92893739D01*
X122600100Y-93092460D01*
X122631187Y-93288737D01*
X122692593Y-93477729D01*
X122692594Y-93477732D01*
X122782813Y-93654794D01*
X122899619Y-93815564D01*
X123040136Y-93956081D01*
X123200906Y-94072887D01*
X123287749Y-94117135D01*
X123377967Y-94163105D01*
X123377970Y-94163106D01*
X123472466Y-94193809D01*
X123566964Y-94224513D01*
X123763239Y-94255600D01*
X123763240Y-94255600D01*
X125231960Y-94255600D01*
X125231961Y-94255600D01*
X125428236Y-94224513D01*
X125617232Y-94163105D01*
X125794294Y-94072887D01*
X125955064Y-93956081D01*
X126095581Y-93815564D01*
X126212387Y-93654794D01*
X126302605Y-93477732D01*
X126364013Y-93288736D01*
X126395100Y-93092461D01*
X126395100Y-92893739D01*
X126364013Y-92697464D01*
X126302605Y-92508468D01*
X126302605Y-92508467D01*
X126212386Y-92331405D01*
X126169151Y-92271897D01*
X126095581Y-92170636D01*
X125955064Y-92030119D01*
X125794294Y-91913313D01*
X125617232Y-91823094D01*
X125617229Y-91823093D01*
X125428237Y-91761687D01*
X125330098Y-91746143D01*
X125231961Y-91730600D01*
X123763239Y-91730600D01*
X123697814Y-91740962D01*
X123566962Y-91761687D01*
X123377970Y-91823093D01*
X123377967Y-91823094D01*
X123200905Y-91913313D01*
X123040133Y-92030121D01*
X122899621Y-92170633D01*
X122782813Y-92331405D01*
X122692594Y-92508467D01*
X122692593Y-92508470D01*
X122631187Y-92697462D01*
X122600100Y-92893739D01*
X121969100Y-92893739D01*
X121969100Y-87103235D01*
X122600100Y-87103235D01*
X122600100Y-88722970D01*
X122600101Y-88722976D01*
X122606508Y-88782583D01*
X122656802Y-88917428D01*
X122656806Y-88917435D01*
X122743052Y-89032644D01*
X122743055Y-89032647D01*
X122858264Y-89118893D01*
X122858271Y-89118897D01*
X122993117Y-89169191D01*
X122993116Y-89169191D01*
X123000044Y-89169935D01*
X123052727Y-89175600D01*
X125942472Y-89175599D01*
X126002083Y-89169191D01*
X126136931Y-89118896D01*
X126252146Y-89032646D01*
X126338396Y-88917431D01*
X126388691Y-88782583D01*
X126395100Y-88722973D01*
X126395099Y-87103228D01*
X126388691Y-87043617D01*
X126372366Y-86999848D01*
X126338397Y-86908771D01*
X126338393Y-86908764D01*
X126252147Y-86793555D01*
X126252144Y-86793552D01*
X126136935Y-86707306D01*
X126136928Y-86707302D01*
X126002082Y-86657008D01*
X126002083Y-86657008D01*
X125942483Y-86650601D01*
X125942481Y-86650600D01*
X125942473Y-86650600D01*
X125942464Y-86650600D01*
X123052729Y-86650600D01*
X123052723Y-86650601D01*
X122993116Y-86657008D01*
X122858271Y-86707302D01*
X122858264Y-86707306D01*
X122743055Y-86793552D01*
X122743052Y-86793555D01*
X122656806Y-86908764D01*
X122656802Y-86908771D01*
X122606508Y-87043617D01*
X122600101Y-87103216D01*
X122600101Y-87103223D01*
X122600100Y-87103235D01*
X121969100Y-87103235D01*
X121969100Y-67119905D01*
X128743100Y-67119905D01*
X128743100Y-67344294D01*
X128778199Y-67565905D01*
X128847538Y-67779306D01*
X128949405Y-67979228D01*
X129081283Y-68160744D01*
X129081287Y-68160749D01*
X129239950Y-68319412D01*
X129239955Y-68319416D01*
X129398283Y-68434447D01*
X129421475Y-68451297D01*
X129548864Y-68516205D01*
X129621393Y-68553161D01*
X129621395Y-68553161D01*
X129621398Y-68553163D01*
X129735784Y-68590329D01*
X129834794Y-68622500D01*
X130056406Y-68657600D01*
X130056411Y-68657600D01*
X130280794Y-68657600D01*
X130502405Y-68622500D01*
X130715802Y-68553163D01*
X130915725Y-68451297D01*
X131097251Y-68319411D01*
X131255911Y-68160751D01*
X131387797Y-67979225D01*
X131489663Y-67779302D01*
X131559000Y-67565905D01*
X131594100Y-67344294D01*
X131594100Y-67119905D01*
X151893100Y-67119905D01*
X151893100Y-67344294D01*
X151928199Y-67565905D01*
X151997538Y-67779306D01*
X152099405Y-67979228D01*
X152231283Y-68160744D01*
X152231287Y-68160749D01*
X152389950Y-68319412D01*
X152389955Y-68319416D01*
X152548283Y-68434447D01*
X152571475Y-68451297D01*
X152698864Y-68516205D01*
X152771393Y-68553161D01*
X152771395Y-68553161D01*
X152771398Y-68553163D01*
X152885784Y-68590329D01*
X152984794Y-68622500D01*
X153206406Y-68657600D01*
X153206411Y-68657600D01*
X153430794Y-68657600D01*
X153652405Y-68622500D01*
X153865802Y-68553163D01*
X154065725Y-68451297D01*
X154247251Y-68319411D01*
X154405911Y-68160751D01*
X154537797Y-67979225D01*
X154639663Y-67779302D01*
X154709000Y-67565905D01*
X154744100Y-67344294D01*
X154744100Y-67119905D01*
X154709000Y-66898294D01*
X154639661Y-66684893D01*
X154602705Y-66612364D01*
X154537797Y-66484975D01*
X154520947Y-66461783D01*
X154405916Y-66303455D01*
X154405912Y-66303450D01*
X154247249Y-66144787D01*
X154247244Y-66144783D01*
X154065728Y-66012905D01*
X154065727Y-66012904D01*
X154065725Y-66012903D01*
X154003292Y-65981092D01*
X153865806Y-65911038D01*
X153652405Y-65841699D01*
X153430794Y-65806600D01*
X153430789Y-65806600D01*
X153206411Y-65806600D01*
X153206406Y-65806600D01*
X152984794Y-65841699D01*
X152771393Y-65911038D01*
X152571471Y-66012905D01*
X152389955Y-66144783D01*
X152389950Y-66144787D01*
X152231287Y-66303450D01*
X152231283Y-66303455D01*
X152099405Y-66484971D01*
X151997538Y-66684893D01*
X151928199Y-66898294D01*
X151893100Y-67119905D01*
X131594100Y-67119905D01*
X131559000Y-66898294D01*
X131489661Y-66684893D01*
X131452705Y-66612364D01*
X131387797Y-66484975D01*
X131370947Y-66461783D01*
X131255916Y-66303455D01*
X131255912Y-66303450D01*
X131097249Y-66144787D01*
X131097244Y-66144783D01*
X130915728Y-66012905D01*
X130915727Y-66012904D01*
X130915725Y-66012903D01*
X130853292Y-65981092D01*
X130715806Y-65911038D01*
X130502405Y-65841699D01*
X130280794Y-65806600D01*
X130280789Y-65806600D01*
X130056411Y-65806600D01*
X130056406Y-65806600D01*
X129834794Y-65841699D01*
X129621393Y-65911038D01*
X129421471Y-66012905D01*
X129239955Y-66144783D01*
X129239950Y-66144787D01*
X129081287Y-66303450D01*
X129081283Y-66303455D01*
X128949405Y-66484971D01*
X128847538Y-66684893D01*
X128778199Y-66898294D01*
X128743100Y-67119905D01*
X121969100Y-67119905D01*
X121969100Y-59856600D01*
X121988785Y-59789561D01*
X122041589Y-59743806D01*
X122093100Y-59732600D01*
X174844100Y-59732600D01*
X174911139Y-59752285D01*
G37*
%TD.AperFunction*%
%TA.AperFunction,Conductor*%
G36*
X150055020Y-74356842D02*
G01*
X150068913Y-74372875D01*
X150126135Y-74451633D01*
X150249067Y-74574565D01*
X150389716Y-74676753D01*
X150544619Y-74755680D01*
X150544621Y-74755681D01*
X150709958Y-74809402D01*
X150709959Y-74809402D01*
X150709962Y-74809403D01*
X150881674Y-74836600D01*
X150881675Y-74836600D01*
X151055523Y-74836600D01*
X151055526Y-74836600D01*
X151130904Y-74824660D01*
X151149441Y-74827055D01*
X151167947Y-74824395D01*
X151183375Y-74831440D01*
X151200193Y-74833614D01*
X151214494Y-74845652D01*
X151231503Y-74853420D01*
X151240672Y-74867688D01*
X151253646Y-74878609D01*
X151259168Y-74896469D01*
X151269277Y-74912198D01*
X151273834Y-74943897D01*
X151274287Y-74945360D01*
X151274300Y-74947133D01*
X151274300Y-75017065D01*
X151254615Y-75084104D01*
X151201811Y-75129859D01*
X151132653Y-75139803D01*
X151130903Y-75139538D01*
X151055526Y-75127600D01*
X150881674Y-75127600D01*
X150824436Y-75136665D01*
X150709960Y-75154797D01*
X150709957Y-75154797D01*
X150544621Y-75208518D01*
X150389715Y-75287447D01*
X150309469Y-75345749D01*
X150249067Y-75389635D01*
X150249065Y-75389637D01*
X150249064Y-75389637D01*
X150126137Y-75512564D01*
X150126137Y-75512565D01*
X150126135Y-75512567D01*
X150082249Y-75572969D01*
X150023947Y-75653215D01*
X149945018Y-75808121D01*
X149891297Y-75973457D01*
X149891297Y-75973460D01*
X149864100Y-76145174D01*
X149864100Y-76319025D01*
X149891297Y-76490739D01*
X149891297Y-76490742D01*
X149945018Y-76656078D01*
X150023947Y-76810984D01*
X150110937Y-76930715D01*
X150134417Y-76996520D01*
X150118592Y-77064574D01*
X150068486Y-77113269D01*
X150010619Y-77127600D01*
X149881674Y-77127600D01*
X149824436Y-77136665D01*
X149709960Y-77154797D01*
X149709957Y-77154797D01*
X149544621Y-77208518D01*
X149389715Y-77287447D01*
X149349842Y-77316417D01*
X149249067Y-77389635D01*
X149249065Y-77389637D01*
X149249064Y-77389637D01*
X149126136Y-77512565D01*
X149068918Y-77591319D01*
X149013587Y-77633985D01*
X148943974Y-77639963D01*
X148882179Y-77607357D01*
X148868282Y-77591319D01*
X148865148Y-77587005D01*
X148811065Y-77512567D01*
X148688133Y-77389635D01*
X148547484Y-77287447D01*
X148392578Y-77208518D01*
X148227241Y-77154797D01*
X148098454Y-77134399D01*
X148055526Y-77127600D01*
X147926581Y-77127600D01*
X147859542Y-77107915D01*
X147813787Y-77055111D01*
X147803843Y-76985953D01*
X147826262Y-76930715D01*
X147913253Y-76810984D01*
X147992180Y-76656081D01*
X147992181Y-76656078D01*
X148045902Y-76490742D01*
X148045902Y-76490741D01*
X148045903Y-76490738D01*
X148073100Y-76319026D01*
X148073100Y-76145174D01*
X148045903Y-75973462D01*
X148045902Y-75973458D01*
X148045902Y-75973457D01*
X147992181Y-75808121D01*
X147992180Y-75808119D01*
X147913253Y-75653216D01*
X147811065Y-75512567D01*
X147688133Y-75389635D01*
X147547484Y-75287447D01*
X147461300Y-75243534D01*
X147392578Y-75208518D01*
X147227241Y-75154797D01*
X147070388Y-75129954D01*
X147055526Y-75127600D01*
X146881674Y-75127600D01*
X146824436Y-75136665D01*
X146709960Y-75154797D01*
X146709957Y-75154797D01*
X146544621Y-75208518D01*
X146389715Y-75287447D01*
X146309469Y-75345749D01*
X146249067Y-75389635D01*
X146249065Y-75389637D01*
X146249064Y-75389637D01*
X146126136Y-75512565D01*
X146068918Y-75591319D01*
X146013587Y-75633985D01*
X145943974Y-75639963D01*
X145882179Y-75607357D01*
X145868282Y-75591319D01*
X145865148Y-75587005D01*
X145811065Y-75512567D01*
X145688133Y-75389635D01*
X145547484Y-75287447D01*
X145461300Y-75243534D01*
X145392578Y-75208518D01*
X145227241Y-75154797D01*
X145070388Y-75129954D01*
X145055526Y-75127600D01*
X144881674Y-75127600D01*
X144824436Y-75136665D01*
X144709960Y-75154797D01*
X144709957Y-75154797D01*
X144544621Y-75208518D01*
X144389715Y-75287447D01*
X144309469Y-75345749D01*
X144249067Y-75389635D01*
X144249065Y-75389637D01*
X144249064Y-75389637D01*
X144126137Y-75512564D01*
X144126137Y-75512565D01*
X144126135Y-75512567D01*
X144082249Y-75572969D01*
X144023947Y-75653215D01*
X143945018Y-75808121D01*
X143891297Y-75973457D01*
X143891297Y-75973460D01*
X143864100Y-76145174D01*
X143864100Y-76319025D01*
X143891297Y-76490739D01*
X143891297Y-76490742D01*
X143945018Y-76656078D01*
X144023947Y-76810984D01*
X144110937Y-76930715D01*
X144134417Y-76996520D01*
X144118592Y-77064574D01*
X144068486Y-77113269D01*
X144010619Y-77127600D01*
X143881674Y-77127600D01*
X143824436Y-77136665D01*
X143709960Y-77154797D01*
X143709957Y-77154797D01*
X143544621Y-77208518D01*
X143389715Y-77287447D01*
X143349842Y-77316417D01*
X143249067Y-77389635D01*
X143249065Y-77389637D01*
X143249064Y-77389637D01*
X143126137Y-77512564D01*
X143126137Y-77512565D01*
X143126135Y-77512567D01*
X143082249Y-77572969D01*
X143023947Y-77653215D01*
X142945018Y-77808121D01*
X142891297Y-77973457D01*
X142891297Y-77973460D01*
X142864100Y-78145174D01*
X142864100Y-78319025D01*
X142891297Y-78490739D01*
X142891297Y-78490742D01*
X142945018Y-78656078D01*
X142986616Y-78737718D01*
X143023947Y-78810984D01*
X143126135Y-78951633D01*
X143249067Y-79074565D01*
X143389716Y-79176753D01*
X143536798Y-79251695D01*
X143544621Y-79255681D01*
X143709958Y-79309402D01*
X143709959Y-79309402D01*
X143709962Y-79309403D01*
X143881674Y-79336600D01*
X143881675Y-79336600D01*
X144055525Y-79336600D01*
X144055526Y-79336600D01*
X144227238Y-79309403D01*
X144227241Y-79309402D01*
X144227242Y-79309402D01*
X144392578Y-79255681D01*
X144392578Y-79255680D01*
X144392581Y-79255680D01*
X144547484Y-79176753D01*
X144688133Y-79074565D01*
X144811065Y-78951633D01*
X144868283Y-78872878D01*
X144923612Y-78830215D01*
X144993225Y-78824236D01*
X145055020Y-78856842D01*
X145068913Y-78872875D01*
X145126135Y-78951633D01*
X145249067Y-79074565D01*
X145389716Y-79176753D01*
X145536798Y-79251695D01*
X145544621Y-79255681D01*
X145709958Y-79309402D01*
X145709959Y-79309402D01*
X145709962Y-79309403D01*
X145881674Y-79336600D01*
X145881675Y-79336600D01*
X146055525Y-79336600D01*
X146055526Y-79336600D01*
X146227238Y-79309403D01*
X146227241Y-79309402D01*
X146227242Y-79309402D01*
X146392578Y-79255681D01*
X146392578Y-79255680D01*
X146392581Y-79255680D01*
X146547484Y-79176753D01*
X146688133Y-79074565D01*
X146811065Y-78951633D01*
X146868283Y-78872878D01*
X146923612Y-78830215D01*
X146993225Y-78824236D01*
X147055020Y-78856842D01*
X147068913Y-78872875D01*
X147126135Y-78951633D01*
X147249067Y-79074565D01*
X147389716Y-79176753D01*
X147536798Y-79251695D01*
X147544621Y-79255681D01*
X147709958Y-79309402D01*
X147709959Y-79309402D01*
X147709962Y-79309403D01*
X147881674Y-79336600D01*
X147881675Y-79336600D01*
X148055525Y-79336600D01*
X148055526Y-79336600D01*
X148227238Y-79309403D01*
X148227241Y-79309402D01*
X148227242Y-79309402D01*
X148392578Y-79255681D01*
X148392578Y-79255680D01*
X148392581Y-79255680D01*
X148547484Y-79176753D01*
X148688133Y-79074565D01*
X148811065Y-78951633D01*
X148868283Y-78872878D01*
X148923612Y-78830215D01*
X148993225Y-78824236D01*
X149055020Y-78856842D01*
X149068913Y-78872875D01*
X149126135Y-78951633D01*
X149249067Y-79074565D01*
X149389716Y-79176753D01*
X149536798Y-79251695D01*
X149544621Y-79255681D01*
X149709958Y-79309402D01*
X149709959Y-79309402D01*
X149709962Y-79309403D01*
X149881674Y-79336600D01*
X149881675Y-79336600D01*
X150055525Y-79336600D01*
X150055526Y-79336600D01*
X150227238Y-79309403D01*
X150227243Y-79309401D01*
X150227245Y-79309401D01*
X150274625Y-79294006D01*
X150300080Y-79285734D01*
X150369921Y-79283738D01*
X150429755Y-79319818D01*
X150460584Y-79382519D01*
X150462400Y-79403665D01*
X150462400Y-123935530D01*
X150462399Y-123935548D01*
X150462399Y-124101254D01*
X150462398Y-124101254D01*
X150503323Y-124253985D01*
X150527328Y-124295563D01*
X150527330Y-124295565D01*
X150582379Y-124390914D01*
X150582381Y-124390917D01*
X150701249Y-124509785D01*
X150701255Y-124509790D01*
X151366925Y-125175460D01*
X151400410Y-125236783D01*
X151400861Y-125238949D01*
X151431761Y-125394291D01*
X151431764Y-125394301D01*
X151492102Y-125539972D01*
X151492109Y-125539985D01*
X151579710Y-125671088D01*
X151579713Y-125671092D01*
X151691207Y-125782586D01*
X151691211Y-125782589D01*
X151822314Y-125870190D01*
X151822327Y-125870197D01*
X151967998Y-125930535D01*
X151968003Y-125930537D01*
X152093198Y-125955440D01*
X152122653Y-125961299D01*
X152122656Y-125961300D01*
X152185800Y-125961300D01*
X152252839Y-125980985D01*
X152298594Y-126033789D01*
X152309800Y-126085300D01*
X152309800Y-126957921D01*
X152290115Y-127024960D01*
X152237311Y-127070715D01*
X152209992Y-127079538D01*
X152197808Y-127081961D01*
X152197798Y-127081964D01*
X152052127Y-127142302D01*
X152052114Y-127142309D01*
X151921011Y-127229910D01*
X151921007Y-127229913D01*
X151809513Y-127341407D01*
X151809510Y-127341411D01*
X151721909Y-127472514D01*
X151721902Y-127472527D01*
X151661564Y-127618198D01*
X151661561Y-127618210D01*
X151630800Y-127772853D01*
X151630800Y-127930546D01*
X151661561Y-128085189D01*
X151661564Y-128085201D01*
X151721902Y-128230872D01*
X151721909Y-128230885D01*
X151809510Y-128361988D01*
X151809513Y-128361992D01*
X151921007Y-128473486D01*
X151921011Y-128473489D01*
X152052114Y-128561090D01*
X152052127Y-128561097D01*
X152197798Y-128621435D01*
X152197803Y-128621437D01*
X152352453Y-128652199D01*
X152352456Y-128652200D01*
X152352458Y-128652200D01*
X152510144Y-128652200D01*
X152510145Y-128652199D01*
X152664797Y-128621437D01*
X152810479Y-128561094D01*
X152941589Y-128473489D01*
X153053089Y-128361989D01*
X153140694Y-128230879D01*
X153140697Y-128230871D01*
X153141939Y-128228550D01*
X153142914Y-128227556D01*
X153144079Y-128225814D01*
X153144409Y-128226034D01*
X153190899Y-128178703D01*
X153259036Y-128163240D01*
X153324717Y-128187068D01*
X153367088Y-128242624D01*
X153375300Y-128286998D01*
X153375300Y-135176102D01*
X153355615Y-135243141D01*
X153338981Y-135263783D01*
X149417081Y-139185682D01*
X149417079Y-139185685D01*
X149372498Y-139262902D01*
X149366960Y-139272495D01*
X149338023Y-139322615D01*
X149300181Y-139463838D01*
X149298422Y-139468728D01*
X149280750Y-139492911D01*
X149265157Y-139518493D01*
X149258896Y-139522818D01*
X149257199Y-139525141D01*
X149253425Y-139526598D01*
X149238060Y-139537214D01*
X149235911Y-139538309D01*
X149075133Y-139655121D01*
X148934621Y-139795633D01*
X148817813Y-139956405D01*
X148727594Y-140133467D01*
X148727593Y-140133470D01*
X148666187Y-140322462D01*
X148635100Y-140518739D01*
X148635100Y-141987460D01*
X148666187Y-142183737D01*
X148727593Y-142372729D01*
X148727594Y-142372732D01*
X148817813Y-142549794D01*
X148934619Y-142710564D01*
X149075136Y-142851081D01*
X149235906Y-142967887D01*
X149293269Y-142997115D01*
X149344065Y-143045090D01*
X149360860Y-143112911D01*
X149338322Y-143179046D01*
X149283607Y-143222497D01*
X149236974Y-143231600D01*
X142938226Y-143231600D01*
X142871187Y-143211915D01*
X142825432Y-143159111D01*
X142815488Y-143089953D01*
X142844513Y-143026397D01*
X142881931Y-142997115D01*
X142939294Y-142967887D01*
X143100064Y-142851081D01*
X143240581Y-142710564D01*
X143357387Y-142549794D01*
X143447605Y-142372732D01*
X143509013Y-142183736D01*
X143540100Y-141987461D01*
X143540100Y-140518739D01*
X143509013Y-140322464D01*
X143447605Y-140133468D01*
X143447605Y-140133467D01*
X143357386Y-139956405D01*
X143240581Y-139795636D01*
X143100064Y-139655119D01*
X142939294Y-139538313D01*
X142937144Y-139537217D01*
X142936475Y-139536585D01*
X142935146Y-139535771D01*
X142935317Y-139535491D01*
X142886353Y-139489238D01*
X142873676Y-139458835D01*
X142837177Y-139322616D01*
X142802702Y-139262903D01*
X142758124Y-139185690D01*
X142758121Y-139185686D01*
X142758120Y-139185684D01*
X142646316Y-139073880D01*
X142646315Y-139073879D01*
X142641985Y-139069549D01*
X142641974Y-139069539D01*
X141668119Y-138095684D01*
X141634634Y-138034361D01*
X141631800Y-138008003D01*
X141631800Y-133452537D01*
X143682100Y-133452537D01*
X143682100Y-133813662D01*
X143717496Y-134173057D01*
X143787944Y-134527230D01*
X143787947Y-134527241D01*
X143892781Y-134872833D01*
X144030981Y-135206476D01*
X144030983Y-135206481D01*
X144201209Y-135524952D01*
X144201220Y-135524970D01*
X144401844Y-135825225D01*
X144401854Y-135825239D01*
X144630954Y-136104397D01*
X144886302Y-136359745D01*
X144886307Y-136359749D01*
X144886308Y-136359750D01*
X145165466Y-136588850D01*
X145465736Y-136789484D01*
X145465745Y-136789489D01*
X145465747Y-136789490D01*
X145784218Y-136959716D01*
X145784220Y-136959716D01*
X145784226Y-136959720D01*
X146117868Y-137097919D01*
X146463449Y-137202750D01*
X146463455Y-137202751D01*
X146463458Y-137202752D01*
X146463469Y-137202755D01*
X146817642Y-137273203D01*
X147177034Y-137308600D01*
X147177037Y-137308600D01*
X147538163Y-137308600D01*
X147538166Y-137308600D01*
X147897558Y-137273203D01*
X147999699Y-137252886D01*
X148251730Y-137202755D01*
X148251741Y-137202752D01*
X148251741Y-137202751D01*
X148251751Y-137202750D01*
X148597332Y-137097919D01*
X148930974Y-136959720D01*
X149249464Y-136789484D01*
X149549734Y-136588850D01*
X149828892Y-136359750D01*
X150084250Y-136104392D01*
X150313350Y-135825234D01*
X150513984Y-135524964D01*
X150684220Y-135206474D01*
X150822419Y-134872832D01*
X150927250Y-134527251D01*
X150927252Y-134527241D01*
X150927255Y-134527230D01*
X150997703Y-134173057D01*
X151006210Y-134086685D01*
X151033100Y-133813666D01*
X151033100Y-133452534D01*
X150997703Y-133093142D01*
X150973672Y-132972328D01*
X150927255Y-132738969D01*
X150927252Y-132738958D01*
X150927251Y-132738955D01*
X150927250Y-132738949D01*
X150822419Y-132393368D01*
X150684220Y-132059726D01*
X150513984Y-131741236D01*
X150313350Y-131440966D01*
X150084250Y-131161808D01*
X150084249Y-131161807D01*
X150084245Y-131161802D01*
X149828897Y-130906454D01*
X149549739Y-130677354D01*
X149549738Y-130677353D01*
X149549734Y-130677350D01*
X149249464Y-130476716D01*
X149249459Y-130476713D01*
X149249452Y-130476709D01*
X148930981Y-130306483D01*
X148930976Y-130306481D01*
X148597333Y-130168281D01*
X148251741Y-130063447D01*
X148251730Y-130063444D01*
X147897557Y-129992996D01*
X147626879Y-129966337D01*
X147538166Y-129957600D01*
X147177034Y-129957600D01*
X147095065Y-129965673D01*
X146817642Y-129992996D01*
X146463469Y-130063444D01*
X146463458Y-130063447D01*
X146117866Y-130168281D01*
X145784223Y-130306481D01*
X145784218Y-130306483D01*
X145465747Y-130476709D01*
X145465729Y-130476720D01*
X145165474Y-130677344D01*
X145165460Y-130677354D01*
X144886302Y-130906454D01*
X144630954Y-131161802D01*
X144401854Y-131440960D01*
X144401844Y-131440974D01*
X144201220Y-131741229D01*
X144201209Y-131741247D01*
X144030983Y-132059718D01*
X144030981Y-132059723D01*
X143892781Y-132393366D01*
X143787947Y-132738958D01*
X143787944Y-132738969D01*
X143717496Y-133093142D01*
X143682100Y-133452537D01*
X141631800Y-133452537D01*
X141631800Y-80958053D01*
X143668100Y-80958053D01*
X143668100Y-81115746D01*
X143698861Y-81270389D01*
X143698864Y-81270401D01*
X143759202Y-81416072D01*
X143759209Y-81416085D01*
X143846810Y-81547188D01*
X143846813Y-81547192D01*
X143958307Y-81658686D01*
X143958311Y-81658689D01*
X144089414Y-81746290D01*
X144089427Y-81746297D01*
X144235098Y-81806635D01*
X144235103Y-81806637D01*
X144389753Y-81837399D01*
X144389756Y-81837400D01*
X144389758Y-81837400D01*
X144547444Y-81837400D01*
X144547445Y-81837399D01*
X144702097Y-81806637D01*
X144847779Y-81746294D01*
X144978889Y-81658689D01*
X145090389Y-81547189D01*
X145177994Y-81416079D01*
X145238337Y-81270397D01*
X145269100Y-81115742D01*
X145269100Y-80958058D01*
X145269100Y-80958055D01*
X145269099Y-80958053D01*
X145238338Y-80803410D01*
X145238337Y-80803403D01*
X145238335Y-80803398D01*
X145177997Y-80657727D01*
X145177990Y-80657714D01*
X145090389Y-80526611D01*
X145090386Y-80526607D01*
X144978892Y-80415113D01*
X144978888Y-80415110D01*
X144847785Y-80327509D01*
X144847772Y-80327502D01*
X144702101Y-80267164D01*
X144702089Y-80267161D01*
X144547445Y-80236400D01*
X144547442Y-80236400D01*
X144389758Y-80236400D01*
X144389755Y-80236400D01*
X144235110Y-80267161D01*
X144235098Y-80267164D01*
X144089427Y-80327502D01*
X144089414Y-80327509D01*
X143958311Y-80415110D01*
X143958307Y-80415113D01*
X143846813Y-80526607D01*
X143846810Y-80526611D01*
X143759209Y-80657714D01*
X143759202Y-80657727D01*
X143698864Y-80803398D01*
X143698861Y-80803410D01*
X143668100Y-80958053D01*
X141631800Y-80958053D01*
X141631800Y-77770997D01*
X141651485Y-77703958D01*
X141668119Y-77683316D01*
X141993615Y-77357820D01*
X142391520Y-76959916D01*
X142470577Y-76822984D01*
X142511501Y-76670257D01*
X142511501Y-76512142D01*
X142511501Y-76504547D01*
X142511500Y-76504529D01*
X142511500Y-75948159D01*
X142511501Y-75948146D01*
X142511501Y-75780045D01*
X142511501Y-75780043D01*
X142470577Y-75627315D01*
X142425352Y-75548984D01*
X142391520Y-75490384D01*
X142279716Y-75378580D01*
X142279715Y-75378579D01*
X142275385Y-75374249D01*
X142275374Y-75374239D01*
X141667755Y-74766620D01*
X141634270Y-74705297D01*
X141639254Y-74635605D01*
X141681126Y-74579672D01*
X141682555Y-74578618D01*
X141688129Y-74574568D01*
X141688129Y-74574567D01*
X141688133Y-74574565D01*
X141811065Y-74451633D01*
X141868283Y-74372878D01*
X141923612Y-74330215D01*
X141993225Y-74324236D01*
X142055020Y-74356842D01*
X142068913Y-74372875D01*
X142126135Y-74451633D01*
X142249067Y-74574565D01*
X142389716Y-74676753D01*
X142544619Y-74755680D01*
X142544621Y-74755681D01*
X142709958Y-74809402D01*
X142709959Y-74809402D01*
X142709962Y-74809403D01*
X142881674Y-74836600D01*
X142881675Y-74836600D01*
X143055525Y-74836600D01*
X143055526Y-74836600D01*
X143227238Y-74809403D01*
X143227241Y-74809402D01*
X143227242Y-74809402D01*
X143392578Y-74755681D01*
X143392578Y-74755680D01*
X143392581Y-74755680D01*
X143547484Y-74676753D01*
X143688133Y-74574565D01*
X143811065Y-74451633D01*
X143868283Y-74372878D01*
X143923612Y-74330215D01*
X143993225Y-74324236D01*
X144055020Y-74356842D01*
X144068913Y-74372875D01*
X144126135Y-74451633D01*
X144249067Y-74574565D01*
X144389716Y-74676753D01*
X144544619Y-74755680D01*
X144544621Y-74755681D01*
X144709958Y-74809402D01*
X144709959Y-74809402D01*
X144709962Y-74809403D01*
X144881674Y-74836600D01*
X144881675Y-74836600D01*
X145055525Y-74836600D01*
X145055526Y-74836600D01*
X145227238Y-74809403D01*
X145227241Y-74809402D01*
X145227242Y-74809402D01*
X145392578Y-74755681D01*
X145392578Y-74755680D01*
X145392581Y-74755680D01*
X145547484Y-74676753D01*
X145688133Y-74574565D01*
X145811065Y-74451633D01*
X145868283Y-74372878D01*
X145923612Y-74330215D01*
X145993225Y-74324236D01*
X146055020Y-74356842D01*
X146068913Y-74372875D01*
X146126135Y-74451633D01*
X146249067Y-74574565D01*
X146389716Y-74676753D01*
X146544619Y-74755680D01*
X146544621Y-74755681D01*
X146709958Y-74809402D01*
X146709959Y-74809402D01*
X146709962Y-74809403D01*
X146881674Y-74836600D01*
X146881675Y-74836600D01*
X147055525Y-74836600D01*
X147055526Y-74836600D01*
X147227238Y-74809403D01*
X147227241Y-74809402D01*
X147227242Y-74809402D01*
X147392578Y-74755681D01*
X147392578Y-74755680D01*
X147392581Y-74755680D01*
X147547484Y-74676753D01*
X147688133Y-74574565D01*
X147811065Y-74451633D01*
X147868283Y-74372878D01*
X147923612Y-74330215D01*
X147993225Y-74324236D01*
X148055020Y-74356842D01*
X148068913Y-74372875D01*
X148126135Y-74451633D01*
X148249067Y-74574565D01*
X148389716Y-74676753D01*
X148544619Y-74755680D01*
X148544621Y-74755681D01*
X148709958Y-74809402D01*
X148709959Y-74809402D01*
X148709962Y-74809403D01*
X148881674Y-74836600D01*
X148881675Y-74836600D01*
X149055525Y-74836600D01*
X149055526Y-74836600D01*
X149227238Y-74809403D01*
X149227241Y-74809402D01*
X149227242Y-74809402D01*
X149392578Y-74755681D01*
X149392578Y-74755680D01*
X149392581Y-74755680D01*
X149547484Y-74676753D01*
X149688133Y-74574565D01*
X149811065Y-74451633D01*
X149868283Y-74372878D01*
X149923612Y-74330215D01*
X149993225Y-74324236D01*
X150055020Y-74356842D01*
G37*
%TD.AperFunction*%
%TA.AperFunction,Conductor*%
G36*
X138985983Y-78824857D02*
G01*
X138993225Y-78824236D01*
X139018103Y-78837363D01*
X139044320Y-78847570D01*
X139051553Y-78855012D01*
X139055020Y-78856842D01*
X139068913Y-78872875D01*
X139126135Y-78951633D01*
X139249067Y-79074565D01*
X139389716Y-79176753D01*
X139536798Y-79251695D01*
X139544621Y-79255681D01*
X139709958Y-79309402D01*
X139709959Y-79309402D01*
X139709962Y-79309403D01*
X139881674Y-79336600D01*
X139881675Y-79336600D01*
X140055525Y-79336600D01*
X140055526Y-79336600D01*
X140227238Y-79309403D01*
X140268482Y-79296001D01*
X140338322Y-79294006D01*
X140398155Y-79330086D01*
X140428984Y-79392787D01*
X140430800Y-79413933D01*
X140430800Y-138221430D01*
X140430799Y-138221448D01*
X140430799Y-138387154D01*
X140430798Y-138387154D01*
X140471723Y-138539885D01*
X140500658Y-138590000D01*
X140500659Y-138590004D01*
X140500660Y-138590004D01*
X140550779Y-138676814D01*
X140550781Y-138676817D01*
X140669649Y-138795685D01*
X140669655Y-138795690D01*
X141404429Y-139530464D01*
X141437914Y-139591787D01*
X141432930Y-139661479D01*
X141404429Y-139705826D01*
X141314621Y-139795633D01*
X141197813Y-139956405D01*
X141118085Y-140112880D01*
X141070110Y-140163676D01*
X141002289Y-140180471D01*
X140936154Y-140157933D01*
X140897115Y-140112880D01*
X140817386Y-139956405D01*
X140700581Y-139795636D01*
X140560064Y-139655119D01*
X140399294Y-139538313D01*
X140373443Y-139525141D01*
X140222232Y-139448094D01*
X140222229Y-139448093D01*
X140033237Y-139386687D01*
X139935098Y-139371143D01*
X139836961Y-139355600D01*
X139638239Y-139355600D01*
X139572814Y-139365962D01*
X139441962Y-139386687D01*
X139252970Y-139448093D01*
X139252967Y-139448094D01*
X139075905Y-139538313D01*
X138915133Y-139655121D01*
X138774621Y-139795633D01*
X138657813Y-139956405D01*
X138578085Y-140112880D01*
X138530110Y-140163676D01*
X138462289Y-140180471D01*
X138396154Y-140157933D01*
X138357115Y-140112880D01*
X138277386Y-139956405D01*
X138160581Y-139795636D01*
X138020064Y-139655119D01*
X137859294Y-139538313D01*
X137857144Y-139537217D01*
X137856475Y-139536585D01*
X137855146Y-139535771D01*
X137855317Y-139535491D01*
X137836196Y-139517429D01*
X137813332Y-139499898D01*
X137809778Y-139492473D01*
X137806353Y-139489238D01*
X137796776Y-139468728D01*
X137795020Y-139463850D01*
X137757177Y-139322616D01*
X137757177Y-139322615D01*
X137728239Y-139272495D01*
X137678120Y-139185684D01*
X137566316Y-139073880D01*
X137566315Y-139073879D01*
X137561985Y-139069549D01*
X137561974Y-139069539D01*
X132850019Y-134357584D01*
X132816534Y-134296261D01*
X132813700Y-134269903D01*
X132813700Y-126233465D01*
X132833385Y-126166426D01*
X132834598Y-126164574D01*
X132922590Y-126032885D01*
X132922590Y-126032884D01*
X132922594Y-126032879D01*
X132982937Y-125887197D01*
X133013700Y-125732542D01*
X133013700Y-125574858D01*
X133013700Y-125574855D01*
X133013699Y-125574853D01*
X132982938Y-125420210D01*
X132982937Y-125420203D01*
X132972208Y-125394301D01*
X132922597Y-125274527D01*
X132922590Y-125274514D01*
X132846238Y-125160246D01*
X132825360Y-125093569D01*
X132843844Y-125026188D01*
X132861655Y-125003678D01*
X138327106Y-119538228D01*
X138327111Y-119538224D01*
X138337314Y-119528020D01*
X138337316Y-119528020D01*
X138449120Y-119416216D01*
X138478862Y-119364701D01*
X138504125Y-119320945D01*
X138504126Y-119320943D01*
X138528174Y-119279290D01*
X138528173Y-119279290D01*
X138528177Y-119279285D01*
X138569100Y-119126558D01*
X138569100Y-118968443D01*
X138569100Y-79224228D01*
X138588785Y-79157189D01*
X138620216Y-79123909D01*
X138688129Y-79074568D01*
X138688129Y-79074567D01*
X138688133Y-79074565D01*
X138811065Y-78951633D01*
X138868283Y-78872878D01*
X138890557Y-78855703D01*
X138910733Y-78836096D01*
X138917857Y-78834652D01*
X138923612Y-78830215D01*
X138951637Y-78827807D01*
X138979211Y-78822221D01*
X138985983Y-78824857D01*
G37*
%TD.AperFunction*%
%TA.AperFunction,Conductor*%
G36*
X156787434Y-87660415D02*
G01*
X156843367Y-87702287D01*
X156867784Y-87767751D01*
X156868100Y-87776597D01*
X156868100Y-108097430D01*
X156868099Y-108097448D01*
X156868099Y-108263154D01*
X156868098Y-108263154D01*
X156909023Y-108415885D01*
X156937958Y-108466000D01*
X156937959Y-108466004D01*
X156937960Y-108466004D01*
X156988079Y-108552814D01*
X156988081Y-108552817D01*
X157106949Y-108671685D01*
X157106955Y-108671690D01*
X169212781Y-120777516D01*
X169246266Y-120838839D01*
X169249100Y-120865197D01*
X169249100Y-136559730D01*
X169249099Y-136559748D01*
X169249099Y-136725454D01*
X169249098Y-136725454D01*
X169290023Y-136878185D01*
X169318958Y-136928300D01*
X169318959Y-136928304D01*
X169318960Y-136928304D01*
X169369079Y-137015114D01*
X169369081Y-137015117D01*
X169487949Y-137133985D01*
X169487955Y-137133990D01*
X171884429Y-139530464D01*
X171917914Y-139591787D01*
X171912930Y-139661479D01*
X171884429Y-139705826D01*
X171794621Y-139795633D01*
X171677813Y-139956405D01*
X171598085Y-140112880D01*
X171550110Y-140163676D01*
X171482289Y-140180471D01*
X171416154Y-140157933D01*
X171377115Y-140112880D01*
X171297386Y-139956405D01*
X171180581Y-139795636D01*
X171040064Y-139655119D01*
X170879294Y-139538313D01*
X170853443Y-139525141D01*
X170702232Y-139448094D01*
X170702229Y-139448093D01*
X170513237Y-139386687D01*
X170415098Y-139371143D01*
X170316961Y-139355600D01*
X170118239Y-139355600D01*
X170052814Y-139365962D01*
X169921962Y-139386687D01*
X169732970Y-139448093D01*
X169732967Y-139448094D01*
X169555905Y-139538313D01*
X169395133Y-139655121D01*
X169254621Y-139795633D01*
X169137813Y-139956405D01*
X169058085Y-140112880D01*
X169010110Y-140163676D01*
X168942289Y-140180471D01*
X168876154Y-140157933D01*
X168837115Y-140112880D01*
X168757386Y-139956405D01*
X168640581Y-139795636D01*
X168500064Y-139655119D01*
X168339294Y-139538313D01*
X168313443Y-139525141D01*
X168162232Y-139448094D01*
X168162229Y-139448093D01*
X167973237Y-139386687D01*
X167875098Y-139371143D01*
X167776961Y-139355600D01*
X167578239Y-139355600D01*
X167512814Y-139365962D01*
X167381962Y-139386687D01*
X167192970Y-139448093D01*
X167192967Y-139448094D01*
X167015905Y-139538313D01*
X166855133Y-139655121D01*
X166714621Y-139795633D01*
X166597813Y-139956405D01*
X166518085Y-140112880D01*
X166470110Y-140163676D01*
X166402289Y-140180471D01*
X166336154Y-140157933D01*
X166297115Y-140112880D01*
X166217386Y-139956405D01*
X166100581Y-139795636D01*
X165960064Y-139655119D01*
X165799294Y-139538313D01*
X165799290Y-139538310D01*
X165797315Y-139537100D01*
X165796721Y-139536443D01*
X165795352Y-139535449D01*
X165795560Y-139535161D01*
X165750437Y-139485290D01*
X165738100Y-139431370D01*
X165738100Y-127178060D01*
X165738101Y-127178047D01*
X165738101Y-127009944D01*
X165697176Y-126857214D01*
X165697173Y-126857209D01*
X165618124Y-126720290D01*
X165618118Y-126720282D01*
X160071573Y-121173737D01*
X160038088Y-121112414D01*
X160037637Y-121110247D01*
X160006738Y-120954910D01*
X160006737Y-120954903D01*
X159969580Y-120865197D01*
X159946397Y-120809227D01*
X159946390Y-120809214D01*
X159858789Y-120678111D01*
X159858786Y-120678107D01*
X159747292Y-120566613D01*
X159747288Y-120566610D01*
X159616185Y-120479009D01*
X159616172Y-120479002D01*
X159470501Y-120418664D01*
X159470489Y-120418661D01*
X159315845Y-120387900D01*
X159315842Y-120387900D01*
X159158158Y-120387900D01*
X159158153Y-120387900D01*
X159137391Y-120392030D01*
X159067799Y-120385803D01*
X159012622Y-120342939D01*
X158989378Y-120277049D01*
X158989200Y-120270413D01*
X158989200Y-119710965D01*
X159008885Y-119643926D01*
X159010098Y-119642074D01*
X159098090Y-119510385D01*
X159098090Y-119510384D01*
X159098094Y-119510379D01*
X159158437Y-119364697D01*
X159189200Y-119210042D01*
X159189200Y-119052358D01*
X159189200Y-119052355D01*
X159189199Y-119052353D01*
X159163616Y-118923739D01*
X159158437Y-118897703D01*
X159132500Y-118835084D01*
X159098097Y-118752027D01*
X159098090Y-118752014D01*
X159010489Y-118620911D01*
X159010486Y-118620907D01*
X158898992Y-118509413D01*
X158898988Y-118509410D01*
X158767885Y-118421809D01*
X158767872Y-118421802D01*
X158622201Y-118361464D01*
X158622189Y-118361461D01*
X158467545Y-118330700D01*
X158467542Y-118330700D01*
X158309858Y-118330700D01*
X158309855Y-118330700D01*
X158155210Y-118361461D01*
X158155198Y-118361464D01*
X158009527Y-118421802D01*
X158009514Y-118421809D01*
X157878411Y-118509410D01*
X157878407Y-118509413D01*
X157766913Y-118620907D01*
X157766910Y-118620911D01*
X157679309Y-118752014D01*
X157679302Y-118752027D01*
X157618964Y-118897698D01*
X157618961Y-118897710D01*
X157588200Y-119052353D01*
X157588200Y-119210046D01*
X157618961Y-119364689D01*
X157618964Y-119364701D01*
X157679302Y-119510372D01*
X157679309Y-119510385D01*
X157767302Y-119642074D01*
X157788180Y-119708751D01*
X157788200Y-119710965D01*
X157788200Y-135258830D01*
X157788199Y-135258848D01*
X157788199Y-135424554D01*
X157788198Y-135424554D01*
X157823220Y-135555257D01*
X157829123Y-135577285D01*
X157849467Y-135612521D01*
X157908179Y-135714214D01*
X157908181Y-135714217D01*
X158027049Y-135833085D01*
X158027055Y-135833090D01*
X161724429Y-139530464D01*
X161757914Y-139591787D01*
X161752930Y-139661479D01*
X161724429Y-139705826D01*
X161634621Y-139795633D01*
X161517813Y-139956405D01*
X161438085Y-140112880D01*
X161390110Y-140163676D01*
X161322289Y-140180471D01*
X161256154Y-140157933D01*
X161217115Y-140112880D01*
X161137386Y-139956405D01*
X161020581Y-139795636D01*
X160880064Y-139655119D01*
X160719294Y-139538313D01*
X160693443Y-139525141D01*
X160542232Y-139448094D01*
X160542229Y-139448093D01*
X160353237Y-139386687D01*
X160255098Y-139371143D01*
X160156961Y-139355600D01*
X159958239Y-139355600D01*
X159892814Y-139365962D01*
X159761962Y-139386687D01*
X159572970Y-139448093D01*
X159572967Y-139448094D01*
X159395905Y-139538313D01*
X159235133Y-139655121D01*
X159094621Y-139795633D01*
X158977813Y-139956405D01*
X158898085Y-140112880D01*
X158850110Y-140163676D01*
X158782289Y-140180471D01*
X158716154Y-140157933D01*
X158677115Y-140112880D01*
X158597386Y-139956405D01*
X158480581Y-139795636D01*
X158340064Y-139655119D01*
X158179294Y-139538313D01*
X158153443Y-139525141D01*
X158002232Y-139448094D01*
X158002229Y-139448093D01*
X157813237Y-139386687D01*
X157715098Y-139371143D01*
X157616961Y-139355600D01*
X157418239Y-139355600D01*
X157352814Y-139365962D01*
X157221962Y-139386687D01*
X157032970Y-139448093D01*
X157032967Y-139448094D01*
X156855905Y-139538313D01*
X156695133Y-139655121D01*
X156554621Y-139795633D01*
X156437813Y-139956405D01*
X156358085Y-140112880D01*
X156310110Y-140163676D01*
X156242289Y-140180471D01*
X156176154Y-140157933D01*
X156137115Y-140112880D01*
X156057386Y-139956405D01*
X155940581Y-139795636D01*
X155800064Y-139655119D01*
X155639294Y-139538313D01*
X155613443Y-139525141D01*
X155462232Y-139448094D01*
X155462229Y-139448093D01*
X155273237Y-139386687D01*
X155175098Y-139371143D01*
X155076961Y-139355600D01*
X154878239Y-139355600D01*
X154812814Y-139365962D01*
X154681962Y-139386687D01*
X154492970Y-139448093D01*
X154492967Y-139448094D01*
X154315905Y-139538313D01*
X154155133Y-139655121D01*
X154014621Y-139795633D01*
X153897813Y-139956405D01*
X153818085Y-140112880D01*
X153770110Y-140163676D01*
X153702289Y-140180471D01*
X153636154Y-140157933D01*
X153597115Y-140112880D01*
X153517386Y-139956405D01*
X153400581Y-139795636D01*
X153260064Y-139655119D01*
X153099294Y-139538313D01*
X153073443Y-139525141D01*
X152922232Y-139448094D01*
X152922229Y-139448093D01*
X152733237Y-139386687D01*
X152635098Y-139371143D01*
X152536961Y-139355600D01*
X152338239Y-139355600D01*
X152272814Y-139365962D01*
X152141962Y-139386687D01*
X151952970Y-139448093D01*
X151952967Y-139448094D01*
X151775905Y-139538313D01*
X151615133Y-139655121D01*
X151474621Y-139795633D01*
X151357813Y-139956405D01*
X151278085Y-140112880D01*
X151230110Y-140163676D01*
X151162289Y-140180471D01*
X151096154Y-140157933D01*
X151057115Y-140112880D01*
X150977386Y-139956405D01*
X150860581Y-139795636D01*
X150770770Y-139705825D01*
X150737285Y-139644502D01*
X150742269Y-139574810D01*
X150770768Y-139530465D01*
X154456320Y-135844916D01*
X154535377Y-135707984D01*
X154576301Y-135555257D01*
X154576301Y-135397142D01*
X154576301Y-135389547D01*
X154576300Y-135389529D01*
X154576300Y-134069497D01*
X154582538Y-134048251D01*
X154584118Y-134026163D01*
X154592190Y-134015379D01*
X154595985Y-134002458D01*
X154612718Y-133987958D01*
X154625990Y-133970230D01*
X154638610Y-133965522D01*
X154648789Y-133956703D01*
X154670706Y-133953551D01*
X154691454Y-133945813D01*
X154704614Y-133948675D01*
X154717947Y-133946759D01*
X154738090Y-133955958D01*
X154759727Y-133960665D01*
X154777452Y-133973933D01*
X154781503Y-133975784D01*
X154787981Y-133981816D01*
X154878039Y-134071874D01*
X154878049Y-134071885D01*
X154882379Y-134076215D01*
X154882380Y-134076216D01*
X154994184Y-134188020D01*
X155049269Y-134219823D01*
X155074947Y-134239525D01*
X155130216Y-134294794D01*
X155164712Y-134329290D01*
X155295814Y-134416890D01*
X155295827Y-134416897D01*
X155389179Y-134455564D01*
X155441503Y-134477237D01*
X155596153Y-134507999D01*
X155596156Y-134508000D01*
X155596158Y-134508000D01*
X155753844Y-134508000D01*
X155753845Y-134507999D01*
X155908497Y-134477237D01*
X156054179Y-134416894D01*
X156185289Y-134329289D01*
X156296789Y-134217789D01*
X156384394Y-134086679D01*
X156444737Y-133940997D01*
X156475500Y-133786342D01*
X156475500Y-133628658D01*
X156475500Y-133628655D01*
X156475499Y-133628653D01*
X156444738Y-133474010D01*
X156444737Y-133474003D01*
X156435844Y-133452534D01*
X156384397Y-133328327D01*
X156384390Y-133328314D01*
X156296789Y-133197211D01*
X156296786Y-133197207D01*
X156183783Y-133084204D01*
X156150298Y-133022881D01*
X156149847Y-132972333D01*
X156158200Y-132930342D01*
X156158200Y-132772658D01*
X156158200Y-132772655D01*
X156158199Y-132772653D01*
X156137804Y-132670121D01*
X156127437Y-132618003D01*
X156067618Y-132473585D01*
X156067097Y-132472327D01*
X156067090Y-132472314D01*
X155979098Y-132340625D01*
X155958220Y-132273947D01*
X155958200Y-132271734D01*
X155958200Y-88438497D01*
X155977885Y-88371458D01*
X155994519Y-88350816D01*
X156656419Y-87688916D01*
X156717742Y-87655431D01*
X156787434Y-87660415D01*
G37*
%TD.AperFunction*%
%TA.AperFunction,Conductor*%
G36*
X159137360Y-121984763D02*
G01*
X159158158Y-121988900D01*
X159158159Y-121988900D01*
X159158853Y-121989038D01*
X159220763Y-122021426D01*
X159222339Y-122022974D01*
X164500781Y-127301416D01*
X164534266Y-127362739D01*
X164537100Y-127389097D01*
X164537100Y-139431370D01*
X164517415Y-139498409D01*
X164479733Y-139535291D01*
X164479848Y-139535449D01*
X164478776Y-139536227D01*
X164477885Y-139537100D01*
X164475909Y-139538310D01*
X164315133Y-139655121D01*
X164174621Y-139795633D01*
X164057813Y-139956405D01*
X163978085Y-140112880D01*
X163930110Y-140163676D01*
X163862289Y-140180471D01*
X163796154Y-140157933D01*
X163757115Y-140112880D01*
X163677386Y-139956405D01*
X163560581Y-139795636D01*
X163420064Y-139655119D01*
X163259294Y-139538313D01*
X163257144Y-139537217D01*
X163256475Y-139536585D01*
X163255146Y-139535771D01*
X163255317Y-139535491D01*
X163206353Y-139489238D01*
X163193676Y-139458835D01*
X163157177Y-139322616D01*
X163122702Y-139262903D01*
X163078124Y-139185690D01*
X163078121Y-139185686D01*
X163078120Y-139185684D01*
X162966316Y-139073880D01*
X162966315Y-139073879D01*
X162961985Y-139069549D01*
X162961974Y-139069539D01*
X159025519Y-135133084D01*
X158992034Y-135071761D01*
X158989200Y-135045403D01*
X158989200Y-122106386D01*
X159008885Y-122039347D01*
X159061689Y-121993592D01*
X159130847Y-121983648D01*
X159137360Y-121984763D01*
G37*
%TD.AperFunction*%
%TA.AperFunction,Conductor*%
G36*
X152235695Y-79327992D02*
G01*
X152289147Y-79372988D01*
X152309787Y-79439739D01*
X152309800Y-79441511D01*
X152309800Y-124120502D01*
X152290115Y-124187541D01*
X152237311Y-124233296D01*
X152168153Y-124243240D01*
X152104597Y-124214215D01*
X152098119Y-124208183D01*
X151699719Y-123809783D01*
X151666234Y-123748460D01*
X151663400Y-123722102D01*
X151663400Y-79447213D01*
X151683085Y-79380174D01*
X151735889Y-79334419D01*
X151805047Y-79324475D01*
X151806693Y-79324724D01*
X151881674Y-79336600D01*
X151881676Y-79336600D01*
X152055524Y-79336600D01*
X152055526Y-79336600D01*
X152166403Y-79319038D01*
X152235695Y-79327992D01*
G37*
%TD.AperFunction*%
%TA.AperFunction,Conductor*%
G36*
X158985983Y-78824857D02*
G01*
X158993225Y-78824236D01*
X159018103Y-78837363D01*
X159044320Y-78847570D01*
X159051553Y-78855012D01*
X159055020Y-78856842D01*
X159068913Y-78872875D01*
X159126135Y-78951633D01*
X159249067Y-79074565D01*
X159389716Y-79176753D01*
X159536798Y-79251695D01*
X159544621Y-79255681D01*
X159709958Y-79309402D01*
X159709959Y-79309402D01*
X159709962Y-79309403D01*
X159881674Y-79336600D01*
X159881675Y-79336600D01*
X160055524Y-79336600D01*
X160055526Y-79336600D01*
X160224703Y-79309804D01*
X160293995Y-79318758D01*
X160347447Y-79363754D01*
X160368087Y-79430506D01*
X160368100Y-79432277D01*
X160368100Y-103136130D01*
X160368099Y-103136148D01*
X160368099Y-103301854D01*
X160368098Y-103301854D01*
X160409023Y-103454585D01*
X160437958Y-103504700D01*
X160437959Y-103504704D01*
X160437960Y-103504704D01*
X160488079Y-103591514D01*
X160488081Y-103591517D01*
X160606949Y-103710385D01*
X160606955Y-103710390D01*
X170574039Y-113677474D01*
X170574049Y-113677485D01*
X170578379Y-113681815D01*
X170578380Y-113681816D01*
X170690184Y-113793620D01*
X170776995Y-113843739D01*
X170827115Y-113872677D01*
X170968350Y-113910520D01*
X170973228Y-113912276D01*
X170997413Y-113929949D01*
X171022992Y-113945540D01*
X171027317Y-113951800D01*
X171029641Y-113953499D01*
X171031099Y-113957276D01*
X171041721Y-113972651D01*
X171042813Y-113974794D01*
X171159619Y-114135564D01*
X171300136Y-114276081D01*
X171460906Y-114392887D01*
X171579432Y-114453279D01*
X171617380Y-114472615D01*
X171668176Y-114520590D01*
X171684971Y-114588411D01*
X171662433Y-114654546D01*
X171617380Y-114693585D01*
X171460905Y-114773313D01*
X171300133Y-114890121D01*
X171210326Y-114979929D01*
X171149003Y-115013414D01*
X171079311Y-115008430D01*
X171034964Y-114979929D01*
X158707119Y-102652084D01*
X158673634Y-102590761D01*
X158670800Y-102564403D01*
X158670800Y-79143260D01*
X158690485Y-79076221D01*
X158707119Y-79055579D01*
X158811065Y-78951633D01*
X158868283Y-78872878D01*
X158890557Y-78855703D01*
X158910733Y-78836096D01*
X158917857Y-78834652D01*
X158923612Y-78830215D01*
X158951637Y-78827807D01*
X158979211Y-78822221D01*
X158985983Y-78824857D01*
G37*
%TD.AperFunction*%
%TA.AperFunction,Conductor*%
G36*
X165061194Y-78848346D02*
G01*
X165062454Y-78849589D01*
X170422081Y-84209216D01*
X170455566Y-84270539D01*
X170458400Y-84296897D01*
X170458400Y-97994043D01*
X170458400Y-98152157D01*
X170463841Y-98172461D01*
X170499323Y-98304883D01*
X170499326Y-98304890D01*
X170578375Y-98441809D01*
X170578378Y-98441813D01*
X170578380Y-98441816D01*
X170690184Y-98553620D01*
X170690186Y-98553621D01*
X170690190Y-98553624D01*
X170827109Y-98632673D01*
X170827116Y-98632677D01*
X170963332Y-98669176D01*
X171022992Y-98705540D01*
X171041721Y-98732651D01*
X171042813Y-98734794D01*
X171159619Y-98895564D01*
X171300136Y-99036081D01*
X171460906Y-99152887D01*
X171579432Y-99213279D01*
X171617380Y-99232615D01*
X171668176Y-99280590D01*
X171684971Y-99348411D01*
X171662433Y-99414546D01*
X171617380Y-99453585D01*
X171460905Y-99533313D01*
X171300137Y-99650118D01*
X171210326Y-99739929D01*
X171149002Y-99773413D01*
X171079311Y-99768429D01*
X171034964Y-99739928D01*
X162605419Y-91310383D01*
X162571934Y-91249060D01*
X162569100Y-91222702D01*
X162569100Y-79224228D01*
X162588785Y-79157189D01*
X162620216Y-79123909D01*
X162688129Y-79074568D01*
X162688129Y-79074567D01*
X162688133Y-79074565D01*
X162811065Y-78951633D01*
X162868283Y-78872878D01*
X162923612Y-78830215D01*
X162993225Y-78824236D01*
X163055020Y-78856842D01*
X163068913Y-78872875D01*
X163126135Y-78951633D01*
X163249067Y-79074565D01*
X163389716Y-79176753D01*
X163536798Y-79251695D01*
X163544621Y-79255681D01*
X163709958Y-79309402D01*
X163709959Y-79309402D01*
X163709962Y-79309403D01*
X163881674Y-79336600D01*
X163881675Y-79336600D01*
X164055525Y-79336600D01*
X164055526Y-79336600D01*
X164227238Y-79309403D01*
X164227241Y-79309402D01*
X164227242Y-79309402D01*
X164392578Y-79255681D01*
X164392578Y-79255680D01*
X164392581Y-79255680D01*
X164547484Y-79176753D01*
X164688133Y-79074565D01*
X164811065Y-78951633D01*
X164874455Y-78864383D01*
X164929785Y-78821719D01*
X164999399Y-78815740D01*
X165061194Y-78848346D01*
G37*
%TD.AperFunction*%
%TA.AperFunction,Conductor*%
G36*
X161985983Y-74324857D02*
G01*
X161993225Y-74324236D01*
X162018103Y-74337363D01*
X162044320Y-74347570D01*
X162051553Y-74355012D01*
X162055020Y-74356842D01*
X162068913Y-74372875D01*
X162126135Y-74451633D01*
X162249067Y-74574565D01*
X162389716Y-74676753D01*
X162544619Y-74755680D01*
X162544621Y-74755681D01*
X162709958Y-74809402D01*
X162709959Y-74809402D01*
X162709962Y-74809403D01*
X162881674Y-74836600D01*
X162881675Y-74836600D01*
X163055525Y-74836600D01*
X163055526Y-74836600D01*
X163138444Y-74823466D01*
X163143869Y-74824167D01*
X163148996Y-74822255D01*
X163178147Y-74828596D01*
X163207736Y-74832420D01*
X163213340Y-74836252D01*
X163217269Y-74837107D01*
X163245523Y-74858258D01*
X163332881Y-74945616D01*
X163366366Y-75006939D01*
X163369200Y-75033297D01*
X163369200Y-76820930D01*
X163369199Y-76820948D01*
X163369199Y-76986654D01*
X163369198Y-76986654D01*
X163369199Y-76986657D01*
X163406965Y-77127600D01*
X163410124Y-77139387D01*
X163413233Y-77146893D01*
X163411200Y-77147734D01*
X163424962Y-77204453D01*
X163402111Y-77270480D01*
X163373989Y-77298872D01*
X163249067Y-77389634D01*
X163126136Y-77512565D01*
X163068918Y-77591319D01*
X163013587Y-77633985D01*
X162943974Y-77639963D01*
X162882179Y-77607357D01*
X162868282Y-77591319D01*
X162865148Y-77587005D01*
X162811065Y-77512567D01*
X162688133Y-77389635D01*
X162547484Y-77287447D01*
X162392578Y-77208518D01*
X162227241Y-77154797D01*
X162098454Y-77134399D01*
X162055526Y-77127600D01*
X161926581Y-77127600D01*
X161859542Y-77107915D01*
X161813787Y-77055111D01*
X161803843Y-76985953D01*
X161826262Y-76930715D01*
X161913253Y-76810984D01*
X161992180Y-76656081D01*
X161992181Y-76656078D01*
X162045902Y-76490742D01*
X162045902Y-76490741D01*
X162045903Y-76490738D01*
X162073100Y-76319026D01*
X162073100Y-76145174D01*
X162045903Y-75973462D01*
X162045902Y-75973458D01*
X162045902Y-75973457D01*
X161992181Y-75808121D01*
X161992180Y-75808119D01*
X161913253Y-75653216D01*
X161811065Y-75512567D01*
X161688133Y-75389635D01*
X161547484Y-75287447D01*
X161461300Y-75243534D01*
X161392578Y-75208518D01*
X161227241Y-75154797D01*
X161070388Y-75129954D01*
X161055526Y-75127600D01*
X160881674Y-75127600D01*
X160824436Y-75136665D01*
X160709960Y-75154797D01*
X160709957Y-75154797D01*
X160544621Y-75208518D01*
X160389715Y-75287447D01*
X160309469Y-75345749D01*
X160249067Y-75389635D01*
X160249065Y-75389637D01*
X160249064Y-75389637D01*
X160126136Y-75512565D01*
X160068918Y-75591319D01*
X160013587Y-75633985D01*
X159943974Y-75639963D01*
X159882179Y-75607357D01*
X159868282Y-75591319D01*
X159865148Y-75587005D01*
X159811065Y-75512567D01*
X159688133Y-75389635D01*
X159547484Y-75287447D01*
X159461300Y-75243534D01*
X159392578Y-75208518D01*
X159227241Y-75154797D01*
X159070388Y-75129954D01*
X159055526Y-75127600D01*
X158881674Y-75127600D01*
X158824436Y-75136665D01*
X158709960Y-75154797D01*
X158709957Y-75154797D01*
X158638218Y-75178107D01*
X158610098Y-75178910D01*
X158582253Y-75182914D01*
X158575641Y-75179894D01*
X158568376Y-75180102D01*
X158544287Y-75165575D01*
X158518697Y-75153889D01*
X158514766Y-75147773D01*
X158508544Y-75144021D01*
X158496133Y-75118778D01*
X158480923Y-75095111D01*
X158479446Y-75084838D01*
X158477716Y-75081320D01*
X158475900Y-75060176D01*
X158475900Y-74904023D01*
X158495585Y-74836984D01*
X158548389Y-74791229D01*
X158617547Y-74781285D01*
X158638214Y-74786091D01*
X158662298Y-74793916D01*
X158709961Y-74809403D01*
X158767725Y-74818552D01*
X158881674Y-74836600D01*
X158881675Y-74836600D01*
X159055525Y-74836600D01*
X159055526Y-74836600D01*
X159227238Y-74809403D01*
X159227241Y-74809402D01*
X159227242Y-74809402D01*
X159392578Y-74755681D01*
X159392578Y-74755680D01*
X159392581Y-74755680D01*
X159547484Y-74676753D01*
X159688133Y-74574565D01*
X159811065Y-74451633D01*
X159868283Y-74372878D01*
X159923612Y-74330215D01*
X159993225Y-74324236D01*
X160055020Y-74356842D01*
X160068913Y-74372875D01*
X160126135Y-74451633D01*
X160249067Y-74574565D01*
X160389716Y-74676753D01*
X160544619Y-74755680D01*
X160544621Y-74755681D01*
X160709958Y-74809402D01*
X160709959Y-74809402D01*
X160709962Y-74809403D01*
X160881674Y-74836600D01*
X160881675Y-74836600D01*
X161055525Y-74836600D01*
X161055526Y-74836600D01*
X161227238Y-74809403D01*
X161227241Y-74809402D01*
X161227242Y-74809402D01*
X161392578Y-74755681D01*
X161392578Y-74755680D01*
X161392581Y-74755680D01*
X161547484Y-74676753D01*
X161688133Y-74574565D01*
X161811065Y-74451633D01*
X161868283Y-74372878D01*
X161890557Y-74355703D01*
X161910733Y-74336096D01*
X161917857Y-74334652D01*
X161923612Y-74330215D01*
X161951637Y-74327807D01*
X161979211Y-74322221D01*
X161985983Y-74324857D01*
G37*
%TD.AperFunction*%
%TA.AperFunction,Conductor*%
G36*
X156638214Y-74786091D02*
G01*
X156662298Y-74793916D01*
X156709961Y-74809403D01*
X156767725Y-74818552D01*
X156881674Y-74836600D01*
X156881675Y-74836600D01*
X157055524Y-74836600D01*
X157055526Y-74836600D01*
X157131502Y-74824566D01*
X157200795Y-74833520D01*
X157254247Y-74878516D01*
X157274887Y-74945268D01*
X157274900Y-74947039D01*
X157274900Y-76326702D01*
X157255215Y-76393741D01*
X157238581Y-76414383D01*
X156687581Y-76965383D01*
X156626258Y-76998868D01*
X156556566Y-76993884D01*
X156500633Y-76952012D01*
X156476216Y-76886548D01*
X156475900Y-76877702D01*
X156475900Y-74904023D01*
X156495585Y-74836984D01*
X156548389Y-74791229D01*
X156617547Y-74781285D01*
X156638214Y-74786091D01*
G37*
%TD.AperFunction*%
%TD*%
M02*
