M48
; DRILL file KiCad 10.0.4 date 2026-06-29T15:09:14
; FORMAT={-:-/ absolute / metric / decimal}
; #@! TF.CreationDate,2026-06-29T15:09:14+02:00
; #@! TF.GenerationSoftware,Kicad,Pcbnew,10.0.4
; #@! TF.FileFunction,Plated,1,6,PTH
FMAT,2
METRIC
; #@! TA.AperFunction,Plated,PTH,ViaDrill
T1C0.300
; #@! TA.AperFunction,Plated,PTH,ComponentDrill
T2C0.700
; #@! TA.AperFunction,Plated,PTH,ComponentDrill
T3C0.991
; #@! TA.AperFunction,Plated,PTH,ComponentDrill
T4C3.404
%
G90
G05
T1
X123.469Y-60.732
X123.469Y-63.732
X123.469Y-66.732
X123.469Y-69.732
X123.469Y-72.732
X123.469Y-75.732
X123.469Y-78.732
X123.469Y-81.732
X123.469Y-84.732
X123.469Y-89.232
X123.469Y-96.732
X123.469Y-122.232
X123.469Y-138.732
X126.249Y-99.176
X126.469Y-60.732
X126.469Y-63.732
X126.469Y-66.732
X126.469Y-69.732
X126.469Y-72.732
X126.469Y-75.732
X127.969Y-78.732
X127.969Y-81.732
X127.969Y-84.732
X127.969Y-87.732
X127.969Y-92.232
X127.969Y-95.232
X127.969Y-99.732
X127.969Y-102.732
X127.969Y-110.232
X127.969Y-113.232
X127.969Y-117.732
X127.969Y-120.732
X127.969Y-123.732
X127.969Y-131.232
X127.969Y-135.732
X127.969Y-138.732
X129.469Y-60.732
X129.469Y-63.732
X129.469Y-69.732
X129.469Y-72.732
X129.469Y-75.732
X130.969Y-80.232
X130.969Y-83.232
X130.969Y-86.232
X130.969Y-89.232
X130.969Y-92.232
X130.969Y-96.732
X130.969Y-99.732
X130.969Y-107.232
X130.969Y-110.232
X130.969Y-114.732
X130.969Y-117.732
X130.969Y-120.732
X130.969Y-128.232
X130.969Y-132.732
X130.969Y-135.732
X132.213Y-125.654
X132.469Y-60.732
X132.469Y-63.732
X132.469Y-66.732
X132.469Y-69.732
X133.969Y-138.732
X135.469Y-60.732
X135.469Y-63.732
X135.469Y-66.732
X135.469Y-69.732
X136.969Y-122.232
X136.969Y-126.732
X136.969Y-129.732
X136.969Y-132.732
X136.969Y-135.732
X138.469Y-60.732
X138.469Y-63.732
X138.469Y-66.732
X138.469Y-69.732
X138.469Y-140.232
X139.969Y-87.732
X139.969Y-90.732
X139.969Y-98.232
X139.969Y-101.232
X139.969Y-104.232
X139.969Y-107.232
X139.969Y-110.232
X139.969Y-113.232
X139.969Y-116.232
X139.969Y-119.232
X139.969Y-123.732
X139.969Y-126.732
X139.969Y-129.732
X139.969Y-132.732
X139.969Y-135.732
X141.469Y-60.732
X141.469Y-63.732
X141.469Y-66.732
X141.469Y-69.732
X142.969Y-95.232
X142.969Y-98.232
X142.969Y-101.232
X142.969Y-104.232
X142.969Y-107.232
X142.969Y-110.232
X142.969Y-113.232
X142.969Y-116.232
X142.969Y-120.732
X142.969Y-123.732
X142.969Y-126.732
X142.969Y-129.732
X142.969Y-132.732
X142.969Y-135.732
X142.969Y-138.732
X144.469Y-60.732
X144.469Y-63.732
X144.469Y-66.732
X144.469Y-69.732
X144.469Y-81.037
X144.469Y-86.232
X144.469Y-92.232
X145.969Y-95.232
X145.969Y-98.232
X145.969Y-101.232
X145.969Y-104.232
X145.969Y-107.232
X145.969Y-110.232
X145.969Y-113.232
X145.969Y-119.232
X145.969Y-122.232
X145.969Y-125.232
X145.969Y-128.232
X145.969Y-138.732
X145.969Y-141.732
X147.469Y-60.732
X147.469Y-63.732
X147.469Y-66.732
X147.469Y-69.732
X148.969Y-80.232
X148.969Y-83.232
X148.969Y-86.232
X148.969Y-89.232
X148.969Y-92.232
X148.969Y-95.232
X148.969Y-98.232
X148.969Y-101.232
X148.969Y-104.232
X148.969Y-107.232
X148.969Y-110.232
X148.969Y-114.732
X148.969Y-119.232
X148.969Y-122.232
X148.969Y-125.232
X148.969Y-128.232
X148.969Y-138.732
X150.469Y-60.732
X150.469Y-63.732
X150.469Y-66.732
X150.469Y-69.732
X151.969Y-116.232
X151.969Y-119.232
X151.969Y-122.232
X151.969Y-126.732
X151.969Y-129.732
X151.969Y-132.732
X152.201Y-125.161
X152.431Y-127.852
X153.469Y-60.732
X153.469Y-63.732
X153.469Y-69.732
X153.469Y-137.232
X155.358Y-132.851
X155.675Y-133.707
X156.469Y-60.732
X156.469Y-63.732
X156.469Y-66.732
X156.469Y-69.732
X156.469Y-120.732
X156.469Y-123.732
X156.469Y-126.732
X156.469Y-134.232
X156.469Y-137.232
X157.469Y-86.878
X157.969Y-110.232
X157.969Y-113.232
X157.969Y-116.232
X158.389Y-119.131
X159.237Y-121.188
X159.469Y-60.732
X159.469Y-63.732
X159.469Y-66.732
X159.469Y-69.732
X159.469Y-123.732
X159.469Y-126.732
X159.469Y-129.732
X160.969Y-104.232
X160.969Y-107.232
X160.969Y-110.232
X160.969Y-114.732
X160.969Y-117.732
X160.969Y-134.232
X162.469Y-60.732
X162.469Y-63.732
X162.469Y-66.732
X162.469Y-69.732
X162.469Y-120.732
X162.469Y-126.732
X162.469Y-129.732
X162.469Y-137.232
X163.969Y-80.232
X163.969Y-83.232
X163.969Y-86.232
X163.969Y-89.232
X163.969Y-92.232
X163.969Y-95.232
X163.969Y-99.732
X163.969Y-102.732
X163.969Y-107.232
X163.969Y-110.232
X163.969Y-117.732
X163.969Y-134.232
X165.469Y-60.732
X165.469Y-63.732
X165.469Y-66.732
X165.469Y-69.732
X165.469Y-72.732
X165.469Y-120.732
X165.469Y-123.732
X166.969Y-75.732
X166.969Y-78.732
X166.969Y-83.232
X166.969Y-87.732
X166.969Y-90.732
X166.969Y-93.732
X166.969Y-98.232
X166.969Y-102.732
X166.969Y-105.732
X166.969Y-110.232
X166.969Y-113.232
X166.969Y-128.232
X166.969Y-131.232
X166.969Y-134.232
X166.969Y-137.232
X168.469Y-60.732
X168.469Y-63.732
X168.469Y-66.732
X168.469Y-69.732
X168.469Y-72.732
X168.469Y-122.232
X168.469Y-125.232
X169.969Y-75.732
X169.969Y-78.732
X169.969Y-81.732
X169.969Y-86.232
X169.969Y-90.732
X169.969Y-93.732
X169.969Y-96.732
X169.969Y-101.232
X169.969Y-105.732
X169.969Y-108.732
X169.969Y-113.232
X169.969Y-116.232
X171.469Y-60.732
X171.469Y-63.732
X171.469Y-66.732
X171.469Y-69.732
X171.469Y-72.732
X171.469Y-129.732
X172.969Y-75.732
X172.969Y-78.732
X172.969Y-81.732
X172.969Y-84.732
X172.969Y-96.732
X172.969Y-104.232
X172.969Y-138.732
T2
X131.969Y-71.732
X131.969Y-78.232
X132.969Y-73.732
X132.969Y-76.232
X133.969Y-71.732
X133.969Y-78.232
X134.969Y-73.732
X134.969Y-76.232
X135.969Y-71.732
X135.969Y-78.232
X136.969Y-73.732
X136.969Y-76.232
X137.969Y-71.732
X137.969Y-78.232
X138.969Y-73.732
X138.969Y-76.232
X139.969Y-71.732
X139.969Y-78.232
X140.969Y-73.732
X140.969Y-76.232
X141.969Y-71.732
X141.969Y-78.232
X142.969Y-73.732
X142.969Y-76.232
X143.969Y-71.732
X143.969Y-78.232
X144.969Y-73.732
X144.969Y-76.232
X145.969Y-71.732
X145.969Y-78.232
X146.969Y-73.732
X146.969Y-76.232
X147.969Y-71.732
X147.969Y-78.232
X148.969Y-73.732
X148.969Y-76.232
X149.969Y-71.732
X149.969Y-78.232
X150.969Y-73.732
X150.969Y-76.232
X151.969Y-71.732
X151.969Y-78.232
X154.969Y-73.732
X154.969Y-76.232
X155.969Y-71.732
X155.969Y-78.232
X156.969Y-73.732
X156.969Y-76.232
X157.969Y-71.732
X157.969Y-78.232
X158.969Y-73.732
X158.969Y-76.232
X159.969Y-71.732
X159.969Y-78.232
X160.969Y-73.732
X160.969Y-76.232
X161.969Y-71.732
X161.969Y-78.232
X162.969Y-73.732
X162.969Y-76.232
X163.969Y-71.732
X163.969Y-78.232
X164.969Y-73.732
X164.969Y-76.232
T3
X124.498Y-87.913
X124.498Y-90.453
X124.498Y-92.993
X124.498Y-95.533
X124.498Y-98.073
X124.498Y-100.613
X124.498Y-103.153
X124.498Y-105.693
X124.498Y-108.233
X124.498Y-110.773
X124.498Y-113.313
X124.498Y-115.853
X124.498Y-118.393
X124.498Y-120.933
X124.498Y-123.473
X124.498Y-126.013
X124.498Y-128.553
X124.498Y-131.093
X124.498Y-133.633
X124.498Y-136.173
X124.498Y-141.253
X127.038Y-141.253
X129.578Y-141.253
X132.118Y-141.253
X134.658Y-141.253
X137.198Y-141.253
X139.738Y-141.253
X142.278Y-141.253
X144.818Y-141.253
X147.358Y-141.253
X149.898Y-141.253
X152.438Y-141.253
X154.978Y-141.253
X157.518Y-141.253
X160.058Y-141.253
X162.598Y-141.253
X165.138Y-141.253
X167.678Y-141.253
X170.218Y-141.253
X172.758Y-87.913
X172.758Y-90.453
X172.758Y-92.993
X172.758Y-95.533
X172.758Y-98.073
X172.758Y-100.613
X172.758Y-103.153
X172.758Y-105.693
X172.758Y-108.233
X172.758Y-110.773
X172.758Y-113.313
X172.758Y-115.853
X172.758Y-118.393
X172.758Y-120.933
X172.758Y-123.473
X172.758Y-126.013
X172.758Y-128.553
X172.758Y-131.093
X172.758Y-133.633
X172.758Y-136.173
X172.758Y-141.253
T4
X147.358Y-133.633
M30
