%TF.GenerationSoftware,KiCad,Pcbnew,10.0.4*%
%TF.CreationDate,2026-06-29T15:09:08+02:00*%
%TF.ProjectId,CW308T_to_cardedge,43573330-3854-45f7-946f-5f6361726465,rev?*%
%TF.SameCoordinates,Original*%
%TF.FileFunction,Legend,Top*%
%TF.FilePolarity,Positive*%
%FSLAX46Y46*%
G04 Gerber Fmt 4.6, Leading zero omitted, Abs format (unit mm)*
G04 Created by KiCad (PCBNEW 10.0.4) date 2026-06-29 15:09:08*
%MOMM*%
%LPD*%
G01*
G04 APERTURE LIST*
%ADD10C,0.314000*%
%ADD11C,0.203200*%
%ADD12C,0.643750*%
%ADD13C,0.000000*%
%ADD14C,0.254000*%
G04 APERTURE END LIST*
D10*
G36*
X130537288Y-121036207D02*
G01*
X130635454Y-120728384D01*
X130762648Y-120772305D01*
X130866925Y-120826551D01*
X130951622Y-120890376D01*
X131019299Y-120963829D01*
X131072661Y-121048708D01*
X131111710Y-121145193D01*
X131136131Y-121255303D01*
X131144691Y-121381514D01*
X131135675Y-121505394D01*
X131109547Y-121617059D01*
X131066997Y-121718479D01*
X131007777Y-121811230D01*
X130930720Y-121896407D01*
X130842406Y-121966629D01*
X130741772Y-122022166D01*
X130627035Y-122063172D01*
X130495900Y-122088955D01*
X130345654Y-122098012D01*
X130185790Y-122088741D01*
X130047773Y-122062493D01*
X129928487Y-122021035D01*
X129825277Y-121965303D01*
X129736046Y-121895352D01*
X129658417Y-121809900D01*
X129598393Y-121715394D01*
X129554973Y-121610563D01*
X129528131Y-121493597D01*
X129518815Y-121362245D01*
X129530301Y-121219817D01*
X129563126Y-121096298D01*
X129616024Y-120988377D01*
X129689360Y-120893560D01*
X129762359Y-120830785D01*
X129857393Y-120776884D01*
X129978969Y-120732698D01*
X130052593Y-121046944D01*
X129975342Y-121072958D01*
X129911747Y-121111656D01*
X129859616Y-121163325D01*
X129820712Y-121225575D01*
X129797006Y-121296490D01*
X129788772Y-121378351D01*
X129796977Y-121463341D01*
X129820648Y-121537637D01*
X129859478Y-121603410D01*
X129914643Y-121662112D01*
X129979401Y-121705707D01*
X130065200Y-121739741D01*
X130177310Y-121762484D01*
X130322071Y-121770919D01*
X130476719Y-121762420D01*
X130594522Y-121739700D01*
X130682856Y-121706098D01*
X130747904Y-121663646D01*
X130803660Y-121605641D01*
X130842755Y-121540886D01*
X130866514Y-121467977D01*
X130874734Y-121384774D01*
X130865494Y-121303516D01*
X130838525Y-121231704D01*
X130793345Y-121167064D01*
X130733398Y-121115132D01*
X130650063Y-121071085D01*
X130537288Y-121036207D01*
G37*
G36*
X131120150Y-120233144D02*
G01*
X129543357Y-120608552D01*
X129543357Y-120283569D01*
X130626443Y-120046494D01*
X129543357Y-119759090D01*
X129543357Y-119381572D01*
X130644753Y-119105959D01*
X129543357Y-118864666D01*
X129543357Y-118545051D01*
X131120150Y-118926883D01*
X131120150Y-119263658D01*
X129941294Y-119576754D01*
X131120150Y-119888891D01*
X131120150Y-120233144D01*
G37*
G36*
X130696904Y-118459731D02*
G01*
X130659996Y-118168013D01*
X130735080Y-118152370D01*
X130793229Y-118127023D01*
X130837826Y-118092950D01*
X130872114Y-118049066D01*
X130892365Y-118000300D01*
X130899276Y-117944934D01*
X130891356Y-117885808D01*
X130868108Y-117834101D01*
X130828431Y-117787811D01*
X130777675Y-117753338D01*
X130715008Y-117731712D01*
X130637180Y-117723965D01*
X130563571Y-117731386D01*
X130504443Y-117752095D01*
X130456666Y-117785127D01*
X130419325Y-117829347D01*
X130397469Y-117878424D01*
X130390039Y-117934197D01*
X130395138Y-117994387D01*
X130412568Y-118072531D01*
X130169166Y-118039266D01*
X130163971Y-117959538D01*
X130145761Y-117898826D01*
X130116440Y-117852712D01*
X130075375Y-117817142D01*
X130026583Y-117795759D01*
X129967657Y-117788290D01*
X129917017Y-117793919D01*
X129875791Y-117809792D01*
X129841881Y-117835552D01*
X129816248Y-117869602D01*
X129800484Y-117910726D01*
X129794907Y-117960944D01*
X129800909Y-118010306D01*
X129818473Y-118053811D01*
X129848113Y-118092950D01*
X129886847Y-118123336D01*
X129937621Y-118145770D01*
X130003510Y-118159385D01*
X129956728Y-118437203D01*
X129862390Y-118413016D01*
X129786968Y-118383576D01*
X129727418Y-118349774D01*
X129675031Y-118306409D01*
X129630162Y-118252547D01*
X129592536Y-118186803D01*
X129565594Y-118115578D01*
X129549051Y-118037832D01*
X129543357Y-117952412D01*
X129552853Y-117843345D01*
X129579982Y-117749371D01*
X129623835Y-117667685D01*
X129685046Y-117596272D01*
X129746530Y-117546853D01*
X129810025Y-117512794D01*
X129876423Y-117492620D01*
X129946950Y-117485835D01*
X130024633Y-117494466D01*
X130094993Y-117519880D01*
X130159960Y-117562749D01*
X130220698Y-117625515D01*
X130277493Y-117712173D01*
X130305396Y-117626881D01*
X130348532Y-117555608D01*
X130407487Y-117496093D01*
X130478490Y-117451537D01*
X130558912Y-117424466D01*
X130651272Y-117415087D01*
X130751833Y-117424682D01*
X130842991Y-117452767D01*
X130926812Y-117499452D01*
X131004728Y-117566362D01*
X131068431Y-117646245D01*
X131113653Y-117734382D01*
X131141281Y-117832446D01*
X131150826Y-117942729D01*
X131142470Y-118048057D01*
X131118441Y-118140814D01*
X131079506Y-118223164D01*
X131025339Y-118296760D01*
X130958219Y-118359228D01*
X130882116Y-118406888D01*
X130795662Y-118440480D01*
X130696904Y-118459731D01*
G37*
G36*
X131120150Y-116456913D02*
G01*
X131120150Y-116758313D01*
X129987597Y-116758313D01*
X130082146Y-116874408D01*
X130158883Y-117003654D01*
X130218249Y-117147622D01*
X129942156Y-117147622D01*
X129911066Y-117071624D01*
X129863226Y-116986660D01*
X129795483Y-116891279D01*
X129717380Y-116806829D01*
X129633651Y-116744370D01*
X129543357Y-116701465D01*
X129543357Y-116456913D01*
X131120150Y-116456913D01*
G37*
G36*
X130837922Y-114989311D02*
G01*
X131120150Y-114989311D01*
X131120150Y-116045651D01*
X131016958Y-116026710D01*
X130917289Y-115992606D01*
X130820187Y-115942691D01*
X130729525Y-115878337D01*
X130606920Y-115770157D01*
X130444203Y-115603807D01*
X130267108Y-115421950D01*
X130187476Y-115353982D01*
X130123291Y-115318362D01*
X130062388Y-115298243D01*
X130003510Y-115291766D01*
X129938611Y-115298449D01*
X129888201Y-115316858D01*
X129848975Y-115345930D01*
X129819726Y-115385160D01*
X129801458Y-115434110D01*
X129794907Y-115495575D01*
X129801677Y-115556090D01*
X129820765Y-115605287D01*
X129851755Y-115645701D01*
X129893354Y-115675336D01*
X129954088Y-115697499D01*
X130040323Y-115710026D01*
X130010317Y-116010276D01*
X129885978Y-115987473D01*
X129787878Y-115950890D01*
X129711127Y-115902288D01*
X129652068Y-115841937D01*
X129605581Y-115768804D01*
X129571749Y-115686558D01*
X129550702Y-115593611D01*
X129543357Y-115488002D01*
X129552081Y-115372029D01*
X129576643Y-115274429D01*
X129615522Y-115192004D01*
X129668461Y-115122276D01*
X129735255Y-115063768D01*
X129808344Y-115022720D01*
X129889108Y-114997859D01*
X129979544Y-114989311D01*
X130083174Y-114998889D01*
X130181053Y-115027369D01*
X130275600Y-115074548D01*
X130381411Y-115148064D01*
X130456706Y-115215449D01*
X130581386Y-115345355D01*
X130754519Y-115526061D01*
X130837922Y-115587702D01*
X130837922Y-114989311D01*
G37*
G36*
X129978969Y-113589006D02*
G01*
X130218249Y-113589006D01*
X130218249Y-113794925D01*
X130681662Y-113794925D01*
X130845687Y-113789077D01*
X130866772Y-113779515D01*
X130884129Y-113762235D01*
X130895340Y-113739531D01*
X130899276Y-113711234D01*
X130893306Y-113665526D01*
X130870324Y-113590061D01*
X131105482Y-113564369D01*
X131130198Y-113635739D01*
X131145517Y-113714714D01*
X131150826Y-113802498D01*
X131143688Y-113881227D01*
X131123217Y-113949460D01*
X131090248Y-114007881D01*
X131051798Y-114045421D01*
X131002959Y-114070266D01*
X130933404Y-114087697D01*
X130866997Y-114094278D01*
X130719145Y-114097380D01*
X130218249Y-114097380D01*
X130218249Y-114235713D01*
X129978969Y-114235713D01*
X129978969Y-114097380D01*
X129758095Y-114097380D01*
X129580169Y-113794925D01*
X129978969Y-113794925D01*
X129978969Y-113589006D01*
G37*
G36*
X130674383Y-112284901D02*
G01*
X130787500Y-112316567D01*
X130888409Y-112368215D01*
X130979132Y-112440731D01*
X131054197Y-112529416D01*
X131107274Y-112627529D01*
X131139642Y-112737014D01*
X131150826Y-112860621D01*
X131142892Y-112963315D01*
X131119188Y-113062508D01*
X131079311Y-113159338D01*
X131023869Y-113246964D01*
X130954454Y-113318461D01*
X130869749Y-113375418D01*
X130774918Y-113415286D01*
X130663809Y-113440494D01*
X130533262Y-113449426D01*
X130433904Y-113441313D01*
X130336447Y-113416890D01*
X130239722Y-113375418D01*
X130151914Y-113318693D01*
X130080226Y-113249170D01*
X130023067Y-113165761D01*
X129981873Y-113072819D01*
X129956852Y-112972363D01*
X129948292Y-112862730D01*
X129948385Y-112861676D01*
X130193707Y-112861676D01*
X130203922Y-112936246D01*
X130233969Y-113001539D01*
X130285450Y-113060117D01*
X130351165Y-113102788D01*
X130437237Y-113130400D01*
X130549559Y-113140548D01*
X130661882Y-113130402D01*
X130747990Y-113102792D01*
X130813764Y-113060117D01*
X130865186Y-113001546D01*
X130895205Y-112936252D01*
X130905411Y-112861676D01*
X130895193Y-112787122D01*
X130865167Y-112722029D01*
X130813764Y-112663810D01*
X130747992Y-112621492D01*
X130661232Y-112593996D01*
X130547354Y-112583858D01*
X130436504Y-112593909D01*
X130351089Y-112621326D01*
X130285450Y-112663810D01*
X130233989Y-112722036D01*
X130203934Y-112787128D01*
X130193707Y-112861676D01*
X129948385Y-112861676D01*
X129959471Y-112736164D01*
X129991658Y-112625190D01*
X130044123Y-112526870D01*
X130117878Y-112439102D01*
X130207455Y-112367327D01*
X130307248Y-112316183D01*
X130419275Y-112284807D01*
X130546300Y-112273926D01*
X130674383Y-112284901D01*
G37*
G36*
X130537288Y-110418932D02*
G01*
X130635454Y-110111108D01*
X130762648Y-110155029D01*
X130866925Y-110209275D01*
X130951622Y-110273100D01*
X131019299Y-110346553D01*
X131072661Y-110431432D01*
X131111710Y-110527918D01*
X131136131Y-110638027D01*
X131144691Y-110764239D01*
X131135675Y-110888118D01*
X131109547Y-110999783D01*
X131066997Y-111101204D01*
X131007777Y-111193955D01*
X130930720Y-111279131D01*
X130842406Y-111349353D01*
X130741772Y-111404890D01*
X130627035Y-111445896D01*
X130495900Y-111471680D01*
X130345654Y-111480736D01*
X130185790Y-111471465D01*
X130047773Y-111445218D01*
X129928487Y-111403760D01*
X129825277Y-111348027D01*
X129736046Y-111278077D01*
X129658417Y-111192624D01*
X129598393Y-111098118D01*
X129554973Y-110993287D01*
X129528131Y-110876321D01*
X129518815Y-110744970D01*
X129530301Y-110602541D01*
X129563126Y-110479022D01*
X129616024Y-110371101D01*
X129689360Y-110276284D01*
X129762359Y-110213509D01*
X129857393Y-110159609D01*
X129978969Y-110115422D01*
X130052593Y-110429669D01*
X129975342Y-110455682D01*
X129911747Y-110494380D01*
X129859616Y-110546049D01*
X129820712Y-110608300D01*
X129797006Y-110679215D01*
X129788772Y-110761075D01*
X129796977Y-110846065D01*
X129820648Y-110920361D01*
X129859478Y-110986135D01*
X129914643Y-111044836D01*
X129979401Y-111088432D01*
X130065200Y-111122465D01*
X130177310Y-111145208D01*
X130322071Y-111153644D01*
X130476719Y-111145144D01*
X130594522Y-111122424D01*
X130682856Y-111088823D01*
X130747904Y-111046370D01*
X130803660Y-110988366D01*
X130842755Y-110923611D01*
X130866514Y-110850701D01*
X130874734Y-110767498D01*
X130865494Y-110686240D01*
X130838525Y-110614429D01*
X130793345Y-110549788D01*
X130733398Y-110497856D01*
X130650063Y-110453810D01*
X130537288Y-110418932D01*
G37*
G36*
X131120150Y-109615868D02*
G01*
X129543357Y-109991277D01*
X129543357Y-109666293D01*
X130626443Y-109429218D01*
X129543357Y-109141814D01*
X129543357Y-108764296D01*
X130644753Y-108488684D01*
X129543357Y-108247391D01*
X129543357Y-107927776D01*
X131120150Y-108309607D01*
X131120150Y-108646382D01*
X129941294Y-108959478D01*
X131120150Y-109271616D01*
X131120150Y-109615868D01*
G37*
G36*
X130696904Y-107842455D02*
G01*
X130659996Y-107550737D01*
X130735080Y-107535095D01*
X130793229Y-107509747D01*
X130837826Y-107475675D01*
X130872114Y-107431791D01*
X130892365Y-107383024D01*
X130899276Y-107327659D01*
X130891356Y-107268532D01*
X130868108Y-107216825D01*
X130828431Y-107170535D01*
X130777675Y-107136062D01*
X130715008Y-107114436D01*
X130637180Y-107106689D01*
X130563571Y-107114111D01*
X130504443Y-107134820D01*
X130456666Y-107167851D01*
X130419325Y-107212071D01*
X130397469Y-107261149D01*
X130390039Y-107316922D01*
X130395138Y-107377111D01*
X130412568Y-107455255D01*
X130169166Y-107421990D01*
X130163971Y-107342262D01*
X130145761Y-107281550D01*
X130116440Y-107235436D01*
X130075375Y-107199867D01*
X130026583Y-107178484D01*
X129967657Y-107171015D01*
X129917017Y-107176643D01*
X129875791Y-107192516D01*
X129841881Y-107218276D01*
X129816248Y-107252327D01*
X129800484Y-107293451D01*
X129794907Y-107343668D01*
X129800909Y-107393030D01*
X129818473Y-107436536D01*
X129848113Y-107475675D01*
X129886847Y-107506060D01*
X129937621Y-107528494D01*
X130003510Y-107542109D01*
X129956728Y-107819927D01*
X129862390Y-107795741D01*
X129786968Y-107766300D01*
X129727418Y-107732498D01*
X129675031Y-107689134D01*
X129630162Y-107635271D01*
X129592536Y-107569527D01*
X129565594Y-107498303D01*
X129549051Y-107420556D01*
X129543357Y-107335136D01*
X129552853Y-107226069D01*
X129579982Y-107132096D01*
X129623835Y-107050410D01*
X129685046Y-106978997D01*
X129746530Y-106929577D01*
X129810025Y-106895518D01*
X129876423Y-106875344D01*
X129946950Y-106868560D01*
X130024633Y-106877191D01*
X130094993Y-106902605D01*
X130159960Y-106945474D01*
X130220698Y-107008239D01*
X130277493Y-107094898D01*
X130305396Y-107009606D01*
X130348532Y-106938332D01*
X130407487Y-106878817D01*
X130478490Y-106834261D01*
X130558912Y-106807191D01*
X130651272Y-106797811D01*
X130751833Y-106807406D01*
X130842991Y-106835492D01*
X130926812Y-106882176D01*
X131004728Y-106949087D01*
X131068431Y-107028969D01*
X131113653Y-107117106D01*
X131141281Y-107215170D01*
X131150826Y-107325454D01*
X131142470Y-107430781D01*
X131118441Y-107523538D01*
X131079506Y-107605889D01*
X131025339Y-107679484D01*
X130958219Y-107741952D01*
X130882116Y-107789612D01*
X130795662Y-107823204D01*
X130696904Y-107842455D01*
G37*
G36*
X130537334Y-105598714D02*
G01*
X130691090Y-105620470D01*
X130814537Y-105653359D01*
X130912670Y-105695357D01*
X130989773Y-105745210D01*
X131059750Y-105814707D01*
X131109418Y-105895534D01*
X131140065Y-105989941D01*
X131150826Y-106101350D01*
X131139430Y-106212215D01*
X131106484Y-106309021D01*
X131052131Y-106394780D01*
X130974242Y-106471390D01*
X130905217Y-106515582D01*
X130813440Y-106553575D01*
X130693610Y-106583899D01*
X130539569Y-106604292D01*
X130344407Y-106611832D01*
X130155750Y-106603904D01*
X130002639Y-106582175D01*
X129879547Y-106549306D01*
X129781547Y-106507299D01*
X129704410Y-106457393D01*
X129634428Y-106387896D01*
X129584761Y-106307083D01*
X129554116Y-106212707D01*
X129543357Y-106101350D01*
X129794907Y-106101350D01*
X129803582Y-106152998D01*
X129829706Y-106198940D01*
X129874029Y-106234658D01*
X129954523Y-106265471D01*
X130091189Y-106287068D01*
X130347667Y-106296531D01*
X130602467Y-106287821D01*
X130727389Y-106268635D01*
X130795156Y-106245691D01*
X130838854Y-106222065D01*
X130865052Y-106198365D01*
X130890713Y-106152945D01*
X130899276Y-106101350D01*
X130890595Y-106049634D01*
X130864477Y-106003759D01*
X130820143Y-105967967D01*
X130739660Y-105937132D01*
X130603932Y-105915552D01*
X130347667Y-105906072D01*
X130092793Y-105914785D01*
X129967944Y-105933969D01*
X129875591Y-105968672D01*
X129829706Y-106004238D01*
X129803603Y-106049712D01*
X129794907Y-106101350D01*
X129543357Y-106101350D01*
X129554219Y-105990093D01*
X129585206Y-105895535D01*
X129635536Y-105814291D01*
X129706615Y-105744155D01*
X129782792Y-105694775D01*
X129880230Y-105653090D01*
X130003329Y-105620378D01*
X130157223Y-105598698D01*
X130347667Y-105590771D01*
X130537334Y-105598714D01*
G37*
G36*
X130767648Y-104369485D02*
G01*
X130860678Y-104395991D01*
X130942411Y-104438992D01*
X131014698Y-104499153D01*
X131073050Y-104572402D01*
X131115268Y-104656840D01*
X131141578Y-104754620D01*
X131150826Y-104868617D01*
X131143234Y-104975129D01*
X131121467Y-105068872D01*
X131086430Y-105151863D01*
X131038185Y-105225716D01*
X130965702Y-105299232D01*
X130882409Y-105351110D01*
X130786154Y-105382934D01*
X130673609Y-105394055D01*
X130590286Y-105386923D01*
X130512613Y-105365877D01*
X130439314Y-105330784D01*
X130375181Y-105282016D01*
X130320405Y-105216497D01*
X130274713Y-105131288D01*
X130235958Y-105204750D01*
X130190697Y-105260460D01*
X130138872Y-105301258D01*
X130079370Y-105330768D01*
X130016550Y-105348403D01*
X129949346Y-105354367D01*
X129863503Y-105346387D01*
X129787599Y-105323291D01*
X129719655Y-105285359D01*
X129658299Y-105231564D01*
X129610132Y-105167303D01*
X129574372Y-105089630D01*
X129551538Y-104995822D01*
X129543357Y-104882422D01*
X129543580Y-104879354D01*
X129782637Y-104879354D01*
X129788809Y-104935118D01*
X129806204Y-104980455D01*
X129834404Y-105017688D01*
X129871696Y-105045808D01*
X129916573Y-105063071D01*
X129971204Y-105069168D01*
X130029474Y-105062979D01*
X130075638Y-105045763D01*
X130112413Y-105018263D01*
X130140020Y-104981455D01*
X130157014Y-104936938D01*
X130163030Y-104882518D01*
X130162553Y-104878204D01*
X130402310Y-104878204D01*
X130411497Y-104947871D01*
X130437126Y-105001416D01*
X130479098Y-105042805D01*
X130532270Y-105073155D01*
X130587415Y-105090997D01*
X130645616Y-105096969D01*
X130726892Y-105089106D01*
X130790847Y-105067398D01*
X130841277Y-105033218D01*
X130880488Y-104986865D01*
X130903621Y-104934454D01*
X130911547Y-104873890D01*
X130903876Y-104814697D01*
X130881582Y-104763954D01*
X130843962Y-104719547D01*
X130795344Y-104687043D01*
X130731742Y-104666079D01*
X130648780Y-104658385D01*
X130576980Y-104665836D01*
X130518291Y-104686810D01*
X130469895Y-104720601D01*
X130432351Y-104765759D01*
X130410015Y-104817573D01*
X130402310Y-104878204D01*
X130162553Y-104878204D01*
X130156942Y-104827420D01*
X130139750Y-104782406D01*
X130111838Y-104745239D01*
X130074725Y-104717385D01*
X130028384Y-104699996D01*
X129970149Y-104693759D01*
X129915495Y-104699819D01*
X129870792Y-104716939D01*
X129833829Y-104744759D01*
X129805838Y-104781530D01*
X129788687Y-104825687D01*
X129782637Y-104879354D01*
X129543580Y-104879354D01*
X129551491Y-104770269D01*
X129574255Y-104676964D01*
X129610010Y-104599215D01*
X129658299Y-104534431D01*
X129719720Y-104480127D01*
X129787685Y-104441879D01*
X129863564Y-104418609D01*
X129949346Y-104410573D01*
X130020598Y-104417066D01*
X130085097Y-104436031D01*
X130144241Y-104467421D01*
X130196066Y-104509851D01*
X130239434Y-104562648D01*
X130274713Y-104627229D01*
X130316390Y-104544922D01*
X130367446Y-104479393D01*
X130428098Y-104428308D01*
X130497965Y-104390807D01*
X130574927Y-104368062D01*
X130660763Y-104360244D01*
X130767648Y-104369485D01*
G37*
D11*
G36*
X129131032Y-102073040D02*
G01*
X129131032Y-100491225D01*
X130212374Y-100491225D01*
X130212374Y-100755887D01*
X129449549Y-100755887D01*
X129449549Y-101137492D01*
X130108029Y-101137492D01*
X130108029Y-101402153D01*
X129449549Y-101402153D01*
X129449549Y-102073040D01*
X129131032Y-102073040D01*
G37*
G36*
X131317160Y-100497255D02*
G01*
X131435468Y-100512650D01*
X131514043Y-100533925D01*
X131585038Y-100569562D01*
X131645817Y-100619685D01*
X131697537Y-100685874D01*
X131735445Y-100761237D01*
X131758481Y-100843909D01*
X131766395Y-100935630D01*
X131759420Y-101023687D01*
X131739391Y-101100991D01*
X131706984Y-101169390D01*
X131661954Y-101230296D01*
X131606534Y-101280657D01*
X131537746Y-101322153D01*
X131453233Y-101354540D01*
X131349976Y-101376764D01*
X131446343Y-101441654D01*
X131520487Y-101509191D01*
X131590770Y-101597028D01*
X131701865Y-101765294D01*
X131894398Y-102073040D01*
X131513563Y-102073040D01*
X131283330Y-101729326D01*
X131168334Y-101563502D01*
X131115512Y-101497747D01*
X131067726Y-101456633D01*
X131019727Y-101432255D01*
X130961687Y-101419777D01*
X130859410Y-101414463D01*
X130794880Y-101414463D01*
X130794880Y-102073040D01*
X130476362Y-102073040D01*
X130476362Y-101162111D01*
X130794880Y-101162111D01*
X131030498Y-101162111D01*
X131238729Y-101155485D01*
X131316701Y-101142493D01*
X131367769Y-101115526D01*
X131405948Y-101074788D01*
X131429729Y-101022377D01*
X131438261Y-100954671D01*
X131433140Y-100902290D01*
X131418763Y-100859453D01*
X131395754Y-100824168D01*
X131345917Y-100784348D01*
X131275829Y-100761368D01*
X131043384Y-100755887D01*
X130794880Y-100755887D01*
X130794880Y-101162111D01*
X130476362Y-101162111D01*
X130476362Y-100491225D01*
X131146672Y-100491225D01*
X131317160Y-100497255D01*
G37*
G36*
X132903985Y-100476050D02*
G01*
X133027236Y-100503157D01*
X133136829Y-100546772D01*
X133234749Y-100606690D01*
X133322436Y-100683663D01*
X133395124Y-100773327D01*
X133452719Y-100876292D01*
X133495352Y-100994516D01*
X133522235Y-101130529D01*
X133531703Y-101287326D01*
X133522323Y-101442780D01*
X133495676Y-101577813D01*
X133453390Y-101695357D01*
X133396233Y-101797891D01*
X133324071Y-101887334D01*
X133237040Y-101964073D01*
X133139719Y-102023822D01*
X133030660Y-102067331D01*
X132907863Y-102094384D01*
X132768878Y-102103814D01*
X132627927Y-102094376D01*
X132503799Y-102067347D01*
X132393965Y-102023970D01*
X132296355Y-101964541D01*
X132209453Y-101888392D01*
X132137120Y-101799268D01*
X132079940Y-101697467D01*
X132037719Y-101581145D01*
X132011157Y-101447911D01*
X132001821Y-101294923D01*
X132002419Y-101284152D01*
X132329955Y-101284152D01*
X132338997Y-101420639D01*
X132363972Y-101531484D01*
X132402533Y-101621253D01*
X132453630Y-101693646D01*
X132520181Y-101754984D01*
X132593624Y-101797964D01*
X132675435Y-101824017D01*
X132767820Y-101832998D01*
X132860277Y-101824049D01*
X132941812Y-101798138D01*
X133014675Y-101755478D01*
X133080374Y-101694704D01*
X133130508Y-101623028D01*
X133168615Y-101532860D01*
X133193465Y-101420124D01*
X133202511Y-101279824D01*
X133193653Y-101140902D01*
X133169381Y-101029868D01*
X133132283Y-100941614D01*
X133083644Y-100871965D01*
X133019791Y-100813439D01*
X132947168Y-100771879D01*
X132864026Y-100746333D01*
X132767820Y-100737422D01*
X132671781Y-100746396D01*
X132588402Y-100772178D01*
X132515194Y-100814232D01*
X132450457Y-100873600D01*
X132401063Y-100944130D01*
X132363462Y-101033167D01*
X132338905Y-101144826D01*
X132329955Y-101284152D01*
X132002419Y-101284152D01*
X132010714Y-101134649D01*
X132035499Y-101000660D01*
X132073949Y-100888891D01*
X132137430Y-100774265D01*
X132220705Y-100671834D01*
X132286005Y-100612233D01*
X132353863Y-100565029D01*
X132424683Y-100529213D01*
X132524754Y-100495256D01*
X132637415Y-100474022D01*
X132764646Y-100466605D01*
X132903985Y-100476050D01*
G37*
G36*
X133783766Y-102073040D02*
G01*
X133783766Y-100491225D01*
X134093628Y-100491225D01*
X134739125Y-101550160D01*
X134739125Y-100491225D01*
X135035042Y-100491225D01*
X135035042Y-102073040D01*
X134715467Y-102073040D01*
X134079587Y-101029877D01*
X134079587Y-102073040D01*
X133783766Y-102073040D01*
G37*
G36*
X135726605Y-102073040D02*
G01*
X135726605Y-100755887D01*
X135258543Y-100755887D01*
X135258543Y-100491225D01*
X136512031Y-100491225D01*
X136512031Y-100755887D01*
X136045026Y-100755887D01*
X136045026Y-102073040D01*
X135726605Y-102073040D01*
G37*
G36*
X141591856Y-100789508D02*
G01*
X141025351Y-100789508D01*
X140800196Y-100205865D01*
X139769544Y-100205865D01*
X139556653Y-100789508D01*
X139004300Y-100789508D01*
X139399023Y-99773164D01*
X139929606Y-99773164D01*
X140633216Y-99773164D01*
X140277873Y-98807135D01*
X139929606Y-99773164D01*
X139399023Y-99773164D01*
X140008693Y-98203367D01*
X140559317Y-98203367D01*
X141591856Y-100789508D01*
G37*
G36*
X143186752Y-98210927D02*
G01*
X143356620Y-98228995D01*
X143500129Y-98268770D01*
X143625800Y-98335598D01*
X143733577Y-98428936D01*
X143823597Y-98551477D01*
X143867313Y-98644092D01*
X143893790Y-98744226D01*
X143902842Y-98853675D01*
X143891902Y-98971882D01*
X143859523Y-99082273D01*
X143805201Y-99186849D01*
X143732381Y-99279480D01*
X143644692Y-99354863D01*
X143540423Y-99414205D01*
X143689550Y-99473025D01*
X143808737Y-99551323D01*
X143902684Y-99649109D01*
X143972634Y-99765180D01*
X144014881Y-99894040D01*
X144029413Y-100039200D01*
X144020445Y-100155089D01*
X143993443Y-100269144D01*
X143947653Y-100382593D01*
X143885561Y-100487681D01*
X143811274Y-100575996D01*
X143724227Y-100649257D01*
X143625611Y-100705752D01*
X143510218Y-100746969D01*
X143375016Y-100771898D01*
X143200285Y-100781916D01*
X142747034Y-100789508D01*
X141869369Y-100789508D01*
X141869369Y-100356807D01*
X142390119Y-100356807D01*
X142872033Y-100356807D01*
X143128349Y-100351517D01*
X143229105Y-100340927D01*
X143335215Y-100303867D01*
X143418097Y-100237311D01*
X143457599Y-100178469D01*
X143482355Y-100106152D01*
X143491210Y-100016715D01*
X143476543Y-99906668D01*
X143434921Y-99818447D01*
X143367409Y-99748933D01*
X143272187Y-99699737D01*
X143135095Y-99674624D01*
X142810556Y-99662473D01*
X142390119Y-99662473D01*
X142390119Y-100356807D01*
X141869369Y-100356807D01*
X141869369Y-99229773D01*
X142390119Y-99229773D01*
X142731311Y-99229773D01*
X143109610Y-99220968D01*
X143231921Y-99188834D01*
X143319671Y-99129145D01*
X143361581Y-99074091D01*
X143387215Y-99008251D01*
X143396242Y-98928517D01*
X143378961Y-98818427D01*
X143330205Y-98735123D01*
X143281619Y-98693551D01*
X143217602Y-98663153D01*
X143134138Y-98644872D01*
X142689173Y-98636067D01*
X142390119Y-98636067D01*
X142390119Y-99229773D01*
X141869369Y-99229773D01*
X141869369Y-98203367D01*
X142900177Y-98203367D01*
X143186752Y-98210927D01*
G37*
G36*
X145721366Y-98217726D02*
G01*
X145909428Y-98252737D01*
X146053990Y-98309197D01*
X146182941Y-98388220D01*
X146298261Y-98490943D01*
X146396093Y-98611463D01*
X146478190Y-98750368D01*
X146544485Y-98909964D01*
X146589248Y-99077284D01*
X146618405Y-99279076D01*
X146628919Y-99521122D01*
X146619277Y-99733368D01*
X146592160Y-99915543D01*
X146549831Y-100071589D01*
X146473477Y-100252920D01*
X146381236Y-100403845D01*
X146273576Y-100528346D01*
X146177156Y-100607128D01*
X146056584Y-100676195D01*
X145907698Y-100734791D01*
X145720475Y-100774083D01*
X145446853Y-100789508D01*
X144467145Y-100789508D01*
X144467145Y-100356807D01*
X144987738Y-100356807D01*
X145376571Y-100356807D01*
X145579504Y-100349313D01*
X145691348Y-100331964D01*
X145809172Y-100288017D01*
X145901566Y-100223946D01*
X145949899Y-100168017D01*
X145995648Y-100086739D01*
X146037886Y-99973162D01*
X146075701Y-99782569D01*
X146090716Y-99497380D01*
X146075441Y-99213864D01*
X146037886Y-99034806D01*
X145972153Y-98887126D01*
X145890088Y-98783236D01*
X145784340Y-98708449D01*
X145649210Y-98660910D01*
X145514154Y-98643961D01*
X145221698Y-98636067D01*
X144987738Y-98636067D01*
X144987738Y-100356807D01*
X144467145Y-100356807D01*
X144467145Y-98203367D01*
X145418709Y-98203367D01*
X145721366Y-98217726D01*
G37*
G36*
X147066651Y-98203367D02*
G01*
X147587243Y-98203367D01*
X147587243Y-99616719D01*
X147593566Y-99924086D01*
X147606583Y-100052879D01*
X147639568Y-100153577D01*
X147692224Y-100238458D01*
X147765701Y-100310109D01*
X147854554Y-100361787D01*
X147967148Y-100395029D01*
X148109723Y-100407121D01*
X148254985Y-100395264D01*
X148363546Y-100363489D01*
X148443840Y-100315455D01*
X148509826Y-100248530D01*
X148554288Y-100174086D01*
X148579216Y-100090300D01*
X148595212Y-99934727D01*
X148602172Y-99647065D01*
X148602172Y-98203367D01*
X149122922Y-98203367D01*
X149122922Y-99564990D01*
X149109979Y-99997608D01*
X149080627Y-100224575D01*
X149043621Y-100348884D01*
X148991649Y-100456573D01*
X148924968Y-100549887D01*
X148843218Y-100630327D01*
X148742952Y-100700803D01*
X148621511Y-100761206D01*
X148492359Y-100802450D01*
X148329379Y-100829791D01*
X148125604Y-100839822D01*
X147878155Y-100828249D01*
X147696012Y-100797877D01*
X147565231Y-100754130D01*
X147443614Y-100689113D01*
X147344009Y-100614829D01*
X147263661Y-100531334D01*
X147170523Y-100388560D01*
X147117594Y-100243915D01*
X147081556Y-99994618D01*
X147066651Y-99586059D01*
X147066651Y-98203367D01*
G37*
G36*
X151321330Y-99833541D02*
G01*
X151826200Y-99994546D01*
X151754165Y-100203159D01*
X151665193Y-100374187D01*
X151560513Y-100513101D01*
X151440040Y-100624100D01*
X151300828Y-100711620D01*
X151142579Y-100775665D01*
X150961986Y-100815719D01*
X150754983Y-100829759D01*
X150551804Y-100814972D01*
X150368660Y-100772118D01*
X150202318Y-100702330D01*
X150050194Y-100605203D01*
X149910494Y-100478818D01*
X149795321Y-100333973D01*
X149704233Y-100168920D01*
X149636978Y-99980737D01*
X149594690Y-99765659D01*
X149579836Y-99519236D01*
X149595041Y-99257038D01*
X149638091Y-99030673D01*
X149706087Y-98835030D01*
X149797496Y-98665752D01*
X149912223Y-98519402D01*
X150052377Y-98392080D01*
X150207378Y-98293633D01*
X150379314Y-98222419D01*
X150571154Y-98178395D01*
X150786587Y-98163115D01*
X151020188Y-98181953D01*
X151222774Y-98235790D01*
X151399778Y-98322550D01*
X151555291Y-98442830D01*
X151658250Y-98562558D01*
X151746653Y-98718425D01*
X151819125Y-98917826D01*
X151303721Y-99038579D01*
X151261055Y-98911878D01*
X151197585Y-98807573D01*
X151112842Y-98722073D01*
X151010743Y-98658265D01*
X150894433Y-98619384D01*
X150760172Y-98605879D01*
X150620777Y-98619337D01*
X150498922Y-98658160D01*
X150391045Y-98721846D01*
X150294767Y-98812323D01*
X150223265Y-98918535D01*
X150167446Y-99059256D01*
X150130145Y-99243131D01*
X150116309Y-99480557D01*
X150130250Y-99734200D01*
X150167513Y-99927411D01*
X150222624Y-100072290D01*
X150292251Y-100178978D01*
X150387386Y-100270425D01*
X150493593Y-100334546D01*
X150613173Y-100373513D01*
X150749637Y-100386995D01*
X150882910Y-100371841D01*
X151000691Y-100327607D01*
X151106710Y-100253506D01*
X151191884Y-100155186D01*
X151264126Y-100018505D01*
X151321330Y-99833541D01*
G37*
G36*
X152853078Y-100789508D02*
G01*
X152853078Y-98636067D01*
X152087833Y-98636067D01*
X152087833Y-98203367D01*
X154137186Y-98203367D01*
X154137186Y-98636067D01*
X153373671Y-98636067D01*
X153373671Y-100789508D01*
X152853078Y-100789508D01*
G37*
G36*
X155777875Y-98178556D02*
G01*
X155979380Y-98222874D01*
X156158556Y-98294181D01*
X156318647Y-98392142D01*
X156462009Y-98517986D01*
X156580848Y-98664581D01*
X156675011Y-98832921D01*
X156744713Y-99026208D01*
X156788664Y-99248577D01*
X156804144Y-99504928D01*
X156788809Y-99759083D01*
X156745242Y-99979851D01*
X156676108Y-100172027D01*
X156582661Y-100339662D01*
X156464682Y-100485894D01*
X156322394Y-100611356D01*
X156163282Y-100709041D01*
X155984979Y-100780174D01*
X155784215Y-100824404D01*
X155556985Y-100839822D01*
X155326541Y-100824392D01*
X155123602Y-100780200D01*
X154944033Y-100709283D01*
X154784448Y-100612121D01*
X154642371Y-100487623D01*
X154524112Y-100341913D01*
X154430627Y-100175476D01*
X154361598Y-99985299D01*
X154318173Y-99767472D01*
X154302908Y-99517349D01*
X154303885Y-99499739D01*
X154839381Y-99499739D01*
X154854164Y-99722884D01*
X154894996Y-99904106D01*
X154958040Y-100050872D01*
X155041581Y-100169230D01*
X155150386Y-100269512D01*
X155270459Y-100339782D01*
X155404215Y-100382376D01*
X155555256Y-100397058D01*
X155706415Y-100382428D01*
X155839719Y-100340066D01*
X155958844Y-100270320D01*
X156066258Y-100170959D01*
X156148221Y-100053774D01*
X156210524Y-99906357D01*
X156251152Y-99722043D01*
X156265941Y-99492663D01*
X156251459Y-99265537D01*
X156211776Y-99084004D01*
X156151125Y-98939717D01*
X156071603Y-98825845D01*
X155967209Y-98730161D01*
X155848476Y-98662213D01*
X155712546Y-98620448D01*
X155555256Y-98605879D01*
X155398240Y-98620550D01*
X155261921Y-98662702D01*
X155142232Y-98731456D01*
X155036392Y-98828518D01*
X154955637Y-98943830D01*
X154894163Y-99089398D01*
X154854014Y-99271953D01*
X154839381Y-99499739D01*
X154303885Y-99499739D01*
X154317447Y-99255314D01*
X154357969Y-99036252D01*
X154420832Y-98853518D01*
X154524618Y-98666114D01*
X154660767Y-98498647D01*
X154767527Y-98401205D01*
X154878469Y-98324031D01*
X154994254Y-98265473D01*
X155157863Y-98209957D01*
X155342054Y-98175240D01*
X155550067Y-98163115D01*
X155777875Y-98178556D01*
G37*
G36*
X158587268Y-98213224D02*
G01*
X158780693Y-98238394D01*
X158909157Y-98273177D01*
X159025227Y-98331441D01*
X159124597Y-98413387D01*
X159209155Y-98521603D01*
X159271131Y-98644815D01*
X159308793Y-98779977D01*
X159321732Y-98929933D01*
X159310328Y-99073899D01*
X159277583Y-99200285D01*
X159224599Y-99312113D01*
X159150979Y-99411689D01*
X159060371Y-99494026D01*
X158947909Y-99561868D01*
X158809738Y-99614819D01*
X158640921Y-99651153D01*
X158798473Y-99757242D01*
X158919692Y-99867660D01*
X159034599Y-100011266D01*
X159216230Y-100286367D01*
X159531007Y-100789508D01*
X158908371Y-100789508D01*
X158531959Y-100227563D01*
X158343950Y-99956454D01*
X158257591Y-99848950D01*
X158179463Y-99781732D01*
X158100988Y-99741875D01*
X158006098Y-99721476D01*
X157838884Y-99712787D01*
X157733381Y-99712787D01*
X157733381Y-100789508D01*
X157212631Y-100789508D01*
X157212631Y-99300212D01*
X157733381Y-99300212D01*
X158118598Y-99300212D01*
X158459040Y-99289379D01*
X158586519Y-99268137D01*
X158670009Y-99224049D01*
X158732429Y-99157446D01*
X158771309Y-99071758D01*
X158785259Y-98961064D01*
X158776886Y-98875424D01*
X158753381Y-98805389D01*
X158715763Y-98747701D01*
X158634284Y-98682599D01*
X158519695Y-98645029D01*
X158139667Y-98636067D01*
X157733381Y-98636067D01*
X157733381Y-99300212D01*
X157212631Y-99300212D01*
X157212631Y-98203367D01*
X158308534Y-98203367D01*
X158587268Y-98213224D01*
G37*
G36*
X143390771Y-91231315D02*
G01*
X143509079Y-91246710D01*
X143587655Y-91267985D01*
X143658649Y-91303622D01*
X143719429Y-91353745D01*
X143771148Y-91419934D01*
X143809056Y-91495297D01*
X143832092Y-91577969D01*
X143840007Y-91669690D01*
X143833031Y-91757747D01*
X143813002Y-91835051D01*
X143780595Y-91903450D01*
X143735565Y-91964356D01*
X143680145Y-92014717D01*
X143611358Y-92056213D01*
X143526845Y-92088600D01*
X143423588Y-92110824D01*
X143519955Y-92175714D01*
X143594098Y-92243251D01*
X143664381Y-92331088D01*
X143775476Y-92499354D01*
X143968010Y-92807100D01*
X143587174Y-92807100D01*
X143356941Y-92463386D01*
X143241945Y-92297562D01*
X143189124Y-92231807D01*
X143141337Y-92190693D01*
X143093338Y-92166315D01*
X143035298Y-92153837D01*
X142933021Y-92148523D01*
X142868491Y-92148523D01*
X142868491Y-92807100D01*
X142549974Y-92807100D01*
X142549974Y-91896171D01*
X142868491Y-91896171D01*
X143104109Y-91896171D01*
X143312341Y-91889545D01*
X143390313Y-91876553D01*
X143441380Y-91849586D01*
X143479559Y-91808848D01*
X143503340Y-91756437D01*
X143511872Y-91688731D01*
X143506751Y-91636350D01*
X143492374Y-91593513D01*
X143469365Y-91558228D01*
X143419529Y-91518408D01*
X143349440Y-91495428D01*
X143116996Y-91489947D01*
X142868491Y-91489947D01*
X142868491Y-91896171D01*
X142549974Y-91896171D01*
X142549974Y-91225285D01*
X143220283Y-91225285D01*
X143390771Y-91231315D01*
G37*
G36*
X144137847Y-91502257D02*
G01*
X144137847Y-91225285D01*
X144440111Y-91225285D01*
X144440111Y-91502257D01*
X144137847Y-91502257D01*
G37*
G36*
X144137847Y-92807100D02*
G01*
X144137847Y-91662284D01*
X144440111Y-91662284D01*
X144440111Y-92807100D01*
X144137847Y-92807100D01*
G37*
G36*
X145265344Y-91643160D02*
G01*
X145355628Y-91677365D01*
X145438048Y-91735046D01*
X145514145Y-91819716D01*
X145514145Y-91662284D01*
X145797079Y-91662284D01*
X145797079Y-92691599D01*
X145792475Y-92828316D01*
X145780532Y-92926714D01*
X145763707Y-92995113D01*
X145722154Y-93087213D01*
X145670037Y-93152833D01*
X145602195Y-93202470D01*
X145509240Y-93242464D01*
X145401634Y-93265946D01*
X145254869Y-93274873D01*
X145104178Y-93266812D01*
X144989983Y-93245323D01*
X144904916Y-93213672D01*
X144842778Y-93173894D01*
X144788865Y-93119155D01*
X144751453Y-93059172D01*
X144728944Y-92992765D01*
X144721218Y-92918080D01*
X144722276Y-92880959D01*
X145067624Y-92917888D01*
X145083217Y-92975171D01*
X145107439Y-93006461D01*
X145158184Y-93031120D01*
X145242944Y-93040986D01*
X145321677Y-93036167D01*
X145379252Y-93023494D01*
X145420475Y-93005019D01*
X145454653Y-92974737D01*
X145480773Y-92927697D01*
X145490364Y-92881500D01*
X145494718Y-92787096D01*
X145494718Y-92618220D01*
X145419601Y-92703533D01*
X145338730Y-92761365D01*
X145250633Y-92795506D01*
X145152639Y-92807100D01*
X145063309Y-92799064D01*
X144983801Y-92775771D01*
X144912192Y-92737512D01*
X144847115Y-92683353D01*
X144787864Y-92611200D01*
X144743092Y-92531979D01*
X144710221Y-92442515D01*
X144689656Y-92341137D01*
X144682461Y-92225844D01*
X144683629Y-92208822D01*
X144992323Y-92208822D01*
X145001690Y-92328989D01*
X145026320Y-92415330D01*
X145062720Y-92476176D01*
X145114372Y-92523945D01*
X145171538Y-92551566D01*
X145236500Y-92560903D01*
X145306547Y-92551255D01*
X145368169Y-92522811D01*
X145423744Y-92473964D01*
X145463990Y-92411504D01*
X145490330Y-92327784D01*
X145500104Y-92216420D01*
X145490529Y-92099521D01*
X145465080Y-92013816D01*
X145426918Y-91951854D01*
X145373353Y-91903474D01*
X145312537Y-91875102D01*
X145241886Y-91865397D01*
X145173380Y-91874910D01*
X145114505Y-91902725D01*
X145062720Y-91950219D01*
X145026031Y-92010874D01*
X145001538Y-92094671D01*
X144992323Y-92208822D01*
X144683629Y-92208822D01*
X144692450Y-92080269D01*
X144720163Y-91961083D01*
X144763214Y-91863618D01*
X144820658Y-91784133D01*
X144894892Y-91716708D01*
X144975806Y-91669644D01*
X145064914Y-91641252D01*
X145164468Y-91631510D01*
X145265344Y-91643160D01*
G37*
G36*
X146397857Y-91225285D02*
G01*
X146397857Y-91804521D01*
X146477278Y-91726680D01*
X146560965Y-91673534D01*
X146650313Y-91642124D01*
X146747533Y-91631510D01*
X146848174Y-91641538D01*
X146935835Y-91670459D01*
X147011206Y-91716252D01*
X147062299Y-91770092D01*
X147098014Y-91833809D01*
X147120386Y-91904346D01*
X147131335Y-91988077D01*
X147135966Y-92132751D01*
X147135966Y-92807100D01*
X146833606Y-92807100D01*
X146833606Y-92200551D01*
X146827878Y-92036177D01*
X146816391Y-91971377D01*
X146792628Y-91927765D01*
X146755611Y-91894056D01*
X146708119Y-91872989D01*
X146646361Y-91865397D01*
X146574445Y-91874761D01*
X146511915Y-91902134D01*
X146461381Y-91947331D01*
X146425265Y-92013019D01*
X146405849Y-92096125D01*
X146397857Y-92231903D01*
X146397857Y-92807100D01*
X146095496Y-92807100D01*
X146095496Y-91225285D01*
X146397857Y-91225285D01*
G37*
G36*
X147966976Y-91662284D02*
G01*
X147966976Y-91902326D01*
X147760402Y-91902326D01*
X147760402Y-92367215D01*
X147766268Y-92531763D01*
X147775861Y-92552915D01*
X147793196Y-92570327D01*
X147815973Y-92581574D01*
X147844359Y-92585522D01*
X147890212Y-92579534D01*
X147965918Y-92556479D01*
X147991692Y-92792385D01*
X147920095Y-92817180D01*
X147840868Y-92832548D01*
X147752804Y-92837874D01*
X147673825Y-92830713D01*
X147605375Y-92810177D01*
X147546767Y-92777102D01*
X147509108Y-92738530D01*
X147484184Y-92689536D01*
X147466697Y-92619759D01*
X147460095Y-92553140D01*
X147456984Y-92404818D01*
X147456984Y-91902326D01*
X147318209Y-91902326D01*
X147318209Y-91662284D01*
X147456984Y-91662284D01*
X147456984Y-91440707D01*
X147760402Y-91262215D01*
X147760402Y-91662284D01*
X147966976Y-91662284D01*
G37*
G36*
X150130815Y-92807100D02*
G01*
X149784313Y-92807100D01*
X149646596Y-92450114D01*
X149016198Y-92450114D01*
X148885983Y-92807100D01*
X148548135Y-92807100D01*
X148789567Y-92185453D01*
X149114100Y-92185453D01*
X149544463Y-92185453D01*
X149327117Y-91594580D01*
X149114100Y-92185453D01*
X148789567Y-92185453D01*
X149162473Y-91225285D01*
X149499263Y-91225285D01*
X150130815Y-92807100D01*
G37*
G36*
X151336699Y-92807100D02*
G01*
X151034338Y-92807100D01*
X151034338Y-92221132D01*
X151027977Y-92051318D01*
X151014912Y-91980609D01*
X150989175Y-91931599D01*
X150952016Y-91895691D01*
X150904962Y-91873250D01*
X150847094Y-91865397D01*
X150772347Y-91876304D01*
X150706204Y-91908674D01*
X150653537Y-91958981D01*
X150620612Y-92023213D01*
X150604751Y-92109632D01*
X150597531Y-92287009D01*
X150597531Y-92807100D01*
X150295171Y-92807100D01*
X150295171Y-91662284D01*
X150575989Y-91662284D01*
X150575989Y-91830102D01*
X150641331Y-91756292D01*
X150710763Y-91701212D01*
X150784928Y-91662648D01*
X150864999Y-91639429D01*
X150952593Y-91631510D01*
X151049442Y-91640801D01*
X151135414Y-91667766D01*
X151210190Y-91710519D01*
X151260820Y-91760378D01*
X151296717Y-91820129D01*
X151319965Y-91888093D01*
X151331852Y-91967239D01*
X151336699Y-92092648D01*
X151336699Y-92807100D01*
G37*
G36*
X152158854Y-91643160D02*
G01*
X152249138Y-91677365D01*
X152331558Y-91735046D01*
X152407655Y-91819716D01*
X152407655Y-91662284D01*
X152690589Y-91662284D01*
X152690589Y-92691599D01*
X152685985Y-92828316D01*
X152674043Y-92926714D01*
X152657218Y-92995113D01*
X152615664Y-93087213D01*
X152563547Y-93152833D01*
X152495705Y-93202470D01*
X152402750Y-93242464D01*
X152295144Y-93265946D01*
X152148379Y-93274873D01*
X151997689Y-93266812D01*
X151883493Y-93245323D01*
X151798426Y-93213672D01*
X151736288Y-93173894D01*
X151682375Y-93119155D01*
X151644963Y-93059172D01*
X151622455Y-92992765D01*
X151614728Y-92918080D01*
X151615786Y-92880959D01*
X151961135Y-92917888D01*
X151976727Y-92975171D01*
X152000949Y-93006461D01*
X152051694Y-93031120D01*
X152136454Y-93040986D01*
X152215187Y-93036167D01*
X152272763Y-93023494D01*
X152313985Y-93005019D01*
X152348163Y-92974737D01*
X152374284Y-92927697D01*
X152383874Y-92881500D01*
X152388228Y-92787096D01*
X152388228Y-92618220D01*
X152313111Y-92703533D01*
X152232241Y-92761365D01*
X152144144Y-92795506D01*
X152046149Y-92807100D01*
X151956819Y-92799064D01*
X151877311Y-92775771D01*
X151805702Y-92737512D01*
X151740625Y-92683353D01*
X151681374Y-92611200D01*
X151636602Y-92531979D01*
X151603731Y-92442515D01*
X151583167Y-92341137D01*
X151575971Y-92225844D01*
X151577139Y-92208822D01*
X151885833Y-92208822D01*
X151895200Y-92328989D01*
X151919830Y-92415330D01*
X151956230Y-92476176D01*
X152007882Y-92523945D01*
X152065048Y-92551566D01*
X152130010Y-92560903D01*
X152200057Y-92551255D01*
X152261679Y-92522811D01*
X152317254Y-92473964D01*
X152357500Y-92411504D01*
X152383840Y-92327784D01*
X152393614Y-92216420D01*
X152384039Y-92099521D01*
X152358590Y-92013816D01*
X152320428Y-91951854D01*
X152266863Y-91903474D01*
X152206047Y-91875102D01*
X152135396Y-91865397D01*
X152066890Y-91874910D01*
X152008015Y-91902725D01*
X151956230Y-91950219D01*
X151919541Y-92010874D01*
X151895049Y-92094671D01*
X151885833Y-92208822D01*
X151577139Y-92208822D01*
X151585960Y-92080269D01*
X151613673Y-91961083D01*
X151656724Y-91863618D01*
X151714168Y-91784133D01*
X151788402Y-91716708D01*
X151869316Y-91669644D01*
X151958424Y-91641252D01*
X152057978Y-91631510D01*
X152158854Y-91643160D01*
G37*
G36*
X152990160Y-92807100D02*
G01*
X152990160Y-91225285D01*
X153292425Y-91225285D01*
X153292425Y-92807100D01*
X152990160Y-92807100D01*
G37*
G36*
X154163166Y-91642900D02*
G01*
X154269688Y-91675346D01*
X154361348Y-91727771D01*
X154440606Y-91801155D01*
X154489552Y-91869525D01*
X154529153Y-91952740D01*
X154558748Y-92053470D01*
X154576924Y-92174946D01*
X154581592Y-92320861D01*
X153824152Y-92320861D01*
X153834643Y-92407574D01*
X153859480Y-92475782D01*
X153897338Y-92529455D01*
X153947918Y-92570950D01*
X154005252Y-92595542D01*
X154071599Y-92603987D01*
X154138097Y-92594161D01*
X154191043Y-92566096D01*
X154231862Y-92519427D01*
X154264229Y-92443959D01*
X154565435Y-92493199D01*
X154517665Y-92599328D01*
X154456569Y-92683782D01*
X154381941Y-92749782D01*
X154294461Y-92797482D01*
X154191150Y-92827318D01*
X154068329Y-92837874D01*
X153948809Y-92829011D01*
X153847735Y-92804012D01*
X153761956Y-92764396D01*
X153689009Y-92710447D01*
X153627291Y-92641205D01*
X153579328Y-92560310D01*
X153544104Y-92468345D01*
X153522031Y-92363443D01*
X153514290Y-92243347D01*
X153522088Y-92136213D01*
X153829537Y-92136213D01*
X154281443Y-92136213D01*
X154271410Y-92050046D01*
X154248242Y-91984312D01*
X154213643Y-91934447D01*
X154167022Y-91895781D01*
X154115308Y-91873109D01*
X154056596Y-91865397D01*
X153993827Y-91873655D01*
X153940055Y-91897675D01*
X153893010Y-91938294D01*
X153858379Y-91990342D01*
X153836812Y-92055137D01*
X153829537Y-92136213D01*
X153522088Y-92136213D01*
X153524724Y-92099999D01*
X153554022Y-91979856D01*
X153600207Y-91878918D01*
X153662778Y-91794038D01*
X153742344Y-91722629D01*
X153830138Y-91672465D01*
X153927911Y-91642012D01*
X154038228Y-91631510D01*
X154163166Y-91642900D01*
G37*
D12*
G36*
X158468028Y-125906233D02*
G01*
X158476806Y-125945205D01*
X158476806Y-125974346D01*
X158495414Y-126019638D01*
X158477157Y-126040002D01*
X158485057Y-126092666D01*
X158449245Y-126142171D01*
X158449245Y-126195890D01*
X158414486Y-126203614D01*
X158422034Y-126277696D01*
X158368141Y-126339665D01*
X158268429Y-126595791D01*
X158203651Y-126852796D01*
X158170999Y-126948119D01*
X158164854Y-126932671D01*
X158145017Y-127043618D01*
X158138522Y-127034841D01*
X158156779Y-127198453D01*
X158119387Y-127251645D01*
X158119387Y-127287983D01*
X158140980Y-127337664D01*
X158112365Y-127348723D01*
X158106045Y-127342579D01*
X158111663Y-127378040D01*
X158103236Y-127408937D01*
X158083575Y-127448787D01*
X158054258Y-127582731D01*
X158048992Y-127587822D01*
X158103939Y-127642769D01*
X158095161Y-127691923D01*
X158056388Y-127713711D01*
X158024590Y-127747045D01*
X158054609Y-127747045D01*
X158054609Y-127758983D01*
X158091123Y-127758983D01*
X158162397Y-127781980D01*
X158240408Y-127748722D01*
X158298799Y-127739321D01*
X158378674Y-127747045D01*
X158439589Y-127738794D01*
X158447138Y-127758280D01*
X158512091Y-127746343D01*
X158519464Y-127765127D01*
X158588982Y-127738970D01*
X158654462Y-127762318D01*
X158647264Y-127767760D01*
X158664117Y-127766707D01*
X158753296Y-127711233D01*
X158783666Y-127721415D01*
X158783666Y-127701929D01*
X158903918Y-127701929D01*
X159079467Y-127747748D01*
X159110891Y-127791459D01*
X159116508Y-127781804D01*
X159288722Y-127840789D01*
X159296798Y-127861153D01*
X159355782Y-127907849D01*
X159297149Y-128069354D01*
X159279418Y-128096213D01*
X159253086Y-128096213D01*
X159246766Y-128118684D01*
X159246766Y-128219976D01*
X159230089Y-128196628D01*
X159224296Y-128224013D01*
X159169349Y-128251575D01*
X159151969Y-128331099D01*
X159099129Y-128376390D01*
X159114051Y-128398685D01*
X159094916Y-128397632D01*
X159100533Y-128401670D01*
X159067355Y-128423789D01*
X159059279Y-128460128D01*
X159009620Y-128500318D01*
X158941310Y-128621107D01*
X158930601Y-128614611D01*
X158934639Y-128624793D01*
X158894263Y-128633395D01*
X158885661Y-128673771D01*
X158865999Y-128665872D01*
X158859328Y-128696417D01*
X158806839Y-128741358D01*
X158806839Y-128759615D01*
X158784369Y-128800343D01*
X158768394Y-128795778D01*
X158775416Y-128805082D01*
X158714500Y-128819653D01*
X158714500Y-128841597D01*
X158643051Y-128897597D01*
X158650600Y-128916381D01*
X158627076Y-128944644D01*
X158597935Y-128944644D01*
X158589684Y-128933409D01*
X158576694Y-128956406D01*
X158560543Y-128956406D01*
X158571076Y-128979052D01*
X158540355Y-128992218D01*
X158521044Y-129042601D01*
X158506298Y-129053661D01*
X158506298Y-129074200D01*
X158466624Y-129074200D01*
X158445909Y-129111241D01*
X158430987Y-129103868D01*
X158400456Y-129160886D01*
X158368843Y-129191643D01*
X158368843Y-129209724D01*
X158350937Y-129209724D01*
X158361119Y-129247818D01*
X158330046Y-129224470D01*
X158319689Y-129247116D01*
X158290899Y-129247116D01*
X158274924Y-129311367D01*
X158246309Y-129303117D01*
X158229983Y-129337700D01*
X158147650Y-129389662D01*
X158159061Y-129419857D01*
X158139049Y-129419857D01*
X158139049Y-129439519D01*
X158107801Y-129439519D01*
X158047236Y-129475331D01*
X158041267Y-129469537D01*
X158009493Y-129503067D01*
X157927160Y-129569601D01*
X157877480Y-129559594D01*
X157757930Y-129654567D01*
X157757930Y-129677213D01*
X157725454Y-129677213D01*
X157651567Y-129746955D01*
X157607484Y-129775871D01*
X157599585Y-129795709D01*
X157580099Y-129803433D01*
X157560437Y-129853464D01*
X157538318Y-129835909D01*
X157493904Y-129872248D01*
X157488989Y-129864875D01*
X157467396Y-129929653D01*
X157427020Y-129869088D01*
X157358204Y-129858029D01*
X157320812Y-129870317D01*
X157285702Y-129837489D01*
X157326079Y-129767270D01*
X157372950Y-129746028D01*
X157412624Y-129757439D01*
X157467923Y-129689326D01*
X157467923Y-129631745D01*
X157497942Y-129603833D01*
X157517428Y-129531155D01*
X157563773Y-129484810D01*
X157599936Y-129439519D01*
X157626093Y-129373336D01*
X157657692Y-129353148D01*
X157629779Y-129334540D01*
X157669805Y-129294515D01*
X157662256Y-129241850D01*
X157671257Y-129159093D01*
X157676410Y-129144946D01*
X157955248Y-129144946D01*
X157974207Y-129269235D01*
X157966308Y-129296621D01*
X157972452Y-129325762D01*
X158010020Y-129309612D01*
X158074622Y-129229386D01*
X158159061Y-129172332D01*
X158293883Y-129012231D01*
X158312316Y-128983265D01*
X158347952Y-128971503D01*
X158395878Y-128892155D01*
X158424317Y-128873898D01*
X158511038Y-128775239D01*
X158519640Y-128733107D01*
X158593722Y-128733107D01*
X158582662Y-128683251D01*
X158627427Y-128650774D01*
X158649195Y-128589332D01*
X158720469Y-128553695D01*
X158804381Y-128409218D01*
X158821059Y-128390961D01*
X158821059Y-128374459D01*
X158848269Y-128290898D01*
X158814212Y-128179599D01*
X158704806Y-128133859D01*
X158662186Y-128095687D01*
X158617421Y-128088489D01*
X158601622Y-128096389D01*
X158552117Y-128088489D01*
X158534913Y-128093405D01*
X158546675Y-128105166D01*
X158512442Y-128114997D01*
X158500681Y-128138345D01*
X158488392Y-128113768D01*
X158481370Y-128124828D01*
X158435727Y-128108326D01*
X158361996Y-128132201D01*
X158307225Y-128108326D01*
X158218748Y-128152389D01*
X158204373Y-128183719D01*
X158168541Y-128209618D01*
X158162748Y-128200490D01*
X158140102Y-128231211D01*
X158131675Y-128212252D01*
X158125531Y-128218220D01*
X158087964Y-128180653D01*
X158067073Y-128180653D01*
X158057242Y-128160991D01*
X158029681Y-128160991D01*
X158007667Y-128228141D01*
X157974910Y-128291073D01*
X158019499Y-128374635D01*
X157974383Y-128557206D01*
X158002998Y-128612505D01*
X158014249Y-128650930D01*
X158019148Y-128723276D01*
X158011424Y-128801396D01*
X158019675Y-128853007D01*
X157970170Y-128888820D01*
X157970170Y-129144946D01*
X157955248Y-129144946D01*
X157676410Y-129144946D01*
X157697190Y-129087893D01*
X157688764Y-129067178D01*
X157754595Y-129001522D01*
X157754595Y-128940080D01*
X157734582Y-128886011D01*
X157754771Y-128829484D01*
X157781981Y-128630060D01*
X157746344Y-128556329D01*
X157781630Y-128511388D01*
X157770219Y-128463463D01*
X157781981Y-128420629D01*
X157770394Y-128384290D01*
X157762495Y-128255437D01*
X157770394Y-128023536D01*
X157795716Y-127984839D01*
X157808313Y-127939623D01*
X157835172Y-127939623D01*
X157835172Y-127899949D01*
X157850796Y-127882745D01*
X157830784Y-127874670D01*
X157853605Y-127851848D01*
X157846934Y-127838682D01*
X157846934Y-127782155D01*
X157834295Y-127765302D01*
X157898546Y-127652775D01*
X157869580Y-127616085D01*
X157883448Y-127583960D01*
X157913643Y-127565352D01*
X157922596Y-127571496D01*
X157933831Y-127544812D01*
X157891699Y-127518129D01*
X157900126Y-127424561D01*
X157926809Y-127390329D01*
X157907499Y-127334679D01*
X157954546Y-127203544D01*
X157942960Y-127141399D01*
X157984214Y-127031681D01*
X157970696Y-126977612D01*
X157970696Y-126930038D01*
X157982985Y-126912307D01*
X157954721Y-126876671D01*
X157962972Y-126794513D01*
X158007562Y-126675140D01*
X157993518Y-126643190D01*
X157943662Y-126617384D01*
X157936113Y-126564719D01*
X157863436Y-126571741D01*
X157829730Y-126616682D01*
X157767586Y-126703579D01*
X157706319Y-126780294D01*
X157688764Y-126780294D01*
X157623459Y-126809962D01*
X157523396Y-126792231D01*
X157486882Y-126810664D01*
X157444750Y-126783278D01*
X157361013Y-126678826D01*
X157417364Y-126687604D01*
X157424913Y-126610889D01*
X157665416Y-126415853D01*
X157729843Y-126396718D01*
X157850270Y-126315790D01*
X157885028Y-126308066D01*
X157917158Y-126270799D01*
X157928038Y-126245043D01*
X157986145Y-126208705D01*
X158056540Y-126114961D01*
X158187676Y-125978033D01*
X158247011Y-125970308D01*
X158258949Y-125932390D01*
X158297043Y-125932390D01*
X158384467Y-125897280D01*
X158399213Y-125884640D01*
X158468028Y-125906233D01*
G37*
G36*
X160895352Y-130577080D02*
G01*
X160915189Y-130662397D01*
X160868842Y-130741547D01*
X160844794Y-130803890D01*
X160802662Y-130924141D01*
X160777383Y-131008931D01*
X160721909Y-131082311D01*
X160684517Y-131209760D01*
X160600078Y-131327905D01*
X160527225Y-131536282D01*
X160454723Y-131608784D01*
X160431726Y-131722365D01*
X160407500Y-131763970D01*
X160357468Y-131819970D01*
X160294270Y-131837525D01*
X160258107Y-131833312D01*
X160164715Y-131716923D01*
X160224538Y-131659437D01*
X160260389Y-131594740D01*
X160294678Y-131560284D01*
X160308665Y-131524345D01*
X160333153Y-131474972D01*
X160357468Y-131462903D01*
X160363437Y-131462903D01*
X160389067Y-131433235D01*
X160389067Y-131427266D01*
X160372390Y-131406376D01*
X160421193Y-131324570D01*
X160428566Y-131286651D01*
X160493343Y-131197296D01*
X160514193Y-131083998D01*
X160544428Y-131020518D01*
X160578066Y-130962982D01*
X160602360Y-130891489D01*
X160618335Y-130891489D01*
X160647125Y-130793708D01*
X160683461Y-130751263D01*
X160693470Y-130716290D01*
X160693470Y-130652741D01*
X160711200Y-130660641D01*
X160718925Y-130604641D01*
X160726824Y-130569004D01*
X160726824Y-130562333D01*
X160792129Y-130345354D01*
X160884292Y-130099936D01*
X160908167Y-130014268D01*
X160936079Y-129986355D01*
X160978949Y-129909651D01*
X160992431Y-129896474D01*
X160999979Y-129767796D01*
X161019465Y-129760072D01*
X161019465Y-129712498D01*
X161035265Y-129696699D01*
X161035265Y-129678090D01*
X161091441Y-129562579D01*
X161072130Y-129510616D01*
X161122338Y-129383167D01*
X161136733Y-129383167D01*
X161129535Y-129325762D01*
X161137259Y-129277135D01*
X161119002Y-129214288D01*
X161180620Y-129150739D01*
X161180620Y-128896017D01*
X161172720Y-128777697D01*
X161180444Y-128713621D01*
X161113736Y-128484529D01*
X161109522Y-128500153D01*
X161079679Y-128491551D01*
X160999979Y-128571426D01*
X160973296Y-128571426D01*
X160951703Y-128606711D01*
X160938537Y-128606711D01*
X160938537Y-128625320D01*
X160901496Y-128633571D01*
X160872706Y-128704668D01*
X160800906Y-128771377D01*
X160780718Y-128842826D01*
X160728053Y-128863189D01*
X160703476Y-128893559D01*
X160645194Y-128934814D01*
X160637294Y-128970275D01*
X160591476Y-128992218D01*
X160571639Y-129035930D01*
X160514409Y-129055416D01*
X160478246Y-129124407D01*
X160414873Y-129172683D01*
X160390998Y-129219906D01*
X160286195Y-129303117D01*
X160268465Y-129295919D01*
X160253367Y-129339280D01*
X160233004Y-129339280D01*
X160217380Y-129366841D01*
X160161555Y-129366841D01*
X160154182Y-129402302D01*
X160085893Y-129449525D01*
X160073605Y-129441274D01*
X160052012Y-129466729D01*
X160014869Y-129477702D01*
X159983899Y-129498679D01*
X159964413Y-129477262D01*
X159937905Y-129503945D01*
X159890682Y-129512547D01*
X159833277Y-129474804D01*
X159797114Y-129474804D01*
X159768499Y-129443907D01*
X159776399Y-129215868D01*
X159768499Y-128895842D01*
X159768499Y-128847741D01*
X159812125Y-128808287D01*
X159829240Y-128777521D01*
X159821515Y-128731352D01*
X159827955Y-128698528D01*
X159848901Y-128664116D01*
X159841001Y-128546674D01*
X159878218Y-128483827D01*
X159870669Y-128383412D01*
X159876337Y-128347163D01*
X159894017Y-128311086D01*
X159878042Y-128172402D01*
X159893842Y-128160816D01*
X159886644Y-128105517D01*
X159827309Y-128062157D01*
X159798426Y-128094971D01*
X159758669Y-128167662D01*
X159678091Y-128201719D01*
X159629815Y-128252979D01*
X159561000Y-128283349D01*
X159483582Y-128176615D01*
X159494115Y-128087963D01*
X159510968Y-128129568D01*
X159524837Y-128115875D01*
X159499733Y-128115875D01*
X159549765Y-128079010D01*
X159597865Y-128015461D01*
X159632209Y-127996967D01*
X159706706Y-127977542D01*
X159719170Y-127953140D01*
X159719170Y-128017918D01*
X159733741Y-127922244D01*
X159943522Y-127775660D01*
X160116965Y-127639785D01*
X160197894Y-127610117D01*
X160320427Y-127536913D01*
X160366597Y-127536913D01*
X160398898Y-127553239D01*
X160466660Y-127626969D01*
X160392929Y-127718606D01*
X160400653Y-127745641D01*
X160380465Y-127781804D01*
X160370810Y-127910658D01*
X160336051Y-128073041D01*
X160344477Y-128081467D01*
X160326220Y-128122370D01*
X160309192Y-128129217D01*
X160319901Y-128162747D01*
X160299888Y-128293180D01*
X160254947Y-128349882D01*
X160243185Y-128738374D01*
X160255123Y-128816318D01*
X160235637Y-128851428D01*
X160269693Y-129009949D01*
X160291988Y-129009949D01*
X160370283Y-128920243D01*
X160382747Y-128891102D01*
X160419086Y-128881095D01*
X160464202Y-128825973D01*
X160491939Y-128818249D01*
X160534247Y-128773659D01*
X160584629Y-128733634D01*
X160636943Y-128718010D01*
X160736304Y-128589332D01*
X160836718Y-128516655D01*
X160937835Y-128387450D01*
X160959954Y-128387450D01*
X161146563Y-128206634D01*
X161186764Y-128153267D01*
X161192382Y-128162571D01*
X161192382Y-128037229D01*
X161200633Y-127972100D01*
X161215730Y-127958056D01*
X161209235Y-127958758D01*
X161216081Y-127912764D01*
X161234865Y-127872914D01*
X161268044Y-127831660D01*
X161297712Y-127831660D01*
X161345110Y-127782331D01*
X161383029Y-127758632D01*
X161434640Y-127739321D01*
X161487129Y-127739321D01*
X161518904Y-127721064D01*
X161538741Y-127772149D01*
X161612823Y-127739848D01*
X161633889Y-127703333D01*
X161667594Y-127684550D01*
X161667594Y-127653829D01*
X161713237Y-127684199D01*
X161732372Y-127729315D01*
X161689307Y-127828663D01*
X161679005Y-127869579D01*
X161743607Y-127898018D01*
X161743607Y-127928915D01*
X161705162Y-127949278D01*
X161659344Y-128039511D01*
X161667243Y-128126759D01*
X161651619Y-128163800D01*
X161659344Y-128202421D01*
X161642842Y-128287562D01*
X161612823Y-128295462D01*
X161594741Y-128355500D01*
X161614578Y-128413256D01*
X161536401Y-128555236D01*
X161521713Y-128601094D01*
X161521713Y-128630411D01*
X161505738Y-128652530D01*
X161480224Y-128746333D01*
X161470628Y-128762248D01*
X161470628Y-128783490D01*
X161481512Y-128794198D01*
X161429198Y-128833873D01*
X161421649Y-128965535D01*
X161441487Y-129018902D01*
X161421298Y-129117736D01*
X161394088Y-129170225D01*
X161394088Y-129205160D01*
X161346339Y-129321900D01*
X161326502Y-129312070D01*
X161313335Y-129343142D01*
X161307718Y-129375794D01*
X161276997Y-129434428D01*
X161292269Y-129469011D01*
X161274363Y-129520973D01*
X161266288Y-129519394D01*
X161284721Y-129540284D01*
X161276294Y-129579783D01*
X161276294Y-129618755D01*
X161235567Y-129629990D01*
X161241711Y-129642454D01*
X161207681Y-129709824D01*
X161183429Y-129794129D01*
X161167805Y-129809752D01*
X161156043Y-129882430D01*
X161113375Y-129934267D01*
X161103378Y-129963885D01*
X161111453Y-130046569D01*
X161088456Y-130071848D01*
X161068619Y-130071848D01*
X161076168Y-130157341D01*
X161031403Y-130192275D01*
X161038951Y-130226683D01*
X160994730Y-130301546D01*
X160983653Y-130347110D01*
X160983653Y-130367825D01*
X160967854Y-130405217D01*
X160967854Y-130441731D01*
X160918349Y-130495273D01*
X160895352Y-130577080D01*
G37*
G36*
X158342686Y-131261653D02*
G01*
X158350410Y-131273063D01*
X158436078Y-131273063D01*
X158633923Y-131281139D01*
X158633045Y-131312737D01*
X158634098Y-131310280D01*
X158714500Y-131318355D01*
X158824394Y-131382957D01*
X158854413Y-131382957D01*
X158862313Y-131410519D01*
X158918489Y-131410519D01*
X158926739Y-131427020D01*
X159161800Y-131475472D01*
X159308560Y-131511635D01*
X159316459Y-131541303D01*
X159416698Y-131576237D01*
X159430918Y-131588350D01*
X159517639Y-131611523D01*
X159547080Y-131645630D01*
X159592072Y-131675598D01*
X159611909Y-131675598D01*
X159611909Y-131688765D01*
X159629815Y-131681567D01*
X159638242Y-131712990D01*
X159652286Y-131712990D01*
X159707935Y-131763724D01*
X159775521Y-131751436D01*
X159783597Y-131783737D01*
X159812387Y-131783737D01*
X159812387Y-131815160D01*
X159848023Y-131830082D01*
X159875058Y-131878358D01*
X159941942Y-131886433D01*
X159941942Y-131910835D01*
X159915083Y-131922246D01*
X159929478Y-131995274D01*
X160047799Y-132039864D01*
X160074131Y-132073745D01*
X160113103Y-132065669D01*
X160129605Y-132125181D01*
X160186483Y-132152742D01*
X160206496Y-132226473D01*
X160332189Y-132354097D01*
X160407675Y-132656043D01*
X160387663Y-132696068D01*
X160387663Y-132769097D01*
X160344302Y-132834225D01*
X160306910Y-133072095D01*
X160230195Y-133172509D01*
X160222471Y-133207268D01*
X160156815Y-133334893D01*
X160129429Y-133354379D01*
X160121705Y-133373689D01*
X159981792Y-133511847D01*
X159981792Y-133493414D01*
X159802205Y-133665453D01*
X159747082Y-133693189D01*
X159682129Y-133750067D01*
X159600850Y-133794306D01*
X159580486Y-133794306D01*
X159474454Y-133863648D01*
X159474454Y-133872250D01*
X159351043Y-133951247D01*
X159280121Y-133958796D01*
X159272572Y-133973718D01*
X159229261Y-133997508D01*
X159187079Y-134035511D01*
X159174089Y-134013918D01*
X159081750Y-134059210D01*
X159081750Y-134069216D01*
X159053662Y-134069216D01*
X159042075Y-134088527D01*
X158997788Y-134098585D01*
X158976420Y-134112402D01*
X158967467Y-134112402D01*
X158750488Y-134234935D01*
X158728544Y-134224929D01*
X158324253Y-134405745D01*
X158314071Y-134425758D01*
X158226472Y-134450159D01*
X158184516Y-134450159D01*
X158128340Y-134498611D01*
X158020201Y-134534072D01*
X157883624Y-134633608D01*
X157777592Y-134725245D01*
X157777592Y-134762637D01*
X157710883Y-134787039D01*
X157675422Y-134844443D01*
X157523045Y-134872531D01*
X157484600Y-134872531D01*
X157428248Y-134793183D01*
X157463534Y-134737885D01*
X157436324Y-134593583D01*
X157464938Y-134505106D01*
X157531998Y-134476843D01*
X157813053Y-134310948D01*
X157813053Y-134332190D01*
X157832188Y-134337456D01*
X157839385Y-134288302D01*
X157867122Y-134268465D01*
X157872774Y-134237217D01*
X158080239Y-134237217D01*
X158086910Y-134276540D01*
X158361294Y-134201756D01*
X158433621Y-134166471D01*
X158600744Y-134100640D01*
X158645685Y-134119424D01*
X158670261Y-134077643D01*
X158736619Y-134077643D01*
X158730826Y-134072025D01*
X158770325Y-134021291D01*
X158865121Y-133993204D01*
X158883905Y-133993204D01*
X158964307Y-133940188D01*
X158985022Y-133940188D01*
X158979404Y-133931761D01*
X159201825Y-133820638D01*
X159238340Y-133812914D01*
X159266077Y-133783071D01*
X159275732Y-133783071D01*
X159308560Y-133775698D01*
X159347707Y-133726193D01*
X159368949Y-133738832D01*
X159520272Y-133657553D01*
X159520272Y-133639647D01*
X159527997Y-133639647D01*
X159527997Y-133628412D01*
X159638417Y-133564160D01*
X159904726Y-133338755D01*
X159967046Y-133266779D01*
X160120476Y-133017148D01*
X160146633Y-132991167D01*
X160138909Y-132886188D01*
X160058858Y-132642350D01*
X160011284Y-132576694D01*
X160011284Y-132520343D01*
X159947209Y-132460305D01*
X159919999Y-132397634D01*
X159767271Y-132268605D01*
X159730932Y-132226473D01*
X159675283Y-132212604D01*
X159645790Y-132161168D01*
X159538705Y-132124127D01*
X159465501Y-132060930D01*
X159347005Y-131985092D01*
X159258001Y-131969293D01*
X159211130Y-131926108D01*
X159188659Y-131941029D01*
X158891629Y-131831837D01*
X158842827Y-131818320D01*
X158737146Y-131763724D01*
X158698700Y-131766884D01*
X158698700Y-131772677D01*
X158641296Y-131810245D01*
X158626550Y-131896791D01*
X158654813Y-131916979D01*
X158606186Y-132036177D01*
X158553345Y-132467678D01*
X158525784Y-132604080D01*
X158468028Y-132723278D01*
X158453984Y-132740833D01*
X158482950Y-132825975D01*
X158460480Y-132825975D01*
X158425545Y-133086666D01*
X158344968Y-133324360D01*
X158288090Y-133717766D01*
X158260353Y-133771133D01*
X158179600Y-134049028D01*
X158167488Y-134059210D01*
X158080239Y-134237217D01*
X157872774Y-134237217D01*
X157876426Y-134217029D01*
X157885379Y-134225982D01*
X157976490Y-133960376D01*
X157984389Y-133844513D01*
X158019675Y-133724964D01*
X158019675Y-133356836D01*
X158039512Y-133329100D01*
X158068829Y-132976772D01*
X158168716Y-132476104D01*
X158119211Y-132410800D01*
X158157306Y-132308806D01*
X158149757Y-132204880D01*
X158080064Y-132198034D01*
X158080064Y-132213307D01*
X158015286Y-132213307D01*
X158015286Y-132234899D01*
X157975085Y-132234899D01*
X157947700Y-132270185D01*
X157868527Y-132270185D01*
X157810069Y-132200316D01*
X157832890Y-132167839D01*
X157886398Y-132132979D01*
X157910132Y-132107099D01*
X157915925Y-132120090D01*
X157919612Y-132106748D01*
X157919612Y-132097268D01*
X157950508Y-132066547D01*
X157958759Y-132066547D01*
X158022133Y-132022133D01*
X158056716Y-131967537D01*
X158176441Y-131915399D01*
X158169243Y-131822182D01*
X158120791Y-131793041D01*
X158093230Y-131701053D01*
X158024590Y-131667699D01*
X157942609Y-131687536D01*
X157902583Y-131634520D01*
X157933480Y-131584137D01*
X158090772Y-131549378D01*
X158056540Y-131437553D01*
X158030208Y-131437553D01*
X158040039Y-131392964D01*
X158273519Y-131253226D01*
X158342686Y-131261653D01*
G37*
G36*
X161357574Y-132450650D02*
G01*
X161399134Y-132481831D01*
X161416734Y-132523854D01*
X161377781Y-132590006D01*
X161363367Y-132686764D01*
X161363367Y-132718538D01*
X161343705Y-132755579D01*
X161348621Y-132781385D01*
X161364596Y-132781385D01*
X161350727Y-132848620D01*
X161315091Y-132856520D01*
X161299291Y-132922176D01*
X161289812Y-132922176D01*
X161311580Y-132953950D01*
X161360583Y-132930510D01*
X161467468Y-132828081D01*
X161476070Y-132836508D01*
X161673563Y-132689397D01*
X161711306Y-132681497D01*
X161803294Y-132630588D01*
X161875270Y-132608995D01*
X161957834Y-132565664D01*
X162095584Y-132545622D01*
X162182481Y-132584945D01*
X162206853Y-132590982D01*
X162213729Y-132606362D01*
X162195296Y-132690450D01*
X162109628Y-132740306D01*
X162062405Y-132799467D01*
X161921263Y-132865824D01*
X161869125Y-132841774D01*
X161838580Y-132841774D01*
X161838580Y-132847743D01*
X161696154Y-132898059D01*
X161579469Y-132929373D01*
X161510321Y-133041147D01*
X161378464Y-133209901D01*
X161285612Y-133332965D01*
X161241091Y-133416633D01*
X161227843Y-133472524D01*
X161216081Y-133758845D01*
X161139366Y-133886294D01*
X161147266Y-134064126D01*
X161120406Y-134131537D01*
X161093723Y-134191575D01*
X161037196Y-134292340D01*
X160999453Y-134302697D01*
X160894123Y-134377481D01*
X160793007Y-134377481D01*
X160745433Y-134394159D01*
X160676442Y-134327274D01*
X160685594Y-134264758D01*
X160717696Y-134181919D01*
X160764919Y-134058683D01*
X160793909Y-133929290D01*
X160829285Y-133858856D01*
X160867966Y-133825905D01*
X160886399Y-133772538D01*
X160878324Y-133736726D01*
X160893596Y-133708287D01*
X160841458Y-133621214D01*
X160841458Y-133592424D01*
X160829521Y-133416523D01*
X160872531Y-133394053D01*
X160907465Y-133410906D01*
X160978562Y-133317864D01*
X160966976Y-133246416D01*
X160986111Y-133164259D01*
X160939590Y-133127393D01*
X160939590Y-132936044D01*
X160874462Y-132987129D01*
X160829170Y-132987129D01*
X160763690Y-133030665D01*
X160699439Y-133014515D01*
X160635363Y-133022415D01*
X160589411Y-133010927D01*
X160576378Y-132981511D01*
X160589337Y-132920334D01*
X160636065Y-132838965D01*
X160707178Y-132763895D01*
X160813897Y-132691328D01*
X160813897Y-132681848D01*
X160869020Y-132673949D01*
X160905781Y-132629150D01*
X160944155Y-132616368D01*
X160995064Y-132578976D01*
X161130062Y-132499804D01*
X161181147Y-132527365D01*
X161220294Y-132508757D01*
X161281034Y-132492957D01*
X161357574Y-132450650D01*
G37*
G36*
X163052329Y-132476982D02*
G01*
X163067953Y-132476982D01*
X163060053Y-132496644D01*
X163069884Y-132496644D01*
X163097445Y-132524205D01*
X163187502Y-132531929D01*
X163281070Y-132531929D01*
X163334086Y-132561421D01*
X163356557Y-132561421D01*
X163388331Y-132669209D01*
X163346199Y-132705196D01*
X163346199Y-132737498D01*
X163411152Y-132802451D01*
X163402902Y-132990991D01*
X163374287Y-132990991D01*
X163364456Y-133026277D01*
X163357961Y-133026277D01*
X163357961Y-133073148D01*
X163392720Y-133080346D01*
X163412206Y-133104747D01*
X163387453Y-133144070D01*
X163387453Y-133173563D01*
X163335666Y-133198315D01*
X163300556Y-133227807D01*
X163198738Y-133282579D01*
X163129220Y-133346303D01*
X163099376Y-133427583D01*
X162923300Y-133497627D01*
X162756177Y-133493941D01*
X162763901Y-133536950D01*
X162724929Y-133536950D01*
X162717381Y-133548185D01*
X162625568Y-133567496D01*
X162617844Y-133538881D01*
X162597831Y-133546957D01*
X162597831Y-133564687D01*
X162523925Y-133592599D01*
X162498119Y-133668788D01*
X162534985Y-133767973D01*
X162534985Y-133816776D01*
X162554997Y-133861015D01*
X162513800Y-133967003D01*
X162499173Y-133986533D01*
X162510934Y-134021818D01*
X162498997Y-134026558D01*
X162534985Y-134042182D01*
X162534985Y-134103800D01*
X162569744Y-134128201D01*
X162689117Y-134083963D01*
X162717732Y-134110646D01*
X162723349Y-134105204D01*
X162849745Y-134086069D01*
X162864140Y-134061843D01*
X162913996Y-134061843D01*
X162952793Y-134057806D01*
X162983338Y-134074307D01*
X162975790Y-134065881D01*
X163024241Y-134065881D01*
X163073044Y-134024802D01*
X163107682Y-134025622D01*
X163176267Y-133996188D01*
X163190838Y-134007072D01*
X163218399Y-133981442D01*
X163257722Y-133981442D01*
X163294939Y-133944225D01*
X163343742Y-133933459D01*
X163431165Y-133895071D01*
X163431165Y-133872777D01*
X163490150Y-133856450D01*
X163551943Y-133766920D01*
X163621812Y-133775522D01*
X163658289Y-133800562D01*
X163700458Y-133812739D01*
X163734515Y-133844337D01*
X163687994Y-133931059D01*
X163696245Y-133986006D01*
X163631643Y-134022345D01*
X163623392Y-134043060D01*
X163527717Y-134055173D01*
X163476457Y-134108364D01*
X163421159Y-134112051D01*
X163405359Y-134157869D01*
X163328293Y-134150145D01*
X163304769Y-134205267D01*
X163242625Y-134197192D01*
X163220155Y-134223525D01*
X163150110Y-134255826D01*
X163121496Y-134239500D01*
X163077608Y-134281280D01*
X163011953Y-134281280D01*
X162972630Y-134300942D01*
X162949808Y-134300942D01*
X162920843Y-134325870D01*
X162813757Y-134370811D01*
X162784967Y-134350096D01*
X162731776Y-134350096D01*
X162707199Y-134370459D01*
X162684377Y-134362209D01*
X162655236Y-134370459D01*
X162651023Y-134366071D01*
X162633292Y-134406974D01*
X162577994Y-134406974D01*
X162536038Y-134429795D01*
X162441768Y-134449983D01*
X162421755Y-134469821D01*
X162384363Y-134469821D01*
X162333980Y-134477369D01*
X162293780Y-134527927D01*
X162240764Y-134508266D01*
X162213378Y-134543200D01*
X162188274Y-134536529D01*
X162105064Y-134458234D01*
X162113139Y-134409607D01*
X162105239Y-134383977D01*
X162113139Y-134337281D01*
X162083647Y-134264428D01*
X162095409Y-134207023D01*
X162075923Y-134118370D01*
X162095409Y-134045868D01*
X162068725Y-133936677D01*
X162059948Y-133928250D01*
X162068725Y-133865052D01*
X162132976Y-133841704D01*
X162132976Y-133810281D01*
X162104713Y-133800099D01*
X162113139Y-133746556D01*
X162095233Y-133717064D01*
X162106117Y-133665101D01*
X162132450Y-133650180D01*
X162125077Y-133608048D01*
X162133327Y-133527646D01*
X162149478Y-133519571D01*
X162176513Y-133428812D01*
X162242695Y-133310667D01*
X162298519Y-133289601D01*
X162305541Y-133231670D01*
X162297817Y-133213764D01*
X162302156Y-133193751D01*
X162562722Y-133193751D01*
X162573781Y-133262566D01*
X162610822Y-133282930D01*
X162704917Y-133305400D01*
X162767061Y-133264673D01*
X162895563Y-133252911D01*
X162963150Y-133154252D01*
X163054260Y-133078766D01*
X163065671Y-132937800D01*
X163034599Y-132891103D01*
X163030912Y-132825975D01*
X162990009Y-132825975D01*
X162955601Y-132814564D01*
X162886435Y-132838087D01*
X162834648Y-132815091D01*
X162762497Y-132867053D01*
X162749258Y-132913713D01*
X162720892Y-132954126D01*
X162668929Y-132990991D01*
X162642948Y-132990991D01*
X162663311Y-133028559D01*
X162603449Y-133157061D01*
X162572903Y-133149337D01*
X162562722Y-133193751D01*
X162302156Y-133193751D01*
X162306419Y-133174089D01*
X162342231Y-133154252D01*
X162360664Y-133098954D01*
X162313617Y-133098954D01*
X162313617Y-133068057D01*
X162332752Y-133039443D01*
X162325203Y-133012935D01*
X162334683Y-132979756D01*
X162341178Y-132979756D01*
X162341178Y-132915680D01*
X162407887Y-132907430D01*
X162434395Y-132852658D01*
X162574132Y-132696946D01*
X162600816Y-132696946D01*
X162663838Y-132633572D01*
X162692277Y-132641648D01*
X162715735Y-132625198D01*
X162754246Y-132577045D01*
X162775312Y-132577045D01*
X162812529Y-132553522D01*
X162826924Y-132553522D01*
X162853958Y-132513145D01*
X163002298Y-132468907D01*
X163052329Y-132476982D01*
G37*
G36*
X164980039Y-132583716D02*
G01*
X164980039Y-132575290D01*
X165028315Y-132588105D01*
X165040252Y-132568092D01*
X165095726Y-132588632D01*
X165134522Y-132575465D01*
X165146284Y-132611102D01*
X165166472Y-132604256D01*
X165196316Y-132615140D01*
X165192980Y-132620757D01*
X165218435Y-132610926D01*
X165237219Y-132654989D01*
X165229846Y-132680268D01*
X165273207Y-132706776D01*
X165301294Y-132829486D01*
X165305508Y-132833699D01*
X165364141Y-132815968D01*
X165375727Y-132771028D01*
X165432430Y-132749962D01*
X165471226Y-132749962D01*
X165533020Y-132811755D01*
X165428919Y-132974841D01*
X165371865Y-132982740D01*
X165318498Y-133055769D01*
X165294624Y-133055769D01*
X165309545Y-133150390D01*
X165301646Y-133205864D01*
X165274084Y-133616474D01*
X165256529Y-133708638D01*
X165256529Y-133747259D01*
X165201758Y-133819585D01*
X165221244Y-133945981D01*
X165208604Y-134002683D01*
X165196491Y-134008652D01*
X165226159Y-134051486D01*
X165192629Y-134051486D01*
X165172266Y-134155411D01*
X165194911Y-134208954D01*
X165163488Y-134231951D01*
X165128729Y-134396265D01*
X165109243Y-134411889D01*
X165109243Y-134441030D01*
X165085017Y-134448228D01*
X165101344Y-134500717D01*
X165092335Y-134601281D01*
X165072378Y-134648354D01*
X165123287Y-134806173D01*
X165070622Y-134816706D01*
X165054647Y-134864631D01*
X165042008Y-134864631D01*
X165064829Y-134895528D01*
X165046397Y-134937309D01*
X165040428Y-134937309D01*
X165056052Y-134965046D01*
X165072027Y-135069322D01*
X165064127Y-135104257D01*
X165083964Y-135177812D01*
X165061669Y-135218188D01*
X165035161Y-135218188D01*
X164999174Y-135346691D01*
X164999174Y-135402164D01*
X164980039Y-135413750D01*
X164988114Y-135466415D01*
X164943524Y-135474491D01*
X164936503Y-135518202D01*
X164952478Y-135554015D01*
X164936503Y-135599833D01*
X164944402Y-135635118D01*
X164875060Y-135834894D01*
X164866809Y-135820499D01*
X164825906Y-135932324D01*
X164705479Y-136048713D01*
X164679147Y-136095760D01*
X164679147Y-136135259D01*
X164659485Y-136135259D01*
X164638068Y-136184413D01*
X164630169Y-136176689D01*
X164605065Y-136234269D01*
X164559422Y-136252000D01*
X164513253Y-136329241D01*
X164440399Y-136379097D01*
X164414594Y-136444051D01*
X164342092Y-136482321D01*
X164289778Y-136541305D01*
X164241326Y-136549732D01*
X164189013Y-136542358D01*
X164164787Y-136577819D01*
X164085438Y-136631362D01*
X164055993Y-136663604D01*
X164037864Y-136705620D01*
X163948685Y-136745469D01*
X163917613Y-136722297D01*
X163925162Y-136710710D01*
X163870917Y-136677181D01*
X163862490Y-136628027D01*
X163937626Y-136495662D01*
X164009601Y-136487763D01*
X164057350Y-136403499D01*
X164241502Y-136354696D01*
X164282405Y-136282896D01*
X164459359Y-136143334D01*
X164474632Y-136158607D01*
X164469190Y-136124551D01*
X164532232Y-136038672D01*
X164564689Y-136007635D01*
X164557491Y-135986042D01*
X164580404Y-135957402D01*
X164640350Y-135918982D01*
X164622269Y-135884925D01*
X164642808Y-135797151D01*
X164696000Y-135733953D01*
X164731285Y-135696210D01*
X164780615Y-135420948D01*
X164792589Y-135407548D01*
X164836966Y-135313161D01*
X164848728Y-135218715D01*
X164879976Y-135148495D01*
X164879976Y-135103730D01*
X164887700Y-135069673D01*
X164872076Y-135032808D01*
X164872076Y-134998576D01*
X164852063Y-134976632D01*
X164860138Y-134932042D01*
X164851010Y-134900268D01*
X164878747Y-134892368D01*
X164860138Y-134819691D01*
X164872778Y-134771064D01*
X164894897Y-134756317D01*
X164879098Y-134690662D01*
X164905781Y-134679251D01*
X164880151Y-134610962D01*
X164867369Y-134546224D01*
X164858032Y-134531790D01*
X164879624Y-134492818D01*
X164822746Y-134207023D01*
X164836790Y-134143825D01*
X164799749Y-133837316D01*
X164757618Y-133812563D01*
X164711448Y-133832576D01*
X164705655Y-133826783D01*
X164688100Y-133851184D01*
X164653517Y-133851184D01*
X164653517Y-133894896D01*
X164595059Y-133911749D01*
X164507459Y-133939310D01*
X164487447Y-133964589D01*
X164344374Y-134194383D01*
X164194279Y-134405218D01*
X164145827Y-134443488D01*
X164135119Y-134438046D01*
X164135119Y-134466310D01*
X164092811Y-134514937D01*
X164065426Y-134514937D01*
X164034880Y-134525294D01*
X164034880Y-134563037D01*
X163958340Y-134578837D01*
X163958340Y-134589721D01*
X163930077Y-134580417D01*
X163897776Y-134602009D01*
X163873901Y-134559000D01*
X163893212Y-134503350D01*
X163855995Y-134472454D01*
X163883381Y-134445068D01*
X163865826Y-134431200D01*
X163873374Y-134397494D01*
X163837036Y-134387312D01*
X163846691Y-134363613D01*
X163838967Y-134329381D01*
X163838967Y-134270045D01*
X163858277Y-134243011D01*
X163829487Y-134133819D01*
X163846164Y-134116966D01*
X163838791Y-134091336D01*
X163846866Y-134045342D01*
X163846866Y-133995135D01*
X163818603Y-133986357D01*
X163838440Y-133952827D01*
X163819305Y-133892965D01*
X163829136Y-133892965D01*
X163820358Y-133867159D01*
X163847744Y-133821692D01*
X163866528Y-133814143D01*
X163866528Y-133767973D01*
X163900936Y-133674406D01*
X163870917Y-133674406D01*
X163888296Y-133639647D01*
X163903218Y-133639647D01*
X163917337Y-133588211D01*
X164235182Y-133588211D01*
X164244517Y-133671698D01*
X164272750Y-133752525D01*
X164251333Y-133859961D01*
X164277490Y-133892965D01*
X164307157Y-133892965D01*
X164335421Y-133849604D01*
X164443033Y-133748663D01*
X164485178Y-133726937D01*
X164584877Y-133653866D01*
X164611034Y-133672650D01*
X164657346Y-133618184D01*
X164707324Y-133586958D01*
X164762884Y-133575044D01*
X164806596Y-133522204D01*
X164771486Y-133406517D01*
X164815900Y-133339106D01*
X164881555Y-133303294D01*
X164918245Y-133239043D01*
X164937380Y-133220083D01*
X164945280Y-133190591D01*
X164980039Y-133155832D01*
X164980039Y-133122127D01*
X164925092Y-133015041D01*
X164925092Y-132988358D01*
X164821166Y-132919542D01*
X164786759Y-132946226D01*
X164749542Y-132938326D01*
X164730407Y-132953599D01*
X164661943Y-132953599D01*
X164640526Y-132939380D01*
X164614720Y-132961499D01*
X164587159Y-132961499D01*
X164545303Y-132990770D01*
X164512375Y-132998891D01*
X164477967Y-132998891D01*
X164387559Y-133116158D01*
X164332612Y-133197437D01*
X164345603Y-133243080D01*
X164315759Y-133308736D01*
X164315759Y-133320147D01*
X164260812Y-133328046D01*
X164260812Y-133451984D01*
X164242075Y-133511077D01*
X164235182Y-133588211D01*
X163917337Y-133588211D01*
X163947456Y-133478492D01*
X163979055Y-133403357D01*
X164004334Y-133312949D01*
X164039795Y-133267833D01*
X164073350Y-133145220D01*
X164113702Y-133081399D01*
X164242380Y-132950790D01*
X164298029Y-132935693D01*
X164325512Y-132893523D01*
X164400901Y-132825799D01*
X164509039Y-132741184D01*
X164562758Y-132715729D01*
X164571008Y-132689046D01*
X164625955Y-132689046D01*
X164674231Y-132642876D01*
X164754458Y-132597058D01*
X164849430Y-132588983D01*
X164912452Y-132577045D01*
X164948089Y-132577045D01*
X164957744Y-132567566D01*
X164980039Y-132583716D01*
G37*
D11*
G36*
X159600504Y-103788888D02*
G01*
X159965825Y-103130445D01*
X160097355Y-102857764D01*
X160164650Y-102725847D01*
X160190984Y-102703717D01*
X160223454Y-102696444D01*
X160258523Y-102701792D01*
X160290120Y-102717828D01*
X160313123Y-102741659D01*
X160319994Y-102766412D01*
X160312488Y-102799105D01*
X160280686Y-102861852D01*
X159255066Y-104697056D01*
X159196419Y-104804445D01*
X158723939Y-104061527D01*
X158569223Y-103817504D01*
X158407432Y-103569864D01*
X158268440Y-103350684D01*
X157867343Y-102766884D01*
X158973779Y-102766884D01*
X159400820Y-103473010D01*
X159600504Y-103788888D01*
G37*
G36*
X162009602Y-102252108D02*
G01*
X161995294Y-103261219D01*
X162009445Y-104636050D01*
X162009445Y-104698943D01*
X160984296Y-104698943D01*
X160984296Y-104635893D01*
X160998447Y-103238578D01*
X161001906Y-102721916D01*
X161001906Y-102654778D01*
X160973290Y-102663426D01*
X160718418Y-102742513D01*
X160650023Y-102756821D01*
X160607037Y-102741500D01*
X160592162Y-102693771D01*
X160599992Y-102654192D01*
X160620935Y-102631665D01*
X160782411Y-102581194D01*
X161223917Y-102466729D01*
X161389324Y-102422862D01*
X162009602Y-102252108D01*
G37*
D13*
%TO.C,G565656*%
G36*
X164931619Y-111454101D02*
G01*
X165016194Y-111469619D01*
X165081003Y-111496182D01*
X165132011Y-111535754D01*
X165175188Y-111590298D01*
X165216501Y-111661779D01*
X165233990Y-111695850D01*
X165277741Y-111786571D01*
X165301057Y-111848058D01*
X165305500Y-111888899D01*
X165292633Y-111917686D01*
X165277110Y-111932863D01*
X165247149Y-111940942D01*
X165180977Y-111949433D01*
X165086132Y-111957979D01*
X164970151Y-111966222D01*
X164840573Y-111973805D01*
X164704934Y-111980370D01*
X164570773Y-111985561D01*
X164445628Y-111989020D01*
X164337035Y-111990390D01*
X164252533Y-111989313D01*
X164199660Y-111985433D01*
X164193319Y-111984237D01*
X164111455Y-111943655D01*
X164031435Y-111861157D01*
X163981442Y-111786096D01*
X163944527Y-111697006D01*
X163936894Y-111612730D01*
X163957435Y-111542936D01*
X164005045Y-111497292D01*
X164014981Y-111492922D01*
X164054477Y-111485153D01*
X164129825Y-111476793D01*
X164233142Y-111468472D01*
X164356541Y-111460820D01*
X164492139Y-111454469D01*
X164499607Y-111454177D01*
X164679293Y-111448344D01*
X164821307Y-111447664D01*
X164931619Y-111454101D01*
G37*
G36*
X167078368Y-107350794D02*
G01*
X167138881Y-107379305D01*
X167200859Y-107415599D01*
X167247494Y-107450493D01*
X167256066Y-107459420D01*
X167293428Y-107494476D01*
X167345124Y-107522607D01*
X167418337Y-107546068D01*
X167520255Y-107567113D01*
X167658063Y-107587995D01*
X167671872Y-107589863D01*
X167806261Y-107608545D01*
X167902146Y-107623838D01*
X167964512Y-107637189D01*
X167998343Y-107650041D01*
X168008624Y-107663841D01*
X168000338Y-107680033D01*
X167996576Y-107684003D01*
X167962628Y-107697484D01*
X167891015Y-107706280D01*
X167779395Y-107710611D01*
X167705110Y-107711170D01*
X167440811Y-107711170D01*
X167416037Y-107776803D01*
X167397064Y-107816483D01*
X167370002Y-107835824D01*
X167320475Y-107842020D01*
X167284842Y-107842436D01*
X167211843Y-107836109D01*
X167151086Y-107820133D01*
X167133738Y-107811138D01*
X167043030Y-107737095D01*
X166963721Y-107652926D01*
X166903006Y-107568041D01*
X166868086Y-107491845D01*
X166862480Y-107456600D01*
X166881062Y-107418721D01*
X166926908Y-107379782D01*
X166984989Y-107349939D01*
X167036128Y-107339249D01*
X167078368Y-107350794D01*
G37*
G36*
X167285796Y-111468394D02*
G01*
X167334670Y-111492453D01*
X167378864Y-111510631D01*
X167426172Y-111524247D01*
X167484387Y-111534619D01*
X167561301Y-111543063D01*
X167664710Y-111550899D01*
X167802404Y-111559443D01*
X167835955Y-111561424D01*
X168000856Y-111573175D01*
X168157984Y-111588193D01*
X168300957Y-111605543D01*
X168423396Y-111624289D01*
X168518918Y-111643499D01*
X168581141Y-111662236D01*
X168600400Y-111673404D01*
X168583201Y-111677598D01*
X168527897Y-111682510D01*
X168440129Y-111687837D01*
X168325534Y-111693271D01*
X168189753Y-111698509D01*
X168060720Y-111702613D01*
X167867021Y-111709033D01*
X167715419Y-111715947D01*
X167604256Y-111723475D01*
X167531875Y-111731738D01*
X167496620Y-111740858D01*
X167492879Y-111744026D01*
X167464947Y-111783038D01*
X167428015Y-111815573D01*
X167377525Y-111842682D01*
X167308916Y-111865419D01*
X167217628Y-111884834D01*
X167099101Y-111901979D01*
X166948776Y-111917906D01*
X166762093Y-111933667D01*
X166626945Y-111943755D01*
X166365995Y-111960878D01*
X166146625Y-111971603D01*
X165969186Y-111975926D01*
X165834026Y-111973845D01*
X165741496Y-111965355D01*
X165695972Y-111952769D01*
X165621112Y-111901205D01*
X165547874Y-111830057D01*
X165494926Y-111757599D01*
X165493089Y-111754160D01*
X165470286Y-111689308D01*
X165463191Y-111622206D01*
X165472226Y-111568792D01*
X165487660Y-111548506D01*
X165517378Y-111541992D01*
X165582648Y-111534346D01*
X165675306Y-111526318D01*
X165787190Y-111518657D01*
X165854111Y-111514863D01*
X165986146Y-111506723D01*
X166147890Y-111494882D01*
X166325564Y-111480460D01*
X166505387Y-111464574D01*
X166673221Y-111448380D01*
X167151314Y-111399821D01*
X167285796Y-111468394D01*
G37*
G36*
X166774245Y-118257090D02*
G01*
X166889163Y-118300018D01*
X167002883Y-118371200D01*
X167062590Y-118417985D01*
X167215566Y-118570673D01*
X167303204Y-118692965D01*
X167362646Y-118780898D01*
X167413709Y-118838914D01*
X167447626Y-118860767D01*
X167488580Y-118884696D01*
X167492318Y-118916803D01*
X167457975Y-118943692D01*
X167453095Y-118945364D01*
X167414774Y-118973147D01*
X167416344Y-119017796D01*
X167426556Y-119037021D01*
X167452710Y-119048166D01*
X167512103Y-119061493D01*
X167594371Y-119075533D01*
X167689149Y-119088813D01*
X167786074Y-119099863D01*
X167874783Y-119107211D01*
X167936723Y-119109447D01*
X167975250Y-119115153D01*
X167977135Y-119129343D01*
X167947555Y-119147629D01*
X167891685Y-119165619D01*
X167863302Y-119171717D01*
X167782694Y-119184935D01*
X167680217Y-119199094D01*
X167577577Y-119211201D01*
X167574219Y-119211554D01*
X167399993Y-119229774D01*
X167374599Y-119318057D01*
X167313791Y-119474962D01*
X167221093Y-119628038D01*
X167091994Y-119784408D01*
X167053960Y-119824381D01*
X166952059Y-119923445D01*
X166860892Y-119997960D01*
X166765863Y-120059050D01*
X166699277Y-120094724D01*
X166518993Y-120186136D01*
X166247672Y-120177483D01*
X166130114Y-120172902D01*
X166045327Y-120166610D01*
X166015474Y-120161873D01*
X165982331Y-120156615D01*
X165930142Y-120140928D01*
X165877777Y-120117557D01*
X165856024Y-120106493D01*
X165753697Y-120040400D01*
X165641451Y-119946583D01*
X165529941Y-119835938D01*
X165429824Y-119719356D01*
X165351757Y-119607731D01*
X165330089Y-119568879D01*
X165291661Y-119486639D01*
X165268054Y-119413553D01*
X165254738Y-119331287D01*
X165254596Y-119329309D01*
X165760142Y-119329309D01*
X165763175Y-119358252D01*
X165789565Y-119408309D01*
X165790001Y-119409049D01*
X165824064Y-119488497D01*
X165832482Y-119560858D01*
X165814966Y-119615055D01*
X165795860Y-119632186D01*
X165770224Y-119650927D01*
X165776260Y-119671541D01*
X165796697Y-119693437D01*
X165826136Y-119714086D01*
X165870858Y-119726255D01*
X165941218Y-119731804D01*
X166015474Y-119732742D01*
X166108439Y-119730985D01*
X166177024Y-119722994D01*
X166238948Y-119704282D01*
X166311932Y-119670364D01*
X166359211Y-119645717D01*
X166539993Y-119529863D01*
X166686449Y-119389999D01*
X166803854Y-119220721D01*
X166838414Y-119154846D01*
X166886729Y-119051818D01*
X166917642Y-118971970D01*
X166935392Y-118900453D01*
X166944219Y-118822419D01*
X166946631Y-118775812D01*
X166949909Y-118693771D01*
X166821393Y-118693771D01*
X166742728Y-118697008D01*
X166668637Y-118708806D01*
X166588633Y-118732296D01*
X166492232Y-118770607D01*
X166368950Y-118826870D01*
X166357652Y-118832221D01*
X166275781Y-118874580D01*
X166188039Y-118925639D01*
X166102771Y-118979795D01*
X166028322Y-119031445D01*
X165973036Y-119074986D01*
X165945257Y-119104814D01*
X165943535Y-119110295D01*
X165963479Y-119119954D01*
X166015830Y-119130629D01*
X166089360Y-119140044D01*
X166091209Y-119140228D01*
X166198163Y-119154574D01*
X166262220Y-119171612D01*
X166284089Y-119190378D01*
X166264476Y-119209910D01*
X166204089Y-119229247D01*
X166103633Y-119247426D01*
X166003510Y-119259609D01*
X165913054Y-119271585D01*
X165837114Y-119286431D01*
X165787942Y-119301573D01*
X165778874Y-119306826D01*
X165760142Y-119329309D01*
X165254596Y-119329309D01*
X165247911Y-119236215D01*
X165245115Y-119134310D01*
X165246451Y-119035542D01*
X165251584Y-118958097D01*
X165253237Y-118945412D01*
X165285846Y-118842055D01*
X165345392Y-118757901D01*
X165423867Y-118702287D01*
X165474990Y-118686774D01*
X165533811Y-118666731D01*
X165608523Y-118627254D01*
X165674311Y-118583096D01*
X165743029Y-118536930D01*
X165838489Y-118480380D01*
X165947502Y-118420957D01*
X166046006Y-118371371D01*
X166154696Y-118320104D01*
X166236587Y-118285197D01*
X166303808Y-118263037D01*
X166368487Y-118250008D01*
X166442756Y-118242496D01*
X166488103Y-118239632D01*
X166644951Y-118238325D01*
X166774245Y-118257090D01*
G37*
G36*
X166774245Y-121232456D02*
G01*
X166889163Y-121275384D01*
X167002883Y-121346566D01*
X167062590Y-121393351D01*
X167215566Y-121546039D01*
X167303204Y-121668331D01*
X167362646Y-121756264D01*
X167413709Y-121814280D01*
X167447626Y-121836133D01*
X167488580Y-121860062D01*
X167492318Y-121892169D01*
X167457975Y-121919058D01*
X167453095Y-121920731D01*
X167414774Y-121948513D01*
X167416344Y-121993162D01*
X167426556Y-122012387D01*
X167452710Y-122023532D01*
X167512103Y-122036859D01*
X167594371Y-122050899D01*
X167689149Y-122064180D01*
X167786074Y-122075229D01*
X167874783Y-122082577D01*
X167936723Y-122084813D01*
X167975250Y-122090519D01*
X167977135Y-122104710D01*
X167947555Y-122122995D01*
X167891685Y-122140985D01*
X167863302Y-122147083D01*
X167782694Y-122160301D01*
X167680217Y-122174460D01*
X167577577Y-122186567D01*
X167574219Y-122186920D01*
X167399993Y-122205141D01*
X167374599Y-122293423D01*
X167313791Y-122450329D01*
X167221093Y-122603405D01*
X167091994Y-122759774D01*
X167053960Y-122799747D01*
X166952059Y-122898811D01*
X166860892Y-122973326D01*
X166765863Y-123034417D01*
X166699277Y-123070090D01*
X166518993Y-123161502D01*
X166247672Y-123152849D01*
X166130114Y-123148268D01*
X166045327Y-123141976D01*
X166015474Y-123137239D01*
X165982331Y-123131981D01*
X165930142Y-123116294D01*
X165877777Y-123092923D01*
X165856024Y-123081859D01*
X165753697Y-123015766D01*
X165641451Y-122921949D01*
X165529941Y-122811304D01*
X165429824Y-122694722D01*
X165351757Y-122583098D01*
X165330089Y-122544245D01*
X165291661Y-122462005D01*
X165268054Y-122388919D01*
X165254738Y-122306653D01*
X165254596Y-122304675D01*
X165760142Y-122304675D01*
X165763175Y-122333618D01*
X165789565Y-122383675D01*
X165790001Y-122384415D01*
X165824064Y-122463863D01*
X165832482Y-122536224D01*
X165814966Y-122590421D01*
X165795860Y-122607552D01*
X165770224Y-122626293D01*
X165776260Y-122646907D01*
X165796697Y-122668803D01*
X165826136Y-122689452D01*
X165870858Y-122701621D01*
X165941218Y-122707170D01*
X166015474Y-122708108D01*
X166108439Y-122706351D01*
X166177024Y-122698360D01*
X166238948Y-122679648D01*
X166311932Y-122645730D01*
X166359211Y-122621083D01*
X166539993Y-122505229D01*
X166686449Y-122365365D01*
X166803854Y-122196087D01*
X166838414Y-122130212D01*
X166886729Y-122027184D01*
X166917642Y-121947336D01*
X166935392Y-121875819D01*
X166944219Y-121797785D01*
X166946631Y-121751178D01*
X166949909Y-121669137D01*
X166821393Y-121669137D01*
X166742728Y-121672374D01*
X166668637Y-121684172D01*
X166588633Y-121707662D01*
X166492232Y-121745973D01*
X166368950Y-121802236D01*
X166357652Y-121807587D01*
X166275781Y-121849946D01*
X166188039Y-121901005D01*
X166102771Y-121955161D01*
X166028322Y-122006811D01*
X165973036Y-122050352D01*
X165945257Y-122080180D01*
X165943535Y-122085661D01*
X165963479Y-122095320D01*
X166015830Y-122105995D01*
X166089360Y-122115410D01*
X166091209Y-122115594D01*
X166198163Y-122129940D01*
X166262220Y-122146978D01*
X166284089Y-122165744D01*
X166264476Y-122185276D01*
X166204089Y-122204613D01*
X166103633Y-122222792D01*
X166003510Y-122234975D01*
X165913054Y-122246951D01*
X165837114Y-122261797D01*
X165787942Y-122276939D01*
X165778874Y-122282192D01*
X165760142Y-122304675D01*
X165254596Y-122304675D01*
X165247911Y-122211581D01*
X165245115Y-122109676D01*
X165246451Y-122010908D01*
X165251584Y-121933463D01*
X165253237Y-121920778D01*
X165285846Y-121817421D01*
X165345392Y-121733267D01*
X165423867Y-121677653D01*
X165474990Y-121662140D01*
X165533811Y-121642097D01*
X165608523Y-121602620D01*
X165674311Y-121558462D01*
X165743029Y-121512296D01*
X165838489Y-121455746D01*
X165947502Y-121396323D01*
X166046006Y-121346737D01*
X166154696Y-121295470D01*
X166236587Y-121260563D01*
X166303808Y-121238403D01*
X166368487Y-121225374D01*
X166442756Y-121217862D01*
X166488103Y-121214998D01*
X166644951Y-121213691D01*
X166774245Y-121232456D01*
G37*
G36*
X165376615Y-123952989D02*
G01*
X165453800Y-123982960D01*
X165480972Y-123999636D01*
X165511901Y-124018659D01*
X165543978Y-124033212D01*
X165584024Y-124044299D01*
X165638861Y-124052921D01*
X165715310Y-124060083D01*
X165820192Y-124066788D01*
X165960330Y-124074039D01*
X166000098Y-124075978D01*
X166198245Y-124086930D01*
X166355179Y-124098698D01*
X166473441Y-124111589D01*
X166555571Y-124125909D01*
X166604108Y-124141965D01*
X166616184Y-124150342D01*
X166599011Y-124153934D01*
X166543899Y-124157138D01*
X166456662Y-124159808D01*
X166343116Y-124161797D01*
X166209074Y-124162955D01*
X166109742Y-124163194D01*
X165590448Y-124163194D01*
X165597439Y-124212419D01*
X165608487Y-124241590D01*
X165638240Y-124262971D01*
X165696479Y-124282032D01*
X165741166Y-124292820D01*
X165811429Y-124311500D01*
X165860769Y-124329698D01*
X165877902Y-124342586D01*
X165858114Y-124365799D01*
X165807088Y-124386246D01*
X165737325Y-124400095D01*
X165678140Y-124403849D01*
X165591030Y-124410190D01*
X165538567Y-124434154D01*
X165512850Y-124483150D01*
X165505981Y-124564586D01*
X165505981Y-124565310D01*
X165513274Y-124652197D01*
X165540957Y-124709629D01*
X165597736Y-124749567D01*
X165656920Y-124772671D01*
X165711155Y-124782689D01*
X165800894Y-124790072D01*
X165917964Y-124794827D01*
X166054194Y-124796964D01*
X166201410Y-124796489D01*
X166351441Y-124793412D01*
X166496115Y-124787740D01*
X166627260Y-124779481D01*
X166711469Y-124771633D01*
X166843771Y-124759622D01*
X166946190Y-124759112D01*
X167031708Y-124772829D01*
X167113307Y-124803496D01*
X167203971Y-124853837D01*
X167254075Y-124885502D01*
X167390800Y-124973872D01*
X167755583Y-124994262D01*
X167942853Y-125005589D01*
X168089382Y-125016487D01*
X168198175Y-125027316D01*
X168272239Y-125038440D01*
X168314579Y-125050218D01*
X168328202Y-125063014D01*
X168328203Y-125063153D01*
X168310710Y-125082605D01*
X168300856Y-125084909D01*
X168271237Y-125086535D01*
X168205203Y-125089350D01*
X168110070Y-125093068D01*
X167993152Y-125097404D01*
X167861765Y-125102073D01*
X167857833Y-125102210D01*
X167713151Y-125107771D01*
X167609468Y-125113094D01*
X167544031Y-125118456D01*
X167514088Y-125124137D01*
X167516884Y-125130416D01*
X167534739Y-125134907D01*
X167595951Y-125151392D01*
X167613653Y-125167701D01*
X167588091Y-125183221D01*
X167519508Y-125197338D01*
X167509307Y-125198784D01*
X167424295Y-125217541D01*
X167336150Y-125247248D01*
X167317280Y-125255383D01*
X167262924Y-125278322D01*
X167201412Y-125299633D01*
X167127498Y-125320467D01*
X167035937Y-125341975D01*
X166921483Y-125365306D01*
X166778890Y-125391612D01*
X166602913Y-125422043D01*
X166413905Y-125453539D01*
X166197232Y-125489576D01*
X166019165Y-125520099D01*
X165875040Y-125546101D01*
X165760196Y-125568572D01*
X165669968Y-125588506D01*
X165599694Y-125606895D01*
X165544711Y-125624730D01*
X165500355Y-125643003D01*
X165482476Y-125651707D01*
X165383531Y-125687634D01*
X165289027Y-125687204D01*
X165188754Y-125652616D01*
X165093401Y-125594936D01*
X165014792Y-125522807D01*
X164958327Y-125444144D01*
X164929408Y-125366862D01*
X164933432Y-125298873D01*
X164938963Y-125286527D01*
X164972632Y-125257002D01*
X165039572Y-125222481D01*
X165130153Y-125186565D01*
X165234745Y-125152855D01*
X165343715Y-125124952D01*
X165402062Y-125113380D01*
X165454620Y-125101682D01*
X165482664Y-125090515D01*
X165484103Y-125088247D01*
X165470107Y-125068752D01*
X165432329Y-125024713D01*
X165377090Y-124963342D01*
X165331082Y-124913575D01*
X165233489Y-124798823D01*
X165152734Y-124683850D01*
X165110149Y-124607426D01*
X165075751Y-124530887D01*
X165056196Y-124469403D01*
X165048198Y-124405414D01*
X165048473Y-124321358D01*
X165049863Y-124285182D01*
X165056453Y-124186075D01*
X165068397Y-124116709D01*
X165089042Y-124063120D01*
X165112182Y-124024975D01*
X165147902Y-123977693D01*
X165182274Y-123953870D01*
X165232214Y-123945505D01*
X165282204Y-123944566D01*
X165376615Y-123952989D01*
G37*
G36*
X165417138Y-108308374D02*
G01*
X165464655Y-108330316D01*
X165524371Y-108378508D01*
X165534914Y-108388134D01*
X165598393Y-108458212D01*
X165650393Y-108535964D01*
X165668046Y-108573102D01*
X165698119Y-108635560D01*
X165736924Y-108672574D01*
X165795907Y-108690497D01*
X165886511Y-108695684D01*
X165888841Y-108695702D01*
X165957366Y-108700764D01*
X166001880Y-108712629D01*
X166016331Y-108728021D01*
X165994667Y-108743664D01*
X165983670Y-108747026D01*
X165928723Y-108755911D01*
X165856781Y-108760734D01*
X165839616Y-108761000D01*
X165776646Y-108766051D01*
X165749276Y-108782398D01*
X165746636Y-108794116D01*
X165752854Y-108807536D01*
X165775747Y-108816821D01*
X165821672Y-108822673D01*
X165896983Y-108825795D01*
X166008039Y-108826892D01*
X166043276Y-108826932D01*
X166154087Y-108828276D01*
X166242969Y-108831997D01*
X166303151Y-108837632D01*
X166327864Y-108844717D01*
X166327855Y-108846447D01*
X166302581Y-108856179D01*
X166242683Y-108868249D01*
X166157121Y-108881121D01*
X166054919Y-108893251D01*
X165950967Y-108905198D01*
X165862041Y-108917419D01*
X165797731Y-108928462D01*
X165767879Y-108936712D01*
X165758685Y-108956060D01*
X165760732Y-108999870D01*
X165774807Y-109073778D01*
X165801694Y-109183418D01*
X165802965Y-109188312D01*
X165864215Y-109423741D01*
X166145407Y-109408896D01*
X166384248Y-109386134D01*
X166613487Y-109344856D01*
X166820710Y-109287644D01*
X166933013Y-109245161D01*
X166999672Y-109211049D01*
X167036346Y-109174208D01*
X167054158Y-109128927D01*
X167086243Y-109071090D01*
X167140922Y-109047188D01*
X167213685Y-109056806D01*
X167300022Y-109099529D01*
X167377424Y-109158658D01*
X167421116Y-109182368D01*
X167494218Y-109199564D01*
X167603651Y-109211842D01*
X167610852Y-109212405D01*
X167700089Y-109221094D01*
X167774150Y-109231663D01*
X167820938Y-109242263D01*
X167828729Y-109245701D01*
X167843758Y-109268295D01*
X167821262Y-109287983D01*
X167767468Y-109302075D01*
X167688606Y-109307883D01*
X167684634Y-109307906D01*
X167615924Y-109309407D01*
X167588421Y-109313397D01*
X167602528Y-109319941D01*
X167658648Y-109329104D01*
X167757187Y-109340950D01*
X167898548Y-109355545D01*
X168083135Y-109372953D01*
X168099012Y-109374399D01*
X168242304Y-109387793D01*
X168370476Y-109400479D01*
X168477286Y-109411782D01*
X168556490Y-109421027D01*
X168601847Y-109427537D01*
X168610135Y-109429737D01*
X168592102Y-109432487D01*
X168536214Y-109434939D01*
X168448370Y-109436977D01*
X168334471Y-109438487D01*
X168200415Y-109439354D01*
X168107603Y-109439518D01*
X167595300Y-109439529D01*
X167505765Y-109543498D01*
X167444695Y-109605980D01*
X167376785Y-109654554D01*
X167287036Y-109699161D01*
X167243233Y-109717484D01*
X166931535Y-109820275D01*
X166607737Y-109882091D01*
X166326394Y-109901498D01*
X166229343Y-109904249D01*
X166141651Y-109909308D01*
X166077930Y-109915747D01*
X166063862Y-109918183D01*
X165998229Y-109932250D01*
X165998229Y-110092331D01*
X165992669Y-110198114D01*
X165974146Y-110265165D01*
X165939901Y-110297303D01*
X165887170Y-110298344D01*
X165855718Y-110289353D01*
X165800302Y-110256721D01*
X165730061Y-110196194D01*
X165653812Y-110116693D01*
X165580372Y-110027142D01*
X165539072Y-109968911D01*
X165502516Y-109916400D01*
X165475903Y-109883156D01*
X165468300Y-109877061D01*
X165444456Y-109872403D01*
X165386182Y-109859647D01*
X165301663Y-109840621D01*
X165199084Y-109817150D01*
X165174355Y-109811445D01*
X165012064Y-109769566D01*
X164886416Y-109725899D01*
X164790346Y-109676562D01*
X164716791Y-109617671D01*
X164658688Y-109545342D01*
X164642325Y-109518929D01*
X164608465Y-109445168D01*
X164589914Y-109371854D01*
X164588551Y-109311625D01*
X164606255Y-109277119D01*
X164606371Y-109277047D01*
X164636921Y-109273820D01*
X164700363Y-109276616D01*
X164786412Y-109284353D01*
X164884785Y-109295950D01*
X164985198Y-109310326D01*
X165077367Y-109326398D01*
X165079366Y-109326790D01*
X165168016Y-109341627D01*
X165268914Y-109354847D01*
X165314551Y-109359521D01*
X165385175Y-109364903D01*
X165422653Y-109362289D01*
X165437405Y-109347735D01*
X165439853Y-109317299D01*
X165439812Y-109312130D01*
X165434918Y-109271661D01*
X165421723Y-109197095D01*
X165401891Y-109096942D01*
X165377085Y-108979709D01*
X165357770Y-108892565D01*
X165322913Y-108730648D01*
X165299905Y-108604863D01*
X165287887Y-108509473D01*
X165285997Y-108438743D01*
X165287204Y-108422195D01*
X165295591Y-108357167D01*
X165309352Y-108323825D01*
X165336840Y-108310198D01*
X165368306Y-108306021D01*
X165417138Y-108308374D01*
G37*
G36*
X165417138Y-115221724D02*
G01*
X165464655Y-115243666D01*
X165524371Y-115291859D01*
X165534914Y-115301485D01*
X165598393Y-115371562D01*
X165650393Y-115449315D01*
X165668046Y-115486452D01*
X165698119Y-115548911D01*
X165736924Y-115585924D01*
X165795907Y-115603847D01*
X165886511Y-115609034D01*
X165888841Y-115609053D01*
X165957366Y-115614115D01*
X166001880Y-115625979D01*
X166016331Y-115641371D01*
X165994667Y-115657015D01*
X165983670Y-115660377D01*
X165928723Y-115669261D01*
X165856781Y-115674085D01*
X165839616Y-115674351D01*
X165776646Y-115679402D01*
X165749276Y-115695748D01*
X165746636Y-115707466D01*
X165752854Y-115720886D01*
X165775747Y-115730171D01*
X165821672Y-115736023D01*
X165896983Y-115739146D01*
X166008039Y-115740243D01*
X166043276Y-115740283D01*
X166154087Y-115741626D01*
X166242969Y-115745348D01*
X166303151Y-115750983D01*
X166327864Y-115758068D01*
X166327855Y-115759797D01*
X166302581Y-115769529D01*
X166242683Y-115781600D01*
X166157121Y-115794472D01*
X166054919Y-115806602D01*
X165950967Y-115818549D01*
X165862041Y-115830770D01*
X165797731Y-115841812D01*
X165767879Y-115850063D01*
X165758685Y-115869410D01*
X165760732Y-115913221D01*
X165774807Y-115987129D01*
X165801694Y-116096769D01*
X165802965Y-116101663D01*
X165864215Y-116337091D01*
X166145407Y-116322247D01*
X166384248Y-116299485D01*
X166613487Y-116258207D01*
X166820710Y-116200994D01*
X166933013Y-116158512D01*
X166999672Y-116124400D01*
X167036346Y-116087558D01*
X167054158Y-116042277D01*
X167086243Y-115984440D01*
X167140922Y-115960538D01*
X167213685Y-115970156D01*
X167300022Y-116012879D01*
X167377424Y-116072008D01*
X167421116Y-116095718D01*
X167494218Y-116112915D01*
X167603651Y-116125192D01*
X167610852Y-116125756D01*
X167700089Y-116134445D01*
X167774150Y-116145014D01*
X167820938Y-116155614D01*
X167828729Y-116159051D01*
X167843758Y-116181646D01*
X167821262Y-116201334D01*
X167767468Y-116215426D01*
X167688606Y-116221234D01*
X167684634Y-116221257D01*
X167615924Y-116222758D01*
X167588421Y-116226748D01*
X167602528Y-116233292D01*
X167658648Y-116242454D01*
X167757187Y-116254301D01*
X167898548Y-116268896D01*
X168083135Y-116286304D01*
X168099012Y-116287750D01*
X168242304Y-116301143D01*
X168370476Y-116313829D01*
X168477286Y-116325133D01*
X168556490Y-116334377D01*
X168601847Y-116340887D01*
X168610135Y-116343088D01*
X168592102Y-116345838D01*
X168536214Y-116348289D01*
X168448370Y-116350328D01*
X168334471Y-116351838D01*
X168200415Y-116352704D01*
X168107603Y-116352869D01*
X167595300Y-116352879D01*
X167505765Y-116456849D01*
X167444695Y-116519330D01*
X167376785Y-116567905D01*
X167287036Y-116612511D01*
X167243233Y-116630835D01*
X166931535Y-116733625D01*
X166607737Y-116795441D01*
X166326394Y-116814848D01*
X166229343Y-116817600D01*
X166141651Y-116822659D01*
X166077930Y-116829097D01*
X166063862Y-116831533D01*
X165998229Y-116845600D01*
X165998229Y-117005681D01*
X165992669Y-117111465D01*
X165974146Y-117178516D01*
X165939901Y-117210653D01*
X165887170Y-117211695D01*
X165855718Y-117202703D01*
X165800302Y-117170072D01*
X165730061Y-117109544D01*
X165653812Y-117030044D01*
X165580372Y-116940492D01*
X165539072Y-116882261D01*
X165502516Y-116829751D01*
X165475903Y-116796507D01*
X165468300Y-116790412D01*
X165444456Y-116785754D01*
X165386182Y-116772998D01*
X165301663Y-116753971D01*
X165199084Y-116730501D01*
X165174355Y-116724795D01*
X165012064Y-116682916D01*
X164886416Y-116639250D01*
X164790346Y-116589913D01*
X164716791Y-116531021D01*
X164658688Y-116458692D01*
X164642325Y-116432279D01*
X164608465Y-116358518D01*
X164589914Y-116285204D01*
X164588551Y-116224976D01*
X164606255Y-116190469D01*
X164606371Y-116190398D01*
X164636921Y-116187171D01*
X164700363Y-116189967D01*
X164786412Y-116197704D01*
X164884785Y-116209301D01*
X164985198Y-116223676D01*
X165077367Y-116239748D01*
X165079366Y-116240141D01*
X165168016Y-116254977D01*
X165268914Y-116268197D01*
X165314551Y-116272871D01*
X165385175Y-116278254D01*
X165422653Y-116275640D01*
X165437405Y-116261086D01*
X165439853Y-116230650D01*
X165439812Y-116225481D01*
X165434918Y-116185011D01*
X165421723Y-116110446D01*
X165401891Y-116010292D01*
X165377085Y-115893060D01*
X165357770Y-115805916D01*
X165322913Y-115643998D01*
X165299905Y-115518213D01*
X165287887Y-115422824D01*
X165285997Y-115352093D01*
X165287204Y-115335545D01*
X165295591Y-115270518D01*
X165309352Y-115237175D01*
X165336840Y-115223548D01*
X165368306Y-115219371D01*
X165417138Y-115221724D01*
G37*
G36*
X165685091Y-103958529D02*
G01*
X165816647Y-104030275D01*
X165886596Y-104083153D01*
X165968642Y-104166915D01*
X166050200Y-104277248D01*
X166120855Y-104398107D01*
X166170194Y-104513449D01*
X166174244Y-104526345D01*
X166209835Y-104686565D01*
X166232118Y-104880674D01*
X166240598Y-105100729D01*
X166234785Y-105338783D01*
X166229628Y-105420189D01*
X166221986Y-105535477D01*
X166216874Y-105634654D01*
X166214581Y-105709850D01*
X166215399Y-105753197D01*
X166217043Y-105760446D01*
X166240979Y-105757549D01*
X166292994Y-105739087D01*
X166362004Y-105709014D01*
X166364606Y-105707793D01*
X166495097Y-105630745D01*
X166626270Y-105525895D01*
X166747026Y-105404183D01*
X166846266Y-105276549D01*
X166902847Y-105177228D01*
X166968184Y-105004251D01*
X167004511Y-104835807D01*
X167009615Y-104682758D01*
X167007620Y-104662385D01*
X166995754Y-104586842D01*
X166975748Y-104538234D01*
X166939029Y-104510678D01*
X166877021Y-104498288D01*
X166781149Y-104495179D01*
X166763941Y-104495149D01*
X166630692Y-104489063D01*
X166528724Y-104468288D01*
X166446945Y-104429050D01*
X166374264Y-104367575D01*
X166367130Y-104360124D01*
X166289894Y-104265242D01*
X166249374Y-104184230D01*
X166246607Y-104119487D01*
X166254901Y-104100868D01*
X166285696Y-104066676D01*
X166333123Y-104044007D01*
X166404946Y-104030998D01*
X166508932Y-104025784D01*
X166568949Y-104025488D01*
X166667644Y-104028313D01*
X166741928Y-104038694D01*
X166811022Y-104060901D01*
X166888637Y-104096480D01*
X166995176Y-104161432D01*
X167105742Y-104250039D01*
X167211055Y-104352732D01*
X167301835Y-104459943D01*
X167368805Y-104562104D01*
X167393850Y-104617430D01*
X167429809Y-104712069D01*
X167463215Y-104772276D01*
X167503320Y-104805752D01*
X167559374Y-104820197D01*
X167640627Y-104823314D01*
X167641159Y-104823315D01*
X167729311Y-104825776D01*
X167833778Y-104832420D01*
X167944256Y-104842135D01*
X168050441Y-104853807D01*
X168142029Y-104866326D01*
X168208717Y-104878579D01*
X168237670Y-104887691D01*
X168254539Y-104908458D01*
X168244976Y-104919117D01*
X168215323Y-104925604D01*
X168151075Y-104932979D01*
X168061357Y-104940383D01*
X167955294Y-104946955D01*
X167942740Y-104947605D01*
X167663716Y-104961746D01*
X167765398Y-104991395D01*
X167829253Y-105014590D01*
X167855222Y-105037410D01*
X167854646Y-105053446D01*
X167837243Y-105070498D01*
X167795966Y-105080719D01*
X167723144Y-105085427D01*
X167664062Y-105086149D01*
X167485912Y-105086451D01*
X167414362Y-105328980D01*
X167371467Y-105462583D01*
X167328811Y-105566935D01*
X167280112Y-105656051D01*
X167242921Y-105711493D01*
X167092967Y-105887423D01*
X166916127Y-106036164D01*
X166720038Y-106152343D01*
X166512339Y-106230589D01*
X166500272Y-106233804D01*
X166389491Y-106253482D01*
X166252652Y-106264300D01*
X166106613Y-106265931D01*
X165968232Y-106258045D01*
X165880624Y-106245881D01*
X165771096Y-106214689D01*
X165691214Y-106181533D01*
X165645251Y-106162456D01*
X165514980Y-106095772D01*
X165392172Y-106021230D01*
X165288716Y-105945424D01*
X165220576Y-105879905D01*
X165128574Y-105755394D01*
X165041314Y-105610796D01*
X164977897Y-105481394D01*
X164949867Y-105410996D01*
X164931832Y-105348995D01*
X164927809Y-105322554D01*
X165374715Y-105322554D01*
X165378889Y-105457849D01*
X165394045Y-105558548D01*
X165424135Y-105633241D01*
X165473111Y-105690516D01*
X165544925Y-105738966D01*
X165573153Y-105753896D01*
X165634126Y-105783794D01*
X165677832Y-105803372D01*
X165691214Y-105807811D01*
X165697705Y-105787970D01*
X165702513Y-105736589D01*
X165704285Y-105682014D01*
X165710620Y-105585690D01*
X165725236Y-105478911D01*
X165735904Y-105424951D01*
X165744492Y-105366687D01*
X165751462Y-105278667D01*
X165756773Y-105168735D01*
X165760386Y-105044735D01*
X165762260Y-104914510D01*
X165762355Y-104785904D01*
X165760631Y-104666762D01*
X165757049Y-104564926D01*
X165751567Y-104488241D01*
X165744147Y-104444550D01*
X165740938Y-104438352D01*
X165715452Y-104440395D01*
X165674330Y-104470506D01*
X165625961Y-104520184D01*
X165578736Y-104580929D01*
X165544497Y-104637354D01*
X165516254Y-104699643D01*
X165481229Y-104787292D01*
X165445872Y-104883956D01*
X165437112Y-104909460D01*
X165406460Y-105007628D01*
X165387639Y-105092290D01*
X165377978Y-105181125D01*
X165374807Y-105291810D01*
X165374715Y-105322554D01*
X164927809Y-105322554D01*
X164921624Y-105281904D01*
X164917073Y-105196238D01*
X164916028Y-105096786D01*
X164929173Y-104852255D01*
X164971592Y-104629059D01*
X165046344Y-104413500D01*
X165089742Y-104318613D01*
X165142277Y-104214553D01*
X165185638Y-104140063D01*
X165227894Y-104084498D01*
X165277111Y-104037210D01*
X165339711Y-103988759D01*
X165444535Y-103937411D01*
X165560357Y-103927454D01*
X165685091Y-103958529D01*
G37*
G36*
X167169920Y-112682460D02*
G01*
X167204069Y-112700870D01*
X167300096Y-112782485D01*
X167378651Y-112892946D01*
X167408438Y-112956202D01*
X167438112Y-113007486D01*
X167485914Y-113037690D01*
X167526792Y-113050279D01*
X167649813Y-113082391D01*
X167778014Y-113116962D01*
X167903575Y-113151762D01*
X168018681Y-113184561D01*
X168115513Y-113213128D01*
X168186253Y-113235234D01*
X168223084Y-113248649D01*
X168224284Y-113249255D01*
X168257855Y-113270939D01*
X168258083Y-113283055D01*
X168223168Y-113285505D01*
X168151308Y-113278189D01*
X168040701Y-113261010D01*
X167889546Y-113233867D01*
X167867245Y-113229681D01*
X167726070Y-113203425D01*
X167620933Y-113185107D01*
X167544961Y-113174100D01*
X167491281Y-113169778D01*
X167453023Y-113171516D01*
X167423314Y-113178687D01*
X167402344Y-113187330D01*
X167339803Y-113214024D01*
X167286108Y-113233522D01*
X167285519Y-113233701D01*
X167238314Y-113256592D01*
X167205062Y-113287349D01*
X167194585Y-113315360D01*
X167206971Y-113328179D01*
X167233278Y-113346976D01*
X167220156Y-113367721D01*
X167171417Y-113384603D01*
X167112278Y-113414848D01*
X167045045Y-113478933D01*
X166974697Y-113568938D01*
X166906212Y-113676947D01*
X166844568Y-113795040D01*
X166794743Y-113915301D01*
X166761717Y-114029810D01*
X166759791Y-114039292D01*
X166756498Y-114077229D01*
X166770036Y-114095791D01*
X166807399Y-114096181D01*
X166875583Y-114079599D01*
X166919084Y-114066645D01*
X167002388Y-114044562D01*
X167102172Y-114022737D01*
X167165788Y-114011120D01*
X167246519Y-114000846D01*
X167307848Y-114004021D01*
X167359887Y-114025754D01*
X167412752Y-114071156D01*
X167476554Y-114145338D01*
X167506787Y-114183430D01*
X167562072Y-114251023D01*
X167605439Y-114292361D01*
X167650622Y-114316638D01*
X167711358Y-114333043D01*
X167738678Y-114338596D01*
X167807203Y-114355437D01*
X167854335Y-114373444D01*
X167868772Y-114386441D01*
X167851884Y-114399906D01*
X167830486Y-114397445D01*
X167724667Y-114372521D01*
X167655221Y-114370742D01*
X167621395Y-114392099D01*
X167620162Y-114394917D01*
X167613100Y-114434618D01*
X167616340Y-114448143D01*
X167641346Y-114456981D01*
X167699522Y-114466552D01*
X167780341Y-114475292D01*
X167820343Y-114478469D01*
X167911319Y-114488215D01*
X167997887Y-114503129D01*
X168072925Y-114521060D01*
X168129315Y-114539857D01*
X168159933Y-114557370D01*
X168157662Y-114571449D01*
X168143764Y-114576146D01*
X168101641Y-114577599D01*
X168031490Y-114572475D01*
X167948358Y-114561880D01*
X167946864Y-114561651D01*
X167767314Y-114543475D01*
X167581347Y-114541298D01*
X167406533Y-114554800D01*
X167299952Y-114573467D01*
X167219787Y-114590614D01*
X167151718Y-114602916D01*
X167113991Y-114607433D01*
X167073417Y-114611365D01*
X167002297Y-114620788D01*
X166913244Y-114633981D01*
X166873337Y-114640263D01*
X166765822Y-114660261D01*
X166691915Y-114681575D01*
X166641518Y-114707581D01*
X166620546Y-114724742D01*
X166562373Y-114767650D01*
X166509884Y-114772883D01*
X166449038Y-114741820D01*
X166448773Y-114741634D01*
X166428082Y-114730656D01*
X166397549Y-114721996D01*
X166352035Y-114715334D01*
X166286404Y-114710348D01*
X166195518Y-114706717D01*
X166074238Y-114704120D01*
X165917428Y-114702235D01*
X165803982Y-114701311D01*
X165621009Y-114699660D01*
X165475274Y-114697371D01*
X165360261Y-114694019D01*
X165269453Y-114689176D01*
X165196334Y-114682419D01*
X165134388Y-114673321D01*
X165077097Y-114661455D01*
X165035611Y-114651101D01*
X164931964Y-114625028D01*
X164824601Y-114599804D01*
X164735800Y-114580653D01*
X164731522Y-114579805D01*
X164617869Y-114542579D01*
X164528742Y-114477180D01*
X164456559Y-114377258D01*
X164432113Y-114329172D01*
X164398213Y-114231289D01*
X164398653Y-114158534D01*
X164432426Y-114112552D01*
X164498525Y-114094987D01*
X164571244Y-114101945D01*
X164717114Y-114130222D01*
X164838309Y-114151684D01*
X164945239Y-114167278D01*
X165048318Y-114177950D01*
X165157956Y-114184645D01*
X165284566Y-114188309D01*
X165438559Y-114189888D01*
X165542977Y-114190218D01*
X165688371Y-114189889D01*
X165819498Y-114188461D01*
X165929901Y-114186097D01*
X166013124Y-114182960D01*
X166062711Y-114179211D01*
X166073431Y-114176875D01*
X166077871Y-114150401D01*
X166059386Y-114097637D01*
X166022908Y-114026031D01*
X165973370Y-113943036D01*
X165915705Y-113856102D01*
X165854844Y-113772678D01*
X165795720Y-113700215D01*
X165743267Y-113646164D01*
X165703776Y-113618518D01*
X165648412Y-113580101D01*
X165588920Y-113506975D01*
X165550156Y-113445611D01*
X165507115Y-113370702D01*
X165483692Y-113319830D01*
X165476536Y-113279790D01*
X165482295Y-113237377D01*
X165489839Y-113207940D01*
X165512554Y-113147920D01*
X165543999Y-113119453D01*
X165590890Y-113121862D01*
X165659941Y-113154470D01*
X165710793Y-113185671D01*
X165783944Y-113236525D01*
X165850907Y-113293128D01*
X165918338Y-113362585D01*
X165992891Y-113452004D01*
X166081220Y-113568491D01*
X166123290Y-113626176D01*
X166189286Y-113716315D01*
X166235217Y-113775177D01*
X166265978Y-113807422D01*
X166286463Y-113817713D01*
X166301566Y-113810711D01*
X166308407Y-113802486D01*
X166331726Y-113761350D01*
X166337333Y-113740379D01*
X166345563Y-113692983D01*
X166367112Y-113618799D01*
X166397272Y-113530907D01*
X166431331Y-113442386D01*
X166464581Y-113366318D01*
X166487694Y-113322798D01*
X166581399Y-113174563D01*
X166658241Y-113058409D01*
X166722893Y-112968327D01*
X166780026Y-112898310D01*
X166834311Y-112842348D01*
X166890421Y-112794434D01*
X166910398Y-112779168D01*
X166999777Y-112716269D01*
X167066601Y-112680844D01*
X167120205Y-112670404D01*
X167169920Y-112682460D01*
G37*
G36*
X167072790Y-100203233D02*
G01*
X167118083Y-100214316D01*
X167180583Y-100235204D01*
X167235718Y-100266762D01*
X167292033Y-100316050D01*
X167358072Y-100390127D01*
X167412093Y-100457246D01*
X167457612Y-100537943D01*
X167497461Y-100652891D01*
X167529211Y-100792703D01*
X167550436Y-100947995D01*
X167555361Y-101011127D01*
X167569077Y-101235373D01*
X167746271Y-101238233D01*
X167832182Y-101240780D01*
X167925814Y-101245413D01*
X168018981Y-101251454D01*
X168103496Y-101258228D01*
X168171175Y-101265059D01*
X168213829Y-101271271D01*
X168223275Y-101276189D01*
X168218815Y-101277248D01*
X168180736Y-101280799D01*
X168114216Y-101284878D01*
X168043793Y-101288166D01*
X167951253Y-101293143D01*
X167837630Y-101301022D01*
X167725368Y-101310228D01*
X167710158Y-101311614D01*
X167617099Y-101321411D01*
X167559656Y-101331395D01*
X167529746Y-101344005D01*
X167519289Y-101361677D01*
X167518729Y-101369344D01*
X167538237Y-101407001D01*
X167590171Y-101445813D01*
X167599087Y-101450575D01*
X167679445Y-101491802D01*
X167579500Y-101506789D01*
X167503390Y-101526669D01*
X167468924Y-101557045D01*
X167468238Y-101559066D01*
X167393906Y-101760174D01*
X167293978Y-101950294D01*
X167227673Y-102052815D01*
X167143133Y-102168249D01*
X167062292Y-102258579D01*
X166971135Y-102338709D01*
X166927212Y-102372306D01*
X166790049Y-102462444D01*
X166664004Y-102517977D01*
X166538191Y-102542118D01*
X166401725Y-102538082D01*
X166376789Y-102534840D01*
X166320221Y-102526791D01*
X166238884Y-102515218D01*
X166245753Y-102444116D01*
X166247201Y-102395846D01*
X166241547Y-102373245D01*
X166240598Y-102373013D01*
X166225397Y-102390981D01*
X166197340Y-102437981D01*
X166164116Y-102500705D01*
X166077080Y-102634468D01*
X165967013Y-102742733D01*
X165882703Y-102797145D01*
X165836126Y-102816247D01*
X165759603Y-102842407D01*
X165665501Y-102871538D01*
X165604057Y-102889215D01*
X165442350Y-102925915D01*
X165416368Y-102931812D01*
X165245903Y-102951095D01*
X165098515Y-102946925D01*
X164980061Y-102919164D01*
X164948100Y-102904688D01*
X164834332Y-102826124D01*
X164753644Y-102725491D01*
X164703040Y-102597830D01*
X164681333Y-102463042D01*
X164683863Y-102271116D01*
X164719501Y-102062728D01*
X164728152Y-102033909D01*
X165087570Y-102033909D01*
X165095634Y-102153856D01*
X165122042Y-102238792D01*
X165170118Y-102294803D01*
X165243189Y-102327977D01*
X165249064Y-102329534D01*
X165313660Y-102346638D01*
X165362944Y-102360679D01*
X165372584Y-102363749D01*
X165442350Y-102364557D01*
X165522519Y-102323343D01*
X165612567Y-102240455D01*
X165676729Y-102163638D01*
X165766556Y-102046822D01*
X165792254Y-102012947D01*
X166269626Y-102012947D01*
X166272812Y-102034596D01*
X166320221Y-102039060D01*
X166395240Y-102012471D01*
X166495662Y-101955800D01*
X166577988Y-101900111D01*
X166750927Y-101750168D01*
X166894380Y-101568830D01*
X166997938Y-101377578D01*
X167024428Y-101308081D01*
X167052467Y-101218904D01*
X167079591Y-101120235D01*
X167103334Y-101022262D01*
X167121231Y-100935175D01*
X167130816Y-100869161D01*
X167129625Y-100834410D01*
X167129451Y-100834059D01*
X167110323Y-100838275D01*
X167069911Y-100867487D01*
X167021996Y-100910631D01*
X166955252Y-100981553D01*
X166877913Y-101073732D01*
X166793400Y-101182036D01*
X166705135Y-101301330D01*
X166616539Y-101426482D01*
X166531034Y-101552359D01*
X166452042Y-101673826D01*
X166382983Y-101785752D01*
X166327280Y-101883003D01*
X166288354Y-101960446D01*
X166269626Y-102012947D01*
X165792254Y-102012947D01*
X165832486Y-101959912D01*
X165877726Y-101898464D01*
X165905487Y-101858036D01*
X165918976Y-101834184D01*
X165921657Y-101824471D01*
X165902392Y-101811119D01*
X165854603Y-101798564D01*
X165839616Y-101796107D01*
X165787016Y-101788124D01*
X165702393Y-101774908D01*
X165596915Y-101758217D01*
X165481752Y-101739809D01*
X165467932Y-101737588D01*
X165345054Y-101719080D01*
X165248433Y-101707005D01*
X165181108Y-101701394D01*
X165146118Y-101702279D01*
X165146504Y-101709692D01*
X165185304Y-101723667D01*
X165227601Y-101735042D01*
X165287496Y-101754140D01*
X165324803Y-101773767D01*
X165330959Y-101782630D01*
X165313239Y-101798952D01*
X165273525Y-101803629D01*
X165231985Y-101796716D01*
X165210632Y-101782315D01*
X165182551Y-101760311D01*
X165153204Y-101775147D01*
X165125859Y-101820143D01*
X165103784Y-101888620D01*
X165090246Y-101973897D01*
X165087570Y-102033909D01*
X164728152Y-102033909D01*
X164784745Y-101845382D01*
X164876092Y-101626581D01*
X164990041Y-101413827D01*
X165123088Y-101214622D01*
X165271731Y-101036470D01*
X165407531Y-100907360D01*
X165486223Y-100847817D01*
X165571788Y-100793855D01*
X165657493Y-100748233D01*
X165736605Y-100713710D01*
X165802391Y-100693045D01*
X165848117Y-100688998D01*
X165867052Y-100704328D01*
X165864356Y-100720151D01*
X165873860Y-100751694D01*
X165926870Y-100783078D01*
X165927340Y-100783274D01*
X165993487Y-100826748D01*
X166046284Y-100890525D01*
X166082304Y-100964492D01*
X166098118Y-101038533D01*
X166090295Y-101102531D01*
X166055408Y-101146373D01*
X166051236Y-101148765D01*
X165973921Y-101169675D01*
X165864313Y-101168871D01*
X165785258Y-101157847D01*
X165737091Y-101152320D01*
X165699696Y-101160882D01*
X165659224Y-101189868D01*
X165608879Y-101238488D01*
X165547533Y-101296397D01*
X165465826Y-101368366D01*
X165378138Y-101441850D01*
X165347176Y-101466816D01*
X165180146Y-101599808D01*
X165512762Y-101660875D01*
X165630836Y-101681577D01*
X165735970Y-101698189D01*
X165819613Y-101709500D01*
X165873213Y-101714295D01*
X165886222Y-101713842D01*
X165920877Y-101689032D01*
X165964965Y-101631739D01*
X166013610Y-101550828D01*
X166061933Y-101455166D01*
X166105055Y-101353618D01*
X166137510Y-101257141D01*
X166189573Y-101121181D01*
X166270582Y-100968818D01*
X166373737Y-100808879D01*
X166492236Y-100650192D01*
X166619278Y-100501585D01*
X166748061Y-100371884D01*
X166871785Y-100269917D01*
X166925305Y-100234650D01*
X166977615Y-100206462D01*
X167020192Y-100196684D01*
X167072790Y-100203233D01*
G37*
%TO.C,G34434*%
G36*
X148957332Y-102748508D02*
G01*
X149751057Y-102925109D01*
X150180295Y-103125261D01*
X150609533Y-103325413D01*
X150847999Y-103503317D01*
X151086465Y-103681222D01*
X152340113Y-103861846D01*
X152553599Y-103892627D01*
X152742418Y-103919932D01*
X152908879Y-103944150D01*
X153055294Y-103965668D01*
X153183972Y-103984873D01*
X153297223Y-104002152D01*
X153397360Y-104017892D01*
X153486691Y-104032481D01*
X153567527Y-104046307D01*
X153642180Y-104059755D01*
X153712958Y-104073215D01*
X153782173Y-104087072D01*
X153852135Y-104101714D01*
X153925154Y-104117529D01*
X154003541Y-104134904D01*
X154089606Y-104154226D01*
X154104759Y-104157640D01*
X154229102Y-104185870D01*
X154338449Y-104211285D01*
X154437166Y-104235096D01*
X154529618Y-104258519D01*
X154620170Y-104282765D01*
X154713189Y-104309050D01*
X154813039Y-104338585D01*
X154924087Y-104372585D01*
X155050699Y-104412262D01*
X155197239Y-104458831D01*
X155256207Y-104477674D01*
X155896658Y-104682539D01*
X156441722Y-104941877D01*
X156986787Y-105201215D01*
X157367967Y-105523501D01*
X157749148Y-105845788D01*
X157868403Y-106113166D01*
X157987659Y-106380544D01*
X157988001Y-106516525D01*
X157987505Y-106577576D01*
X157984459Y-106624627D01*
X157977065Y-106666552D01*
X157963520Y-106712224D01*
X157942026Y-106770516D01*
X157930429Y-106800298D01*
X157872516Y-106948089D01*
X157633719Y-107216194D01*
X157394922Y-107484299D01*
X157020522Y-107726702D01*
X156927958Y-107786460D01*
X156840767Y-107842424D01*
X156762091Y-107892602D01*
X156695073Y-107935001D01*
X156642857Y-107967629D01*
X156608585Y-107988493D01*
X156598428Y-107994283D01*
X156578146Y-108002761D01*
X156534235Y-108019491D01*
X156468787Y-108043718D01*
X156383896Y-108074688D01*
X156281654Y-108111649D01*
X156164155Y-108153847D01*
X156033492Y-108200527D01*
X155891758Y-108250936D01*
X155741047Y-108304320D01*
X155583450Y-108359926D01*
X155562806Y-108367194D01*
X154574877Y-108714928D01*
X154241025Y-108764862D01*
X154146343Y-108779215D01*
X154058514Y-108792890D01*
X153981818Y-108805191D01*
X153920538Y-108815424D01*
X153878955Y-108822893D01*
X153863888Y-108826096D01*
X153834530Y-108839146D01*
X153790998Y-108864984D01*
X153740309Y-108899260D01*
X153710250Y-108921401D01*
X153666411Y-108955281D01*
X153633699Y-108983264D01*
X153607825Y-109010950D01*
X153584502Y-109043938D01*
X153559444Y-109087830D01*
X153528361Y-109148226D01*
X153512694Y-109179430D01*
X153425490Y-109353454D01*
X153222493Y-109469136D01*
X153145972Y-109512320D01*
X153086795Y-109544130D01*
X153038859Y-109567081D01*
X152996058Y-109583688D01*
X152952290Y-109596467D01*
X152901450Y-109607932D01*
X152870576Y-109614134D01*
X152721658Y-109643448D01*
X152484381Y-109583460D01*
X152247104Y-109523471D01*
X152073987Y-109350739D01*
X151900870Y-109178006D01*
X151005827Y-109293653D01*
X150852850Y-109313484D01*
X150707983Y-109332388D01*
X150573467Y-109350065D01*
X150451539Y-109366215D01*
X150344441Y-109380538D01*
X150254411Y-109392733D01*
X150183688Y-109402501D01*
X150134513Y-109409541D01*
X150109124Y-109413552D01*
X150106056Y-109414289D01*
X150108857Y-109427727D01*
X150117702Y-109466964D01*
X150132419Y-109531262D01*
X150152837Y-109619885D01*
X150178782Y-109732095D01*
X150210085Y-109867158D01*
X150246572Y-110024335D01*
X150288071Y-110202890D01*
X150334412Y-110402086D01*
X150385421Y-110621187D01*
X150440927Y-110859456D01*
X150500759Y-111116156D01*
X150564743Y-111390551D01*
X150632710Y-111681903D01*
X150704485Y-111989477D01*
X150779898Y-112312535D01*
X150858777Y-112650341D01*
X150940950Y-113002158D01*
X151026245Y-113367249D01*
X151114489Y-113744879D01*
X151205512Y-114134309D01*
X151299141Y-114534803D01*
X151395205Y-114945625D01*
X151493531Y-115366038D01*
X151593948Y-115795305D01*
X151696283Y-116232689D01*
X151800365Y-116677454D01*
X151906022Y-117128864D01*
X151909932Y-117145565D01*
X152015650Y-117597245D01*
X152119797Y-118042324D01*
X152222202Y-118480065D01*
X152322693Y-118909731D01*
X152421097Y-119330584D01*
X152517243Y-119741888D01*
X152610958Y-120142904D01*
X152702072Y-120532895D01*
X152790412Y-120911125D01*
X152875807Y-121276855D01*
X152958084Y-121629348D01*
X153037071Y-121967868D01*
X153112597Y-122291676D01*
X153184490Y-122600035D01*
X153252578Y-122892209D01*
X153316689Y-123167459D01*
X153376652Y-123425048D01*
X153432293Y-123664239D01*
X153483443Y-123884294D01*
X153529928Y-124084477D01*
X153571576Y-124264049D01*
X153608217Y-124422274D01*
X153639677Y-124558415D01*
X153665786Y-124671733D01*
X153686371Y-124761491D01*
X153701260Y-124826953D01*
X153710282Y-124867380D01*
X153713264Y-124882036D01*
X153713257Y-124882073D01*
X153699409Y-124882823D01*
X153659347Y-124883545D01*
X153594113Y-124884237D01*
X153504747Y-124884900D01*
X153392289Y-124885534D01*
X153257780Y-124886138D01*
X153102259Y-124886714D01*
X152926768Y-124887260D01*
X152732345Y-124887777D01*
X152520033Y-124888265D01*
X152290871Y-124888723D01*
X152045899Y-124889152D01*
X151786158Y-124889552D01*
X151512688Y-124889923D01*
X151226529Y-124890265D01*
X150928722Y-124890577D01*
X150620308Y-124890861D01*
X150302325Y-124891115D01*
X149975816Y-124891340D01*
X149641819Y-124891535D01*
X149301376Y-124891702D01*
X148955527Y-124891839D01*
X148605312Y-124891947D01*
X148251771Y-124892026D01*
X147895945Y-124892075D01*
X147538874Y-124892095D01*
X147181598Y-124892087D01*
X146825158Y-124892048D01*
X146470594Y-124891981D01*
X146118947Y-124891885D01*
X145771256Y-124891759D01*
X145428562Y-124891604D01*
X145091906Y-124891420D01*
X144762327Y-124891207D01*
X144440867Y-124890964D01*
X144128564Y-124890692D01*
X143826461Y-124890391D01*
X143535596Y-124890061D01*
X143257011Y-124889702D01*
X142991746Y-124889313D01*
X142740840Y-124888895D01*
X142505335Y-124888448D01*
X142286271Y-124887972D01*
X142084688Y-124887467D01*
X141901626Y-124886932D01*
X141738125Y-124886368D01*
X141595227Y-124885775D01*
X141473971Y-124885153D01*
X141375398Y-124884501D01*
X141300547Y-124883821D01*
X141250460Y-124883111D01*
X141226177Y-124882371D01*
X141223924Y-124882073D01*
X141226692Y-124868327D01*
X141235505Y-124828784D01*
X141250192Y-124764181D01*
X141270581Y-124675255D01*
X141296499Y-124562744D01*
X141327775Y-124427386D01*
X141364238Y-124269917D01*
X141405714Y-124091074D01*
X141452032Y-123891596D01*
X141503021Y-123672220D01*
X141558509Y-123433682D01*
X141618323Y-123176721D01*
X141682292Y-122902073D01*
X141750244Y-122610476D01*
X141822007Y-122302667D01*
X141897409Y-121979384D01*
X141976278Y-121641364D01*
X142058443Y-121289345D01*
X142143731Y-120924063D01*
X142231971Y-120546256D01*
X142322991Y-120156661D01*
X142416619Y-119756016D01*
X142512683Y-119345058D01*
X142611011Y-118924525D01*
X142711432Y-118495153D01*
X142813773Y-118057681D01*
X142917863Y-117612845D01*
X143023529Y-117161382D01*
X143027232Y-117145565D01*
X143132944Y-116693926D01*
X143237087Y-116248903D01*
X143339490Y-115811235D01*
X143439980Y-115381656D01*
X143538387Y-114960905D01*
X143634537Y-114549718D01*
X143728259Y-114148831D01*
X143819381Y-113758981D01*
X143907731Y-113380906D01*
X143926124Y-113302178D01*
X144092864Y-113302178D01*
X144093092Y-113336385D01*
X144099498Y-113375685D01*
X144112297Y-113429906D01*
X144115139Y-113441374D01*
X144145005Y-113561767D01*
X145311446Y-114728887D01*
X146477887Y-115896006D01*
X146448619Y-116012701D01*
X146444155Y-116030818D01*
X146440171Y-116048638D01*
X146436638Y-116067734D01*
X146433530Y-116089678D01*
X146430821Y-116116039D01*
X146428484Y-116148390D01*
X146426492Y-116188301D01*
X146424817Y-116237345D01*
X146423433Y-116297092D01*
X146422314Y-116369114D01*
X146421432Y-116454982D01*
X146420761Y-116556267D01*
X146420273Y-116674541D01*
X146419943Y-116811375D01*
X146419742Y-116968341D01*
X146419645Y-117147009D01*
X146419624Y-117348951D01*
X146419653Y-117575738D01*
X146419679Y-117707170D01*
X146420007Y-119284943D01*
X146478367Y-119544989D01*
X146536727Y-119805036D01*
X145949788Y-120832704D01*
X145846220Y-121014138D01*
X145755370Y-121173564D01*
X145676366Y-121312596D01*
X145608337Y-121432851D01*
X145550412Y-121535945D01*
X145501720Y-121623492D01*
X145461389Y-121697108D01*
X145428550Y-121758409D01*
X145402330Y-121809010D01*
X145381859Y-121850527D01*
X145366265Y-121884576D01*
X145354678Y-121912772D01*
X145346227Y-121936730D01*
X145340039Y-121958066D01*
X145337518Y-121968277D01*
X145325277Y-122023165D01*
X145319521Y-122063172D01*
X145320206Y-122099352D01*
X145327292Y-122142762D01*
X145336690Y-122186303D01*
X145361192Y-122296424D01*
X145512425Y-122450439D01*
X145569862Y-122508595D01*
X145612895Y-122550523D01*
X145646099Y-122579554D01*
X145674050Y-122599018D01*
X145701323Y-122612246D01*
X145732493Y-122622569D01*
X145758752Y-122629761D01*
X145823197Y-122645758D01*
X145872352Y-122653511D01*
X145916892Y-122653065D01*
X145967491Y-122644461D01*
X146023020Y-122630823D01*
X146075114Y-122614918D01*
X146118756Y-122597317D01*
X146145362Y-122581541D01*
X146146985Y-122579956D01*
X146162679Y-122562427D01*
X146193134Y-122527841D01*
X146235255Y-122479734D01*
X146285951Y-122421639D01*
X146342127Y-122357092D01*
X146353402Y-122344117D01*
X146536895Y-122132904D01*
X146999341Y-121264278D01*
X147075147Y-121122063D01*
X147147268Y-120987098D01*
X147214681Y-120861279D01*
X147276360Y-120746503D01*
X147331281Y-120644666D01*
X147378419Y-120557665D01*
X147416748Y-120487397D01*
X147445245Y-120435759D01*
X147462883Y-120404647D01*
X147468600Y-120395753D01*
X147476029Y-120407439D01*
X147495498Y-120441275D01*
X147526018Y-120495472D01*
X147566600Y-120568240D01*
X147616255Y-120657793D01*
X147673995Y-120762342D01*
X147738832Y-120880097D01*
X147809775Y-121009272D01*
X147885838Y-121148076D01*
X147966030Y-121294724D01*
X148000038Y-121357002D01*
X148524662Y-122318149D01*
X148674555Y-122464801D01*
X148824448Y-122611452D01*
X148932352Y-122636194D01*
X148987462Y-122648156D01*
X149027788Y-122653689D01*
X149064476Y-122652815D01*
X149108666Y-122645554D01*
X149150378Y-122636607D01*
X149260499Y-122612277D01*
X149418239Y-122454350D01*
X149575979Y-122296424D01*
X149600496Y-122188519D01*
X149612326Y-122133587D01*
X149617782Y-122093519D01*
X149616833Y-122057251D01*
X149609448Y-122013716D01*
X149599890Y-121970619D01*
X149594713Y-121949945D01*
X149588008Y-121928035D01*
X149578902Y-121903265D01*
X149566520Y-121874012D01*
X149549989Y-121838651D01*
X149528435Y-121795558D01*
X149500984Y-121743110D01*
X149466761Y-121679682D01*
X149424894Y-121603651D01*
X149374508Y-121513393D01*
X149314729Y-121407283D01*
X149244684Y-121283698D01*
X149163498Y-121141014D01*
X149070298Y-120977607D01*
X148987620Y-120832830D01*
X148400473Y-119805036D01*
X148458833Y-119544989D01*
X148517193Y-119284943D01*
X148517521Y-117707170D01*
X148517565Y-117466512D01*
X148517574Y-117251537D01*
X148517521Y-117060672D01*
X148517378Y-116892347D01*
X148517120Y-116744989D01*
X148516720Y-116617028D01*
X148516150Y-116506893D01*
X148515383Y-116413011D01*
X148514394Y-116333813D01*
X148513154Y-116267725D01*
X148511638Y-116213178D01*
X148509818Y-116168600D01*
X148507667Y-116132419D01*
X148505160Y-116103064D01*
X148502268Y-116078964D01*
X148498965Y-116058547D01*
X148495224Y-116040243D01*
X148491019Y-116022480D01*
X148488581Y-116012701D01*
X148459313Y-115896006D01*
X149625754Y-114728887D01*
X150792195Y-113561767D01*
X150822061Y-113441374D01*
X150835974Y-113383620D01*
X150843457Y-113342467D01*
X150844725Y-113308086D01*
X150839992Y-113270647D01*
X150829472Y-113220321D01*
X150827111Y-113209722D01*
X150802295Y-113098462D01*
X150654962Y-112948001D01*
X150507628Y-112797540D01*
X150387334Y-112768202D01*
X150267039Y-112738864D01*
X150158941Y-112766169D01*
X150050842Y-112793473D01*
X149612944Y-113230488D01*
X149522805Y-113320026D01*
X149438393Y-113403065D01*
X149361681Y-113477722D01*
X149294643Y-113542115D01*
X149239253Y-113594361D01*
X149197482Y-113632577D01*
X149171306Y-113654879D01*
X149162850Y-113659966D01*
X149153838Y-113645692D01*
X149135879Y-113610332D01*
X149110840Y-113557813D01*
X149080588Y-113492064D01*
X149046990Y-113417012D01*
X149042152Y-113406045D01*
X148933649Y-113159661D01*
X148721261Y-112947584D01*
X148508872Y-112735506D01*
X148196542Y-112592880D01*
X148100082Y-112548943D01*
X148023849Y-112514808D01*
X147963299Y-112488916D01*
X147913885Y-112469707D01*
X147871064Y-112455621D01*
X147830291Y-112445099D01*
X147787020Y-112436581D01*
X147736707Y-112428507D01*
X147702912Y-112423473D01*
X147631927Y-112413433D01*
X147567323Y-112405108D01*
X147515613Y-112399283D01*
X147483310Y-112396741D01*
X147480466Y-112396692D01*
X147456551Y-112399680D01*
X147410031Y-112408104D01*
X147344830Y-112421156D01*
X147264871Y-112438027D01*
X147174077Y-112457907D01*
X147076371Y-112479989D01*
X147075822Y-112480115D01*
X146712323Y-112563539D01*
X146569244Y-112649679D01*
X146516953Y-112682252D01*
X146470249Y-112714362D01*
X146424724Y-112749740D01*
X146375972Y-112792113D01*
X146319586Y-112845213D01*
X146251160Y-112912767D01*
X146212957Y-112951207D01*
X145999749Y-113166595D01*
X145895021Y-113405061D01*
X145861626Y-113480299D01*
X145831267Y-113547193D01*
X145805871Y-113601618D01*
X145787363Y-113639451D01*
X145777668Y-113656569D01*
X145777482Y-113656773D01*
X145764701Y-113650633D01*
X145733765Y-113625477D01*
X145685377Y-113581965D01*
X145620239Y-113520757D01*
X145539053Y-113442515D01*
X145442521Y-113347897D01*
X145331346Y-113237566D01*
X145325514Y-113231747D01*
X144886357Y-112793473D01*
X144778259Y-112766169D01*
X144670160Y-112738864D01*
X144549866Y-112768202D01*
X144429572Y-112797540D01*
X144282238Y-112948001D01*
X144134905Y-113098462D01*
X144110089Y-113209722D01*
X144098602Y-113263233D01*
X144092864Y-113302178D01*
X143926124Y-113302178D01*
X143993138Y-113015341D01*
X144075429Y-112663023D01*
X144154433Y-112324689D01*
X144229977Y-112001076D01*
X144301890Y-111692921D01*
X144370000Y-111400959D01*
X144434135Y-111125928D01*
X144494122Y-110868565D01*
X144549792Y-110629606D01*
X144600970Y-110409788D01*
X144647486Y-110209847D01*
X144689167Y-110030521D01*
X144725842Y-109872545D01*
X144757339Y-109736658D01*
X144783486Y-109623594D01*
X144804110Y-109534092D01*
X144819041Y-109468887D01*
X144828106Y-109428717D01*
X144831133Y-109414318D01*
X144831127Y-109414289D01*
X144817161Y-109411737D01*
X144778403Y-109406021D01*
X144717091Y-109397442D01*
X144635465Y-109386301D01*
X144535764Y-109372897D01*
X144420227Y-109357531D01*
X144291094Y-109340503D01*
X144150604Y-109322113D01*
X144000996Y-109302662D01*
X143931373Y-109293653D01*
X143036330Y-109178006D01*
X142863213Y-109350739D01*
X142690096Y-109523471D01*
X142452819Y-109583460D01*
X142215542Y-109643448D01*
X142066124Y-109614034D01*
X142009388Y-109602313D01*
X141962970Y-109590641D01*
X141920815Y-109576514D01*
X141876868Y-109557423D01*
X141825076Y-109530864D01*
X141759382Y-109494330D01*
X141713049Y-109467882D01*
X141509392Y-109351145D01*
X141370956Y-109129441D01*
X141327101Y-109059596D01*
X141287623Y-108997454D01*
X141254985Y-108946833D01*
X141231648Y-108911550D01*
X141220076Y-108895422D01*
X141219846Y-108895183D01*
X141204377Y-108889726D01*
X141164960Y-108878960D01*
X141104244Y-108863526D01*
X141024877Y-108844065D01*
X140929509Y-108821219D01*
X140820786Y-108795628D01*
X140701357Y-108767934D01*
X140573871Y-108738779D01*
X140573536Y-108738702D01*
X139939898Y-108594776D01*
X139033729Y-108244640D01*
X138127559Y-107894503D01*
X137732387Y-107574451D01*
X137611827Y-107476949D01*
X137510289Y-107394867D01*
X137425820Y-107326225D01*
X137356468Y-107269043D01*
X137300279Y-107221340D01*
X137255303Y-107181136D01*
X137219584Y-107146449D01*
X137191172Y-107115300D01*
X137168113Y-107085708D01*
X137148454Y-107055692D01*
X137130243Y-107023272D01*
X137111528Y-106986468D01*
X137090355Y-106943298D01*
X137070446Y-106903070D01*
X137035182Y-106830654D01*
X137004744Y-106764345D01*
X136981164Y-106708882D01*
X136966473Y-106669001D01*
X136962484Y-106651317D01*
X136964914Y-106626918D01*
X136971672Y-106580376D01*
X136981960Y-106516312D01*
X136994980Y-106439350D01*
X137009934Y-106354113D01*
X137026023Y-106265222D01*
X137042449Y-106177302D01*
X137058415Y-106094974D01*
X137059346Y-106090284D01*
X137064873Y-106066840D01*
X137073006Y-106044391D01*
X137085965Y-106019942D01*
X137105968Y-105990493D01*
X137135235Y-105953047D01*
X137175983Y-105904605D01*
X137230432Y-105842170D01*
X137300800Y-105762744D01*
X137306413Y-105756432D01*
X137539109Y-105494814D01*
X138736618Y-104939418D01*
X139934128Y-104384022D01*
X140979449Y-104151356D01*
X142024769Y-103918691D01*
X142937752Y-103800224D01*
X143850735Y-103681757D01*
X144089201Y-103503703D01*
X144327666Y-103325649D01*
X144845478Y-103096172D01*
X145363289Y-102866696D01*
X146098822Y-102719301D01*
X146834354Y-102571906D01*
X147498980Y-102571906D01*
X148163606Y-102571906D01*
X148957332Y-102748508D01*
G37*
%TO.C,G6566*%
G36*
X134834782Y-132008143D02*
G01*
X134818916Y-132361183D01*
X134429046Y-132373551D01*
X134039176Y-132385919D01*
X134054730Y-132036273D01*
X134070284Y-131686626D01*
X134460466Y-131670865D01*
X134850648Y-131655103D01*
X134834782Y-132008143D01*
G37*
G36*
X132205740Y-133941966D02*
G01*
X132225442Y-134033747D01*
X132192606Y-134148604D01*
X132115604Y-134197698D01*
X132026700Y-134163244D01*
X132014534Y-134150015D01*
X131980065Y-134043165D01*
X132024165Y-133946718D01*
X132124216Y-133905784D01*
X132205740Y-133941966D01*
G37*
G36*
X133872955Y-132366729D02*
G01*
X133980813Y-132412039D01*
X134029025Y-132513425D01*
X134036067Y-132692517D01*
X134033098Y-132761060D01*
X134016811Y-133076942D01*
X133655863Y-133092754D01*
X133294916Y-133108565D01*
X133294916Y-132764264D01*
X133301684Y-132557363D01*
X133336085Y-132435186D01*
X133419266Y-132375703D01*
X133572373Y-132356889D01*
X133686973Y-132355866D01*
X133872955Y-132366729D01*
G37*
G36*
X130233547Y-134022548D02*
G01*
X130380600Y-134039468D01*
X130395099Y-135095574D01*
X130409598Y-136151679D01*
X130936657Y-136151679D01*
X131203557Y-136156191D01*
X131381073Y-136171239D01*
X131486448Y-136199092D01*
X131528340Y-136229547D01*
X131570732Y-136299846D01*
X131556784Y-136350977D01*
X131475983Y-136385697D01*
X131317816Y-136406759D01*
X131071772Y-136416918D01*
X130805234Y-136419047D01*
X130086495Y-136419047D01*
X130086495Y-135212338D01*
X130086495Y-134005628D01*
X130233547Y-134022548D01*
G37*
G36*
X137345932Y-129561047D02*
G01*
X137332179Y-133076942D01*
X136580496Y-133091716D01*
X136307019Y-133094537D01*
X136072587Y-133092133D01*
X135897555Y-133085080D01*
X135802278Y-133073951D01*
X135791760Y-133069435D01*
X135785384Y-133010941D01*
X135779355Y-132854482D01*
X135773767Y-132609042D01*
X135768715Y-132283603D01*
X135764293Y-131887148D01*
X135760595Y-131428660D01*
X135757715Y-130917120D01*
X135755747Y-130361513D01*
X135754787Y-129770821D01*
X135754705Y-129538767D01*
X135754705Y-126045153D01*
X136557195Y-126045153D01*
X137359685Y-126045153D01*
X137345932Y-129561047D01*
G37*
G36*
X132158593Y-134637081D02*
G01*
X132189332Y-134742373D01*
X132207492Y-134930816D01*
X132214446Y-135210390D01*
X132212003Y-135562791D01*
X132205709Y-135880413D01*
X132197385Y-136106644D01*
X132185123Y-136257041D01*
X132167011Y-136347162D01*
X132141140Y-136392561D01*
X132108175Y-136408335D01*
X132036845Y-136388143D01*
X131991619Y-136282324D01*
X131983336Y-136242835D01*
X131966056Y-136085143D01*
X131958398Y-135867339D01*
X131959300Y-135613435D01*
X131967705Y-135347443D01*
X131982551Y-135093377D01*
X132002781Y-134875248D01*
X132027334Y-134717069D01*
X132053879Y-134644017D01*
X132113900Y-134606956D01*
X132158593Y-134637081D01*
G37*
G36*
X129414546Y-131847047D02*
G01*
X129399332Y-132032958D01*
X129412110Y-132208381D01*
X129438363Y-132314702D01*
X129485824Y-132362436D01*
X129587348Y-132370122D01*
X129686678Y-132363318D01*
X129868349Y-132358789D01*
X130027475Y-132370906D01*
X130063515Y-132377949D01*
X130137077Y-132403456D01*
X130175711Y-132450995D01*
X130188285Y-132547860D01*
X130183668Y-132721343D01*
X130182582Y-132744380D01*
X130166705Y-133076942D01*
X129845406Y-133092527D01*
X129625416Y-133090395D01*
X129486643Y-133060678D01*
X129457722Y-133041727D01*
X129419722Y-132953009D01*
X129395700Y-132799410D01*
X129391337Y-132695535D01*
X129380275Y-132521371D01*
X129333974Y-132416027D01*
X129232764Y-132365649D01*
X129056973Y-132356381D01*
X128920425Y-132363855D01*
X128669442Y-132381784D01*
X128653630Y-132020837D01*
X128637819Y-131659889D01*
X129043738Y-131659889D01*
X129449657Y-131659889D01*
X129414546Y-131847047D01*
G37*
G36*
X133620893Y-134563183D02*
G01*
X133856686Y-134672353D01*
X133908002Y-134713429D01*
X134026044Y-134842772D01*
X134092434Y-134966366D01*
X134103503Y-135063280D01*
X134055579Y-135112588D01*
X133976705Y-135105114D01*
X133853065Y-135038525D01*
X133738627Y-134941089D01*
X133581654Y-134841033D01*
X133392757Y-134814330D01*
X133213799Y-134862534D01*
X133137477Y-134918802D01*
X133036460Y-135087362D01*
X132984082Y-135329777D01*
X132985156Y-135622347D01*
X132988353Y-135653128D01*
X133053086Y-135915782D01*
X133176495Y-136094914D01*
X133354787Y-136185697D01*
X133413893Y-136194616D01*
X133533665Y-136196042D01*
X133627135Y-136163732D01*
X133724839Y-136079687D01*
X133845582Y-135940149D01*
X133951987Y-135854610D01*
X134037706Y-135865787D01*
X134085897Y-135971297D01*
X134086337Y-135974182D01*
X134052543Y-136091943D01*
X133926184Y-136236888D01*
X133910687Y-136250730D01*
X133784544Y-136349096D01*
X133665689Y-136399641D01*
X133508377Y-136417567D01*
X133404116Y-136419047D01*
X133214136Y-136412096D01*
X133089502Y-136382213D01*
X132989026Y-136315860D01*
X132935039Y-136264838D01*
X132777529Y-136043569D01*
X132685728Y-135777822D01*
X132657492Y-135491452D01*
X132690675Y-135208312D01*
X132783133Y-134952257D01*
X132932721Y-134747142D01*
X133081021Y-134641130D01*
X133357521Y-134552354D01*
X133620893Y-134563183D01*
G37*
G36*
X137630183Y-134656206D02*
G01*
X137685355Y-134705260D01*
X137843147Y-134863052D01*
X137828295Y-135627014D01*
X137820814Y-135932386D01*
X137810860Y-136146642D01*
X137796389Y-136285612D01*
X137775357Y-136365126D01*
X137745720Y-136401016D01*
X137727536Y-136407454D01*
X137691545Y-136401190D01*
X137664578Y-136356062D01*
X137643809Y-136256420D01*
X137626413Y-136086613D01*
X137609564Y-135830989D01*
X137603329Y-135719377D01*
X137584377Y-135447739D01*
X137559932Y-135208570D01*
X137532952Y-135025481D01*
X137506393Y-134922078D01*
X137502583Y-134914829D01*
X137426484Y-134847610D01*
X137290220Y-134818224D01*
X137186865Y-134814837D01*
X137031396Y-134826773D01*
X136916853Y-134872338D01*
X136835182Y-134966164D01*
X136778331Y-135122882D01*
X136738247Y-135357124D01*
X136706877Y-135683525D01*
X136706560Y-135687563D01*
X136685696Y-135934206D01*
X136665118Y-136144145D01*
X136647416Y-136292753D01*
X136636653Y-136352205D01*
X136574724Y-136414882D01*
X136495900Y-136390862D01*
X136478764Y-136369075D01*
X136467281Y-136300516D01*
X136456251Y-136145026D01*
X136446651Y-135922619D01*
X136439453Y-135653312D01*
X136437155Y-135514519D01*
X136435366Y-135174033D01*
X136440993Y-134927931D01*
X136454859Y-134763855D01*
X136477786Y-134669444D01*
X136495220Y-134642070D01*
X136559844Y-134607359D01*
X136625838Y-134658858D01*
X136642853Y-134681058D01*
X136695676Y-134744149D01*
X136748633Y-134757972D01*
X136836459Y-134720913D01*
X136930584Y-134667689D01*
X137190563Y-134562399D01*
X137425158Y-134558641D01*
X137630183Y-134656206D01*
G37*
G36*
X139245004Y-134604247D02*
G01*
X139357617Y-134646004D01*
X139546203Y-134751713D01*
X139641606Y-134857631D01*
X139638443Y-134956652D01*
X139615315Y-134986143D01*
X139539881Y-135005829D01*
X139409952Y-134954785D01*
X139364527Y-134929075D01*
X139167793Y-134848126D01*
X138960319Y-134817905D01*
X138778310Y-134839993D01*
X138672841Y-134898867D01*
X138597198Y-135010227D01*
X138609665Y-135111748D01*
X138715207Y-135208713D01*
X138918791Y-135306408D01*
X139123547Y-135378460D01*
X139377115Y-135470866D01*
X139543249Y-135562270D01*
X139640449Y-135666395D01*
X139687121Y-135796490D01*
X139686735Y-136028931D01*
X139596100Y-136214974D01*
X139422210Y-136340371D01*
X139419710Y-136341423D01*
X139204872Y-136395561D01*
X138941578Y-136412290D01*
X138682088Y-136390178D01*
X138572023Y-136364688D01*
X138373783Y-136274539D01*
X138277764Y-136153895D01*
X138267968Y-136091658D01*
X138277292Y-136023562D01*
X138317866Y-135998952D01*
X138408596Y-136019446D01*
X138568387Y-136086663D01*
X138650343Y-136124420D01*
X138857303Y-136212836D01*
X139006419Y-136250633D01*
X139131734Y-136241908D01*
X139253688Y-136197038D01*
X139388045Y-136096338D01*
X139428783Y-135973061D01*
X139381146Y-135845411D01*
X139250383Y-135731592D01*
X139100709Y-135666192D01*
X138759802Y-135541561D01*
X138518603Y-135412431D01*
X138369870Y-135274611D01*
X138339313Y-135225481D01*
X138287350Y-135105116D01*
X138290778Y-135010809D01*
X138346555Y-134891119D01*
X138499584Y-134712520D01*
X138716206Y-134601327D01*
X138972615Y-134563312D01*
X139245004Y-134604247D01*
G37*
G36*
X135358893Y-134561755D02*
G01*
X135590867Y-134630358D01*
X135636504Y-134655116D01*
X135785094Y-134794500D01*
X135912641Y-134999889D01*
X135998117Y-135230338D01*
X136022074Y-135405784D01*
X136022074Y-135560074D01*
X135393758Y-135575140D01*
X134765442Y-135590205D01*
X134749530Y-135726812D01*
X134777829Y-135881940D01*
X134877444Y-136042219D01*
X135021465Y-136170492D01*
X135099564Y-136210201D01*
X135205985Y-136229084D01*
X135338903Y-136202583D01*
X135526793Y-136125997D01*
X135722660Y-136039982D01*
X135840389Y-136001853D01*
X135897137Y-136010956D01*
X135910062Y-136066638D01*
X135905477Y-136111574D01*
X135836619Y-136235837D01*
X135680160Y-136333493D01*
X135453729Y-136397032D01*
X135183966Y-136418964D01*
X134980627Y-136410973D01*
X134842675Y-136379369D01*
X134729265Y-136312894D01*
X134692904Y-136283613D01*
X134533494Y-136093144D01*
X134445673Y-135844186D01*
X134425757Y-135524555D01*
X134431888Y-135420229D01*
X134478986Y-135176791D01*
X134749303Y-135176791D01*
X134750679Y-135185752D01*
X134812526Y-135251798D01*
X134949702Y-135302159D01*
X135131197Y-135332537D01*
X135326002Y-135338633D01*
X135503105Y-135316150D01*
X135562017Y-135298202D01*
X135651605Y-135252369D01*
X135669570Y-135186162D01*
X135640085Y-135083179D01*
X135550030Y-134924738D01*
X135405043Y-134839403D01*
X135194194Y-134814837D01*
X135034204Y-134849922D01*
X134886857Y-134938559D01*
X134781955Y-135055824D01*
X134749303Y-135176791D01*
X134478986Y-135176791D01*
X134490964Y-135114877D01*
X134608600Y-134858458D01*
X134773122Y-134672263D01*
X134876841Y-134608644D01*
X135102980Y-134553421D01*
X135358893Y-134561755D01*
G37*
G36*
X140937299Y-134574876D02*
G01*
X141180226Y-134641358D01*
X141346766Y-134747841D01*
X141466321Y-134918615D01*
X141528070Y-135062950D01*
X141600044Y-135266312D01*
X141625957Y-135401333D01*
X141592916Y-135482732D01*
X141488029Y-135525230D01*
X141298404Y-135543545D01*
X141101463Y-135550041D01*
X140803260Y-135560220D01*
X140595932Y-135575230D01*
X140463405Y-135599250D01*
X140389609Y-135636454D01*
X140358471Y-135691021D01*
X140353442Y-135744434D01*
X140397365Y-135900263D01*
X140508655Y-136059257D01*
X140656590Y-136181955D01*
X140716783Y-136211145D01*
X140820069Y-136231009D01*
X140943591Y-136206756D01*
X141120254Y-136131394D01*
X141142091Y-136120787D01*
X141318696Y-136042314D01*
X141427642Y-136016757D01*
X141491196Y-136039144D01*
X141494298Y-136042153D01*
X141514838Y-136101441D01*
X141462389Y-136184173D01*
X141381967Y-136262202D01*
X141262594Y-136355185D01*
X141143806Y-136401818D01*
X140980428Y-136416625D01*
X140900704Y-136416954D01*
X140694227Y-136402014D01*
X140502288Y-136366105D01*
X140417993Y-136338362D01*
X140239550Y-136204465D01*
X140114947Y-135988494D01*
X140049419Y-135703639D01*
X140045273Y-135399397D01*
X140071369Y-135209624D01*
X140355582Y-135209624D01*
X140395277Y-135301831D01*
X140420284Y-135317418D01*
X140509821Y-135331002D01*
X140667850Y-135333920D01*
X140857799Y-135327902D01*
X141043096Y-135314674D01*
X141187169Y-135295967D01*
X141248033Y-135278301D01*
X141288649Y-135199947D01*
X141265174Y-135084393D01*
X141191577Y-134967539D01*
X141098103Y-134892994D01*
X140866773Y-134820025D01*
X140652758Y-134841192D01*
X140484696Y-134946090D01*
X140387073Y-135081332D01*
X140355582Y-135209624D01*
X140071369Y-135209624D01*
X140083356Y-135122450D01*
X140154988Y-134927084D01*
X140184801Y-134879855D01*
X140355120Y-134720329D01*
X140583169Y-134609828D01*
X140825059Y-134566140D01*
X140937299Y-134574876D01*
G37*
G36*
X143286579Y-126793692D02*
G01*
X143275460Y-127090462D01*
X143259269Y-127324568D01*
X143239364Y-127481829D01*
X143217102Y-127548063D01*
X143214284Y-127549227D01*
X143144464Y-127553792D01*
X142987921Y-127561691D01*
X142764795Y-127571977D01*
X142495225Y-127583705D01*
X142358705Y-127589425D01*
X141556600Y-127622626D01*
X141542297Y-128946100D01*
X141527995Y-130269574D01*
X141152935Y-130269574D01*
X140932266Y-130276071D01*
X140801317Y-130306750D01*
X140743116Y-130378390D01*
X140740692Y-130507768D01*
X140765277Y-130652831D01*
X140810841Y-130884521D01*
X141156983Y-130911258D01*
X141503126Y-130937995D01*
X141503126Y-131285574D01*
X141503126Y-131633153D01*
X141155547Y-131659889D01*
X140807968Y-131686626D01*
X140807968Y-132007468D01*
X140807968Y-132328311D01*
X141048600Y-132342412D01*
X141278113Y-132358428D01*
X141420505Y-132384889D01*
X141495412Y-132438576D01*
X141522474Y-132536270D01*
X141521327Y-132694752D01*
X141519004Y-132744380D01*
X141503126Y-133076942D01*
X141153281Y-133092501D01*
X140968488Y-133095089D01*
X140828214Y-133086616D01*
X140765597Y-133070220D01*
X140745046Y-132999894D01*
X140731303Y-132857532D01*
X140727758Y-132724054D01*
X140715714Y-132524108D01*
X140665367Y-132409416D01*
X140555392Y-132359823D01*
X140364464Y-132355175D01*
X140338851Y-132356473D01*
X140177459Y-132361941D01*
X140085887Y-132341188D01*
X140044354Y-132271669D01*
X140033074Y-132130841D01*
X140032600Y-132007468D01*
X140032600Y-131659889D01*
X140382622Y-131659889D01*
X140732644Y-131659889D01*
X140716833Y-131298942D01*
X140701021Y-130937995D01*
X140333127Y-130922025D01*
X139965232Y-130906055D01*
X139985548Y-129264341D01*
X140005863Y-127622626D01*
X139136916Y-127607933D01*
X138267968Y-127593240D01*
X138267968Y-126819196D01*
X138267968Y-126045153D01*
X140786684Y-126045153D01*
X143305400Y-126045153D01*
X143286579Y-126793692D01*
G37*
G36*
X134832824Y-128491574D02*
G01*
X134818916Y-130937995D01*
X134457968Y-130953806D01*
X134097021Y-130969618D01*
X134096291Y-131194438D01*
X134090119Y-131417879D01*
X134060366Y-131555296D01*
X133987511Y-131627535D01*
X133852033Y-131655444D01*
X133660443Y-131659889D01*
X133289813Y-131659889D01*
X133305733Y-131325679D01*
X133321653Y-130991468D01*
X133669232Y-130964732D01*
X134016811Y-130937995D01*
X134032666Y-130606284D01*
X134048521Y-130274573D01*
X133685087Y-130258705D01*
X133321653Y-130242837D01*
X133294916Y-128932732D01*
X133268179Y-127622626D01*
X132827021Y-127607095D01*
X132385863Y-127591564D01*
X132385863Y-130315164D01*
X132385595Y-130929371D01*
X132384615Y-131445186D01*
X132382662Y-131871166D01*
X132379472Y-132215865D01*
X132374783Y-132487838D01*
X132368333Y-132695640D01*
X132359858Y-132847827D01*
X132349097Y-132952953D01*
X132335786Y-133019574D01*
X132319663Y-133056245D01*
X132301279Y-133071221D01*
X132212712Y-133085474D01*
X132046070Y-133096540D01*
X131830212Y-133102826D01*
X131713554Y-133103679D01*
X131210413Y-133103679D01*
X131196559Y-130363153D01*
X131182705Y-127622626D01*
X130701442Y-127622626D01*
X130220179Y-127622626D01*
X130205876Y-128946100D01*
X130191574Y-130269574D01*
X129823913Y-130269574D01*
X129609573Y-130275862D01*
X129480640Y-130305867D01*
X129415803Y-130376301D01*
X129393752Y-130503877D01*
X129392156Y-130608158D01*
X129404780Y-130755937D01*
X129454994Y-130846538D01*
X129563937Y-130895438D01*
X129752751Y-130918113D01*
X129820513Y-130921764D01*
X130166705Y-130937995D01*
X130182517Y-131298942D01*
X130198328Y-131659889D01*
X129827291Y-131659889D01*
X129616949Y-131655094D01*
X129488181Y-131626674D01*
X129420989Y-131553578D01*
X129395375Y-131414754D01*
X129391337Y-131200990D01*
X129391337Y-130911258D01*
X129017021Y-130911258D01*
X128642705Y-130911258D01*
X128642705Y-128478205D01*
X128642705Y-126045153D01*
X131744718Y-126045153D01*
X134846731Y-126045153D01*
X134832824Y-128491574D01*
G37*
%TO.C,J1*%
D14*
X122497600Y-86643100D02*
X126402600Y-86643100D01*
X122497600Y-89183100D02*
X126497600Y-89183100D01*
X122497600Y-137443100D02*
X122497600Y-86643100D01*
X122497600Y-137443100D02*
X126402600Y-137443100D01*
X123227600Y-139348100D02*
X174027600Y-139348100D01*
X123227600Y-143253100D02*
X123227600Y-139348100D01*
X123227600Y-143253100D02*
X174027600Y-143253100D01*
X125767600Y-143253100D02*
X125767600Y-139253100D01*
X126402600Y-137443100D02*
X126402600Y-86643100D01*
X170757600Y-86643100D02*
X174662600Y-86643100D01*
X170757600Y-89183100D02*
X174757600Y-89183100D01*
X170757600Y-137443100D02*
X170757600Y-86643100D01*
X170757600Y-137443100D02*
X174662600Y-137443100D01*
X174027600Y-143253100D02*
X174027600Y-139348100D01*
X174662600Y-137443100D02*
X174662600Y-86643100D01*
D13*
%TO.C,G344333*%
G36*
X155087300Y-112292713D02*
G01*
X155384162Y-112328436D01*
X155659865Y-112392912D01*
X155929478Y-112492674D01*
X156208066Y-112634258D01*
X156510696Y-112824199D01*
X156818204Y-113043478D01*
X157202681Y-113325231D01*
X157532291Y-113557152D01*
X157812682Y-113742508D01*
X158049497Y-113884568D01*
X158248384Y-113986601D01*
X158414987Y-114051873D01*
X158554953Y-114083655D01*
X158622613Y-114088043D01*
X158729154Y-114106493D01*
X158857328Y-114152397D01*
X158891225Y-114168531D01*
X158990644Y-114215988D01*
X159043977Y-114226035D01*
X159075724Y-114199979D01*
X159088259Y-114179042D01*
X159180283Y-114053007D01*
X159317829Y-113908717D01*
X159476887Y-113768497D01*
X159633449Y-113654672D01*
X159684803Y-113624334D01*
X159820222Y-113559858D01*
X159955115Y-113520578D01*
X160121692Y-113498640D01*
X160229195Y-113491600D01*
X160579503Y-113501516D01*
X160887666Y-113573221D01*
X161160850Y-113710795D01*
X161406226Y-113918322D01*
X161630961Y-114199881D01*
X161720661Y-114340763D01*
X161871186Y-114568468D01*
X162006587Y-114722056D01*
X162131504Y-114805456D01*
X162250577Y-114822596D01*
X162282457Y-114816338D01*
X162376534Y-114761629D01*
X162430406Y-114652673D01*
X162491561Y-114523796D01*
X162589533Y-114400175D01*
X162703253Y-114302633D01*
X162811653Y-114251996D01*
X162838751Y-114249057D01*
X162933784Y-114279009D01*
X162981480Y-114358198D01*
X162981680Y-114470630D01*
X162934225Y-114600306D01*
X162843494Y-114726379D01*
X162704495Y-114836133D01*
X162521769Y-114927209D01*
X162327541Y-114987011D01*
X162154034Y-115002942D01*
X162139231Y-115001656D01*
X162010236Y-114973349D01*
X161898624Y-114911304D01*
X161791661Y-114803941D01*
X161676615Y-114639680D01*
X161599395Y-114510705D01*
X161410771Y-114220026D01*
X161216971Y-114001615D01*
X161006243Y-113847502D01*
X160766832Y-113749718D01*
X160486986Y-113700293D01*
X160394610Y-113693766D01*
X160214851Y-113687473D01*
X160087039Y-113693340D01*
X159983000Y-113715624D01*
X159874562Y-113758584D01*
X159831060Y-113778956D01*
X159698192Y-113848294D01*
X159585062Y-113917317D01*
X159535282Y-113954771D01*
X159427466Y-114066022D01*
X159325290Y-114194259D01*
X159243812Y-114317960D01*
X159198086Y-114415604D01*
X159193164Y-114443827D01*
X159196968Y-114486772D01*
X159219461Y-114501022D01*
X159277264Y-114484780D01*
X159386999Y-114436249D01*
X159424622Y-114418802D01*
X159597393Y-114351040D01*
X159765610Y-114318086D01*
X159937855Y-114310331D01*
X160077054Y-114312552D01*
X160195373Y-114324524D01*
X160302749Y-114352757D01*
X160409117Y-114403758D01*
X160524414Y-114484037D01*
X160658573Y-114600102D01*
X160821532Y-114758463D01*
X161023226Y-114965628D01*
X161165589Y-115114612D01*
X161362512Y-115295515D01*
X161551119Y-115419776D01*
X161723192Y-115484395D01*
X161870513Y-115486370D01*
X161984864Y-115422702D01*
X161991101Y-115416063D01*
X162098096Y-115331611D01*
X162220717Y-115283637D01*
X162340621Y-115271698D01*
X162439466Y-115295354D01*
X162498908Y-115354161D01*
X162505354Y-115428453D01*
X162445108Y-115534291D01*
X162312802Y-115615539D01*
X162113851Y-115669482D01*
X161993058Y-115685182D01*
X161796296Y-115691075D01*
X161619573Y-115665003D01*
X161451296Y-115600348D01*
X161279867Y-115490494D01*
X161093692Y-115328824D01*
X160881175Y-115108722D01*
X160774988Y-114990132D01*
X160564696Y-114772183D01*
X160372860Y-114621954D01*
X160186963Y-114532853D01*
X159994486Y-114498289D01*
X159849786Y-114502946D01*
X159680712Y-114536183D01*
X159516129Y-114595229D01*
X159374460Y-114670223D01*
X159274126Y-114751309D01*
X159233550Y-114828628D01*
X159233418Y-114832782D01*
X159242281Y-114878952D01*
X159279437Y-114912842D01*
X159360735Y-114942089D01*
X159502024Y-114974331D01*
X159545383Y-114983115D01*
X159931987Y-115080875D01*
X160249965Y-115208011D01*
X160507479Y-115369713D01*
X160712691Y-115571170D01*
X160873763Y-115817572D01*
X160881573Y-115832669D01*
X160992801Y-116127350D01*
X161025863Y-116417557D01*
X160981691Y-116696595D01*
X160861216Y-116957765D01*
X160696611Y-117163664D01*
X160477975Y-117335191D01*
X160219446Y-117456960D01*
X159941309Y-117524032D01*
X159663846Y-117531468D01*
X159412633Y-117476322D01*
X159264206Y-117409016D01*
X159094748Y-117314003D01*
X158925645Y-117205367D01*
X158778281Y-117097189D01*
X158674040Y-117003552D01*
X158649565Y-116973833D01*
X158580500Y-116831684D01*
X158560330Y-116687737D01*
X158591436Y-116568618D01*
X158610944Y-116541900D01*
X158681011Y-116482315D01*
X158728956Y-116463003D01*
X158804895Y-116497774D01*
X158890822Y-116588306D01*
X158971431Y-116713932D01*
X159031416Y-116853983D01*
X159039829Y-116882797D01*
X159087529Y-117019088D01*
X159158427Y-117112395D01*
X159266066Y-117191323D01*
X159504010Y-117298925D01*
X159756103Y-117338067D01*
X160009212Y-117314456D01*
X160250207Y-117233798D01*
X160465957Y-117101799D01*
X160643330Y-116924166D01*
X160769195Y-116706604D01*
X160822855Y-116514804D01*
X160822682Y-116283452D01*
X160758344Y-116041126D01*
X160639832Y-115808193D01*
X160477139Y-115605020D01*
X160310409Y-115470195D01*
X160119854Y-115369744D01*
X159884273Y-115274701D01*
X159638846Y-115197465D01*
X159418749Y-115150436D01*
X159394157Y-115147226D01*
X159271349Y-115137465D01*
X159194763Y-115152635D01*
X159131341Y-115203659D01*
X159093904Y-115246422D01*
X158943132Y-115367569D01*
X158736604Y-115449943D01*
X158490563Y-115490789D01*
X158221252Y-115487356D01*
X157954629Y-115439508D01*
X157737678Y-115369923D01*
X157509054Y-115271735D01*
X157260455Y-115139984D01*
X156983578Y-114969711D01*
X156670121Y-114755959D01*
X156311780Y-114493766D01*
X156093640Y-114327951D01*
X155670511Y-114033758D01*
X155266661Y-113816618D01*
X154880457Y-113675839D01*
X154510265Y-113610732D01*
X154385509Y-113605699D01*
X154198573Y-113575053D01*
X154010208Y-113495222D01*
X153852617Y-113382042D01*
X153792758Y-113314198D01*
X153728973Y-113168507D01*
X153702971Y-112985632D01*
X153715454Y-112799529D01*
X153767125Y-112644155D01*
X153778499Y-112625292D01*
X153904217Y-112501253D01*
X154096100Y-112402419D01*
X154342976Y-112331630D01*
X154633673Y-112291725D01*
X154957017Y-112285542D01*
X155087300Y-112292713D01*
G37*
%TD*%
M02*
