%TF.GenerationSoftware,KiCad,Pcbnew,10.0.4*%
%TF.CreationDate,2026-06-29T15:09:08+02:00*%
%TF.ProjectId,CW308T_to_cardedge,43573330-3854-45f7-946f-5f6361726465,rev?*%
%TF.SameCoordinates,Original*%
%TF.FileFunction,Soldermask,Top*%
%TF.FilePolarity,Negative*%
%FSLAX46Y46*%
G04 Gerber Fmt 4.6, Leading zero omitted, Abs format (unit mm)*
G04 Created by KiCad (PCBNEW 10.0.4) date 2026-06-29 15:09:08*
%MOMM*%
%LPD*%
G01*
G04 APERTURE LIST*
G04 Aperture macros list*
%AMRoundRect*
0 Rectangle with rounded corners*
0 $1 Rounding radius*
0 $2 $3 $4 $5 $6 $7 $8 $9 X,Y pos of 4 corners*
0 Add a 4 corners polygon primitive as box body*
4,1,4,$2,$3,$4,$5,$6,$7,$8,$9,$2,$3,0*
0 Add four circle primitives for the rounded corners*
1,1,$1+$1,$2,$3*
1,1,$1+$1,$4,$5*
1,1,$1+$1,$6,$7*
1,1,$1+$1,$8,$9*
0 Add four rect primitives between the rounded corners*
20,1,$1+$1,$2,$3,$4,$5,0*
20,1,$1+$1,$4,$5,$6,$7,0*
20,1,$1+$1,$6,$7,$8,$9,0*
20,1,$1+$1,$8,$9,$2,$3,0*%
G04 Aperture macros list end*
%ADD10RoundRect,0.101600X-1.397000X-0.762000X1.397000X-0.762000X1.397000X0.762000X-1.397000X0.762000X0*%
%ADD11O,2.997200X1.727200*%
%ADD12RoundRect,0.101600X0.762000X-1.397000X0.762000X1.397000X-0.762000X1.397000X-0.762000X-1.397000X0*%
%ADD13O,1.727200X2.997200*%
%ADD14C,6.553200*%
%ADD15C,2.553200*%
%ADD16RoundRect,0.101600X-0.604000X-0.604000X0.604000X-0.604000X0.604000X0.604000X-0.604000X0.604000X0*%
%ADD17C,1.411200*%
G04 APERTURE END LIST*
D10*
%TO.C,J1*%
X124497600Y-87913100D03*
D11*
X124497600Y-90453100D03*
X124497600Y-92993100D03*
X124497600Y-95533100D03*
X124497600Y-98073100D03*
X124497600Y-100613100D03*
X124497600Y-103153100D03*
X124497600Y-105693100D03*
X124497600Y-108233100D03*
X124497600Y-110773100D03*
X124497600Y-113313100D03*
X124497600Y-115853100D03*
X124497600Y-118393100D03*
X124497600Y-120933100D03*
X124497600Y-123473100D03*
X124497600Y-126013100D03*
X124497600Y-128553100D03*
X124497600Y-131093100D03*
X124497600Y-133633100D03*
X124497600Y-136173100D03*
D12*
X124497600Y-141253100D03*
D13*
X127037600Y-141253100D03*
X129577600Y-141253100D03*
X132117600Y-141253100D03*
X134657600Y-141253100D03*
X137197600Y-141253100D03*
X139737600Y-141253100D03*
X142277600Y-141253100D03*
X144817600Y-141253100D03*
X147357600Y-141253100D03*
X149897600Y-141253100D03*
X152437600Y-141253100D03*
X154977600Y-141253100D03*
X157517600Y-141253100D03*
X160057600Y-141253100D03*
X162597600Y-141253100D03*
X165137600Y-141253100D03*
X167677600Y-141253100D03*
X170217600Y-141253100D03*
X172757600Y-141253100D03*
D10*
X172757600Y-87913100D03*
D11*
X172757600Y-90453100D03*
X172757600Y-92993100D03*
X172757600Y-95533100D03*
X172757600Y-98073100D03*
X172757600Y-100613100D03*
X172757600Y-103153100D03*
X172757600Y-105693100D03*
X172757600Y-108233100D03*
X172757600Y-110773100D03*
X172757600Y-113313100D03*
X172757600Y-115853100D03*
X172757600Y-118393100D03*
X172757600Y-120933100D03*
X172757600Y-123473100D03*
X172757600Y-126013100D03*
X172757600Y-128553100D03*
X172757600Y-131093100D03*
X172757600Y-133633100D03*
X172757600Y-136173100D03*
D14*
X147357600Y-133633100D03*
%TD*%
D15*
%TO.C,CN1*%
X130168600Y-67232100D03*
X153318600Y-67232100D03*
D16*
X164968600Y-73732100D03*
D17*
X163968600Y-71732100D03*
X162968600Y-73732100D03*
X161968600Y-71732100D03*
X160968600Y-73732100D03*
X159968600Y-71732100D03*
X158968600Y-73732100D03*
X157968600Y-71732100D03*
X156968600Y-73732100D03*
X155968600Y-71732100D03*
X154968600Y-73732100D03*
X151968600Y-71732100D03*
X150968600Y-73732100D03*
X149968600Y-71732100D03*
X148968600Y-73732100D03*
X147968600Y-71732100D03*
X146968600Y-73732100D03*
X145968600Y-71732100D03*
X144968600Y-73732100D03*
X143968600Y-71732100D03*
X142968600Y-73732100D03*
X141968600Y-71732100D03*
X140968600Y-73732100D03*
X139968600Y-71732100D03*
X138968600Y-73732100D03*
X137968600Y-71732100D03*
X136968600Y-73732100D03*
X135968600Y-71732100D03*
X134968600Y-73732100D03*
X133968600Y-71732100D03*
X132968600Y-73732100D03*
X131968600Y-71732100D03*
X164968600Y-76232100D03*
X163968600Y-78232100D03*
X162968600Y-76232100D03*
X161968600Y-78232100D03*
X160968600Y-76232100D03*
X159968600Y-78232100D03*
X158968600Y-76232100D03*
X157968600Y-78232100D03*
X156968600Y-76232100D03*
X155968600Y-78232100D03*
X154968600Y-76232100D03*
X151968600Y-78232100D03*
X150968600Y-76232100D03*
X149968600Y-78232100D03*
X148968600Y-76232100D03*
X147968600Y-78232100D03*
X146968600Y-76232100D03*
X145968600Y-78232100D03*
X144968600Y-76232100D03*
X143968600Y-78232100D03*
X142968600Y-76232100D03*
X141968600Y-78232100D03*
X140968600Y-76232100D03*
X139968600Y-78232100D03*
X138968600Y-76232100D03*
X137968600Y-78232100D03*
X136968600Y-76232100D03*
X135968600Y-78232100D03*
X134968600Y-76232100D03*
X133968600Y-78232100D03*
X132968600Y-76232100D03*
X131968600Y-78232100D03*
%TD*%
M02*
