%TF.GenerationSoftware,KiCad,Pcbnew,10.0.4*%
%TF.CreationDate,2026-06-29T15:09:14+02:00*%
%TF.ProjectId,CW308T_to_cardedge,43573330-3854-45f7-946f-5f6361726465,rev?*%
%TF.SameCoordinates,Original*%
%TF.FileFunction,Drillmap*%
%TF.FilePolarity,Positive*%
%FSLAX45Y45*%
G04 Gerber Fmt 4.5, Leading zero omitted, Abs format (unit mm)*
G04 Created by KiCad (PCBNEW 10.0.4) date 2026-06-29 15:09:14*
%MOMM*%
%LPD*%
G01*
G04 APERTURE LIST*
%ADD10C,0.050000*%
%ADD11C,0.200000*%
%ADD12C,0.100000*%
%ADD13C,0.340360*%
G04 APERTURE END LIST*
D10*
X12146860Y-5923210D02*
X17546860Y-5923210D01*
X17546860Y-14373210D01*
X12146860Y-14373210D01*
X12146860Y-5923210D01*
D11*
D12*
X12331860Y-6058210D02*
X12361860Y-6088210D01*
X12361860Y-6058210D02*
X12331860Y-6088210D01*
X12331860Y-6358210D02*
X12361860Y-6388210D01*
X12361860Y-6358210D02*
X12331860Y-6388210D01*
X12331860Y-6658210D02*
X12361860Y-6688210D01*
X12361860Y-6658210D02*
X12331860Y-6688210D01*
X12331860Y-6958210D02*
X12361860Y-6988210D01*
X12361860Y-6958210D02*
X12331860Y-6988210D01*
X12331860Y-7258210D02*
X12361860Y-7288210D01*
X12361860Y-7258210D02*
X12331860Y-7288210D01*
X12331860Y-7558210D02*
X12361860Y-7588210D01*
X12361860Y-7558210D02*
X12331860Y-7588210D01*
X12331860Y-7858210D02*
X12361860Y-7888210D01*
X12361860Y-7858210D02*
X12331860Y-7888210D01*
X12331860Y-8158210D02*
X12361860Y-8188210D01*
X12361860Y-8158210D02*
X12331860Y-8188210D01*
X12331860Y-8458210D02*
X12361860Y-8488210D01*
X12361860Y-8458210D02*
X12331860Y-8488210D01*
X12331860Y-8908210D02*
X12361860Y-8938210D01*
X12361860Y-8908210D02*
X12331860Y-8938210D01*
X12331860Y-9658210D02*
X12361860Y-9688210D01*
X12361860Y-9658210D02*
X12331860Y-9688210D01*
X12331860Y-12208210D02*
X12361860Y-12238210D01*
X12361860Y-12208210D02*
X12331860Y-12238210D01*
X12331860Y-13858210D02*
X12361860Y-13888210D01*
X12361860Y-13858210D02*
X12331860Y-13888210D01*
X12609870Y-9902570D02*
X12639870Y-9932570D01*
X12639870Y-9902570D02*
X12609870Y-9932570D01*
X12631860Y-6058210D02*
X12661860Y-6088210D01*
X12661860Y-6058210D02*
X12631860Y-6088210D01*
X12631860Y-6358210D02*
X12661860Y-6388210D01*
X12661860Y-6358210D02*
X12631860Y-6388210D01*
X12631860Y-6658210D02*
X12661860Y-6688210D01*
X12661860Y-6658210D02*
X12631860Y-6688210D01*
X12631860Y-6958210D02*
X12661860Y-6988210D01*
X12661860Y-6958210D02*
X12631860Y-6988210D01*
X12631860Y-7258210D02*
X12661860Y-7288210D01*
X12661860Y-7258210D02*
X12631860Y-7288210D01*
X12631860Y-7558210D02*
X12661860Y-7588210D01*
X12661860Y-7558210D02*
X12631860Y-7588210D01*
X12781860Y-7858210D02*
X12811860Y-7888210D01*
X12811860Y-7858210D02*
X12781860Y-7888210D01*
X12781860Y-8158210D02*
X12811860Y-8188210D01*
X12811860Y-8158210D02*
X12781860Y-8188210D01*
X12781860Y-8458210D02*
X12811860Y-8488210D01*
X12811860Y-8458210D02*
X12781860Y-8488210D01*
X12781860Y-8758210D02*
X12811860Y-8788210D01*
X12811860Y-8758210D02*
X12781860Y-8788210D01*
X12781860Y-9208210D02*
X12811860Y-9238210D01*
X12811860Y-9208210D02*
X12781860Y-9238210D01*
X12781860Y-9508210D02*
X12811860Y-9538210D01*
X12811860Y-9508210D02*
X12781860Y-9538210D01*
X12781860Y-9958210D02*
X12811860Y-9988210D01*
X12811860Y-9958210D02*
X12781860Y-9988210D01*
X12781860Y-10258210D02*
X12811860Y-10288210D01*
X12811860Y-10258210D02*
X12781860Y-10288210D01*
X12781860Y-11008210D02*
X12811860Y-11038210D01*
X12811860Y-11008210D02*
X12781860Y-11038210D01*
X12781860Y-11308210D02*
X12811860Y-11338210D01*
X12811860Y-11308210D02*
X12781860Y-11338210D01*
X12781860Y-11758210D02*
X12811860Y-11788210D01*
X12811860Y-11758210D02*
X12781860Y-11788210D01*
X12781860Y-12058210D02*
X12811860Y-12088210D01*
X12811860Y-12058210D02*
X12781860Y-12088210D01*
X12781860Y-12358210D02*
X12811860Y-12388210D01*
X12811860Y-12358210D02*
X12781860Y-12388210D01*
X12781860Y-13108210D02*
X12811860Y-13138210D01*
X12811860Y-13108210D02*
X12781860Y-13138210D01*
X12781860Y-13558210D02*
X12811860Y-13588210D01*
X12811860Y-13558210D02*
X12781860Y-13588210D01*
X12781860Y-13858210D02*
X12811860Y-13888210D01*
X12811860Y-13858210D02*
X12781860Y-13888210D01*
X12931860Y-6058210D02*
X12961860Y-6088210D01*
X12961860Y-6058210D02*
X12931860Y-6088210D01*
X12931860Y-6358210D02*
X12961860Y-6388210D01*
X12961860Y-6358210D02*
X12931860Y-6388210D01*
X12931860Y-6958210D02*
X12961860Y-6988210D01*
X12961860Y-6958210D02*
X12931860Y-6988210D01*
X12931860Y-7258210D02*
X12961860Y-7288210D01*
X12961860Y-7258210D02*
X12931860Y-7288210D01*
X12931860Y-7558210D02*
X12961860Y-7588210D01*
X12961860Y-7558210D02*
X12931860Y-7588210D01*
X13081860Y-8008210D02*
X13111860Y-8038210D01*
X13111860Y-8008210D02*
X13081860Y-8038210D01*
X13081860Y-8308210D02*
X13111860Y-8338210D01*
X13111860Y-8308210D02*
X13081860Y-8338210D01*
X13081860Y-8608210D02*
X13111860Y-8638210D01*
X13111860Y-8608210D02*
X13081860Y-8638210D01*
X13081860Y-8908210D02*
X13111860Y-8938210D01*
X13111860Y-8908210D02*
X13081860Y-8938210D01*
X13081860Y-9208210D02*
X13111860Y-9238210D01*
X13111860Y-9208210D02*
X13081860Y-9238210D01*
X13081860Y-9658210D02*
X13111860Y-9688210D01*
X13111860Y-9658210D02*
X13081860Y-9688210D01*
X13081860Y-9958210D02*
X13111860Y-9988210D01*
X13111860Y-9958210D02*
X13081860Y-9988210D01*
X13081860Y-10708210D02*
X13111860Y-10738210D01*
X13111860Y-10708210D02*
X13081860Y-10738210D01*
X13081860Y-11008210D02*
X13111860Y-11038210D01*
X13111860Y-11008210D02*
X13081860Y-11038210D01*
X13081860Y-11458210D02*
X13111860Y-11488210D01*
X13111860Y-11458210D02*
X13081860Y-11488210D01*
X13081860Y-11758210D02*
X13111860Y-11788210D01*
X13111860Y-11758210D02*
X13081860Y-11788210D01*
X13081860Y-12058210D02*
X13111860Y-12088210D01*
X13111860Y-12058210D02*
X13081860Y-12088210D01*
X13081860Y-12808210D02*
X13111860Y-12838210D01*
X13111860Y-12808210D02*
X13081860Y-12838210D01*
X13081860Y-13258210D02*
X13111860Y-13288210D01*
X13111860Y-13258210D02*
X13081860Y-13288210D01*
X13081860Y-13558210D02*
X13111860Y-13588210D01*
X13111860Y-13558210D02*
X13081860Y-13588210D01*
X13206320Y-12550370D02*
X13236320Y-12580370D01*
X13236320Y-12550370D02*
X13206320Y-12580370D01*
X13231860Y-6058210D02*
X13261860Y-6088210D01*
X13261860Y-6058210D02*
X13231860Y-6088210D01*
X13231860Y-6358210D02*
X13261860Y-6388210D01*
X13261860Y-6358210D02*
X13231860Y-6388210D01*
X13231860Y-6658210D02*
X13261860Y-6688210D01*
X13261860Y-6658210D02*
X13231860Y-6688210D01*
X13231860Y-6958210D02*
X13261860Y-6988210D01*
X13261860Y-6958210D02*
X13231860Y-6988210D01*
X13381860Y-13858210D02*
X13411860Y-13888210D01*
X13411860Y-13858210D02*
X13381860Y-13888210D01*
X13531860Y-6058210D02*
X13561860Y-6088210D01*
X13561860Y-6058210D02*
X13531860Y-6088210D01*
X13531860Y-6358210D02*
X13561860Y-6388210D01*
X13561860Y-6358210D02*
X13531860Y-6388210D01*
X13531860Y-6658210D02*
X13561860Y-6688210D01*
X13561860Y-6658210D02*
X13531860Y-6688210D01*
X13531860Y-6958210D02*
X13561860Y-6988210D01*
X13561860Y-6958210D02*
X13531860Y-6988210D01*
X13681860Y-12208210D02*
X13711860Y-12238210D01*
X13711860Y-12208210D02*
X13681860Y-12238210D01*
X13681860Y-12658210D02*
X13711860Y-12688210D01*
X13711860Y-12658210D02*
X13681860Y-12688210D01*
X13681860Y-12958210D02*
X13711860Y-12988210D01*
X13711860Y-12958210D02*
X13681860Y-12988210D01*
X13681860Y-13258210D02*
X13711860Y-13288210D01*
X13711860Y-13258210D02*
X13681860Y-13288210D01*
X13681860Y-13558210D02*
X13711860Y-13588210D01*
X13711860Y-13558210D02*
X13681860Y-13588210D01*
X13831860Y-6058210D02*
X13861860Y-6088210D01*
X13861860Y-6058210D02*
X13831860Y-6088210D01*
X13831860Y-6358210D02*
X13861860Y-6388210D01*
X13861860Y-6358210D02*
X13831860Y-6388210D01*
X13831860Y-6658210D02*
X13861860Y-6688210D01*
X13861860Y-6658210D02*
X13831860Y-6688210D01*
X13831860Y-6958210D02*
X13861860Y-6988210D01*
X13861860Y-6958210D02*
X13831860Y-6988210D01*
X13831860Y-14008210D02*
X13861860Y-14038210D01*
X13861860Y-14008210D02*
X13831860Y-14038210D01*
X13981860Y-8758210D02*
X14011860Y-8788210D01*
X14011860Y-8758210D02*
X13981860Y-8788210D01*
X13981860Y-9058210D02*
X14011860Y-9088210D01*
X14011860Y-9058210D02*
X13981860Y-9088210D01*
X13981860Y-9808210D02*
X14011860Y-9838210D01*
X14011860Y-9808210D02*
X13981860Y-9838210D01*
X13981860Y-10108210D02*
X14011860Y-10138210D01*
X14011860Y-10108210D02*
X13981860Y-10138210D01*
X13981860Y-10408210D02*
X14011860Y-10438210D01*
X14011860Y-10408210D02*
X13981860Y-10438210D01*
X13981860Y-10708210D02*
X14011860Y-10738210D01*
X14011860Y-10708210D02*
X13981860Y-10738210D01*
X13981860Y-11008210D02*
X14011860Y-11038210D01*
X14011860Y-11008210D02*
X13981860Y-11038210D01*
X13981860Y-11308210D02*
X14011860Y-11338210D01*
X14011860Y-11308210D02*
X13981860Y-11338210D01*
X13981860Y-11608210D02*
X14011860Y-11638210D01*
X14011860Y-11608210D02*
X13981860Y-11638210D01*
X13981860Y-11908210D02*
X14011860Y-11938210D01*
X14011860Y-11908210D02*
X13981860Y-11938210D01*
X13981860Y-12358210D02*
X14011860Y-12388210D01*
X14011860Y-12358210D02*
X13981860Y-12388210D01*
X13981860Y-12658210D02*
X14011860Y-12688210D01*
X14011860Y-12658210D02*
X13981860Y-12688210D01*
X13981860Y-12958210D02*
X14011860Y-12988210D01*
X14011860Y-12958210D02*
X13981860Y-12988210D01*
X13981860Y-13258210D02*
X14011860Y-13288210D01*
X14011860Y-13258210D02*
X13981860Y-13288210D01*
X13981860Y-13558210D02*
X14011860Y-13588210D01*
X14011860Y-13558210D02*
X13981860Y-13588210D01*
X14131860Y-6058210D02*
X14161860Y-6088210D01*
X14161860Y-6058210D02*
X14131860Y-6088210D01*
X14131860Y-6358210D02*
X14161860Y-6388210D01*
X14161860Y-6358210D02*
X14131860Y-6388210D01*
X14131860Y-6658210D02*
X14161860Y-6688210D01*
X14161860Y-6658210D02*
X14131860Y-6688210D01*
X14131860Y-6958210D02*
X14161860Y-6988210D01*
X14161860Y-6958210D02*
X14131860Y-6988210D01*
X14281860Y-9508210D02*
X14311860Y-9538210D01*
X14311860Y-9508210D02*
X14281860Y-9538210D01*
X14281860Y-9808210D02*
X14311860Y-9838210D01*
X14311860Y-9808210D02*
X14281860Y-9838210D01*
X14281860Y-10108210D02*
X14311860Y-10138210D01*
X14311860Y-10108210D02*
X14281860Y-10138210D01*
X14281860Y-10408210D02*
X14311860Y-10438210D01*
X14311860Y-10408210D02*
X14281860Y-10438210D01*
X14281860Y-10708210D02*
X14311860Y-10738210D01*
X14311860Y-10708210D02*
X14281860Y-10738210D01*
X14281860Y-11008210D02*
X14311860Y-11038210D01*
X14311860Y-11008210D02*
X14281860Y-11038210D01*
X14281860Y-11308210D02*
X14311860Y-11338210D01*
X14311860Y-11308210D02*
X14281860Y-11338210D01*
X14281860Y-11608210D02*
X14311860Y-11638210D01*
X14311860Y-11608210D02*
X14281860Y-11638210D01*
X14281860Y-12058210D02*
X14311860Y-12088210D01*
X14311860Y-12058210D02*
X14281860Y-12088210D01*
X14281860Y-12358210D02*
X14311860Y-12388210D01*
X14311860Y-12358210D02*
X14281860Y-12388210D01*
X14281860Y-12658210D02*
X14311860Y-12688210D01*
X14311860Y-12658210D02*
X14281860Y-12688210D01*
X14281860Y-12958210D02*
X14311860Y-12988210D01*
X14311860Y-12958210D02*
X14281860Y-12988210D01*
X14281860Y-13258210D02*
X14311860Y-13288210D01*
X14311860Y-13258210D02*
X14281860Y-13288210D01*
X14281860Y-13558210D02*
X14311860Y-13588210D01*
X14311860Y-13558210D02*
X14281860Y-13588210D01*
X14281860Y-13858210D02*
X14311860Y-13888210D01*
X14311860Y-13858210D02*
X14281860Y-13888210D01*
X14431860Y-6058210D02*
X14461860Y-6088210D01*
X14461860Y-6058210D02*
X14431860Y-6088210D01*
X14431860Y-6358210D02*
X14461860Y-6388210D01*
X14461860Y-6358210D02*
X14431860Y-6388210D01*
X14431860Y-6658210D02*
X14461860Y-6688210D01*
X14461860Y-6658210D02*
X14431860Y-6688210D01*
X14431860Y-6958210D02*
X14461860Y-6988210D01*
X14461860Y-6958210D02*
X14431860Y-6988210D01*
X14431860Y-8088690D02*
X14461860Y-8118690D01*
X14461860Y-8088690D02*
X14431860Y-8118690D01*
X14431860Y-8608210D02*
X14461860Y-8638210D01*
X14461860Y-8608210D02*
X14431860Y-8638210D01*
X14431860Y-9208210D02*
X14461860Y-9238210D01*
X14461860Y-9208210D02*
X14431860Y-9238210D01*
X14581860Y-9508210D02*
X14611860Y-9538210D01*
X14611860Y-9508210D02*
X14581860Y-9538210D01*
X14581860Y-9808210D02*
X14611860Y-9838210D01*
X14611860Y-9808210D02*
X14581860Y-9838210D01*
X14581860Y-10108210D02*
X14611860Y-10138210D01*
X14611860Y-10108210D02*
X14581860Y-10138210D01*
X14581860Y-10408210D02*
X14611860Y-10438210D01*
X14611860Y-10408210D02*
X14581860Y-10438210D01*
X14581860Y-10708210D02*
X14611860Y-10738210D01*
X14611860Y-10708210D02*
X14581860Y-10738210D01*
X14581860Y-11008210D02*
X14611860Y-11038210D01*
X14611860Y-11008210D02*
X14581860Y-11038210D01*
X14581860Y-11308210D02*
X14611860Y-11338210D01*
X14611860Y-11308210D02*
X14581860Y-11338210D01*
X14581860Y-11908210D02*
X14611860Y-11938210D01*
X14611860Y-11908210D02*
X14581860Y-11938210D01*
X14581860Y-12208210D02*
X14611860Y-12238210D01*
X14611860Y-12208210D02*
X14581860Y-12238210D01*
X14581860Y-12508210D02*
X14611860Y-12538210D01*
X14611860Y-12508210D02*
X14581860Y-12538210D01*
X14581860Y-12808210D02*
X14611860Y-12838210D01*
X14611860Y-12808210D02*
X14581860Y-12838210D01*
X14581860Y-13858210D02*
X14611860Y-13888210D01*
X14611860Y-13858210D02*
X14581860Y-13888210D01*
X14581860Y-14158210D02*
X14611860Y-14188210D01*
X14611860Y-14158210D02*
X14581860Y-14188210D01*
X14731860Y-6058210D02*
X14761860Y-6088210D01*
X14761860Y-6058210D02*
X14731860Y-6088210D01*
X14731860Y-6358210D02*
X14761860Y-6388210D01*
X14761860Y-6358210D02*
X14731860Y-6388210D01*
X14731860Y-6658210D02*
X14761860Y-6688210D01*
X14761860Y-6658210D02*
X14731860Y-6688210D01*
X14731860Y-6958210D02*
X14761860Y-6988210D01*
X14761860Y-6958210D02*
X14731860Y-6988210D01*
X14881860Y-8008210D02*
X14911860Y-8038210D01*
X14911860Y-8008210D02*
X14881860Y-8038210D01*
X14881860Y-8308210D02*
X14911860Y-8338210D01*
X14911860Y-8308210D02*
X14881860Y-8338210D01*
X14881860Y-8608210D02*
X14911860Y-8638210D01*
X14911860Y-8608210D02*
X14881860Y-8638210D01*
X14881860Y-8908210D02*
X14911860Y-8938210D01*
X14911860Y-8908210D02*
X14881860Y-8938210D01*
X14881860Y-9208210D02*
X14911860Y-9238210D01*
X14911860Y-9208210D02*
X14881860Y-9238210D01*
X14881860Y-9508210D02*
X14911860Y-9538210D01*
X14911860Y-9508210D02*
X14881860Y-9538210D01*
X14881860Y-9808210D02*
X14911860Y-9838210D01*
X14911860Y-9808210D02*
X14881860Y-9838210D01*
X14881860Y-10108210D02*
X14911860Y-10138210D01*
X14911860Y-10108210D02*
X14881860Y-10138210D01*
X14881860Y-10408210D02*
X14911860Y-10438210D01*
X14911860Y-10408210D02*
X14881860Y-10438210D01*
X14881860Y-10708210D02*
X14911860Y-10738210D01*
X14911860Y-10708210D02*
X14881860Y-10738210D01*
X14881860Y-11008210D02*
X14911860Y-11038210D01*
X14911860Y-11008210D02*
X14881860Y-11038210D01*
X14881860Y-11458210D02*
X14911860Y-11488210D01*
X14911860Y-11458210D02*
X14881860Y-11488210D01*
X14881860Y-11908210D02*
X14911860Y-11938210D01*
X14911860Y-11908210D02*
X14881860Y-11938210D01*
X14881860Y-12208210D02*
X14911860Y-12238210D01*
X14911860Y-12208210D02*
X14881860Y-12238210D01*
X14881860Y-12508210D02*
X14911860Y-12538210D01*
X14911860Y-12508210D02*
X14881860Y-12538210D01*
X14881860Y-12808210D02*
X14911860Y-12838210D01*
X14911860Y-12808210D02*
X14881860Y-12838210D01*
X14881860Y-13858210D02*
X14911860Y-13888210D01*
X14911860Y-13858210D02*
X14881860Y-13888210D01*
X15031860Y-6058210D02*
X15061860Y-6088210D01*
X15061860Y-6058210D02*
X15031860Y-6088210D01*
X15031860Y-6358210D02*
X15061860Y-6388210D01*
X15061860Y-6358210D02*
X15031860Y-6388210D01*
X15031860Y-6658210D02*
X15061860Y-6688210D01*
X15061860Y-6658210D02*
X15031860Y-6688210D01*
X15031860Y-6958210D02*
X15061860Y-6988210D01*
X15061860Y-6958210D02*
X15031860Y-6988210D01*
X15181860Y-11608210D02*
X15211860Y-11638210D01*
X15211860Y-11608210D02*
X15181860Y-11638210D01*
X15181860Y-11908210D02*
X15211860Y-11938210D01*
X15211860Y-11908210D02*
X15181860Y-11938210D01*
X15181860Y-12208210D02*
X15211860Y-12238210D01*
X15211860Y-12208210D02*
X15181860Y-12238210D01*
X15181860Y-12658210D02*
X15211860Y-12688210D01*
X15211860Y-12658210D02*
X15181860Y-12688210D01*
X15181860Y-12958210D02*
X15211860Y-12988210D01*
X15211860Y-12958210D02*
X15181860Y-12988210D01*
X15181860Y-13258210D02*
X15211860Y-13288210D01*
X15211860Y-13258210D02*
X15181860Y-13288210D01*
X15205150Y-12501080D02*
X15235150Y-12531080D01*
X15235150Y-12501080D02*
X15205150Y-12531080D01*
X15228130Y-12770170D02*
X15258130Y-12800170D01*
X15258130Y-12770170D02*
X15228130Y-12800170D01*
X15331860Y-6058210D02*
X15361860Y-6088210D01*
X15361860Y-6058210D02*
X15331860Y-6088210D01*
X15331860Y-6358210D02*
X15361860Y-6388210D01*
X15361860Y-6358210D02*
X15331860Y-6388210D01*
X15331860Y-6958210D02*
X15361860Y-6988210D01*
X15361860Y-6958210D02*
X15331860Y-6988210D01*
X15331860Y-13708210D02*
X15361860Y-13738210D01*
X15361860Y-13708210D02*
X15331860Y-13738210D01*
X15520770Y-13270150D02*
X15550770Y-13300150D01*
X15550770Y-13270150D02*
X15520770Y-13300150D01*
X15552500Y-13355750D02*
X15582500Y-13385750D01*
X15582500Y-13355750D02*
X15552500Y-13385750D01*
X15631860Y-6058210D02*
X15661860Y-6088210D01*
X15661860Y-6058210D02*
X15631860Y-6088210D01*
X15631860Y-6358210D02*
X15661860Y-6388210D01*
X15661860Y-6358210D02*
X15631860Y-6388210D01*
X15631860Y-6658210D02*
X15661860Y-6688210D01*
X15661860Y-6658210D02*
X15631860Y-6688210D01*
X15631860Y-6958210D02*
X15661860Y-6988210D01*
X15661860Y-6958210D02*
X15631860Y-6988210D01*
X15631860Y-12058210D02*
X15661860Y-12088210D01*
X15661860Y-12058210D02*
X15631860Y-12088210D01*
X15631860Y-12358210D02*
X15661860Y-12388210D01*
X15661860Y-12358210D02*
X15631860Y-12388210D01*
X15631860Y-12658210D02*
X15661860Y-12688210D01*
X15661860Y-12658210D02*
X15631860Y-12688210D01*
X15631860Y-13408210D02*
X15661860Y-13438210D01*
X15661860Y-13408210D02*
X15631860Y-13438210D01*
X15631860Y-13708210D02*
X15661860Y-13738210D01*
X15661860Y-13708210D02*
X15631860Y-13738210D01*
X15731860Y-8672830D02*
X15761860Y-8702830D01*
X15761860Y-8672830D02*
X15731860Y-8702830D01*
X15781860Y-11008210D02*
X15811860Y-11038210D01*
X15811860Y-11008210D02*
X15781860Y-11038210D01*
X15781860Y-11308210D02*
X15811860Y-11338210D01*
X15811860Y-11308210D02*
X15781860Y-11338210D01*
X15781860Y-11608210D02*
X15811860Y-11638210D01*
X15811860Y-11608210D02*
X15781860Y-11638210D01*
X15823870Y-11898120D02*
X15853870Y-11928120D01*
X15853870Y-11898120D02*
X15823870Y-11928120D01*
X15908700Y-12103840D02*
X15938700Y-12133840D01*
X15938700Y-12103840D02*
X15908700Y-12133840D01*
X15931860Y-6058210D02*
X15961860Y-6088210D01*
X15961860Y-6058210D02*
X15931860Y-6088210D01*
X15931860Y-6358210D02*
X15961860Y-6388210D01*
X15961860Y-6358210D02*
X15931860Y-6388210D01*
X15931860Y-6658210D02*
X15961860Y-6688210D01*
X15961860Y-6658210D02*
X15931860Y-6688210D01*
X15931860Y-6958210D02*
X15961860Y-6988210D01*
X15961860Y-6958210D02*
X15931860Y-6988210D01*
X15931860Y-12358210D02*
X15961860Y-12388210D01*
X15961860Y-12358210D02*
X15931860Y-12388210D01*
X15931860Y-12658210D02*
X15961860Y-12688210D01*
X15961860Y-12658210D02*
X15931860Y-12688210D01*
X15931860Y-12958210D02*
X15961860Y-12988210D01*
X15961860Y-12958210D02*
X15931860Y-12988210D01*
X16081860Y-10408210D02*
X16111860Y-10438210D01*
X16111860Y-10408210D02*
X16081860Y-10438210D01*
X16081860Y-10708210D02*
X16111860Y-10738210D01*
X16111860Y-10708210D02*
X16081860Y-10738210D01*
X16081860Y-11008210D02*
X16111860Y-11038210D01*
X16111860Y-11008210D02*
X16081860Y-11038210D01*
X16081860Y-11458210D02*
X16111860Y-11488210D01*
X16111860Y-11458210D02*
X16081860Y-11488210D01*
X16081860Y-11758210D02*
X16111860Y-11788210D01*
X16111860Y-11758210D02*
X16081860Y-11788210D01*
X16081860Y-13408210D02*
X16111860Y-13438210D01*
X16111860Y-13408210D02*
X16081860Y-13438210D01*
X16231860Y-6058210D02*
X16261860Y-6088210D01*
X16261860Y-6058210D02*
X16231860Y-6088210D01*
X16231860Y-6358210D02*
X16261860Y-6388210D01*
X16261860Y-6358210D02*
X16231860Y-6388210D01*
X16231860Y-6658210D02*
X16261860Y-6688210D01*
X16261860Y-6658210D02*
X16231860Y-6688210D01*
X16231860Y-6958210D02*
X16261860Y-6988210D01*
X16261860Y-6958210D02*
X16231860Y-6988210D01*
X16231860Y-12058210D02*
X16261860Y-12088210D01*
X16261860Y-12058210D02*
X16231860Y-12088210D01*
X16231860Y-12658210D02*
X16261860Y-12688210D01*
X16261860Y-12658210D02*
X16231860Y-12688210D01*
X16231860Y-12958210D02*
X16261860Y-12988210D01*
X16261860Y-12958210D02*
X16231860Y-12988210D01*
X16231860Y-13708210D02*
X16261860Y-13738210D01*
X16261860Y-13708210D02*
X16231860Y-13738210D01*
X16381860Y-8008210D02*
X16411860Y-8038210D01*
X16411860Y-8008210D02*
X16381860Y-8038210D01*
X16381860Y-8308210D02*
X16411860Y-8338210D01*
X16411860Y-8308210D02*
X16381860Y-8338210D01*
X16381860Y-8608210D02*
X16411860Y-8638210D01*
X16411860Y-8608210D02*
X16381860Y-8638210D01*
X16381860Y-8908210D02*
X16411860Y-8938210D01*
X16411860Y-8908210D02*
X16381860Y-8938210D01*
X16381860Y-9208210D02*
X16411860Y-9238210D01*
X16411860Y-9208210D02*
X16381860Y-9238210D01*
X16381860Y-9508210D02*
X16411860Y-9538210D01*
X16411860Y-9508210D02*
X16381860Y-9538210D01*
X16381860Y-9958210D02*
X16411860Y-9988210D01*
X16411860Y-9958210D02*
X16381860Y-9988210D01*
X16381860Y-10258210D02*
X16411860Y-10288210D01*
X16411860Y-10258210D02*
X16381860Y-10288210D01*
X16381860Y-10708210D02*
X16411860Y-10738210D01*
X16411860Y-10708210D02*
X16381860Y-10738210D01*
X16381860Y-11008210D02*
X16411860Y-11038210D01*
X16411860Y-11008210D02*
X16381860Y-11038210D01*
X16381860Y-11758210D02*
X16411860Y-11788210D01*
X16411860Y-11758210D02*
X16381860Y-11788210D01*
X16381860Y-13408210D02*
X16411860Y-13438210D01*
X16411860Y-13408210D02*
X16381860Y-13438210D01*
X16531860Y-6058210D02*
X16561860Y-6088210D01*
X16561860Y-6058210D02*
X16531860Y-6088210D01*
X16531860Y-6358210D02*
X16561860Y-6388210D01*
X16561860Y-6358210D02*
X16531860Y-6388210D01*
X16531860Y-6658210D02*
X16561860Y-6688210D01*
X16561860Y-6658210D02*
X16531860Y-6688210D01*
X16531860Y-6958210D02*
X16561860Y-6988210D01*
X16561860Y-6958210D02*
X16531860Y-6988210D01*
X16531860Y-7258210D02*
X16561860Y-7288210D01*
X16561860Y-7258210D02*
X16531860Y-7288210D01*
X16531860Y-12058210D02*
X16561860Y-12088210D01*
X16561860Y-12058210D02*
X16531860Y-12088210D01*
X16531860Y-12358210D02*
X16561860Y-12388210D01*
X16561860Y-12358210D02*
X16531860Y-12388210D01*
X16681860Y-7558210D02*
X16711860Y-7588210D01*
X16711860Y-7558210D02*
X16681860Y-7588210D01*
X16681860Y-7858210D02*
X16711860Y-7888210D01*
X16711860Y-7858210D02*
X16681860Y-7888210D01*
X16681860Y-8308210D02*
X16711860Y-8338210D01*
X16711860Y-8308210D02*
X16681860Y-8338210D01*
X16681860Y-8758210D02*
X16711860Y-8788210D01*
X16711860Y-8758210D02*
X16681860Y-8788210D01*
X16681860Y-9058210D02*
X16711860Y-9088210D01*
X16711860Y-9058210D02*
X16681860Y-9088210D01*
X16681860Y-9358210D02*
X16711860Y-9388210D01*
X16711860Y-9358210D02*
X16681860Y-9388210D01*
X16681860Y-9808210D02*
X16711860Y-9838210D01*
X16711860Y-9808210D02*
X16681860Y-9838210D01*
X16681860Y-10258210D02*
X16711860Y-10288210D01*
X16711860Y-10258210D02*
X16681860Y-10288210D01*
X16681860Y-10558210D02*
X16711860Y-10588210D01*
X16711860Y-10558210D02*
X16681860Y-10588210D01*
X16681860Y-11008210D02*
X16711860Y-11038210D01*
X16711860Y-11008210D02*
X16681860Y-11038210D01*
X16681860Y-11308210D02*
X16711860Y-11338210D01*
X16711860Y-11308210D02*
X16681860Y-11338210D01*
X16681860Y-12808210D02*
X16711860Y-12838210D01*
X16711860Y-12808210D02*
X16681860Y-12838210D01*
X16681860Y-13108210D02*
X16711860Y-13138210D01*
X16711860Y-13108210D02*
X16681860Y-13138210D01*
X16681860Y-13408210D02*
X16711860Y-13438210D01*
X16711860Y-13408210D02*
X16681860Y-13438210D01*
X16681860Y-13708210D02*
X16711860Y-13738210D01*
X16711860Y-13708210D02*
X16681860Y-13738210D01*
X16831860Y-6058210D02*
X16861860Y-6088210D01*
X16861860Y-6058210D02*
X16831860Y-6088210D01*
X16831860Y-6358210D02*
X16861860Y-6388210D01*
X16861860Y-6358210D02*
X16831860Y-6388210D01*
X16831860Y-6658210D02*
X16861860Y-6688210D01*
X16861860Y-6658210D02*
X16831860Y-6688210D01*
X16831860Y-6958210D02*
X16861860Y-6988210D01*
X16861860Y-6958210D02*
X16831860Y-6988210D01*
X16831860Y-7258210D02*
X16861860Y-7288210D01*
X16861860Y-7258210D02*
X16831860Y-7288210D01*
X16831860Y-12208210D02*
X16861860Y-12238210D01*
X16861860Y-12208210D02*
X16831860Y-12238210D01*
X16831860Y-12508210D02*
X16861860Y-12538210D01*
X16861860Y-12508210D02*
X16831860Y-12538210D01*
X16981860Y-7558210D02*
X17011860Y-7588210D01*
X17011860Y-7558210D02*
X16981860Y-7588210D01*
X16981860Y-7858210D02*
X17011860Y-7888210D01*
X17011860Y-7858210D02*
X16981860Y-7888210D01*
X16981860Y-8158210D02*
X17011860Y-8188210D01*
X17011860Y-8158210D02*
X16981860Y-8188210D01*
X16981860Y-8608210D02*
X17011860Y-8638210D01*
X17011860Y-8608210D02*
X16981860Y-8638210D01*
X16981860Y-9058210D02*
X17011860Y-9088210D01*
X17011860Y-9058210D02*
X16981860Y-9088210D01*
X16981860Y-9358210D02*
X17011860Y-9388210D01*
X17011860Y-9358210D02*
X16981860Y-9388210D01*
X16981860Y-9658210D02*
X17011860Y-9688210D01*
X17011860Y-9658210D02*
X16981860Y-9688210D01*
X16981860Y-10108210D02*
X17011860Y-10138210D01*
X17011860Y-10108210D02*
X16981860Y-10138210D01*
X16981860Y-10558210D02*
X17011860Y-10588210D01*
X17011860Y-10558210D02*
X16981860Y-10588210D01*
X16981860Y-10858210D02*
X17011860Y-10888210D01*
X17011860Y-10858210D02*
X16981860Y-10888210D01*
X16981860Y-11308210D02*
X17011860Y-11338210D01*
X17011860Y-11308210D02*
X16981860Y-11338210D01*
X16981860Y-11608210D02*
X17011860Y-11638210D01*
X17011860Y-11608210D02*
X16981860Y-11638210D01*
X17131860Y-6058210D02*
X17161860Y-6088210D01*
X17161860Y-6058210D02*
X17131860Y-6088210D01*
X17131860Y-6358210D02*
X17161860Y-6388210D01*
X17161860Y-6358210D02*
X17131860Y-6388210D01*
X17131860Y-6658210D02*
X17161860Y-6688210D01*
X17161860Y-6658210D02*
X17131860Y-6688210D01*
X17131860Y-6958210D02*
X17161860Y-6988210D01*
X17161860Y-6958210D02*
X17131860Y-6988210D01*
X17131860Y-7258210D02*
X17161860Y-7288210D01*
X17161860Y-7258210D02*
X17131860Y-7288210D01*
X17131860Y-12958210D02*
X17161860Y-12988210D01*
X17161860Y-12958210D02*
X17131860Y-12988210D01*
X17281860Y-7558210D02*
X17311860Y-7588210D01*
X17311860Y-7558210D02*
X17281860Y-7588210D01*
X17281860Y-7858210D02*
X17311860Y-7888210D01*
X17311860Y-7858210D02*
X17281860Y-7888210D01*
X17281860Y-8158210D02*
X17311860Y-8188210D01*
X17311860Y-8158210D02*
X17281860Y-8188210D01*
X17281860Y-8458210D02*
X17311860Y-8488210D01*
X17311860Y-8458210D02*
X17281860Y-8488210D01*
X17281860Y-9658210D02*
X17311860Y-9688210D01*
X17311860Y-9658210D02*
X17281860Y-9688210D01*
X17281860Y-10408210D02*
X17311860Y-10438210D01*
X17311860Y-10408210D02*
X17281860Y-10438210D01*
X17281860Y-13858210D02*
X17311860Y-13888210D01*
X17311860Y-13858210D02*
X17281860Y-13888210D01*
X13231861Y-7173210D02*
G75*
G02*
X13161859Y-7173210I-35001J0D01*
G01*
X13161859Y-7173210D02*
G75*
G02*
X13231861Y-7173210I35001J0D01*
G01*
X13231861Y-7823210D02*
G75*
G02*
X13161859Y-7823210I-35001J0D01*
G01*
X13161859Y-7823210D02*
G75*
G02*
X13231861Y-7823210I35001J0D01*
G01*
X13331861Y-7373210D02*
G75*
G02*
X13261859Y-7373210I-35001J0D01*
G01*
X13261859Y-7373210D02*
G75*
G02*
X13331861Y-7373210I35001J0D01*
G01*
X13331861Y-7623210D02*
G75*
G02*
X13261859Y-7623210I-35001J0D01*
G01*
X13261859Y-7623210D02*
G75*
G02*
X13331861Y-7623210I35001J0D01*
G01*
X13431861Y-7173210D02*
G75*
G02*
X13361859Y-7173210I-35001J0D01*
G01*
X13361859Y-7173210D02*
G75*
G02*
X13431861Y-7173210I35001J0D01*
G01*
X13431861Y-7823210D02*
G75*
G02*
X13361859Y-7823210I-35001J0D01*
G01*
X13361859Y-7823210D02*
G75*
G02*
X13431861Y-7823210I35001J0D01*
G01*
X13531861Y-7373210D02*
G75*
G02*
X13461859Y-7373210I-35001J0D01*
G01*
X13461859Y-7373210D02*
G75*
G02*
X13531861Y-7373210I35001J0D01*
G01*
X13531861Y-7623210D02*
G75*
G02*
X13461859Y-7623210I-35001J0D01*
G01*
X13461859Y-7623210D02*
G75*
G02*
X13531861Y-7623210I35001J0D01*
G01*
X13631861Y-7173210D02*
G75*
G02*
X13561859Y-7173210I-35001J0D01*
G01*
X13561859Y-7173210D02*
G75*
G02*
X13631861Y-7173210I35001J0D01*
G01*
X13631861Y-7823210D02*
G75*
G02*
X13561859Y-7823210I-35001J0D01*
G01*
X13561859Y-7823210D02*
G75*
G02*
X13631861Y-7823210I35001J0D01*
G01*
X13731861Y-7373210D02*
G75*
G02*
X13661859Y-7373210I-35001J0D01*
G01*
X13661859Y-7373210D02*
G75*
G02*
X13731861Y-7373210I35001J0D01*
G01*
X13731861Y-7623210D02*
G75*
G02*
X13661859Y-7623210I-35001J0D01*
G01*
X13661859Y-7623210D02*
G75*
G02*
X13731861Y-7623210I35001J0D01*
G01*
X13831861Y-7173210D02*
G75*
G02*
X13761859Y-7173210I-35001J0D01*
G01*
X13761859Y-7173210D02*
G75*
G02*
X13831861Y-7173210I35001J0D01*
G01*
X13831861Y-7823210D02*
G75*
G02*
X13761859Y-7823210I-35001J0D01*
G01*
X13761859Y-7823210D02*
G75*
G02*
X13831861Y-7823210I35001J0D01*
G01*
X13931861Y-7373210D02*
G75*
G02*
X13861859Y-7373210I-35001J0D01*
G01*
X13861859Y-7373210D02*
G75*
G02*
X13931861Y-7373210I35001J0D01*
G01*
X13931861Y-7623210D02*
G75*
G02*
X13861859Y-7623210I-35001J0D01*
G01*
X13861859Y-7623210D02*
G75*
G02*
X13931861Y-7623210I35001J0D01*
G01*
X14031861Y-7173210D02*
G75*
G02*
X13961859Y-7173210I-35001J0D01*
G01*
X13961859Y-7173210D02*
G75*
G02*
X14031861Y-7173210I35001J0D01*
G01*
X14031861Y-7823210D02*
G75*
G02*
X13961859Y-7823210I-35001J0D01*
G01*
X13961859Y-7823210D02*
G75*
G02*
X14031861Y-7823210I35001J0D01*
G01*
X14131861Y-7373210D02*
G75*
G02*
X14061859Y-7373210I-35001J0D01*
G01*
X14061859Y-7373210D02*
G75*
G02*
X14131861Y-7373210I35001J0D01*
G01*
X14131861Y-7623210D02*
G75*
G02*
X14061859Y-7623210I-35001J0D01*
G01*
X14061859Y-7623210D02*
G75*
G02*
X14131861Y-7623210I35001J0D01*
G01*
X14231861Y-7173210D02*
G75*
G02*
X14161859Y-7173210I-35001J0D01*
G01*
X14161859Y-7173210D02*
G75*
G02*
X14231861Y-7173210I35001J0D01*
G01*
X14231861Y-7823210D02*
G75*
G02*
X14161859Y-7823210I-35001J0D01*
G01*
X14161859Y-7823210D02*
G75*
G02*
X14231861Y-7823210I35001J0D01*
G01*
X14331861Y-7373210D02*
G75*
G02*
X14261859Y-7373210I-35001J0D01*
G01*
X14261859Y-7373210D02*
G75*
G02*
X14331861Y-7373210I35001J0D01*
G01*
X14331861Y-7623210D02*
G75*
G02*
X14261859Y-7623210I-35001J0D01*
G01*
X14261859Y-7623210D02*
G75*
G02*
X14331861Y-7623210I35001J0D01*
G01*
X14431861Y-7173210D02*
G75*
G02*
X14361859Y-7173210I-35001J0D01*
G01*
X14361859Y-7173210D02*
G75*
G02*
X14431861Y-7173210I35001J0D01*
G01*
X14431861Y-7823210D02*
G75*
G02*
X14361859Y-7823210I-35001J0D01*
G01*
X14361859Y-7823210D02*
G75*
G02*
X14431861Y-7823210I35001J0D01*
G01*
X14531861Y-7373210D02*
G75*
G02*
X14461859Y-7373210I-35001J0D01*
G01*
X14461859Y-7373210D02*
G75*
G02*
X14531861Y-7373210I35001J0D01*
G01*
X14531861Y-7623210D02*
G75*
G02*
X14461859Y-7623210I-35001J0D01*
G01*
X14461859Y-7623210D02*
G75*
G02*
X14531861Y-7623210I35001J0D01*
G01*
X14631861Y-7173210D02*
G75*
G02*
X14561859Y-7173210I-35001J0D01*
G01*
X14561859Y-7173210D02*
G75*
G02*
X14631861Y-7173210I35001J0D01*
G01*
X14631861Y-7823210D02*
G75*
G02*
X14561859Y-7823210I-35001J0D01*
G01*
X14561859Y-7823210D02*
G75*
G02*
X14631861Y-7823210I35001J0D01*
G01*
X14731861Y-7373210D02*
G75*
G02*
X14661859Y-7373210I-35001J0D01*
G01*
X14661859Y-7373210D02*
G75*
G02*
X14731861Y-7373210I35001J0D01*
G01*
X14731861Y-7623210D02*
G75*
G02*
X14661859Y-7623210I-35001J0D01*
G01*
X14661859Y-7623210D02*
G75*
G02*
X14731861Y-7623210I35001J0D01*
G01*
X14831861Y-7173210D02*
G75*
G02*
X14761859Y-7173210I-35001J0D01*
G01*
X14761859Y-7173210D02*
G75*
G02*
X14831861Y-7173210I35001J0D01*
G01*
X14831861Y-7823210D02*
G75*
G02*
X14761859Y-7823210I-35001J0D01*
G01*
X14761859Y-7823210D02*
G75*
G02*
X14831861Y-7823210I35001J0D01*
G01*
X14931861Y-7373210D02*
G75*
G02*
X14861859Y-7373210I-35001J0D01*
G01*
X14861859Y-7373210D02*
G75*
G02*
X14931861Y-7373210I35001J0D01*
G01*
X14931861Y-7623210D02*
G75*
G02*
X14861859Y-7623210I-35001J0D01*
G01*
X14861859Y-7623210D02*
G75*
G02*
X14931861Y-7623210I35001J0D01*
G01*
X15031861Y-7173210D02*
G75*
G02*
X14961859Y-7173210I-35001J0D01*
G01*
X14961859Y-7173210D02*
G75*
G02*
X15031861Y-7173210I35001J0D01*
G01*
X15031861Y-7823210D02*
G75*
G02*
X14961859Y-7823210I-35001J0D01*
G01*
X14961859Y-7823210D02*
G75*
G02*
X15031861Y-7823210I35001J0D01*
G01*
X15131861Y-7373210D02*
G75*
G02*
X15061859Y-7373210I-35001J0D01*
G01*
X15061859Y-7373210D02*
G75*
G02*
X15131861Y-7373210I35001J0D01*
G01*
X15131861Y-7623210D02*
G75*
G02*
X15061859Y-7623210I-35001J0D01*
G01*
X15061859Y-7623210D02*
G75*
G02*
X15131861Y-7623210I35001J0D01*
G01*
X15231861Y-7173210D02*
G75*
G02*
X15161859Y-7173210I-35001J0D01*
G01*
X15161859Y-7173210D02*
G75*
G02*
X15231861Y-7173210I35001J0D01*
G01*
X15231861Y-7823210D02*
G75*
G02*
X15161859Y-7823210I-35001J0D01*
G01*
X15161859Y-7823210D02*
G75*
G02*
X15231861Y-7823210I35001J0D01*
G01*
X15531861Y-7373210D02*
G75*
G02*
X15461859Y-7373210I-35001J0D01*
G01*
X15461859Y-7373210D02*
G75*
G02*
X15531861Y-7373210I35001J0D01*
G01*
X15531861Y-7623210D02*
G75*
G02*
X15461859Y-7623210I-35001J0D01*
G01*
X15461859Y-7623210D02*
G75*
G02*
X15531861Y-7623210I35001J0D01*
G01*
X15631861Y-7173210D02*
G75*
G02*
X15561859Y-7173210I-35001J0D01*
G01*
X15561859Y-7173210D02*
G75*
G02*
X15631861Y-7173210I35001J0D01*
G01*
X15631861Y-7823210D02*
G75*
G02*
X15561859Y-7823210I-35001J0D01*
G01*
X15561859Y-7823210D02*
G75*
G02*
X15631861Y-7823210I35001J0D01*
G01*
X15731861Y-7373210D02*
G75*
G02*
X15661859Y-7373210I-35001J0D01*
G01*
X15661859Y-7373210D02*
G75*
G02*
X15731861Y-7373210I35001J0D01*
G01*
X15731861Y-7623210D02*
G75*
G02*
X15661859Y-7623210I-35001J0D01*
G01*
X15661859Y-7623210D02*
G75*
G02*
X15731861Y-7623210I35001J0D01*
G01*
X15831861Y-7173210D02*
G75*
G02*
X15761859Y-7173210I-35001J0D01*
G01*
X15761859Y-7173210D02*
G75*
G02*
X15831861Y-7173210I35001J0D01*
G01*
X15831861Y-7823210D02*
G75*
G02*
X15761859Y-7823210I-35001J0D01*
G01*
X15761859Y-7823210D02*
G75*
G02*
X15831861Y-7823210I35001J0D01*
G01*
X15931861Y-7373210D02*
G75*
G02*
X15861859Y-7373210I-35001J0D01*
G01*
X15861859Y-7373210D02*
G75*
G02*
X15931861Y-7373210I35001J0D01*
G01*
X15931861Y-7623210D02*
G75*
G02*
X15861859Y-7623210I-35001J0D01*
G01*
X15861859Y-7623210D02*
G75*
G02*
X15931861Y-7623210I35001J0D01*
G01*
X16031861Y-7173210D02*
G75*
G02*
X15961859Y-7173210I-35001J0D01*
G01*
X15961859Y-7173210D02*
G75*
G02*
X16031861Y-7173210I35001J0D01*
G01*
X16031861Y-7823210D02*
G75*
G02*
X15961859Y-7823210I-35001J0D01*
G01*
X15961859Y-7823210D02*
G75*
G02*
X16031861Y-7823210I35001J0D01*
G01*
X16131861Y-7373210D02*
G75*
G02*
X16061859Y-7373210I-35001J0D01*
G01*
X16061859Y-7373210D02*
G75*
G02*
X16131861Y-7373210I35001J0D01*
G01*
X16131861Y-7623210D02*
G75*
G02*
X16061859Y-7623210I-35001J0D01*
G01*
X16061859Y-7623210D02*
G75*
G02*
X16131861Y-7623210I35001J0D01*
G01*
X16231861Y-7173210D02*
G75*
G02*
X16161859Y-7173210I-35001J0D01*
G01*
X16161859Y-7173210D02*
G75*
G02*
X16231861Y-7173210I35001J0D01*
G01*
X16231861Y-7823210D02*
G75*
G02*
X16161859Y-7823210I-35001J0D01*
G01*
X16161859Y-7823210D02*
G75*
G02*
X16231861Y-7823210I35001J0D01*
G01*
X16331861Y-7373210D02*
G75*
G02*
X16261859Y-7373210I-35001J0D01*
G01*
X16261859Y-7373210D02*
G75*
G02*
X16331861Y-7373210I35001J0D01*
G01*
X16331861Y-7623210D02*
G75*
G02*
X16261859Y-7623210I-35001J0D01*
G01*
X16261859Y-7623210D02*
G75*
G02*
X16331861Y-7623210I35001J0D01*
G01*
X16431861Y-7173210D02*
G75*
G02*
X16361859Y-7173210I-35001J0D01*
G01*
X16361859Y-7173210D02*
G75*
G02*
X16431861Y-7173210I35001J0D01*
G01*
X16431861Y-7823210D02*
G75*
G02*
X16361859Y-7823210I-35001J0D01*
G01*
X16361859Y-7823210D02*
G75*
G02*
X16431861Y-7823210I35001J0D01*
G01*
X16531861Y-7373210D02*
G75*
G02*
X16461859Y-7373210I-35001J0D01*
G01*
X16461859Y-7373210D02*
G75*
G02*
X16531861Y-7373210I35001J0D01*
G01*
X16531861Y-7623210D02*
G75*
G02*
X16461859Y-7623210I-35001J0D01*
G01*
X16461859Y-7623210D02*
G75*
G02*
X16531861Y-7623210I35001J0D01*
G01*
X12449760Y-8741780D02*
X12449760Y-8840840D01*
X12400230Y-8791310D02*
X12499290Y-8791310D01*
X12449760Y-8995780D02*
X12449760Y-9094840D01*
X12400230Y-9045310D02*
X12499290Y-9045310D01*
X12449760Y-9249780D02*
X12449760Y-9348840D01*
X12400230Y-9299310D02*
X12499290Y-9299310D01*
X12449760Y-9503780D02*
X12449760Y-9602840D01*
X12400230Y-9553310D02*
X12499290Y-9553310D01*
X12449760Y-9757780D02*
X12449760Y-9856840D01*
X12400230Y-9807310D02*
X12499290Y-9807310D01*
X12449760Y-10011780D02*
X12449760Y-10110840D01*
X12400230Y-10061310D02*
X12499290Y-10061310D01*
X12449760Y-10265780D02*
X12449760Y-10364840D01*
X12400230Y-10315310D02*
X12499290Y-10315310D01*
X12449760Y-10519780D02*
X12449760Y-10618840D01*
X12400230Y-10569310D02*
X12499290Y-10569310D01*
X12449760Y-10773780D02*
X12449760Y-10872840D01*
X12400230Y-10823310D02*
X12499290Y-10823310D01*
X12449760Y-11027780D02*
X12449760Y-11126840D01*
X12400230Y-11077310D02*
X12499290Y-11077310D01*
X12449760Y-11281780D02*
X12449760Y-11380840D01*
X12400230Y-11331310D02*
X12499290Y-11331310D01*
X12449760Y-11535780D02*
X12449760Y-11634840D01*
X12400230Y-11585310D02*
X12499290Y-11585310D01*
X12449760Y-11789780D02*
X12449760Y-11888840D01*
X12400230Y-11839310D02*
X12499290Y-11839310D01*
X12449760Y-12043780D02*
X12449760Y-12142840D01*
X12400230Y-12093310D02*
X12499290Y-12093310D01*
X12449760Y-12297780D02*
X12449760Y-12396840D01*
X12400230Y-12347310D02*
X12499290Y-12347310D01*
X12449760Y-12551780D02*
X12449760Y-12650840D01*
X12400230Y-12601310D02*
X12499290Y-12601310D01*
X12449760Y-12805780D02*
X12449760Y-12904840D01*
X12400230Y-12855310D02*
X12499290Y-12855310D01*
X12449760Y-13059780D02*
X12449760Y-13158840D01*
X12400230Y-13109310D02*
X12499290Y-13109310D01*
X12449760Y-13313780D02*
X12449760Y-13412840D01*
X12400230Y-13363310D02*
X12499290Y-13363310D01*
X12449760Y-13567780D02*
X12449760Y-13666840D01*
X12400230Y-13617310D02*
X12499290Y-13617310D01*
X12449760Y-14075780D02*
X12449760Y-14174840D01*
X12400230Y-14125310D02*
X12499290Y-14125310D01*
X12703760Y-14075780D02*
X12703760Y-14174840D01*
X12654230Y-14125310D02*
X12753290Y-14125310D01*
X12957760Y-14075780D02*
X12957760Y-14174840D01*
X12908230Y-14125310D02*
X13007290Y-14125310D01*
X13211760Y-14075780D02*
X13211760Y-14174840D01*
X13162230Y-14125310D02*
X13261290Y-14125310D01*
X13465760Y-14075780D02*
X13465760Y-14174840D01*
X13416230Y-14125310D02*
X13515290Y-14125310D01*
X13719760Y-14075780D02*
X13719760Y-14174840D01*
X13670230Y-14125310D02*
X13769290Y-14125310D01*
X13973760Y-14075780D02*
X13973760Y-14174840D01*
X13924230Y-14125310D02*
X14023290Y-14125310D01*
X14227760Y-14075780D02*
X14227760Y-14174840D01*
X14178230Y-14125310D02*
X14277290Y-14125310D01*
X14481760Y-14075780D02*
X14481760Y-14174840D01*
X14432230Y-14125310D02*
X14531290Y-14125310D01*
X14735760Y-14075780D02*
X14735760Y-14174840D01*
X14686230Y-14125310D02*
X14785290Y-14125310D01*
X14989760Y-14075780D02*
X14989760Y-14174840D01*
X14940230Y-14125310D02*
X15039290Y-14125310D01*
X15243760Y-14075780D02*
X15243760Y-14174840D01*
X15194230Y-14125310D02*
X15293290Y-14125310D01*
X15497760Y-14075780D02*
X15497760Y-14174840D01*
X15448230Y-14125310D02*
X15547290Y-14125310D01*
X15751760Y-14075780D02*
X15751760Y-14174840D01*
X15702230Y-14125310D02*
X15801290Y-14125310D01*
X16005760Y-14075780D02*
X16005760Y-14174840D01*
X15956230Y-14125310D02*
X16055290Y-14125310D01*
X16259760Y-14075780D02*
X16259760Y-14174840D01*
X16210230Y-14125310D02*
X16309290Y-14125310D01*
X16513760Y-14075780D02*
X16513760Y-14174840D01*
X16464230Y-14125310D02*
X16563290Y-14125310D01*
X16767760Y-14075780D02*
X16767760Y-14174840D01*
X16718230Y-14125310D02*
X16817290Y-14125310D01*
X17021760Y-14075780D02*
X17021760Y-14174840D01*
X16972230Y-14125310D02*
X17071290Y-14125310D01*
X17275760Y-8741780D02*
X17275760Y-8840840D01*
X17226230Y-8791310D02*
X17325290Y-8791310D01*
X17275760Y-8995780D02*
X17275760Y-9094840D01*
X17226230Y-9045310D02*
X17325290Y-9045310D01*
X17275760Y-9249780D02*
X17275760Y-9348840D01*
X17226230Y-9299310D02*
X17325290Y-9299310D01*
X17275760Y-9503780D02*
X17275760Y-9602840D01*
X17226230Y-9553310D02*
X17325290Y-9553310D01*
X17275760Y-9757780D02*
X17275760Y-9856840D01*
X17226230Y-9807310D02*
X17325290Y-9807310D01*
X17275760Y-10011780D02*
X17275760Y-10110840D01*
X17226230Y-10061310D02*
X17325290Y-10061310D01*
X17275760Y-10265780D02*
X17275760Y-10364840D01*
X17226230Y-10315310D02*
X17325290Y-10315310D01*
X17275760Y-10519780D02*
X17275760Y-10618840D01*
X17226230Y-10569310D02*
X17325290Y-10569310D01*
X17275760Y-10773780D02*
X17275760Y-10872840D01*
X17226230Y-10823310D02*
X17325290Y-10823310D01*
X17275760Y-11027780D02*
X17275760Y-11126840D01*
X17226230Y-11077310D02*
X17325290Y-11077310D01*
X17275760Y-11281780D02*
X17275760Y-11380840D01*
X17226230Y-11331310D02*
X17325290Y-11331310D01*
X17275760Y-11535780D02*
X17275760Y-11634840D01*
X17226230Y-11585310D02*
X17325290Y-11585310D01*
X17275760Y-11789780D02*
X17275760Y-11888840D01*
X17226230Y-11839310D02*
X17325290Y-11839310D01*
X17275760Y-12043780D02*
X17275760Y-12142840D01*
X17226230Y-12093310D02*
X17325290Y-12093310D01*
X17275760Y-12297780D02*
X17275760Y-12396840D01*
X17226230Y-12347310D02*
X17325290Y-12347310D01*
X17275760Y-12551780D02*
X17275760Y-12650840D01*
X17226230Y-12601310D02*
X17325290Y-12601310D01*
X17275760Y-12805780D02*
X17275760Y-12904840D01*
X17226230Y-12855310D02*
X17325290Y-12855310D01*
X17275760Y-13059780D02*
X17275760Y-13158840D01*
X17226230Y-13109310D02*
X17325290Y-13109310D01*
X17275760Y-13313780D02*
X17275760Y-13412840D01*
X17226230Y-13363310D02*
X17325290Y-13363310D01*
X17275760Y-13567780D02*
X17275760Y-13666840D01*
X17226230Y-13617310D02*
X17325290Y-13617310D01*
X17275760Y-14075780D02*
X17275760Y-14174840D01*
X17226230Y-14125310D02*
X17325290Y-14125310D01*
D13*
X14856097Y-13483647D02*
X14856097Y-13242973D01*
X14615423Y-13242973D01*
X14615423Y-13483647D01*
X14856097Y-13483647D01*
D11*
X12405137Y-14687194D02*
X12405137Y-14487194D01*
X12405137Y-14487194D02*
X12452756Y-14487194D01*
X12452756Y-14487194D02*
X12481327Y-14496718D01*
X12481327Y-14496718D02*
X12500375Y-14515765D01*
X12500375Y-14515765D02*
X12509899Y-14534813D01*
X12509899Y-14534813D02*
X12519422Y-14572908D01*
X12519422Y-14572908D02*
X12519422Y-14601479D01*
X12519422Y-14601479D02*
X12509899Y-14639575D01*
X12509899Y-14639575D02*
X12500375Y-14658622D01*
X12500375Y-14658622D02*
X12481327Y-14677670D01*
X12481327Y-14677670D02*
X12452756Y-14687194D01*
X12452756Y-14687194D02*
X12405137Y-14687194D01*
X12605137Y-14687194D02*
X12605137Y-14553860D01*
X12605137Y-14591956D02*
X12614661Y-14572908D01*
X12614661Y-14572908D02*
X12624184Y-14563384D01*
X12624184Y-14563384D02*
X12643232Y-14553860D01*
X12643232Y-14553860D02*
X12662280Y-14553860D01*
X12728946Y-14687194D02*
X12728946Y-14553860D01*
X12728946Y-14487194D02*
X12719422Y-14496718D01*
X12719422Y-14496718D02*
X12728946Y-14506241D01*
X12728946Y-14506241D02*
X12738470Y-14496718D01*
X12738470Y-14496718D02*
X12728946Y-14487194D01*
X12728946Y-14487194D02*
X12728946Y-14506241D01*
X12852756Y-14687194D02*
X12833708Y-14677670D01*
X12833708Y-14677670D02*
X12824184Y-14658622D01*
X12824184Y-14658622D02*
X12824184Y-14487194D01*
X12957518Y-14687194D02*
X12938470Y-14677670D01*
X12938470Y-14677670D02*
X12928946Y-14658622D01*
X12928946Y-14658622D02*
X12928946Y-14487194D01*
X13186089Y-14687194D02*
X13186089Y-14487194D01*
X13186089Y-14487194D02*
X13252756Y-14630051D01*
X13252756Y-14630051D02*
X13319422Y-14487194D01*
X13319422Y-14487194D02*
X13319422Y-14687194D01*
X13500375Y-14687194D02*
X13500375Y-14582432D01*
X13500375Y-14582432D02*
X13490851Y-14563384D01*
X13490851Y-14563384D02*
X13471803Y-14553860D01*
X13471803Y-14553860D02*
X13433708Y-14553860D01*
X13433708Y-14553860D02*
X13414661Y-14563384D01*
X13500375Y-14677670D02*
X13481327Y-14687194D01*
X13481327Y-14687194D02*
X13433708Y-14687194D01*
X13433708Y-14687194D02*
X13414661Y-14677670D01*
X13414661Y-14677670D02*
X13405137Y-14658622D01*
X13405137Y-14658622D02*
X13405137Y-14639575D01*
X13405137Y-14639575D02*
X13414661Y-14620527D01*
X13414661Y-14620527D02*
X13433708Y-14611003D01*
X13433708Y-14611003D02*
X13481327Y-14611003D01*
X13481327Y-14611003D02*
X13500375Y-14601479D01*
X13595613Y-14553860D02*
X13595613Y-14753860D01*
X13595613Y-14563384D02*
X13614661Y-14553860D01*
X13614661Y-14553860D02*
X13652756Y-14553860D01*
X13652756Y-14553860D02*
X13671803Y-14563384D01*
X13671803Y-14563384D02*
X13681327Y-14572908D01*
X13681327Y-14572908D02*
X13690851Y-14591956D01*
X13690851Y-14591956D02*
X13690851Y-14649098D01*
X13690851Y-14649098D02*
X13681327Y-14668146D01*
X13681327Y-14668146D02*
X13671803Y-14677670D01*
X13671803Y-14677670D02*
X13652756Y-14687194D01*
X13652756Y-14687194D02*
X13614661Y-14687194D01*
X13614661Y-14687194D02*
X13595613Y-14677670D01*
X13776565Y-14668146D02*
X13786089Y-14677670D01*
X13786089Y-14677670D02*
X13776565Y-14687194D01*
X13776565Y-14687194D02*
X13767042Y-14677670D01*
X13767042Y-14677670D02*
X13776565Y-14668146D01*
X13776565Y-14668146D02*
X13776565Y-14687194D01*
X13776565Y-14563384D02*
X13786089Y-14572908D01*
X13786089Y-14572908D02*
X13776565Y-14582432D01*
X13776565Y-14582432D02*
X13767042Y-14572908D01*
X13767042Y-14572908D02*
X13776565Y-14563384D01*
X13776565Y-14563384D02*
X13776565Y-14582432D01*
D12*
X12114360Y-15000710D02*
X12144360Y-15030710D01*
X12144360Y-15000710D02*
X12114360Y-15030710D01*
D11*
X12443232Y-14907194D02*
X12462280Y-14907194D01*
X12462280Y-14907194D02*
X12481327Y-14916718D01*
X12481327Y-14916718D02*
X12490851Y-14926241D01*
X12490851Y-14926241D02*
X12500375Y-14945289D01*
X12500375Y-14945289D02*
X12509899Y-14983384D01*
X12509899Y-14983384D02*
X12509899Y-15031003D01*
X12509899Y-15031003D02*
X12500375Y-15069098D01*
X12500375Y-15069098D02*
X12490851Y-15088146D01*
X12490851Y-15088146D02*
X12481327Y-15097670D01*
X12481327Y-15097670D02*
X12462280Y-15107194D01*
X12462280Y-15107194D02*
X12443232Y-15107194D01*
X12443232Y-15107194D02*
X12424184Y-15097670D01*
X12424184Y-15097670D02*
X12414661Y-15088146D01*
X12414661Y-15088146D02*
X12405137Y-15069098D01*
X12405137Y-15069098D02*
X12395613Y-15031003D01*
X12395613Y-15031003D02*
X12395613Y-14983384D01*
X12395613Y-14983384D02*
X12405137Y-14945289D01*
X12405137Y-14945289D02*
X12414661Y-14926241D01*
X12414661Y-14926241D02*
X12424184Y-14916718D01*
X12424184Y-14916718D02*
X12443232Y-14907194D01*
X12595613Y-15088146D02*
X12605137Y-15097670D01*
X12605137Y-15097670D02*
X12595613Y-15107194D01*
X12595613Y-15107194D02*
X12586089Y-15097670D01*
X12586089Y-15097670D02*
X12595613Y-15088146D01*
X12595613Y-15088146D02*
X12595613Y-15107194D01*
X12671803Y-14907194D02*
X12795613Y-14907194D01*
X12795613Y-14907194D02*
X12728946Y-14983384D01*
X12728946Y-14983384D02*
X12757518Y-14983384D01*
X12757518Y-14983384D02*
X12776565Y-14992908D01*
X12776565Y-14992908D02*
X12786089Y-15002432D01*
X12786089Y-15002432D02*
X12795613Y-15021479D01*
X12795613Y-15021479D02*
X12795613Y-15069098D01*
X12795613Y-15069098D02*
X12786089Y-15088146D01*
X12786089Y-15088146D02*
X12776565Y-15097670D01*
X12776565Y-15097670D02*
X12757518Y-15107194D01*
X12757518Y-15107194D02*
X12700375Y-15107194D01*
X12700375Y-15107194D02*
X12681327Y-15097670D01*
X12681327Y-15097670D02*
X12671803Y-15088146D01*
X12919422Y-14907194D02*
X12938470Y-14907194D01*
X12938470Y-14907194D02*
X12957518Y-14916718D01*
X12957518Y-14916718D02*
X12967042Y-14926241D01*
X12967042Y-14926241D02*
X12976565Y-14945289D01*
X12976565Y-14945289D02*
X12986089Y-14983384D01*
X12986089Y-14983384D02*
X12986089Y-15031003D01*
X12986089Y-15031003D02*
X12976565Y-15069098D01*
X12976565Y-15069098D02*
X12967042Y-15088146D01*
X12967042Y-15088146D02*
X12957518Y-15097670D01*
X12957518Y-15097670D02*
X12938470Y-15107194D01*
X12938470Y-15107194D02*
X12919422Y-15107194D01*
X12919422Y-15107194D02*
X12900375Y-15097670D01*
X12900375Y-15097670D02*
X12890851Y-15088146D01*
X12890851Y-15088146D02*
X12881327Y-15069098D01*
X12881327Y-15069098D02*
X12871803Y-15031003D01*
X12871803Y-15031003D02*
X12871803Y-14983384D01*
X12871803Y-14983384D02*
X12881327Y-14945289D01*
X12881327Y-14945289D02*
X12890851Y-14926241D01*
X12890851Y-14926241D02*
X12900375Y-14916718D01*
X12900375Y-14916718D02*
X12919422Y-14907194D01*
X13109899Y-14907194D02*
X13128946Y-14907194D01*
X13128946Y-14907194D02*
X13147994Y-14916718D01*
X13147994Y-14916718D02*
X13157518Y-14926241D01*
X13157518Y-14926241D02*
X13167042Y-14945289D01*
X13167042Y-14945289D02*
X13176565Y-14983384D01*
X13176565Y-14983384D02*
X13176565Y-15031003D01*
X13176565Y-15031003D02*
X13167042Y-15069098D01*
X13167042Y-15069098D02*
X13157518Y-15088146D01*
X13157518Y-15088146D02*
X13147994Y-15097670D01*
X13147994Y-15097670D02*
X13128946Y-15107194D01*
X13128946Y-15107194D02*
X13109899Y-15107194D01*
X13109899Y-15107194D02*
X13090851Y-15097670D01*
X13090851Y-15097670D02*
X13081327Y-15088146D01*
X13081327Y-15088146D02*
X13071803Y-15069098D01*
X13071803Y-15069098D02*
X13062280Y-15031003D01*
X13062280Y-15031003D02*
X13062280Y-14983384D01*
X13062280Y-14983384D02*
X13071803Y-14945289D01*
X13071803Y-14945289D02*
X13081327Y-14926241D01*
X13081327Y-14926241D02*
X13090851Y-14916718D01*
X13090851Y-14916718D02*
X13109899Y-14907194D01*
X13262280Y-15107194D02*
X13262280Y-14973860D01*
X13262280Y-14992908D02*
X13271803Y-14983384D01*
X13271803Y-14983384D02*
X13290851Y-14973860D01*
X13290851Y-14973860D02*
X13319423Y-14973860D01*
X13319423Y-14973860D02*
X13338470Y-14983384D01*
X13338470Y-14983384D02*
X13347994Y-15002432D01*
X13347994Y-15002432D02*
X13347994Y-15107194D01*
X13347994Y-15002432D02*
X13357518Y-14983384D01*
X13357518Y-14983384D02*
X13376565Y-14973860D01*
X13376565Y-14973860D02*
X13405137Y-14973860D01*
X13405137Y-14973860D02*
X13424184Y-14983384D01*
X13424184Y-14983384D02*
X13433708Y-15002432D01*
X13433708Y-15002432D02*
X13433708Y-15107194D01*
X13528946Y-15107194D02*
X13528946Y-14973860D01*
X13528946Y-14992908D02*
X13538470Y-14983384D01*
X13538470Y-14983384D02*
X13557518Y-14973860D01*
X13557518Y-14973860D02*
X13586089Y-14973860D01*
X13586089Y-14973860D02*
X13605137Y-14983384D01*
X13605137Y-14983384D02*
X13614661Y-15002432D01*
X13614661Y-15002432D02*
X13614661Y-15107194D01*
X13614661Y-15002432D02*
X13624184Y-14983384D01*
X13624184Y-14983384D02*
X13643232Y-14973860D01*
X13643232Y-14973860D02*
X13671803Y-14973860D01*
X13671803Y-14973860D02*
X13690851Y-14983384D01*
X13690851Y-14983384D02*
X13700375Y-15002432D01*
X13700375Y-15002432D02*
X13700375Y-15107194D01*
X14090851Y-14897670D02*
X13919423Y-15154813D01*
X14347994Y-14907194D02*
X14367042Y-14907194D01*
X14367042Y-14907194D02*
X14386089Y-14916718D01*
X14386089Y-14916718D02*
X14395613Y-14926241D01*
X14395613Y-14926241D02*
X14405137Y-14945289D01*
X14405137Y-14945289D02*
X14414661Y-14983384D01*
X14414661Y-14983384D02*
X14414661Y-15031003D01*
X14414661Y-15031003D02*
X14405137Y-15069098D01*
X14405137Y-15069098D02*
X14395613Y-15088146D01*
X14395613Y-15088146D02*
X14386089Y-15097670D01*
X14386089Y-15097670D02*
X14367042Y-15107194D01*
X14367042Y-15107194D02*
X14347994Y-15107194D01*
X14347994Y-15107194D02*
X14328946Y-15097670D01*
X14328946Y-15097670D02*
X14319423Y-15088146D01*
X14319423Y-15088146D02*
X14309899Y-15069098D01*
X14309899Y-15069098D02*
X14300375Y-15031003D01*
X14300375Y-15031003D02*
X14300375Y-14983384D01*
X14300375Y-14983384D02*
X14309899Y-14945289D01*
X14309899Y-14945289D02*
X14319423Y-14926241D01*
X14319423Y-14926241D02*
X14328946Y-14916718D01*
X14328946Y-14916718D02*
X14347994Y-14907194D01*
X14500375Y-15088146D02*
X14509899Y-15097670D01*
X14509899Y-15097670D02*
X14500375Y-15107194D01*
X14500375Y-15107194D02*
X14490851Y-15097670D01*
X14490851Y-15097670D02*
X14500375Y-15088146D01*
X14500375Y-15088146D02*
X14500375Y-15107194D01*
X14633708Y-14907194D02*
X14652756Y-14907194D01*
X14652756Y-14907194D02*
X14671804Y-14916718D01*
X14671804Y-14916718D02*
X14681327Y-14926241D01*
X14681327Y-14926241D02*
X14690851Y-14945289D01*
X14690851Y-14945289D02*
X14700375Y-14983384D01*
X14700375Y-14983384D02*
X14700375Y-15031003D01*
X14700375Y-15031003D02*
X14690851Y-15069098D01*
X14690851Y-15069098D02*
X14681327Y-15088146D01*
X14681327Y-15088146D02*
X14671804Y-15097670D01*
X14671804Y-15097670D02*
X14652756Y-15107194D01*
X14652756Y-15107194D02*
X14633708Y-15107194D01*
X14633708Y-15107194D02*
X14614661Y-15097670D01*
X14614661Y-15097670D02*
X14605137Y-15088146D01*
X14605137Y-15088146D02*
X14595613Y-15069098D01*
X14595613Y-15069098D02*
X14586089Y-15031003D01*
X14586089Y-15031003D02*
X14586089Y-14983384D01*
X14586089Y-14983384D02*
X14595613Y-14945289D01*
X14595613Y-14945289D02*
X14605137Y-14926241D01*
X14605137Y-14926241D02*
X14614661Y-14916718D01*
X14614661Y-14916718D02*
X14633708Y-14907194D01*
X14890851Y-15107194D02*
X14776566Y-15107194D01*
X14833708Y-15107194D02*
X14833708Y-14907194D01*
X14833708Y-14907194D02*
X14814661Y-14935765D01*
X14814661Y-14935765D02*
X14795613Y-14954813D01*
X14795613Y-14954813D02*
X14776566Y-14964337D01*
X15081327Y-15107194D02*
X14967042Y-15107194D01*
X15024185Y-15107194D02*
X15024185Y-14907194D01*
X15024185Y-14907194D02*
X15005137Y-14935765D01*
X15005137Y-14935765D02*
X14986089Y-14954813D01*
X14986089Y-14954813D02*
X14967042Y-14964337D01*
X15195613Y-14992908D02*
X15176566Y-14983384D01*
X15176566Y-14983384D02*
X15167042Y-14973860D01*
X15167042Y-14973860D02*
X15157518Y-14954813D01*
X15157518Y-14954813D02*
X15157518Y-14945289D01*
X15157518Y-14945289D02*
X15167042Y-14926241D01*
X15167042Y-14926241D02*
X15176566Y-14916718D01*
X15176566Y-14916718D02*
X15195613Y-14907194D01*
X15195613Y-14907194D02*
X15233708Y-14907194D01*
X15233708Y-14907194D02*
X15252756Y-14916718D01*
X15252756Y-14916718D02*
X15262280Y-14926241D01*
X15262280Y-14926241D02*
X15271804Y-14945289D01*
X15271804Y-14945289D02*
X15271804Y-14954813D01*
X15271804Y-14954813D02*
X15262280Y-14973860D01*
X15262280Y-14973860D02*
X15252756Y-14983384D01*
X15252756Y-14983384D02*
X15233708Y-14992908D01*
X15233708Y-14992908D02*
X15195613Y-14992908D01*
X15195613Y-14992908D02*
X15176566Y-15002432D01*
X15176566Y-15002432D02*
X15167042Y-15011956D01*
X15167042Y-15011956D02*
X15157518Y-15031003D01*
X15157518Y-15031003D02*
X15157518Y-15069098D01*
X15157518Y-15069098D02*
X15167042Y-15088146D01*
X15167042Y-15088146D02*
X15176566Y-15097670D01*
X15176566Y-15097670D02*
X15195613Y-15107194D01*
X15195613Y-15107194D02*
X15233708Y-15107194D01*
X15233708Y-15107194D02*
X15252756Y-15097670D01*
X15252756Y-15097670D02*
X15262280Y-15088146D01*
X15262280Y-15088146D02*
X15271804Y-15069098D01*
X15271804Y-15069098D02*
X15271804Y-15031003D01*
X15271804Y-15031003D02*
X15262280Y-15011956D01*
X15262280Y-15011956D02*
X15252756Y-15002432D01*
X15252756Y-15002432D02*
X15233708Y-14992908D01*
X15347994Y-14907194D02*
X15347994Y-14945289D01*
X15424185Y-14907194D02*
X15424185Y-14945289D01*
X15719423Y-15183384D02*
X15709899Y-15173860D01*
X15709899Y-15173860D02*
X15690851Y-15145289D01*
X15690851Y-15145289D02*
X15681328Y-15126241D01*
X15681328Y-15126241D02*
X15671804Y-15097670D01*
X15671804Y-15097670D02*
X15662280Y-15050051D01*
X15662280Y-15050051D02*
X15662280Y-15011956D01*
X15662280Y-15011956D02*
X15671804Y-14964337D01*
X15671804Y-14964337D02*
X15681328Y-14935765D01*
X15681328Y-14935765D02*
X15690851Y-14916718D01*
X15690851Y-14916718D02*
X15709899Y-14888146D01*
X15709899Y-14888146D02*
X15719423Y-14878622D01*
X15786089Y-14926241D02*
X15795613Y-14916718D01*
X15795613Y-14916718D02*
X15814661Y-14907194D01*
X15814661Y-14907194D02*
X15862280Y-14907194D01*
X15862280Y-14907194D02*
X15881328Y-14916718D01*
X15881328Y-14916718D02*
X15890851Y-14926241D01*
X15890851Y-14926241D02*
X15900375Y-14945289D01*
X15900375Y-14945289D02*
X15900375Y-14964337D01*
X15900375Y-14964337D02*
X15890851Y-14992908D01*
X15890851Y-14992908D02*
X15776566Y-15107194D01*
X15776566Y-15107194D02*
X15900375Y-15107194D01*
X15967042Y-14907194D02*
X16100375Y-14907194D01*
X16100375Y-14907194D02*
X16014661Y-15107194D01*
X16281328Y-15107194D02*
X16167042Y-15107194D01*
X16224185Y-15107194D02*
X16224185Y-14907194D01*
X16224185Y-14907194D02*
X16205137Y-14935765D01*
X16205137Y-14935765D02*
X16186089Y-14954813D01*
X16186089Y-14954813D02*
X16167042Y-14964337D01*
X16519423Y-15107194D02*
X16519423Y-14907194D01*
X16605137Y-15107194D02*
X16605137Y-15002432D01*
X16605137Y-15002432D02*
X16595613Y-14983384D01*
X16595613Y-14983384D02*
X16576566Y-14973860D01*
X16576566Y-14973860D02*
X16547994Y-14973860D01*
X16547994Y-14973860D02*
X16528947Y-14983384D01*
X16528947Y-14983384D02*
X16519423Y-14992908D01*
X16728947Y-15107194D02*
X16709899Y-15097670D01*
X16709899Y-15097670D02*
X16700375Y-15088146D01*
X16700375Y-15088146D02*
X16690851Y-15069098D01*
X16690851Y-15069098D02*
X16690851Y-15011956D01*
X16690851Y-15011956D02*
X16700375Y-14992908D01*
X16700375Y-14992908D02*
X16709899Y-14983384D01*
X16709899Y-14983384D02*
X16728947Y-14973860D01*
X16728947Y-14973860D02*
X16757518Y-14973860D01*
X16757518Y-14973860D02*
X16776566Y-14983384D01*
X16776566Y-14983384D02*
X16786090Y-14992908D01*
X16786090Y-14992908D02*
X16795613Y-15011956D01*
X16795613Y-15011956D02*
X16795613Y-15069098D01*
X16795613Y-15069098D02*
X16786090Y-15088146D01*
X16786090Y-15088146D02*
X16776566Y-15097670D01*
X16776566Y-15097670D02*
X16757518Y-15107194D01*
X16757518Y-15107194D02*
X16728947Y-15107194D01*
X16909899Y-15107194D02*
X16890852Y-15097670D01*
X16890852Y-15097670D02*
X16881328Y-15078622D01*
X16881328Y-15078622D02*
X16881328Y-14907194D01*
X17062280Y-15097670D02*
X17043233Y-15107194D01*
X17043233Y-15107194D02*
X17005137Y-15107194D01*
X17005137Y-15107194D02*
X16986090Y-15097670D01*
X16986090Y-15097670D02*
X16976566Y-15078622D01*
X16976566Y-15078622D02*
X16976566Y-15002432D01*
X16976566Y-15002432D02*
X16986090Y-14983384D01*
X16986090Y-14983384D02*
X17005137Y-14973860D01*
X17005137Y-14973860D02*
X17043233Y-14973860D01*
X17043233Y-14973860D02*
X17062280Y-14983384D01*
X17062280Y-14983384D02*
X17071804Y-15002432D01*
X17071804Y-15002432D02*
X17071804Y-15021479D01*
X17071804Y-15021479D02*
X16976566Y-15040527D01*
X17147994Y-15097670D02*
X17167042Y-15107194D01*
X17167042Y-15107194D02*
X17205137Y-15107194D01*
X17205137Y-15107194D02*
X17224185Y-15097670D01*
X17224185Y-15097670D02*
X17233709Y-15078622D01*
X17233709Y-15078622D02*
X17233709Y-15069098D01*
X17233709Y-15069098D02*
X17224185Y-15050051D01*
X17224185Y-15050051D02*
X17205137Y-15040527D01*
X17205137Y-15040527D02*
X17176566Y-15040527D01*
X17176566Y-15040527D02*
X17157518Y-15031003D01*
X17157518Y-15031003D02*
X17147994Y-15011956D01*
X17147994Y-15011956D02*
X17147994Y-15002432D01*
X17147994Y-15002432D02*
X17157518Y-14983384D01*
X17157518Y-14983384D02*
X17176566Y-14973860D01*
X17176566Y-14973860D02*
X17205137Y-14973860D01*
X17205137Y-14973860D02*
X17224185Y-14983384D01*
X17300375Y-15183384D02*
X17309899Y-15173860D01*
X17309899Y-15173860D02*
X17328947Y-15145289D01*
X17328947Y-15145289D02*
X17338471Y-15126241D01*
X17338471Y-15126241D02*
X17347994Y-15097670D01*
X17347994Y-15097670D02*
X17357518Y-15050051D01*
X17357518Y-15050051D02*
X17357518Y-15011956D01*
X17357518Y-15011956D02*
X17347994Y-14964337D01*
X17347994Y-14964337D02*
X17338471Y-14935765D01*
X17338471Y-14935765D02*
X17328947Y-14916718D01*
X17328947Y-14916718D02*
X17309899Y-14888146D01*
X17309899Y-14888146D02*
X17300375Y-14878622D01*
D12*
X12144360Y-15279710D02*
G75*
G02*
X12074358Y-15279710I-35001J0D01*
G01*
X12074358Y-15279710D02*
G75*
G02*
X12144360Y-15279710I35001J0D01*
G01*
D11*
X12443232Y-15171194D02*
X12462280Y-15171194D01*
X12462280Y-15171194D02*
X12481327Y-15180718D01*
X12481327Y-15180718D02*
X12490851Y-15190241D01*
X12490851Y-15190241D02*
X12500375Y-15209289D01*
X12500375Y-15209289D02*
X12509899Y-15247384D01*
X12509899Y-15247384D02*
X12509899Y-15295003D01*
X12509899Y-15295003D02*
X12500375Y-15333098D01*
X12500375Y-15333098D02*
X12490851Y-15352146D01*
X12490851Y-15352146D02*
X12481327Y-15361670D01*
X12481327Y-15361670D02*
X12462280Y-15371194D01*
X12462280Y-15371194D02*
X12443232Y-15371194D01*
X12443232Y-15371194D02*
X12424184Y-15361670D01*
X12424184Y-15361670D02*
X12414661Y-15352146D01*
X12414661Y-15352146D02*
X12405137Y-15333098D01*
X12405137Y-15333098D02*
X12395613Y-15295003D01*
X12395613Y-15295003D02*
X12395613Y-15247384D01*
X12395613Y-15247384D02*
X12405137Y-15209289D01*
X12405137Y-15209289D02*
X12414661Y-15190241D01*
X12414661Y-15190241D02*
X12424184Y-15180718D01*
X12424184Y-15180718D02*
X12443232Y-15171194D01*
X12595613Y-15352146D02*
X12605137Y-15361670D01*
X12605137Y-15361670D02*
X12595613Y-15371194D01*
X12595613Y-15371194D02*
X12586089Y-15361670D01*
X12586089Y-15361670D02*
X12595613Y-15352146D01*
X12595613Y-15352146D02*
X12595613Y-15371194D01*
X12671803Y-15171194D02*
X12805137Y-15171194D01*
X12805137Y-15171194D02*
X12719422Y-15371194D01*
X12919422Y-15171194D02*
X12938470Y-15171194D01*
X12938470Y-15171194D02*
X12957518Y-15180718D01*
X12957518Y-15180718D02*
X12967042Y-15190241D01*
X12967042Y-15190241D02*
X12976565Y-15209289D01*
X12976565Y-15209289D02*
X12986089Y-15247384D01*
X12986089Y-15247384D02*
X12986089Y-15295003D01*
X12986089Y-15295003D02*
X12976565Y-15333098D01*
X12976565Y-15333098D02*
X12967042Y-15352146D01*
X12967042Y-15352146D02*
X12957518Y-15361670D01*
X12957518Y-15361670D02*
X12938470Y-15371194D01*
X12938470Y-15371194D02*
X12919422Y-15371194D01*
X12919422Y-15371194D02*
X12900375Y-15361670D01*
X12900375Y-15361670D02*
X12890851Y-15352146D01*
X12890851Y-15352146D02*
X12881327Y-15333098D01*
X12881327Y-15333098D02*
X12871803Y-15295003D01*
X12871803Y-15295003D02*
X12871803Y-15247384D01*
X12871803Y-15247384D02*
X12881327Y-15209289D01*
X12881327Y-15209289D02*
X12890851Y-15190241D01*
X12890851Y-15190241D02*
X12900375Y-15180718D01*
X12900375Y-15180718D02*
X12919422Y-15171194D01*
X13109899Y-15171194D02*
X13128946Y-15171194D01*
X13128946Y-15171194D02*
X13147994Y-15180718D01*
X13147994Y-15180718D02*
X13157518Y-15190241D01*
X13157518Y-15190241D02*
X13167042Y-15209289D01*
X13167042Y-15209289D02*
X13176565Y-15247384D01*
X13176565Y-15247384D02*
X13176565Y-15295003D01*
X13176565Y-15295003D02*
X13167042Y-15333098D01*
X13167042Y-15333098D02*
X13157518Y-15352146D01*
X13157518Y-15352146D02*
X13147994Y-15361670D01*
X13147994Y-15361670D02*
X13128946Y-15371194D01*
X13128946Y-15371194D02*
X13109899Y-15371194D01*
X13109899Y-15371194D02*
X13090851Y-15361670D01*
X13090851Y-15361670D02*
X13081327Y-15352146D01*
X13081327Y-15352146D02*
X13071803Y-15333098D01*
X13071803Y-15333098D02*
X13062280Y-15295003D01*
X13062280Y-15295003D02*
X13062280Y-15247384D01*
X13062280Y-15247384D02*
X13071803Y-15209289D01*
X13071803Y-15209289D02*
X13081327Y-15190241D01*
X13081327Y-15190241D02*
X13090851Y-15180718D01*
X13090851Y-15180718D02*
X13109899Y-15171194D01*
X13262280Y-15371194D02*
X13262280Y-15237860D01*
X13262280Y-15256908D02*
X13271803Y-15247384D01*
X13271803Y-15247384D02*
X13290851Y-15237860D01*
X13290851Y-15237860D02*
X13319423Y-15237860D01*
X13319423Y-15237860D02*
X13338470Y-15247384D01*
X13338470Y-15247384D02*
X13347994Y-15266432D01*
X13347994Y-15266432D02*
X13347994Y-15371194D01*
X13347994Y-15266432D02*
X13357518Y-15247384D01*
X13357518Y-15247384D02*
X13376565Y-15237860D01*
X13376565Y-15237860D02*
X13405137Y-15237860D01*
X13405137Y-15237860D02*
X13424184Y-15247384D01*
X13424184Y-15247384D02*
X13433708Y-15266432D01*
X13433708Y-15266432D02*
X13433708Y-15371194D01*
X13528946Y-15371194D02*
X13528946Y-15237860D01*
X13528946Y-15256908D02*
X13538470Y-15247384D01*
X13538470Y-15247384D02*
X13557518Y-15237860D01*
X13557518Y-15237860D02*
X13586089Y-15237860D01*
X13586089Y-15237860D02*
X13605137Y-15247384D01*
X13605137Y-15247384D02*
X13614661Y-15266432D01*
X13614661Y-15266432D02*
X13614661Y-15371194D01*
X13614661Y-15266432D02*
X13624184Y-15247384D01*
X13624184Y-15247384D02*
X13643232Y-15237860D01*
X13643232Y-15237860D02*
X13671803Y-15237860D01*
X13671803Y-15237860D02*
X13690851Y-15247384D01*
X13690851Y-15247384D02*
X13700375Y-15266432D01*
X13700375Y-15266432D02*
X13700375Y-15371194D01*
X14090851Y-15161670D02*
X13919423Y-15418813D01*
X14347994Y-15171194D02*
X14367042Y-15171194D01*
X14367042Y-15171194D02*
X14386089Y-15180718D01*
X14386089Y-15180718D02*
X14395613Y-15190241D01*
X14395613Y-15190241D02*
X14405137Y-15209289D01*
X14405137Y-15209289D02*
X14414661Y-15247384D01*
X14414661Y-15247384D02*
X14414661Y-15295003D01*
X14414661Y-15295003D02*
X14405137Y-15333098D01*
X14405137Y-15333098D02*
X14395613Y-15352146D01*
X14395613Y-15352146D02*
X14386089Y-15361670D01*
X14386089Y-15361670D02*
X14367042Y-15371194D01*
X14367042Y-15371194D02*
X14347994Y-15371194D01*
X14347994Y-15371194D02*
X14328946Y-15361670D01*
X14328946Y-15361670D02*
X14319423Y-15352146D01*
X14319423Y-15352146D02*
X14309899Y-15333098D01*
X14309899Y-15333098D02*
X14300375Y-15295003D01*
X14300375Y-15295003D02*
X14300375Y-15247384D01*
X14300375Y-15247384D02*
X14309899Y-15209289D01*
X14309899Y-15209289D02*
X14319423Y-15190241D01*
X14319423Y-15190241D02*
X14328946Y-15180718D01*
X14328946Y-15180718D02*
X14347994Y-15171194D01*
X14500375Y-15352146D02*
X14509899Y-15361670D01*
X14509899Y-15361670D02*
X14500375Y-15371194D01*
X14500375Y-15371194D02*
X14490851Y-15361670D01*
X14490851Y-15361670D02*
X14500375Y-15352146D01*
X14500375Y-15352146D02*
X14500375Y-15371194D01*
X14633708Y-15171194D02*
X14652756Y-15171194D01*
X14652756Y-15171194D02*
X14671804Y-15180718D01*
X14671804Y-15180718D02*
X14681327Y-15190241D01*
X14681327Y-15190241D02*
X14690851Y-15209289D01*
X14690851Y-15209289D02*
X14700375Y-15247384D01*
X14700375Y-15247384D02*
X14700375Y-15295003D01*
X14700375Y-15295003D02*
X14690851Y-15333098D01*
X14690851Y-15333098D02*
X14681327Y-15352146D01*
X14681327Y-15352146D02*
X14671804Y-15361670D01*
X14671804Y-15361670D02*
X14652756Y-15371194D01*
X14652756Y-15371194D02*
X14633708Y-15371194D01*
X14633708Y-15371194D02*
X14614661Y-15361670D01*
X14614661Y-15361670D02*
X14605137Y-15352146D01*
X14605137Y-15352146D02*
X14595613Y-15333098D01*
X14595613Y-15333098D02*
X14586089Y-15295003D01*
X14586089Y-15295003D02*
X14586089Y-15247384D01*
X14586089Y-15247384D02*
X14595613Y-15209289D01*
X14595613Y-15209289D02*
X14605137Y-15190241D01*
X14605137Y-15190241D02*
X14614661Y-15180718D01*
X14614661Y-15180718D02*
X14633708Y-15171194D01*
X14776566Y-15190241D02*
X14786089Y-15180718D01*
X14786089Y-15180718D02*
X14805137Y-15171194D01*
X14805137Y-15171194D02*
X14852756Y-15171194D01*
X14852756Y-15171194D02*
X14871804Y-15180718D01*
X14871804Y-15180718D02*
X14881327Y-15190241D01*
X14881327Y-15190241D02*
X14890851Y-15209289D01*
X14890851Y-15209289D02*
X14890851Y-15228337D01*
X14890851Y-15228337D02*
X14881327Y-15256908D01*
X14881327Y-15256908D02*
X14767042Y-15371194D01*
X14767042Y-15371194D02*
X14890851Y-15371194D01*
X14957518Y-15171194D02*
X15090851Y-15171194D01*
X15090851Y-15171194D02*
X15005137Y-15371194D01*
X15252756Y-15171194D02*
X15214661Y-15171194D01*
X15214661Y-15171194D02*
X15195613Y-15180718D01*
X15195613Y-15180718D02*
X15186089Y-15190241D01*
X15186089Y-15190241D02*
X15167042Y-15218813D01*
X15167042Y-15218813D02*
X15157518Y-15256908D01*
X15157518Y-15256908D02*
X15157518Y-15333098D01*
X15157518Y-15333098D02*
X15167042Y-15352146D01*
X15167042Y-15352146D02*
X15176566Y-15361670D01*
X15176566Y-15361670D02*
X15195613Y-15371194D01*
X15195613Y-15371194D02*
X15233708Y-15371194D01*
X15233708Y-15371194D02*
X15252756Y-15361670D01*
X15252756Y-15361670D02*
X15262280Y-15352146D01*
X15262280Y-15352146D02*
X15271804Y-15333098D01*
X15271804Y-15333098D02*
X15271804Y-15285479D01*
X15271804Y-15285479D02*
X15262280Y-15266432D01*
X15262280Y-15266432D02*
X15252756Y-15256908D01*
X15252756Y-15256908D02*
X15233708Y-15247384D01*
X15233708Y-15247384D02*
X15195613Y-15247384D01*
X15195613Y-15247384D02*
X15176566Y-15256908D01*
X15176566Y-15256908D02*
X15167042Y-15266432D01*
X15167042Y-15266432D02*
X15157518Y-15285479D01*
X15347994Y-15171194D02*
X15347994Y-15209289D01*
X15424185Y-15171194D02*
X15424185Y-15209289D01*
X15719423Y-15447384D02*
X15709899Y-15437860D01*
X15709899Y-15437860D02*
X15690851Y-15409289D01*
X15690851Y-15409289D02*
X15681328Y-15390241D01*
X15681328Y-15390241D02*
X15671804Y-15361670D01*
X15671804Y-15361670D02*
X15662280Y-15314051D01*
X15662280Y-15314051D02*
X15662280Y-15275956D01*
X15662280Y-15275956D02*
X15671804Y-15228337D01*
X15671804Y-15228337D02*
X15681328Y-15199765D01*
X15681328Y-15199765D02*
X15690851Y-15180718D01*
X15690851Y-15180718D02*
X15709899Y-15152146D01*
X15709899Y-15152146D02*
X15719423Y-15142622D01*
X15881328Y-15171194D02*
X15843232Y-15171194D01*
X15843232Y-15171194D02*
X15824185Y-15180718D01*
X15824185Y-15180718D02*
X15814661Y-15190241D01*
X15814661Y-15190241D02*
X15795613Y-15218813D01*
X15795613Y-15218813D02*
X15786089Y-15256908D01*
X15786089Y-15256908D02*
X15786089Y-15333098D01*
X15786089Y-15333098D02*
X15795613Y-15352146D01*
X15795613Y-15352146D02*
X15805137Y-15361670D01*
X15805137Y-15361670D02*
X15824185Y-15371194D01*
X15824185Y-15371194D02*
X15862280Y-15371194D01*
X15862280Y-15371194D02*
X15881328Y-15361670D01*
X15881328Y-15361670D02*
X15890851Y-15352146D01*
X15890851Y-15352146D02*
X15900375Y-15333098D01*
X15900375Y-15333098D02*
X15900375Y-15285479D01*
X15900375Y-15285479D02*
X15890851Y-15266432D01*
X15890851Y-15266432D02*
X15881328Y-15256908D01*
X15881328Y-15256908D02*
X15862280Y-15247384D01*
X15862280Y-15247384D02*
X15824185Y-15247384D01*
X15824185Y-15247384D02*
X15805137Y-15256908D01*
X15805137Y-15256908D02*
X15795613Y-15266432D01*
X15795613Y-15266432D02*
X15786089Y-15285479D01*
X16071804Y-15237860D02*
X16071804Y-15371194D01*
X16024185Y-15161670D02*
X15976566Y-15304527D01*
X15976566Y-15304527D02*
X16100375Y-15304527D01*
X16328947Y-15371194D02*
X16328947Y-15171194D01*
X16414661Y-15371194D02*
X16414661Y-15266432D01*
X16414661Y-15266432D02*
X16405137Y-15247384D01*
X16405137Y-15247384D02*
X16386090Y-15237860D01*
X16386090Y-15237860D02*
X16357518Y-15237860D01*
X16357518Y-15237860D02*
X16338470Y-15247384D01*
X16338470Y-15247384D02*
X16328947Y-15256908D01*
X16538470Y-15371194D02*
X16519423Y-15361670D01*
X16519423Y-15361670D02*
X16509899Y-15352146D01*
X16509899Y-15352146D02*
X16500375Y-15333098D01*
X16500375Y-15333098D02*
X16500375Y-15275956D01*
X16500375Y-15275956D02*
X16509899Y-15256908D01*
X16509899Y-15256908D02*
X16519423Y-15247384D01*
X16519423Y-15247384D02*
X16538470Y-15237860D01*
X16538470Y-15237860D02*
X16567042Y-15237860D01*
X16567042Y-15237860D02*
X16586090Y-15247384D01*
X16586090Y-15247384D02*
X16595613Y-15256908D01*
X16595613Y-15256908D02*
X16605137Y-15275956D01*
X16605137Y-15275956D02*
X16605137Y-15333098D01*
X16605137Y-15333098D02*
X16595613Y-15352146D01*
X16595613Y-15352146D02*
X16586090Y-15361670D01*
X16586090Y-15361670D02*
X16567042Y-15371194D01*
X16567042Y-15371194D02*
X16538470Y-15371194D01*
X16719423Y-15371194D02*
X16700375Y-15361670D01*
X16700375Y-15361670D02*
X16690851Y-15342622D01*
X16690851Y-15342622D02*
X16690851Y-15171194D01*
X16871804Y-15361670D02*
X16852756Y-15371194D01*
X16852756Y-15371194D02*
X16814661Y-15371194D01*
X16814661Y-15371194D02*
X16795613Y-15361670D01*
X16795613Y-15361670D02*
X16786090Y-15342622D01*
X16786090Y-15342622D02*
X16786090Y-15266432D01*
X16786090Y-15266432D02*
X16795613Y-15247384D01*
X16795613Y-15247384D02*
X16814661Y-15237860D01*
X16814661Y-15237860D02*
X16852756Y-15237860D01*
X16852756Y-15237860D02*
X16871804Y-15247384D01*
X16871804Y-15247384D02*
X16881328Y-15266432D01*
X16881328Y-15266432D02*
X16881328Y-15285479D01*
X16881328Y-15285479D02*
X16786090Y-15304527D01*
X16957518Y-15361670D02*
X16976566Y-15371194D01*
X16976566Y-15371194D02*
X17014661Y-15371194D01*
X17014661Y-15371194D02*
X17033709Y-15361670D01*
X17033709Y-15361670D02*
X17043233Y-15342622D01*
X17043233Y-15342622D02*
X17043233Y-15333098D01*
X17043233Y-15333098D02*
X17033709Y-15314051D01*
X17033709Y-15314051D02*
X17014661Y-15304527D01*
X17014661Y-15304527D02*
X16986090Y-15304527D01*
X16986090Y-15304527D02*
X16967042Y-15295003D01*
X16967042Y-15295003D02*
X16957518Y-15275956D01*
X16957518Y-15275956D02*
X16957518Y-15266432D01*
X16957518Y-15266432D02*
X16967042Y-15247384D01*
X16967042Y-15247384D02*
X16986090Y-15237860D01*
X16986090Y-15237860D02*
X17014661Y-15237860D01*
X17014661Y-15237860D02*
X17033709Y-15247384D01*
X17109899Y-15447384D02*
X17119423Y-15437860D01*
X17119423Y-15437860D02*
X17138471Y-15409289D01*
X17138471Y-15409289D02*
X17147994Y-15390241D01*
X17147994Y-15390241D02*
X17157518Y-15361670D01*
X17157518Y-15361670D02*
X17167042Y-15314051D01*
X17167042Y-15314051D02*
X17167042Y-15275956D01*
X17167042Y-15275956D02*
X17157518Y-15228337D01*
X17157518Y-15228337D02*
X17147994Y-15199765D01*
X17147994Y-15199765D02*
X17138471Y-15180718D01*
X17138471Y-15180718D02*
X17119423Y-15152146D01*
X17119423Y-15152146D02*
X17109899Y-15142622D01*
D12*
X12094830Y-15494180D02*
X12094830Y-15593240D01*
X12045300Y-15543710D02*
X12144360Y-15543710D01*
D11*
X12443232Y-15435194D02*
X12462280Y-15435194D01*
X12462280Y-15435194D02*
X12481327Y-15444718D01*
X12481327Y-15444718D02*
X12490851Y-15454241D01*
X12490851Y-15454241D02*
X12500375Y-15473289D01*
X12500375Y-15473289D02*
X12509899Y-15511384D01*
X12509899Y-15511384D02*
X12509899Y-15559003D01*
X12509899Y-15559003D02*
X12500375Y-15597098D01*
X12500375Y-15597098D02*
X12490851Y-15616146D01*
X12490851Y-15616146D02*
X12481327Y-15625670D01*
X12481327Y-15625670D02*
X12462280Y-15635194D01*
X12462280Y-15635194D02*
X12443232Y-15635194D01*
X12443232Y-15635194D02*
X12424184Y-15625670D01*
X12424184Y-15625670D02*
X12414661Y-15616146D01*
X12414661Y-15616146D02*
X12405137Y-15597098D01*
X12405137Y-15597098D02*
X12395613Y-15559003D01*
X12395613Y-15559003D02*
X12395613Y-15511384D01*
X12395613Y-15511384D02*
X12405137Y-15473289D01*
X12405137Y-15473289D02*
X12414661Y-15454241D01*
X12414661Y-15454241D02*
X12424184Y-15444718D01*
X12424184Y-15444718D02*
X12443232Y-15435194D01*
X12595613Y-15616146D02*
X12605137Y-15625670D01*
X12605137Y-15625670D02*
X12595613Y-15635194D01*
X12595613Y-15635194D02*
X12586089Y-15625670D01*
X12586089Y-15625670D02*
X12595613Y-15616146D01*
X12595613Y-15616146D02*
X12595613Y-15635194D01*
X12700375Y-15635194D02*
X12738470Y-15635194D01*
X12738470Y-15635194D02*
X12757518Y-15625670D01*
X12757518Y-15625670D02*
X12767042Y-15616146D01*
X12767042Y-15616146D02*
X12786089Y-15587575D01*
X12786089Y-15587575D02*
X12795613Y-15549479D01*
X12795613Y-15549479D02*
X12795613Y-15473289D01*
X12795613Y-15473289D02*
X12786089Y-15454241D01*
X12786089Y-15454241D02*
X12776565Y-15444718D01*
X12776565Y-15444718D02*
X12757518Y-15435194D01*
X12757518Y-15435194D02*
X12719422Y-15435194D01*
X12719422Y-15435194D02*
X12700375Y-15444718D01*
X12700375Y-15444718D02*
X12690851Y-15454241D01*
X12690851Y-15454241D02*
X12681327Y-15473289D01*
X12681327Y-15473289D02*
X12681327Y-15520908D01*
X12681327Y-15520908D02*
X12690851Y-15539956D01*
X12690851Y-15539956D02*
X12700375Y-15549479D01*
X12700375Y-15549479D02*
X12719422Y-15559003D01*
X12719422Y-15559003D02*
X12757518Y-15559003D01*
X12757518Y-15559003D02*
X12776565Y-15549479D01*
X12776565Y-15549479D02*
X12786089Y-15539956D01*
X12786089Y-15539956D02*
X12795613Y-15520908D01*
X12890851Y-15635194D02*
X12928946Y-15635194D01*
X12928946Y-15635194D02*
X12947994Y-15625670D01*
X12947994Y-15625670D02*
X12957518Y-15616146D01*
X12957518Y-15616146D02*
X12976565Y-15587575D01*
X12976565Y-15587575D02*
X12986089Y-15549479D01*
X12986089Y-15549479D02*
X12986089Y-15473289D01*
X12986089Y-15473289D02*
X12976565Y-15454241D01*
X12976565Y-15454241D02*
X12967042Y-15444718D01*
X12967042Y-15444718D02*
X12947994Y-15435194D01*
X12947994Y-15435194D02*
X12909899Y-15435194D01*
X12909899Y-15435194D02*
X12890851Y-15444718D01*
X12890851Y-15444718D02*
X12881327Y-15454241D01*
X12881327Y-15454241D02*
X12871803Y-15473289D01*
X12871803Y-15473289D02*
X12871803Y-15520908D01*
X12871803Y-15520908D02*
X12881327Y-15539956D01*
X12881327Y-15539956D02*
X12890851Y-15549479D01*
X12890851Y-15549479D02*
X12909899Y-15559003D01*
X12909899Y-15559003D02*
X12947994Y-15559003D01*
X12947994Y-15559003D02*
X12967042Y-15549479D01*
X12967042Y-15549479D02*
X12976565Y-15539956D01*
X12976565Y-15539956D02*
X12986089Y-15520908D01*
X13176565Y-15635194D02*
X13062280Y-15635194D01*
X13119422Y-15635194D02*
X13119422Y-15435194D01*
X13119422Y-15435194D02*
X13100375Y-15463765D01*
X13100375Y-15463765D02*
X13081327Y-15482813D01*
X13081327Y-15482813D02*
X13062280Y-15492337D01*
X13262280Y-15635194D02*
X13262280Y-15501860D01*
X13262280Y-15520908D02*
X13271803Y-15511384D01*
X13271803Y-15511384D02*
X13290851Y-15501860D01*
X13290851Y-15501860D02*
X13319423Y-15501860D01*
X13319423Y-15501860D02*
X13338470Y-15511384D01*
X13338470Y-15511384D02*
X13347994Y-15530432D01*
X13347994Y-15530432D02*
X13347994Y-15635194D01*
X13347994Y-15530432D02*
X13357518Y-15511384D01*
X13357518Y-15511384D02*
X13376565Y-15501860D01*
X13376565Y-15501860D02*
X13405137Y-15501860D01*
X13405137Y-15501860D02*
X13424184Y-15511384D01*
X13424184Y-15511384D02*
X13433708Y-15530432D01*
X13433708Y-15530432D02*
X13433708Y-15635194D01*
X13528946Y-15635194D02*
X13528946Y-15501860D01*
X13528946Y-15520908D02*
X13538470Y-15511384D01*
X13538470Y-15511384D02*
X13557518Y-15501860D01*
X13557518Y-15501860D02*
X13586089Y-15501860D01*
X13586089Y-15501860D02*
X13605137Y-15511384D01*
X13605137Y-15511384D02*
X13614661Y-15530432D01*
X13614661Y-15530432D02*
X13614661Y-15635194D01*
X13614661Y-15530432D02*
X13624184Y-15511384D01*
X13624184Y-15511384D02*
X13643232Y-15501860D01*
X13643232Y-15501860D02*
X13671803Y-15501860D01*
X13671803Y-15501860D02*
X13690851Y-15511384D01*
X13690851Y-15511384D02*
X13700375Y-15530432D01*
X13700375Y-15530432D02*
X13700375Y-15635194D01*
X14090851Y-15425670D02*
X13919423Y-15682813D01*
X14347994Y-15435194D02*
X14367042Y-15435194D01*
X14367042Y-15435194D02*
X14386089Y-15444718D01*
X14386089Y-15444718D02*
X14395613Y-15454241D01*
X14395613Y-15454241D02*
X14405137Y-15473289D01*
X14405137Y-15473289D02*
X14414661Y-15511384D01*
X14414661Y-15511384D02*
X14414661Y-15559003D01*
X14414661Y-15559003D02*
X14405137Y-15597098D01*
X14405137Y-15597098D02*
X14395613Y-15616146D01*
X14395613Y-15616146D02*
X14386089Y-15625670D01*
X14386089Y-15625670D02*
X14367042Y-15635194D01*
X14367042Y-15635194D02*
X14347994Y-15635194D01*
X14347994Y-15635194D02*
X14328946Y-15625670D01*
X14328946Y-15625670D02*
X14319423Y-15616146D01*
X14319423Y-15616146D02*
X14309899Y-15597098D01*
X14309899Y-15597098D02*
X14300375Y-15559003D01*
X14300375Y-15559003D02*
X14300375Y-15511384D01*
X14300375Y-15511384D02*
X14309899Y-15473289D01*
X14309899Y-15473289D02*
X14319423Y-15454241D01*
X14319423Y-15454241D02*
X14328946Y-15444718D01*
X14328946Y-15444718D02*
X14347994Y-15435194D01*
X14500375Y-15616146D02*
X14509899Y-15625670D01*
X14509899Y-15625670D02*
X14500375Y-15635194D01*
X14500375Y-15635194D02*
X14490851Y-15625670D01*
X14490851Y-15625670D02*
X14500375Y-15616146D01*
X14500375Y-15616146D02*
X14500375Y-15635194D01*
X14633708Y-15435194D02*
X14652756Y-15435194D01*
X14652756Y-15435194D02*
X14671804Y-15444718D01*
X14671804Y-15444718D02*
X14681327Y-15454241D01*
X14681327Y-15454241D02*
X14690851Y-15473289D01*
X14690851Y-15473289D02*
X14700375Y-15511384D01*
X14700375Y-15511384D02*
X14700375Y-15559003D01*
X14700375Y-15559003D02*
X14690851Y-15597098D01*
X14690851Y-15597098D02*
X14681327Y-15616146D01*
X14681327Y-15616146D02*
X14671804Y-15625670D01*
X14671804Y-15625670D02*
X14652756Y-15635194D01*
X14652756Y-15635194D02*
X14633708Y-15635194D01*
X14633708Y-15635194D02*
X14614661Y-15625670D01*
X14614661Y-15625670D02*
X14605137Y-15616146D01*
X14605137Y-15616146D02*
X14595613Y-15597098D01*
X14595613Y-15597098D02*
X14586089Y-15559003D01*
X14586089Y-15559003D02*
X14586089Y-15511384D01*
X14586089Y-15511384D02*
X14595613Y-15473289D01*
X14595613Y-15473289D02*
X14605137Y-15454241D01*
X14605137Y-15454241D02*
X14614661Y-15444718D01*
X14614661Y-15444718D02*
X14633708Y-15435194D01*
X14767042Y-15435194D02*
X14890851Y-15435194D01*
X14890851Y-15435194D02*
X14824185Y-15511384D01*
X14824185Y-15511384D02*
X14852756Y-15511384D01*
X14852756Y-15511384D02*
X14871804Y-15520908D01*
X14871804Y-15520908D02*
X14881327Y-15530432D01*
X14881327Y-15530432D02*
X14890851Y-15549479D01*
X14890851Y-15549479D02*
X14890851Y-15597098D01*
X14890851Y-15597098D02*
X14881327Y-15616146D01*
X14881327Y-15616146D02*
X14871804Y-15625670D01*
X14871804Y-15625670D02*
X14852756Y-15635194D01*
X14852756Y-15635194D02*
X14795613Y-15635194D01*
X14795613Y-15635194D02*
X14776566Y-15625670D01*
X14776566Y-15625670D02*
X14767042Y-15616146D01*
X14986089Y-15635194D02*
X15024185Y-15635194D01*
X15024185Y-15635194D02*
X15043232Y-15625670D01*
X15043232Y-15625670D02*
X15052756Y-15616146D01*
X15052756Y-15616146D02*
X15071804Y-15587575D01*
X15071804Y-15587575D02*
X15081327Y-15549479D01*
X15081327Y-15549479D02*
X15081327Y-15473289D01*
X15081327Y-15473289D02*
X15071804Y-15454241D01*
X15071804Y-15454241D02*
X15062280Y-15444718D01*
X15062280Y-15444718D02*
X15043232Y-15435194D01*
X15043232Y-15435194D02*
X15005137Y-15435194D01*
X15005137Y-15435194D02*
X14986089Y-15444718D01*
X14986089Y-15444718D02*
X14976566Y-15454241D01*
X14976566Y-15454241D02*
X14967042Y-15473289D01*
X14967042Y-15473289D02*
X14967042Y-15520908D01*
X14967042Y-15520908D02*
X14976566Y-15539956D01*
X14976566Y-15539956D02*
X14986089Y-15549479D01*
X14986089Y-15549479D02*
X15005137Y-15559003D01*
X15005137Y-15559003D02*
X15043232Y-15559003D01*
X15043232Y-15559003D02*
X15062280Y-15549479D01*
X15062280Y-15549479D02*
X15071804Y-15539956D01*
X15071804Y-15539956D02*
X15081327Y-15520908D01*
X15205137Y-15435194D02*
X15224185Y-15435194D01*
X15224185Y-15435194D02*
X15243232Y-15444718D01*
X15243232Y-15444718D02*
X15252756Y-15454241D01*
X15252756Y-15454241D02*
X15262280Y-15473289D01*
X15262280Y-15473289D02*
X15271804Y-15511384D01*
X15271804Y-15511384D02*
X15271804Y-15559003D01*
X15271804Y-15559003D02*
X15262280Y-15597098D01*
X15262280Y-15597098D02*
X15252756Y-15616146D01*
X15252756Y-15616146D02*
X15243232Y-15625670D01*
X15243232Y-15625670D02*
X15224185Y-15635194D01*
X15224185Y-15635194D02*
X15205137Y-15635194D01*
X15205137Y-15635194D02*
X15186089Y-15625670D01*
X15186089Y-15625670D02*
X15176566Y-15616146D01*
X15176566Y-15616146D02*
X15167042Y-15597098D01*
X15167042Y-15597098D02*
X15157518Y-15559003D01*
X15157518Y-15559003D02*
X15157518Y-15511384D01*
X15157518Y-15511384D02*
X15167042Y-15473289D01*
X15167042Y-15473289D02*
X15176566Y-15454241D01*
X15176566Y-15454241D02*
X15186089Y-15444718D01*
X15186089Y-15444718D02*
X15205137Y-15435194D01*
X15347994Y-15435194D02*
X15347994Y-15473289D01*
X15424185Y-15435194D02*
X15424185Y-15473289D01*
X15719423Y-15711384D02*
X15709899Y-15701860D01*
X15709899Y-15701860D02*
X15690851Y-15673289D01*
X15690851Y-15673289D02*
X15681328Y-15654241D01*
X15681328Y-15654241D02*
X15671804Y-15625670D01*
X15671804Y-15625670D02*
X15662280Y-15578051D01*
X15662280Y-15578051D02*
X15662280Y-15539956D01*
X15662280Y-15539956D02*
X15671804Y-15492337D01*
X15671804Y-15492337D02*
X15681328Y-15463765D01*
X15681328Y-15463765D02*
X15690851Y-15444718D01*
X15690851Y-15444718D02*
X15709899Y-15416146D01*
X15709899Y-15416146D02*
X15719423Y-15406622D01*
X15881328Y-15435194D02*
X15843232Y-15435194D01*
X15843232Y-15435194D02*
X15824185Y-15444718D01*
X15824185Y-15444718D02*
X15814661Y-15454241D01*
X15814661Y-15454241D02*
X15795613Y-15482813D01*
X15795613Y-15482813D02*
X15786089Y-15520908D01*
X15786089Y-15520908D02*
X15786089Y-15597098D01*
X15786089Y-15597098D02*
X15795613Y-15616146D01*
X15795613Y-15616146D02*
X15805137Y-15625670D01*
X15805137Y-15625670D02*
X15824185Y-15635194D01*
X15824185Y-15635194D02*
X15862280Y-15635194D01*
X15862280Y-15635194D02*
X15881328Y-15625670D01*
X15881328Y-15625670D02*
X15890851Y-15616146D01*
X15890851Y-15616146D02*
X15900375Y-15597098D01*
X15900375Y-15597098D02*
X15900375Y-15549479D01*
X15900375Y-15549479D02*
X15890851Y-15530432D01*
X15890851Y-15530432D02*
X15881328Y-15520908D01*
X15881328Y-15520908D02*
X15862280Y-15511384D01*
X15862280Y-15511384D02*
X15824185Y-15511384D01*
X15824185Y-15511384D02*
X15805137Y-15520908D01*
X15805137Y-15520908D02*
X15795613Y-15530432D01*
X15795613Y-15530432D02*
X15786089Y-15549479D01*
X16024185Y-15435194D02*
X16043232Y-15435194D01*
X16043232Y-15435194D02*
X16062280Y-15444718D01*
X16062280Y-15444718D02*
X16071804Y-15454241D01*
X16071804Y-15454241D02*
X16081328Y-15473289D01*
X16081328Y-15473289D02*
X16090851Y-15511384D01*
X16090851Y-15511384D02*
X16090851Y-15559003D01*
X16090851Y-15559003D02*
X16081328Y-15597098D01*
X16081328Y-15597098D02*
X16071804Y-15616146D01*
X16071804Y-15616146D02*
X16062280Y-15625670D01*
X16062280Y-15625670D02*
X16043232Y-15635194D01*
X16043232Y-15635194D02*
X16024185Y-15635194D01*
X16024185Y-15635194D02*
X16005137Y-15625670D01*
X16005137Y-15625670D02*
X15995613Y-15616146D01*
X15995613Y-15616146D02*
X15986089Y-15597098D01*
X15986089Y-15597098D02*
X15976566Y-15559003D01*
X15976566Y-15559003D02*
X15976566Y-15511384D01*
X15976566Y-15511384D02*
X15986089Y-15473289D01*
X15986089Y-15473289D02*
X15995613Y-15454241D01*
X15995613Y-15454241D02*
X16005137Y-15444718D01*
X16005137Y-15444718D02*
X16024185Y-15435194D01*
X16328947Y-15635194D02*
X16328947Y-15435194D01*
X16414661Y-15635194D02*
X16414661Y-15530432D01*
X16414661Y-15530432D02*
X16405137Y-15511384D01*
X16405137Y-15511384D02*
X16386090Y-15501860D01*
X16386090Y-15501860D02*
X16357518Y-15501860D01*
X16357518Y-15501860D02*
X16338470Y-15511384D01*
X16338470Y-15511384D02*
X16328947Y-15520908D01*
X16538470Y-15635194D02*
X16519423Y-15625670D01*
X16519423Y-15625670D02*
X16509899Y-15616146D01*
X16509899Y-15616146D02*
X16500375Y-15597098D01*
X16500375Y-15597098D02*
X16500375Y-15539956D01*
X16500375Y-15539956D02*
X16509899Y-15520908D01*
X16509899Y-15520908D02*
X16519423Y-15511384D01*
X16519423Y-15511384D02*
X16538470Y-15501860D01*
X16538470Y-15501860D02*
X16567042Y-15501860D01*
X16567042Y-15501860D02*
X16586090Y-15511384D01*
X16586090Y-15511384D02*
X16595613Y-15520908D01*
X16595613Y-15520908D02*
X16605137Y-15539956D01*
X16605137Y-15539956D02*
X16605137Y-15597098D01*
X16605137Y-15597098D02*
X16595613Y-15616146D01*
X16595613Y-15616146D02*
X16586090Y-15625670D01*
X16586090Y-15625670D02*
X16567042Y-15635194D01*
X16567042Y-15635194D02*
X16538470Y-15635194D01*
X16719423Y-15635194D02*
X16700375Y-15625670D01*
X16700375Y-15625670D02*
X16690851Y-15606622D01*
X16690851Y-15606622D02*
X16690851Y-15435194D01*
X16871804Y-15625670D02*
X16852756Y-15635194D01*
X16852756Y-15635194D02*
X16814661Y-15635194D01*
X16814661Y-15635194D02*
X16795613Y-15625670D01*
X16795613Y-15625670D02*
X16786090Y-15606622D01*
X16786090Y-15606622D02*
X16786090Y-15530432D01*
X16786090Y-15530432D02*
X16795613Y-15511384D01*
X16795613Y-15511384D02*
X16814661Y-15501860D01*
X16814661Y-15501860D02*
X16852756Y-15501860D01*
X16852756Y-15501860D02*
X16871804Y-15511384D01*
X16871804Y-15511384D02*
X16881328Y-15530432D01*
X16881328Y-15530432D02*
X16881328Y-15549479D01*
X16881328Y-15549479D02*
X16786090Y-15568527D01*
X16957518Y-15625670D02*
X16976566Y-15635194D01*
X16976566Y-15635194D02*
X17014661Y-15635194D01*
X17014661Y-15635194D02*
X17033709Y-15625670D01*
X17033709Y-15625670D02*
X17043233Y-15606622D01*
X17043233Y-15606622D02*
X17043233Y-15597098D01*
X17043233Y-15597098D02*
X17033709Y-15578051D01*
X17033709Y-15578051D02*
X17014661Y-15568527D01*
X17014661Y-15568527D02*
X16986090Y-15568527D01*
X16986090Y-15568527D02*
X16967042Y-15559003D01*
X16967042Y-15559003D02*
X16957518Y-15539956D01*
X16957518Y-15539956D02*
X16957518Y-15530432D01*
X16957518Y-15530432D02*
X16967042Y-15511384D01*
X16967042Y-15511384D02*
X16986090Y-15501860D01*
X16986090Y-15501860D02*
X17014661Y-15501860D01*
X17014661Y-15501860D02*
X17033709Y-15511384D01*
X17109899Y-15711384D02*
X17119423Y-15701860D01*
X17119423Y-15701860D02*
X17138471Y-15673289D01*
X17138471Y-15673289D02*
X17147994Y-15654241D01*
X17147994Y-15654241D02*
X17157518Y-15625670D01*
X17157518Y-15625670D02*
X17167042Y-15578051D01*
X17167042Y-15578051D02*
X17167042Y-15539956D01*
X17167042Y-15539956D02*
X17157518Y-15492337D01*
X17157518Y-15492337D02*
X17147994Y-15463765D01*
X17147994Y-15463765D02*
X17138471Y-15444718D01*
X17138471Y-15444718D02*
X17119423Y-15416146D01*
X17119423Y-15416146D02*
X17109899Y-15406622D01*
X12115071Y-15878421D02*
X12115071Y-15736999D01*
X11973649Y-15736999D01*
X11973649Y-15878421D01*
X12115071Y-15878421D01*
X12386089Y-15699194D02*
X12509899Y-15699194D01*
X12509899Y-15699194D02*
X12443232Y-15775384D01*
X12443232Y-15775384D02*
X12471803Y-15775384D01*
X12471803Y-15775384D02*
X12490851Y-15784908D01*
X12490851Y-15784908D02*
X12500375Y-15794432D01*
X12500375Y-15794432D02*
X12509899Y-15813479D01*
X12509899Y-15813479D02*
X12509899Y-15861098D01*
X12509899Y-15861098D02*
X12500375Y-15880146D01*
X12500375Y-15880146D02*
X12490851Y-15889670D01*
X12490851Y-15889670D02*
X12471803Y-15899194D01*
X12471803Y-15899194D02*
X12414661Y-15899194D01*
X12414661Y-15899194D02*
X12395613Y-15889670D01*
X12395613Y-15889670D02*
X12386089Y-15880146D01*
X12595613Y-15880146D02*
X12605137Y-15889670D01*
X12605137Y-15889670D02*
X12595613Y-15899194D01*
X12595613Y-15899194D02*
X12586089Y-15889670D01*
X12586089Y-15889670D02*
X12595613Y-15880146D01*
X12595613Y-15880146D02*
X12595613Y-15899194D01*
X12776565Y-15765860D02*
X12776565Y-15899194D01*
X12728946Y-15689670D02*
X12681327Y-15832527D01*
X12681327Y-15832527D02*
X12805137Y-15832527D01*
X12919422Y-15699194D02*
X12938470Y-15699194D01*
X12938470Y-15699194D02*
X12957518Y-15708718D01*
X12957518Y-15708718D02*
X12967042Y-15718241D01*
X12967042Y-15718241D02*
X12976565Y-15737289D01*
X12976565Y-15737289D02*
X12986089Y-15775384D01*
X12986089Y-15775384D02*
X12986089Y-15823003D01*
X12986089Y-15823003D02*
X12976565Y-15861098D01*
X12976565Y-15861098D02*
X12967042Y-15880146D01*
X12967042Y-15880146D02*
X12957518Y-15889670D01*
X12957518Y-15889670D02*
X12938470Y-15899194D01*
X12938470Y-15899194D02*
X12919422Y-15899194D01*
X12919422Y-15899194D02*
X12900375Y-15889670D01*
X12900375Y-15889670D02*
X12890851Y-15880146D01*
X12890851Y-15880146D02*
X12881327Y-15861098D01*
X12881327Y-15861098D02*
X12871803Y-15823003D01*
X12871803Y-15823003D02*
X12871803Y-15775384D01*
X12871803Y-15775384D02*
X12881327Y-15737289D01*
X12881327Y-15737289D02*
X12890851Y-15718241D01*
X12890851Y-15718241D02*
X12900375Y-15708718D01*
X12900375Y-15708718D02*
X12919422Y-15699194D01*
X13157518Y-15765860D02*
X13157518Y-15899194D01*
X13109899Y-15689670D02*
X13062280Y-15832527D01*
X13062280Y-15832527D02*
X13186089Y-15832527D01*
X13262280Y-15899194D02*
X13262280Y-15765860D01*
X13262280Y-15784908D02*
X13271803Y-15775384D01*
X13271803Y-15775384D02*
X13290851Y-15765860D01*
X13290851Y-15765860D02*
X13319423Y-15765860D01*
X13319423Y-15765860D02*
X13338470Y-15775384D01*
X13338470Y-15775384D02*
X13347994Y-15794432D01*
X13347994Y-15794432D02*
X13347994Y-15899194D01*
X13347994Y-15794432D02*
X13357518Y-15775384D01*
X13357518Y-15775384D02*
X13376565Y-15765860D01*
X13376565Y-15765860D02*
X13405137Y-15765860D01*
X13405137Y-15765860D02*
X13424184Y-15775384D01*
X13424184Y-15775384D02*
X13433708Y-15794432D01*
X13433708Y-15794432D02*
X13433708Y-15899194D01*
X13528946Y-15899194D02*
X13528946Y-15765860D01*
X13528946Y-15784908D02*
X13538470Y-15775384D01*
X13538470Y-15775384D02*
X13557518Y-15765860D01*
X13557518Y-15765860D02*
X13586089Y-15765860D01*
X13586089Y-15765860D02*
X13605137Y-15775384D01*
X13605137Y-15775384D02*
X13614661Y-15794432D01*
X13614661Y-15794432D02*
X13614661Y-15899194D01*
X13614661Y-15794432D02*
X13624184Y-15775384D01*
X13624184Y-15775384D02*
X13643232Y-15765860D01*
X13643232Y-15765860D02*
X13671803Y-15765860D01*
X13671803Y-15765860D02*
X13690851Y-15775384D01*
X13690851Y-15775384D02*
X13700375Y-15794432D01*
X13700375Y-15794432D02*
X13700375Y-15899194D01*
X14090851Y-15689670D02*
X13919423Y-15946813D01*
X14347994Y-15699194D02*
X14367042Y-15699194D01*
X14367042Y-15699194D02*
X14386089Y-15708718D01*
X14386089Y-15708718D02*
X14395613Y-15718241D01*
X14395613Y-15718241D02*
X14405137Y-15737289D01*
X14405137Y-15737289D02*
X14414661Y-15775384D01*
X14414661Y-15775384D02*
X14414661Y-15823003D01*
X14414661Y-15823003D02*
X14405137Y-15861098D01*
X14405137Y-15861098D02*
X14395613Y-15880146D01*
X14395613Y-15880146D02*
X14386089Y-15889670D01*
X14386089Y-15889670D02*
X14367042Y-15899194D01*
X14367042Y-15899194D02*
X14347994Y-15899194D01*
X14347994Y-15899194D02*
X14328946Y-15889670D01*
X14328946Y-15889670D02*
X14319423Y-15880146D01*
X14319423Y-15880146D02*
X14309899Y-15861098D01*
X14309899Y-15861098D02*
X14300375Y-15823003D01*
X14300375Y-15823003D02*
X14300375Y-15775384D01*
X14300375Y-15775384D02*
X14309899Y-15737289D01*
X14309899Y-15737289D02*
X14319423Y-15718241D01*
X14319423Y-15718241D02*
X14328946Y-15708718D01*
X14328946Y-15708718D02*
X14347994Y-15699194D01*
X14500375Y-15880146D02*
X14509899Y-15889670D01*
X14509899Y-15889670D02*
X14500375Y-15899194D01*
X14500375Y-15899194D02*
X14490851Y-15889670D01*
X14490851Y-15889670D02*
X14500375Y-15880146D01*
X14500375Y-15880146D02*
X14500375Y-15899194D01*
X14700375Y-15899194D02*
X14586089Y-15899194D01*
X14643232Y-15899194D02*
X14643232Y-15699194D01*
X14643232Y-15699194D02*
X14624185Y-15727765D01*
X14624185Y-15727765D02*
X14605137Y-15746813D01*
X14605137Y-15746813D02*
X14586089Y-15756337D01*
X14767042Y-15699194D02*
X14890851Y-15699194D01*
X14890851Y-15699194D02*
X14824185Y-15775384D01*
X14824185Y-15775384D02*
X14852756Y-15775384D01*
X14852756Y-15775384D02*
X14871804Y-15784908D01*
X14871804Y-15784908D02*
X14881327Y-15794432D01*
X14881327Y-15794432D02*
X14890851Y-15813479D01*
X14890851Y-15813479D02*
X14890851Y-15861098D01*
X14890851Y-15861098D02*
X14881327Y-15880146D01*
X14881327Y-15880146D02*
X14871804Y-15889670D01*
X14871804Y-15889670D02*
X14852756Y-15899194D01*
X14852756Y-15899194D02*
X14795613Y-15899194D01*
X14795613Y-15899194D02*
X14776566Y-15889670D01*
X14776566Y-15889670D02*
X14767042Y-15880146D01*
X15062280Y-15765860D02*
X15062280Y-15899194D01*
X15014661Y-15689670D02*
X14967042Y-15832527D01*
X14967042Y-15832527D02*
X15090851Y-15832527D01*
X15205137Y-15699194D02*
X15224185Y-15699194D01*
X15224185Y-15699194D02*
X15243232Y-15708718D01*
X15243232Y-15708718D02*
X15252756Y-15718241D01*
X15252756Y-15718241D02*
X15262280Y-15737289D01*
X15262280Y-15737289D02*
X15271804Y-15775384D01*
X15271804Y-15775384D02*
X15271804Y-15823003D01*
X15271804Y-15823003D02*
X15262280Y-15861098D01*
X15262280Y-15861098D02*
X15252756Y-15880146D01*
X15252756Y-15880146D02*
X15243232Y-15889670D01*
X15243232Y-15889670D02*
X15224185Y-15899194D01*
X15224185Y-15899194D02*
X15205137Y-15899194D01*
X15205137Y-15899194D02*
X15186089Y-15889670D01*
X15186089Y-15889670D02*
X15176566Y-15880146D01*
X15176566Y-15880146D02*
X15167042Y-15861098D01*
X15167042Y-15861098D02*
X15157518Y-15823003D01*
X15157518Y-15823003D02*
X15157518Y-15775384D01*
X15157518Y-15775384D02*
X15167042Y-15737289D01*
X15167042Y-15737289D02*
X15176566Y-15718241D01*
X15176566Y-15718241D02*
X15186089Y-15708718D01*
X15186089Y-15708718D02*
X15205137Y-15699194D01*
X15347994Y-15699194D02*
X15347994Y-15737289D01*
X15424185Y-15699194D02*
X15424185Y-15737289D01*
X15719423Y-15975384D02*
X15709899Y-15965860D01*
X15709899Y-15965860D02*
X15690851Y-15937289D01*
X15690851Y-15937289D02*
X15681328Y-15918241D01*
X15681328Y-15918241D02*
X15671804Y-15889670D01*
X15671804Y-15889670D02*
X15662280Y-15842051D01*
X15662280Y-15842051D02*
X15662280Y-15803956D01*
X15662280Y-15803956D02*
X15671804Y-15756337D01*
X15671804Y-15756337D02*
X15681328Y-15727765D01*
X15681328Y-15727765D02*
X15690851Y-15708718D01*
X15690851Y-15708718D02*
X15709899Y-15680146D01*
X15709899Y-15680146D02*
X15719423Y-15670622D01*
X15900375Y-15899194D02*
X15786089Y-15899194D01*
X15843232Y-15899194D02*
X15843232Y-15699194D01*
X15843232Y-15699194D02*
X15824185Y-15727765D01*
X15824185Y-15727765D02*
X15805137Y-15746813D01*
X15805137Y-15746813D02*
X15786089Y-15756337D01*
X16138470Y-15899194D02*
X16138470Y-15699194D01*
X16224185Y-15899194D02*
X16224185Y-15794432D01*
X16224185Y-15794432D02*
X16214661Y-15775384D01*
X16214661Y-15775384D02*
X16195613Y-15765860D01*
X16195613Y-15765860D02*
X16167042Y-15765860D01*
X16167042Y-15765860D02*
X16147994Y-15775384D01*
X16147994Y-15775384D02*
X16138470Y-15784908D01*
X16347994Y-15899194D02*
X16328947Y-15889670D01*
X16328947Y-15889670D02*
X16319423Y-15880146D01*
X16319423Y-15880146D02*
X16309899Y-15861098D01*
X16309899Y-15861098D02*
X16309899Y-15803956D01*
X16309899Y-15803956D02*
X16319423Y-15784908D01*
X16319423Y-15784908D02*
X16328947Y-15775384D01*
X16328947Y-15775384D02*
X16347994Y-15765860D01*
X16347994Y-15765860D02*
X16376566Y-15765860D01*
X16376566Y-15765860D02*
X16395613Y-15775384D01*
X16395613Y-15775384D02*
X16405137Y-15784908D01*
X16405137Y-15784908D02*
X16414661Y-15803956D01*
X16414661Y-15803956D02*
X16414661Y-15861098D01*
X16414661Y-15861098D02*
X16405137Y-15880146D01*
X16405137Y-15880146D02*
X16395613Y-15889670D01*
X16395613Y-15889670D02*
X16376566Y-15899194D01*
X16376566Y-15899194D02*
X16347994Y-15899194D01*
X16528947Y-15899194D02*
X16509899Y-15889670D01*
X16509899Y-15889670D02*
X16500375Y-15870622D01*
X16500375Y-15870622D02*
X16500375Y-15699194D01*
X16681328Y-15889670D02*
X16662280Y-15899194D01*
X16662280Y-15899194D02*
X16624185Y-15899194D01*
X16624185Y-15899194D02*
X16605137Y-15889670D01*
X16605137Y-15889670D02*
X16595613Y-15870622D01*
X16595613Y-15870622D02*
X16595613Y-15794432D01*
X16595613Y-15794432D02*
X16605137Y-15775384D01*
X16605137Y-15775384D02*
X16624185Y-15765860D01*
X16624185Y-15765860D02*
X16662280Y-15765860D01*
X16662280Y-15765860D02*
X16681328Y-15775384D01*
X16681328Y-15775384D02*
X16690851Y-15794432D01*
X16690851Y-15794432D02*
X16690851Y-15813479D01*
X16690851Y-15813479D02*
X16595613Y-15832527D01*
X16757518Y-15975384D02*
X16767042Y-15965860D01*
X16767042Y-15965860D02*
X16786090Y-15937289D01*
X16786090Y-15937289D02*
X16795613Y-15918241D01*
X16795613Y-15918241D02*
X16805137Y-15889670D01*
X16805137Y-15889670D02*
X16814661Y-15842051D01*
X16814661Y-15842051D02*
X16814661Y-15803956D01*
X16814661Y-15803956D02*
X16805137Y-15756337D01*
X16805137Y-15756337D02*
X16795613Y-15727765D01*
X16795613Y-15727765D02*
X16786090Y-15708718D01*
X16786090Y-15708718D02*
X16767042Y-15680146D01*
X16767042Y-15680146D02*
X16757518Y-15670622D01*
M02*
